<?xml version="1.0" encoding="UTF-8"?>
<svg viewBox="0 0 1273.4193 558.19476" xmlns="http://www.w3.org/2000/svg">
 <g transform="translate(259.67 52.302)">
  <path d="m-136.95 505.34c-41.137-8.2439-86.218-13.3-122.72-34.213 8.0088-31.374 34.458-69.289 38.541-90.738 22.183-48.522 47.554-98.471 41.66-153.64 1.4401-49.77-0.77908-99.505-1.8204-149.26 12.809 7.9306-7.2103-47.836 0.84432-67.304-5.5894-28.177 26.802-54.022 48.163-62.452 36.371 0.20948 72.774-0.60455 109.12 0.88431-11.886 73.035 81.026 27.623 123.54 38.987 40.083-0.7986 82.768-2.207 117.02 21.149 56.806 33.112 125.54 15.865 187.87 18.737 44.298-2.176 92.744-1.9363 134.31-2.7473 72.741 1.6261 145.97-1.0313 219.56-0.25872 77.28-1.6802 154.41-4.6924 231.54-3.0358 34.257 27.277 23.691 80.167 10.685 119.3-2.3247 42.116-38.868 58.908-71.436 33.981-72.757-18.755-148.61-8.5836-222.83-10.961-22.888-1.1213-42.53 1.8481-71.18-0.10277-26.76 8.3313-47.593-9.0835-57.987 0.52893-15.354-6.5082-26.914 5.4877-50.165 3.0515-2.7823-14.789-18.906 7.6559-45.889-0.67682-34.625-0.23538-72.61 1.1013-100.95 1.1253-35.773-0.19973-78.452-0.16571-117.44 0.5542-65.371 1.0602-131.88 0.11551-196.52 3.6959-26.454 3.9677-93.679-18.157-76.876 31.814 1.6436 35.294 36.804 83.604 33.61 108.14-9.3098-1.9709 42.129 44.226 15.222 57.959 28.351-0.53098 30.406 49.923 49 69.839 25.643 34.186-45.605 36.478-66.5 48.592-51.246 16.211-105.34 19.029-158.38 17.053zm35.88-5.0233c61.841-2.3854 124.4-13.888 180.55-41.032-12.068-40.262-46.119-74.582-66.426-112.59-22.924-34.166-43.367-70.563-66.481-105.09-8.9614-5.8505-5.5003-43.987-38.721-27.842-18.242 2.0066-93.964-2.6422-36.852-3.1722 24.933-3.8014 76.909 13.837 57.739-31.017-7.3132-63.765-2.2697-128.64-7.5432-192.33-36.184 3.7549-108.65-20.773-90.576 41.693-2.1121 49.688 2.1036 103.57-1.2836 150.76-0.66544 42.497 7.7138 88.305-9.5404 128.16-13.125 46.412-38.964 84.962-54.961 131.09-27.344 31.321 5.9502 34.824 21.09 35.785 30.349 20.744 75.132 19.877 112.22 26.867l0.7794-1.2804v-1e-5zm-10.765-5.7866c2.7114-10.452 14.968 4.8765 0 0zm21.552-0.65532c-1.9573-7.9172 12.671 1.1873 0 0zm-39.037-0.86881c-6.0535-7.909 11.552 3.0235 0 0zm59.25-1.7559c10.57-6.2151 14.803 5.3158 0 0zm-83.444-0.46455c0.38797-12.451 14.371 7.4117 0 0zm109.08-2.5902c7.7412-6.1364 12.117 5.0279 0 0zm-126.64-1.0664c4.885-5.312 9.7593 5.8126 0 0zm147.75-1.6836c1.9707-10.604 16.237 3.0954 0 0zm-166.5-1.2458c-1.6268-12.173 12.58 6.9384 0 0zm100.11-2.0042c0.50096-13.719 14.13 5.7069 0 0zm-39.755-1.0818c0.57406-10.543 12.388 4.4239 0 0zm19.931 0.23349c0.57518-21.58 12.221 9.0149 0 0zm-39.788-1.341c-6.0492-14.084 18.004 3.5968 0 0zm79.806-0.22043c3.8966-11.842 15.929 4.5372 0 0zm66.694-0.34024c5.2179-5.4166 4.4767 4.726 0 0zm-164.25-4.05c3.9756-11.387 6.5727 6.0645 0 0zm122.61-1.1372c9.2473-5.5393 3.56 5.1529 0 0zm58.386 0.46286c9.3156-10.408 11.565 5.1944 0 0zm-39-3.4091c7.3693-7.8115 10.604 5.162 0 0zm-158-1.1166c3.8324-5.3812 3.8324 5.3812 0 0zm218-2c6.7612-9.4869 6.9462 5.1563 0 0zm-233.42-1.1431c-0.34989-7.1454 5.511 5.7924 0 0zm92.667 0.98085c-5.1121-10.23 13.736-0.26729 0 0zm-20-0.9815c-3.3173-9.779 13.174 0.65456 0 0zm120.57-0.57418c5.3116-2.312 3.1238 1.7623 0 0zm-82.485-1.282c7.4185-5.5192 7.4185 5.5192 0 0zm-59.333-0.45479c-0.75139-10.505 13.382 4.3046 0 0zm77-0.49042c10.57-6.2151 14.803 5.3158 0 0zm-143.33-0.98168c1.4602-8.9154 5.9693 5.4937 0 0zm224.74-0.72481c5.4979-10.213 12.554 1.6115 0 0zm-174.74-0.51497c-1.6508-6.2126 7.4576 2.5467 0 0zm117.33-0.42695c6.9267-9.7879 9.3362 3.9416 0 0zm-17.729-0.51055c3.9597-2.1014 0.93456 2.2534 0 0zm116.26-0.34566c9.3902-10.624 12.765 0.17583 0 0zm-231.08-2.1373c-0.31389-9.9026 7.7416 6.1788 0 0zm151.05 0.0795c4.2134-10.654 13.607 2.1771 0 0zm-167.5-4.4924c5.1823-5.4547 5.1823 5.4547 0 0zm225.22 0.32694c9.8554-6.3577 4.2625 4.5609 0 0zm-39.54-1.2239c6.1187-8.0459 7.2002 6.2564 0 0zm-76.556-2.5017c-0.8265-8.2441 12.67 2.1321 0 0zm-124.12-2.1013c4.8295-7.3376 6.1339 7.4592 0 0zm85 0.5c7.6887-6.39 10.104 6.1235 0 0zm20-0.0634c5.8013-5.4459 11.556 5.9691 0 0zm36.912 0.28156c1.1115-10.323 18.406 3.0724 0 0zm-75.589-1.3191c4.1925-10.246 11.703 7.0798 0 0zm151.69 0.61059c-1.1401-9.6293 13.447 3.595 0 0zm40.019-0.46847c0.88409-6.8951 8.8515 2.7724 0 0zm-94.28-1.7912c1.6336-11.268 9.0911 3.6707 0 0zm-113.75-0.55c2.5906-8.5753 10.162 4.8387 0 0zm-15.33-3.6172c2.4267-6.894 6.8688 5.3185 0 0zm145.55-0.76141c11.194-6.3382 5.5279 4.5579 0 0zm55.78-0.21436c4.3419-9.0346 9.5321 7.0673 0 0zm-217.25-1.857c1.0188-10.688 10.684 5.0985 0 0zm177.25-1.731c7.4541-6.4412 9.8469 4.5942 0 0zm55.694-1.6585c-0.47694-5.8772 5.0702 2.1758 0 0zm-161.57-3.25c-0.70959-8.5344 10.243 2.163 0 0zm17.878-0.61055c6.5258-5.4993 6.5258 5.4993 0 0zm14 0.098c22.666-10.038 41.777 2.006 6.8253 1.0253l-4.1959-0.0238-2.6294-1.0015zm92-0.098c5.8768-6.5256 10.863 4.9815 0 0zm-143-0.53432c0.15147-9.9187 14.66 4.5047 0 0zm-17-3.4067c4.0994-7.4993 8.6724 5.8976 0 0zm107-0.059c10.476-9.8326 7.7182 6.3794 0 0zm69.244-1.75c18.953-12.093 12.3 3.7482 0 0zm-192.24-1.143c5.9341-7.4623 9.4201 5.8447 0 0zm139.64-0.10699c16.06-8.1998 88.213-27.258 33.726-8.0062-10.823 2.5134-22.862 10.988-33.726 8.0062zm-153.64-3.5c3.6677-9.0015 9.5669 7.8807 0 0zm67.625-5.536c44.116-2.9174 90.138-6.2186 131.63-23.783-23.055 16.248-67.862 22.127-100.5 25.188-10.227-0.6328-21.164 1.4876-31.125-1.4055zm-17.044-0.33293c-41.059-3.2372 12.883-9.0954 3.6475 0.84518l-3.6475-0.84518zm-34.081-4.8546c-46.561-15.87 33.021-0.88975 0 0zm45.263-8.2231c-19.89 1.3231-91.51-21.519-36.371-9.5167 34.643 16.118 136.05-2.6844 129.57 1.4639-30.229 8.4067-61.97 9.3824-93.196 8.0528zm109.24-13.053c3.9032-3.6531 3.9032 3.6531 0 0zm5.5987-2.3966c26.425-12.503 10.731 3.6113 0 0zm-127.35-3.3059c-22.542-8.247-57.683-11.252-10.637-9.9052 49.01-0.73892 102.33 1.6524 148.58-4.616-38.939 17.686-75.027 7.0033-116.32 9.1821-13.627-1.2025-29.591 2.3513-6.8755 4.9127l-5.869 0.84136-8.881-0.41488zm77-1.9869c7.7454-1.5562 1.4871 1.6085 0 0zm-119.25-18.252c33.182-5.4041 75.986-4.6691 109.92-3.0744 22.706-5.841 100.76 0.82013 35.65 1.2276-47.33 2.7085-96.343 1.46-144.16 3.4839l-1.4092-1.6371zm8.192-16.818c51.583-4.8237 104.38-1.4993 156.34-5.223-27.458 10.04-84.509 2.2365-122.64 6.3125-10.399-1.3388-24.399 2.9495-33.699-1.0895zm2.4713-14.45c40.744-7.4743 92.546-3.0304 137.5-4.244-22.858 5.5989-82.924 2.3752-119.32 4.7181-6.0616-0.0708-12.145 0.19134-18.187-0.47413zm143.43-3.1749c-1.6378-7.3551 6.1737 4.6972 0 0zm3.1739-1.221c3.9597-2.1014 0.93456 2.2534 0 0zm-141.27-11.78c26.389-6.0734 107.98-3.2376 96.858-2.6157-29.446 4.2535-65.8 3.4428-96.858 2.6157zm106-2.1157c27.386-8.0502 49.247 6.8793 0 0zm-101.79-12.647c39.658-4.1622 83.221-5.1715 122.29-2.9236-39.633 3.7343-82.26 3.3152-122.29 2.9236zm3.7884-15.117c20.956-5.2032 88.17-4.6288 89.473-0.85752-29.721 0.0829-59.974 2.6212-89.473 0.85752zm99.655-2.1914c14.882-7.1027 19.199 5.5845 0 0zm-96.655-12.854c28.213-4.9078 82.364-4.2296 99.462-0.91823-33.048 0.31032-66.872 2.8328-99.462 0.91823zm4.0011-13.524c18.701-6.9103 94.314 1.9526 86.392-1.5971-28.83-0.28719-57.579 2.683-86.392 1.5971zm-3.5828-15.195c15.692-4.2136 91.993-5.8332 85.154-1.2738-28.369 0.69406-56.786 1.7963-85.154 1.2738zm-0.91414-14.965c15.304-8.8326 27.74 5.4191 0 0zm23.727 0.19805c-10.234-5.04 15.86 0.22465 0 0zm10.789-0.038c18.312-7.4575 80.664-1.0651 25.314 0.61628-8.3886-2.7073-16.858 1.6477-25.314-0.61628zm-36.77-30.417c22.42-3.192 117.34-3.0772 47.972 1.205-15.965-0.44677-32.115 1.0776-47.972-1.205zm2.3038-13.285c10.508-6.9726 109.81-3.6743 42.654-0.36441-13.935-1.3309-29.793 1.9949-42.654 0.36441zm6.1962-16.257c-33.714-6.9588 56.937-2.4732 0 0zm42-1.0036c-13.331-6.8497 17.03-0.34549 0 0zm12.75-1.2044c2.0452-8.8603 10.534 5.043 0 0zm-28.5-0.91667c3.0628-5.4852 12.214 4.7861 0 0zm-22.463-13.024c-26.846-6.3866 57.203-1.162 4.475 0.69661l-4.475-0.69672v1.1e-4zm36.463-1.6328c4.4743-4.7319 5.1704 5.465 0 0zm16-0.42668c12.837-11.338 5.705 7.5832 0 0zm-62.215-13.367c10.765-12.316 33.369 8.1487 0 0zm30.084-0.71433c-1.9166-6.5796 10.671 1.7503 0 0zm15.631 0.0809c3.5636-12.786 11.248 4.1239 0 0zm16.981-0.03c7.2638-12.868 7.578 6.8652 0 0zm-62.787-15.72c12.087-8.2941 27.64 3.1086 0 0zm30.653-0.7516c-3.9115-8.0898 11.163 2.4136 0 0zm16.319 0.83469c-4.3378-12.209 10.013 3.082 0 0zm15.349-0.58328c4.5954-10.374 12.104 5.4324 0 0zm-63.963-14.697c1.9922-8.564 11.177 3.5891 0 0zm15.198 0.17162c-8.0173-6.8355 13.025 0.87391 0 0zm16.306-0.13477c1.7149-11.23 11.107 4.0545 0 0zm33.199-0.34024c3.3852-11.449 14.468 6.4693 0 0zm-16.254-0.75c3.7205-3.7552 5.4656 3.6609 0 0zm-49.069-14.112c3.0108-8.4138 8.3409 4.8146 0 0zm15.264 0.32959c-5.831-7.6104 13.104 2.121 0 0zm17.305-0.13597c1.4873-11.558 9.871 4.9192 0 0zm17-1.0818c2.5549-3.5874 2.5549 3.5874 0 0zm-49.457-13.931c0.70824-7.6435 9.2356 5.1816 0 0zm31.437-1.1069c-0.84052-16.722 13.733 8.1138 0 0zm-15.98 0.03777c5.2428-3.6848 5.2428 3.6848 0 0zm1.4309-14.112c1.9306-6.846 5.2668 4.1186 0 0zm16.069 0.1118c7.0677-4.1003-0.92321-0.83064 0 0zm-16.5-15.427c5.1704-5.465 4.4743 4.7319 0 0zm-104.81 429.74c-4.3834-1.4324-0.43359 1.9249 0 0zm316.25-41.422c-4.193-3.3458-1.9868 4.8694 0 0zm-3.4352-4.8952c-2.5549-3.5874-2.5549 3.5874 0 0zm-31-52c-3.9032-3.6531-3.9032 3.6531 0 0zm-25.193-50.225c10.867-15.578-10.6 7.4495 0 0zm-3.5168-10.775c-5.448-9.2678-0.05016 9.6139 0 0zm-9.2898-12.059c-2.8802-1.9056-2.3337 3.4348 0 0zm-3-8.5143c-4.4743-4.7319-5.1704 5.465 0 0zm4.3005-6.086c-6.3731-4.7991-0.24931 8.5532 0 0zm-178.94 1.1593c-0.62807-5.5091-3.4844 5.4232 0 0zm177.84-4.7c-6.2643-2.3747 0.13125 4.5078 0 0zm11.8-0.85902c-3.1061-3.6266-1.8976 5.0354 0 0zm-19.638-4.441c-2.3777-5.3997-3.5053 5.2925 0 0zm8.2217-2.5c4.3405-5.0325-6.9644 4.5885 0 0zm-15.583-2c2.2864-3.9473-7.3076 3.348 0 0zm-13-0.37756c-2.7318-5.4088-4.4123 1.4442 0 0zm20.332-3.6378c3.2401-15.643-10.52 3.7402 0 0zm-22.527-11.113c-13.924-16.861-5.0826 13.012 0 0zm4.1953-1.9306c-2.8802-1.9056-2.3337 3.4348 0 0zm27-0.35919c-1.1716-8.2424-10.817 0.50167 0 0zm-15-2.5818c-3.9032-3.6531-3.9032 3.6531 0 0zm-20.37-3.25c-5.0677-10.696-7.1122 6.6457 0 0zm4.3697-2.25c-2.4793-5.269-2.4793 5.269 0 0zm4-9c-6.4808-4.9207 2.071 5.1746 0 0zm-8.6384-1c4.8386-17.102-12.005 5.805 0 0zm5.6384-2.559c-2.8802-1.9056-2.3337 3.4348 0 0zm-1.4116-6.6859c-4.7244-0.26205 3.115 7.2958 0 0zm-15.1-2.0051c-0.53837-14.772-16.102 6.9328 0 0zm31.512 0.25c-2.4793-5.269-2.4793 5.269 0 0zm-16-6.5c-2.4663-3.5623-1.2094 3.6562 0 0zm-10.5-5c-3.5883-3.8072-1.2419 3.9424 0 0zm0.75-3.4167c-2.415-4.6608-3.2414 4.3691 0 0zm6.4584-0.33333c5.7524-12.513-11.425 2.6307 0 0zm-17.708-3.75c-6.5258-5.4993-6.5258 5.4993 0 0zm-2.3042-6.9805c-6.3167-8.4361-1.0285 10.835 0 0zm-7.9458-0.14978c9.3399-10.133-15.657 3.2984 0 0zm2.25-10.87c5.6298-8.7272-9.6652 3.7772 0 0zm21 0.5c-4.9115-3.7796-7.0016 3.7034 0 0zm-12-9.2222c-6.4992-2.9282-2.6355 8.4908 0 0zm-14.812 1.5391c-4.3834-1.4324-0.43359 1.9249 0 0zm9.7111-0.69475c-0.59212-6.4526-8.7487 3.3073 0 0zm22.205-4.2161c-6.1992-17.568-33.676-11.404-2.722 1.524l2.722-1.524zm984.9-1.4651c-2.8802-1.9056-2.3337 3.4348 0 0zm-979-3.441c-2.3777-5.3997-3.5053 5.2925 0 0zm987 0.62244c-2.7424-7.3209-4.4786 3.1084 0 0zm11-3.6846c-6.388-5.1361-5.2325 4.8049 0 0zm5.5461-2.3576c-6.643-7.9784-3.6967 10.617 0 0zm8.0272 0.91973c1.3484-6.193-6.5086 7.4975 0 0zm-1052.6 0.94098c-2.8802-1.9056-2.3337 3.4348 0 0zm8.5884-6.6859c-5.2124 0.026 3.2664 7.1629 0 0zm1040.6 3.0618c-4.3834-1.4324-0.43362 1.9249 0 0zm-857.19-1.3169c-3.1313-2.9974-5.2033 3.9424 0 0zm838.94-0.19676c-9.7991-21.163-58.697-5.8369-10.983-1.5489 7.6068-10.364 6.409 7.6524 10.983 1.5489zm-981.44-0.80324c-1.2419-3.9424-3.5883 3.8072 0 0zm137.5-1.5833c-3.3759-4.458-3.5473 5.3258 0 0zm264.82-0.76531c-5.2839-7.2205-6.0204 7.9907 0 0zm29.824-2.3374c-4.8483 1.6252 2.5576 8.764 0 0zm-468.65 2.186c-5.4798-5.8732-2.4504 4.8899 0 0zm46.082 0.5c2.309-6.7848-8.8882 3.9515 0 0zm68.28-0.5c-2.3777-5.3997-3.5053 5.2925 0 0zm-41.362-0.5c-3.9032-3.6531-3.9032 3.6531 0 0zm595.84-1.4391c-2.1921-10.222-5.3854 7.3327 0 0zm-611.9-0.50752c-13.347-1.8922-4.8373-0.81588 0 0zm-60.948-2.1714c-3.4706-1.7239-1.6501 4.6687 0 0zm9.0658-2.882c2.3946-46.822-2.7572-95.44 1.3518-141.88-19.198-22.444 6.19 62.676-8.6602 77.304 6.164 11.691 4.9253 44.585-3.2574 54.973 13.344-13.583 3.5625 23.953 10.566 9.6079zm16.508 3.3042c-2.691-6.6975-2.9558 6.1024 0 0zm66.426 0.69579c-2.5549-3.5874-2.5549 3.5874 0 0zm147.79-0.10442c40.413-2.0909 78.789-0.31002 119.58-2.5315 0.52963-15.352 21.553 3.4764 21.96-11.922 36.501 1.151 54.203 21.359 98.399 11.254 25.109-4.6887 74.72 7.4359 87.819-5.3005-39.965-7.279-82.068 1e-3 -120.85-13.34-37.003-2.8632-71.483-4.6733-90.601-10.251-7.8 5.5289 21.941 9.3309-11.229 6.3814-18.784 3.5438-72.758-13.303-27.046-10.882 37.809 2.6472 77.39 1.4953 113.69 4.6962 30.797-0.0246 60.483 3.779 91.241 4.046 18.695-4.1868 97.622 1.7807 35.675 2.908-26.629 2.5712-66.772-4.826-85.5 2.7756 36.4 2.6718 75.556 10.161 108.89 6.2841 20.818-5.9694 15.374 20.007 42.723 10.375 33.396-1.2318 78.429 1.49 105.89-2.3025 60.235 0.34414 121.42 1.0946 181.85-1.5571-31.348-17.557 51.96 0.75411 65.243 1.1298 25.413 3.6942 76.074 1.5987 28.337-9.8309-42.542 1.6797-84.652-4.0566-125.86-12.938-53.001 0.83088 5.1962 11.851 6.7968 13.734-37.962 0.0639-70.416-16.615-109.66-10.077-31.426 12.098-41.128-2.4503-74.685-3.633 62.406-2.5584 125.27 1.3066 187.36-5.6552 35.688 15.364 72.016 8.7006 108.44 12.594 20.572 2.2924 61.573-14.255 14.165-9.2358-29.99 4.4982-60.817-4.1905-92.619-6.2476-44.515-8.184-90.485 2.2663-135.8-1.6192-82.409 0.0811-164.8 5.279-247.24-0.078-59.828 0.86531-120.1 2.5386-179.69-2.0604 35.389-7.5047 81.67-1.0951 120.06-1.3812 7.0066 2.3454 60.099-2.5398 32.877-8.8577-33.609 0.24045-70.274 1.7091-101.73-1.374-32.62 0.7033-74.626 0.76994-110.71-2.9089-22.451 1.0424-70.641-15.046-74.56-0.54263 33.177 1.0691 66.807 10.877 98.453 9.0512-9.3761 14.501-55.436-7.2456-77.857-2.3738-42.585-0.97981-83.964-21.252-126.32-12.941 12.181 8.1829 89.624 7.0775 56.505 14.079-35.361-3.3686-79.397-18.851-63.54 30.9-44.432 1.0089 44.607 10.575 56.711 6.5392 20.657-5.5564 104.58 2.4037 39.268 1.0066-20.232 6.5022-83.753-6.4931-76.167 10.491 27.459 4.3593 57.543-0.33445 85.789 2.2082 7.9672-0.63154 15.964-0.52115 23.947-0.61258zm9.7149-9.8956c-44.626-5.49 91.285-2.8229 55.466-6.1489-17.788 3.0959-37.026 8.8563-55.466 6.1489zm196.75-0.73724c-18.33-6.5907 29.316 3.6869 0 0zm14.5 0.075c5.5068-1.6231 0.99942 1.7502 0 0zm-40.75-1.3378c5.4656-3.6609 3.7205 3.7552 0 0zm268.5-1c-20.704-8.9159 39.737 1.3032 0 0zm19.322-0.33963c24.716-11.108 49.444 2.3589 79.954-5.9346 22.014-4.3517 59.119 2.3599 14.744 2.6508-31.415 3.9551-63.806 4.7468-94.698 3.2838zm-397.57-1.3838c-5.5341-5.5693 43.209 3.1631 5.3797 0.29732l-5.3797-0.29732zm27.139-0.097c13.302-7.4988 31.391 1.0752 0 0zm338.61-0.6796c4.7306-5.7207 3.2735 5.1581 0 0zm-305.25-0.21625c-11.074-7.4514 19.181 3.7782 0 0zm241.5 0.0105c-7.0223-6.3363 13.883 1.1476 0 0zm20.444-0.93375c1.6126-6.6103 10.989 4.6784 0 0zm-272.19-1.3605c6.5773-3.7014 6.5773 3.7014 0 0zm468.5-1.393c3.7667-3.2354 5.5129 1.7371 0 0zm-643.25-5.1869c-42.335-5.1491 63.881-4.8658 80.721-7.3938 65.396 4.3349-25.512 4.8701-45.265 5.0424-11.954-0.81685-23.587 2.3506-35.456 2.3514zm-28.753-1.3348c-20.426-1.8424-64.822-9.0563-17-6.0853-4.3049-2.9167 32.097 5.0794 17 6.0853zm437-0.21032c24.585-6.371 49.063 1.0066 11.915 1.1936l-8.2098-0.27161-3.7051-0.92195zm37.501 0.12664c22.043-10.697 93.762-1.158 31.999-1.1578-10.656-0.28798-21.493 1.2362-31.999 1.1578zm-344.78-11.61c-54.408-6.2473-110.19 2.9312-163.97-5.784 10.966-3.8644 43.908 3.2968 65.377-1.4824 28.009 5.1735 88.172-3.8098 98.597 7.2664v-2e-5zm53.041-4.9594c-44.711-7.7087 45.651-2.2349 0 0zm693.5 42.97c3.1088-7.3862-6.659 2.3488 0 0zm-1036.8-2.0092c3.4465-13.209-10.055 2.885 0 0zm77.039-1.4621c-3.1875-3.3269-0.36508 4.9252 0 0zm298.54 0.0691c-7.9201-7.5847 0.21111 8.1894 0 0zm212.02-1.5651c3.1427-16.314-10.078 9.3009 0 0zm337.96 0.8151c1.2118-4.413-12.712 7.7082 0 0zm-886.23-2.5c-4.6736-5.8739-2.9858 4.3444 0 0zm17.005-0.5c-8.7167-5.9865-6.1644 6.4522 0 0zm17.705 0.40264c-1.769-11.385-17.132 3.6034 0 0zm32.193-0.97287c-19.616-12.087-44.523 7.3953-4.5143 0.5012l4.5143-0.5012zm847.09-0.39289c-14.327-7.6797-17.696 6.3558 0 0zm15.757 0.71312c-5.4655-3.6609-3.7205 3.7552 0 0zm86.67-7.4443c1.7717-36.497-12.054 26.895 2e-4 0h-2e-4zm-1047.4 5.6318c-3.3621-4.4497-3.6338 5.246 0 0zm14.756 0.85617c-5.5398-1.7333-3.5417 3.261 0 0zm897.47-2.6027c-4.0484-1.9154-2.393 3.4144 0 0zm-428.5-4.441c-2.4663-3.5623-1.2094 3.6562 0 0zm-425.25-3.25c50.076 2.8065 0.77766-13.19-17.252-5.75 4.6789 2.5048 17.377 3.7637 17.252 5.75zm272.37-13.283c-16.532-7.5993 0.5459 9.1359 0 0zm-448.44 1.8499c-4.3834-1.4324-0.43359 1.9249 0 0zm140.81-0.31689c13.479-15.798-12.852-4.0892 0 0zm78-1.4506c-10.658-8.4334-8.3908 6.0943 0 0zm-59.614 0.6354c39.166 2.6628 4.4923-11.077-9.3858-5.5181 5.6628 1.0593 0.54506 7.3199 9.3858 5.5181zm48.745-0.91598c-20.408-16.553-45.721 9.4551 0 0zm958.87-4.0463c6.9532-16.675-0.48982-75.347 0.46048-23.899-2.0247 2.0033-8.7149 34.147-0.46048 23.899zm-1168-3.2225c-3.8443-3.5852-2.5632 3.7039 0 0zm133.65 0.31296c-7.9152-3.0458-4.616 2.7373 0 0zm79.354-2.313c-2.5549-3.5874-2.5549 3.5874 0 0zm-78-2c-2.5549-3.5874-2.5549 3.5874 0 0zm612.53-1.6108c39.046-2.8428 78.485 1.6407 117.92-2.0722 32.101 0.65141 66.997-0.20923 100.64-2.003 13.351 0.95169 87.139-3.7135 34.395-6.6012-53.52 3.1175-106.97-0.43062-160.48 0.21448-41.701-0.80161-86.84 0.10352-130.76 0.9462-67.252 6.3028 29.085 8.6456 38.282 9.5156zm382.27 0.73946c24.296 1.9664 37.809-12.213 2.8723-7.8134-28.852-2.1404-64.015 0.13943-89.787-2.5828 16.11 20.612 62.057 9.0929 86.915 10.396zm-1014.8-1.1877c-4.3859-3.7867-2.1703 5.0757 0 0zm28.755 0.30902c-8.9682-6.1895-7.1371 6.7267 0 0zm63.016-0.0625c-4.7681-4.6419-3.5474 5.1985 0 0zm9.6978 0.86322c-4.8816-4.4347-6.8546 2.7288 0 0zm817.78-0.46739c-2.415-4.6608-3.2414 4.3691 0 0zm-842.53-0.93761c-16.097-10.382-56.224-2.4216-10.576 1.1446l10.576-1.1446zm8.281 0.29526c-2.8802-1.9056-2.3337 3.4348 0 0zm-53.008-2.75c-7.3423-6.7495-10.128 5.2097 0 0zm530.01-0.75609c-8.4195-7.5222-9.5093 0.59299-2 0.85486l2-0.85486zm-678-0.93489c-4.2376-5.9603-0.72234 5.2702 0 0zm153-0.53138c-7.8107-8.5742-2.0506 5.5867 0 0zm-40.5-0.96862c-3.7205-3.7552-5.4656 3.6609 0 0zm91.5-0.53138c-4.3159-7.3316-5.0069 5.8048 0 0zm-70.262-1.1603c-2.5516-5.1685-8.9756 0.93786 0 0zm24.247-1.0583c-2.2928-11.45-7.2779 7.4677 0 0zm522.02-0.28222c-11.838-12.478-6.2772 7.0255 0 0zm-541-0.46778c-9.8865-7.6614-1.4521 6.2897 0 0zm56.869 0.15799c2.6714-19.005-48.05 0.24784-4.0237-2.8875 6.0972 2.048-5.6494 6.14 4.0237 2.8875zm-28.869-1.5356c-4.289-7.8941-11.616 3.8694 0 0zm51 0.10495c-12.225-9.2346-37.76 6.9106 0 0zm389.57-1.656c11.379-1.9018 61.184-1.5628 20.328-6.5886-5.5897-0.8129-43.06-1.8247-20.328 6.5886zm-36.505-1.0954c54.081-6.7186-38.041-13.554-57.337-8.5796-38.32 3.0462-77.71-1.698-116.15-6.694-27.948 0.09449-68.045-16.886-101.05-16.656-56.069 2.5332 35.827 10.214-7.5885 14.454-52.457-10.185 9.9475 21.104 22.3 6.227-20.069-28.29 51.384 0.78318 68.759 1.2043 34.41 7.1026 70.889 5.0834 103.4 8.931 29.832-2.5278 56.774 2.0135 87.671 1.1137zm111.93 0.024c-2.4793-5.269-2.4793 5.269 0 0zm159.3-1.0389c18.442-6.4297 42.807 0.27629 63.067-2.2001 33.099-2.2474 105.19 4.0022 118.08-5.3868-29.751-3.2662-55.879-1.4782-85.952-1.6975-54.549-2.1314-109.43 2.8864-162.99 1.6491-18.23-1.0859-79.698 4.0961-28.503 6.341 32.145-3.0745 66.647-0.53998 96.298 1.2944zm337.62-1.9023c-6.43 0.85019-2.9992 8.5724 0 0zm-204.42 2.6642c-3.0311-5.3098-3.0597 3.3147 0 0zm70.498-0.86501c14.262 3.047 95.19-2.0587 51.927-7.3398-8.0873 1.5388-93.786-1.9536-51.927 7.3398zm-818.65-1.9012c-3.204-3.9379 1.094 4.9581 0 0zm915.44-0.2996c15.782-16.904-38.632 8.2824 0 0zm-991.34-1.067c0.0555-11.557-9.0609 3.9245 0 0zm175.04-1.0713c-9.7059-7.5376-14.649 5.0542 0 0zm-185.47-1.769c12.893-5.8636-14.969-6.9916 0-1e-5v1e-5zm85.624 1.058c-22.394-12.163-66.369-4.8273-18.069-0.88723 6.0505 0.49072 11.909 3.1758 18.069 0.88723zm436.38-1.326c4.5258-8.8633-11.905 2.4957 0 0zm489.98-1.4821c-4.0974-5.3816-2.3435 5.094 0 0zm-1045.4-0.6118c-4.7362-10.058-4.9864 3.7939 0 0zm223.43 0.23424c-5.9408-10.589-4.5207 5.2613 0 0zm352-1.1224c-2.5549-3.5874-2.5549 3.5874 0 0zm-123.5-1c-2.4663-3.5623-1.2094 3.6562 0 0zm-445.31-0.68311c-4.3834-1.4324-0.43359 1.9249 0 0zm111.19-0.86883c-1.4085-3.8192-1.8419 5.0629 0 0zm445.62-0.0071c-3.1061-3.6266-1.8976 5.0354 0 0zm80.337-1.7024c33.513-4.7393 69.799-0.95684 101.66-2.9385 20.633 4.1171 104.63-6.6328 45.551-3.9813-42.146-3.2616-83.864 3.6996-125.04-0.99381-26.16 4.9932-100.03-0.25963-44.543 8.6901 7.526-1.9519 18.511 5.3781 22.372-0.77648zm-574.61 1.5685c-6.591-1.4799-1.2797 1.6583 0 0zm815 0.0865c30.935-10.422 76.827 2.9901 112.47-6.7065 16.438-11.921-51.159 4.0363-67.954-1.1693-34.487-8.3333-19.902-2.6591-51.635-0.91627-24.564-4.842-77.642 3.4961-22.039 3.8423 8.4152 1.7156 25.734-2.1634 29.162 4.9498zm-351.12-4.1227c-4.889-0.0236 2.725 5.1753 0 0zm53.396 0.22921c-2.5953-8.3776-2.9543 8.4944 0 0zm-580 0.5c-3.9032-3.6531-3.9032 3.6531 0 0zm401.29-1.204c-1.6894-11.652-27.996 5.227 0 0zm-309.44-0.37017c-2.1131-8.4242-13.184 7.0021 0 0zm54.666 0.39068c-15.187-10.471-61.219 1.3361-15.032 0.66495l10.273-0.238 4.7583-0.42696zm213.3-2.0665c-20.631-10.637-41.476 5.4005 0 0zm207.19-0.464c12.462-2.0436-10.241-5.4185 0 0zm-514.56 0.60922c-4.193-3.3458-1.9868 4.8694 0 0zm329.36-0.49734c-8.9789-14.27-15.655 7.6776 0 0zm-378.8 0.10212c-7.105-5.0988-1.9136 4.7218 0 0zm24 0c-2.909-5.1773-2.6224 5.2158 0 0zm18 0.44098c-2.8802-1.9056-2.3337 3.4348 0 0zm443.5-1.441c-11.907-10.654-14.344 10.518 0 0zm542.5 0.14352c-7.4298-4.8882-5.7643 4.6081 0 0zm-976-0.64352c-2.4663-3.5623-1.2094 3.6562 0 0zm47 0c-3.9032-3.6531-3.9032 3.6531 0 0zm342.75-0.25c-5.2179-5.4166-4.4767 4.726 0 0zm-413.75-0.31574c-4.0388-11.803-5.4222 2.2178 0 0zm16.602-4.1656c-9.4452 0.86508-2.327 8.0583 0 0zm216.42 3.2072c0.62902-13.839-10.931 5.794 0 0zm47.619 0.0242c-20.844-20.059-52.958-0.15109-10.682-0.57461l5.5852 1.6784 5.0966-1.1038v3e-5zm154.55 0.81689c-4.3834-1.4324-0.43359 1.9249 0 0zm-394.2-2.5523c-11.549-12.101-27.006 7.8166 0 0zm955.51 0.23534c-2.4662-3.5623-1.2094 3.6561 0 0zm-1033.1-2.25c-7.1471-7.6289 2.9126 8.4408 0 0zm426.4-0.25c-7.338-7.743 1.2054 8.4311 0 0zm435.18 1c-2.6684-8.4301-4.3951 4.0635 0 0zm168-1c27.154-9.634-37.466-0.93666 0 0zm18.356-1.173c-1.8445-11.763-5.6765 6.5712 0 0zm23.144 1.673c-2.5632-3.7039-3.8442 3.5852 0 0zm-581.5-1.5c-2.4793-5.269-2.4793 5.269 0 0zm14 0.44098c-2.8802-1.9056-2.3337 3.4348 0 0zm28.362-0.44098c-0.86541-5.2821-2.3736 5.247 0 0zm65.305 0c-3.3811-5.3478-3.3811 5.3478 0 0zm373.33 0.5c-3.8442-3.5852-2.5632 3.7039 0 0zm49.188 0.31689c-4.3834-1.4324-0.43362 1.9249 0 0zm-899.01-2.8142c3.1028-14.518-9.6718 7.1631 0 0zm241.28 0.42816c-3.1875-3.3269-0.36508 4.9252 0 0zm362.54 0.0691c-3.3785-6.9828-2.1982 7.0518 0 0zm22.384 0.25c8.2875-13.626-9.9471 7.8554 0 0zm108.62 0.75c-2.5549-3.5874-2.5549 3.5874 0 0zm22.75-0.75c-4.0218-4.6804-4.7709 5.2531 0 0zm56.25 0.75c-7.0862-3.0571 1.7873 3.5476 0 0zm-658.85-2c-5.4515-5.7509-53.179-17.93-61.405-7.2123 20.567-0.63389 41.216 8.9097 61.405 7.2123zm303.62 0.18393c-8.8332-13.355-14.854 4.0488 0 0zm99.223 0.25705c-4.0484-1.9154-2.393 3.4144 0 0zm386.11-1.4462c1.327-30.31-11.572 0.65857-1e-4 0h1e-4zm-540.36 0.75525c-3.6119-3.7218-3.0764 4.3818 0 0zm315.32-1.75c1.6561-11.861-5.3481 6.752 0 0zm33.677 1.25c-4.4768-4.726-5.2179 5.4166 0 0zm35.25-0.73759c-9.5353-15.048-8.0292 9.3556 0 0zm-833.44-0.0442c-10.294-4.519 3.7141 5.3474 0 0zm142.43-1.4945c-8.567-4.6083 2.0566 6.9485 0 0zm182.56 0.96528c-13.939-25.608-23.432 1.7402 0 0zm117.44 1.061c-2.5549-3.5874-2.5549 3.5874 0 0zm430 0c-3.9032-3.6531-3.9032 3.6531 0 0zm46.457-1.0691c-3.1875-3.3269-0.36513 4.9252 0 0zm22.343 0.8691c6.4321-11.342-10.471 6.9369 0 0zm-459.13-1.3c-2.0319-5.2298-2.0319 5.2298 0 0zm180.33 0.5c-3.9032-3.6531-3.9032 3.6531 0 0zm-706.6-2.6109c-4.1032-4.1777-7.5427 5.7753 0 0zm298.6 1.0519c-3.1061-3.6266-1.8976 5.0354 0 0zm28.418 0.95203c4.9575-11.057-19.255 1.9242 0 0zm62.382-0.8603c-2.518-9.1558-12.349 6.3933 0 0zm509.2 0.45198c1.0628-9.9579-11.154 4.3545 0 0zm25-0.48469c-3.8324-5.3812-3.8324 5.3812 0 0zm-950-0.5c-3.9032-3.6531-3.9032 3.6531 0 0zm657-1.69c-4.7617-4.0608-4.2578 6.9426 0 0zm68.25 1.2733c-2.415-4.6608-3.2414 4.3691 0 0zm282.56-1.8333c-0.89335-17.763-24.579 0.27158-16.302 1.3498 3.9086-3.0204 12.828 3.8969 16.302-1.3498zm-846.37-0.2818c61.284-12.462-97.007-3.206-25.397-1.0136 8.1658-2.4484 18.299 3.5442 25.397 1.0136zm17.559 0.5318c-2.5632-3.7039-3.8443 3.5852 0 0zm850 0c-4.9116-3.7796-7.0015 3.7034 0 0zm-1012-1c-2.5632-3.7039-3.8443 3.5852 0 0zm290-0.5c-4.0974-5.3816-2.3436 5.0941 0 0zm138.47-0.63531c-3.4272-9.0427-3.541 8.2706 0 0zm404.53 0.63531c-4.2375-5.9603-0.72236 5.2702 0 0zm-746.25-1.7597c-6.722-20.786-8.2831 6.3562 0 0zm160.27 1.0097c2.1261-8.148-21.674-1.2794 0 0zm36.985-0.25c-4.7306-5.7207-3.2735 5.1581 0 0zm669.77-0.3125c-3.3621-4.4497-3.6337 5.246 0 0zm51.479 1.1502c-5.5068-1.6231-0.99942 1.7502 0 0zm-988.25-0.75593c2.7418-6.922-5.4139 0.18055 0 0zm33-1.0818c-2.4793-5.269-2.4793 5.269 0 0zm384.25 0.0833c-2.415-4.6608-3.2414 4.3691 0 0zm44.25-0.0833c-6.6576-5.7314-7.9016 5.6572 0 0zm364.5 0c-4.7996-8.5362-8.2585 6.631 0 0zm51 0.5c-3.8442-3.5852-2.5632 3.7039 0 0zm55-0.55902c-2.8802-1.9056-2.3337 3.4348 0 0zm-926-0.44098c-2.5632-3.7039-3.8443 3.5852 0 0zm465 0c-2.5549-3.5874-2.5549 3.5874 0 0zm105.08 0c1.0731-9.6228-16.801 4.9396 0 0zm-422.08-0.39301c-3.9041-3.2606-4.008 1.7751 0 0zm118.36-1.107c-2.3777-5.3997-3.5053 5.2925 0 0zm521.64-0.10699c-4.008-1.7751-3.9041 3.2606 0 0zm6.2997-0.0752c10.648-6.358-13.429 3.1786 0 0zm-762.3-0.31781c-3.8443-3.5852-2.5632 3.7039 0 0zm445.37-0.4807c5.8901-13.935-9.6739 3.0974 0 0zm21.629 0.4807c-3.9032-3.6531-3.9032 3.6531 0 0zm16-0.5c-3.8324-5.3812-3.8324 5.3812 0 0zm27.333-0.82347c1.5152-10.351-22.489 4.3432 0 0zm198.98-0.76366c-5.7714-0.84011 1.1374 6.3876 0 0zm-436.58-0.97684c-11.917-5.7275 5.0199 8.9436 0 0zm24.272 1.564c-2.4793-5.269-2.4793 5.269 0 0zm30.812-0.23852c-5.5094-7.7761-2.0528 5.681 0 0zm196.68-0.27779c-4.0337-1.9281-2.2655 3.4739 0 0zm-540.49-0.92467c-2.1154-4.965-3.8871 3.6182 0 0zm210-0.11804c-2.8802-1.9056-2.3337 3.4348 0 0zm600.73-0.33483c-4.3539-15.553-14.174 6.9655 0 0zm50.714-0.13795c3.1613-5.9619-9.1882 4.4182 0 0zm78.559 0.65377c-1.4073-19.085-24.748-9.6758 0 0zm-1003.5-1.122c-7.3848-3.7702-3.3246 3.9371 0 0zm11.5-2.6224c-3.6886-4.1916-3.6358 8.6769 0 0zm66.784 2.7772c0.08078-11.79-12.237 4.3866 0 0zm350.22-0.15474c-2.5549-3.5874-2.5549 3.5874 0 0zm31.5 0c7.0886-9.9385-14.148 0.34135 0 0zm268.69 0.31689c-4.3834-1.4324-0.43359 1.9249 0 0zm178.89-2.1477c-9.0214 0.92787-5.6875-2.7382 0 0zm-707.1-3.4686c-16.698-6.1714-6.7144 10.794 0 0zm432.7 1.9712c-3.3647-9.5899-3.0372 10.533 0 0zm-506.67 0.76922c-3.0682-3.5451-0.58932 4.9281 0 0zm88.299-0.40515c-3.582-4.3888-2.8396 6.6244 0 0zm-215.3-0.03583c-2.4663-3.5623-1.2094 3.6562 0 0zm51.75-0.25c-3.6119-3.7218-3.0764 4.3818 0 0zm7.6116-0.25c-0.86541-5.2821-2.3736 5.247 0 0zm419.64-0.08333c-3.4938-4.4507-3.5458 5.339 0 0zm409.48-2.2652c-3.5367-1.1455-3.1285 10.007 0 0zm-625.48 1.8486c-2.5549-3.5874-2.5549 3.5874 0 0zm26.995-0.25c-7.8776-17.057-8.7791 3.8595 0 0zm-136.87-0.75c0.21901-13.799-7.6052 2.3487 0 0zm68.875-0.059c-2.8802-1.9056-2.3337 3.4348 0 0zm798.5 0.059c-2.4662-3.5623-1.2094 3.6561 0 0zm-986.5-1c-2.5549-3.5874-2.5549 3.5874 0 0zm74.188 0.31689c-4.3834-1.4324-0.43359 1.9249 0 0zm160.81-0.25787c-2.1154-4.965-3.8871 3.6182 0 0zm103.5-0.0511c0.18043-10.364-7.0411 4.4598 0 0zm383.87-0.50792c-2.3736-5.247-0.86541 5.2821 0 0zm-599.04-2.3384c-6.3882 0.62377 3.2346 3.0788 0 0zm185.68 1.9934c-9.1518-13.102-3.5105 3.7622 0 0zm12-0.53255c-3.2194-10.961-9.3225 6.9116 0 0zm-230-1.1224c-2.4793-5.269-2.4793 5.269 0 0zm12.435 0.60478c-4.4829-7.4557-11.82 4.322 0 0zm51.752 0.21211c-4.3834-1.4324-0.43359 1.9249 0 0zm582.31-2.1502c-2.8656-5.0503-2.9369 5.5151 0 0zm-454.73-0.35417c-3.6338-5.246-3.3621 4.4497 0 0zm77.229 0.1875c-2.4663-3.5623-1.2094 3.6562 0 0zm197-0.56574c-3.3928-16.359-8.3895 7.6856 0 0zm313-0.43426c-2.6644-6.6887-2.6379 6.9225 0 0zm-469-0.059c-2.8802-1.9056-2.3337 3.4348 0 0zm57-0.38196c-1.7769-6.7871-3.0916 5.4058 0 0zm-459.5-0.55904c-3.8443-3.5852-2.5632 3.7039 0 0zm274.69 0.31689c-4.3834-1.4324-0.43359 1.9249 0 0zm558.58-1.1294c-3.3621-4.4497-3.6337 5.246 0 0zm-642.13-0.6875c11.816-12.93-17.195 2.3945 0 0zm-172.02-0.69098c-3.046-14.401-10.94 3.1782 0 0zm578.88 0.19098c-3.8443-3.5852-2.5632 3.7039 0 0zm-592.5-1c-3.9032-3.6531-3.9032 3.6531 0 0zm19 0c-3.9032-3.6531-3.9032 3.6531 0 0zm187-1.3333c-1.8888-6.9661-3.4127 4.5608 0 0zm71.2-1.8667c-4.6188-1.911 1.9526 7.6106 0 0zm738.34 2.1335c1.0125-4.9592-6.8588 4.6726 0 0zm-953.04-0.93347c-2.5632-3.7039-3.8443 3.5852 0 0zm412.1-1.7292c-2.2533 0.93468 2.1015 3.9596 0 0zm463 0c-4.8892-0.02345 2.7252 5.1752 0 0zm-762.6-0.32844c-4.7079-7.9833-6.0682 6.5995 0 0zm281 1.0576c-2.5549-3.5874-2.5549 3.5874 0 0zm322.77-0.82425c-5.6626-3.7566-6.9474 4.6416 0 0zm181.64 1.2173c4.5522-8.3467-11.082 1.0556 0 0zm-800.61-3.039c-10.97-9.134-7.2331 5.603 0 0zm9.1954 1.6459c-3.9032-3.6531-3.9032 3.6531 0 0zm66.768-1c16.323-11.578-10.801 4.8593 0 0zm38.232 0.5c-2.4793-5.269-2.4793 5.269 0 0zm260.6-1.2292c-4.889-0.0236 2.725 5.1753 0 0zm-514.6 0.22917c-7.9577-7.6776-2.4782 6.8622 0 0zm5.3129-1.5871c-5.7556-0.98563 1.1428 6.3908 0 0zm31.687 1.0871c-2.5549-3.5874-2.5549 3.5874 0 0zm426-0.94098c-1.8976-5.0354-3.1061 3.6266 0 0zm414-2.059c-2.5549-3.5874-2.5549 3.5874 0 0zm-874.5-3c-3.1175-6.1678-3.1175 6.1678 0 0zm89.494-1.0038c-5.2979-10.3 0.56097 7.6439 0 0zm-113.99 0.42052c-3.3759-4.458-3.5473 5.3258 0 0zm19.571 0.15476c5.5099-8.4956-9.4551 5.6202 0 0zm48.343-1.1527c-4.1093-4.4254-8.4914 4.8213 0 0zm-77.553-1.9187c-0.62807-5.5091-3.4844 5.4232 0 0zm973.83-1.1831c-4.3835-1.4324-0.43358 1.9249 0 0zm-712.74-6.746c-4.2062 3.6491-1.1351-1.4993 0 0zm-111.46-0.87988c-4.7084-0.74306-0.0363 7.0747 0 0zm30.015 2.2257c-4.8816-8.5866-8.6607 1.2601 0 0zm-141-4.9757c-2.8802-1.9056-2.3337 3.4348 0 0zm182.39-0.52277c2.1963-12.77-10.795 6.2204 0 0zm-126.39-1.9772c-3.8541-5.508-3.2292 5.9386 0 0zm21.604-0.17015c-2.2533 0.93468 2.1015 3.9596 0 0zm114.4-1.806c-5.9773-6.7235-3.2721 10.492 0 0zm-128.57 0.42149c-3.4889-4.2604-4.2716 6.397 0 0zm-46.633-1.052c7.9006-9.9434-22.106 0.23811 0 0zm115.7-0.83432c-3.9444-6.2844 1.649 8.636 0 0zm-96.686-1.2746c-2.61-4.4405-5.7816 6.7353 0 0zm-9.1552-1.2401c-1.8127-13.977-8.8763 5.4257 0 0zm-41.781-1.3888c1.3734-8.6291-8.092 3.0366 0 0zm97.122-0.66981c-4.4743-4.7319-5.1704 5.465 0 0zm90.884-2.6767c-5.9695 4.9302-2.0556 1.4113 0 0zm-61.456 1.5c-2.6433-5.1029-4.8598 3.7508 0 0zm-147.43-2.25c-3.9032-3.6531-3.9032 3.6531 0 0zm3.5102-9.3674c0.38875-14.336-17.793 9.3642 0 0zm6.9195-5.7463c-8.1058-4.0129-3.4525 5.5438 0 0zm-125.18-0.40001c-4.0046-3.6512-3.8162 4.5549 0 0zm113.57-2.8192c-2.7652-6.2963-5.3263 6.8182 0 0zm-16.288-0.28214c6.9711-11.872-11.783 3.9596 0 0zm-70.764-2.9468c-4.3386 3.3338-2.4819 5.8709 0 0zm30.011-0.28366c-4.1142-4.0179-5.0427 5.531 0 0zm61.718-1.1545c-2.4663-3.5623-1.2094 3.6562 0 0zm-93.522-1.958c-0.92445-10.615-8.9001 6.3382 0 0zm83.022 0.39899c-2.8802-1.9056-2.3337 3.4348 0 0zm17 0.55902c-2.5632-3.7039-3.8443 3.5852 0 0zm-51.292-5.6227c-4.5085-6.3838-5.3072 4.9672 0 0zm-42.208-6.3773c-2.4822-3.6794-3.9376 3.5141 0 0zm95.5 0.19113c-3.1106-10.581-5.8956 4.4578 0 0zm-18-2.2502c-2.8802-1.9056-2.3337 3.4348 0 0z"/>
 </g>
</svg>
