<?xml version="1.0" encoding="UTF-8"?>
<svg enable-background="new 0 0 365.043 275.545" viewBox="0 0 365.043 275.545" xmlns="http://www.w3.org/2000/svg">
 <path d="m0,34.344 .72,19.116c8.676,7.272 17.28,14.58 26.208,22.32 8.964,7.74 18.864,14.22 26.928,23.724 7.884,9.396 16.992,18 20.52,32.616 3.384,14.651 3.384,32.509 0,54.54l-10.98,18.756-.36,21.961 20.556,8.855c5.796-2.16 12.6-3.205 20.556-2.844 7.92.215 19.62,1.332 26.892,4.607 7.2,3.203 12.24,10.297 15.948,14.904 3.564,4.607 5.508,8.604 5.688,12.383l23.724,10.262 68.004-68.689-.721-23.4v.002c-3.312-1.586-6.336-3.24-9.216-4.969-2.952-1.801-5.616-3.637-8.136-5.652 24.3,1.801 44.496,2.52 61.992,1.764 17.352-.9 29.592-3.275 41.436-6.012 11.7-2.699 22.393-7.309 28.332-9.936 5.796-2.701 7.813-4.176 6.732-6.373-1.225-2.412-3.168-3.059-13.464-7.775-10.62-4.896-35.028-15.3-48.528-20.916-13.428-5.616-23.544-9.612-31.176-12.384v-9.576l-22.645-8.82v-14.184l-202.606-78.624c-15.444,11.448-30.924,22.896-46.404,34.344z" fill="#616161" fill-rule="evenodd"/>
 <path d="m3.888 37.188 205.45 81.108 37.872-37.548c-7.668 7.128-14.688 12.528-21.6 16.632-6.84 4.032-9.721 7.632-19.477 7.452-9.936-0.396-16.164-1.476-39.672-9.216-23.903-7.992-74.303-27.288-101.63-37.188-27.288-9.792-47.232-16.776-60.948-21.24z" fill="#a1a1a1" fill-rule="evenodd"/>
 <path d="m249.336,96.336c-9.54,9.144-16.164,15.876-20.16,20.196-3.96,4.284-5.328,3.852-3.563,5.652 1.62,1.692 9.216,4.392 13.464,4.608 4.176.072 7.812-1.224 11.34-3.888l-6.732,8.496-27.972-8.136 27.612-26.208c1.979-.216 3.995-.468 6.011-.72z" fill="#a1a1a1" fill-rule="evenodd"/>
 <path d="m261.396,127.512c-6.12-.54-9.648.54-11.7,2.808-2.196,2.304-3.097,7.993-1.044,10.657 2.016,2.52 4.248,2.555 13.104,4.572 8.856,1.979 22.933,5.508 39.313,7.092 16.344,1.439 50.184,2.627 57.384,1.764 6.804-.9-3.888-3.527-15.948-7.057-12.24-3.707-42.228-10.835-55.944-14.184-13.609-3.348-19.081-5.184-25.165-5.652z" fill="#a1a1a1" fill-rule="evenodd"/>
 <path d="m63.036 46.044 16.308-11.34-16.308-6.732-15.912 11.7 15.912 6.372z" fill="#212121" fill-rule="evenodd"/>
 <path d="m249.012,79.668-38.987,38.628c-.937,10.836-1.297,20.052-.685,28.333 .468,8.172 3.061,18.863 3.888,20.555 .757,1.512.505-3.816 1.045-10.98 .432-7.234 1.079-17.676 1.8-31.895l31.859-31.86c.36-4.249.72-8.497 1.08-12.781z" fill="#212121" fill-rule="evenodd"/>
 <path d="m249.696,124.308-6.372,7.812c-.216,7.487.072,12.312.72,14.868 .612,2.34 2.412,2.34 3.168,0 .648-2.412-.432-10.44 1.08-13.824 1.332-3.456 7.2-4.932 7.452-6.372 .216-1.512-1.8-2.34-6.048-2.484z" fill="#212121" fill-rule="evenodd"/>
 <path d="m269.172,103.428c-4.14,4.788-6.264,7.812-6.372,9.216-.107,1.296 4.104-.864 5.688-1.08 1.476-.288 2.7-.36 3.527-.36l-.72-9.216c-.683.468-1.403.936-2.123,1.44z" fill="#212121" fill-rule="evenodd"/>
 <path d="m170.352,214.633c.216-4.609.54-8.605 2.484-13.105 1.728-4.535 3.564-9.143 8.856-13.824 5.4-4.859 22.428-13.211 23.041-14.508 .252-1.26-14.257,3.744-20.196,7.092-5.94,3.313-11.592,7.236-14.868,12.744-3.276,5.4-4.86,13.861-4.608,19.836 .324,5.869 4.968,15.229 6.012,15.59 .755.179-.973-9.29-.721-13.825z" fill="#212121" fill-rule="evenodd"/>
 <path d="m225.972,174.24 16.633,9.936-51.337,53.461c-.756-7.885 0-14.797 2.124-20.881 2.124-6.119 8.028-11.268 10.62-15.588 2.484-4.428 1.404-7.848 4.248-10.26 2.772-2.447 10.225-2.52 12.061-4.248 1.655-1.873-2.772-4.32-1.765-6.373 .9-2.088 3.42-4.103 7.416-6.047z" fill="#212121" fill-rule="evenodd"/>
 <path d="m44.28 14.148c0 2.556 3.42 4.608 7.632 4.608 4.176 0 7.596-2.052 7.596-4.608 0-2.52-3.42-4.608-7.596-4.608-4.212 0-7.632 2.088-7.632 4.608z" fill="#212121" fill-rule="evenodd"/>
 <path d="m65.232,207.035c5.328-8.711 10.26-14.471 15.084-17.135 4.716-2.701 7.56.539 13.392.828 5.76.18 20.844-1.908 21.348.396 .324,2.34-14.436,9.07-18.864,13.391-4.5,4.213-7.092,8.029-7.92,11.736-7.668-3.06-15.336-6.118-23.04-9.216z" fill="#212121" fill-rule="evenodd"/>
</svg>
