<?xml version="1.0" encoding="UTF-8"?>
<svg version="1.1" viewBox="0 0 1845 881.25" xmlns="http://www.w3.org/2000/svg">
 <path d="m464.05 878.9c-40.367-14.526-44.084-15.939-56.704-21.56-1.5469-0.68884-4.7109-1.9751-7.0312-2.8583-2.3203-0.88325-9.7031-4.0155-16.406-6.9606-6.7031-2.9451-14.026-6.1387-16.274-7.0968-5.2607-2.2429-7.1003-5.0082-6.3753-9.5834 0.72228-4.5582 0.81814-37.444 0.15672-53.768-0.56182-13.865 0.79688-22.493 3.9694-25.204 0.9063-0.7747 2.9134-3.291 4.4603-5.5918s6.8203-8.4182 11.719-13.594c9.587-10.13 15.354-19.27 13.396-21.229-3.468-3.468-63.931-3.3774-96.953 0.14532-4.9642 0.52957-15.089 1.1598-22.5 1.4004-14.726 0.47824-27.663 1.8063-37.849 3.8855-8.7842 1.7931-15.777 2.9074-28.125 4.4818-15.466 1.972-41.063 7.2923-48.086 9.9942-1.3966 0.53735-5.4924 1.7644-9.1017 2.7268-14.092 3.7573-28.69 8.4276-30.929 9.8947-1.4596 0.95638-3.3252 1.3385-4.9285 1.0095-1.4189-0.29117-5.0226-0.98049-8.0082-1.5318-2.9856-0.55133-9.3137-2.934-14.063-5.2947-4.7488-2.3608-13.452-5.9646-19.341-8.0084-5.8887-2.0439-11.86-4.3124-13.269-5.0412-1.4093-0.72879-7.56-3.1833-13.668-5.4544-6.1083-2.2712-16.168-6.1124-22.356-8.536-6.1875-2.4237-13.063-4.9702-15.28-5.6589-9.3542-2.9068-11.135-6.3864-10.035-19.603 0.39025-4.6881 0.55544-11.055 0.36709-14.149-0.18835-3.0938-0.34746-11.681-0.35357-19.084l-0.011122-13.459 5.2203-4.8227c3.9255-3.6265 6.8321-5.3569 11.719-6.9763 3.5742-1.1844 9.6625-3.3728 13.53-4.863 3.8672-1.4902 9.3367-3.407 12.154-4.2595 5.7939-1.7529 28.185-13.861 34.665-18.746 2.3509-1.772 8.9149-6.3212 14.587-10.109 23.866-15.939 40.529-32.283 68.16-66.852 13.904-17.395 23.957-34.17 34.232-57.122 1.1438-2.5549 3.9915-8.9086 6.3281-14.119 2.3366-5.2107 4.2484-9.9517 4.2484-10.536s1.2445-4.9691 2.7656-9.7448c4.4967-14.118 9.31-33.605 10.268-41.57 0.49117-4.0839 1.6066-12.277 2.4787-18.206 3.6022-24.492-0.24033-81.366-6.658-98.548-2.0901-5.5956-5.0546-18.453-5.0819-22.041-0.029-3.8129-1.2192-4.689-8.7408-6.4333-3.4346-0.79654-7.296-1.848-8.581-2.3365-1.2849-0.48853-7.3049-1.998-13.378-3.3544s-14.838-3.6742-19.479-5.1507c-4.6406-1.4765-12.114-3.3225-16.608-4.1022-4.4937-0.77976-14.619-3.086-22.5-5.125-7.8813-2.039-17.494-4.209-21.361-4.8222-23.962-3.7998-29.379-6.8245-27.136-15.153 0.75059-2.7875 0.7281-4.9986-0.08534-8.3894-0.8454-3.524-0.84718-5.9722-0.0076-10.434 1.0647-5.6582 1.237-12.958 0.75028-31.78-0.3963-15.324-1.9865-14.377 33.51-19.951 5.1562-0.80967 13.383-1.4736 18.281-1.4754 4.8984-2e-3 13.125-0.66429 18.281-1.4722s12.539-1.8341 16.406-2.2804c3.8672-0.44631 11.039-1.67 15.938-2.7193 4.8984-1.0493 11.227-1.9124 14.062-1.918 5.062-0.01 24.615-2.9389 44.062-6.6002 5.4141-1.0193 11.356-1.8529 13.204-1.8525 3.9192 8.5e-4 37.992-4.872 49.609-7.0947 4.3828-0.83859 9.4453-1.734 11.25-1.9899 1.8047-0.25586 10.242-1.524 18.75-2.8181 8.5078-1.2941 18-2.687 21.094-3.0955 16.025-2.1155 34.335-4.7724 38.906-5.6454 2.8359-0.54162 14.859-2.4308 26.719-4.1981 11.859-1.7674 32.109-4.9025 45-6.9669s28.961-4.3967 35.713-5.1828c6.7515-0.78609 15.611-2.034 19.688-2.7731s11.209-1.8301 15.85-2.4244c4.6406-0.59433 15.609-2.1126 24.375-3.3738 8.7656-1.2613 17.625-2.5187 19.688-2.7943s5.8594-0.87852 8.4375-1.3399c2.5781-0.46137 9.3281-1.4955 15-2.298 24.387-3.4506 340.92-52.233 346.88-53.458 3.6094-0.74292 10.781-2.0169 15.938-2.8311s12.117-2.1022 15.469-2.8624c12.733-2.8878 21.425-1.6343 46.406 6.6918 23.254 7.7504 82.835 24.192 133.59 36.865 3.8672 0.96555 12.094 3.1158 18.281 4.7784 10.879 2.9232 29.421 7.4798 46.875 11.519 10.954 2.5351 12.309 2.4537 23.438-1.408 5.1563-1.7892 13.594-3.9484 18.75-4.7982 5.1563-0.84976 14.016-2.5965 19.688-3.8817 5.6719-1.2852 14.531-3.0065 19.688-3.825 5.1563-0.81859 12.75-2.2855 16.875-3.2598 7.642-1.805 22.869-4.6609 34.688-6.5057 3.6094-0.56341 11.075-1.1836 16.591-1.3782 5.5157-0.1946 10.449-0.61376 10.963-0.93148 0.5141-0.31772 6.9081-1.2066 14.209-1.9752 11.179-1.1769 27.13-4.0356 44.487-7.9728 5.0969-1.1561 40.729-5.1862 66.094-7.4755 9.1497-0.82577 14.882-1.6343 26.719-3.769 2.5782-0.46494 8.9063-1.2992 14.062-1.8539 5.1563-0.5547 14.438-1.8133 20.625-2.7969 6.1875-0.9836 16.945-2.2215 23.906-2.7509 20.526-1.5611 33.06-2.8771 36.562-3.8387 1.8047-0.49556 6.5202-0.90337 10.479-0.90625s10.287-0.40803 14.062-0.90035c3.7756-0.49232 20.154-1.0996 36.396-1.3496s33.328-0.91954 37.969-1.488c6.0475-0.74078 11.89-0.75311 20.625-0.043524 6.7032 0.54452 22.312 1.1996 34.688 1.4557 12.375 0.25611 26.508 0.67547 31.406 0.93191 4.8984 0.25645 12.979 0.63706 17.956 0.84581 13.421 0.56287 16.344 3.4023 13.556 13.17-0.7405 2.5942-1.8124 6.4763-2.3818 8.6269-1.4602 5.5136-11.338 20.115-19.265 28.476-3.6883 3.8907-8.3959 9.2118-10.461 11.825-2.0654 2.6129-5.716 6.8124-8.1125 9.3323-2.3964 2.5199-7.383 7.9566-11.081 12.082-3.6983 4.125-8.024 8.192-9.6126 9.0379-1.5885 0.84582-5.0096 4.2775-7.6022 7.6259-10.821 13.976-31.942 35.333-41.702 42.169-2.597 1.819-14.532 12.132-28.474 24.604-5.7638 5.1562-12.374 10.852-14.688 12.656s-5.056 4.175-6.0916 5.2673c-3.1798 3.3539-30.028 27.73-34.696 31.501-1.5468 1.2497-5.5547 4.2336-8.9062 6.6309-3.3516 2.3973-8.2031 6.2792-10.781 8.6265-2.5781 2.3473-8.8178 7.0675-13.866 10.489-5.0481 3.4219-10.954 7.7597-13.125 9.6396-2.1706 1.8798-7.5324 5.9105-11.915 8.957-4.3828 3.0465-10.5 7.4921-13.594 9.8792-3.0937 2.387-7.7842 5.4978-10.423 6.9128-2.6391 1.415-8.5327 5.529-13.097 9.1422-4.5642 3.6132-10.401 7.6349-12.971 8.9372s-8.0107 4.6538-12.09 7.4479c-4.0798 2.7941-9.1617 5.9651-11.293 7.0468-2.1314 1.0817-5.7737 3.2764-8.094 4.8772s-8.6485 5.2771-14.062 8.1697c-11.698 6.25-20.828 11.401-34.466 19.443-16.038 9.4588-30.203 16.738-36.784 18.904-3.3516 1.1028-7.599 2.9864-9.4387 4.1857s-6.0265 3.5343-9.304 5.1888-9.3661 5.154-13.53 7.7767-14.701 8.3803-23.414 12.795c-8.7139 4.4144-16.272 8.7117-16.796 9.5496-2.6804 4.2857 18.385 58.735 28.427 73.476 1.4049 2.0625 3.676 5.8594 5.0467 8.4375 1.3709 2.5781 4.5967 7.6406 7.1686 11.25 2.572 3.6094 6.0905 8.6719 7.819 11.25 1.7284 2.5781 4.3017 5.7422 5.7183 7.0312 1.4164 1.2891 4.1892 4.6641 6.1614 7.5 3.8897 5.5929 25.285 27.029 31.361 31.421 2.0625 1.4908 6.7032 5.5188 10.312 8.9511 3.6952 3.5139 9.2208 7.5822 12.647 9.3113 3.3463 1.6889 9.8587 5.6087 14.472 8.7106s11.578 7.1074 15.478 8.901c3.8998 1.7936 8.1453 3.9939 9.4344 4.8895 1.289 0.89566 5.8946 3.1595 10.234 5.0308 9.9544 4.2922 10.696 4.9972 13.802 13.125l2.5544 6.685-1.3422 22.034c-0.7382 12.119-1.3422 27.591-1.3422 34.383 0 17.707-1.8738 19.648-22.103 22.894-6.2873 1.0089-11.695 1.9973-12.017 2.1964-0.3222 0.19913-6.9097 1.2566-14.639 2.35-7.7292 1.0934-17.217 2.5923-21.084 3.331-28.816 5.5041-38.023 7.0521-45 7.5661-4.3828 0.32289-10.922 1.1824-14.531 1.9101-5.6819 1.1455-50.878 7.8722-52.893 7.8722-0.4023 0-2.5879-1.258-4.8568-2.7954-2.269-1.5375-5.0394-2.8031-6.1566-2.8125-1.9617-0.0165-9.7254-3.7736-28.438-13.762-4.8985-2.6147-12.703-6.2373-17.344-8.0501-24.71-9.6527-33.338-12.864-38.425-14.301-3.0869-0.87203-6.8838-2.2439-8.4375-3.0486-2.7726-1.436-4.5207-1.9624-25.325-7.625-5.6718-1.5438-12.158-3.4647-14.415-4.2687-2.2563-0.80396-5.4203-1.467-7.0312-1.4734-1.611-7e-3 -6.7259-1.0794-11.367-2.3843-7.8935-2.2197-17.634-3.8708-35.673-6.0464-4.1513-0.5007-9.8466-1.347-12.656-1.8808-4.4139-0.83844-49.7-3.4085-61.827-3.5088-31.039-0.25663-84.307 5.2638-111 11.503-7.7858 1.82-16.266 3.7684-18.844 4.3299-11.846 2.58-35.491 9.6116-47.159 14.024-7.0626 2.6711-15.583 5.8026-18.935 6.9589-34.611 11.941-89.049 41.583-120.47 65.596-4.125 3.1526-8.6008 6.4201-9.9462 7.2613-1.3454 0.84115-4.3394 3.1406-6.6532 5.1098-2.3139 1.9692-7.0913 5.9008-10.617 8.7367-17.364 13.969-48.989 45.05-57.146 56.163-9.631 13.122-11.93 14.176-38.919 17.855-15.092 2.0571-21.139 3.0011-36.562 5.7076-8.5078 1.4929-18.211 3.1776-21.562 3.7437-16.128 2.7243-27.69 4.7376-49.688 8.6522-29.613 5.27-40.387 7.1681-46.406 8.1759-2.5781 0.43168-6.1705 1.4196-7.983 2.1954-3.0693 1.3136-3.7129 1.2603-9.375-0.77727zm30.014-22.436c7.3431-1.2092 41.464-7.3388 66.094-11.873 5.6719-1.0442 13.688-2.4567 17.812-3.1388 54.524-9.0157 65.801-11.185 67.688-13.018 1.8351-1.7834 7.5333-17.489 8.7134-24.016 0.60139-3.3263 1.903-8.1779 2.8925-10.781 2.2068-5.8061 2.287-8.8242 0.25521-9.6038-1.6409-0.62966-29.163 2.9098-35.486 4.5638-3.3234 0.86924-14.395 2.8153-44.531 7.8272-4.8984 0.81466-11.588 2.1086-14.866 2.8754s-8.9734 1.7958-12.656 2.2865c-3.6828 0.49076-12.602 1.9521-19.821 3.2475-7.2188 1.2954-19.453 3.4292-27.188 4.7419-22.592 3.8342-21.224 2.1357-23.065 28.646-1.5246 21.958-2.3035 20.954 14.158 18.244zm-32.56-10.374c4.9723-28.097 3.7636-34.399-7.2841-37.977-3.6094-1.169-8.1589-2.9269-10.11-3.9066-1.9512-0.97965-6.8027-2.9839-10.781-4.4539-3.9785-1.47-11.241-4.2402-16.14-6.1561-40.126-15.694-42.088-14.683-39.118 20.15 1.2606 14.787 1.2211 14.75 24.587 22.655 4.6406 1.5699 11.812 4.2353 15.938 5.9231s11.297 4.4144 15.938 6.0593c4.6406 1.6448 11.18 4.0025 14.531 5.2392 10.106 3.7289 10.488 3.4972 12.44-7.5327zm227.76-55.957c5.818-5.2528 11.507-10.526 12.643-11.719 1.1355-1.1924 2.632-2.1681 3.3254-2.1681s2.9284-1.7328 4.9666-3.8507 7.6335-7.0749 12.434-11.016c30.995-25.444 62.916-46.945 90.647-61.056 7.7344-3.9357 15.75-8.0621 17.812-9.1697 27.134-14.572 86.016-35.659 115.31-41.296 2.5781-0.49611 12.281-2.3858 21.562-4.1992 28.806-5.6284 39.634-7.0484 69.601-9.1276 18.196-1.2625 73.63-1.2077 81.564 0.0805 3.4838 0.56566 10.975 1.4032 16.647 1.8612 20.737 1.6746 35.619 4.1266 63.281 10.426 4.3828 0.99815 9.8672 2.2171 12.188 2.7087 2.3203 0.49165 6.75 1.5376 9.8437 2.3243 3.0938 0.7867 8.1563 2.0624 11.25 2.8349 3.0938 0.77249 8.7891 2.4346 12.656 3.6936 3.8672 1.259 13.728 4.4569 21.913 7.1063 8.1851 2.6494 16.408 5.7177 18.274 6.8183 4.9983 2.9491 22.116 10.703 29.656 13.433 3.6094 1.3069 8.7233 3.5972 11.364 5.0895 10.669 6.0285 11.374 4.7919 11.548-20.258 0.2042-29.38-3.2357-35.932-29.943-57.034-3.3516-2.6481-8.6561-6.9295-11.788-9.5143-3.1318-2.5848-7.5614-5.8136-9.8438-7.1751-2.2823-1.3615-8.5793-5.337-13.993-8.8343-8.6061-5.5593-15.259-9.4494-36.172-21.151-6.2604-3.503-42.757-18.219-58.984-23.783-17.766-6.0919-53.529-13.686-75.121-15.952-7.6677-0.80463-17.527-1.8717-21.91-2.3713-53.004-6.0417-140.55 10.209-192.68 35.767-10.328 5.0631-20.502 9.8143-22.611 10.558-2.1085 0.74393-7.4923 3.7128-11.964 6.5975-4.4716 2.8847-10.328 6.3458-13.014 7.6914-6.0316 3.0215-6.4776 3.3426-34.71 24.991-13.625 10.447-18.303 14.418-27.211 23.098-13.824 13.469-17.83 17.751-22.991 24.573-3.9895 5.2733-13.917 16.486-19.837 22.407-0.91381 0.91381-2.8456 3.7083-4.2928 6.21s-5.8563 9.4002-9.7979 15.33c-9.4662 14.241-17.99 29.149-23.583 41.25-2.5027 5.4141-5.7805 12.375-7.2842 15.469-1.5036 3.0938-3.2693 7.3125-3.9236 9.375s-1.7311 4.5822-2.3928 5.5992c-0.66169 1.0171-1.2031 2.7851-1.2031 3.929s-0.40626 2.3309-0.90278 2.6378c-0.49654 0.30687-1.3145 1.9138-1.8177 3.571-0.50318 1.6572-1.5661 4.7906-2.3621 6.9633-1.4001 3.8217-1.1957 6.8309 0.46408 6.8309 0.44325 0 5.5661-4.2978 11.384-9.5506zm-183.82 0.23903c9.5339-1.7793 13.359-2.4346 41.582-7.1235 15.299-2.5417 48.736-8.3403 56.25-9.7547 19.765-3.7206 39.05-7.1462 45.469-8.0766 6.0264-0.87354 18.055-4.1983 19.54-5.4009 1.3701-1.1095 15.528-29.793 17.608-35.674 1.4158-4.0025 0.8421-3.0445 19.166-32.003 12.556-19.844 14.977-23 39.781-51.882 5.7492-6.6945 32.133-31.865 35.971-34.316 1.8719-1.1957 6.5094-4.9218 10.305-8.2801 9.9313-8.7862 26.104-20.423 38.653-27.812 5.9772-3.5195 13.36-8.0836 16.406-10.142 6.8565-4.634 14.436-8.6596 16.312-8.6642 0.77754-2e-3 2.6895-0.78149 4.2487-1.7324 1.5592-0.95087 4.5124-2.2608 6.5625-2.911 2.0501-0.65016 7.8061-3.4347 12.791-6.1878s11.524-5.7124 14.531-6.5762c3.0073-0.86379 11.163-3.5724 18.124-6.0192 15.314-5.3829 21.891-7.3414 28.368-8.4477 2.7025-0.46163 12.929-2.7082 22.726-4.9923 17.628-4.1099 22.19-4.7057 63.281-8.2639 6.4453-0.55812 14.25-1.0133 17.344-1.0116 15.83 9e-3 38.604 1.1862 47.344 2.447 5.4141 0.7811 14.695 2.0821 20.625 2.891s16.266 2.7555 22.969 4.3255c6.7031 1.57 14.93 3.4913 18.281 4.2694 3.3516 0.77812 8.4141 2.1766 11.25 3.1077s6.8438 2.121 8.9063 2.6443c7.348 1.8642 25.468 8.4963 35.156 12.867 5.4141 2.4427 13.482 5.8334 17.928 7.5348 8.5004 3.2528 12.74 5.381 24.26 12.177 3.8672 2.2814 8.4716 4.7986 10.232 5.5938 4.1726 1.8847 26.025 16.448 33.83 22.546 3.3516 2.6183 8.1645 6.1727 10.696 7.8986 3.8987 2.6586 11.589 9.1411 25.415 21.424 1.5558 1.3823 6.956 6.9292 12 12.327l9.1716 9.8133 7.687-1.6489c4.2279-0.90692 14.015-2.6415 21.75-3.8546 7.7344-1.2131 16.594-2.8472 19.688-3.6312 3.0938-0.78403 10.055-2.1137 15.469-2.9549 5.4141-0.84117 12.375-2.1277 15.469-2.8591 3.0938-0.73131 13.219-2.6615 22.5-4.2893 24.156-4.2367 27.544-6.2664 19.453-11.653-17.328-11.536-30.634-20.873-38.722-27.173-5.2962-4.125-12.198-9.4579-15.336-11.851-14.151-10.789-43.561-43.813-51.229-57.524-1.73-3.0938-5.0992-8.3672-7.487-11.719-6.1044-8.5682-9.4358-14.813-14.382-26.962-2.3639-5.8056-5.2113-12.345-6.3274-14.531-1.8682-3.6602-4.7891-11.387-10.717-28.351-2.1464-6.1424-5.3606-18.326-9.7695-37.031-1.033-4.3828-2.3047-12.188-2.8258-17.344s-1.4044-13.805-1.9628-19.219c-2.07-20.069 0.8344-67.377 5.2664-85.781 1.2417-5.1562 3.327-14.319 4.6343-20.361 1.3072-6.0424 2.963-12.37 3.6795-14.062 0.7166-1.692 2.5637-6.4514 4.1047-10.576s3.7599-9.667 4.9309-12.316c4.4023-9.9569 5.8246-9.9182-47.372-1.289-9.2813 1.5055-21.305 3.4166-26.719 4.2468s-15.75 2.507-22.969 3.7262c-7.2188 1.2192-18.398 2.9234-24.844 3.7871-6.4453 0.86368-13.418 1.9291-15.494 2.3677-2.0763 0.43855-9.6701 1.6685-16.875 2.7333-22.565 3.3348-31.402 4.7736-46.381 7.5515-14.47 2.6835-29.102 5.033-75.469 12.118-41.602 6.3568-48.254 7.4127-65.156 10.342-18.299 3.1714-30.811 5.1769-44.062 7.0628-4.8984 0.69711-14.602 2.1621-21.562 3.2554-24.032 3.7748-43.737 6.661-83.438 12.221-21.914 3.0693-48.07 6.8347-58.125 8.3676-17.556 2.6764-49.728 7.3428-68.438 9.9263-22.4 3.0931-38.546 5.4707-57.188 8.4213-11.086 1.7547-23.953 3.6463-28.594 4.2036-4.6406 0.55732-9.9141 1.383-11.719 1.8348s-6.0234 1.092-9.375 1.4227c-18.008 1.7767-43.06 5.9326-45.626 7.5689-2.6727 1.7042-1.0304 8.3102 5.8136 23.385 4.6049 10.143 14.472 40.956 17.862 55.781 1.8276 7.9922 4.1278 17.906 5.1116 22.031 3.9142 16.412 7.8301 55.208 7.6648 75.938-0.1769 22.185-3.5673 57.824-7.2241 75.938-2.3986 11.881-6.1763 28.803-7.1161 31.875-0.47318 1.5469-2.3791 7.875-4.2353 14.062-6.2176 20.726-15.375 45.481-19.008 51.386-1.0114 1.6438-3.1008 6.1529-4.6431 10.02s-5.2238 11.25-8.1812 16.406c-2.9574 5.1562-6.7206 11.714-8.3626 14.573-6.3977 11.139-26.865 40.841-29.18 42.348-2.2204 1.4448-30.863 32.918-31.17 34.25-0.76429 3.3149 1.0596 3.4867 13.12 1.2359zm-37.096-4.9853c11.893-10.598 35.273-35.968 46.008-49.922 7.381-9.5947 28.451-42.974 28.451-45.072 0-0.30627 4.4824-9.4857 9.9608-20.399 11.147-22.205 14.994-31.569 19.704-47.967 1.7773-6.1875 4.046-13.898 5.0416-17.133 2.063-6.7053 7.8208-34.543 9.9162-47.942 6.2063-39.688 5.1709-87.564-2.7389-126.64-1.3046-6.4453-2.6734-13.802-3.042-16.349-0.36853-2.5467-1.6493-6.7694-2.8462-9.3838-1.1969-2.6143-2.8186-7.8073-3.6038-11.54-0.78518-3.7326-2.0501-8.2764-2.8108-10.097-0.76079-1.8208-1.8543-5.9082-2.43-9.0831-0.57572-3.1749-2.0215-7.6975-3.2129-10.05-1.1914-2.3528-2.8412-6.5529-3.6662-9.3336-2.5607-8.6307-6.2276-17.151-10.574-24.57l-4.1748-7.1259-10.964-2.5395c-6.0304-1.3967-17.714-4.1889-25.964-6.2047-8.25-2.0159-22.805-5.4214-32.344-7.5678s-20.93-4.7137-25.312-5.705c-4.3828-0.99131-10.711-2.3713-14.062-3.0666s-9.4688-2.0998-13.594-3.121c-16.267-4.027-28.353-6.6585-33.082-7.2029-2.7264-0.31389-7.578-1.3957-10.781-2.404-3.2033-1.0083-10.676-2.889-16.605-4.1794s-15.211-3.3613-20.625-4.602c-5.4141-1.2407-19.398-4.3779-31.076-6.9716-11.678-2.5936-23.057-5.2071-25.287-5.8077-2.2304-0.60058-8.2854-1.8497-13.456-2.7758-5.1702-0.92611-12.986-2.5438-17.369-3.5949-27.106-6.5005-27.556-6.357-23.915 7.6228 0.76866 2.9511 1.8125 8.8405 2.3196 13.088s1.5939 10.042 2.415 12.878c3.7838 13.068 4.8798 67.061 1.6652 82.031-0.77507 3.6094-1.7478 10.359-2.1617 15-1.5627 17.521-5.6111 34.648-10.952 46.333-1.786 3.9074-4.2444 10.479-5.4631 14.604-14.471 48.981-59.176 109.89-109.12 148.66-4.1968 3.2584-11.483 8.4024-24.943 17.61-6.5519 4.482-22.464 13.421-32.487 18.252-11.695 5.6355-10.664 6.345 29.206 20.098 34.479 11.894 33.2 11.558 36.762 9.6653 17.339-9.2116 69.237-42.911 90.269-58.615 5.1562-3.85 13.594-9.8374 18.75-13.305 5.1562-3.4679 11.062-7.6523 13.125-9.2988s5.2266-3.7354 7.0312-4.642 7.9219-5.0981 13.594-9.3144c5.6719-4.2164 15.797-11.416 22.5-15.999 6.7031-4.5828 15.352-10.699 19.219-13.592 16.499-12.341 19.708-14.551 29.976-20.649 5.9431-3.5294 13.548-8.3504 16.899-10.713 28.547-20.126 45.62-28.043 62.536-29.002 5.7777-0.32727 14.029-1.2097 18.337-1.9609 8.9924-1.5682 12.003-1.0538 18.703 3.1952 2.3954 1.5192 5.9112 3.1917 7.8127 3.7167 4.6319 1.2789 8.6945 4.1988 12.365 8.8868 1.6693 2.1322 4.3156 5.3793 5.8806 7.2159 2.9974 3.5176 9.3251 18.936 11.216 27.328 0.61429 2.7269 2.1841 8.2655 3.4886 12.308 3.3045 10.241 1.7536 33.357-3.1153 46.433-1.2228 3.284-2.2233 6.6766-2.2233 7.5389 0 3.4573-6.7478 25.107-8.6316 27.693-1.1078 1.521-3.3868 5.586-5.0645 9.0332-3.3118 6.8049-13.176 24.416-16.064 28.679-5.1488 7.6009-8.7303 13.445-10.861 17.721-1.305 2.6189-4.4803 7.2839-7.0562 10.367-2.5759 3.0828-5.687 7.4925-6.9136 9.7994-2.4682 4.6421-12.443 17.646-20.409 26.606-2.8359 3.19-6.8438 8.0227-8.9062 10.739-2.0625 2.7165-8.3496 9.475-13.971 15.019-11.05 10.897-11.187 11.31-4.5346 13.663 2.4439 0.8641 8.6622 3.2013 13.818 5.1937 13.963 5.3956 29.71 11.001 40.781 14.518 5.4141 1.7196 12.797 4.191 16.406 5.4921 8.2194 2.9628 7.0277 3.1133 12.259-1.5487zm-358.13-66.765c7.5119-11.465 4.3592-32.801-5.3973-36.527-3.7705-1.44-10.863-4.451-15.762-6.6912-4.8984-2.2402-12.492-4.9976-16.875-6.1275-4.3828-1.13-9.4478-2.7926-11.256-3.6947-1.8077-0.90212-7.0812-2.9244-11.719-4.4939-4.6376-1.5695-12.144-4.1448-16.68-5.7227-14.851-5.1656-15.093-4.9313-15.462 14.934-0.34837 18.767-2.2332 16.717 24.648 26.809 23.519 8.8299 45.034 17.021 55.312 21.06 8.4855 3.3338 11.241 3.4287 13.19 0.45401zm36.167-4.3152c4.822-1.5607 11.299-3.4106 14.392-4.1109s10.055-2.3362 15.469-3.6355c15.086-3.6202 25.766-5.3041 36.562-5.7644 5.4141-0.23085 12.375-1.1299 15.469-1.9979s7.9453-1.8907 10.781-2.2726 7.8984-1.1963 11.25-1.8097c3.7715-0.69026 9.845-0.89981 15.938-0.54988 5.4141 0.31097 13.43 0.14927 17.812-0.35933s14.086-1.3809 21.562-1.9385 16.547-1.3695 20.156-1.8042c10.969-1.3211 69.351 0.43057 75.296 2.2592 9.8567 3.0313 13.667-0.30327 28.582-25.013 1.9614-3.2494 6.56-10.76 10.219-16.689 6.1941-10.038 16.276-29.08 21.112-39.877 2.2762-5.0816 5.9024-15.761 8.106-23.873 0.77041-2.8359 2.0539-7.4766 2.8521-10.312 4.5211-16.062 3.9667-26.569-2.4731-46.875-9.7414-30.717-43.516-43.594-71.776-27.366-3.4617 1.9879-7.7706 4.1939-9.5752 4.9021-3.9119 1.5353-13.366 7.3091-17.45 10.657-1.6052 1.3159-5.824 4.1271-9.375 6.247s-8.1439 4.9765-10.206 6.3479c-2.0625 1.3714-6.6192 3.97-10.126 5.7747s-10.046 6.1237-14.531 9.5978-12.163 9.1366-17.061 12.583-15.642 11.151-23.875 17.121c-8.2327 5.9698-17.092 12.068-19.688 13.553-2.5954 1.4841-6.4064 4.0302-8.469 5.658-2.0625 1.6278-6.7031 4.8292-10.312 7.1142s-10.512 7.1217-15.339 10.748c-4.8271 3.6265-13.304 9.7578-18.839 13.625-5.5341 3.8672-11.45 8.2116-13.145 9.6542-1.696 1.4426-4.8202 3.4976-6.9427 4.5665-2.1226 1.069-7.6383 4.6931-12.257 8.0536-4.6189 3.3605-13.056 8.7294-18.75 11.931-5.6936 3.2016-12.546 7.1279-15.228 8.7252-2.6818 1.5973-6.5892 3.4175-8.683 4.0448-4.4226 1.325-5.1201 2.0246-6.443 6.4622-0.53797 1.8047-1.618 4.9688-2.4001 7.0312-1.5152 3.9961-2.1766 29.477-0.8011 30.867 1.1353 1.1477 8.7677-0.22693 18.186-3.2752zm1226.1-11.253c2.3203-0.50755 12.867-2.3758 23.438-4.1516 10.57-1.7758 22.594-3.8628 26.719-4.6377s14.883-2.7061 23.906-4.2915c9.0234-1.5854 20.414-3.6966 25.312-4.6913 4.8984-0.99478 12.07-2.2826 15.938-2.8619 23.294-3.4893 21.253-1.7945 24.751-20.549 6.8412-36.675 11.635-35.844-94.595-16.415-4.125 0.75443-14.25 2.4641-22.5 3.7994-8.25 1.3352-17.109 3.0042-19.688 3.7088-2.5782 0.7046-6.9705 1.5692-9.7608 1.9214-7.4484 0.94006-9.4114 3.2639-9.6264 11.396-0.4982 18.843-0.2077 35.197 0.6372 35.88 2.3334 1.8856 9.1343 2.278 15.469 0.89237zm-19.571-341.69c2.2562-0.79217 7.6882-3.2742 12.071-5.5156s9.0003-4.39 10.261-4.7747c1.2608-0.38464 4.2139-1.8671 6.5625-3.2944s7.2233-3.7161 10.833-5.0862c3.6093-1.3702 8.039-3.1526 9.8437-3.9609 1.8047-0.80833 5.5675-2.2637 8.3618-3.2341 2.7944-0.97045 7.0131-3.0012 9.375-4.5129 2.362-1.5116 5.5339-3.217 7.0488-3.7897 1.5148-0.5727 7.2822-3.7528 12.816-7.0668 5.5342-3.314 12.205-6.8803 14.824-7.925s6.854-2.7349 9.4111-3.7561c2.5572-1.0212 7.5873-3.7399 11.178-6.0415 3.5909-2.3017 8.7761-5.3074 11.523-6.6794 2.7465-1.372 8.0687-4.4541 11.827-6.8491 10.973-6.9925 31.775-20.523 41.917-27.264 5.1562-3.4273 13.896-8.9294 19.422-12.227s12.908-8.2788 16.406-11.069c3.4978-2.7905 7.6253-5.7249 9.1722-6.5208 1.5468-0.7959 5.3437-3.2143 8.4375-5.3742 3.0937-2.1599 8.1322-5.3134 11.197-7.0078 5.405-2.9885 12.063-7.5906 27.874-19.266 4.1894-3.0938 9.2046-6.6797 11.145-7.9688 1.9402-1.2891 4.4401-3.5056 5.5553-4.9258 1.1152-1.4201 3.9996-3.9159 6.4097-5.5462s6.327-4.6872 8.7042-6.793 6.1741-5.3504 8.4375-7.21 7.233-6.0784 11.043-9.375c3.8105-3.2966 8.6149-7.3641 10.677-9.039 2.0617-1.6748 4.2175-3.6314 4.7906-4.3479 0.5732-0.71651 2.9406-2.7254 5.2609-4.4641 7.6957-5.7668 32.462-31.093 33.556-34.315 1.8804-5.5384-3.6998-3.2437-14.337 5.8956-3.0937 2.6582-8.2097 6.5308-11.369 8.6058s-10.542 7.7668-16.406 12.648c-10.072 8.384-19.433 14.695-28.908 19.49-6.4401 3.2588-39.957 23.155-47.848 28.403-3.8672 2.572-11.039 6.9965-15.938 9.8322-4.8984 2.8357-11.352 6.813-14.341 8.8384-11.552 7.8275-35.327 20.523-60.134 32.111-6.1567 2.876-15.138 7.7843-19.959 10.907-7.7792 5.0394-31.001 18.659-31.814 18.659-0.1719 0-6.0844 3.1985-13.139 7.1078s-17.049 9.2268-22.21 11.817c-5.1611 2.5899-12.151 6.4149-15.534 8.4999-3.3825 2.085-7.4156 4.4304-8.9625 5.212-1.5468 0.78162-4.5 2.5455-6.5625 3.9197s-8.3906 4.9554-14.062 7.9582c-5.6718 3.0028-13.266 7.3649-16.875 9.6936-3.6093 2.3287-11.414 7.1031-17.344 10.61-22.271 13.171-22.974 14.037-21.67 26.702 1.1008 10.685 2.2622 11.524 11.474 8.29zm-3.3977-49.218c0.9153-0.72423 12.067-7.0965 30.938-17.679 5.1562-2.8915 11.055-6.4172 13.108-7.8349 2.0533-1.4177 4.2112-2.5777 4.7955-2.5777 0.5841 0 2.18-0.87934 3.5463-1.9541 3.4924-2.7471 13.219-8.0759 33.878-18.559 9.8053-4.9759 19.087-9.9349 20.625-11.02 1.5385-1.0852 5.9612-3.4314 9.8284-5.2137 7.8525-3.6191 37.969-20.732 40.595-23.066 1.7034-1.5147 36.964-20.199 56.905-30.154 5.9297-2.9601 15.633-8.4406 21.562-12.179s12.891-7.8558 15.469-9.1504c2.5782-1.2946 6.375-3.5919 8.4375-5.1052 3.8778-2.8453 10.236-6.7486 21.562-13.238 3.6094-2.068 8.9348-5.365 11.834-7.3268 2.8995-1.9618 8.1823-4.9834 11.74-6.7146 7.158-3.4836 30.652-19.221 38.895-26.054 2.9051-2.4079 7.5457-5.6756 10.312-7.2615 2.767-1.5859 6.5073-4.4247 8.312-6.3085s5.2435-4.4281 7.6418-5.654c2.3984-1.2259 5.1406-3.2038 6.0938-4.3952 1.6504-2.0628 10.792-8.9691 22.655-17.115 3.0036-2.0625 8.1734-6.0903 11.488-8.9507 3.315-2.8604 7.137-5.676 8.4932-6.2569 1.3563-0.58096 5.892-3.8222 10.079-7.2026 4.1872-3.3805 9.224-6.9682 11.193-7.9726 1.969-1.0045 5.449-3.3938 7.7335-5.3097s6.3074-4.9185 8.9399-6.6725c6.0913-4.0586 7.9551-7.1701 5.6663-9.4594-3.4356-3.4366-146.4-2.888-175.92 0.67496-4.3828 0.52906-13.242 1.6172-19.688 2.418s-16.57 1.8522-22.5 2.3364c-13.666 1.1159-17.668 1.6003-30.938 3.7449-5.9297 0.95836-15.422 2.2152-21.094 2.7929-5.6719 0.57774-13.05 1.6783-16.397 2.4457-3.3464 0.76742-11.151 1.7909-17.344 2.2743-6.1926 0.48346-16.533 1.5253-22.978 2.3151-6.4453 0.78986-16.359 1.8496-22.031 2.355-5.6719 0.50538-13.055 1.5291-16.406 2.2749-15.696 3.4926-24.394 5.295-30 6.2159-3.3516 0.5506-9.8906 1.6264-14.531 2.3907-4.6407 0.76427-13.711 1.7987-20.156 2.2987-34.755 2.6963-54.545 5.8897-87.576 14.132-17.031 4.2498-18.985 5.0256-17.415 6.9169 2.0928 2.5217 30.711 10.792 67.959 19.639 10.312 2.4494 24.68 5.8856 31.928 7.6359 7.2478 1.7503 14.19 3.1823 15.427 3.1823 16.407 0 19.538 6.8126 19.604 42.663 0.081 44.109-0.1804 45.19-10.958 45.352-22.188 0.33286-33.602 3.5027-35.843 9.9537-9.5728 27.565-13.308 41.175-15.438 56.25-0.7284 5.1562-2.21 11.834-3.2926 14.838-1.5587 4.3266-4.5635 25.556-4.6906 33.142-0.056 3.3529 4.7747 4.6549 7.9502 2.1427zm79.006-155.36c-4.423-5.0367-1.472-10.713 7.2512-13.947 6.4844-2.4044 20.296-8.401 30.461-13.225 18.198-8.6363 23.776-11.04 34.515-14.876 6.3505-2.2682 14.788-5.6499 18.75-7.5148 11.676-5.4959 31.434-14.083 61.579-26.764 3.6093-1.5183 9.6472-4.2423 13.417-6.0533 9.1762-4.4077 19.297-8.5918 25.02-10.344 2.5781-0.78929 10.172-3.771 16.875-6.626 6.7031-2.855 20.625-8.689 30.938-12.964s22.013-9.1555 26.002-10.845c9.087-3.8483 11.29-3.3467 14.992 3.4133 3.6931 6.7441 2.1762 9.8244-4.8381 9.8244-4.1594 0-11.119 2.6674-37.562 14.396-6.4453 2.8589-18.891 7.9772-27.656 11.374-8.7657 3.3969-18.713 7.4256-22.106 8.9528-3.3926 1.5272-6.5146 2.7767-6.9375 2.7767-0.423 0-2.9206 1.0335-5.5503 2.2966-9.0011 4.3236-31.027 13.908-37.115 16.151-3.3461 1.2325-9.4633 3.8959-13.594 5.9188-22.618 11.077-38.287 17.654-55.845 23.44-2.8656 0.94434-9.4046 3.7061-14.531 6.1373-24.99 11.851-29.664 13.917-38.24 16.904-10.389 3.6185-13.738 3.9516-15.825 1.5745zm-861.52 140.27c1.1937-0.45156 4.3591-0.82101 7.0342-0.82101s7.8156-0.85724 11.423-1.905c3.6077-1.0478 11.411-2.2934 17.341-2.7681 5.9297-0.47471 18.586-1.9137 28.125-3.1977 9.5391-1.284 22.617-3.0154 29.062-3.8476 6.4453-0.83218 13.223-1.9064 15.063-2.3872 1.8391-0.48079 7.1126-1.2908 11.719-1.8 4.6062-0.50919 11.117-1.3562 14.469-1.8822s9.6797-1.3772 14.062-1.8916 12.188-1.5196 17.344-2.234c5.1562-0.71434 14.859-1.9883 21.562-2.8311 6.7031-0.84275 15.773-2.1619 20.156-2.9314 4.3828-0.76952 9.2372-1.3964 10.787-1.3929 1.5503 4e-3 4.2925-0.4252 6.0938-0.95248s7.4938-1.537 12.65-2.2439c16.553-2.2693 43.772-6.1098 53.906-7.606 5.4141-0.79935 13.852-1.8633 18.75-2.3643 4.8984-0.50104 12.176-1.539 16.172-2.3065 19.099-3.6684 22.393-4.223 30.703-5.169 9.5946-1.0922 15.889-2.0368 27.656-4.1504 10.418-1.8712 24.303-4.0092 37.031-5.7022 5.9297-0.78871 15.633-2.2782 21.562-3.3101 5.9297-1.0318 14.367-2.4977 18.75-3.2574 4.3828-0.75975 9.4453-1.3909 11.25-1.4026s8.7656-1.0698 15.469-2.3513c6.7031-1.2815 19.148-3.3517 27.656-4.6005 31.818-4.6701 47.215-7.0955 50.512-7.9564 3.4464-0.90019 30.588-5.161 57.301-8.9952 4.8984-0.70311 13.547-2.148 19.219-3.2108 10.284-1.927 15.799-2.7994 30-4.7455 4.125-0.56528 8.8204-1.4412 10.434-1.9465 1.6139-0.50529 8.7858-1.7524 15.938-2.7714 28.527-4.0645 33.035-4.7585 54.951-8.4606 12.507-2.1126 26.115-4.184 30.24-4.6031 8.5126-0.86481 10.585-1.2048 26.368-4.3265 6.2523-1.2366 11.586-2.2484 11.853-2.2484 2.4612 0 5.4504-28.442 3.837-36.509-1.4879-7.4395-10.004-6.6921-102.53 8.9984-35.306 5.9875-80.597 12.912-94.219 14.404-8.5219 0.93391-39.802 5.5404-69.844 10.286-6.4453 1.0181-20.156 3.1331-30.469 4.7001-10.312 1.567-23.812 3.6706-30 4.6747s-18.633 2.884-27.656 4.1775c-9.0234 1.2935-19.148 2.7651-22.5 3.2703s-7.7813 1.1304-9.8438 1.3893-9.4453 1.3278-16.406 2.3754c-6.9609 1.0476-20.461 2.9772-30 4.288s-23.039 3.379-30 4.5958-16.242 2.7113-20.625 3.3211c-8.5818 1.194-47.108 7.3266-64.688 10.297-13.399 2.264-24.928 4.1191-41.25 6.6373-6.9609 1.074-17.297 2.7652-22.969 3.7584-5.6719 0.99312-20.438 3.3146-32.812 5.1588-12.375 1.8442-29.883 4.6198-38.906 6.168-17.092 2.9326-20.838 3.5188-52.5 8.2169-10.57 1.5684-25.336 3.908-32.812 5.1991-7.4766 1.2911-19.078 3.0074-25.781 3.814-15.775 1.8983-44.129 6.7472-46.324 7.922-2.895 1.5493-5.3357 35.133-2.7111 37.304 2.5 2.0682 13.064 2.139 18.393 0.12326zm-38.264-1.7394c2.4285-1.5364 1.7303-32.735-0.77799-34.766-2.0959-1.6972-30.085-8.7109-89.691-22.475-4.6406-1.0716-12.234-2.7608-16.875-3.7538-4.6406-0.99294-13.078-2.8957-18.75-4.2283-13.502-3.1722-35.503-8.0618-50.156-11.147-6.4453-1.3569-13.406-2.8777-15.469-3.3797-10.774-2.6222-43.032-10.048-63.281-14.568-34.908-7.7914-63.491-14.268-80.625-18.27-8.5078-1.9869-18.844-4.2825-22.969-5.1014-6.6129-1.3128-21.233-4.7533-46.035-10.834-33.65-8.2494-33.638-8.2518-34.443 6.7295-1.4186 26.383-2.325 24.549 13.675 27.671 6.3203 1.2331 15.71 3.2905 20.866 4.5721 5.1562 1.2815 16.547 3.9757 25.312 5.987 18.053 4.1423 39.912 9.7683 43.968 11.316 1.4947 0.57049 10.292 2.7216 19.55 4.7802s19.848 4.5592 23.532 5.5569c7.5322 2.0394 28.209 6.7204 54.043 12.235 9.5391 2.0362 23.25 5.0159 30.469 6.6215s15.234 3.302 17.812 3.7696c2.5781 0.46765 8.2734 1.6835 12.656 2.7018s12.82 2.9227 18.75 4.2319c21.082 4.6545 27.772 6.2087 37.031 8.6025 5.1562 1.333 12.328 2.9422 15.938 3.5758 3.6094 0.63364 9.5156 1.8671 13.125 2.741 3.6094 0.87392 11.414 2.6158 17.344 3.8708s13.734 2.9366 17.344 3.7369c3.6094 0.80025 12.258 2.4708 19.219 3.7124 21.764 3.8818 27.773 5.0818 30.094 6.0103 2.9331 1.1731 6.5785 1.2169 8.3435 0.10022zm28.594-56.818c8.25-1.3229 17.742-2.7849 21.094-3.249 3.3516-0.4641 12.844-1.8679 21.094-3.1196 52.288-7.9331 57.136-8.6944 83.906-13.178 4.8984-0.82033 12.07-1.938 15.938-2.4838 8.5438-1.2057 12.365-1.8045 35.156-5.5087 9.7969-1.5923 20.63-3.2634 24.075-3.7136 3.4442-0.45026 6.6083-1.0323 7.0312-1.2935 0.42295-0.26117 5.6206-1.1654 11.55-2.0095 5.9297-0.84406 12.891-1.9228 15.469-2.3973 10.068-1.8528 16.626-2.9007 34.688-5.5426 10.312-1.5084 23.812-3.6044 30-4.6577 6.1875-1.0534 15.258-2.5976 20.156-3.4317 4.8984-0.83411 13.547-2.1134 19.219-2.8429 5.6719-0.72953 16.219-2.3874 23.438-3.6841 22.271-4.0006 43.301-7.2121 75.938-11.596 7.7344-1.039 16.594-2.3246 19.687-2.8569 3.0938-0.5323 10.477-1.6387 16.406-2.4586 21.727-3.0044 35.413-5.0559 46.406-6.9564 6.1875-1.0697 13.781-2.3461 16.875-2.8366 32.331-5.1254 30.053-4.7887 63.281-9.353 11.602-1.5936 23.625-3.2853 26.719-3.7592 3.0937-0.47398 9.8437-1.3425 15-1.93 5.1562-0.58751 12.328-1.6426 15.938-2.3446 3.6093-0.70199 10.359-1.7232 15-2.2694 4.6406-0.54616 12.234-1.6453 16.875-2.4426 17.259-2.965 30.2-5.2398 37.031-6.5095 16.589-3.0832 28.222-5.064 36.416-6.2006 16.484-2.2866 15.319-4.4348-5.478-10.105-7.9922-2.179-17.273-4.7582-20.625-5.7316-13.56-3.9381-27.879-7.6796-52.031-13.595-5.1563-1.263-15.07-3.7761-22.031-5.5846s-22.359-5.6256-34.219-8.4823c-11.859-2.8567-23.672-5.8001-26.25-6.5409-2.5782-0.74078-11.016-3.0253-18.75-5.0766-7.7344-2.0514-44.822-12.188-82.416-22.527l-68.354-18.797-158.52 24.335c-87.187 13.384-160.48 24.984-162.87 25.776-2.3895 0.79277-5.9755 1.4478-7.9688 1.4556-1.9933 0.0079-12.273 1.2847-22.843 2.8376-10.57 1.5528-22.594 3.2728-26.719 3.8221-4.125 0.54935-16.148 2.2045-26.719 3.6782-10.57 1.4737-31.664 4.3901-46.875 6.4809s-32.086 4.4404-37.5 5.2213c-5.4141 0.78087-14.695 2.0592-20.625 2.8407-5.9297 0.78152-14.578 2.0312-19.219 2.7771-4.6406 0.74589-18.562 2.8512-30.938 4.6784-28.072 4.145-51.854 7.7561-58.594 8.8972-2.8359 0.48014-10.219 1.5431-16.406 2.3621-6.1875 0.81903-16.523 2.3289-22.969 3.3552-57.744 9.1952-77.443 12.227-97.031 14.933-86.783 11.989-93.08 13.543-75.594 18.656 8.074 2.3609 35.916 8.7094 43.719 9.9688 2.0625 0.33287 7.125 1.3863 11.25 2.341s16.992 3.8782 28.594 6.4966 25.224 5.8023 30.272 7.0752 10.111 2.3157 11.25 2.3174c1.1395 2e-3 7.3453 1.2645 13.791 2.8064 19.271 4.6101 38.47 9.0085 63.75 14.605 13.148 2.9109 28.336 6.34 33.75 7.6202 5.4141 1.2802 11.742 2.6781 14.062 3.1065 2.3203 0.42835 12.445 2.7203 22.5 5.0933s21.867 5.1206 26.25 6.1059c4.3828 0.98523 14.719 3.3208 22.969 5.1902s23.227 5.0481 33.281 7.0639 19.547 4.0626 21.094 4.5485c4.0413 1.2693 4.1478 1.2622 20.625-1.3799z"/>
</svg>
