<?xml version="1.0" encoding="UTF-8"?>
<svg width="203.94mm" height="50.755mm" version="1.1" viewBox="0 0 722.63768 179.84005" xmlns="http://www.w3.org/2000/svg">
 <g transform="translate(12.229 -421.73)">
  <g transform="matrix(.9998 .019798 -.019798 .9998 10.084 -6.8206)" stroke="#000">
   <path d="m-8.291 520.14c9.5104-0.43156 625.94-14.929 633.1-15.149-0.94797-5.1446-2.7661-15.087-3.5299-19.848-6.8388 0.0992-620.38 14.138-630.2 14.219-1.8279-4.684 1.1351 27.257 0.62646 20.778z" fill="#505050" stroke-width="5.7231"/>
   <g transform="matrix(-6.9372 -5.686 4.5236 -6.3821 838.88 2453.5)" fill="#dedede" stroke-width=".44819">
    <path d="m146.62 176.74c1.44 1.8 3.5384 4.5349 5.6984 4.1749 0.18 3.42-4.41 6.39-6.03 5.67 0.99-3.6-2.8009-6.9901-2.7109-6.9901z" fill="#dedede" fill-rule="evenodd" stroke="#000" stroke-width=".44819"/>
   </g>
   <path d="m652.5 496.37c1.6851 15.06 0.75588 19.227 6.1392 37.716 5.2824 18.143 37.399 18.66 49.775 21.362 0 0-23.579 37.137-60.689 38.356-37.11 1.2198-60.525-16.37-71.616-39.109 0 0 44.212 0.82745 44.66-17.888 0.43326-18.136 1.9889-22.128-0.95682-36.889" fill="#dedede" stroke-width="3.7497"/>
   <path d="m663.37 507.97-50.4 1.6624-0.7539-27.185 50.4-1.6624z" fill="#dedede" stroke-width="3.7497"/>
  </g>
 </g>
</svg>
