<?xml version="1.0" encoding="UTF-8"?>
<svg width="555" height="332.81" version="1.1" viewBox="0 0 555 332.8125" xmlns="http://www.w3.org/2000/svg">
 <path d="m94.304 331.42c-8.138-2.8999-9.0064-7.6296-8.9977-49.002l0.0062-29.297-10.547-9.4e-4 -10.547-9.3e-4 0.2751 16.272c0.48997 28.982-0.64116 31.634-13.565 31.81-16.31 0.2218-16.229 0.40903-16.259-37.671l-0.01711-22.129-13.108-6.9811-13.108-6.9811v-6.3604c0-7.491-1.0692-6.9337 14.986-7.8113 5.9221-0.32368 10.885-0.70593 11.028-0.84943 0.38913-0.38913 0.31024-114.22-0.079426-114.61-0.18413-0.18412-7.2584-0.34671-15.721-0.36129-8.4622-0.014531-15.965-0.38438-16.673-0.82177-1.5371-0.95001-1.6243-74.079-0.095108-79.776 3.5135-13.09-11.752-12.104 209.99-13.567 98.709-0.65139 188.79-1.525 195.47-1.8957 45.705-2.5375 50.932-0.23228 51.067 22.518 0.0713 12.029-0.98656 11.053 17.243 15.917 8.6307 2.3031 16.045 4.4054 16.476 4.6717 0.4309 0.26631 4.5226 1.5018 9.0928 2.7455 53.226 14.485 54.239 14.931 53.385 23.5-0.78503 7.879 0.49679 7.505-26.84 7.833l-24.33 0.29199v137.34l9.2843 3.9264c5.1064 2.1595 9.6816 3.9264 10.167 3.9264 3.3897 0 5.6713 11.065 2.861 13.875-0.7413 0.7413-4.7124 1.125-11.643 1.125h-10.518l-0.30998 36.797c-0.25711 30.523-0.55162 37.276-1.7272 39.609l-1.4172 2.8125-11.336 0.26213c-9.2566 0.21404-11.554-9e-4 -12.526-1.1719-0.65455-0.7887-1.7564-1.434-2.4486-1.434-4.1517 0-5.244-9.3035-5.1459-43.828l0.0886-31.172-11.493 5e-3c-6.3211 3e-3 -15.606 0.27723-20.634 0.61015l-9.1406 0.6053v15.093c0 12.8-1.4723 26.728-2.9841 28.231-1.24 1.2328-21.449 0.7017-22.965-0.60353-0.93871-0.80789-2.3528-1.6953-3.1424-1.9721-2.7024-0.94714-4.1893-9.742-4.1893-24.779 0-17.273 3.5659-15.293-25.781-14.314-13.664 0.45577-44.039 1.4623-67.5 2.2366s-49.406 1.6382-57.656 1.9195c-21.738 0.74138-72.453 2.2033-97.969 2.8241-12.117 0.29479-23.402 0.74803-25.078 1.0072l-3.0469 0.47121v34.105c0 32.946-0.61855 42.006-3.0904 45.263-1.224 1.6132-15.084 1.4617-19.793-0.21632zm16.056-2.0071c1.1431-0.30644 2.2698-1.2499 2.5037-2.0966 0.23398-0.84667 0.69826-2.4886 1.0317-3.6488 0.60016-2.088 0.51052-2.1094-8.8319-2.1094h-9.4382v3.5938c0 4.8406 6.0483 6.5897 14.735 4.261zm-17.19-4.8078c-1.158-4.8473-4.6242-7.1177-3.5782-2.3438 0.96968 4.4254 1.2461 4.9219 2.7405 4.9219 1.11 0 1.308-0.60937 0.83765-2.5781zm21.224-44.062c0.0102-21.012 0.0466-55.289 0.0809-76.172s0.026-49.676-0.0186-63.984l-0.0809-26.016h-4.9552l0.67051 16.406c0.46869 11.468 0.36788 16.406-0.33491 16.406-0.61761 0-1.0054-2.4749-1.0054-6.4167 0-3.5292-0.27614-10.93-0.61364-16.446l-0.61363-10.029-5.9146 0.2739-5.9145 0.27391-0.36591 101.95-0.36591 101.95h19.413l0.0186-38.203zm-15.514 22.5c1.2033-22.73 2.3188-31.075 1.8483-13.828-0.22502 8.25-0.41054 17.637-0.41226 20.859-2e-3 3.7232-0.38871 5.8594-1.0608 5.8594-0.76703 0-0.87016-3.5422-0.37528-12.891zm6.5376 3.9844c0.53321-6.7918 1.9861-32.122 3.4145-59.531 1.2533-24.048 2.8558-34.246 2.2099-14.062-0.44827 14.007-1.0432 29.605-1.8771 49.219-0.54461 12.808-1.9737 24.942-3.2924 27.953-0.6494 1.4829-0.77479 0.49675-0.45491-3.5778zm-3.1923-59.955c-0.62134-0.74867-0.98455-2.1149-0.80715-3.0361 0.40985-2.1282 3.5823-2.8612 3.5823-0.82767 0 0.81124 0.42188 1.475 0.9375 1.475 1.5132 0 1.0743 2.5594-0.54543 3.181-1.9558 0.7505-1.8688 0.77225-3.1672-0.79216zm2.5408-19.575c-0.38672-0.94452-0.70313-5.2687-0.70313-9.6094 0-5.022-0.3679-7.8921-1.0117-7.8921-1.0035 0-0.47785-19.55 0.68943-25.64 1.4315-7.4685 2.2083 1.145 1.9799 21.953-0.13828 12.598-0.56784 22.132-0.95455 21.188zm-8.1372-16.743c-0.03624-1.3875 0.35598-2.7835 0.8716-3.1022 1.1192-0.69173 1.1192 1.1454 0 3.75-0.71944 1.6742-0.81278 1.6048-0.8716-0.64779zm0.87883-10.212c0.0094-7.8098 2.6702-44.162 3.2769-44.769 0.66315-0.66315 0.57071 3.2347-0.41881 17.659-0.47753 6.9609-1.1484 17.086-1.4908 22.5-0.71047 11.232-1.3779 13.483-1.3672 4.6094zm10.527-18.438c0.0311-13.985 0.31731-20.522 0.76945-17.578 1.0308 6.7124 1.0578 39.844 0.0325 39.844-0.48794 0-0.8304-9.5081-0.80198-22.266zm-9.5159-55.257c0.05869-7.3843 0.30385-9.3862 0.90357-7.379 1.005 3.3636 0.83573 16.388-0.22148 17.041-0.41948 0.25924-0.72641-4.0887-0.6821-9.6621zm-5.8722 88.439c0.27798-94.34 0.17843-102.65-1.2475-104.07-1.5502-1.5502-3.2734-1.3116-3.2734 0.45334 0 0.51563 0.39272 0.69479 0.87272 0.39814 1.7886-1.1054 2.0366 1.8833 2.0119 24.247-0.03676 33.233-1.3687 36.779-1.9698 5.2439-0.27031-14.18-0.58672 19.102-0.70312 73.959-0.22456 105.82-0.35639 102.01 3.5384 102.26 0.25781 0.0163 0.60469-46.105 0.77083-102.49zm406.47 99.164c1.7757-4.6274 0.6737-8.1474-2.3606-7.5405-1.6113 0.32227-5.7246 0.5924-9.1406 0.60029-7.922 0.0183-8.9858 0.6747-8.167 5.0392l0.63483 3.3839h9.2322c7.5538 0 9.3357-0.26961 9.8013-1.4829zm-23.853-6.5425c-0.61602-0.74226-1.543-1.3496-2.0599-1.3496-1.2804 0-0.0572 5.8017 1.418 6.7257 1.5793 0.9892 2.1259-3.5881 0.64196-5.3761zm8.5504-8.6152c0.0758-7.2723 1.6326-5.5977 1.7432 1.875 0.0554 3.7419 0.3531 4.4531 1.8642 4.4531 3.0134 0 4.7642-1.0501 4.7642-2.8575 0-0.94566 0.42188-1.9801 0.9375-2.2988 0.53171-0.32861 0.9375 0.45902 0.9375 1.8197 0 2.1168 0.38607 2.3991 3.2812 2.3991h3.2812v-222.36l-10.237 0.31732c-5.6302 0.17453-10.428 0.52826-10.663 0.78607-0.23427 0.25781-0.65488 50.355-0.93469 111.33l-0.50875 110.86h5.468l0.0659-6.3281zm4.3485-7.9688c0.73042-14.401 2.106-18.447 1.6731-4.9219-0.19805 6.1875-0.38312 11.988-0.41127 12.891-0.0281 0.90234-0.43325 1.6406-0.90021 1.6406-0.4835 0-0.63918-4.137-0.36161-9.6094zm-2.039-55.043c-2.214-2.4464-1.2182-5.1336 1.6204-4.3728 1.1539 0.30928 2.6253 0.56808 3.2698 0.57512 1.8538 0.0203 1.3625 3.5948-0.64149 4.6673-2.3605 1.2633-2.309 1.2739-4.2488-0.8696zm8.2372-11.285c0-3.3516 0.17015-4.7227 0.37812-3.0469 0.20795 1.6758 0.20795 4.418 0 6.0938-0.20797 1.6758-0.37812 0.30469-0.37812-3.0469zm-13.098-2.8125c0-4.3828 0.1615-6.1758 0.35888-3.9844 0.19737 2.1914 0.19737 5.7774 0 7.9688-0.19738 2.1914-0.35888 0.39844-0.35888-3.9844zm-0.32757-16.25c0-4.9155 0.37899-8.125 0.95944-8.125 0.87678 0 0.29848 14.804-0.6195 15.859-0.18697 0.21484-0.33994-3.2656-0.33994-7.7344zm14.28-0.625c0-1.8047 0.19294-2.543 0.42875-1.6406 0.2358 0.90235 0.2358 2.3789 0 3.2812-0.23581 0.90235-0.42875 0.16407-0.42875-1.6406zm-12.812-27.656c0.21837-9.7969 0.39921-19.043 0.40186-20.547 3e-3 -1.5039 0.29165-2.4476 0.6422-2.097 0.74475 0.74475 0.4404 14.337-0.66448 29.675-0.65894 9.1477-0.71646 8.0823-0.37958-7.0312zm7.4496-26.265c0.63448-24.531 0.79238-26.249 2.3255-25.301 0.5999 0.37077 0.87869 8.8522 0.76466 23.263-0.12855 16.247-0.34355 20.153-0.75804 13.773-0.64493-9.9274-0.77282-9.7333-1.5442 2.3438-1.0197 15.964-1.3926 9.3017-0.78787-14.078zm-5.7445-15.453c0.79727-21.053 2.0389-33.728 3.4333-35.048 0.83286-0.78874 0.97959-0.58501 0.59737 0.82946-0.27866 1.0312-0.77259 4.6172-1.0976 7.9688-0.32503 3.3516-0.75136 7.5703-0.94741 9.375s-0.63357 9.8203-0.97227 17.812-0.84506 14.742-1.1252 15c-0.28019 0.25781-0.22983-6.9141 0.11189-15.938zm12.947 0.46875c0.0191-1.5469 0.22921-2.0662 0.46691-1.154 0.23769 0.91215 0.22206 2.1778-0.0348 2.8125-0.25681 0.63471-0.45129-0.1116-0.43218-1.6585zm-0.50882-8.6719c-0.99438-7.8014-1.8288-25.1-1.1821-24.505 0.79595 0.73209 1.1917 4.3045 1.9877 17.942 0.65306 11.19 0.22679 14.662-0.8056 6.5625zm-20.546 39.141c4.3e-4 -48.211-0.32578-85.125-0.72493-82.031-0.39914 3.0938-0.77437 10.886-0.83386 17.316-0.0619 6.685-0.52491 12.104-1.0814 12.656-0.67253 0.66686-0.88385-4.6121-0.68384-17.083 0.1592-9.9264-0.0269-18.047-0.41367-18.047-0.38671 6.19e-4 -0.7206 2.005-0.74197 4.4542-0.97952 112.27-0.28319 218.06 1.4432 219.27 2.5466 1.7869 3.0354-20.191 3.0365-136.54zm-416.36 130.9c0.06051-0.0627 0.39603-1.6961 0.74561-3.6297l0.6356-3.5156h-6.9971c-3.8484 0-7.6644-0.25607-8.48-0.56905-1.2345-0.47373-1.4829 0.24374-1.4829 4.2832v4.8522l7.7344-0.65345c4.2539-0.3594 7.7839-0.70479 7.8444-0.76756zm-18.391-3.8311c0-2.2253-0.55779-3.5468-1.7712-4.1962-1.6252-0.86979-1.7127-0.68846-1.0612 2.2002 1.3223 5.8628 2.8323 6.927 2.8323 1.996zm20.156-7.2986c0.2253-0.64453 0.52846-8.4814 0.6737-17.415l0.26408-16.243-2.4171 0.48469c-1.5815 0.31714-3.6881-0.29616-6.0938-1.7742-5.1776-3.181-5.0829-3.3135-5.0829 7.113 0 6.808-0.29653 9.2471-1.0664 8.7713-0.73804-0.45613-0.90938-3.5084-0.55646-9.913 0.50961-9.2483-0.06984-11.101-3.4718-11.101-0.29171 0-0.53038 9.2812-0.53038 20.625v20.625h8.9357c6.3051 0 9.0563-0.34499 9.3453-1.1719zm-21.31-21.485c-0.18951-15.609-0.544-20.879-1.4242-21.172-1.2683-0.42212-1.8041 40.072-0.54688 41.329 1.8941 1.8941 2.2007-1.241 1.9711-20.157zm381.4 18.189c0.56625-0.37882 1.3095-2.4817 1.6517-4.6732l0.62216-3.9844-4.4642-0.18484c-16.525-0.68419-15.977-0.89543-14.667 5.6552 0.57837 2.8919 0.5793 2.8923 7.7344 3.2098 3.9358 0.17464 7.3669 0.39598 7.6247 0.49184 0.25781 0.0959 0.93204-0.13562 1.4983-0.51445zm-19.872-4.6732c-0.58005-3.1545-1.7175-4.8666-3.2605-4.9075-1.1471-0.0305 0.34785 6.1402 1.7568 7.2513 2.1349 1.6835 2.2199 1.551 1.5037-2.3438zm4.209-8.8908 0.77462-2.094 0.6646 2.094c0.53447 1.684 1.3635 2.094 4.2342 2.094 4.1424 0 3.9421 0.52606 5.7135-15 1.5836-13.88 2.1546-12.986 1.4974 2.3438-0.51088 11.918-0.44379 12.78 0.72944 9.375l1.2921-3.75 0.0983 3.5156c0.3776 13.504 3.8483 3.147 3.8483-11.484v-15l-5.8594 8e-3c-3.2226 5e-3 -8.0742 0.27418-10.781 0.59933l-4.9219 0.59119v14.401c0 13.95 0.78442 17.512 2.71 12.307zm2.5736-11.631c-0.3279-2.3923-0.54996-6.7165-0.49346-9.6094 0.12219-6.2568 1.0321-2.752 2.1029 8.0996 0.66559 6.7454-0.71436 8.0399-1.6094 1.5098zm-8.0962-1.2754c0-13.209-0.10848-14.062-1.788-14.062-2.1613 0-3.0147 24.321-0.94104 26.819 2.3112 2.7848 2.729 0.83197 2.729-12.757zm-332.81-7.5182c0.25781-0.38254 4.3711-1.0016 9.1406-1.3757 6.6183-0.51909 8.6719-1.0006 8.6719-2.0334 0-1.0793-1.0913-1.254-5.3906-0.86298-2.9648 0.26966-8.5547 0.7484-12.422 1.0639-7.1914 0.58664-9.375 1.4874-9.375 3.8674 0 1.4269 8.3655 0.83869 9.375-0.65924zm82.277-1.5634c-0.89634-0.23464-2.5838-0.24316-3.75-0.0189-1.1662 0.22425-0.43281 0.41624 1.6297 0.42664s3.0166-0.17307 2.1203-0.40772zm6.5516-2e-3c-0.90234-0.2358-2.3789-0.2358-3.2812 0-0.90234 0.23581-0.16406 0.42874 1.6406 0.42874s2.543-0.19293 1.6406-0.42874zm25.82-0.98437c-3.2012-0.1825-8.6856-0.18385-12.188-3e-3 -3.5019 0.18087-0.88275 0.3302 5.8204 0.33184 6.7031 2e-3 9.5683-0.14635 6.3671-0.32886zm-8.7109-1.7078c11.086-0.28935 27.48-0.92226 36.432-1.4065 26.263-1.4206 35.242-0.92848 17.388 0.9529-15.607 1.6446 39.791 0.26767 149.15-3.7071 13.922-0.50601 28.371-0.92421 32.109-0.92933 3.7383-5e-3 6.7969-0.37075 6.7969-0.81249 0-0.88571-33.765-2.1152-58.359-2.125-10.72-5e-3 -15.703-0.3311-15.703-1.0298 0-0.96085 46.338-0.42617 58.125 0.67071 14.689 1.3669 68.885 0.89005 69.177-0.60867 0.51047-2.6248-75.214-4.3091-118.4-2.6334-9.7969 0.38018-53.672 1.6815-97.5 2.8917-43.828 1.2103-77.445 2.4811-74.704 2.8241 2.7408 0.343 5.178 0.81844 5.4161 1.0566 0.23812 0.2381-10.442 0.7116-23.733 1.0522s-27.858 0.87575-32.369 1.1892c-7.6633 0.53238-11.838-0.71643-6.0938-1.8228 1.5254-0.2938 1.2659-0.44163-0.9375-0.53395-2.7506-0.11526-3.0469 0.13059-3.0469 2.5286 0 4.1062 0.31165 4.1652 18.75 3.5489 9.5391-0.31885 26.414-0.81647 37.5-1.1058zm97.038-4.0167c1.5899-1.6876 86.378-3.7556 85.344-2.0814-0.29783 0.4819-4.0141 0.81153-8.2584 0.7325-11.008-0.20496-64.679 1.1351-71.936 1.7961-4.3073 0.39234-5.817 0.26124-5.1496-0.44719zm-65.163-1.1094c5.135-0.72236 33.478-1.2173 32.734-0.57161-0.21485 0.18654-8.8281 0.55468-19.141 0.81807-10.429 0.26638-16.462 0.15701-13.594-0.24646zm8.6719 5.9028c-2.1914-0.19737-5.7773-0.19737-7.9688 0-2.1914 0.19738-0.39843 0.35888 3.9844 0.35888s6.1758-0.1615 3.9844-0.35888zm-158.67-2.4944c0-2.0699-2.4354-4.0711-3.5717-2.9349-0.26995 0.26995 0.0014 0.49082 0.60293 0.49082 0.60156 0 1.0938 0.68447 1.0938 1.521 0 1.0855-0.33554 1.256-1.1719 0.59537-1.5936-1.2588-9.0198-2.1328-9.637-1.1342-0.84646 1.3696 4.5109 3.6283 8.6995 3.6677 3.588 0.0339 3.9844-0.18567 3.9844-2.2059zm19.922-0.20271c10.046-0.64047 14.084-2.2457 5.625-2.2365-12.16 0.0132-22.734 1.2227-22.734 2.6001 0 1.0734 0.79041 1.2604 3.5156 0.83176 1.9336-0.30409 8.0508-0.84202 13.594-1.1954zm-28.669-3.6229c3.2657 0.3449 4.0059 0.23043 2.6539-0.4104-3.3325-1.5796-14.428-1.2373-12.292 0.37922 1.2345 0.93458 2.2754 1.0697 3.4399 0.44649 0.91836-0.4915 3.7077-0.67839 6.1986-0.41531zm113.09-0.25266c-4.2286-0.17331-11.4-0.17419-15.938-2e-3 -4.537 0.17222-1.0773 0.31402 7.6883 0.3151 8.7656 9.4e-4 12.478-0.13984 8.2492-0.31314zm-81.701-1.1783h7.3586v-23.528l-27.422 0.62917c-15.082 0.34604-30.783 0.89383-34.891 1.2173l-7.4696 0.58812 20.595 11.067 20.595 11.067 6.9383-0.51963c3.8161-0.28581 10.25-0.51964 14.297-0.51964zm-37.641-1.9591 5.1562-0.10969-3.542-0.93999c-3.8973-1.0343-9.6187-0.32528-10.634 1.3178-0.44316 0.71704 0.06548 0.8579 1.6077 0.44524 1.2408-0.332 4.5763-0.65299 7.4122-0.71332zm144.84-0.42267c9.7969-0.26655 41.016-1.0939 69.375-1.8385 28.359-0.74461 57.891-1.5784 65.625-1.8528 28.346-1.0058 69.196-2.3624 98.906-3.2845 16.758-0.52012 34.793-1.1993 40.078-1.5093l9.6094-0.56361v-19.612l-3.9844-1.7385c-3.6969-1.613-5.6079-1.6812-26.484-0.94491-12.375 0.43647-32.203 1.0463-44.062 1.3552-11.859 0.30887-33.164 0.95494-47.344 1.4357-14.18 0.48078-48.984 1.5277-77.344 2.3265-28.359 0.79877-73.353 2.0782-99.986 2.8432-26.633 0.76496-49.309 1.3908-50.391 1.3908-1.894 0-1.9671 0.44024-1.9671 11.834v11.834l25.078-0.59484c13.793-0.32717 33.094-0.81293 42.891-1.0795zm1.4325-6.9527c-2.7028-1.7181 1.4635-2.0506 20.537-1.6391 24.357 0.52553 25.499 1.5985 1.701 1.5985-10.098 0-18.923 0.2065-19.609 0.45891-0.68671 0.25239-1.8695 0.0641-2.6285-0.41833zm55.755-0.0769c-13.7-0.46123-12.862-0.52218 9.6647-0.70313 15.571-0.12507 24.46 0.13372 24.108 0.7019-0.5642 0.9129-6.6877 0.91313-33.773 9.4e-4zm37.534 0.0907c-0.41089-0.6648 1.7752-0.99187 6.6298-0.99187 3.9836 0 7.0426 0.20023 6.7979 0.44497-1.0178 1.0178-12.839 1.4993-13.428 0.54692zm14.576-0.39942c0.89171-0.78759 20.496-1.2686 20.015-0.49112-0.28423 0.45988-4.9919 0.83614-10.461 0.83614s-9.7689-0.15526-9.554-0.34502zm62.266-3.8717c2.2868-0.77746 29.531-1.1135 29.531-0.36424 0 0.45705-6.8555 0.79769-15.234 0.75698-8.3789-0.0407-14.812-0.21744-14.297-0.39274zm32.344-0.60529c0-0.44162 1.2656-0.80295 2.8125-0.80295 3.6673 0 3.6654 1.3758-2e-3 1.5061-1.5457 0.0549-2.8104-0.26149-2.8104-0.70312zm-242.81-0.59332c0-2.0216 16.571-4.0611 30.938-3.8078 5.977 0.10538 5.9321 0.12269-2.3438 0.90356-13.36 1.2606-24.195 2.5883-26.484 3.2454-1.1944 0.34283-2.1094 0.19486-2.1094-0.34112zm110.25-1.4279c-3.1523-2.313 15.589-4.6152 34.595-4.2496l5.625 0.10817-7.0312 0.78098c-3.8672 0.42953-9.9844 1.0982-13.594 1.486l-6.5625 0.70501 6.0938 0.56333c5.5388 0.51201 5.1973 0.57921-3.75 0.73793-5.4141 0.096-10.688 0.39999-11.719 0.67545-1.0312 0.27547-2.6772-0.0877-3.6576-0.80719zm-52.592-3.9414c24.096-1.8858 32.671-2.287 31.776-1.4864-0.92196 0.82438-33.393 3.0029-41.62 2.7923-2.8359-0.0726 1.5938-0.66025 9.8438-1.3059zm52.031-3.244c5.3625-2.0529 76.775-4.0225 75.577-2.0844-0.28741 0.46505-15.406 1.1167-33.597 1.448-18.191 0.33136-35.605 0.81198-38.699 1.068-4.2003 0.34767-5.0314 0.23832-3.2812-0.43168zm81.094-0.71523c-1.5469-0.22022-3.2133-0.78983-3.7031-1.2658-1.1101-1.0786 2.1147-1.0186 26.672 0.49619l19.219 1.1855-19.688-7e-3c-10.828-5e-3 -20.953-0.18795-22.5-0.40817zm44.766 0.01c1.418-0.21481 3.7383-0.21481 5.1562 0 1.418 0.2148 0.25782 0.39055-2.5781 0.39055s-3.9961-0.17575-2.5781-0.39055zm9.4773 0.0223c1.0713-1.0713 4.3508-1.2842 4.3508-0.28242 0 0.51239-1.125 0.93162-2.5 0.93162s-2.2079-0.29213-1.8508-0.64916zm5.7571-0.2883c0.31867-0.51563 1.1873-0.9375 1.9303-0.9375s1.3509 0.42187 1.3509 0.9375c0 0.51562-0.86865 0.9375-1.9303 0.9375s-1.6696-0.42188-1.3509-0.9375zm8.2911 0.30265c1.0292-1.0292 9.0527-1.276 9.0527-0.27852 0 0.50235-2.1797 0.91337-4.8438 0.91337s-4.5581-0.28568-4.2089-0.63485zm10.928-0.30279c0-0.51563 1.0796-0.9375 2.3991-0.9375 1.3606 0 2.1483 0.40579 1.8197 0.9375-0.31867 0.51562-1.3983 0.9375-2.3991 0.9375s-1.8197-0.42188-1.8197-0.9375zm5.9971-0.15631c-0.26554-0.42966 1.0187-0.78119 2.8538-0.78119s3.3366 0.16306 3.3366 0.36234c0 0.76986-5.7337 1.1578-6.1904 0.41885zm12.518-0.52188c1.6758-0.20795 4.418-0.20795 6.0938 0 1.6758 0.20797 0.30469 0.37812-3.0469 0.37812s-4.7227-0.17015-3.0469-0.37812zm89.297 21.303c0-1.5799-0.66406-1.8934-4.2188-1.9922-2.3203-0.0644-4.6406-0.22265-5.1562-0.35156-0.51563-0.12891-2.4141-0.28711-4.2188-0.35156-1.8047-0.0644-3.2812-0.4861-3.2812-0.93699s3.7969-0.60331 8.4375-0.33872c7.3881 0.42126 8.4375 0.29003 8.4375-1.0552 0-1.7272-4.5424-2.0126-14.862-0.93398l-5.7625 0.60229v7.2329h10.312c9.6875 0 10.312-0.11363 10.312-1.875zm-493.66 0.10627c0.28255-0.45717 2.0881-1.1266 4.0123-1.4876 5.1502-0.96618 1.4265-2.7818-4.1404-2.0188-5.6335 0.77215-6.6184 1.5344-3.9172 3.0317 2.6834 1.4874 3.3697 1.5679 4.0453 0.47463zm438.35-3.5289c0-1.3741-1.025-1.4798-9.1406-0.94236-5.0273 0.33292-15.047 0.69817-22.266 0.81168l-13.125 0.20637 16.875 0.53445c9.2812 0.29394 19.301 0.62513 22.266 0.73597 4.467 0.167 5.3906-0.0636 5.3906-1.3461zm-441.63-1.3564c2.6192-0.78473 3.4891-1.4114 2.6757-1.9275-3.3043-2.0966-13.273 0.36711-10.382 2.5658 0.92237 0.7015 2.1605 1.1065 2.7513 0.89997 0.59086-0.20651 2.8207-0.89873 4.9553-1.5383zm-6.2525-3.3854c1.4243-0.26905 2.8203-0.86243 3.1022-1.3186 0.71486-1.1567-5.8872-1.0416-8.0972 0.14107-2.5565 1.3682-2.329 3.1609 0.29601 2.3325 1.1602-0.36615 3.2747-0.88587 4.699-1.1549zm493.35-1.2256c2.3246-0.0295 1.6786-0.51922-3.723-2.8228-3.5945-1.5329-6.6531-2.7871-6.7969-2.7871-0.59831 0-0.20429 5.37 0.4417 6.0199 0.38672 0.38909 2.1797 0.46405 3.9844 0.16658 1.8047-0.29748 4.5469-0.55693 6.0938-0.57655zm-497.31-3.5671c-1.9351-0.64504-5.6597 0.78869-5.6597 2.1786 0 1.1636 0.51222 1.129 3.3562-0.22724 1.8459-0.88027 2.8825-1.7584 2.3035-1.9514zm23.595-25.246c0.89385-53.858 0.49573-123.36-0.64307-112.27-0.63513 6.1875-1.255 11.25-1.3775 11.25-0.12251 0-0.41834 26.473-0.6574 58.828-0.38478 52.079-0.27194 58.828 0.98359 58.828 1.2023 0 1.4603-2.5332 1.6944-16.641zm8.5902 14.062c0.27185-1.418 0.77203-6.4805 1.1115-11.25 0.90329-12.69 2.1041-10.594 1.5559 2.7165-0.34622 8.4064-0.18836 11.215 0.60286 10.726 0.58954-0.36435 1.0719-2.35 1.0719-4.4124 0-2.2613 0.37218-3.52 0.9375-3.1706 0.51562 0.31868 0.9375 2.242 0.9375 4.2741 0 3.2827 0.25281 3.6947 2.2671 3.6947 5.4712 0 5.132 3.3648 5.2013-51.603 0.06857-54.381 0.22848-52.46-4.3663-52.46-0.42415 0-0.61684 6.3281-0.4282 14.062 0.24092 9.8776 0.03358 14.062-0.6967 14.062-0.71646 0-1.0397-4.5116-1.0397-14.512v-14.512l-3.75-1.9131-3.75-1.9131v-14.074c0-13.673-1.2831-18.165-4.4262-15.493-0.1141 0.09697-0.47064 31.267-0.79231 69.266l-0.58485 69.089h2.8272c2.3394 0 2.9125-0.44483 3.3215-2.5781zm-2.2203-20.316c0-2.8558 0.44025-11.424 0.97833-19.04s1.3521-21.019 1.809-29.785l0.83068-15.938-0.40012 20.625c-0.57446 29.612-1.4986 48.267-2.4193 48.836-0.43926 0.27148-0.79866-1.843-0.79866-4.6988zm11.62-11.324c0.0015-7.2188 0.14863-10.048 0.32703-6.2871s0.17721 9.6671-0.0026 13.125c-0.1799 3.4579-0.32587 0.38086-0.32441-6.8379zm26.818-12.16v-45.441l-5.3906-2.4856c-9.0627-4.1788-13.611-6.0674-13.905-5.7736-0.15425 0.15426-0.41095 22.524-0.57044 49.711l-0.28998 49.431 10.078-4.2e-4 10.078-4e-4v-45.441zm76.875 43.107c11.602-0.26675 29.109-0.69155 38.906-0.94399 9.7969-0.25245 26.25-0.6758 36.562-0.94079 31.671-0.81381 53.2-1.4344 82.031-2.3647 15.211-0.49079 38.066-1.175 50.789-1.5206 22.419-0.60884 23.149-0.68874 23.659-2.5899 0.28967-1.0789 0.5329-26.219 0.54051-55.868l0.0139-53.906-28.36 0.61355c-15.598 0.33745-61.056 1.1128-101.02 1.723s-72.736 1.1876-72.834 1.2832c-0.0979 0.09554-0.26994 3.0152-0.38237 6.4882-0.27311 8.4359 0.69501 8.1025-24.358 8.3901l-21.956 0.25205 0.10093 21.81c0.0871 18.818 0.31218 22.043 1.6406 23.511 3.889 4.2972 1.1941 8.636-5.757 9.2687-6.4612 0.58815-10.999-4.754-7.2354-8.5177 1.3191-1.3192 2.2818-44.407 1.0206-45.682-0.21258-0.21485-4.376-0.25751-9.252-0.0948l-8.8655 0.29582-0.0394 49.382c-0.0461 57.817-1.696 51.06 12.312 50.418 6.2634-0.28737 20.88-0.74074 32.482-1.0075zm306.56-51.457c0-35.165-0.26327-45.562-1.1719-46.279-1.5248-1.2032-38.422-13.461-38.945-12.938-0.21946 0.21947-0.48341 23.477-0.58655 51.682l-0.18753 51.283 16.461-0.48231c12.176-0.35676 17.315-0.16649 19.742 0.73101 1.8047 0.66732 3.5977 1.2454 3.9844 1.2846 0.38672 0.0392 0.70313-20.338 0.70313-45.283zm-67.625-13.474c-0.0809-37.398-0.40473-55.236-0.91486-50.391-0.43433 4.125-1.3176 11.086-1.9628 15.469-0.7895 5.3629-1.2085 21.841-1.2812 50.391l-0.10804 42.422h4.392l-0.1252-57.891zm5.2202 52.969c0.29833-2.707 0.67686-6.8203 0.84117-9.1406s0.3789-0.63281 0.47689 3.75c0.22836 10.215 0.42018 10.482 7.2676 10.129l5.538-0.28556 0.59393-7.3127c0.81591-10.046 1.7498-10.187 1.7498-0.26543 0 6.1457 0.29392 8.1052 1.1719 7.8127 2.3302-0.77641 1.6345-105.17-0.70312-105.5-1.7967-0.25773-1.8493 0.09447-1.2599 8.4375 0.33827 4.7886 0.59467 13.136 0.56975 18.55l-0.0453 9.8438-0.7835-8.9062c-0.43095-4.8984-1.1092-13.545-1.5073-19.215l-0.72375-10.309-4.8665-1.3823c-5.3176-1.5104-5.8801-2.3847-5.9019-9.1725-0.0116-3.6216-0.2262-3.9844-2.3566-3.9844h-2.3438l0.14272 22.734c0.13674 21.781 0.17196 22.191 0.8398 9.7852 0.38338-7.122 0.9935-13.239 1.3558-13.594 0.36231-0.35452 0.35219 5.4726-0.0225 12.949-0.37468 7.4766-1.049 13.734-1.4985 13.906-0.44951 0.17188-0.8173 0.72411-0.8173 1.2272s0.46069 0.62998 1.0238 0.28199c0.71918-0.44447 0.86559 1.1429 0.49214 5.3353-2.0076 22.538-2.4432 69.249-0.64584 69.249 0.47853 0 1.1141-2.2148 1.4125-4.9219zm7.5432-11.975c1.9542-7.9241 2.4913-47.62 0.9257-68.416-0.31-4.1177-0.16678-5.616 0.44167-4.6204 2.7728 4.5372 1.9302 71.595-0.93495 74.405-0.72647 0.71255-0.84962 0.32258-0.43241-1.3692zm-2.6382-0.60325c-0.89926-0.89925-0.64361-20.112 0.29731-22.344 0.48623-1.1533 0.80796 2.9065 0.83582 10.547 0.0249 6.832-0.0792 12.422-0.23141 12.422-0.1522 0-0.55797-0.28125-0.90172-0.625zm0.53-27.5c0-1.8047 0.19294-2.543 0.42875-1.6406 0.2358 0.90235 0.2358 2.3789 0 3.2812-0.23581 0.90235-0.42875 0.16407-0.42875-1.6406zm-0.0348-7.0312c0.0191-1.5469 0.22922-2.0662 0.46691-1.154 0.2377 0.91215 0.22207 2.1778-0.0348 2.8125-0.25681 0.63471-0.45128-0.1116-0.43218-1.6585zm-5.8077-56.25c0-1.2891 0.36338-2.3438 0.8075-2.3438s0.60588 1.0547 0.35945 2.3438c-0.24642 1.2891-0.60978 2.3438-0.80749 2.3438-0.1977 0-0.35946-1.0547-0.35946-2.3438zm-264.38 66.149c0-2.1734-1.4349-3.2373-3.3666-2.4961-1.0956 0.42041-1.181 0.95053-0.39087 2.4268 1.2891 2.4088 3.7574 2.4543 3.7574 0.0693zm1.5627-29.737c-0.65961-24.895-0.56038-24.082-2.8347-23.209-1.3706 0.52597-1.5404 3.1116-1.5404 23.46v22.868h4.9878l-0.61257-23.119zm-59.859-22.036c-1.1947-0.91486-2.8394-1.4595-3.6549-1.2103-2.9337 0.89658-7.8487-3.5405-8.394-7.5777-0.27589-2.0427-0.82813-4.2414-1.2272-4.8859-0.40652-0.65656-0.289-1.1719 0.26724-1.1719 0.54639 0 0.9832-1.7916 0.97143-3.9844l-0.0214-3.9844-8.1817-3.4813c-4.4999-1.9147-8.9326-3.7577-9.8503-4.0954-1.5549-0.57226-1.6507 0.23499-1.4062 11.844l0.26236 12.458 16.406 7.685 16.406 7.685 0.29722-3.8083c0.24062-3.0831-0.11642-4.1251-1.875-5.4717zm45.172-1.3522c0-0.27152-1.0547-1.8764-2.3438-3.5665s-2.3438-3.7492-2.3438-4.576c0-1.1523-1.1487-1.5693-4.9219-1.7865l-4.9219-0.28337-0.29097-3.5156-0.29096-3.5156h5.2286c4.9411 0 5.4469-0.22494 9.1972-4.0901 2.1827-2.2495 4.4446-4.2534 5.0265-4.4531 0.58182-0.19969 1.3606-1.7661 1.7307-3.4809l0.67284-3.1178-4.0744 0.58626c-2.241 0.32244-12.194 0.67078-22.118 0.77408-9.9238 0.1033-18.065 0.39876-18.092 0.65657-0.15736 1.5303-0.43317 31.088-0.29143 31.232 0.42512 0.42988 37.833-0.42368 37.833-0.86325zm340.31-13.494v-14.062l-26.484 0.0128c-31.984 0.01546-30.703-0.21894-30.703 5.6196v4.4762l9.6094 3.409c5.2852 1.8749 16.951 5.7116 25.924 8.526s16.532 5.334 16.797 5.5992c0.26521 0.26523 1.4666 0.48223 2.6697 0.48223h2.1875v-14.062zm-381.09-2.499c0-11.663-0.29696-15.722-1.1719-16.015-0.90709-0.30383-1.1719 3.2263-1.1719 15.623 0 12.188 0.28007 16.015 1.1719 16.015 0.89058-7.1e-4 1.1719-3.7509 1.1719-15.623zm101.51-0.54783 0.25705-15.703l-26.038 0.15281c-14.321 0.08405-23.722 0.40045-20.89 0.70312 4.167 0.44544 5.2157 0.90765 5.5026 2.4253 0.95803 5.067 7.563 10.781 12.462 10.781h4.6568l-0.29096 3.5156c-0.27258 3.2934-0.50369 3.5334-3.6557 3.7976-2.772 0.23229-3.6296 0.83749-4.8685 3.4355-0.8271 1.7345-2.3326 3.4166-3.3456 3.7381-7.6361 2.4236-2.6598 3.3604 16.523 3.1103l19.431-0.25333 0.25704-15.703zm-106.66-2.1647c0-9.6506-0.35051-15.413-0.9375-15.413-0.52906 0-0.95227 2.757-0.9714 6.3281-0.01865 3.4805-0.27565 10.017-0.57114 14.526-0.55435 8.4588-0.10188 11.569 1.5359 10.556 0.57189-0.35345 0.94412-6.6605 0.94412-15.997zm-4.6875 7.7428c0-6.336-0.90978-9.0938-3-9.0938-1.3002 0-0.89292 14.786 0.42188 15.317 2.3801 0.96042 2.5781 0.48255 2.5781-6.2229zm63.75 5.9062c0-0.51562-0.52734-0.94326-1.1719-0.9503-0.64453-8e-3 -2.1211-0.26718-3.2812-0.5781-1.2044-0.32276-2.1094-0.14414-2.1094 0.41636 0 0.87312 1.8639 1.5377 5.3906 1.9219 0.64454 0.0702 1.1719-0.2942 1.1719-0.80983zm10.816-1.1982c4.4056-3.7895 2.8505-12.227-2.3784-12.904-9.4202-1.2208-11.827 11.083-2.8125 14.378 2.2995 0.84058 2.5994 0.75543 5.1909-1.4736zm-7.0659-1.6143c-2.1635-2.1635-2.3905-4.0301-0.6645-5.4625 0.90124-0.74796 1.5175-0.51313 2.4119 0.91911 0.88963 1.4245 1.9136 1.8192 3.9457 1.521 3.1698-0.46522 3.6211 1.0009 1.0299 3.3459-2.2784 2.0619-4.4418 1.9578-6.7231-0.32345zm-6.164-2.5781c-0.30085-1.5759 0.21565-3.9448 1.3286-6.0938l1.8208-3.5156h-2.8854c-6.2108 0-10.007 7.6776-4.4043 8.908 1.5514 0.34073 2.6034 0.97103 2.3379 1.4007-0.39882 0.64529 0.16097 1.1302 2.0836 1.8048 0.11601 0.04069-0.0105-1.0861-0.28122-2.5041zm258.09-5.625c-0.2148-1.418-0.39055-0.25781-0.39055 2.5781 0 2.8359 0.17575 3.9961 0.39055 2.5781 0.21481-1.418 0.21481-3.7383 0-5.1562zm-392.55-31.359c0-22.655-0.3203-34.555-0.9141-33.961-1.475 1.475-1.7273 68.837-0.25777 68.836 0.91649-3.1e-4 1.1719-7.6006 1.1719-34.875zm30.751 28.408c0.36518-7.748 0.60026-7.6036-13.018-7.9945-13.601-0.39046-12.964-0.30361-11.171-1.5225 0.89405-0.60755 5.6226-0.73006 12.982-0.33636 10.99 0.58791 11.559 0.53022 11.239-1.1394-0.37598-1.9656-5.5162-2.7738-20.804-3.2711l-8.3016-0.27002 0.017726 9.3287c0.00975 5.1308 0.054051 9.8472 0.09845 10.481 0.060776 0.86752 3.6135 1.0992 14.378 0.9375l14.297-0.21475 0.28272-5.9985zm-16.22-1.9702c-0.36783-0.59516 2.1593-0.9375 6.9206-0.9375 4.125 0 7.7607 0.42188 8.0794 0.9375 0.36783 0.59516-2.1593 0.9375-6.9206 0.9375-4.125 0-7.7607-0.42188-8.0794-0.9375zm322.03 3.3884 52.969-1.0446 0.28828-3.9844 0.28828-3.9844-10.601-1.59e-4c-9.3874-1.42e-4 -36.495 0.3972-157.32 2.306-17.273 0.27288-32.145 0.49852-33.047 0.50142-1.3236 0.0042-1.6406 0.83734-1.6406 4.3116v4.3064l48.047-0.68362c26.426-0.37599 71.883-1.1537 101.02-1.7283zm57.188-5.7321c0-1.8047-0.42188-3.2812-0.9375-3.2812-0.51563 0-0.9375 1.4766-0.9375 3.2812 0 1.8047 0.42187 3.2812 0.9375 3.2812 0.51562 0 0.9375-1.4766 0.9375-3.2812zm-320.81-4.3108-0.27911-5.717-7.6511-3.0826-7.6511-3.0826-0.38955 4.8153c-0.47124 5.825-0.137 6.2255 8.1917 9.8167 8.5364 3.6807 8.1006 3.8348 7.7791-2.7498zm67.69 1.967c0-2.7147-0.14901-2.8125-4.284-2.8125-7.256 0-4.8157 5.1067 2.6433 5.5316 1.2187 0.06942 1.6406-0.62988 1.6406-2.719zm67.5-2.8332c5.4141-0.46948 16.383-1.4994 24.375-2.2887s16.641-1.3865 19.219-1.327l4.6875 0.10805-4.2188 0.78408c-2.3203 0.43125-10.547 1.3306-18.281 1.9985l-14.062 1.2145 27.595 0.24881c17.409 0.15696 27.94-0.09577 28.528-0.68466 0.60317-0.60317 10.079-0.72629 26.78-0.34795 27.465 0.62219 59.644-0.49934 47.878-1.6687-3.3516-0.33307-1.4531-0.38863 4.2188-0.12347 22.651 1.0589 180.47-0.28348 180.47-1.5351-3e-5 -0.54029-76.16-1.2866-147.38-1.4441-18.069-0.03997-31.243-0.42127-30.773-0.8907 1.7633-1.7618 19.752-2.0809 52.524-0.93183 56.159 1.9691 68.089 2.229 65.625 1.4294-1.2906-0.4189 10.083-0.6975 25.312-0.62003 33.089 0.16832 45.938-0.25838 45.938-1.5256 0-0.60362-5.2226-0.74286-14.766-0.39366-34.496 1.2623-41.874 1.3757-40.078 0.61631 1.0312-0.43619 8.625-1.065 16.875-1.3972 30.749-1.2385 37.969-1.7482 37.969-2.6803 0-0.62351-9.2722-0.73544-27.422-0.33103-15.082 0.33606-58.641 1.0105-96.797 1.4989-107.12 1.3709-141.44 2.0458-142.97 2.8112-0.77344 0.38711-12.375 0.94658-25.781 1.2433-13.814 0.30573-23.36 0.19397-22.031-0.25795 1.5379-0.52324-1.9271-0.82953-10.078-0.89085-7.7186-0.05807-12.422 0.26152-12.422 0.84405 0 0.51562-1.3711 1.0201-3.0469 1.121-1.6758 0.10093 1.3828 0.41734 6.7969 0.70312l9.8438 0.51961-14.062 1.2191c-18.978 1.6452-21.094 2.0181-21.094 3.7173 0 1.1736 0.92124 1.3044 5.3906 0.7654 2.9648-0.35756 9.8203-1.0342 15.234-1.5037zm51.562-2.7918c1.2891-0.41283 5.2969-0.73325 8.9062-0.71205l6.5625 0.03855-5.1562 0.71279c-7.2512 1.0024-13.491 0.97861-10.312-0.03928zm74.766 0.2423c-3.669-0.19016-6.3281-0.74985-6.3281-1.332 0-0.58369 0.88308-0.76735 2.1094-0.43872 1.1602 0.31091 4.5601 0.57105 7.5553 0.57809 3.389 8e-3 5.2271 0.3669 4.8665 0.9503-0.31867 0.51562-0.87092 0.85487-1.2272 0.75388s-3.4954-0.3312-6.9759-0.51158zm-48.515-2.4973c-9.4e-4 -0.89775 40.24-0.0042 41.158 0.91388 0.28491 0.28491-8.8588 0.38683-20.319 0.22647-11.599-0.16229-20.838-0.66787-20.838-1.1403zm58.124-0.66606c3.8998-0.77711 10.073-0.4435 11.117 0.6008 0.24492 0.24491-3.1055 0.39907-7.4453 0.34258-7.3-0.09503-7.5748-0.16564-3.6719-0.94338zm122.59-0.55446c1.1662-0.22424 2.8537-0.21573 3.75 0.01892 0.89633 0.23465-0.0579 0.41812-2.1203 0.40772-2.0625-0.01041-2.7959-0.20239-1.6297-0.42664zm-412.93-5.9667c-0.41469-0.40232-3.918-1.9844-7.7852-3.5156l-7.0312-2.7841-0.29702 3.4179c-0.61149 7.0365-2.1288 5.3913-3.2837-3.5604-0.23214-1.7994-14.946-7.7257-15.793-6.3608-0.77837 1.2545-0.13175 8.2712 0.85297 9.2559 0.40058 0.40058 8.1066 3.8455 17.125 7.6554l16.396 6.9271 0.28524-5.1519c0.15688-2.8336-0.05406-5.4811-0.46875-5.8834zm142.97 6.1667c10.258-0.87187 10.376-1.2529 0.41443-1.3379l-8.6719-0.074013 0.10875 2.5781c0.0608 1.4397 0.2917 1.8867 0.52307 1.0124 0.3224-1.2184 2.0142-1.7017 7.6256-2.1786zm-41.148-0.10112c0.21484-0.20531-15.711-0.37329-35.391-0.37329-23.233 0-35.781 0.32882-35.781 0.93767 0 0.89135 70.231 0.33443 71.172-0.56438zm-124.61-0.7283c0-2.6194-18.191-6.1594-24.515-4.7705-1.6504 0.36248-2.6726 0.19994-2.6726-0.425 0-0.63404 2.7135-1.026 7.2656-1.0495 8.9067-0.04601 5.9142-2.9157-3.2614-3.1275-4.3012-0.099296-4.9719-0.35493-4.6071-1.7559 0.23482-0.90183 0.044668-1.8759-0.42255-2.1647-0.47879-0.29591-0.84949 2.5417-0.84949 6.5028v7.0278l4.6336-0.22571c2.5485-0.12414 7.9274 0.04957 11.953 0.38602 12.023 1.0048 12.476 0.99041 12.476-0.39781zm138.05 0.60607c-2.1914-0.19738-5.7773-0.19738-7.9688 0-2.1914 0.19738-0.39843 0.35887 3.9844 0.35887s6.1758-0.16149 3.9844-0.35887zm14.766-0.22349c0-0.53092-1.6596-0.68314-3.9844-0.36546-5.4665 0.74701-5.6283 1.2754-0.39062 1.2754 2.4062 0 4.375-0.40947 4.375-0.90993zm-21.094-3.3102c44.344-0.3066 85.055-0.73021 90.469-0.94136s34.312-0.62167 64.219-0.91225c29.906-0.29059 61.336-0.72029 69.844-0.95491 8.5078-0.23461 39.305-0.6513 68.438-0.92598s60.773-0.76126 70.312-1.0813l17.344-0.58188-7.5-2.2373c-7.3571-2.1947-8.0269-2.2282-35.156-1.7579-15.211 0.26368-48.961 0.69441-75 0.95719s-59.156 0.69791-73.594 0.96697c-58.947 1.0985-170.51 2.4585-226.88 2.7655-33 0.17975-61.009 0.71031-62.241 1.179-3.8262 1.4548 6.3672 4.7674 13.491 4.3843 3.0938-0.16637 41.906-0.55334 86.25-0.85994zm-58.594-6.5786c63.623-0.44615 171.24-1.5596 177.66-1.8381 3.0938-0.13423 49.078-0.76138 102.19-1.3936 53.109-0.63227 105.42-1.4255 116.24-1.7627l19.682-0.61311-9.26-2.6683-9.26-2.6683-39.484 0.56722c-21.716 0.31197-54.039 0.77606-71.828 1.0313-58.901 0.84514-96.511 1.4692-142.97 2.3721-25.266 0.49104-74.836 1.1166-110.16 1.3902s-71.128 0.7437-79.573 1.0448l-15.354 0.54738 6.4476 2.6938c4.7307 1.9765 7.3214 2.5477 9.7289 2.1451 1.8047-0.30177 22.477-0.68328 45.938-0.8478zm-87.843-10.857c-0.4194-0.4194-3.8185-2.0227-7.5536-3.563l-6.7911-2.8004 0.020677 5.3375 0.020677 5.3375 7.2449 2.8125 7.2449 2.8125 0.28801-4.587c0.15841-2.5228-0.05513-4.9301-0.47453-5.3495zm111.75 3.3553c35.062-0.22122 70.5-0.61305 78.75-0.87073s30.398-0.69647 49.219-0.97508c18.82-0.27862 45.609-0.7053 59.531-0.94818 30.008-0.52352 73.671-1.1706 133.87-1.984 24.127-0.32599 43.702-0.7581 43.5-0.96024-0.20213-0.20214-4.1223-1.4605-8.7116-2.7963l-8.344-2.4288-44.062 0.5911c-24.234 0.3251-50.18 0.78285-57.656 1.0172-7.4766 0.23436-32.156 0.65441-54.844 0.93344-22.688 0.27902-48.211 0.70255-56.719 0.94117s-33.82 0.66424-56.25 0.94583-44.367 0.69684-48.75 0.92277c-4.3828 0.22594-32.227 0.68841-61.875 1.0277-29.648 0.33931-57.492 0.88092-61.875 1.2036l-7.9688 0.58664 5.1562 2.1097c4.7985 1.9633 6.132 2.0742 19.219 1.598 7.7344-0.28144 42.75-0.69271 77.812-0.91393zm-11.25-6.5253c22.172-0.34788 42-0.77564 44.062-0.95058 2.0625-0.17494 21.891-0.57037 44.062-0.87874 22.172-0.30837 47.062-0.76144 55.312-1.0068 8.25-0.24538 31.664-0.68164 52.031-0.96945s59.812-0.91907 87.656-1.4028 54.844-0.91366 60-0.9554l9.375-0.07588-7.5-2.2863c-7.2083-2.1974-8.2657-2.2673-27.188-1.7985-10.828 0.2683-47.953 0.89925-82.5 1.4021s-72.094 1.1312-83.438 1.3963c-11.344 0.26512-55.852 0.89905-98.906 1.4087-43.055 0.50969-87.352 1.1324-98.438 1.3837-11.086 0.25137-30.07 0.48193-42.188 0.51235l-22.031 0.05532 5.9447 2.5655 5.9447 2.5655 28.743-0.16631c15.809-0.09147 46.883-0.45094 69.055-0.79882zm20.156-8.466c18.305-0.25778 45.938-0.67495 61.406-0.92706s43.734-0.67548 62.812-0.94083 42.281-0.68418 51.562-0.93074c9.2812-0.24655 37.336-0.66878 62.344-0.93829s52.283-0.73996 60.612-1.0454l15.143-0.55542 0.44756-2.3413c1.0488-5.4866 1.0794-5.4766-16.49-5.4113-8.8656 0.03298-17.385-0.22557-18.932-0.57455-1.5469-0.34898 5.7305-0.68443 16.172-0.74544l18.984-0.11092v-7.772l-13.594 0.62494c-7.6003 0.3494-13.594 0.26395-13.594-0.19382 0-0.8874 11.903-2.0195 21.328-2.0286 5.9736-0.0057 7.783-1.1945 3.467-2.2778-1.3158-0.33025-13.214-0.81284-26.44-1.0724-13.226-0.25958-24.278-0.71493-24.561-1.0119s11.404-0.37083 25.971-0.16414c14.566 0.20669 26.484 0.13663 26.484-0.15568 0-6.0355-6.345-7.6472-27.922-7.0925-10.682 0.27462-54.226 0.72671-96.766 1.0046s-84.094 0.692-92.344 0.92017-60.761 0.67529-116.69 0.99361c-113.7 0.64711-104.92 0.03259-109.77 7.6794-4.7862 7.5471-4.1623 8.6495 4.9753 8.7896l7.7344 0.11859-6.5625 0.80904c-11.596 1.4296-10.781 0.7192-10.781 9.4023v7.6003l50.859-0.59199c27.973-0.32559 65.836-0.80289 84.141-1.0607zm11.719-4.251c-8.25-0.3527-22.383-0.76717-31.406-0.92105-10.691-0.18231-14.61-0.48507-11.25-0.8691 10.976-1.2546 80.781 0.7381 82.395 2.3521 0.54855 0.54856-20.837 0.24616-39.738-0.56191zm-82.969-1.8914c-1.6054-0.47395-0.35008-0.72139 3.9844-0.7854 3.4986-0.05167 6.3281 0.31044 6.3281 0.80983 0 1.0298-6.7961 1.0137-10.312-0.02443zm13.359 0.34991c0.90234-0.23581 2.3789-0.23581 3.2812 0s0.16406 0.42874-1.6406 0.42874c-1.8047 0-2.543-0.19293-1.6406-0.42874zm-68.349-2.635c0.19571-0.57212 3.9007-0.80078 9.5062-0.5867 13.964 0.53331 15.281 1.573 1.9587 1.5471-7.4362-0.014461-11.667-0.36891-11.465-0.96042zm26.18 0.75657c0.91216-0.2377 2.1778-0.22206 2.8125 0.03473 0.63472 0.25681-0.11159 0.45129-1.6585 0.43218-1.5469-0.0191-2.0662-0.22922-1.154-0.46691zm73.342-4.1451c-14.366-0.73556-13.811-0.65801-13.088-1.8279 0.42038-0.6802-1.8741-0.93779-7.2103-0.80946-7.6102 0.18303-8.7658-0.09262-8.1316-1.9396 0.39611-1.1537 10.867-2.686 23.273-3.4058 5.4141-0.31413 10.116-1.0022 10.45-1.5289 0.78236-1.237 54.948-1.123 74.863 0.15754 7.9922 0.51392 23.391 1.1667 34.219 1.4507 32.658 0.85637 46.387 1.597 46.966 2.5334 0.34148 0.55253-3.657 0.70089-10.552 0.39152-6.106-0.27397-18.696-0.72915-27.977-1.0115-20.332-0.61856-36.445-1.254-47.812-1.8855-31.347-1.7414-78.749-1.3083-60 0.54821 3.8364 0.37988 1.0045 0.62428-8.9062 0.76862-7.9922 0.1164-16.219 0.54569-18.281 0.954-2.2498 0.44538 0.65686 0.55556 7.2656 0.27541 7.9399-0.33658 11.016-0.1663 11.016 0.60986 0 0.69669-2.2339 1.1044-6.3281 1.1549-14.136 0.17452-14.906 1.3818-1.4681 2.3035 10.591 0.72636 60.141-0.0592 68.265-1.0823 3.6784-0.46323 4.4548-0.34311 3.6066 0.55798-2.1434 2.277-41.173 3.2701-70.169 1.7854zm257.81-1.8102c-12.375-0.91184-26.93-1.9346-32.344-2.2727s-17.142-1.2212-26.063-1.9624c-8.9203-0.74114-18.834-1.3772-22.031-1.4134-3.1968-0.03624-6.6562-0.45742-7.6875-0.93595-1.806-0.83801 18.179-0.41893 25.781 0.54063 1.8047 0.2278 14.039 1.0805 27.188 1.8949 30.114 1.8653 67.611 4.9275 68.258 5.5743 0.77676 0.77676-8.8285 0.36315-33.102-1.4254zm-362.74-4.531c-0.54194-0.87687 9.1227-1.9646 17.742-1.9968 3.8389-0.01434 5.1871-0.29795 4.2459-0.89319-2.3076-1.4593-0.73069-1.9062 9.9099-2.8082 14.41-1.2215 40.314-2.1672 39.592-1.4453-0.33226 0.33226-8.3428 0.9705-17.801 1.4183-20.498 0.97051-29.853 1.8605-29.853 2.8403 0 0.39615 0.84375 0.49962 1.875 0.22994 1.0312-0.26968 1.875-0.05711 1.875 0.47236 0 0.54227-3.5824 1.2089-8.2031 1.5265-4.5117 0.3101-10.609 0.76133-13.55 1.0027-2.9408 0.2414-5.5655 0.08543-5.8325-0.34661zm260.09-2.9475l-7.0312-0.62059 8.6886-0.03146c4.7787-0.01731 8.9169 0.33796 9.196 0.78949 0.27905 0.45152-0.46674 0.74495-1.6573 0.65206-1.1906-0.0929-5.3288-0.44817-9.196-0.78949zm-185.1-4.6278c0.63467-0.63658 10.149-1.1398 26.25-1.3885 23.881-0.36886 24.286-0.34794 7.442 0.38461-9.7969 0.42608-21.609 1.0509-26.25 1.3885-5.9676 0.43416-8.1461 0.32158-7.442-0.38461zm-76.917-0.50753 1.7851-2.8125-2.0673 1.7812c-2.2614 1.9483-4.2637 7.7488-3.2383 9.3809 0.35435 0.56401 0.88977-0.45108 1.1898-2.2558 0.30004-1.8047 1.3488-4.5469 2.3307-6.0938z"/>
</svg>
