<?xml version="1.0" encoding="UTF-8"?>
<svg width="701.91" height="204.95" version="1.1" viewBox="0 0 701.91003 204.94661" xmlns="http://www.w3.org/2000/svg">
 <path d="m111.55 203.92c-0.16879-0.12612-8.1327-0.67851-17.698-1.2276-28.321-1.6257-50.687-12.018-70.959-32.97-17.304-17.885-23.325-30.344-22.874-47.331 0.37906-14.268 5.8771-31.955 13.277-42.71 15.334-22.287 54.794-48.217 80.802-53.096 8.0873-1.5172 15.582 1.9596 24.929 11.565 13.482 13.854 30.283 45.492 36.386 68.52 3.6262 13.681 7.168 15.914 9.0797 5.7236 4.046-21.567-6.9922-61.83-22.642-82.59-2.459-3.2619-4.0465-7.0368-3.5278-8.3886 1.0358-2.6993 36.789-9.5724 60.001-11.535 11.121-0.94008 15-0.54961 20.098 2.0235 19.872 10.029 36.709 39.651 42.956 75.577 3.5177 20.228 4.227 22.393 7.3365 22.393 3.7255 0 5.1391-10.682 4.0807-30.837-0.7443-14.174-2.2386-21.3-7.5453-35.981-3.6395-10.068-9.1576-21.921-12.263-26.338-4.632-6.5904-5.2094-8.4317-3.217-10.257 2.6054-2.3869 57.811-6.5148 86.354-6.4568 20.071 0.0408 24.139 2.1809 32.724 17.215 9.6998 16.987 13.769 29.783 17.039 53.583 3.6934 26.879 4.9197 32.186 7.6462 33.095 4.8143 1.6048 8.4945-11.032 9.3319-32.042 0.95722-24.018-1.3728-38.353-8.9504-55.065-2.9121-6.4224-4.7672-12.53-4.1226-13.573 1.3508-2.1856 44.139-0.74471 77.09 2.596 15.153 1.5362 21.943 3.0312 25.121 5.5312 10.654 8.3804 19.047 39.608 19.348 71.986 0.0749 8.0547 0.76818 16.262 1.5408 18.238 1.3169 3.368 1.6106 3.2787 4.6938-1.427 5.1146-7.8058 6.9177-41.178 3.5068-64.907-1.4868-10.344-2.1967-19.626-1.5775-20.628 1.7653-2.8564 37.932 2.9847 64.221 10.372 3.1167 0.8758 7.0996 0.30011 9.35 2.6274 3.3718 3.4869 2.3095 9.4221 3.4642 14.133 2.8872 11.779 3.376 19.698 2.9342 47.542-0.29152 18.375 0.12046 33.403 0.91531 33.396 3.0498-0.0264 10.28-13.28 12.731-23.337 1.4097-5.784 3.0144-21.637 3.5658-35.23s1.3293-25.761 1.7285-27.041c0.86019-2.7587 28.845 10.759 45.061 21.767 15.372 10.435 22.805 19.09 31.036 36.14 6.8823 14.257 7.388 16.388 7.3827 31.12-7e-3 19.768-2.7744 27.669-15.656 44.701-11.201 14.81-13.727 17.209-25.192 23.928-18.79 11.012-6.0852 10.575-289.96 9.9745-142.58-0.30139-259.38-0.65115-259.55-0.77726z"/>
</svg>
