<?xml version="1.0" encoding="UTF-8"?>
<svg enable-background="new 105.0633 -45.9383 2349.8733 1692.3453" version="1.1" viewBox="105.0633 -45.9383 2349.8733 1692.3453" xmlns="http://www.w3.org/2000/svg">
 <path d="m1222.8 661.06c-148.65-138.43-379.43-177.16-410.99 14.345-23.867 144.83 62.222 359.35 211.59 637.65h206.57c-23.493-218.39-25.393-435.7-7.1728-651.99z" fill="none"/>
 <path d="m680.39 646.35c-157.62-37.656-281.98 48.341-258.21 189.9 23.202 138.18 199.94 350.2 326 476.62h206.03c-60.788-86.609-150.04-205.69-206.03-346.98-37.355-94.261-71.547-202.27-67.781-319.54z" fill="none"/>
 <path d="m1745.7 675.4c-31.56-191.51-262.34-152.78-410.99-14.345 18.22 216.29 16.32 433.6-7.1729 651.99v1e-4h206.57c149.37-278.3 235.46-492.81 211.59-637.65z" fill="none"/>
 <path d="m1878.7 646.35c3.7656 117.27-30.426 225.28-67.781 319.54-55.99 141.28-145.25 260.37-206.03 346.98h206.03c126.06-126.42 302.79-338.44 326-476.62 23.769-141.55-100.6-227.55-258.21-189.9z" fill="none"/>
 <path d="m1219.8 653.77c-156.45-145.69-399.33-186.45-432.54 15.098-25.119 152.43 65.485 378.19 222.69 671.08v-1e-4h217.4c-24.725-229.84-26.725-458.54-7.549-686.18z" fill="none"/>
 <path d="m648.95 638.3c-165.88-39.631-296.77 50.876-271.75 199.85 24.418 145.43 210.42 368.57 343.09 501.61h216.84c-63.976-91.151-157.91-216.48-216.84-365.17-39.314-99.203-75.299-212.87-71.336-336.3z" fill="none"/>
 <path d="m1770.1 668.87c-33.215-201.55-276.1-160.79-432.54-15.098 19.176 227.64 17.176 456.34-7.549 686.18v1e-4h217.4c157.2-292.89 247.81-518.66 222.69-671.08z" fill="none"/>
 <path d="m1910.1 638.3c3.9631 123.42-32.021 237.09-71.335 336.3-58.926 148.69-152.86 274.02-216.84 365.17h216.84c132.67-133.05 318.67-356.19 343.09-501.61 25.015-148.98-105.87-239.48-271.75-199.85z" fill="none"/>
 <path d="m2363.3 588.22c-81.561-153.23-255.78-164.32-439.59-125.04-102.55-260.58-340.64-183.51-598.51-28.186l-4.4325-40.999h19.522c-19.004-55.507-29.738-113.08-32.211-170.92 57.84 2.4723 115.41 13.206 170.92 32.211v-116.34c-55.507 19.004-113.08 29.738-170.92 32.211 2.4722-57.84 13.206-115.41 32.211-170.92h-116.34c19.004 55.507 29.738 113.08 32.211 170.92-57.84-2.4723-115.41-13.206-170.92-32.211v116.34c55.507-19.004 113.08-29.738 170.92-32.211-2.4723 57.84-13.206 115.41-32.211 170.92h20.654l-5.1583 46.996c-259.08-155.25-494.83-244.73-604.51 20.99-160.2-32.932-313.05-28.186-394.61 57.572-159.27 167.47-29.986 480.37 179.31 710.66 112.17 123.42 270.67 265.95 338.24 370.02h1048.9c52.775-120.54 232.39-272 346.1-381.93 103.68-100.24 312.91-437.56 210.43-630.09zm-1676.2 783.52c-140.53-140.93-337.56-377.3-363.43-531.35-26.497-157.81 112.15-253.68 287.86-211.7-4.1979 130.74 33.92 251.15 75.564 356.23 62.419 157.5 161.92 290.26 229.69 386.81h-229.69zm306.85 0.1999v1e-4c-166.52-310.25-262.5-549.4-235.89-710.86 35.183-213.5 292.46-170.32 458.18-15.992-20.312 241.13-18.194 483.39 7.9965 726.85h-230.29zm339.04 3e-4v-2e-4c26.191-243.47 28.309-485.72 7.9963-726.85 165.72-154.33 423-197.51 458.18 15.992 26.608 161.46-69.367 400.61-235.89 710.86h-230.29zm902.31-531.55c-25.866 154.05-222.89 390.41-363.43 531.35h-229.69c67.767-96.554 167.27-229.31 229.69-386.81 41.644-105.08 79.762-225.49 75.564-356.23 175.72-41.98 314.36 53.891 287.86 211.7z"/>
</svg>
