<?xml version="1.0" encoding="UTF-8"?>
<svg enable-background="new 0 0 1137.425 1744.591" version="1.1" viewBox="0 0 1137.425 1744.591" xml:space="preserve" xmlns="http://www.w3.org/2000/svg">
	<path d="m483.98 1263.1v-1e-3c8.425 10.221 10.371 11.963 12.492 10.747 1.312 0.064 2.512-0.489 3.793-1.552 7.185-5.963 6.528-11.107-3.804-29.755-18.324-33.071-15.578-68.26 7.424-95.131 44.782-52.316 88.764-14.317 98.938-36.204 11.391-22.108-81.953-28.513-120.24 28.49-25.804 38.422-25.21 91.132 1.394 123.41z"/>
	<path d="m517.64 1037.4c7.947 5.205 9.294 5.054 16.724-1.867 3.576-3.331 9.5-11.181 7.643-17.446-0.119-4.646-10.926-15.706-26.464-15.706-34.103 0-38.188 57.65-21.173 93.455h-2e-3c3.687 7.754 4.857 10.27 8.05 9.578 4.874 1.774 9.54-3.157 10.414-5.541 4.731-4.738-9.79-52.611-6.164-62.063 2.108-5.501 3.144-5.539 10.972-0.41z"/>
	<path d="m536.53 1132.6c-1.229-1.875-4.618 0.341-6.389 1.74-4.724 2.359-9.902 6.474-9.902 8.957 0 2.037 17.853 31.129 39.675 64.649l2e-3 -1e-3c21.822 33.52 40.251 60.945 40.961 60.945 3.807 0 15.605-8.104 15.605-10.717 0-2.409-76.886-124.91-79.952-125.57z"/>
	<path d="m906.24 560.62l-2.295-2.536-1.008 0.947c-2.702-0.852-3.996 0.248-10.11 5.8-8.573 7.788-28.915 21.225-40.346 27.924l0.308 0.157-0.034 0.022c10.894 5.539 30.919 15.02 39.143 24.116l-5e-3 3e-3c5.302 5.863 9.663 8.25 13.783 7.243 3.453 0.129 8.474-6.425 9.077-8.604 1.155-0.805 1.653-0.529-0.02-2.774-1.063-3.858-5.837-8.362-18.314-21.387 2.471-2.579 14.849-15.349 17.016-18.114 0.847-0.18 1.216-0.742 1.13-1.61 3.266-5.445-1.819-8.468-8.325-11.187z"/>
	<path d="m608.06 787.88c-2.588-0.727-16.213 3.214-19.986 16.279-1.149 2.802-1.761 3.516-0.561 6.29 0.741 7.172 6.138 14.189 15.88 18.241l-2e-3 -1e-3c18.516 7.698 60.526-7.177 50.038-72.832-5.79-36.25-7.582-38.977-19.842-30.013-0.042 0.031-0.217 0.162-0.216 0.161-12.439 9.107 6.911 26.075-1.449 64.698-7.182 25.054-15.252-3.071-23.862-2.823z"/>
	<path d="m547.32 1503.2c15.795-19.201 14.271-18.086 21.931-23.749 0.186 0.177 10.306 11.179 10.48 11.368 11.193 12.16 11.972 12.428 16.839 5.771 12.565-17.184-2.182-12.428-27.584-61.934-26.952 52.67-37.802 45.503-27.642 60.01v1e-3l5.976 8.533z"/>
	<path d="m648.95 678.84c-42.043 37.982-74.088 26.681-111.2 29.886-8.143-1.461-10.638-2.232-11.565 4.303-6.032 10.855 2.754 14.808 14.412 16.469v-1e-3c59.704 8.501 110.37-14.789 142.22-55.48-19.289-8.789-16.751-10.642-33.869 4.823z"/>
	<path d="m641.12 1301.1c-4.347-10.654-4.426-10.677-12.898-3.817-9.447 7.647-7.154 9.355-2.766 23.918 0.898 3.868 8.933 43.046 3.617 46.312-1.139-0.178-2.77-1.048-5.007-2.245-2.779-1.487-5.544-2.352-8.204-2.698-4.549-1.948-6.345-1.014-7.831 0.1-7.918 0.912-20.17 15.192-8.07 28.562l2e-3 1e-3c8.004 8.842 26.526 9.463 37.803 1.564 21.907-15.345 13.533-66.751 3.354-91.697z"/>
	<path d="m843.95 517.44l-2e-3 1e-3c11.393 7.218 29.692 6.955 34.936 1.712 3.692-3.69-19.864-19.855-38.452-26.39-38.467-13.523-79.921-1.113-85.138-0.265l0.88 0.311-4.581 1.396c48.955 14.217 76.065 12.912 92.357 23.235z"/>
	<path d="m494.78 1528c2.287 0.071 17.803 0.335 18.043-2.027 1.38-5.725-7.792-16.466-16.775-16.466-36.218 0 63.532-46.412 53.331-56.744-2.332-7.381-59.34 20.553-66.046 25.2-18.098 12.541-24.775 29.097-16.706 41.411 4.825 7.362 8.822 8.845 28.153 8.626z"/>
	<path d="m538.06 1610.2c18.297 17.303 20.671 18.547 22.989 12.038 3.442-9.661 0.894-16.164-11.544-29.468-34.233-36.614-11.951-64.935-31.673-60.744-3.444-0.485-12.399 5.827-12.399 14.788 0 19.495 13.073 44.892 32.627 63.386z"/>
	<path d="m492.45 1465.7c6.813-16.667 9.292-18.748 1.836-33.692-12.22-24.49-18.663-97.462-24.072-80.15-3.787 6.026-16.24 72.212 14.276 105.23l-2e-3 1e-3 7.962 8.613z"/>
	<path d="m942.5 647.91c-0.022-0.117-0.042-0.211-0.374-0.2-5.442-2.678-20.305 9.731-16.64 21.284 0.525 1.655 0.882 3.035 1.083 4.154-0.681 1.94-1.772 2.748-3.273 2.425-13.093-10.153-44.902-66.832-50.868-62.878l-4.132-4.526c4.521 15.573 13.607 66.307 41.833 83.517v2e-3c42.96 26.189 40.312-38.872 32.371-43.778z"/>
	<path d="m928.8 540.95c-7.861-5.995-11.15-8.368-13.647-7.771l-1.935-1.217-1.129 3.559c-14.048 16.921-1.901 14.682 9.961 26.687 29.489 32.104-6.995 64.903-11.002 70.938-1.653-1.529-2.32 0.311-1.984 3.604-1.083 2.617-1.023 4.723-0.05 6.844 0.242 1.785 1.023 3.354 2.359 4.69l2e-3 -1e-3c15.089 15.096 77.776-61.3 17.425-107.33z"/>
	<path d="m949.65 543.16c-1.328 6.57 4.854 7.66 11.209 7.66 36.191 0 54.63 36.513 74.935 36.863 10.152 0.152 10.208 0.027 4.723-10.58-18.693-36.147-90.216-63.686-90.867-33.943z"/>
	<path d="m1029 595.46c-1.331-0.633-2.801 0.013-4.029 0.837-3.794 1.236-6.299 3.639-8.478 7.711-5.904 11.029-30.055 24.789-52.455 29.886-12.277 2.794-16.711 2.375-15.255 7.498 0.015 1.246 0.472 2.77 1.2 4.732l2e-3 -1e-3c6.935 18.688 52.814 3.568 80.138-26.193 11.225-12.227 4.978-6.899 16.882-18.804l-1.735-0.464c2.725-5.304-10.508-5.87-16.27-5.202z"/>
	<path d="m770.43 617.74c-3.637 3.097-5.457 6.393-5.466 10.008-1.617 5.065 1.953 8.399 14.69 21.956-0.397 0.565-0.843 1.108-1.335 1.63-8.413 3.198-12.855 5.253-21.541 6.246-58.374 4.414-172.48-69.366-173.48-71.098 46.792-81.534 83.267-147.15 67.881-198.96-12.894-43.422-57.064-39.678-63.852-13.725-0.715 0.214-0.829 1.133-0.444 2.481-0.701 7.621 4.754 14.548 15.895 18.785 9.102 3.46 10.661 2.884 14.4-5.321 5.898-12.947 9.245-10.458 13.747 2.454 1.45 4.157 1.431 0.865 1.739 40.488-6.095 29.477-60.012 135.54-67.301 143.07-0.721 0.144-1.635 0.159-2.683 0.06-6.755-3.13-27.733-13.998-51.703-26.831-225.3-120.61-191.74 59.311-145.72 18.039 15.758-14.089-1.827-27.285-4.081-27.33-0.635-0.501-1.172-0.96-1.614-1.385-0.58-1.287-0.817-2.46-0.699-3.527 14.852-12.127 42.84-9.013 61.255-3.558 27.785 9.113 122.02 53.776 129.18 61.989 3.052 3.724 0.181 10.979-12.901 33.327-16.814 28.724-65.894 123.87-53.856 164.07 5.192 17.325 17.157 33.504 28.027 37.896v3e-3c12.497 5.049 19.121 4.142 29.527-4.044 20.46-16.093 2.572-35.492-6.984-36.337-6.281-2.317-18.317 10.367-23.128 14.888-3.528-5.825-7.152-15.574-7.993-25.719-2.961-42.133 53.632-143.15 70.352-170.44 14.784 4.515 108.78 70.877 171.82 71.134 98.079 0.427 58.415-93.922 26.265-60.253z"/>
	<path d="m384.05 692.84c5.476-3.384-38.823-16.129-56.296-16.203-25.971-0.099-44.252-21.771-61.145-14.079-7.325 3.338-8.267 5.193-4.775 9.401 5.442 6.556 30.838 19.756 45.565 23.683l-2e-3 -1e-3c12.613 3.364 70.076 1.263 76.653-2.801z"/>
	<path d="m222.49 616.98c0.367 0.698 0.873 1.411 1.508 2.176v-2e-3c3.071 3.7 4.858 5.619 8.685 4.739 4.762 1.928 7-1.364 10.448-5.221 16.491-10.27 22.318-15.719 41.144-26.47-16.293-8.339-28.454-18.481-42.143-26.216-7.311-5.531-9.697-6.248-13.158-3.475-0.992 0.363-1.943 0.926-2.95 1.663-5.852 4.281-6.05 5.76-1.538 11.506 12.465 15.877 20.467 10.916 5.537 26.544-9.203 9.629-10.833 11.623-7.533 14.756z"/>
	<path d="m219.93 489.49c-1.56-2.148-5.698-1.447-8.958-1.479-15.463-0.17-20.191 5.837-20.117 25.603 0.046 13.68 1.443 21.221 4.434 22.921 1.759 3.225 3.365 1.86 9.097-5.393 4.779-5.821 8.622-13.112 8.622-15.991 0-20.855 24.041 29.929 40.231 47.695v1e-3c36.807 40.402-5.736-49.547-9.749-54.229-9.245-10.788-16.262-16.637-23.56-19.128z"/>
	<path d="m252.59 655.77c21.619-43.433 24.996-74.719-25.258 3.302-2.379 3.694-12.454 18.364-15.932 17.037-4.143-4.842 6.388-13.416-4.285-20.538-3.23-3.256-3.291-1.98-16.321-8.718 0 33.722-0.965 39.813 8.084 46.149h-2e-3c22.515 15.77 42.265-12.04 53.714-37.232z"/>
	<path d="m175.85 550.8c4.901-0.05 7.762-0.362 9.3-1.431 3.558-1.045 3.693-3.165 1.607-8.731-7.659-20.432-68.682-4.527-91.325 38.644l-5.425 8.551c42.049 0 34.819-29.614 85.843-37.033z"/>
	<path d="m471.87 876.07c4.845 9.498 7.966 14.171 10.814 14.586l1.333 2.193 1.903-3.556c1.309-1.274 2.678-3.401 4.246-6.332 3.608-6.738 3.439-10.948-0.856-21.285-6.132-14.761-10.449-48.457-13.702-64.946-5.031-27.414-7.256-18.494-10.877-5.315-6.293 22.91-2.714 65.336 7.14 84.654l-1e-3 1e-3z"/>
	<path d="m645.88 1465c1.133-0.074 7.057-7.986 13.166-17.583 7.915-12.437 10.207-17.453 10.831-33.785 4.622-28.02-2.612-60.085-5.067-62.578l-1.511-6.222-0.733 4.119-0.128-0.42c-13.513 92.956-29.534 86.415-22.297 106.42h-2e-3c2.022 5.599 4.608 10.119 5.741 10.044z"/>
	<path d="m579.03 117.74c-10.642 0-5.662 21.103 5.433 29.829 12.587 9.897 24.615 36.164 24.615 53.753h-2e-3c0 12.729-0.23 13.872 9.102 10.406 1.269 0.136 2.625-0.368 4.035-1.538 10.965-4.387 11.602-13.393 2.902-38.923-8.057-23.655-38.887-53.527-46.085-53.527z"/>
	<path d="m559.27 117.73l-0.218-1.878-2.415 2.446c-11.133 5.223-44.555 32.455-49.833 70.918-2.162 15.776-1.622 17.498 6.462 20.55 11.753 4.437 14.375 2.305 14.411-11.75 0.034-11.619 14.389-39.225 21.209-46.371 2.972-3.115 5.365-5.873 7.247-8.397 8.114-6.189 9.485-25.399 3.137-25.518z"/>
	<path d="m468.85 407.74l0.684 4.261c13.79-45.48 14.975-78.822 25.237-98.944 10.401-20.389 1.755-19.415-1.059-30.591-0.861 1-4.854 5.688-8.83 9.423-25.559 24.008-24.345 97.316-16.032 115.85z"/>
	<path d="m459.57 512.7v1e-3c0.589 0.431 1.977 1.492 1.98 1.495h-2e-3c19.197 12.164 25.664-27.118 83.84-37.864 63.594-7.834 59.183 11.813 66.385-7.272 3.865-10.236 3.55-10.676-9.526-13.369-50.965-10.495-97.444 4.463-132.02 36.334-15.838 14.598-16.694 16.26-10.658 20.675z"/>
	<path d="m567.24 306c0.647 0.618 0.907 0.635 1.702-0.192 2.101-0.992 4.458-4.694 7.125-11.133 10.871-26.254 29.248-30.002 22.043-43.459-6.38-11.92-7.266-9.291-29.744 12.245-16.887-16.178-25.29-28.395-30.652-9.979-6.424 9.683 3.162 7.285 21.421 38.268 0.021 0.047 0.044 0.095 0.066 0.143h2e-3c5.516 12.232 6.223 13.624 8.037 14.107z"/>
	<path d="m598.25 584.13c6.829 0 70.063-34.219 70.063-37.916 0-1.81-1.777-6.608-3.946-10.664-3.845-7.182-4.498-7.067-24.987 4.376-25.505 14.246-30.228 18.24-38.832 32.849l2e-3 1e-3c-4.397 7.463-5.186 11.354-2.3 11.354z"/>
	<path d="m513.77 380.28c0.354 0.364 0.735 0.779 1.145 1.246 8.915 18.922 15.151 16.501 21.315 13.257 17.769-9.353 16.773-24.158 4.76-33.833-18.193-17.777-71.834-2.468-57.61 75.972 2.302 12.703 4.935 24.305 5.85 25.785h-2e-3c1.435 2.328 11.551-0.931 15.862-4.386 3.79-1.502 3.336-1.885 2.842-4.605 0.465-3.497-10.268-36.681-2.666-59.712 2.423-7.339 6.027-12.594 8.504-13.724z"/>
	<path d="m561.93 565.46c3.615 0.21-34.712-72.151-37.454-73.097-0.362-0.448-0.62-0.692-0.754-0.697-1.795-0.066-7.176 3.648-8.658 4.731-7.785 5.691-7.549 6.334 4.739 30.315 9.258 18.063 16.008 26.273 25.912 31.506h-4e-3c2.315 1.225 13.806 7.126 16.219 7.242z"/>
	<path d="m185.6 443.99c8.338 5.279 21.772 14.46 37.839 20.196v0.014c16.496 5.892 91.819 5.037 213.34 5.176l-4e-3 -4e-3 3.712 5e-3c-12.482-12.485-7.866-7.868-20.355-20.359-141.52-0.996-171.25-0.355-194.39-7.632-22.378-7.037-22.861-5.274-40.147 2.604z"/>
	<path d="m950.3 737.2c-0.294-0.136-46.652-21.537-46.946-21.674-54.542-0.548-202.95-3.36-201.63 0.971-1.676 1.125 10.033 14.167 14.471 15.915 18.275 7.894 168.92-0.66 196.41 10.879v-1e-3c22.557 9.467 17.444 9.483 37.689-6.09z"/>
	<path d="m928.69 487.99c-38.555-3.786-64.151 84.232-59.944 84.499l-0.126 0.427 0.64-0.473c3.259-0.631 13.226-7.56 17.967-12.959 3.295-3.752 8.884-12.651 12.422-19.777 6.453-12.998 19.808-29.614 23.795-29.611 1.169 1e-3 2.399 4.383 2.694 9.737 0.565 9.744 7.435 17.033 14.073 14.934 10.76-3.402 11.658-49.153-11.521-46.777z"/>
	<path d="m392.39 217.45c1.629 2.635 3.55 3.881 6.172 3.565 0.527 0.534 0.67 0.442 1.584-0.251 2.43 1.232 6.273 0.287 4.416-1.572-0.091-0.091-0.154-0.202-0.193-0.329 17.575-13.435 19.489-21.17 35.082-27.235 9.602-2.481 32.073-1.256 39.017 1.27 2.956 1.075 4.934 1.502 6.378 0.975l1.613 0.431c18.068-78.777 69.491-102.76 83.28-101.76 9.987 1.346 38.463 17.822 54.536 38.864 12.985 18.009 21.593 49.161 21.652 52.202 0.069 3.551 0.279 5.603 2.174 6.604 2.17 8.142 15.19-2.89 38.159-1.027 33.272 4.115 42.507 37.908 52.878 29.424 8.126-4.753 7.202-9.417 3.872-14.408-4.165-11.491-22.025-31.63-61.472-37.036-9.688-1.328-17.525-2.385-21.06-11.963-13.133-35.583-54.718-82.904-91.948-82.904-28.494 0-68.313 33.104-87.931 73.108-13.602 27.735-13.504 15.35-41.831 24.851-37.087 9.723-51.174 39.425-46.375 47.192l-3e-3 1e-3z"/>
	<path d="m644.21 488c-2.31 7.278 4.335 15.17 9.555 21.116 6.714 7.647 25.678 34.917 29.564 57.789 3.682 26.953-1.266 63.778 7.343 69.224l2e-3 -1e-3c8.839 5.592 10.463 4.265 14.934-12.205 19.304-71.119-51.476-167.19-61.398-135.92z"/>
	<path d="m838.91 629.74c-0.354 1.756 0.188 2.431 1.832 2.191 3.151 3.767 6.954 7.55 11.519 11.559l-2e-3 1e-3c38.819 34.089 2.086-24.892-4.275-41.718-2.276-8.941-2.439-12.863 10.953-41.463 7.127-15.22 12.956-28.623 12.956-29.789 1e-3 -9.192-78.694 42.742-32.983 99.219z"/>
	<path d="m153.75 651c35.051 10.665 35.569-9.191 32.998-11.985-0.522-2.008-2.275-2.89-5.393-3.039-17.252-6.567-36.979-6.216-55.449-26.546-3.272-3.613-6.643-7.293-9.412-9.612-2.721-6.318-22.734-3.049-24.247 0.313l-3.053 0.876c21.205 23.007 34.798 40.941 64.556 49.993z"/>
	<path d="m591.12 654.46l-2e-3 1e-3c19.439 36.707 21.531 38.843 33.309 33.979 9.719-4.013-13.049-47.502-32.793-61.056-1.353-1.082-17.483-11.769-17.291-9.241l-3.57-1.964c26.985 50.166 7.573 14.156 20.347 38.281z"/>
	<path d="m444.36 252.83c-18.119-34.433-19.941-39.736-23.936-36.619-0.627 0.18-1.225 0.79-1.876 1.758-10.4 8.122-5.638 18.255-1.571 30.028 15.559 45.045-2.464 186.34 15.125 202.73l2e-3 -2e-3c1.964 1.83 10.708 9.1 11.609 7.215 4.084 2.757 0.954-177.44 0.647-205.11z"/>
	<path d="m203.06 638.72c3.574 3.777-3.417-3.792 15.227 16.434 12.065-14.901 14.999-15.909 8.432-21.796-4.2-3.867-22.2-17.361-24.284-38.276 3.319-45.004 34.812-37.73 25.48-55.174-1.52-2.84-2.882-4.843-4.38-5.949 1.147-1.737-0.525-2.209-3.217-0.985-5.268 0.355-73.051 46.789-17.254 105.75l-4e-3 -1e-3z"/>
	<path d="m267.18 647.98l-2e-3 1e-3c-2.768 8.456 0.279 8.171 14.076-1.314 36.069-24.797 39.585-74.706 7.264-103.08-22.93-20.133-26.216-12.882-8.886 19.595 13.754 25.77 13.792 31.342 0.387 57.448-2.886 5.622-10.658 18.93-12.328 25.408v-2e-3c-0.109 0.424-0.392 1.587-0.511 1.949z"/>
	<path d="m525 286.33l-2e-3 -0.015c11.545 3.608 18.034 5.304 21.018 4.958 2.842 0.673 3.894 0.194 1.956-2.665-3.337-16.552-59.19-37.721-62.428-50.466 0.589-1.394 3.386-1.982 8.199-1.982 14.486 0 21.33-15.143 18.228-16.551-1.727-8.34-32.24-6.018-40.097-1.812-10.428 5.583-20.937 45.385 53.126 68.533z"/>
	<path d="m700.06 515.49c-3.421 2.636-0.404 5.575-8e-3 6.856 1.37 4.459 2.919 8.606 3.446 9.215s11.898-0.796 25.268-3.125c11.475-1.993 18.427-2.845 31.485-1.472 4.321 0.855 14.774 4.116 17.559 6.873-0.15 1.882-1.634 4.711-3.942 7.474-2.485 1.682-9.607 5.294-8.991 13.359l-0.691 0.821 0.791 0.842c0.404 3.641 3.199 7.162 5.699 9.923v-6e-3c17.204 19.01 42.741-4.597 32.669-31.883-12.864-39.975-96.554-28.152-103.28-18.877z"/>
	<path d="m437.97 671.16c2.114-0.96-1.221-9.015-2.162-11.079-2.83-6.208-4.522-8.044-8.997-7.097-4.012 0.469-34.643 11.192-63.919 0.061-2.379-1.759-3.713-2.917-3.93-4.144 4.463-7.181 21.865-15.757 7.081-32.091-7.498-8.287-15.535-8.594-26.365-1.008-6.314 4.424-8.226 9.431-8.226 21.564 0 14.853 6.436 26.408 23.417 34.15h7e-3c1.001 0.455 5.311 2.277 8.616 3.455l-2e-3 2e-3c15.105 5.388 18.579 8.195 65.99-1.648 6.165-0.755 8.046-1.165 8.49-2.165z"/>
	<path d="m1063.7 541.49c-41.346-46.393-68.188-35.74-69.561-55.639-0.63-11.908 0.631-31.864-21.326-54.915-3.696-4.555-7.562-8.277-11.326-10.799-9.355-7.839-13.735-7.338-19.346-0.578-1.779 2.144-2.448 3.953-1.521 6.382-0.474 1.954 0.368 3.605 2.351 4.149 7.906 10.75 27.859 18.881 28.575 51.759-0.193 26.302-9.294 31.945 6.618 31.945 27.934 0 86.604 44.026 89.825 77.184-0.18 31.06-51.399 71.801-89.837 80.012-3.494 0.747-5.799 1.328-7.224 2.435l-1.318 0.254 0.083 0.403-0.693 0.185 0.195 2.152c-2.341 11.904 13.78 37.58-16.739 66.903-10.422 10.015-12.106 10.332-11.846 13.783-0.928 2.428-0.257 4.239 1.53 6.393v2e-3c1.396 1.682 2.101 2.745 2.597 3.241h-2e-3c2.505 2.504 3.045 2.282 5.135 2.011 10.659 1.688 39.074-22.048 43.727-59.606 4.042-32.586 14.091-16.76 57.208-52.097 16.758-13.731 39.531-51.606 39.531-64.66 2e-3 -20.227-24.342-49.474-26.636-50.899z"/>
	<path d="m739.36 1524.7c-4.403-2.106-8.392 0.188-16.244 9.131-11.278 12.845-31.891 23.978-48.384 21.409-14.343-2.469-26.513-15.309-29.506 11.201-2.62 23.248-29.009 63.213-62.728 80.397-16.312 7.074-39.217-6.278-53.285-17.01-22.631-19.757-38.593-56.674-38.593-66.995 0-5.723-1.166-9.098-4.389-10.503-1.288-2.644-15.331 0.951-17.478 1.529-20.665 5.564-41.006-4.651-55.541-20.475-7.158-7.792-11.23-13.055-16.266-9.579-11.86 8.186-3.379 18.373 4.948 27.856 9.845 11.211 30.198 23.032 59.876 24.559 9.929 2.111 12.969 8.674 17.151 17.925 14.311 31.667 38.882 56.647 60.554 68.336 23.679 13.772 38.48 14.588 68.648-7.511 62.97-45.321 42.855-78.808 69.276-78.808 40.203 0 72.775-34.355 67.642-46.182-0.439-3.489-2.448-4.58-5.681-5.28z"/>
	<path d="m716.75 452.58c-4.456 1.671-9.617 6.003-11.704 9.905l-4e-3 -2e-3c-0.651 1.217-1.169 2.233-1.109 3.077l-4.17 4.223 0.045-1e-3 -0.041 0.041c1e-3 0 207.29-2.282 207.29-2.282l5.68-2.989c10.025-2.265 25.526-11.611 29.254-15.451 1.34-0.697 2.444-1.548 1.934-2.983 0.988-2.629-3.478-5.379-5.982-6.664-13.828-9.314-11.322 6.278-68.31 8.717-23.231 0.793-50.289 0.891-150.19 1.68l-2.695 2.729z"/>
	<path d="m165.47 697.29c0.567-7.163 1.719-13.403 1.623-17.599 0.472-1.598 0.964-3.622-0.017-4.968l0.087-1.208-3.196-0.6c-3.204-2.166-9.322-3.294-20.355-5.514-12.161-2.448-92.595-45.697-68.173-93.023 7.916-15.342 31.216-43.282 73.154-59.262 13.215-3.429 18.581 2.183 18.453-8.407 0.397-0.998 0.252-2.031-0.134-3.038-0.765-11.251-3.562-27.362 0.888-42.163 7.941-20.599 35.48-31.525 26.83-41.945-6.533-7.872-9.111-7.348-23.998 5.722-7.621 6.692-14.446 13.952-18.917 23.169-22.386 39.698 9.624 35.322-33.36 57.548-54.01 27.927-80.273 76.653-67.848 102.43 10.778 24.853 32.905 49.835 51.029 60.738 28.774 20.175 41.139 11.417 41.139 34.208 0 36.333 34.218 66.286 44.004 65.35 1.624 0.419 2.717 0.208 3.201-0.648 0.569-0.349 3.139-2.64 4.689-4.509 11.442-13.796-31.648-17.182-29.099-66.284z"/>
	<path d="m423.65 730.94c7.304-7.623 3.841-4.009 16.54-17.265-166.95 0-212.19-1.966-241.38 17.136-8.05 5.268-8.228 6.107-2.602 12.325v6e-3c4.614 5.095 6.219 6.502 11.131 4.494 43.568-7.173-20.795-11.744 211.62-11.744 1.327-1.524 4.501-4.595 4.688-4.952z"/>
	<path d="m695.06 723.98l-0.034 1.151c-7.276-3.456-2.741 724.39-2.664 764.03l8.785 19.433h2e-3c9.003 19.919 10.46 21.3 17.497 16.601 7.311-4.885 7.976-13.62 1.897-24.929-6.672-12.407-6.274-67.973-9.679-760.48-2e-3 -1e-3 -15.804-15.8-15.804-15.801z"/>
	<path d="m445.04 724.26l-1.241 1.241c-0.498-4.347-16.972 15.645-19.801 18.938 0 725.2 1.266 728.36-7.323 750.96-4.321 11.375-7.796 19.752-2.854 24.694l5e-3 -1e-3c7e-3 7e-3 0.978 0.861 2.171 2.054l-2e-3 1e-3c39.887 39.893 30.264-202.08 29.045-797.89z"/>
	<path d="m667.56 1523.6c1.201-1.202 8.433-11.678 1.996-25.521-9.679-32.065-80.387-47.602-81.386-46.602-4.309 4.31 5.503 14.056 30.07 29.873 63.966 41.18 15.836 20.893 12.471 32.298-4.113 3.074-6.829 7.547-6.83 12.299 2e-3 3.261 37.868 3.465 43.679-2.347z"/>
	<path d="m622.73 1003.9c-0.508-3.435-25.46-0.13-27.157 15.829-2.164 7.142 6.257 14.7 8.314 16.222 13.852 13.771 11.61 0.964 23.347-2.803 4.61-0.812 4.737 5.028 0.824 28.72-4.66 28.229-16.898 55.411-40.576 90.142-14.414 21.14-14.7 22.141-8.685 30.423h2e-3c4.039 5.563 1.439 1.003 5.847 9.241l0.839-1.083c0.358 0.307 0.9 0.741 1.288 0.488 3.461 0.818 34.237-54.908 36.222-58.559 24.469-37.689 51.251-119.77-0.265-128.62z"/>
	<path d="m618.52 1491.8c-4.727-1.347-9.244-0.617-11.418 3.862-5.857 3.771-14.994 14.905-29.07 19.676-25.402 7.172-39.344-13.696-48.253-20.528-0.115-0.166-0.228-0.323-0.34-0.478-1.685-4.56-2.506-6.238-9.206-3.462-6.214 0.319-11.42 6.423-11.033 8.718-1.161 7.703 16.608 24.03 35.104 32.549l2e-3 2e-3c8.9 4.099 16.74 6.281 24.387 6.582 30.619 3.621 75.498-46.733 49.827-46.921z"/>
	<path d="m628.71 1446.8c-1.42-5.431-8.196-13.304-16.541-20.432-31.49-32.806-81.456-18.716-103.61 21.502v0.016c-3.311 6.014-2.681 6.503 4.886 4.123 35.365-11.065 40.099-33.221 79.97-14.495 43.558 24.143 36.68 14.577 35.297 9.286z"/>
	<path d="m550.28 333.43c35.966 6.807 63.58-10.968 73.964-31.324l7.53-14.76c-41.071 12.413-52.711 40.424-90.013 16.875-15.963-10.077-37.213-18.068-36.285-12.502-0.84 4.375 27.344 34.275 38.589 39.376v1e-3c1.31 0.594 5.211 2.147 6.212 2.336l3e-3 -2e-3z"/>
	<path d="m644.67 285.58c-0.163-0.028-0.324-0.042-0.482-0.043-1.753-0.607-2.394 0.363-5.646 6.441-7.818 14.612 8.202 19.195 12.87 51.546 1.322 9.162 5.064 28.114 8.312 42.115v-2e-3c6.564 28.295 9.996 26.883 13.621-5.606 5.674-50.827-20.598-96.017-28.675-94.451z"/>
	<path d="m530.82 1363.2c-1.656-1.478-3.058-1.938-5.007-1.46-1.885-0.096-3.761 0.496-5.617 1.781-2.39 0.804-11.592 6.008-13.782 3.821-1.617-1.618 1.186-25.743 4.238-39.252 10.084-35.649 47.931-95.82 43.876-90.043 6.557-9.342 6.618-11.861 2.417-19.717-4.586-8.566-10.794-11.699-10.794-5.444 0 8.074-94.801 128.62-49.728 178.42v-1e-3c3.718 4.109 10.361 6.438 17.359 6.932 25.006 5.945 40.339-28.022 17.038-35.041z"/>
	<path d="m623.88 1525.9v-3e-3 3e-3z"/>
	<path d="m471.05 643.35h2e-3c3.449 13.192 17.939 4.759 34.231-3.924 14.722-7.848 23.687-15.671 29.205-25.49 4.379-7.791 7.962-15.063 7.962-16.159 0-1.412-62.958 29.776-72.959 36.143-0.745 0.477 1.336 8.575 1.559 9.43z"/>
	<path d="m616.05 926.83c-1.91-6.363-27.317 2.433-33.235 4.326-13.224 1.551-17.598 1.108-25.253 0.808-49.446-22.033-109.41 15.684-88.484 107.3 1.751 8.952 1.71 7.418 4.495 19.485l0.475-2.577s11.438-63.004 16.738-81.267c7.073-20.438 37.476-39.715 65.194-18.576l12.38 9.442c28.464-21.224 29.488-18.775 38.093-22.593 3.926-0.101 10.667-8.944 9.969-12.039 0.453-1.829 0.406-3.401-0.372-4.309z"/>
	<path d="m667.19 775.53l-0.171-0.772-0.144 0.615c-4.716-0.613-8.842 52.212-15.001 74.039-6.438 22.239-17.552 40.756-39.984 45.97-18.595 3.992-29.134-6.629-42.601-19.243l-2.386 1.62c-0.921 0.131-1.215 0.503-1.705 1.157l-10.257 6.961c-25.342 17.199-34.706 8.548-34.706 22.601h-2e-3c0 1e-3 -2e-3 5.378-2e-3 5.379l-2e-3 -1e-3c0 3.441 8.22 3.577 11.547 3.359 21.762 1.19 28.448-16.31 49.654-6.197 34.609 16.502 67.121-3.383 83.996-36.208 19.898-38.699 3.596-97.611 1.764-99.28z"/>
	<path d="m585.94 1622.3c38.131-24.291 60.228-90.609 30.086-90.609-10.992 0-3.232 11.712-10.772 32.619-11.801 30.303-35.04 35.682-31.546 52.149 0.234 2.955 0.864 6.472 1.78 10.975h-2e-3c0.019 0.095 0.116 0.139 0.277 0.137v0.985c4.331-3.428 2.045-1.072 10.177-6.256z"/>
	<path d="m756.15 691.26c25.503 12.34 69.155 4.395 71.729 3.059 23.63-5.18 48.381-19.577 46.454-26.858 0.058-1.27-0.33-1.95-1.231-2.695-0.524-1.475-2.12-2.416-4.591-2.745-13.381-6.996-34.774 14.535-59.306 14.603-20.776 0.059-56.558 13.513-57.62 13.837l0.279 0.049-0.276 0.083c4.298 0.597 3.402 0.463 4.562 0.667z"/>
	<path d="m713.44 349.08c1.499-110.57 4.915-96.763 9.744-112.33 4.704-10.637-2.979-20.008-8.214-18.504-3.209-0.177-6.545 3.459-13.533 17.009-8.677 16.825-8.634 19.329-10.206 101.92-0.109 5.71-1.91 123.21 3.48 120.77l0.129 1.029c18.62-17.49 17.172-4.347 18.6-109.89z"/>
	<path d="m653.5 1138.5c-7.06-10.556-10.47-14.479-13.609-12.878-2.038 0.067-4.027 4.724-5.127 6.778-6.48 12.112 5.394 19.501 13.976 45.403 16.057 51.18-24.298 110.58-90.213 105.12-19.875-1.647-21.584 6e-3 -25.167 7.885-2.053 2.631-2.422 6.357-1.589 7.639 2.072 8.261 60.515 16.633 98.579-13.695 32.558-24.217 41.748-49.925 41.732-80.654 0.667-33.91-8.06-49.869-18.582-65.599z"/>
	<path d="m668.71 221.32c-7.032-10.111-31.055-7.361-43.818-3.889-0.247 0.067 0.027 1.217 0.656 2.979-2.156 6.117 5.794 15.768 15.128 15.768 33.324 0-42.257 33.458-50.475 48.818l-2e-3 -1e-3c-0.828 1.546-1.441 2.762-1.77 3.696l-3.406 3.627 4.644-1.116c13.996 1.297 64.753-22.025 75.035-35.655 9.586-11.653 8.687-31.565 4.008-34.227z"/>
	<path d="m654.46 945.47l-1.132 2.161c-3.228 0.146-6.543 11.196-7 14.863-2.956 11.924 8.169 41.777 13.117 79.825h2e-3l2.75 21.165c5.347-17.335 10.061-27.783 8.824-58.11 1.494-30.978-8.328-44.596-16.561-59.904z"/>
	<path d="m272.77 505.92c-14.573 9.754-15.459 11.167-9.253 14.772l-2e-3 -1e-3c17.536 10.193 23.938-3.992 55.932-12.56 1.005-0.162 73.18-11.024 65.372-14.32l0.307-0.075c-1.909-0.344-0.57-0.169-3.934-1.02l0.233-0.072c-26.072-3.445-59.195-19.825-108.66 13.276z"/>
	<path d="m460.64 680.2c1.905 2.446 3.885 4.815 5.942 7.092l-2e-3 -1e-3c4.765 5.274 16.747 18.401 22.203 13.927 2.465-1.691 7.238-8.635 0.846-18.704 0.565-1.066 0.277-1.387-0.67-1.013-1.424-2.104-3.226-4.393-5.459-6.937-40.921-46.605-29.362-69.9-32.419-114.03 1.166-4.491 2.197-7.713-1.982-9.785-1.821-3.132-8.203-4.477-11.621-2.051-2.59 0.265-2.538 0.777-2.91 3.85-12.116 25.114-8.873 77.762 21.009 120.74 0.928 3.323 2.824 6.225 5.063 6.914z"/>
	<path d="m489.23 916.1h0.02c-1.973 11.5-1.811 11.711 8.273 8.199 8.22-1.446 12.904-10.781 15.542-18.772 9.122-27.638 37.95-48.739 67.953-41.276 29.483 9.342 33.19 28.757 44.951 15.763 4.383-4.858 8.069-7.756-1.48-15.871-8.934-8.965-24.082-16.081-39.751-19.164-1.218-0.799-80.318-17.435-95.508 71.121z"/>
	<path d="m636.84 917.95c-11.909 5.427-5.854 6.037-17.716 28.218-12.318 23.028-27.168 30.31-50.764 30.207-43.73-0.167-41.802-33.914-58.726-12.924-2.633 1.538-3.532 2.589-2.492 4.54-0.144 0.36-0.164 0.67-0.061 0.93-0.506 5.855 6.722 11.628 24.021 20.641h-5e-3c22.899 11.931 51.202 11.813 73.072 0.503 23.766-12.291 41.888-43.543 41.909-62.529 0.016-13.241 0.098-13.839-9.238-9.586z"/>
	<path d="m509.82 244.49c-2.117 8.613 9.864 7.539 12.827 9.766 0.058 0.045 0.331-0.128 0.782-0.484 2.578-0.849 4.378-3.693 12.728-12.042 11.213-11.214 15.348-12.956 30.753-12.956 15.315 0 19.63 1.792 30.947 12.841 3.771 3.682 12.138 11.55 17.428 11.086 2.87 0.189 13.168-1.335 11.596-8.164 0.219-2.712-1.822-5.424-8.738-14.492-13.559-17.776-29.454-24.138-49.473-23.372-41.199-0.055-59.488 34.534-58.85 37.817z"/>
</svg>
