<?xml version="1.0" encoding="UTF-8"?>
<svg enable-background="new 0 0 170 400" viewBox="0 0 170 400" xmlns="http://www.w3.org/2000/svg">
 <path d="m0 0h170v400h-170z" fill="#fff"/>
 <path d="m155.5 390.5h-140c-2.761 0-5-2.238-5-5v-10c0-2.762 2.239-5 5-5h140c2.762 0 5 2.238 5 5v10c0 2.762-2.238 5-5 5z" fill-rule="evenodd"/>
 <path d="m155.5 390.5h-140c-2.761 0-5-2.238-5-5v-10c0-2.762 2.239-5 5-5h140c2.762 0 5 2.238 5 5v10c0 2.762-2.238 5-5 5z" fill="none" stroke="#000" stroke-linecap="round" stroke-linejoin="round" stroke-miterlimit="1"/>
 <path d="m145.5 370.5h-120c-2.761 0-5-2.238-5-5v-20c0-2.762 2.239-5 5-5h120c2.762 0 5 2.238 5 5v20c0 2.762-2.238 5-5 5z" fill-rule="evenodd"/>
 <path d="m145.5 370.5h-120c-2.761 0-5-2.238-5-5v-20c0-2.762 2.239-5 5-5h120c2.762 0 5 2.238 5 5v20c0 2.762-2.238 5-5 5z" fill="none" stroke="#000" stroke-linecap="round" stroke-linejoin="round" stroke-miterlimit="1"/>
 <path d="m135.5 340.5h-100c-2.761 0-5-2.238-5-5s2.239-5 5-5h100c2.762 0 5 2.238 5 5s-2.238 5-5 5z" fill-rule="evenodd"/>
 <path d="m135.5 340.5h-100c-2.761 0-5-2.238-5-5s2.239-5 5-5h100c2.762 0 5 2.238 5 5s-2.238 5-5 5z" fill="none" stroke="#000" stroke-linecap="round" stroke-linejoin="round" stroke-miterlimit="1"/>
 <path d="m124.964,340.5h-80c-2.761,0-4.76-2.238-4.464-5l13.929-130c.296-2.762 2.774-5 5.536-5h50c2.762,0 5.24,2.238 5.536,5l13.929,130c.295,2.762-1.704,5-4.466,5z" fill-rule="evenodd"/>
 <path d="m124.964,340.5h-80c-2.761,0-4.76-2.238-4.464-5l13.929-130c.296-2.762 2.774-5 5.536-5h50c2.762,0 5.24,2.238 5.536,5l13.929,130c.295,2.762-1.704,5-4.466,5z" fill="none" stroke="#000" stroke-linecap="round" stroke-linejoin="round" stroke-miterlimit="1"/>
 <path d="m135.5 210.5h-100c-2.761 0-5-2.238-5-5v-10c0-2.761 2.239-5 5-5h100c2.762 0 5 2.239 5 5v10c0 2.762-2.238 5-5 5z" fill-rule="evenodd"/>
 <path d="m135.5 210.5h-100c-2.761 0-5-2.238-5-5v-10c0-2.761 2.239-5 5-5h100c2.762 0 5 2.239 5 5v10c0 2.762-2.238 5-5 5z" fill="none" stroke="#000" stroke-linecap="round" stroke-linejoin="round" stroke-miterlimit="1"/>
 <path d="m125.5 190.5h-80c-2.761 0-5-2.239-5-5s2.239-5 5-5h80c2.762 0 5 2.239 5 5s-2.238 5-5 5z" fill-rule="evenodd"/>
 <path d="m125.5 190.5h-80c-2.761 0-5-2.239-5-5s2.239-5 5-5h80c2.762 0 5 2.239 5 5s-2.238 5-5 5z" fill="none" stroke="#000" stroke-linecap="round" stroke-linejoin="round" stroke-miterlimit="1"/>
 <path d="m115.5 180.5h-60c-2.761 0-5-2.239-5-5s2.239-5 5-5h60c2.762 0 5 2.239 5 5s-2.238 5-5 5z" fill-rule="evenodd"/>
 <path d="m115.5 180.5h-60c-2.761 0-5-2.239-5-5s2.239-5 5-5h60c2.762 0 5 2.239 5 5s-2.238 5-5 5z" fill="none" stroke="#000" stroke-linecap="round" stroke-linejoin="round" stroke-miterlimit="1"/>
 <path d="m115.5 170.5h-60c-2.761 0-5-2.239-5-5s2.239-5 5-5h60c2.762 0 5 2.239 5 5s-2.238 5-5 5z" fill-rule="evenodd"/>
 <path d="m115.5 170.5h-60c-2.761 0-5-2.239-5-5s2.239-5 5-5h60c2.762 0 5 2.239 5 5s-2.238 5-5 5z" fill="none" stroke="#000" stroke-linecap="round" stroke-linejoin="round" stroke-miterlimit="1"/>
 <path d="m95.5 100.5h-20c-2.761 0-5-2.239-5-5v-80c0-2.761 2.239-5 5-5h20c2.762 0 5 2.239 5 5v80c0 2.761-2.238 5-5 5z" fill-rule="evenodd"/>
 <path d="m95.5 100.5h-20c-2.761 0-5-2.239-5-5v-80c0-2.762 2.239-5 5-5h20c2.762 0 5 2.238 5 5v80c0 2.761-2.238 5-5 5z" fill="none" stroke="#000" stroke-linecap="round" stroke-linejoin="round" stroke-miterlimit="1"/>
 <path d="m125.5 70.5h-80c-2.761 0-5-2.239-5-5v-20c0-2.761 2.239-5 5-5h80c2.762 0 5 2.239 5 5v20c0 2.761-2.238 5-5 5z" fill-rule="evenodd"/>
 <path d="m125.5 70.5h-80c-2.761 0-5-2.239-5-5v-20c0-2.761 2.239-5 5-5h80c2.762 0 5 2.239 5 5v20c0 2.761-2.238 5-5 5z" fill="none" stroke="#000" stroke-linecap="round" stroke-linejoin="round" stroke-miterlimit="1"/>
 <path d="m114.617,160.5h-58.235c-2.68,0-5.577-2.239-6.471-5l-19.411-60c-.894-2.761.555-5 3.235-5h103.529c2.681,0 4.129,2.239 3.235,5l-19.412,60c-.892,2.761-3.789,5-6.47,5z" fill-rule="evenodd"/>
 <path d="m114.617,160.5h-58.235c-2.68,0-5.577-2.239-6.471-5l-19.411-60c-.894-2.761.555-5 3.235-5h103.529c2.681,0 4.129,2.239 3.235,5l-19.412,60c-.892,2.761-3.789,5-6.47,5z" fill="none" stroke="#000" stroke-linecap="round" stroke-linejoin="round" stroke-miterlimit="1"/>
</svg>
