<?xml version="1.0" encoding="UTF-8"?>
<!DOCTYPE svg  PUBLIC '-//W3C//DTD SVG 1.1//EN'  'http://www.w3.org/Graphics/SVG/1.1/DTD/svg11.dtd'>
<svg enable-background="new 0 0 1928.8167 1935.3396" version="1.1" viewBox="0 0 1928.8167 1935.3396" xml:space="preserve" xmlns="http://www.w3.org/2000/svg">
	<path d="m1735.5 1469.4c21.899 1.0803 49.848-4.4078 78.023-6.8615 8.5072-0.741 15.972 0.2004 23.171 5.2316 8.1899 5.7246 16.706 10.987 24.273 17.555 36.182 31.407 52.569 71.422 51.939 118.96-0.4921 37.139-6.8636 73.159-19.275 108.17-3.4492 9.7303-6.5199 19.553-12.151 28.333-1.1664 1.8186-2.0577 3.7797-3.7563 5.2302-2.6451 2.2585-4.283 4.3997-1.0988 7.873 2.0074 2.1896-0.3433 4.6661-1.4773 6.7992-2.1156 3.9792-5.5278 7.3726-2.8685 12.752 1.1608 2.3481-1.314 4.2114-3.9739 4.5355-1.6925 0.2062-3.4078 0.27-4.2219 2.0811-4.7682 10.607-14.408 17.583-20.335 27.36-2.8468 4.6962-5.0977 9.2683-4.2781 14.962 0.8159 5.6682 2.6425 7.9016 8.3176 7.8333 11.418-0.1375 22.532 1.9572 33.695 3.8368 2.4774 0.4171 4.9032 0.9618 7.1423 2.1346 1.7928 0.9392 2.8477 2.3311 2.3297 4.4572-0.4879 2.0027-2.0404 2.551-3.8418 2.3837-12.31-1.1445-24.658 0.4139-36.965-0.5417-8.7485-0.6794-11.017 1.7837-9.3245 10.25 0.3583 1.7922 0.8414 3.5881 0.9358 5.3997 0.3778 7.2499-2.7396 11.882-9.7419 13.561-3.926 0.9414-4.6293 2.704-3.8259 6.377 1.3121 5.9984 1.4636 12.181 2.7428 18.238 1.0757 5.0931-3.2843 6.8865-7.177 8.0266-8.6316 2.5278-17.436 4.3486-26.364 5.5316-11.228 1.4879-22.449 3.0532-33.81 3.0861-2.072 6e-3 -3.8807 0.5208-5.3602 2.1575-4.9037 5.4236-16.66 5.8082-21.943 0.6831-1.9399-1.8822-4.3051-1.5532-6.5692-1.6516-25.299-1.1012-50.6-2.1871-75.903-3.2034-35.801-1.4379-70.762-7.8269-105.09-17.863-7.771-2.2717-7.6727-2.4849-4.6128-9.774 0.5712-1.3606 0.9785-2.859 1.1052-4.3246 0.479-5.5332 2.3412-10.374 4.9344-15.406 3.7572-7.2916 3.6598-15.886 3.7341-23.975 0.3658-39.822 3.2281-79.56 3.3838-119.4 0.0981-25.123 0.751-50.3 2.5248-75.404 0.4376-6.1947 0.2926-12.423-2.0179-18.243-9.6582-24.33-16.516-49.546-23.986-74.574-2.847-9.538-5.3225-19.248-12.076-27.158-2.6127-3.0596-1.4178-4.7318 3.3942-5.5242 8.5386-1.4065 17.085-2.7681 25.63-4.129 3.2029-0.5101 5.8351-1.0865 6.6375-5.2719 0.5594-2.9185 4.0731-4.1908 6.5923-5.7654 10.23-6.3938 21.184-11.075 32.801-14.416 29.631-8.5212 59.377-16.385 90.233-19.125 13.958-1.2395 27.928-1.796 48.505-1.1948zm140.13 165.63c-0.124-8.4849-0.7081-16.924-2.1404-25.326-2.734-16.039-9.7823-30.698-14.515-46.097-5.1984-16.914-16.639-25.03-34.488-25.58-9.3602-0.2888-11.077 1.4318-9.42 10.662 2.0555 11.452 4.9063 22.768 6.7551 34.248 5.7742 35.854 7.5023 72.136 11.016 108.23 0.9509 9.7678 1.2981 19.594 2.2437 29.363 0.6351 6.5618 3.5845 10.13 7.9655 10.7 4.4526 0.5792 7.6361-1.7444 10.178-7.826 2.1785-5.2122 4.0249-10.562 6.1548-15.796 9.4764-23.285 16.333-47.149 16.251-72.579z"/>
	<path d="m966.1 1652.2c14.806-6.4417 28.494-13.276 42.117-20.235 33.502-17.113 66.622-35.016 101.94-48.303 28.8-10.835 58.374-18.406 88.969-21.992 3.2902-0.3857 4.741 0.339 5.8446 3.4308 3.0076 8.4253 4.2734 17.03 4.2799 25.968 0.0032 4.3569-1.3903 6.3643-5.6381 7.6912-25.098 7.839-50.166 15.79-75.115 24.089-21.828 7.2615-43.117 15.902-63.014 27.598-4.1858 2.4607-6.9279 0.9814-9.3975-2.2245-1.6431-2.1331-2.3176-4.7546-3.089-7.3167-0.9575-3.1798-1.8839-6.399-3.217-9.4281-1.4778-3.3578-3.5107-4.627-7.4131-2.3077-11.159 6.6313-23.073 11.91-34.074 18.869-9.1523 5.7893-16.465 12.796-19.03 23.894-1.5586 6.7434-6.0743 10.648-12.991 12.29-9.0433 2.1461-10.695 4.4619-11.232 13.824-2.1961 38.282-1.871 76.603-1.7328 114.92 0.0342 9.4944-0.0564 18.993-0.3343 28.483-0.238 8.1295-4.2131 14.61-9.9083 20.091-9.4772 9.12-21.204 14.257-33.426 18.387-23.497 7.9406-47.853 11.548-72.419 13.905-34.722 3.3314-69.512 3.8674-104.34 2.0402-31.462-1.6508-62.277-6.3196-91.118-19.924-3.3021-1.5575-6.4533-3.4642-9.5709-5.3778-12.992-7.9736-19.827-19.523-21.169-34.805-1.9302-21.986-0.414-43.948-0.5137-65.922-0.1918-42.266 1.6812-84.704-6.6309-126.5-1.4819-7.452 0.5316-12.465 5.2108-17.459 7.696-8.2139 17.231-13.529 27.476-17.759 10.653-4.3988 21.73-7.4565 32.965-9.8646 3.5749-0.7661 5.8389-2.4918 7.847-5.4185 8.413-12.26 13.387-26.06 17.685-40.058 7.992-26.027 25.813-41.127 51.482-48.094 11.026-2.9927 22.227-4.2701 33.608-4.0309 21.954 0.4614 42.548 5.6243 60.743 18.403 14.181 9.9595 24.265 22.892 26.694 40.512 1.8757 13.605 9.6117 22.632 20.857 29.412 9.9048 5.9719 20.718 9.8672 31.455 13.942 9.0281 3.4266 17.945 7.0287 26.498 11.61 9.2761 4.968 13.103 12.298 11.721 22.569-0.6387 4.7449-1.2722 9.4909-2.023 15.094zm-168.06-79.658c20.832 0.1864 41.598 1.2769 62.228 4.3666 6.5333 0.9786 6.8994 0.5231 5.2722-5.9601-4.5073-17.958-17.264-27.923-33.657-33.954-18.224-6.7048-37.066-7.5518-56.128-4.5408-15.65 2.4717-30.451 7.2094-43.125 17.151-8.4434 6.6228-14.02 15.012-15.459 25.886-0.4832 3.6531 0.1378 5.1697 4.4376 4.2535 25.185-5.3664 50.74-7.0729 76.431-7.2018z"/>
	<path d="m287.96 1636.2c41.484 0.4908 84.457 4.578 125.91 18.9 5.658 1.9548 11.298 4.0658 16.697 6.6287 3.3245 1.5781 5.6743 1.1384 8.6255-0.8235 39.545-26.291 78.346-53.655 117.15-81.018 35.399-24.962 70.813-49.9 106.98-73.751 13.295-8.7681 26.292-2.6443 28.593 13.464 1.0072 7.0527-0.9899 13.142-5.4028 18.599-5.1943 6.4233-11.447 11.694-18.367 16.061-51.179 32.298-99.283 69.039-149.22 103.12-13.484 9.2032-26.84 18.6-40.476 27.574-3.6109 2.3762-3.8694 4.3221-1.4753 7.4376 1.5204 1.9783 2.7138 4.2146 4.2909 6.1412 7.4644 9.1182 10.546 19.592 9.4309 31.214-1.5941 16.609-2.0299 33.251-2.0226 49.919 0.0052 11.744-4.743 21.584-12.053 30.474-14.327 17.424-32.29 30.106-51.995 40.694-48.131 25.863-99.608 39.915-153.92 44.274-53.18 4.2687-105.49 0.2007-156.52-16.156-16.551-5.3047-32.188-12.597-47.196-21.422-21.704-12.762-35.157-31.112-39.727-55.93-2.2607-12.277-4.6633-24.52-6.4651-36.886-3.1712-21.765 3.5603-40.135 18.531-55.69 17.547-18.232 39.167-30.282 62.277-39.842 35.964-14.878 73.676-22.888 112.08-28.049 23.976-3.2211 48.07-4.7308 74.277-4.936z"/>
	<path d="m1103.9 1734.6c0.1068-6.1655 0.5659-15.645-0.254-25.144-1.0323-11.958-5.4299-22.322-12.534-32.064-8.8613-12.151-8.3297-11.265 4.2494-17.789 21.544-11.173 35.01-5.6362 42.826 17.372 3.3676 9.9138 5.7687 20.152 8.8199 30.178 2.0413 6.708 4.6925 13.144 9.4681 18.534 3.0482 3.4396 5.7744 4.2473 9.6523 0.9816 4.7688-4.0157 8.7986-8.6016 12.514-13.539 3.9041-5.1891 7.6923-10.477 11.818-15.485 4.0793-4.9519 9.0839-8.9843 15.268-10.891 3.744-1.1543 4.9427-3.5201 5.2611-6.8794 0.33-3.4819 0.808-6.9722 0.8043-10.458-0.0054-5.165 2.1222-7.4542 7.4348-8.4714 17.81-3.41 35.721-6.4607 53.126-11.735 2.7065-0.8202 5.406-1.6776 8.064-2.6412 4.6018-1.668 5.5703-4.0688 3.3051-8.3314-0.6925-1.3032-1.5681-2.6672-2.7112-3.5468-6.085-4.6818-4.0765-9.3545 1.4183-13.98 8.3439-7.024 31.014-6.439 39.408 0.4539 5.2372 4.3007 5.9537 8.2716 2.6089 14.462-4.3052 7.9684-4.0284 9.1731 3.8066 13.71 10.314 5.9729 21.932 7.5653 33.374 9.7438 6.703 1.2761 13.366 2.7665 20.075 4.0067 3.1315 0.5789 4.9088 2.2959 6 5.2189 2.0367 5.4556 4.0106 10.963 6.5077 16.212 5.7186 12.022 15.641 14.484 24.543 4.7584 16.941-18.508 38.51-21.636 61.616-21.072 3.8168 0.0933 6.9285 2.283 9.9602 4.2958 13.837 9.1862 21.016 22.945 25.344 38.331 6.0447 21.488 5.8009 43.099-0.0138 64.649-5.162 19.132-16.675 33.818-31.937 45.949-17.452 13.873-37.166 24.028-56.577 34.692-9.3445 5.1342-18.509 10.551-27.45 16.383-6.2175 4.0558-10.589 8.7924-10.931 16.663-0.2004 4.6099-2.776 7.2638-7.6807 8.3231-49.648 10.723-99.356 12.36-149.19 1.4495-6.837-1.4969-13.377-3.9902-19.95-6.3955-4.8799-1.7855-7.4824-5.0416-7.5616-9.9836-0.1171-7.3043-3.1699-12.063-9.5526-16.023-9.5831-5.9449-16.537-14.892-22.926-24.118-1.7943-2.5912-3.7704-4.3916-7.0754-4.8947-2.9336-0.4465-5.7788-1.5448-8.6281-2.4641-32.636-10.532-48.95-31.049-52.168-65.194-1.0051-10.662-0.9067-21.291-0.1323-35.269zm335.89 67.376c0 3.9961 0.0392 7.9926-0.0092 11.988-0.0718 5.9453-0.0964 5.9514 5.5032 4.4795 53.094-13.957 66.943-72.4 47.847-111-2.4077-4.8673-5.8748-8.8436-10.724-11.516-15.909-8.7666-34.734-1.8104-41.507 15.434-4.7856 12.184-5.3811 24.954-5.0914 37.839 0.3971 17.661 3.1009 35.149 3.982 52.779z"/>
	<path d="m234.27 1288.1c24.736 1.8688 51.308 1.1412 77.595 4.9607 3.6205 0.5262 7.1985 1.3398 10.803 1.9802 4.35 0.7726 7.7557 2.5731 9.3832 7.1168 1.2478 3.4838 4.042 4.752 7.8234 5.0123 14.823 1.0211 29.388 3.6665 43.576 8.1255 6.4959 2.0416 8.7884 4.8636 8.7699 11.678-0.1058 39.012 3.8771 77.86 4.5654 116.84 0.1852 10.489 0.8428 20.969 1.1794 31.457 0.1503 4.6829-0.8984 5.4673-5.2259 3.6571-7.5944-3.1769-12.671-8.673-13.647-17.064-2.4438-21.007-4.7116-42.035-6.9866-63.061-2.0242-18.709-4.0237-37.421-5.8809-56.147-0.312-3.1461-1.7303-4.4874-4.6784-4.5582-11.987-0.288-23.968-0.8651-35.95 0.428-2.9532 0.3186-3.9136 1.4976-4.1585 4.2926-1.3806 15.761-2.9555 31.504-4.369 47.262-2.5738 28.694-5.2372 57.382-7.5532 86.097-1.2588 15.607-2.7008 31.184-4.3258 46.758-1.3765 13.192-8.2639 21.793-19.781 27.216-16.191 7.6251-33.462 11.057-51.161 12.505-27.978 2.2874-55.929 2.1129-83.776-1.7722-10.44-1.4563-20.506-4.5431-30.187-8.5984-14.409-6.0358-21.653-17.12-23.109-32.761-4.0263-43.268-8.5057-86.493-12.782-129.74-1.77-17.898-3.6229-35.79-5.1401-53.709-0.5396-6.3729-2.5478-12.366-3.6868-18.571-0.2727-1.4858-0.7672-3.0443-2.1608-3.8092-4.0612-2.2289-4.3037-6.0361-4.27-9.9402 0.044-5.1016 2.4344-7.5204 7.4526-8.2419 51.768-7.4437 103.86-7.9058 157.68-7.4144z"/>
	<path d="m1780.1 1190.1c-27.153 0.8235-54.316 0.7069-81.475 0.7092-4.6057 4e-4 -6.7714 0.9854-5.7112 6.1743 1.0391 5.0858-0.1578 9.6385-5.3151 12.276-5.0342 2.5752-10.347 2.8529-15.375 0.6591-5.4844-2.3934-8.0461-15.108-3.9187-19.472 2.344-2.4786 2.902-4.8439 3.3494-8.1212 1.911-14.002 4.3856-27.931 6.8591-41.85 8.5048-47.857 17.116-95.696 25.648-143.55 8.9124-49.984 18.084-99.926 26.484-150 2.5245-15.048 10.086-27.139 18.184-39.301 6.0212-9.0434 5.1005-7.7238-3.5953-11.192-12.949-5.1646-23.584-12.765-26.433-27.5-2.7697-14.324 1.1401-26.474 13.278-35.193 7.6482-5.4942 15.924-9.2219 25.695-9.9627 15.894-1.2051 31.537-1.4512 47.027 3.2499 20.425 6.199 31.922 24.182 27 43.609-3.8097 15.037-15.262 22.422-28.911 27.1-6.7942 2.3289-7.7175 3.114-3.1296 8.5214 12.685 14.951 16.6 32.784 20.305 51.422 17.62 88.648 36.075 177.13 54.277 265.66 3.8871 18.906 7.428 37.882 11.899 56.675 0.834 3.5057 2.0577 5.3729 4.6896 7.6732 4.8633 4.2507 3.6035 10.386 2.3749 15.909-1.1069 4.9758-5.2639 5.9731-9.7134 6.0402-1.9993 0.03-4.0042 0.0881-5.9983-0.019-6.0287-0.324-9.0734-3.3003-9.6019-9.3064-0.1021-1.1605-0.1666-2.3293-0.1583-3.4938 0.0597-8.4071 0.0625-8.4838-8.2734-7.9977-26.47 1.5436-52.974 0.8037-79.459 1.271z"/>
	<path d="m1048.7 863.92c33.322 0.0776 61.154 2.3497 88.498 9.0886 6.1648 1.5193 12.074 3.716 17.73 6.6406 6.8199 3.5261 9.975 8.8167 9.2289 16.641-1.2328 12.93-2.7343 25.837-3.3174 38.833-0.2068 4.6104 1.3956 6.3565 5.8239 7.2405 11.75 2.3458 23.38 5.2895 35.097 7.8104 9.6169 2.069 16.901 7.3785 22.744 15.128 11.214 14.873 14.967 31.472 13.071 49.902-3.2811 31.897-19.212 56.967-41.371 78.811-16.725 16.488-36.098 29.495-56.062 41.622-4.6362 2.8163-7.4529 6.1486-8.4558 11.535-2.4673 13.252-5.4745 26.398-8.347 39.57-2.2661 10.391-8.3813 15.77-18.174 18.091-12.382 2.9335-25.021 4.4272-37.644 4.4613-18.474 0.0499-36.952-0.8477-55.05-5.4551-11.176-2.8455-18.246-9.2307-19.951-20.886-3.0161-20.617-8.4272-40.744-12.465-61.153-4.1475-20.965-6.1438-42.177-7.8292-63.432-2.5547-32.218-5.1654-64.432-7.4368-96.67-0.9481-13.456-1.0791-26.97-1.5954-40.457-0.3696-9.6561-0.8867-19.308-1.1107-28.968-0.2377-10.258 3.1667-15.424 12.769-19.095 11.146-4.2605 22.963-5.5403 34.696-6.8854 14.738-1.6897 29.547-2.5646 39.152-2.3731zm108.94 111.46c-2.0143 26.946-4.9508 53.258-8.4735 79.502-2.5231 18.796-5.0969 37.594-9.5693 56.065-0.5558 2.295-0.9991 4.8942 1.3881 6.3438 2.2133 1.344 4.1439-0.4889 5.894-1.6196 15-9.6912 29.305-20.3 42.256-32.638 16.826-16.03 29.905-34.42 35.475-57.402 7.1603-29.543-4.963-52.931-31.902-61.71-9.5577-3.1147-19.621-3.6324-29.398-5.6398-3.5079-0.7203-5.6912 1.2953-5.6742 5.1409 0.0182 4.1624 4e-3 8.3252 4e-3 11.959z"/>
	<path d="m1637.4 949.92c-0.7858 18.81-1.526 37.623-2.3724 56.43-1.7899 39.774-4.5603 79.503-5.3229 119.33-0.1401 7.3209-1.3969 14.593-3.7494 21.592-3.0736 9.1428-3.0404 18.287-0.3829 27.516 1.8087 6.2816 2.623 12.71 2.317 19.264-0.2048 4.3853-1.9613 7.2834-6.3645 9.0653-14.076 5.6967-28.779 8.4229-43.783 9.3185-24.027 1.4344-47.973 1.0725-71.233-6.3984-7.9138-2.542-9.0956-4.1652-9.2609-12.576-0.125-6.3602 0.5562-12.608 2.2205-18.785 2.0831-7.7321 2.6632-15.888-0.6589-23.092-5.7701-12.511-6.4917-25.724-7.4427-38.983-1.8832-26.25-3.7421-52.499-6.1705-78.709-3.6869-39.793-7.4039-79.587-10.564-119.42-1.8633-23.492 0.3169-46.801 3.7769-70.167 1.7501-11.82 7.4486-15.923 17.796-18.134 12.121-2.5906 24.295-4.111 36.626-4.4946 27.445-0.8539 54.928-2.5981 82.202 2.4023 2.1194 0.3885 4.1758 1.1122 6.2722 1.6372 5.7938 1.451 8.3566 5.1082 9.9025 11.016 10.825 41.374 8.5247 74.472 6.1913 113.2z"/>
	<path d="m316.96 115.02c-1.0349 23.822-1.2388 47.647-0.7324 71.474 0.1409 6.6294-0.9628 12.577-6.6967 16.869-1.8139 1.3576-2.3835 3.4921-2.3288 5.8071 1.1594 49.113 2.3013 98.226 3.4124 147.34 0.0478 2.1121 0.1809 3.7708 2.6061 4.7459 3.3673 1.3539 2.6655 4.7066 2.7054 7.4073 0.1923 12.995 3.7292 24.925 10.761 35.872 3.0084 4.6834 6.5998 8.7235 11.017 12.129 26.228 20.219 36.683 47.555 34.765 79.841-1.8084 30.44-13.697 56.972-33.221 80.293-6.0731 7.254-13.021 10.11-22.678 9.5862-25.947-1.408-51.945-2.2953-77.929-2.4489-12.649-0.0747-19.398-5.6741-23.735-17.022-20.098-52.591-4.2942-108.94 40.554-143.04 3.0487-2.318 6.0521-4.7628 9.3525-6.6713 18.258-10.558 23.758-27.742 24.824-47.267 0.1899-3.4774-0.927-6.8246 2.971-9.7239 2.1206-1.5773 1.2873-5.9673 1.2228-9.1118-0.2491-12.16-0.6508-24.316-0.9407-36.474-0.7902-33.14-1.5486-66.283-1.0306-99.433 0.0818-5.2317-0.7546-9.3159-5.5987-12.3-4.2611-2.6247-5.5932-7.296-6.234-12.03-1.5464-11.426-0.9078-22.957-1.5789-34.432-1.9356-33.096-3.5666-66.209-5.3878-99.311-0.32-5.8154-1.2488-11.594-0.8541-17.45 0.8829-13.1 10.398-22.357 22.964-22.289 12.058 0.0653 20.969 9.0993 21.809 22.169 0.8132 12.659-0.1616 25.319-0.043 37.98 0.117 12.496 0.0255 24.993 0.0255 37.49zm-14.536-57.341c-0.0067-5.0424-0.5643-9.9801-3.1567-14.439-3.0575-5.2593-7.4742-5.485-10.176-0.1027-4.838 9.6367-4.8246 19.636 0.0252 29.263 2.662 5.2842 7.2263 4.9961 10.21-0.2663 2.5358-4.4719 3.135-9.4075 3.0974-14.455z"/>
	<path d="m1340.6 1212.9c-9.8068 0.1537-19.576 1.5553-29.43 0.2269-10.533-1.42-18.783-7.3655-27.17-13.016-3.2544-2.1923-4.0254-6.0704-3.8124-9.8578 0.2709-4.8145 0.9116-9.6067 1.2742-14.418 0.3911-5.1908-0.4053-10.263-4.6663-13.642-14.51-11.506-16.914-28.16-18.416-44.696-1.5977-17.596 2.4836-34.888 6.9401-51.755 4.7212-17.869 4.6455-35.915 4.6025-54.035-0.026-10.992 2.4031-14.859 13.27-17.658 10.848-2.7936 22.045-3.282 33.129-4.3934 27.93-2.8005 55.845-3.2339 83.661 1.3681 2.2893 0.3788 4.5691 0.9263 6.7847 1.6163 6.3606 1.9807 10.357 5.3478 10.695 12.983 1.3394 30.228 7.4746 59.693 14.814 88.976 4.7194 18.828 1.1307 37.013-6.1781 54.626-1.3588 3.2747-3.4347 6.1539-5.9858 8.5433-5.5385 5.1873-6.8794 11.553-5.8181 18.714 0.6368 4.2976 0.8511 8.6101 0.7339 12.951-0.1443 5.3529-2.6227 8.7949-7.4863 11.313-16.805 8.7025-34.593 12.655-53.451 12.17-4.4944-0.1157-8.9944-0.0169-13.492-0.0169z"/>
	<path d="m16.264 537.34c0.9513-37.352 7.2411-73.826 17.695-109.66 3.2661-11.194 8.9192-20.11 19.326-26.097 19.652-11.306 27.956-29.083 27.896-51.268-0.0117-4.2944-0.7471-8.8235 4.6672-10.924 1.6561-0.6424 1.2049-2.61 1.1543-4.054-1.0812-30.811-0.9757-61.636-1.2121-92.457-0.0206-2.6815-0.4303-5.4021-2.5845-7.3414-6.376-5.7401-8.0357-13.338-7.9288-21.334 0.3815-28.523-1.5136-56.959-3.3832-85.375-1.3017-19.784-2.4526-39.57-3.3619-59.373-0.29-6.3166-0.7465-12.636 0.322-18.948 2.0277-11.977 10.985-19.408 23.915-19.714 12.264-0.2901 22.828 7.9045 25.2 19.317 1.2144 5.844 0.1748 11.614 0.0193 17.424-0.6995 26.15-1.4479 52.299-1.9492 78.453-0.4342 22.651-1.9347 45.28-1.2234 67.958 0.2346 7.4799-1.4335 14.391-6.945 20.198-3.9942 4.2078-3.2458 9.9686-2.9299 15.278 1.545 25.974 1.0877 51.963 0.7743 77.952-0.0321 2.664-0.2914 5.3259-0.3013 7.9893-0.0049 1.3055-0.1676 3.2523 0.5736 3.8177 6.2184 4.7446 4.1017 11.675 4.344 17.605 0.8192 20.056 10.164 35.029 26.765 45.267 10.952 6.7537 17.148 15.784 20.433 28.12 10.224 38.391 14.998 77.414 15.369 117.06 0.014 1.4992-0.0138 2.9993-0.0515 4.4984-0.4386 17.453-5.7676 24.453-22.78 29.236-33.203 9.3353-66.642 10.307-100.29 2.4943-6.3174-1.4666-12.699-2.5828-18.921-4.5341-9.7366-3.0536-14.174-9.7528-14.807-19.61-0.4719-7.3423 0.0413-14.656 0.2207-21.978zm130.86-71.346c-0.8405-2.0905-2.0487-3.4496-4.8063-2.3575-3.1519 1.2483-5.7935 3.2371-8.3451 5.3783-30.458 25.559-60.92 51.112-91.338 76.718-2.0181 1.6989-3.7971 3.7206-5.4846 5.7599-1.1683 1.4119-2.15 3.1083-0.4991 4.9126 1.6005 1.7493 3.4269 1.0674 4.9952 0.1384 2.42-1.4335 4.8237-2.968 6.977-4.7673 24.383-20.375 48.727-40.798 73.059-61.234 7.1322-5.9904 14.228-12.026 21.264-18.129 1.8786-1.6296 3.4317-3.6138 4.1785-6.4196zm-106.13 63.788c3.4773-0.8235 6.0711-2.6146 8.5104-4.6607 28.577-23.971 57.16-47.936 85.698-71.953 1.8919-1.5921 3.5424-3.5096 5.1125-5.4331 1.1803-1.446 2.0233-3.14 0.3827-4.9204-1.4189-1.5396-3.0732-1.1656-4.5648-0.3435-2.0292 1.1183-4.0801 2.2958-5.8481 3.7749-28.736 24.04-57.432 48.129-86.128 72.217-2.1744 1.8253-4.2397 3.7834-5.5819 6.3325-1.5557 2.9545 0.1151 4.2139 2.4191 4.986zm109.14-39.816c-0.5736-2.6173-2.1192-3.6983-4.7134-2.9273-2.2685 0.6743-4.1906 2.0243-5.9842 3.5289-26.029 21.835-52.054 43.675-78.069 65.526-1.9178 1.6109-3.68 3.3742-4.8532 5.646-0.6797 1.3162-0.7261 2.5223 0.312 3.6801 0.9896 1.1037 2.1122 1.4378 3.5778 0.979 2.7777-0.8694 5.015-2.5704 7.191-4.3956 14.036-11.773 28.073-23.545 42.108-35.32 11.61-9.7407 23.23-19.471 34.818-29.238 2.4191-2.0391 4.7384-4.2056 5.6128-7.4799zm-107.98 12.927c2.8896-0.5759 5.0744-2.3674 7.247-4.1915 20.123-16.896 40.279-33.753 60.341-50.722 2.6158-2.2126 7.1545-4.8657 4.1903-8.6685-3.3843-4.3417-6.9178-0.0331-9.6284 2.2179-20.342 16.892-40.56 33.934-60.82 50.925-1.7908 1.5019-3.6075 3.0083-4.562 5.202-1.1652 2.678 0.4995 5.29 3.2318 5.2369zm110.43 10.701c-0.2171-3.3707-3.7975-4.6231-7.2798-2.0577-4.8108 3.5443-9.3066 7.5201-13.894 11.363-14.658 12.282-29.334 24.544-43.899 36.936-2.0195 1.7181-4.8456 3.8219-2.5539 7.0828 2.3263 3.31 5.2201 1.5848 7.3611-0.1948 19.182-15.945 38.269-32.004 57.358-48.061 1.5448-1.2994 2.7093-2.9374 2.9075-5.0685zm-105.36-39.243c0.5841-0.2589 1.6262-0.4762 2.3483-1.0776 11.626-9.6816 23.235-19.383 34.787-29.154 2.5764-2.1792 2.063-4.5999 0.0182-6.9664-1.8717-2.1663-4.0758-3.2322-6.4881-1.2331-11.776 9.7594-23.479 19.608-35.154 29.49-1.4635 1.2386-2.2396 2.9822-1.1306 4.9108 1.1744 2.0422 2.4856 3.9936 5.6191 4.0304zm37.962-415.45c0.7484 6.2876 1.2016 12.268 2.2592 18.14 0.6031 3.3484 1.5927 7.638 5.7422 7.835 4.5286 0.215 5.6415-4.2269 6.4706-7.6775 1.275-5.3066 1.7065-10.812 2.8906-16.146 0.8028-3.616-0.3077-6.2034-3.0359-8.2903-2.6846-2.0536-5.6509-2.7688-8.8762-1.2644-3.2984 1.5385-5.0425 4.185-5.4505 7.4029zm67.045 481.31c-0.1389-1.7408-1.3909-3.105-3.0409-3.9698-1.9738-1.0344-3.4567 0.2365-4.8583 1.4998-7.7864 7.0181-15.565 14.045-23.385 21.026-2.2237 1.9851-3.6288 3.959-1.1525 6.7261 2.4043 2.6866 4.5054 1.8478 6.8042-0.2477 7.7464-7.0615 15.575-14.033 23.367-21.045 1.1143-1.0027 2.2939-1.9801 2.2658-3.9894z"/>
	<path d="m485.27 128.25c0.5742 26.82 1.1704 53.64 1.709 80.461 0.1556 7.7477-1.2321 15.099-4.5171 22.289-2.9152 6.3806-3.8531 13.498-3.6502 20.52 1.5258 52.804 0.0494 105.66 2.897 158.44 0.8866 16.431 8.4844 30.232 22.641 37.865 23.597 12.724 30.699 32.895 30.012 57.467-0.6428 22.996-6.84 44.591-17.319 65.104-4.325 8.4661-10.58 13.315-19.802 14.944-15.538 2.7451-31.005 3.6152-46.663 0.5658-9.5836-1.8663-16.492-6.7118-20.972-15.243-10.075-19.187-17.042-39.362-19.615-60.976-1.3571-11.398-0.9385-22.58 2.8415-33.536 2.9604-8.5805 7.5459-16.113 15.094-21.229 17.53-11.882 24.55-28.91 24.321-49.294-0.4883-43.482-1.2348-86.962-2.0533-130.44-0.1974-10.485 0.2062-21-1.0103-31.46-0.5037-4.3314-1.1051-8.7159-3.2761-12.488-5.2789-9.1724-6.6617-19.209-6.4329-29.42 1.1688-52.159-1.1152-104.3-0.4575-156.46 0.083-6.5797 0.9872-12.917 4.3362-18.753 4.4143-7.6923 10.735-11.708 19.795-10.494 8.6496 1.1595 15.457 5.0045 18.932 13.478 2.0642 5.0332 2.4656 10.336 2.4684 15.688 0.0145 27.657 0.0067 55.314 0.0067 82.971 0.2387-3e-4 0.4775-8e-4 0.7164-0.0013zm-6.2437 409.28c-0.184-11.639-0.7647-22.931-3.3784-34.01-0.3987-1.6901-0.641-4.1851-2.8499-4.1428-1.8522 0.0354-1.9571 2.4372-2.3972 3.9435-1.457 4.9862-1.7641 10.164-2.0258 15.307-0.7715 15.162-0.484 30.285 2.8208 45.188 0.3935 1.7744 0.5742 4.715 2.9558 4.5874 2.2455-0.1202 2.3043-3.0087 2.6743-4.8412 1.753-8.6842 1.7177-17.533 2.2004-26.032zm-8.6192-486.47c0.1052-5.4188-0.8428-10.632-3.5845-15.338-3.0228-5.1879-8.2182-5.3293-11.612-0.4792-5.0447 7.2088-5.0045 22.719 0.0779 29.984 3.3588 4.8013 7.9476 4.869 11.308 0.0306 2.9483-4.2455 3.8506-9.1179 3.8113-14.198zm23.633 497.58c0 3.0554-0.1753 4.7424 0.0441 6.3763 0.2782 2.0727 0.1027 5.1327 2.4202 5.4943 2.3865 0.3724 3.1194-2.6156 3.929-4.5383 3.7776-8.9709 5.2307-18.519 6.7386-28.045 0.8092-5.1121 1.1863-10.255 0.658-15.418-0.1657-1.6195-0.2426-3.7981-2.0575-4.2108-2.2504-0.5117-2.7657 1.9036-3.7136 3.3576-0.4471 0.6859-0.725 1.4993-0.9876 2.2856-3.9147 11.724-6.7007 23.672-7.0312 34.699zm-55.23-29.16c0.1129 10.55 2.0727 20.82 5.1556 30.88 0.7761 2.5325 1.8931 4.9695 2.9772 7.3951 0.5991 1.3404 1.3344 3.123 3.0453 2.8298 1.9699-0.3376 1.9739-2.3827 2.1737-4.0144 0.101-0.8242 0.131-1.6606 0.1383-2.4921 0.1223-13.793-2.4509-27.12-6.9583-40.11-0.2716-0.7827-0.5578-1.5849-0.9919-2.2816-0.9207-1.4777-1.433-3.9146-3.6444-3.4276-1.7883 0.3939-1.7797 2.6138-1.8646 4.2376-0.1214 2.3219-0.0309 4.6547-0.0309 6.9828z"/>
	<path d="m882.04 159.27c-0.8005 27.313-1.6114 54.627-2.3873 81.941-0.0897 3.1616-0.0923 6.3337 0.051 9.4924 0.4152 9.1525-3.8707 16.03-10.709 21.42-1.7178 1.354-2.2775 2.5298-2.234 4.4472 0.117 5.1639 0.1895 10.329 0.2567 15.494 0.0199 1.529-0.0432 3.2156 1.5728 3.9192 4.1732 1.817 4.5731 5.3063 4.3839 9.1488-0.0327 0.6636 0.0407 1.3319 0.0547 1.9983 0.2206 10.544 0.2134 10.576 10.358 12.727 2.9 0.6148 5.6522 1.4257 6.3846 4.7094 0.5973 2.6774 2.8099 2.5154 4.6172 3.0579 24.999 7.5045 45.504 21.414 59.61 43.547 9.4865 14.884 16.511 30.872 14.808 49.299-0.1218 1.3165-0.4008 3.087 0.769 3.7629 5.7962 3.3493 4.8865 9.084 5.049 14.217 1.0491 33.142 0.6896 66.279-0.7634 99.406-0.3198 7.2892 0.1182 14.534-1.8042 21.807-2.7018 10.222-8.4831 17.5-17.67 22.375-12.944 6.8685-26.878 10.689-41.184 13.264-43.973 7.9131-87.826 7.552-131.46-2.4136-10.126-2.3124-19.654-6.2771-28.36-12.054-8.4092-5.5798-13.76-13.177-14.22-23.421-1.8091-40.258-5.6884-80.453-3.8682-120.83 0.18-3.9938-0.1233-8.0674 3.8644-10.719 1.0397-0.6915 0.9301-2.0813 0.9235-3.2476-0.2756-48.674 40.199-86.03 76.051-94.905 2.132-0.5278 3.821-1.1089 4.3697-3.9288 0.6539-3.3605 4.0336-3.4437 6.826-3.9248 9.9023-1.7061 9.842-1.711 9.064-11.902-0.3547-4.6449-0.8721-9.2202 4.5271-12.083 2.6907-1.4268 1.4799-21.097-1.1357-23.058-7.6215-5.7143-11.168-13.321-11.41-22.772-1.3212-51.635-5.5394-103.15-6.3738-154.81-0.1479-9.1592-1.0005-18.31-1.0523-27.467-0.0978-17.317 14.08-30.894 31.815-30.832 16.57 0.0583 30.172 13.914 30.192 30.873 0.0364 30.485 0.0103 60.97 0.0103 91.454-0.3076 0.0021-0.6149 0.0038-0.9223 0.0055zm-131.66 320.24c0 8.9842-0.1138 17.97 0.0413 26.952 0.0976 5.6549 0.5477 11.306 0.9398 16.952 0.1837 2.6435 0.8508 4.3426 3.8418 1.8649 5.4237-4.493 11.691-7.6682 18.056-10.544 39.774-17.972 81.27-20.594 123.67-13.012 20.918 3.7402 41.028 10.064 58.512 22.905 3.6931 2.7125 5.1672 1.8427 5.3058-2.9402 0.0961-3.3171-0.389-6.6478-0.3657-9.9707 0.1615-22.977 0.6539-45.956-1.0148-68.909-0.353-4.8551 0.0197-9.7703 2.314-14.134 1.5865-3.0173 1.9897-6.0689 1.3713-9.161-1.6919-8.4613-2.9969-17.032-6.9813-24.886-13.623-26.854-35.327-44.087-63.545-53.603-1.5026-0.5067-3.2419-1.4567-4.5654 0.3451-2.0838 2.8369-4.7429 2.4724-7.6368 1.6858-16.473-4.4778-32.908-3.9963-49.317 0.4345-3.0524 0.8242-6.1495 1.6783-8.8348-1.1838-1.2004-1.2794-2.7844-0.6498-4.2098-0.0906-7.5855 2.9759-15.246 5.7946-22.142 10.253-23.922 15.464-43.512 34.147-47.738 64.254-0.1369 0.9753-0.3937 1.9857-0.8365 2.857-1.8517 3.6446-1.3209 7.0923 0.7094 10.436 1.8795 3.0958 2.7391 6.5084 2.4513 10.039-1.0712 13.14-0.132 26.313-0.0276 39.456zm106.49 31.155c-15.907-0.1833-31.629 1.4221-47.053 5.2952-13.487 3.3867-26.61 7.8274-37.194 17.38-11.118 10.034-11.174 21.667-0.3492 31.96 6.9003 6.5612 15.273 10.74 24.183 13.659 37.305 12.224 74.935 12.475 112.72 2.3754 10.858-2.9025 21.164-7.2227 29.878-14.532 12.944-10.856 12.878-23.756 5e-4 -34.639-5.27-4.4536-11.272-7.6819-17.631-10.265-20.704-8.4125-42.404-11.134-64.553-11.235zm9.1939-423.5c0.0441-9.3732-1.929-17.569-5.0722-22.528-4.9537-7.8148-12.433-8.0871-16.789 0.0475-7.3269 13.682-7.3475 27.898 2e-3 41.581 4.371 8.1379 11.897 7.9325 16.763 0.0528 3.8767-6.2773 4.8923-13.352 5.0962-19.154z"/>
	<path d="m622.61 598.82c-21.125-0.1836-40.586-4.9305-56.145-20.468-22.72-22.688-23.138-63.085-0.7552-86.083 7.6631-7.8735 15.924-14.926 25.132-21.16 14.385-9.7389 22.742-22.688 21.076-41.658-1.6127-18.365-0.5413-36.957-0.8608-55.446-1.1746-67.96-0.8903-135.95-3.1702-203.88-0.7203-21.461-1.4561-42.936-2.4794-64.394-0.6661-13.965-0.8864-27.952-1.3237-41.928-0.3071-9.8159-0.5414-19.636-1.0187-29.444-0.1826-3.7502 1.3678-5.7348 4.7032-7.233 10.062-4.5193 19.963-4.4594 29.947 0.1484 2.8622 1.321 4.4644 3.0747 4.3124 6.4748-0.6984 15.63-1.5252 31.262-1.7657 46.902-0.1896 12.328-0.7278 24.629-1.1966 36.943-2.3888 62.758-3.9441 125.55-4.1544 188.35-0.1295 38.653-1.4378 77.29-1.0635 115.94 0.0677 6.9887-1.0413 13.948-0.2098 20.967 0.5046 4.2591 1.7795 8.0832 4.3177 11.527 5.8707 7.9653 12.787 14.557 21.115 20.218 17.396 11.825 31.96 26.253 35.817 48.355 6.2997 36.101-15.332 66.93-51.907 73.931-6.7217 1.2864-13.479 2.2093-20.37 1.9388zm0.034-554.69v-0.017c-1.1603 0-2.3207-0.0089-3.481 0.0015-6.3691 0.057-6.8419 0.4984-6.2524 6.9103 0.561 6.1026 1.457 12.176 1.9315 18.284 0.3057 3.9351 2.386 5.1808 5.9302 4.8179 3.4597-0.3542 8.0698 1.6685 8.6517-4.5093 0.6522-6.9244 1.5647-13.825 2.3939-20.732 0.3837-3.1961-1.147-4.6537-4.2018-4.7466-1.6558-0.0505-3.3146-0.0091-4.9721-0.0091z"/>
	<path d="m642.2 925.29c-0.6279-78.153 0.8616-156.3 1.1473-234.45 0.0353-9.6422 0.6725-19.309 1.5737-28.913 0.8787-9.3656 6.0291-16.404 13.668-21.685 7.3577-5.0862 15.679-8.0055 24.113-10.668 3.243-1.0237 5.3393-0.1156 5.4418 3.5059 0.2097 7.4142 2.4664 14.827-0.0562 22.261-0.5451 1.6062-0.0627 3.3589 0.76 4.8363 0.9808 1.7611 1.2359 3.3852-0.0779 5.0659-0.1966 0.2514-0.4517 0.7296-0.3474 0.9042 3.158 5.2863-0.2808 11.316 1.9056 16.693 0.2487 0.6116 1.0259 1.525 0.8684 1.7094-3.8376 4.4929 0.8122 9.5508-0.9991 14.144-0.6397 1.6224-0.6774 3.2939 0.2109 4.8297 1.1823 2.0436 1.2985 4.0685 0.2159 6.1589-0.925 1.7861-0.8119 3.5543 0.1841 5.2438 1.1229 1.9047 1.1104 3.7411 0.0092 5.6467-0.3253 0.5626-0.7881 1.4552-0.5684 1.8613 2.835 5.2397-0.2695 10.817 1.1007 16.324 1.0395 4.1777-0.0276 8.9185 0.1924 13.475 0.3263 6.7604 0.5648 13.706 0.1011 20.376-0.3843 5.5281-0.1506 11.217 0.1781 16.461 0.3375 5.3853-1.8513 10.952 0.527 16.242 0.3813 0.8483 0.393 1.9536 0.2957 2.9117-0.6841 6.7319 0.1704 13.557-0.3098 20.138-0.3781 5.181 0.2269 10.328-0.0108 15.46-0.2498 5.3922-1.2137 10.997 0.104 16.428 0.368 1.5169 0.6929 2.9116-0.0476 4.3427-1.0689 2.0661-1.1437 4.1518-0.1429 6.2429 0.9339 1.951 0.7729 3.8279-0.0524 5.782-0.8083 1.9139-0.8771 3.8854 0.1404 5.7952 0.1559 0.2926 0.4569 0.6697 0.3782 0.9016-1.7823 5.2526 0.7446 10.647-0.5307 15.885-0.4471 1.8361-0.8298 3.5878 0.104 5.3311 1.0352 1.9324 1.0039 3.7921-0.0706 5.7031-0.3153 0.5608-0.7207 1.4545-0.4934 1.8785 2.8164 5.2547-1.414 11.01 1.2264 16.278 0.6224 1.2417 0.1578 2.6263-0.5015 3.8365-1.1175 2.0516-1.2422 4.2084-0.2128 6.2419 0.9219 1.821 0.9284 3.4223 4e-4 5.2075-0.8829 1.6982-1.0792 3.6164-0.1555 5.3063 1.2531 2.2926 1.1906 4.3464-0.1051 6.5816-0.7773 1.3411-0.5901 2.9063-0.1465 4.3868 0.0953 0.3181 0.3702 0.6791 0.2916 0.9383-2.3896 7.8817 4.112 14.196 3.7935 21.729-0.3237 7.6552-0.4599 15.318-0.6912 22.978-0.0615 2.0342-1.1127 3.3013-2.9317 4.2471-3.0901 1.6068-6.0888 3.3968-9.0747 5.1949-4.3968 2.6478-6.8841 6.3758-7.5323 11.663-0.7971 6.5015-0.9729 12.93-0.1454 19.416 0.7166 5.6173 1.2334 11.244 1.336 16.925 0.554 30.647 1.3564 61.29 1.7844 91.938 0.2236 16.008 3.5601 31.773 3.1143 47.838-0.2258 8.14-0.1595 8.4132-8.4851 9.1885-11.044 1.0286-21.951-0.682-32.916-1.215-3.5698-0.1736-5.1753-1.9117-5.3348-5.7097-0.4211-10.031 0.8797-19.97 1.1619-29.958 0.9504-33.643 1.4702-67.307 3.0644-100.92 2.3534-49.621 3.3763-99.249 2.9464-148.92z"/>
	<path d="m1336.7 565.16c-21.43 1.0137-42.629-0.8851-63.56-5.3436-10.393-2.2139-19.774-6.0321-28.512-13.18-11.003-9.002-22.23-18.031-34.428-25.571-8.255-5.1025-15.828-11.063-22.761-17.836-2.4362-2.3799-4.9473-4.3556-8.618-4.4346-2.2823-0.0491-4.4688-1.2157-5.03-3.4533-0.5587-2.2275 1.6064-3.4819 3.181-4.6324 1.3308-0.9724 2.8344-1.78 4.3689-2.3906 10.356-4.1207 20.203-9.2332 30.162-14.223 13.386-6.707 28.352-9.3653 43.302-10.953 8.9392-0.9493 17.909-1.6767 26.883-2.2064 3.5696-0.2107 5.202-1.8146 6.3933-5.0289 4.0613-10.958 8.8699-21.526 16.87-30.344 6.4706-7.133 14.462-12.223 22.471-17.319 2.1228-1.3506 3.9719-0.5076 6.047 0.4937 18.19 8.7772 30.62 22.858 37.19 41.732 2.3145 6.6483 6.2372 8.748 12.542 9.6367 14.497 2.0434 29.017 4.1524 43.337 7.1456 12.045 2.5177 23.971 5.9918 32.807 15.612 5.3903 5.8683 5.5638 12.116 0.4532 18.297-1.4846 1.7953-3.053 3.5514-4.3063 5.5032-8.9028 13.866-20.58 24.816-33.102 35.571-17.166 14.744-36.924 19.736-58.248 21.648-9.1125 0.8166-18.293 0.8747-27.442 1.2775z"/>
	<path d="m1671.9 1381.9c-31.39 0.3406-72.378 0.504-113.37 0.2607-17.667-0.1049-35.313 0.9451-52.51 5.6595-0.8026 0.2201-1.5907 0.5088-2.4048 0.6681-10.664 2.0853-17.722 7.41-18.746 19.191-0.6108 7.0331-5.109 10.291-12.246 11.458-22.419 3.6675-44.88 2.0107-67.335 1.3049-11.476-0.3608-22.985-0.4115-34.382-2.2664-25.353-4.1261-40.403-18.961-44.589-44.309-2.6488-16.038-0.2686-31.489 5.6674-46.524 1.1254-2.8503 2.7473-3.9985 5.8259-4.3656 17.728-2.1135 35.562-2.4298 53.352-3.4694 18.293-1.0687 36.58-2.2457 54.878-3.2051 7.3406-0.3851 14.647 0.3364 21.847 1.9125 7.7421 1.6948 13.752 5.726 17.479 12.887 1.4603 2.8054 3.2942 5.4452 4.4957 8.3516 4.9368 11.941 14.517 16.48 26.658 17.804 15.191 1.6567 30.288 0.1985 45.421-0.5016 9.8185-0.4542 19.638-1.2388 29.458-1.2556 59.824-0.1024 119.65 0.0903 179.46-1.5105 10.474-0.2803 20.923-1.5502 31.38-2.4059 8.024-0.6567 16.009-0.5514 23.805 1.6493 8.0662 2.2769 13.656 7.2333 16.358 15.395 1.2512 3.7797 0.2499 6.365-2.7704 8.675-4.6862 3.5842-10.153 4.1263-15.669 3.9922-47.493-1.1563-94.974 0.2356-152.06 0.6036zm111.41-5.805c4.9109-0.0621 9.3876-0.9957 13.326-3.8834 2.5353-1.8586 2.6603-3.9291 0.9756-6.4294-5.022-7.4532-23.22-8.5497-28.953-1.7128-2.9293 3.4938-2.5145 6.145 1.4445 8.5071 4.1033 2.4478 8.6317 3.3809 13.207 3.5185z"/>
	<path d="m302.9 1056.8c1.018-51.225 1.6042-90.877 1.0107-130.52-0.254-16.966-0.1999-33.974-1.6262-50.922-0.481-5.7155-2.8192-10.08-7.5745-13.354-5.345-3.6801-10.773-7.3145-15.698-11.516-22.203-18.94-29.026-43.453-26.611-71.811 1.7847-20.961 8.0781-40.362 16.949-59.148 4.6505-9.8483 11.688-17.803 20.21-24.42 15.372-11.935 34.351-11.257 49.243 2.2659 12.423 11.281 21.607 25.226 26.422 41.17 6.1864 20.482 8.4751 41.659 6.9745 63.191-1.5214 21.83-12.605 37.804-29.722 50.206-5.1105 3.7027-10.628 6.8706-16.1 10.04-5.2887 3.0636-7.5479 7.3819-7.6078 13.527-0.5505 56.51 2.2603 112.89 5.8166 169.26 2.6738 42.387 4.3355 84.838 6.4841 127.26 0.5813 11.478 1.3786 22.945 1.9159 34.425 0.3276 7.0007-0.9295 8.2139-7.7787 8.5294-5.8208 0.2681-11.638 0.6047-17.46 0.8556-6.8849 0.2969-8.6721-1.5638-8.6041-8.2517 0.5501-54.143 2.5515-108.25 3.757-150.79z"/>
	<path d="m1563.6 472.1c1.8464 27.65 0.8002 56.186 3.0392 84.616 0.2072 2.6309-0.0061 5.3402-0.3799 7.9624-0.8871 6.2231-5.3357 10.479-11.561 11.212-5.7017 0.6716-11.344 0.0524-16.822-1.5109-4.1089-1.1727-6.9127-3.6221-7.1409-8.4384-0.5999-12.669 0.0724-25.324 0.6486-37.951 1.5425-33.795 2.2662-67.606 2.8894-101.42 0.2238-12.146-0.0521-24.31 1.1886-36.423 0.0338-0.33-0.1005-0.7273 0.0391-0.989 3.3618-6.3093 1.7179-11.481-3.0448-16.46-2.3418-2.448-1.212-6.0645-0.906-9.1826 1.2518-12.749-5.2375-22.272-17.391-25.391-7.2069-1.8498-8.2654-3.0732-9.0897-10.436-2.5867-23.103-2.1183-46.251-0.8046-69.391 1.7964-31.637 5.3596-63.054 12.906-93.901 4.0522-16.563 9.7233-32.53 18.44-47.289 2.2897-3.877 4.6838-7.6848 7.8141-10.965 3.8723-4.0574 6.3394-4.0487 9.7172 0.425 5.1382 6.8056 9.2458 14.234 12.631 22.059 12.069 27.9 18.398 57.185 22.261 87.252 3.536 27.517 3.5966 55.159 5.0649 82.756 0.5422 10.192 0.8005 20.256-1.0654 30.352-0.9626 5.209-3.3239 7.8941-8.7465 9.2594-14.051 3.5375-19.609 10.606-18.648 26.244 0.2911 4.7352-0.2061 8.8816-3.4254 12.556-1.6276 1.8572-2.2086 4.3916-1.3834 6.6101 3.241 8.7118 2.0715 17.771 2.3451 26.689 0.6228 20.317 0.9556 40.644 1.424 61.758z"/>
	<path d="m1806.7 323.91c1.3379-47.291 2.6924-94.583 2.6066-141.9-0.0682-37.65 0.0782-75.295 2.7781-112.88 0.179-2.4911 0.2977-4.9941 0.6476-7.4628 0.2262-1.5966-0.4663-3.9824 0.9515-4.6219 1.9374-0.8738 3.6818 1.0283 5.2323 2.2082 5.7351 4.3638 9.3707 10.309 12.206 16.784 8.0232 18.321 11.273 37.862 14.795 57.363 5.27 29.178 4.9293 58.696 5.8114 88.145 0.3993 13.332 1.1891 26.621 3.9872 39.704 0.5337 2.4955 0.1918 4.5928-1.64 6.4134-2.8336 2.8165-5.6193 5.6818-8.4751 8.4756-11.63 11.377-13.504 24.404-5.2507 38.493 3.7006 6.3177 7.688 12.477 11.75 18.571 5.9524 8.9302 7.1711 17.931 1.7787 27.669-6.7166 12.128-4.8823 25.248-3.4537 38.148 2.0515 18.527 5.9532 36.815 7.3802 55.43 1.8022 23.508-2.5258 46.454-6.2892 69.463-0.8578 5.2448-1.1584 10.581-1.6946 15.878-0.9061 8.9534 0.9478 17.294 6.1451 24.659 7.2816 10.318 6.5684 20.248-0.1017 30.633-3.9387 6.1323-6.8278 12.937-10.218 19.424-2.1852 4.1812-5.0369 5.7012-10.116 4.3017-17.718-4.8823-26.564-17.296-30.303-34.298-3.1366-14.262-3.2166-28.764-3.0007-43.267 0.6769-45.472 1.2649-90.945 2.1462-136.41 0.523-26.98 1.5342-53.95 2.326-80.924z"/>
	<path d="m935.05 728.63c0.04-10.112 5.3096-13.608 14.004-9.8475 1.1093 0.4797 1.9266 0.1044 2.7968-0.2961 20.33-9.3568 41.263-9.2311 62.556-4.118 2.4055 0.5777 4.9459 0.7092 7.4333 0.8107 11.394 0.4654 11.899 0.269 16.076-10.217 2.3052-5.7864 6.1055-8.8849 12.382-9.006 5.3242-0.1027 10.652-0.6662 15.967-0.5399 59.815 1.422 119.6-1.2838 179.4-1.3734 38.491-0.0577 76.959 0.4542 115.42 2.019 9.8707 0.4016 16.75 3.7863 19.344 13.677 0.9281 3.5388 3.324 4.1104 6.3505 4.2752 9.7688 0.5318 19.206-1.7247 28.704-3.3843 14.277-2.4949 28.199-1.7627 41.609 4.1216 2.1211 0.9308 4.2457 2.0357 6.0491 3.4636 2.3531 1.8633 4.3644 2.163 7.2179 0.837 5.8961-2.7399 11.382-0.9252 13.108 3.8375 1.8036 4.9758-1.5638 12.207-6.5118 14.196-3.0829 1.239-5.5583 0.1319-7.7649-1.8517-1.3871-1.2468-2.5039-1.8528-4.309-0.5836-13.111 9.2179-27.702 7.9665-42.377 5.7671-12.007-1.7996-23.776-5.0266-35.97-5.7856-3.8412-0.239-5.4091 1.2222-6.989 4.6326-3.71 8.0078-6.1526 10.788-14.777 10.872-104.46 1.0222-208.92 0.3641-313.38 1.0215-8.3395 0.0525-10.474-1.4869-13.884-9.9951-2.9524-7.3654-2.9518-7.356-10.841-6.9149-13 0.7267-25.682 3.8359-38.604 5.144-11.12 1.1257-21.969 0.6459-32-5.0853-2.8817-1.6464-5.8753-1.5549-8.3175 0.6044-2.8242 2.497-5.7269 3.3467-9.1218 1.6656-3.6141-1.7897-3.882-5.0935-3.5704-7.9463z"/>
	<path d="m700.99 1356.2c26.831 0 53.662-0.0173 80.492 0.0317 2.2658 4e-3 4.1705-0.5304 6.0529-1.8148 5.5266-3.771 11.206-4.2196 16.601 0.167 2.7125 2.2053 5.2213 1.3074 7.2693-0.3474 13.494-10.902 29.506-11.942 45.84-12.39 20.987-0.5748 41.998-0.4862 62.953-2.0212 3.439-0.2521 6.297 0.1083 7.4966 4.0105 0.8446 2.7477 3.0427 1.934 5.0032 1.6323 17.114-2.6348 34.203-5.4479 51.353-7.8256 12.529-1.7371 25.135-2.9011 37.605-5.1185 2.0813-0.37 4.33-0.1284 6.4582 0.1547 7.48 0.9946 10.974 5.4286 10.071 12.912-0.1696 1.4048 0.0605 2.5795 0.342 3.8729 2.6257 12.063 3.1611 24.218 1.4847 36.46-0.2036 1.4861-0.455 2.9709-0.5535 4.465-0.6907 10.481-8.5262 16.202-18.684 13.624-23.463-5.9554-47.65-7.6343-71.376-12.043-5.2346-0.9725-10.554-1.4818-15.815-2.3212-2.1794-0.3477-4.1361-0.3489-4.8458 2.1488-0.8648 3.0433-3.0276 3.5521-5.7484 3.5267-29.66-0.2754-59.314 0.113-88.968 0.7471-7.2355 0.1548-13.806-2.3638-19.522-6.6667-4.0616-3.0579-7.7319-3.5024-11.666-0.0995-4.1787 3.6147-8.6895 2.99-13.001 0.5306-3.4005-1.9399-6.8583-2.2505-10.591-1.8586-26.518 2.7839-53.125 4.5488-79.747 5.6603-28.286 1.1808-56.554 3.8929-84.912 2.3107-11.971-0.668-23.928-1.7084-35.713-4.0514-2.7505-0.5469-5.4256-1.5728-8.0626-2.5707-5.2546-1.9883-7.7689-5.8186-7.8964-11.504-0.1329-5.9265 2.5245-9.8431 7.7855-12.16 9.7073-4.2749 20.071-6.0696 30.449-7.527 28.007-3.9336 56.194-2.9496 84.35-2.6611 5.1643 0.053 10.33 0.0076 15.494 0.0076 3e-4 0.2389 4e-4 0.4782 5e-4 0.7173z"/>
	<path d="m192.42 1073.2c0.6385-43.32 0.8549-86.652 2.1232-129.95 0.5078-17.336 1.2235-34.629-0.0687-51.918-1.6179-21.648-7.2682-42.648-10.806-63.992-1.4156-8.5413-2.9909-17.059-4.2232-25.627-1.7094-11.884 0.5677-23.583 2.1605-35.284 3.452-25.358 11.666-49.533 18.697-73.991 2.628-9.1418 7.1287-17.571 11.442-26.022 2.1409-4.1951 5.067-7.8446 8.9083-10.643 2.6954-1.9638 5.6409-2.99 8.851-1.2296 3.1722 1.7397 4.0241 4.654 3.8508 8.0582-0.4829 9.4825-1.106 18.962-1.361 28.451-0.7251 26.984-1.0187 53.983-1.9916 80.957-1.3748 38.117-3.0042 76.222-7.9264 114.11-1.9372 14.912 0.1163 29.955-0.1419 44.94-0.8474 49.186 2.022 98.283 4.2464 147.37 1.6819 37.118 3.8112 74.201 3.9108 111.37 0.0133 4.9784 0.9903 9.9341 0.7561 14.958-0.1165 2.4982-1.1063 3.9189-3.4762 4.8109-10.029 3.775-20.296 3.1382-30.585 1.7721-4.3258-0.5745-5.8051-3.1378-5.7875-7.674 0.1691-43.49 0.1012-86.982 0.1012-130.47 0.4398 0.0011 0.8799 0.0022 1.3199 0.0033z"/>
	<path d="m823.86 939.66c2.3976 25.994 0.982 51.947-0.1212 77.905-0.0353 0.832-0.0674 1.6656-0.1484 2.4938-0.9783 10.005-1.6556 10.539-11.494 9.9766-3.8185-0.2183-7.6727-0.4025-11.478-0.1365-7.05 0.4927-10.694 4.1277-12.068 11.116-1.0205 5.1929 0.0182 10.308 0.3398 15.431 1.7891 28.498-1.059 56.938-0.9346 85.415 0.0569 13.016 0.6416 25.941 2.5282 38.836 0.9866 6.7428 1.1392 13.57-0.3433 20.372-0.9054 4.1543-3.0889 6.2944-7.2924 6.9045-10.98 1.5933-21.537-0.651-32.05-3.2845-3.7093-0.9291-4.1012-3.9196-3.7574-7.1488 1.0929-10.264 2.1496-20.531 3.2784-30.791 2.4237-22.03 3.0409-44.186 4.7047-66.269 2.8398-37.693 5.8398-75.375 8.4973-113.08 1.7678-25.083 2.95-50.207 4.5864-75.3 2.34-35.883 4.2918-71.813 10.046-107.37 2.2714-14.034 6.4775-27.522 13.233-40.119 0.7697-1.4351 1.3218-3.3754 3.2211-3.522 2.2818-0.176 2.8707 2.0023 3.6863 3.5573 8.0539 15.355 11.929 32.054 15.587 48.816 6.4147 29.399 8.7236 59.271 9.899 89.239 0.4826 12.302 0.08 24.638 0.08 36.958z"/>
	<path d="m1682.9 420.43c0-52.642-0.5475-105.29 0.3047-157.92 0.2883-17.805-4.38-32.823-14.591-46.949-10.487-14.508-19.411-30.016-22.889-47.854-4.209-21.587-4.7271-43.096 5.4415-63.446 8.7223-17.455 23.554-24.596 42.597-23.733 18.816 0.8522 31.515 10.166 38.096 27.865 3.1731 8.5339 4.059 17.451 4.9679 26.405 2.5255 24.881-3.7764 47.744-14.866 69.799-4.9323 9.8083-9.3657 19.843-15.166 29.211-2.7152 4.3852-2.7201 9.5762-2.8857 14.547-0.9655 28.98-0.3351 57.971-0.4695 86.957-0.3436 74.13-0.6216 148.26-0.9115 222.39-0.045 11.492-0.0084 22.983-0.0226 34.475-0.0073 5.9355-0.6442 6.5714-6.5566 6.6818-14.22 0.2658-14.218 0.2657-14.218-13.501 6e-4 -54.976 1e-4 -109.95 1e-4 -164.93 0.3898-1e-4 0.7795-1e-4 1.1693-2e-4z"/>
	<path d="m425.94 1082.6c0.9017-46.944 1.6257-89.584 2.628-132.22 0.1791-7.6195-2.5362-12.975-8.7633-17.237-15.546-10.642-28.851-23.621-35.155-41.742-8.6363-24.827-6.3279-48.896 10.458-69.813 19.56-24.374 58.638-24.925 81.849-4.1077 30.278 27.156 20.195 75.942 1.4952 95.628-7.3688 7.7573-15.123 15.223-24.531 20.338-7.1196 3.8712-9.5455 9.5092-10.088 16.995-1.6401 22.642-1.0724 45.293-0.5189 67.94 0.7325 29.976 1.5227 59.953 2.5986 89.919 1.1355 31.627 2.7144 63.237 3.9383 94.86 0.4795 12.39-0.462 13.217-12.934 13.78-2.9897 0.1348-6.0014 0.1653-8.9851-0.0298-6.5326-0.4272-7.9332-1.8517-7.6847-8.3235 0.6837-17.809 1.4846-35.614 2.2984-53.418 1.1711-25.626 2.3949-51.249 3.3946-72.573z"/>
	<path d="m63.926 650.43c2.6398 8.9361 2.5004 17.11 2.9208 25.164 0.9903 18.966 0.9754 37.987 2.7867 56.909 1.2685 13.252 3.9202 26.355 4.2978 39.712 0.0569 2.0131 0.5971 4.3458 3.2173 4.2288 2.3428-0.1046 2.6141-2.459 2.6815-4.1956 0.1549-3.988-0.0502-7.9893-0.0836-11.985-0.2412-28.822-0.4428-57.645-0.7413-86.467-0.0586-5.6596-0.5389-11.314-0.7094-16.974-0.0586-1.9462-0.3711-4.0303 1.3062-5.8986 1.9486 2.5916 2.0274 5.5985 2.3557 8.4936 3.2874 28.993 4.5958 58.117 5.7391 87.252 0.3076 7.8396 1.2606 15.604 2.9408 23.264 0.5467 2.4926 0.4726 6.5036 3.6482 6.2291 3.5806-0.3094 2.6984-4.4646 2.7112-7.035 0.0708-14.164 0.0439-28.331-0.2402-42.492-0.4646-23.158-1.1871-46.312-1.691-69.469-0.0474-2.1772-1.0938-6.0124 1.2273-6.187 2.7143-0.2042 1.81 3.7001 2.0835 5.7386 2.4386 18.178 2.8345 36.531 4.4786 54.78 1.6439 18.246 3.2778 36.496 5.2292 54.71 0.3581 3.3427-0.0212 9.331 3.9007 9.0439 4.0331-0.2953 1.794-5.8419 1.8015-9.025 0.0566-23.991 0.6677-47.984-0.6668-71.97-0.6477-11.641-0.722-23.316-0.9528-34.977-0.0502-2.5351-0.609-5.274 1.7899-8.1389 2.5386 6.1685 3.6688 12.156 4.691 18.089 3.0526 17.716 6.6087 35.398 8.5033 53.249 2.3684 22.315 4.9991 44.762 0.9102 67.23-2.8282 15.54-9.3405 29.11-21.218 39.793-4.3769 3.9366-6.3293 8.5639-6.0865 14.581 1.2373 30.662-1.7943 61.302-0.6708 91.969 2.5804 70.428 5.1996 140.85 7.8025 211.28 0.7015 18.981 1.5491 37.958 2.037 56.944 0.2321 9.0308-0.2713 9.1642-9.2349 10.664-6.4657 1.0815-12.945 1.0198-19.441 0.683-6.7619-0.3503-8.17-1.6404-8.0536-8.5526 0.3256-19.326 0.6205-38.658 1.3552-57.971 1.6152-42.46 3.9726-84.885 4.8761-127.38 1.0945-51.478 2.9308-102.94 4.4199-154.41 0.2361-8.162 0.2674-16.33 0.5233-24.491 0.1378-4.3958-1.0889-8.2779-4.0127-11.49-15.59-17.127-20.549-37.907-21.275-60.324-1.1716-36.167-0.4561-72.306 1.1135-108.44 0.1686-3.8792 0.1364-7.9694 3.7305-12.134z"/>
	<path d="m1033.9 257.52c1.5157-10.344 3.436-23.348 5.3239-36.357 2.3147-15.952 4.2025-31.978 6.9956-47.845 4.1832-23.764 7.7719-47.612 11.34-71.47 0.6163-4.1208 0.2653-8.2967 1.2825-12.403 3.9744-16.045 17.961-27.494 34.465-27.25 4.6797 0.0693 7.3727-1.4298 9.6808-5.1636 2.3307-3.77 5.4388-6.7018 10.316-6.9898 10.51-0.6206 13.582 8.8717 12.227 17.381-0.1552 0.9733-0.4479 1.9963-0.9519 2.8301-2.2183 3.6698-1.9459 6.9278 0.5825 10.51 2.2028 3.1209 2.9713 7.0013 3.8237 10.756 5.3054 23.369 10.618 46.737 16.01 70.086 6.7988 29.443 13.836 58.833 20.458 88.316 3.9752 17.698-4.7985 34.892-20.632 41.667-5.3716 2.2986-6.0751 1.9937-7.3721-3.705-8.791-38.624-17.519-77.262-26.35-115.88-1.8298-8.0018-0.4476-7.7538-9.2627-6.3938-4.934 0.7612-10.032 0.8429-14.945-0.0392-3.4177-0.6136-4.3885 0.4415-4.838 3.5888-4.2826 29.994-8.6862 59.971-13.028 89.956-1.5746 10.874-3.222 21.741-4.5383 32.647-0.494 4.0941-2.1538 4.4346-5.6351 3.3414-15.027-4.7186-24.996-18.512-24.952-37.586z"/>
	<path d="m1122.6 444.58c9.2026-1.6231 17.364 1.8254 25.47 5.3794 2.5913 1.1362 4.9717 2.7377 6.7251 5.0523 0.8491 1.1208 1.2822 2.3498 0.2323 3.6429-0.9806 1.2077-2.1398 1.4802-3.533 0.7596-0.5912-0.3058-1.2482-0.5047-1.7965-0.8702-7.5913-5.0584-16.265-3.6905-24.62-4.1042-2.8418-0.1407-5.3304 0.6192-5.7363 4.1425-0.2433 2.1117-1.7523 3.5228-3.0511 5.0443-4.8853 5.7227-6.6006 12.132-4.4449 19.515 10.818 37.054 11.651 75.203 12.198 113.36 0.1416 9.8963-8.0452 18.166-18.194 19.205-10.224 1.0464-19.943-5.8168-21.973-15.572-0.3374-1.6216-0.5609-3.2904-0.6128-4.9444-1.1108-35.458-2.1771-70.917-3.2834-106.37-0.2804-8.9882-0.7709-17.971-0.9633-26.96-0.0905-4.2212-1.916-6.0694-6.116-5.8733-9.8595 0.4604-19.13-1.8997-28.032-5.9971-2.3019-1.0594-4.3512-2.4478-6.1707-4.1808-1.222-1.1638-2.5022-2.4424-1.5602-4.3157 0.9324-1.8541 2.7129-2.5565 4.6344-2.1863 2.6006 0.5009 5.3177 0.9643 7.668 2.0995 9.9934 4.8276 20.591 4.896 31.292 4.4258 2.9307-0.1288 4.3049-0.9545 1.7506-3.7656-0.8666-0.9538-2.04-2.3767-1.8771-3.3934 0.896-5.5872-3.03-7.7088-6.5831-10.543-29.917-23.865-21.651-70.11 15.035-84.568 23.353-9.2034 50.778-1.5482 65.464 18.273 20.759 28.018 4.8816 68.255-30.45 77.034-3.3783 0.8394-6.8899 1.1358-10.332 1.7271-1.302 0.2236-2.9032 0.4098-2.7451 2.208 0.1583 1.8031 1.8705 1.6945 3.1213 1.7446 2.8239 0.1135 5.6555 0.0358 8.4842 0.0358z"/>
	<path d="m853.28 1093.2c1.1459-25.417 1.9016-55.925 1.3661-86.39-0.4539-25.826-0.7736-51.63-0.1381-77.442 0.6558-26.64 0.1578-53.335 3.5651-79.859 1.6169-12.586 4.5927-24.87 7.8339-37.104 0.3826-1.4443 0.6272-3.2101 2.3786-3.4708 1.9759-0.2943 2.8697 1.4698 3.6966 2.8639 6.0184 10.146 9.3948 21.272 11.979 32.683 5.3498 23.625 7.4678 47.698 9.7375 71.735 2.3014 24.372 5.0848 48.714 4.553 73.287-0.1345 6.2196-0.9114 11.326-6.6461 15.015-4.3906 2.8239-5.4729 7.679-5.7192 12.713-0.5408 11.054 1.4611 21.926 2.2341 32.884 1.8755 26.59 3.7504 53.182 5.8267 79.757 0.7 8.9592 1.894 17.886 3.0814 26.799 0.595 4.4663 2.0085 8.6576 4.7268 12.469 3.4572 4.8475 2.9481 10.825 3.6484 16.387 0.6648 5.2814 0.6843 10.641 1.2127 15.944 0.5268 5.2856-2.1309 7.4734-6.9606 8.3658-8.2735 1.5291-16.604 1.2218-24.926 1.16-5.3183-0.0396-10.647 0.1154-15.946-0.8541-4.5547-0.8334-6.6458-3.4597-6.6808-7.9078-0.0511-6.4989-0.2819-13.009 7e-4 -19.496 1.2265-28.151 0.8806-56.32 1.1764-89.537z"/>
	<path d="m588.76 908.51c0.6065 15.149-5.749 30.823-19.536 43.412-2.2109 2.0189-4.2039 4.2757-6.308 6.4124-5.6281 5.7157-7.4474 12.217-6.5688 20.444 2.9393 27.522 2.6113 55.226 3.6106 82.859 1.6857 46.615 0.3083 93.305 3.5544 139.88 0.0116 0.1661 0.0197 0.3328 0.0244 0.4993 0.3448 12.218-4.4118 16.23-16.466 13.728-3.3527-0.6957-4.9948-3.0403-5.136-6.4534-0.1997-4.8254-0.7697-9.6638-0.5783-14.473 1.4314-35.976 0.5341-71.964 0.8601-107.94 0.3123-34.478 1.3088-68.976 2.6655-103.41 0.5876-14.91-5.0948-23.772-15.307-32.127-24.949-20.41-27.546-59.231-5.678-83.022 13.674-14.876 39.382-14.273 52.378 1.2273 7.718 9.2057 12.825 23.655 12.486 38.964z"/>
	<path d="m1218.2 255.94c0.0757-18.495 8.1819-31.534 25.588-36.856 15.848-4.846 25.926-14.602 32.662-29.172 2.2875-4.947 3.3895-11.167 10.235-13.187 1.6301-0.481 2.0618-4.3526 3.4706-6.3666 7.7456-11.072 6.3165-21.23-0.1802-32.911-10.987-19.754-20.146-40.524-30.115-60.846-1.5061-3.07-2.4989-6.1807-1.7769-9.616 0.3989-1.898 1.4243-3.534 3.322-4.0405 2.1666-0.5782 2.6854 1.5128 3.5408 2.8369 13.011 20.14 25.978 40.308 39.038 60.416 1.0145 1.5622 1.6122 4.224 3.9568 3.9512 1.9869-0.2312 2.1707-2.7421 2.8895-4.3432 9.135-20.344 18.205-40.718 27.294-61.082 0.4746-1.0634 0.8662-2.1871 1.4941-3.1544 1.3446-2.0718 1.8356-5.7646 5.5227-4.3106 3.1301 1.2343 4.9569 3.9556 4.6814 7.5204-0.1393 1.8031-0.632 3.6067-1.1686 5.3472-7.8914 25.597-15.752 51.204-23.816 76.748-1.0195 3.2294-0.679 5.6969 1.1605 8.3793 3.4834 5.0794 5.7596 11.584 10.35 15.188 10.83 8.5033 16.378 21.544 27.324 29.784 6.5348 4.9194 14.048 6.5668 21.783 7.9875 24.197 4.4448 37.931 25.909 31.934 49.777-3.0884 12.29-12.123 19.738-25.006 20.66-4.1931 0.2999-8.3258-0.1911-12.426-0.9276-5.8005-1.0418-10.5-5.6676-10.478-11.604 0.0529-13.919-5.5804-25.94-12.13-37.538-6.6934-11.852-13.307-23.832-22.781-33.887-1.9882-2.1099-4.0873-4.9813-3.2201-8.0565 1.2151-4.3091-1.4612-4.5626-4.1667-4.7435-4.3301-0.2894-8.6227 0.3358-12.926 0.9133-4.9462 0.6636-9.9686 0.7477-14.924 1.3583-2.9172 0.3595-5.5383 1.1165-4.5454 5.3799 0.7126 3.0597-1.3734 5.728-2.799 8.338-9.1301 16.717-16.502 34.131-21.093 52.664-1.4116 5.6982-2.2612 11.402-1.2334 17.301 0.3955 2.2695 0.5741 4.703 0.2043 6.9555-1.0262 6.2537-3.6246 10.624-10.76 12.504-23.542 6.2035-41.005-6.8945-40.905-31.368zm8.6222-0.715c-0.3558 12.096 5.4531 21.62 13.387 22.871 8.4852 1.3376 14.873-4.5129 18.331-16.785 0.1354-0.4808 0.3262-0.9482 0.4316-1.4348 1.1637-5.3667 2.2643-10.748 3.4851-16.101 1.2755-5.5925 0.6488-10.8-3.9507-14.577-4.552-3.7387-9.7511-2.7544-14.66-0.5687-11.855 5.278-17.06 14.784-17.024 26.596zm183.31-6.1882c0.0829-16.251-10.096-29.321-24.435-31.375-11.655-1.6696-17.721 5.2715-13.876 16.402 2.3807 6.8933 5.4768 13.555 8.5165 20.199 1.667 3.6441 4.2512 6.7764 7.2625 9.4467 7.1696 6.3578 16.729 4.2667 20.555-4.4648 1.4197-3.2402 2.0482-6.6637 1.9778-10.208z"/>
	<path d="m858.99 584.09c-21.753 0.0796-40.658-2.2883-58.801-9.2002-7.3514-2.8005-14.315-6.3364-19.974-11.996-8.6766-8.6769-8.665-18.622 0.307-27.102 9.3869-8.8723 21.151-13.143 33.399-15.986 32.28-7.4927 64.376-7.1246 96.07 3.2553 7.4754 2.4482 14.518 5.871 20.602 10.973 11.485 9.632 11.586 21.308 0.0361 30.825-11.264 9.2821-24.894 13.148-38.843 16-11.617 2.3755-23.379 3.4663-32.794 3.2301zm0.9364-2.9394c3.4429 0.18 10.078-0.5428 16.682-1.2877 5.4402-0.6135 10.873-1.5831 16.199-2.8553 11.554-2.7602 22.823-6.3735 31.831-14.632 8.7527-8.0247 8.7863-17.337 0.2625-25.541-5.5048-5.2983-12.188-8.6974-19.341-11.064-31.96-10.575-64.066-10.526-96.167-0.7255-7.665 2.34-14.885 5.8475-20.894 11.353-8.8983 8.1532-8.9692 17.653-0.2438 25.922 4.6619 4.4182 10.236 7.3899 16.135 9.7535 16.786 6.7255 34.386 8.7798 55.536 9.0772z"/>
	<path d="m855.78 521.3c17.116 0.3753 33.42 2.1179 48.859 8.6975 5.2424 2.2344 10.165 4.9938 14.135 9.1686 6.2927 6.6175 6.2443 14.214-0.1226 20.806-4.3682 4.5226-9.7898 7.4753-15.565 9.6791-21.33 8.1395-43.427 9.333-65.851 6.7135-11.616-1.3569-22.978-3.9254-33.366-9.5555-6.982-3.7841-14.129-8.1345-14.203-17.165-0.0762-9.2975 7.1862-13.806 14.378-17.543 16.375-8.5078 34.222-10.26 51.736-10.802zm0.3418 53.79c8.3535 0.158 16.642-0.6288 24.813-2.2088 10.832-2.0947 21.461-4.9688 30.108-12.359 8.0695-6.8969 7.9924-15.087 0.0106-22.097-3.9274-3.4491-8.4611-5.9314-13.362-7.6137-27.372-9.3967-54.798-9.444-82.179-0.0694-5.6968 1.9505-10.988 4.8031-15.208 9.2538-5.8531 6.173-5.8773 12.879 0.0054 19.005 4.7266 4.9225 10.752 7.7744 17.066 9.9979 12.531 4.4129 25.532 5.9676 38.745 6.0905z"/>
	<path d="m855.8 526.9c12.538-0.1829 24.365 1.3051 35.81 5.283 4.7386 1.6468 9.2378 3.7803 13.164 6.9663 7.8373 6.3606 7.9124 14.127 0.164 20.541-3.3619 2.7829-7.1595 4.8766-11.279 6.2836-24.959 8.5252-49.923 8.5025-74.832-0.1961-4.2635-1.4888-8.1859-3.707-11.553-6.7778-6.6605-6.0745-6.73-12.787-0.1378-18.877 5.0154-4.6332 11.193-7.1091 17.6-9.0385 10.276-3.0942 20.813-4.3637 31.063-4.1842z"/>
</svg>
