<?xml version="1.0" encoding="UTF-8"?>
<svg viewBox="0 0 744.09 1052.4" xmlns="http://www.w3.org/2000/svg">
 <path d="m593.78 267.54c-2.5189 0.18801-4.4757 3.8564-6.3382 10.979-2.3897 9.1384-4.3486 10.139-9.3942 5.0932-12.354-12.354-18.337-7.188-15.053 13.016 2.5979 15.984 6.4986 21.03 22.41 28.522 10.603 4.9929 19.354 11.109 19.354 13.695 0 7.1441-33.352 26.258-45.839 26.258-6.0555 0-10.979 2.3244-10.979 5.2064 0 7.589-31.654 25.67-44.933 25.692-6.2231 0.01061-12.929 2.7441-14.94 5.9987-2.5861 4.1844 0.44303 4.8791 10.413 2.3768 11.738-2.946 13.795-2.034 12.337 5.6591-1.1696 6.1722-7.2664 9.7846-18.449 10.866-9.2078 0.89009-16.751 3.7912-16.751 6.4514 0 2.6604 2.3661 4.8667 5.2064 4.8668 14.396 0 1.2334 9.7871-32.596 24.334-47.077 20.243-62.092 24.135-78.436 20.033-11.554-2.8998-13.016-5.8574-13.016-28.296 0-72.195-41.314-114.2-112.5-114.2h-35.539l-57.61 58.968c-54.573 55.848-57.723 60.181-57.723 80.36 0 38.03 20.303 62.984 41.764 51.498 9.8241-5.2578 9.7838-5.5455-0.33954-19.354-5.6498-7.7067-11.707-21.25-13.469-30.22-2.6419-13.451-1.1061-17.501 8.4887-22.636 11.325-6.061 11.464-5.6159 8.3755 13.808-3.3669 21.177 2.1106 36.336 11.092 30.786 2.974-1.8381 10.4-16.658 16.412-32.936 10.75-29.11 21.533-42.443 34.294-42.443 4.6005 0 3.484 6.8237-3.9614 23.655-5.758 13.017-10.949 34.507-11.545 47.763-0.59553 13.256-5.112 31.542-9.96 40.632-12.658 23.733-11.261 46.009 3.8482 61.118 17.803 17.803 32.698 17.1 29.993-1.4714-3.902-26.79 5.4552-39.751 34.068-47.084 14.397-3.69 28.629-5.2179 31.578-3.3955 10.358 6.4015 5.1479 13.016-10.186 13.016-15.325 0-21.625 11.11-10.3 18.109 2.8403 1.7554 5.2064 7.6162 5.2064 13.129 0 5.5131 3.264 10.073 7.3569 10.073 12.236 0 15.45 11.38 5.3196 18.788-14.828 10.843-5.2924 13.913 21.844 7.0173 24.337-6.1846 25.521-5.9692 62.477 14.148l37.803 20.599-13.356 15.846-13.356 15.846 10.413 17.091c5.7517 9.434 10.515 22.585 10.526 29.201 0.01713 10.682-1.7488 11.624-15.506 8.6019-18.979-4.1685-20.388 3.914-2.1505 12.224 19.64 8.9488 12.712 18.788-13.242 18.788-13.204 0-23.248 2.6265-24.561 6.4514-1.4964 4.362 3.7734 6.4514 16.072 6.4514 21.143 0 26.485 6.2781 26.485 30.559 0 9.7661 2.9681 18.539 6.6778 19.807 4.918 1.6815 5.7954-1.5101 3.2823-12.337l-3.3955-14.714 16.072 17.091c8.8501 9.4015 18.614 15.509 21.731 13.582 3.8761-2.3956 3.2207-6.0603-2.2637-11.545-7.2499-7.25-7.1769-8.6326 0.79229-14.487 8.0003-5.8777 7.4562-6.9632-5.4328-11.884-13.814-5.2742-14.176-6.5581-14.148-45.612 0.03715-51.808 7.3331-76.94 28.409-98.016 17.417-17.416 33.502-22.387 33.502-10.3 0 3.7176 2.9365 10.884 6.5646 15.846 5.9149 8.0891 9.197 8.2719 31.238 2.3768 20.141-5.387 26.476-5.2501 35.426 0.33955 9.3216 5.8214 11.664 5.5958 15.619-1.4714 7.3524-13.138 15.984-9.889 12.337 4.6405-4.3488 17.327 4.142 16.306 17.204-2.0373 12.862-18.064 29.371-22.856 57.044-16.638 20.375 4.578 20.826 4.3413 20.826-9.5073 0-7.7788-4.7364-18.416-10.526-23.655-10.302-9.3236-11.314-9.0733-47.763 10.639-43.631 23.596-82.621 27.633-101.52 10.526-21.282-19.26-13.715-39.365 34.294-91.791 15.753-17.203 22.184-28.792 22.184-39.614 0-20.492 4.7461-31.578 13.469-31.578 4.856 0 7.3035 6.2818 7.3569 19.354 0.04349 10.651 2.2267 22.79 4.98 27.051 4.0664 6.2921 5.029 5.608 5.0932-3.6219 0.04349-6.2495 4.0775-13.576 8.9414-16.298 8.0329-4.4955 8.1747-7.4269 1.8109-32.257-5.1585-20.127-5.3692-27.864-1.0186-29.314 3.2498-1.0833 5.8855-5.9404 5.8855-10.752 0-4.812 3.7859-14.224 8.4887-20.939l8.6019-12.224 9.6205 18.788c7.1104 13.86 13.006 18.901 22.297 18.902 14.672 0 22.338-11.976 27.616-42.896 2.7065-15.854 6.4616-22.084 13.921-23.429 18.204-3.2806 20.164-10.526 4.5273-16.525l-15.053-5.7723 14.374-11.545c16.233-13.028 13.965-18.675-7.5832-18.675-8.5446 0-16.124-3.3384-17.883-7.9228-4.002-10.429-28.85-23.089-45.386-23.089-7.5304 0-15.879-4.373-19.581-10.3-4.1669-6.6723-7.2148-9.9217-9.7337-9.7337zm-336.72 97.676c31.875-0.21982 63.609 20.329 63.609 41.198 0 14.398-5.9313 12.858-23.542-5.8855-8.3423-8.8791-24.518-20.432-35.879-25.692l-20.599-9.5073 16.412-0.1132zm-23.089 67.344c10.45-0.45015 22.184 2.757 22.184 7.3569 0 7.1188-31.797 9.6177-35.992 2.8296-1.8667-3.0205 0.067-6.7508 4.3009-8.3755 2.7344-1.0493 6.0238-1.6608 9.5073-1.8109zm-15.166 35.766c6.4688 0 17.049 3.7144 23.542 8.2623 10.974 7.6863 11.301 8.9325 3.5087 17.543-8.4117 9.2948-31.045 16.378-36.105 11.318-1.4869-1.487-2.7164-10.452-2.7164-19.92 0-14.47 1.884-17.204 11.771-17.204zm45.16 36.218c23.937 0 21.324 6.4368-6.5646 16.072-31.226 10.788-29.654 10.449-29.654 7.3569 0-7.5048 24.608-23.429 36.218-23.429z"/>
</svg>
