<?xml version="1.0" encoding="UTF-8"?>
<svg width="274.69" height="135" version="1.1" viewBox="0 0 274.6875 135" xmlns="http://www.w3.org/2000/svg">
 <path d="m80.395 133.27c-4.7255-2.087-4.5404-4.1701 0.49007-5.5156 3.5318-0.94461 9.8976-11.295 7.956-12.936-2.1937-1.8543-4.6699-1.2724-5.6515 1.3281-1.2518 3.3164-2.3164 3.8809-8.4936 4.5042-5.5532 0.56033-9.0714-0.23702-9.0714-2.0559 0-1.4914 3.993-2.8837 5.5358-1.9301 0.87426 0.54031 5.3289-6.7364 4.5815-7.4839-0.17933-0.17933-3.764-2.5642-7.9659-5.2998-24.408-15.89-42.65-39.485-51.805-67.007-3.7828-11.372-6.329-15.942-10.547-18.93-7.4374-5.2699-6.516-11.599 2.122-14.577 6.7211-2.317 9.9311-1.5837 11.711 2.6755 1.712 4.0974 2.4139 4.2549 9.7486 2.1868 43.062-12.142 173.61-10.273 216.76 3.1026l9.0459 2.8039 3.5068-2.3797c3.8384-2.6048 9.0338-3.1193 13.045-1.2918 7.182 3.2723-0.5165 15.787-9.7115 15.787-3.0024 0-6.5457 4.4397-8.6979 10.898-9.9996 30.009-31.839 55.936-60.439 71.751l-5.7674 3.1892 1.2657 2.7838c2.1995 4.8375 3.6953 6.065 7.3908 6.065 5.368 0 4.549 3.952-0.87168 4.2065-6.6715 0.31315-7.7511-0.28417-10.317-5.7086-2.6655-5.6343-2.6407-5.622-7.362-3.6493-16.285 6.8044-43.915 9.2178-63.956 5.5863-11.29-2.0458-10.947-2.1515-13.071 4.0184-2.8943 8.4062-10.892 11.649-19.429 7.8787zm10.961-1.9277c1.69-0.66137 1.6554-0.7594-0.46875-1.3276-5.0817-1.3592-10.605-0.35698-8.6743 1.5739 0.80634 0.80633 6.8706 0.64292 9.1431-0.24638zm6.8419-8.9249c2.1948-6.7691 2.1593-7.3257-0.49069-7.697-0.88742-0.12431-2.6816-0.4347-3.987-0.68975-3.9824-0.77806-8.779 13.654-4.8921 14.72 5.5879 1.5317 7.1655 0.46545 9.3698-6.333zm98.677 0.28941c0-0.6394-1.1533-0.87463-2.9764-0.60706-2.339 0.34329-3.4111-0.0684-5.0058-1.9224-1.1636-1.3527-2.2797-1.9543-2.6162-1.4099-1.1934 1.931 3.0238 4.9834 6.8849 4.9834 2.103 0 3.7135-0.45273 3.7135-1.0439zm-49.089-2.2373c0.2968-0.77344 1.1522-1.4062 1.9009-1.4062s1.1006 0.42188 0.78187 0.9375c-0.94361 1.5268 3.8767 1.073 5.1713-0.48687 0.82424-0.99315 2.0966-1.2528 4.2026-0.85773 2.296 0.43072 3.1629 0.1955 3.6143-0.98068 0.46594-1.2142 0.19139-1.4196-1.2753-0.9541-1.0703 0.33969-1.8691 0.16555-1.8691-0.40744 0-1.28 1.2554-1.2616 5.748 0.0845 3.1169 0.93385 3.8753 0.85571 5.4403-0.56059 1.0002-0.90515 2.2192-1.3981 2.7088-1.0954s1.3882-0.0496 1.9966-0.78269c0.60844-0.73313 1.873-1.2752 2.8102-1.2046 2.2146 0.16681 9.5002-3.1177 8.937-4.029-0.23808-0.38523 0.2639-1.2756 1.1155-1.9785 1.1538-0.95239 1.6444-0.99289 1.9252-0.15889 0.20727 0.61557 0.95578 0.89705 1.6634 0.62553 1.823-0.69955 0.62698-3.151-1.5374-3.151-0.99227 0-2.047 0.63281-2.3438 1.4062-0.59986 1.5632-3.1515 1.9427-3.1515 0.46873 0-0.51562-1.793-0.98644-3.9844-1.0462-2.1914-0.0598-3.1704-0.31625-2.1757-0.56986s2.4231-1.0756 3.1741-1.8265c0.96526-0.96525 1.6578-1.073 2.3632-0.36764 1.4414 1.4414 4.3728 1.2264 4.3728-0.32071 0-0.85828-0.73626-1.1819-2.1094-0.9271-1.1602 0.21525-1.6057 0.1485-0.99016-0.14835 1.6656-0.80322 0.38743-3.2107-1.3506-2.5438-0.92748 0.35591-1.2472 0.18824-0.85407-0.44787 0.34561-0.55921 0.0984-1.2146-0.54933-1.4564-0.76916-0.28716-0.54677-0.69866 0.64106-1.1862 1.1591-0.47578 1.9525-0.34535 2.1875 0.35961 0.5319 1.5957 4.601 1.3626 5.239-0.30008 0.57872-1.5082 3.411-1.9703 3.411-0.55655 0 0.46735 0.84375 0.62909 1.875 0.35941 1.0312-0.26968 1.875-0.89651 1.875-1.393 0-0.51521 1.2072-0.63751 2.8125-0.28492 1.7695 0.38865 2.8125 0.24244 2.8125-0.39426 0-0.55659 0.86865-1.012 1.9303-1.012 3.1569 0 1.0848 1.797-3.3639 2.9172-2.2741 0.57262-4.6715 1.6879-5.3276 2.4785-1.0279 1.2386-0.90218 1.3451 0.90915 0.77016 1.5794-0.50128 2.102-0.29449 2.102 0.83169 0 1.7141-3.0023 3.2143-3.4921 1.7449-0.17782-0.53345-1.3855-0.76685-2.6837-0.51869l-2.3604 0.45122 1.9451 1.8122c1.0698 0.99669 1.6886 2.2273 1.375 2.7347-0.31359 0.50742 1.5755-0.39766 4.198-2.0113 2.6225-1.6136 4.7681-3.5305 4.7681-4.2597 0-0.72922 0.79455-1.3258 1.7657-1.3258 1.0131 0 1.9882-0.85105 2.2878-1.9968 0.34009-1.3005 1.0152-1.8076 1.9362-1.4541 1.9894 0.76341 11.465-7.7989 9.782-8.8391-1.0013-0.61885-0.99103-0.97789 0.0564-1.9679 1.0478-0.99031 1.3641-0.98354 1.7363 0.03717 0.32685 0.89638 1.1985 0.53583 3.0933-1.2795 1.451-1.3902 2.4162-3.1061 2.1449-3.8132-0.30091-0.78415 0.45801-1.6473 1.9457-2.2129 1.5187-0.57739 2.4391-1.6436 2.4391-2.8255 0-1.0623 0.61927-1.8982 1.4062-1.8982 1.2605 0 1.8159-1.0983 1.5266-3.0189-0.0559-0.37132 0.75813-1.1353 1.809-1.6977 1.3206-0.70674 1.7326-1.5839 1.334-2.8398-0.42617-1.3427 5e-3 -2.0384 1.6517-2.6644 3.3797-1.285 11.837-19.779 9.0449-19.779-1.0267 0-0.81629-2.9375 0.62583-8.7352l0.65702-2.6414-3.637 1.5836c-11.19 4.8723-32.669 10.157-45.356 11.16-4.3828 0.34635-11.555 1.0732-15.938 1.6151-54.306 6.7153-138.6-1.5187-164.92-16.11-6.1389-3.403-5.8581-3.676-3.8603 3.7534 2.9694 11.043 6.597 18.875 8.4673 18.281 1.0323-0.32764 1.8791 0.06429 2.2549 1.0437 0.84349 2.1981-0.041 2.7416-1.9515 1.1992-2.2464-1.8135 4.5339 10.337 10.374 18.591 2.7577 3.8975 5.3882 6.6828 6.1976 6.5625 0.83304-0.12386 1.3528 0.46207 1.2751 1.4375-0.07685 0.96441 3.5248 5.1066 8.6936 9.9984 8.6213 8.1592 15.344 13.107 15.344 11.292 0-0.49824 0.63281-0.90588 1.4062-0.90588 0.77344 0 1.4062 0.65771 1.4062 1.4616 0 0.86716-0.4766 1.2154-1.1719 0.85614-0.64453-0.33299-0.11719 0.26267 1.1719 1.3237 2.797 2.3022 11.592 7.1078 15.495 8.467 2.3181 0.80712 2.4849 0.77714 0.99333-0.17852-0.986-0.63173-2.568-1.8869-3.5156-2.7892-0.94759-0.90234-2.5666-1.6406-3.5979-1.6406s-1.875-0.40864-1.875-0.90808 0.63281-0.66524 1.4062-0.36845c0.77344 0.2968 1.4062 0.0727 1.4062-0.49817 0-0.57079-0.42188-1.0378-0.9375-1.0378s-0.9375-0.65771-0.9375-1.4616 0.42188-1.2008 0.9375-0.88217 0.9375 0.13762 0.9375-0.40235c0-0.53996-1.6968-1.2531-3.7708-1.5847-2.0739-0.33164-4.0252-1.0146-4.3362-1.5178-0.32383-0.52397 0.1857-0.70884 1.1927-0.43274 5.7305 1.5713 7.1208 1.5378 10.844-0.26125 3.919-1.8935 3.9193-1.8935 5.9143-0.01922 2.2825 2.1443 3.3854 2.3986 3.0461 0.70244-0.12891-0.64453 0.39844-1.1719 1.1719-1.1719 0.77344 0 1.3498 0.72541 1.2808 1.612-0.069 0.88661 0.60788 1.8448 1.5042 2.1292 3.4983 1.1103 14.61 2.0776 15.528 1.3516 0.53292-0.42179 1.5272-0.42188 2.2095-2e-4 0.82883 0.51225 0.90976 0.9711 0.24388 1.3826-1.7008 1.0511-0.1107 3.2412 2.226 3.066 2.853-0.2139 3.471 1.6118 0.67983 2.0082-2.4712 0.35096-3.1235 4.8567-0.70312 4.8567 0.77344 0 1.4062 0.40864 1.4062 0.90808 0 0.49943-0.62098 0.66978-1.38 0.37853-2.0244-0.77685-7.0575 1.7336-7.0575 3.5201 0 3.1803 36.905 5.3352 38.098 2.2245zm-24.036-0.46875c0-0.51562 0.84375-0.9375 1.875-0.9375s1.875 0.42188 1.875 0.9375c0 0.51563-0.84375 0.9375-1.875 0.9375s-1.875-0.42187-1.875-0.9375zm8.4375 0c0-0.51562 0.86865-0.9375 1.9303-0.9375s1.6696 0.42188 1.3509 0.9375c-0.31868 0.51563-1.1873 0.9375-1.9303 0.9375s-1.3509-0.42187-1.3509-0.9375zm7.9688 0c0.31868-0.51562 1.1873-0.9375 1.9303-0.9375s1.3509 0.42188 1.3509 0.9375c0 0.51563-0.86865 0.9375-1.9303 0.9375s-1.6696-0.42187-1.3509-0.9375zm-24.844-0.9375c0-0.51562 0.84375-0.9375 1.875-0.9375s1.875 0.42188 1.875 0.9375c0 0.51563-0.84375 0.9375-1.875 0.9375s-1.875-0.42187-1.875-0.9375zm12.631-1.8341c0.30475-0.49311 1.1734-0.6589 1.9303-0.36845 1.9379 0.74366 1.7096 1.265-0.55411 1.265-1.0617 0-1.681-0.40345-1.3762-0.89656zm16.432 0.52811c0-0.88934 2.8063-1.3376 3.3066-0.52811 0.30477 0.49311-0.31454 0.89656-1.3762 0.89656s-1.9303-0.16581-1.9303-0.36845zm7.5-0.56905c0-0.51562 0.63281-0.9375 1.4062-0.9375s1.4062 0.42188 1.4062 0.9375c0 0.51563-0.63281 0.9375-1.4062 0.9375s-1.4062-0.42187-1.4062-0.9375zm-28.594-1.875c-0.31868-0.51562 0.28924-0.9375 1.3509-0.9375s1.9303 0.42188 1.9303 0.9375c0 0.51563-0.60791 0.9375-1.3509 0.9375-0.743 0-1.6116-0.42187-1.9303-0.9375zm8.9062 0c0-0.51562 0.63281-0.9375 1.4062-0.9375s1.4062 0.42188 1.4062 0.9375c0 0.51563-0.63281 0.9375-1.4062 0.9375s-1.4062-0.42187-1.4062-0.9375zm7.5 0c0-0.51562 0.84375-0.9375 1.875-0.9375s1.875 0.42188 1.875 0.9375c0 0.51563-0.84375 0.9375-1.875 0.9375s-1.875-0.42187-1.875-0.9375zm9.3934 0.0114c-1.1638-0.71928-1.1209-0.94444 0.28264-1.483 1.9561-0.75062 3.2333 0.18721 1.9723 1.4482-0.53252 0.53252-1.4273 0.54633-2.255 0.0348zm6.5441-0.84864c0-1.1421 2.7596-2.1187 3.9347-1.3924 0.59782 0.36947 0.47895 0.88935-0.31898 1.3949-1.6664 1.0559-3.6157 1.0545-3.6157-3e-3zm10.312-1.9753c1.8176-1.1746 2.8125-1.1746 2.8125 0 0 0.51563-0.94922 0.93104-2.1094 0.92315-1.7057-0.0116-1.8403-0.18827-0.70312-0.92315zm-46.346-0.83927c-0.28528-0.46159 0.0982-1.076 0.85215-1.3653 1.465-0.56218 2.7162 0.6068 1.7179 1.6051-0.84751 0.84751-1.9624 0.74351-2.5701-0.23976zm8.1126-0.24307c0.48659-1.4598 2.584-1.7154 2.6575-0.32391 0.0273 0.51563-0.65416 1.0833-1.5142 1.2614-0.97754 0.20249-1.4061-0.14895-1.1433-0.9375zm8.4478-0.0309c0.57944-1.7383 2.5976-2.0266 2.5976-0.37109 0 0.8164-0.66797 1.4844-1.4844 1.4844-0.81641 0-1.3174-0.50097-1.1133-1.1133zm8.2226 0.17578c0-0.51562 0.86865-0.9375 1.9303-0.9375s1.6696 0.42188 1.3509 0.9375c-0.31868 0.51563-1.1873 0.9375-1.9303 0.9375s-1.3509-0.42187-1.3509-0.9375zm8.1505 0.33799c-0.87491-0.87491 0.18237-2.213 1.7486-2.213 0.74301 0 1.3509 0.63281 1.3509 1.4062 0 1.4121-1.979 1.9272-3.0995 0.80674zm9.662-1.6755c0-0.86966 0.80156-1.475 1.9531-1.475 2.2847 0 1.9618 2.1907-0.39019 2.6469-0.92508 0.17942-1.5629-0.29884-1.5629-1.1719zm10.781 0.40001c0.31868-0.51562 1.1873-0.9375 1.9303-0.9375s1.3509 0.42188 1.3509 0.9375c0 0.51563-0.86865 0.9375-1.9303 0.9375s-1.6696-0.42187-1.3509-0.9375zm8.4375-0.9375c0.31868-0.51562 1.2122-0.9375 1.9856-0.9375 0.77344 0 1.1455 0.42188 0.82685 0.9375-0.31868 0.51563-1.2122 0.9375-1.9856 0.9375-0.77344 0-1.1455-0.42187-0.82685-0.9375zm-11.719-0.93754c0-0.51562 0.63281-0.9375 1.4062-0.9375s1.4062 0.42188 1.4062 0.9375c0 0.51563-0.63281 0.9375-1.4062 0.9375s-1.4062-0.42187-1.4062-0.9375zm-45.938-1.3281c0-0.8164 0.66797-1.4844 1.4844-1.4844 1.6556 0 1.3672 2.0182-0.37109 2.5976-0.61231 0.20411-1.1133-0.29687-1.1133-1.1133zm8.642 0.24579c0.48659-1.4598 2.584-1.7154 2.6575-0.32391 0.0273 0.51563-0.65416 1.0833-1.5142 1.2614-0.97754 0.20249-1.4061-0.14895-1.1433-0.9375zm8.233-0.32391c0-0.77344 0.42187-1.4062 0.9375-1.4062 0.51562 0 0.9375 0.63281 0.9375 1.4062s-0.42188 1.4062-0.9375 1.4062c-0.51563 0-0.9375-0.63281-0.9375-1.4062zm8.1916 0.70161c-0.90866-0.20612-1.4111-0.76471-1.1166-1.2413 0.70228-1.1363 4.1749-1.1233 4.1749 0.0157 0 1.2238-1.1084 1.668-3.0584 1.2257zm29.308-0.23286c0-0.51562 0.65771-0.9375 1.4616-0.9375s1.2008 0.42188 0.88217 0.9375c-0.31868 0.51563-0.97639 0.9375-1.4616 0.9375-0.4852 0-0.88217-0.42187-0.88217-0.9375zm-21.358-1.0823c0.48659-1.4598 2.584-1.7154 2.6575-0.32391 0.0273 0.51563-0.65416 1.0833-1.5142 1.2614-0.97754 0.20249-1.4061-0.14895-1.1433-0.9375zm9.4044-1.027c0.59066-1.7739 3.5161-2.0261 3.5161-0.30312 0 0.86966-0.80156 1.475-1.9531 1.475-1.1456 0-1.7918-0.48452-1.563-1.1719zm7.4702-0.84797c0.23102-0.69377 1.1719-1.4072 2.0909-1.5853 1.0688-0.20718 1.5195 0.13066 1.2509 0.9375-0.23102 0.69377-1.1719 1.4072-2.0909 1.5853-1.0688 0.20718-1.5196-0.13066-1.2509-0.9375zm-53.935-0.46063c-1.2226-1.2226-0.6389-2.207 1.3086-2.207 1.091 0 1.7893 0.49141 1.582 1.1133-0.45666 1.37-2.022 1.9623-2.8906 1.0938zm8.0078-1.4453c0.57862-1.7359 2.3074-1.9327 2.9215-0.33259 0.38886 1.0133-0.0206 1.4459-1.3689 1.4459-1.0683 0-1.7587-0.49504-1.5526-1.1133zm8.2226-0.29297c0-0.96559 0.61444-1.4254 1.6406-1.2278 1.9761 0.38056 1.8515 2.0444-0.18485 2.4684-0.84936 0.17686-1.4558-0.33993-1.4558-1.2406zm7.5 0c0-0.77344 0.63281-1.4062 1.4062-1.4062s1.4062 0.63281 1.4062 1.4062-0.63281 1.4062-1.4062 1.4062-1.4062-0.63281-1.4062-1.4062zm8.4375 0.56905c0-1.0538 2.4386-2.0368 3.1896-1.2857 1.1285 1.1285 0.51278 2.1229-1.3146 2.1229-1.0312 0-1.875-0.37674-1.875-0.8372zm-79.257-1.1002c-0.33988-0.54993-0.39284-1.225-0.1177-1.5001 0.67154-0.67154 2.5 0.51171 2.5 1.6178 0 1.1981-1.6185 1.1181-2.3823-0.1177zm88.632-0.40638c0-0.77344 0.60791-1.4062 1.3509-1.4062 1.9834 0 2.627 1.5869 0.91077 2.2455-2.0895 0.80181-2.2617 0.73791-2.2617-0.83927zm9.375-0.9375c0-0.77344 0.63281-1.4062 1.4062-1.4062s1.4062 0.63281 1.4062 1.4062-0.63281 1.4062-1.4062 1.4062-1.4062-0.63281-1.4062-1.4062zm7.9302 0.40638c-0.86282-1.3961 0.13756-2.1551 1.9325-1.4663 0.82836 0.31787 1.2435 1.0028 0.92262 1.5221-0.75992 1.2296-2.0767 1.2038-2.8552-0.0558zm-71.276-1.9174c-0.93576-1.5141 1.6346-2.8015 3.1246-1.5649 1.0184 0.84519 1.0242 1.1773 0.0314 1.807-1.6506 1.0471-2.3946 0.99001-3.156-0.24208zm8.633 0.39183c-1.0558-1.0558-0.64302-2.162 0.80674-2.162 0.77344 0 1.4062 0.39698 1.4062 0.88217 0 1.1822-1.464 2.0288-2.213 1.2798zm6.6204 0.05794c-1.2819-1.2819-0.63076-2.3461 1.2547-2.0507 1.0517 0.16476 1.9177 0.72145 1.9245 1.2371 0.0151 1.141-2.2677 1.7252-3.1792 0.81366zm8.8624-0.7552c0.17815-0.86006 0.74578-1.5415 1.2614-1.5142 1.3915 0.0735 1.1359 2.1709-0.32391 2.6575-0.78855 0.26286-1.14-0.16572-0.9375-1.1433zm16.749 0.42169c-1.1638-0.71928-1.1209-0.94444 0.28264-1.483 1.9561-0.75062 3.2333 0.18722 1.9723 1.4482-0.53252 0.53252-1.4273 0.54633-2.255 0.03478zm-47.831-1.4177c0-0.77344 0.63281-1.4062 1.4062-1.4062s1.4062 0.63281 1.4062 1.4062c0 0.77344-0.63281 1.4062-1.4062 1.4062s-1.4062-0.63281-1.4062-1.4062zm38.672 0.23438c0.21485-0.64453 0.95313-1.1719 1.6406-1.1719s1.4258 0.52734 1.6406 1.1719c0.23237 0.69712-0.43229 1.1719-1.6406 1.1719s-1.873-0.47476-1.6406-1.1719zm16.875 0c0.59066-1.7739 3.5161-2.0261 3.5161-0.30311 0 0.86965-0.80156 1.475-1.9531 1.475-1.1456 0-1.7918-0.48452-1.563-1.1719zm9.3452-0.84797c0.23102-0.69377 1.1719-1.4072 2.0909-1.5853 1.0688-0.20719 1.5195 0.13066 1.2509 0.9375-0.23102 0.69377-1.1719 1.4072-2.0909 1.5853-1.0688 0.20719-1.5196-0.13066-1.2509-0.9375zm8.6465 0.05475c-0.81292-1.3153 2.3792-2.1801 3.5875-0.97186 0.58409 0.58409 0.87214 1.0943 0.6401 1.1337-0.23203 0.03947-1.1585 0.21281-2.0588 0.38525s-1.8763-0.07378-2.1688-0.5471zm-97.913-0.96533c-4.2444-0.82572-7.3696-1.4158-8.6719-1.6374-0.38672-0.065803-0.70312-0.54152-0.70312-1.0571 0-1.2547 3.4755-1.2025 4.2583 0.06394 0.3404 0.55078 1.2625 0.75444 2.0492 0.45258 0.78664-0.30186 2.0275-0.05316 2.7574 0.55261 0.94991 0.78835 1.6148 0.81377 2.3392 0.08944 1.2754-1.2754 3.596-0.44583 3.596 1.2855 0 0.71827-0.31641 1.2531-0.70312 1.1886-0.38672-0.0645-2.6016-0.48668-4.9219-0.93808zm125.62 0.11793c0-0.51562 0.42187-0.9375 0.9375-0.9375 0.51562 0 0.9375 0.42188 0.9375 0.9375s-0.42188 0.9375-0.9375 0.9375c-0.51563 0-0.9375-0.42188-0.9375-0.9375zm-141.13-0.99987c-0.33988-0.54993-0.39284-1.225-0.1177-1.5001 0.67154-0.67154 2.5 0.51172 2.5 1.6178 0 1.1981-1.6185 1.1181-2.3823-0.1177zm44.193-0.62722c-1.006-1.006-0.59004-2.1229 0.79051-2.1229 0.74301 0 1.5843 0.37767 1.8696 0.83926 0.59644 0.96508-1.815 2.1287-2.6601 1.2836zm7.1441-0.39275c0.4866-1.4598 2.584-1.7154 2.6575-0.32391 0.0272 0.51562-0.65416 1.0833-1.5142 1.2614-0.97754 0.20249-1.4061-0.14895-1.1433-0.9375zm8.233-0.32391c0-0.85938 0.45352-1.4113 1.0078-1.2266 0.5543 0.18476 1.0078 0.73672 1.0078 1.2266s-0.45351 1.0418-1.0078 1.2266c-0.55429 0.18477-1.0078-0.36718-1.0078-1.2266zm7.5 0.46875c0-0.51562 0.63281-0.9375 1.4062-0.9375s1.4062 0.42188 1.4062 0.9375-0.63281 0.9375-1.4062 0.9375-1.4062-0.42188-1.4062-0.9375zm8.125 0.3125c-1.0787-1.0787-0.68272-2.1875 0.78125-2.1875 0.77344 0 1.4062 0.63281 1.4062 1.4062 0 1.464-1.1088 1.86-2.1875 0.78125zm8.0469-0.54687c0.21485-0.64453 0.95313-1.1719 1.6406-1.1719s1.4258 0.52734 1.6406 1.1719c0.23237 0.69712-0.43229 1.1719-1.6406 1.1719s-1.873-0.47476-1.6406-1.1719zm-54.902-0.37109c-1.2226-1.2226-0.6389-2.207 1.3086-2.207 1.091 0 1.7893 0.49141 1.582 1.1133-0.45667 1.37-2.0221 1.9623-2.8906 1.0938zm7.3643-0.26725c-0.29666-0.48-0.11062-1.1377 0.41342-1.4616 1.1188-0.69145 2.8278 0.18616 2.8278 1.4521 0 1.1408-2.5375 1.1481-3.2412 0.0095zm56.21-0.064781c0.31868-0.51562 1.1873-0.9375 1.9303-0.9375s1.3509 0.42188 1.3509 0.9375-0.86865 0.9375-1.9303 0.9375-1.6696-0.42188-1.3509-0.9375zm7.9688 0c0-0.51562 0.86865-0.9375 1.9303-0.9375s1.6696 0.42188 1.3509 0.9375-1.1873 0.9375-1.9303 0.9375-1.3509-0.42188-1.3509-0.9375zm9.375-0.46875c0-0.96559 0.61444-1.4254 1.6406-1.2278 1.9761 0.38056 1.8515 2.0444-0.18485 2.4684-0.84936 0.17686-1.4558-0.33993-1.4558-1.2406zm-108.12-0.15625c-1.0787-1.0787-0.68273-2.1875 0.78125-2.1875 0.77344 0 1.4062 0.63281 1.4062 1.4062 0 1.464-1.1088 1.86-2.1875 0.78125zm117.5-0.85938c0-1.6556 2.0182-1.3672 2.5976 0.37109 0.20411 0.6123-0.29687 1.1133-1.1133 1.1133-0.8164 0-1.4844-0.66797-1.4844-1.4844zm-108.94-0.7452c-5.7012-1.1207-8.2871-2.6785-6.3911-3.8502 0.59304-0.36652 1.8055-0.0083 2.6944 0.79617 0.96411 0.87251 2.4532 1.2437 3.6909 0.92 1.2623-0.33009 2.0748-0.11598 2.0748 0.54675 0 0.74542 1.0787 0.88696 3.4168 0.44833 2.2978-0.43107 3.217-0.31769 2.8067 0.3462-0.33556 0.54295-0.08015 1.2009 0.5676 1.462 2.0526 0.82751-3.3038 0.42292-8.86-0.66924zm12.381 0.35458c0-0.51562 0.63281-0.9375 1.4062-0.9375 0.77344 0 1.4062 0.42188 1.4062 0.9375s-0.63281 0.9375-1.4062 0.9375c-0.77344 0-1.4062-0.42188-1.4062-0.9375zm105.38-0.70312c1.2594-1.2016 1.8358-1.3271 2.154-0.46875 0.51768 1.3963 5.9032 1.5938 5.9032 0.21651 0-0.55602 0.99971-0.70445 2.3917-0.35509 1.7243 0.43277 2.7424 0.12063 3.6486-1.1186 1.1015-1.5064 1.4558-1.5538 2.866-0.38342 1.4104 1.1705 1.7648 1.1227 2.8689-0.38735 0.85393-1.1678 1.8028-1.4976 2.9454-1.0238 3.7908 1.572-9.958 5.1442-19.843 5.1557-4.4624 0.0053-4.5832-0.06212-2.9345-1.6352zm-132.33 0.082237c-1.1451-0.46207-1.6919-3.1291-0.64149-3.1291 1.4734 0 4.1391 2.0831 3.6593 2.8595-0.59182 0.95759-1.1821 1.0103-3.0178 0.26958zm68.668-0.32323c-0.32091-0.51927 0.0943-1.2042 0.92262-1.5221 1.795-0.6888 2.7954 0.07024 1.9325 1.4663-0.77848 1.2596-2.0952 1.2853-2.8552 0.05575zm15.942 0.0066c-0.68363-1.1061 0.20313-2.8125 1.4616-2.8125 0.48519 0 0.88217 0.84375 0.88217 1.875 0 1.9773-1.364 2.5228-2.3438 0.9375zm69.844 0c0-0.5156 0.63281-0.93748 1.4062-0.93748s1.4062 0.42188 1.4062 0.9375-0.63281 0.9375-1.4062 0.9375-1.4062-0.42188-1.4062-0.9375zm-102.19-1.475c0-0.87304 0.63785-1.3513 1.5629-1.1719 2.352 0.45614 2.6749 2.6469 0.39019 2.6469-1.1516 0-1.9531-0.60533-1.9531-1.475zm8.1505 0.87548c-0.97742-0.97743 0.26057-2.213 2.2174-2.213 1.0008 0 1.8197 0.63281 1.8197 1.4062 0 1.3905-2.8781 1.9657-4.037 0.80674zm15.287-0.2232c0-1.8459 2.5341-2.9861 3.6495-1.6421 0.84528 1.0185 0.75201 1.4364-0.42103 1.8866-2.1016 0.80647-3.2285 0.72113-3.2285-0.24447zm16.402-0.12141c-0.70754-1.1448 1.8645-2.2778 3.2404-1.4274 0.54032 0.33393 0.9824 1.0041 0.9824 1.4893 0 1.1823-3.4854 1.1312-4.2228-0.06195zm9.1144-0.13822c0.23102-0.69377 1.1719-1.4072 2.0909-1.5853 1.0688-0.20718 1.5196 0.13066 1.2509 0.9375-0.23102 0.69377-1.1719 1.4072-2.0909 1.5853-1.0688 0.20718-1.5196-0.13066-1.2509-0.9375zm8.583-0.04799c-0.64789-1.0483 1.4724-2.7541 2.8731-2.3115 0.48339 0.15275 1.028 0.72499 1.2102 1.2716 0.43753 1.3126-3.3229 2.2702-4.0833 1.0398zm-73.056-0.82636c-0.34644-0.56055-0.19716-1.4519 0.33174-1.9808 1.1828-1.1828 3-0.18386 3 1.6491 0 1.5784-2.4128 1.8186-3.3317 0.33174zm7.3157-0.15269c0.59066-1.7739 3.5161-2.0261 3.5161-0.30312 0 0.86966-0.80156 1.475-1.9531 1.475-1.1456 0-1.7918-0.48452-1.5629-1.1719zm75.235 0.23438c-0.68363-1.1061 0.20313-2.8125 1.4616-2.8125 0.48519 0 0.88217 0.84375 0.88217 1.875 0 1.9773-1.364 2.5228-2.3438 0.9375zm-89.113-1.0192c-0.34644-0.56055-0.26234-1.3867 0.18688-1.836 1.1088-1.1088 3.549 0.50524 2.7409 1.8128-0.81895 1.3251-2.1168 1.3353-2.9278 0.02313zm96.795 0.41967c-0.87491-0.87492 0.18237-2.213 1.7486-2.213 0.74301 0 1.3509 0.63281 1.3509 1.4062 0 1.4121-1.979 1.9272-3.0995 0.80674zm32.162 0.24556c0-0.19468 0.63281-0.87915 1.4062-1.521 1.1517-0.95585 1.4062-0.89178 1.4062 0.35396 0 0.83657-0.63281 1.521-1.4062 1.521s-1.4062-0.15928-1.4062-0.35396zm-157.5-1.9604c0-0.83868 0.54965-1.1659 1.4062-0.8372 0.77344 0.2968 1.4062 0.91637 1.4062 1.3768s-0.63281 0.8372-1.4062 0.8372c-0.77344 0-1.4062-0.61957-1.4062-1.3768zm11.474 0.42353c-5.562-0.81127-9.9844-3.2531-9.2689-5.1179 0.27817-0.72489-0.35874-1.4627-1.5262-1.768-1.102-0.28817-1.7417-0.78579-1.4217-1.1058 0.32004-0.32004 1.3865-0.1513 2.3698 0.37498 0.98336 0.52628 4.7109 1.4611 8.2834 2.0775 6.4811 1.1181 8.2647 2.1672 7.4526 4.3832-0.27182 0.74169 0.4404 1.1719 1.9402 1.1719 1.341 0 2.1181-0.40695 1.7902-0.9375-0.31867-0.51562 0.28924-0.9375 1.3509-0.9375 2.5845 0 2.4625 1.5137-0.17905 2.2216-2.4756 0.66343-4.1421 0.60746-10.791-0.3624zm3.2133-2.328c0-0.77344-0.77344-1.4062-1.7188-1.4062s-1.7188 0.63281-1.7188 1.4062c0 0.77344 0.77344 1.4062 1.7188 1.4062s1.7188-0.63281 1.7188-1.4062zm-5.911-0.9375c0.36705-0.95652-0.050597-1.4062-1.3059-1.4062-1.8422 0-2.403 1.005-1.2206 2.1875 1.0125 1.0125 1.9494 0.72277 2.5265-0.78125zm124.55 3.1364c0.48659-1.4598 2.584-1.7154 2.6575-0.32391 0.0273 0.51562-0.65416 1.0833-1.5142 1.2614-0.97754 0.20249-1.4061-0.14895-1.1433-0.9375zm7.8939-1.2614c0.63021-1.6423 2.354-1.8288 3.7743-0.40848 0.70536 0.70536 1.4986 0.4993 2.7066-0.70312 1.6532-1.6454 1.6451-1.7102-0.24595-1.9879-2.6808-0.39366-3.599-3.9317-1.0204-3.9317 1.2926 0 1.7175 0.44321 1.3479 1.4062-0.36705 0.95652 0.0506 1.4062 1.306 1.4062 1.0151 0 1.7956 0.31641 1.7346 0.70312-0.3274 2.0735 0.29741 2.8226 1.986 2.381 2.3082-0.6036 2.4887-3.0497 0.23437-3.1762-0.90234-0.05062 0.25782-0.62602 2.5781-1.2787 3.3712-0.94823 3.8702-1.3339 2.4835-1.9196-1.0981-0.46384-2.0078-0.29199-2.4775 0.46804-0.49541 0.8016-1.6287 0.97852-3.4078 0.532-2.7439-0.68867-1.1741-2.7495 1.7542-2.3029 2.016 0.3075 9.1627-1.2354 9.6924-2.0926 0.27681-0.4479 1.2705-0.81436 2.2082-0.81436 0.93769 0 2.2301-0.63281 2.872-1.4062 1.5183-1.8295 2.8125-1.7935 2.8125 0.07812 0 0.81641-0.52734 1.3013-1.1719 1.0775-0.64453-0.22378-2.178 0.37387-3.4077 1.3281-1.2297 0.95426-3.2336 1.735-4.4531 1.735s-2.2173 0.47108-2.2173 1.0468 0.77422 0.84438 1.7205 0.59692c1.3695-0.35814 1.6374-0.01531 1.3132 1.6806-0.224 1.1718-1.2405 2.3484-2.2588 2.6148-1.0183 0.2663-2.0804 1.3592-2.36 2.4288-0.27969 1.0695-0.92633 1.9446-1.437 1.9446-0.51066 0-0.68564-0.63281-0.38883-1.4062 0.29679-0.77344 0.44739-1.4012 0.33468-1.3951-0.11273 0.0061-2.5253 0.63393-5.3612 1.3951-6.9444 1.864-11.367 1.864-10.652 0zm19.089-4.3191c0-0.46046-0.63281-0.8372-1.4062-0.8372s-1.4062 0.61957-1.4062 1.3768c0 0.83868 0.54965 1.1659 1.4062 0.8372 0.77344-0.2968 1.4062-0.91637 1.4062-1.3768zm-166.88 3.411c0-0.83868 0.54965-1.1659 1.4062-0.8372 0.77344 0.2968 1.4062 0.91637 1.4062 1.3768s-0.63281 0.8372-1.4062 0.8372c-0.77344 0-1.4062-0.61957-1.4062-1.3768zm61.893 0.45072c-1.1638-0.71928-1.1209-0.94444 0.28264-1.483 1.9561-0.75062 3.2333 0.18722 1.9723 1.4482-0.53252 0.53252-1.4273 0.54633-2.255 0.03481zm6.7482-0.15624c0.23102-0.69377 1.1719-1.4072 2.0909-1.5853 1.0688-0.20718 1.5196 0.13066 1.2509 0.9375-0.23102 0.69377-1.1719 1.4072-2.0909 1.5853-1.0688 0.20718-1.5195-0.13066-1.2509-0.9375zm6.9721-0.36353c0.61402-1.6001 2.3428-1.4033 2.9215 0.33259 0.20608 0.61824-0.48431 1.1133-1.5526 1.1133-1.3482 0-1.7577-0.43254-1.3689-1.4459zm9.9332 0.274c0.21485-0.64453 0.95313-1.1719 1.6406-1.1719s1.4258 0.52734 1.6406 1.1719c0.23237 0.69712-0.43229 1.1719-1.6406 1.1719s-1.873-0.47476-1.6406-1.1719zm8.8477 0.56641c-1.2226-1.2226-0.6389-2.207 1.3086-2.207 1.091 0 1.7893 0.49141 1.582 1.1133-0.45666 1.37-2.022 1.9623-2.8906 1.0938zm7.506 6e-3c-0.9997-0.99975 0.27891-2.213 2.3321-2.213 1.6132 0 1.7406 0.23352 0.76738 1.4062-1.2602 1.5185-2.1549 1.7514-3.0995 0.80674zm8.7245-0.80678c0-0.77344 0.63281-1.4062 1.4062-1.4062s1.4062 0.63281 1.4062 1.4062c0 0.77344-0.63281 1.4062-1.4062 1.4062s-1.4062-0.63281-1.4062-1.4062zm-57.188-0.9375c0-0.77344 0.60791-1.4062 1.3509-1.4062 1.9834 0 2.627 1.5869 0.91077 2.2455-2.0895 0.80181-2.2617 0.73791-2.2617-0.83926zm-8.4375-0.46875c0-0.51562 0.84375-0.9375 1.875-0.9375s1.875 0.42188 1.875 0.9375-0.84375 0.9375-1.875 0.9375-1.875-0.42188-1.875-0.9375zm74.062 0c0-0.51562 0.63281-0.9375 1.4062-0.9375s1.4062 0.42188 1.4062 0.9375-0.63281 0.9375-1.4062 0.9375-1.4062-0.42188-1.4062-0.9375zm8.6524-0.17578c0.57944-1.7383 2.5976-2.0266 2.5976-0.37109 0 0.81641-0.66797 1.4844-1.4844 1.4844-0.81641 0-1.3174-0.50098-1.1133-1.1133zm-89.277-0.76172c0-0.51562 0.63281-0.9375 1.4062-0.9375 0.77344 0 1.4062 0.42188 1.4062 0.9375s-0.63281 0.9375-1.4062 0.9375c-0.77344 0-1.4062-0.42188-1.4062-0.9375zm97.5-0.40001c0-0.86966 0.80156-1.475 1.9531-1.475 2.2847 0 1.9618 2.1907-0.39019 2.6469-0.92508 0.17941-1.5629-0.29884-1.5629-1.1719zm9.0625 0.71251c-1.0787-1.0787-0.68272-2.1875 0.78125-2.1875 0.77344 0 1.4062 0.39253 1.4062 0.8723s0.94922 1.0551 2.1094 1.2786c1.6115 0.31039 1.4271 0.43642-0.78124 0.53395-1.5898 0.07022-3.1719-0.15358-3.5156-0.49733zm-143.55-1.1852c-0.29665-0.48-0.11061-1.1377 0.41342-1.4616 1.1188-0.69145 2.8278 0.18616 2.8278 1.4521 0 1.1408-2.5375 1.1482-3.2412 0.0095zm22.189-0.5718c-1.0237-1.1585-0.83235-1.368 1.25-1.368 1.4814 0 2.3113 0.44256 2.0877 1.1133-0.55923 1.6777-1.9842 1.7864-3.3377 0.2547zm6.3651 0.50702c0-0.51562 0.84375-0.9375 1.875-0.9375s1.875 0.42188 1.875 0.9375-0.84375 0.9375-1.875 0.9375-1.875-0.42188-1.875-0.9375zm-33.516-0.67339c-1.85-0.66363-1.365-2.1391 0.70312-2.1391 1.0312 0 1.875 0.39698 1.875 0.88217 0 1.2-1.1601 1.7656-2.5781 1.2569zm67.91 0.06792c-1.2226-1.2226-0.6389-2.207 1.3086-2.207 1.091 0 1.7893 0.49141 1.582 1.1133-0.45666 1.37-2.022 1.9623-2.8906 1.0938zm7.4805-0.019526c-0.34375-0.34376-0.625-1.1875-0.625-1.875 0-1.6595 2.4744-1.6082 3.1164 0.06459 0.75747 1.974-1.0294 3.2724-2.4914 1.8104zm8.0464-0.54688c0.59066-1.7739 3.5161-2.0261 3.5161-0.30312 0 0.86966-0.80156 1.475-1.9531 1.475-1.1456 0-1.7918-0.48452-1.563-1.1719zm8.6682 0.22775c-0.71181-1.1518 1.8683-2.2754 3.2557-1.4179 0.54873 0.33913 0.75498 1.0093 0.45832 1.4893-0.71554 1.1578-2.9813 1.1142-3.7141-0.0714zm10.473 0.31912c-1.1886-1.1886-0.61773-2.1875 1.25-2.1875 1.0417 0 1.875 0.625 1.875 1.4062 0 1.4273-1.9832 1.9231-3.125 0.78125zm7.1089-0.54688c0.59066-1.7739 3.5161-2.0261 3.5161-0.30312 0 0.86966-0.80156 1.475-1.9531 1.475-1.1456 0-1.7918-0.48452-1.563-1.1719zm-88.359-0.80746c0-0.67752-1.117-0.83228-3.1944-0.44256-1.9565 0.36705-3.3243 0.20969-3.5295-0.40607-0.18431-0.55294-1.3836-1.0651-2.665-1.1381-2.7153-0.1547-6.9974-2.5965-4.5534-2.5965 0.81122 0 2.6981 0.37636 4.193 0.83635 1.4949 0.46 5.1292 1.3676 8.0762 2.017s5.137 1.5386 4.8665 1.9761c-0.71891 1.1632-3.1935 0.97237-3.1935-0.24629zm39.452-0.27202c-0.54885-0.66132-0.76621-1.4341-0.48301-1.7173 0.70485-0.70485 4.1563 0.26276 4.1563 1.1652 0 1.3591-2.6704 1.7605-3.6733 0.5521zm58.479 0.31399c-0.86282-1.3961 0.13756-2.1551 1.9325-1.4663 0.82836 0.31787 1.2435 1.0028 0.92262 1.5221-0.75992 1.2296-2.0767 1.2039-2.8552-0.05575zm57.158-0.42651c1.9266-1.4576 3.0032-1.2259 1.982 0.42651-0.33988 0.54993-1.3313 0.98646-2.2033 0.97006-1.3919-0.02617-1.3649-0.19659 0.22127-1.3966zm-123.64-0.38384c-0.29666-0.48-0.11062-1.1377 0.41342-1.4616 1.1188-0.69145 2.8278 0.18616 2.8278 1.4521 0 1.1408-2.5375 1.1482-3.2412 0.0095zm75.136 0.26725c-1.2226-1.2226-0.6389-2.207 1.3086-2.207 1.091 0 1.7893 0.49141 1.582 1.1133-0.45666 1.37-2.022 1.9623-2.8906 1.0938zm-90.02-0.95703c-1.0787-1.0787-0.68273-2.1875 0.78125-2.1875 0.77344 0 1.4062 0.63281 1.4062 1.4062 0 1.464-1.1088 1.86-2.1875 0.78125zm7.1094-0.54688c0.21484-0.64453 0.95312-1.1719 1.6406-1.1719 0.6875 0 1.4258 0.52734 1.6406 1.1719 0.23237 0.69712-0.43229 1.1719-1.6406 1.1719-1.2083 0-1.873-0.47476-1.6406-1.1719zm89.98 0.05859c0.57944-1.7383 2.5976-2.0266 2.5976-0.37109 0 0.81641-0.66797 1.4844-1.4844 1.4844-0.81641 0-1.3174-0.50098-1.1133-1.1133zm-104.56-0.42373c-0.87491-0.87492 0.18236-2.213 1.7486-2.213 0.74301 0 1.3509 0.63281 1.3509 1.4062 0 1.4121-1.9791 1.9272-3.0995 0.80674zm111.44-0.23975c-0.28528-0.4616 0.14621-1.0944 0.95885-1.4062 2.3405-0.89812 3.1992-0.67285 3.1992 0.83926 0 1.5093-3.2977 1.959-4.158 0.56699zm-139.79-1.0981c-0.33988-0.54993-0.39284-1.225-0.1177-1.5001 0.67154-0.67154 2.5 0.51171 2.5 1.6178 0 1.1981-1.6185 1.1181-2.3823-0.1177zm11.265-1.2c-10.312-2.5791-11.461-3.1728-9.2597-4.7826 1.4656-1.0716 1.3941-1.2317-0.79466-1.7811-1.8286-0.45896-2.2879-1.0511-1.9166-2.4711 0.57831-2.2115-2.306-3.7807-3.4744-1.8903-0.46393 0.75066-1.4076 0.94501-2.4835 0.51146-3.4521-1.3911 2.3829-2.5634 7.4018-1.487 5.903 1.266 6.3317 1.2384 6.3317-0.40722 0-1.0365-0.70445-1.2419-2.8125-0.82031-1.8139 0.36277-2.8125 0.18167-2.8125-0.51005 0-0.65428-0.84973-0.85928-2.1789-0.52567-2.7384 0.6873-5.5389-2.0017-3.071-2.9487 0.83808-0.3216 2.1588-0.05768 2.935 0.58647 0.77616 0.64416 2.1419 1.2537 3.0349 1.3546 8.0264 0.90662 12.916 3.9758 6.9141 4.3399-0.90045 0.05463-0.56669 0.40526 0.80343 0.84405 2.6138 0.83709 5.9267 1.1003 3.9844 0.31661-1.8229-0.73556-1.4135-3.3131 0.46875-2.9509 2.4791 0.477 2.3671 4.4901-0.128 4.5833-1.0898 0.04071-1.4514 0.28768-0.80366 0.54882s0.9101 0.90782 0.58302 1.4371c-0.73656 1.1918 1.3557 2.5989 3.8643 2.5989 1.5576 0 1.637-0.15625 0.46875-0.92314-1.2238-0.80338-1.2296-1.0367-0.04477-1.7988 1.8615-1.1972 2.7798-0.43699 2.1912 1.8141-0.37429 1.4313-0.02819 1.8741 1.4648 1.8741 1.3525 0 1.7886-0.43331 1.4153-1.4062-0.59772-1.5576 1.9865-2.0152 2.9132-0.51579 0.84492 1.3671-3.146 3.0894-5.6832 2.4526-1.6568-0.41584-2.2564-0.1801-2.2564 0.88721 0 1.7765 3.0214 3.1118 3.5375 1.5634 0.2028-0.60839 1.0015-1.1062 1.775-1.1062 2.3205 0 0.81979 2.3282-1.6348 2.5363-1.2493 0.10589-6.0789-0.75977-10.732-1.9237zm4.2422-2.0188c0-0.77378-0.83006-1.4062-1.8456-1.4062-1.2553 0-1.673 0.44973-1.3059 1.4062 0.2968 0.77344 1.1273 1.4062 1.8456 1.4062s1.3059-0.63281 1.3059-1.4062zm-5.625-0.9375c0-0.875-0.88542-1.4062-2.3438-1.4062-2.6751 0-3.169 1.5218-0.70312 2.1663 2.8241 0.738 3.0469 0.68242 3.0469-0.76001zm1.2091-4.2188c0.35617-1.362 0.02876-1.875-1.1966-1.875-1.7117 0-3.1607 2.1643-2.1354 3.1896 1.162 1.162 2.8595 0.49233 3.332-1.3146zm-5.3609-0.9375c0-1.175-0.625-1.875-1.6741-1.875-1.8997 0-2.2864 2.4092-0.50223 3.1291 1.9783 0.79825 2.1763 0.68411 2.1763-1.2541zm72.045 9.2524c-0.79906-1.2929 1.0362-3.0761 2.3379-2.2716 0.56055 0.34644 1.0192 0.98173 1.0192 1.4118 0 1.2471-2.6916 1.9365-3.357 0.85984zm17.42-0.27738c0-0.86966 0.80156-1.475 1.9531-1.475 2.2847 0 1.9618 2.1907-0.39019 2.6469-0.92508 0.17941-1.5629-0.29884-1.5629-1.1719zm8.5397 0.05446c-0.8358-1.0071-0.85304-1.5342-0.0661-2.0205 1.529-0.94497 3.4259 1.1541 2.1741 2.4058-0.67798 0.67798-1.3235 0.55999-2.108-0.38529zm45.043-0.06474c0.17815-0.86006 0.74578-1.5415 1.2614-1.5142 1.3915 0.0735 1.1359 2.1709-0.32391 2.6575-0.78855 0.26285-1.14-0.16572-0.9375-1.1433zm-80.119-0.18922c-0.87491-0.87492 0.18237-2.213 1.7486-2.213 0.74301 0 1.3509 0.63281 1.3509 1.4062 0 1.4121-1.979 1.9272-3.0995 0.80674zm18.304-0.48283c0.48659-1.4598 2.584-1.7154 2.6575-0.32391 0.0273 0.51562-0.65416 1.0833-1.5142 1.2614-0.97754 0.20249-1.4061-0.14895-1.1433-0.9375zm26.045-0.32391c0-0.77344 0.63281-1.4062 1.4062-1.4062s1.4062 0.63281 1.4062 1.4062c0 0.77344-0.63281 1.4062-1.4062 1.4062s-1.4062-0.63281-1.4062-1.4062zm41.016 0.48369c1.1602-0.49061 2.1094-1.3466 2.1094-1.9022 0-0.64676 1.1805-0.78873 3.2812-0.39462 2.293 0.43017 3.2812 0.27117 3.2812-0.5279 0-0.71893 0.78605-0.94618 2.1172-0.61209 2.1331 0.53537 5.3144-0.70902 4.3298-1.6936-0.29148-0.29148-3.7551-0.02856-7.697 0.58427-7.6111 1.1833-8.7443 0.92493-7.7051-1.7564 0.61909-1.5974 0.71165-1.5994 1.8598-0.04043 0.66456 0.90234 1.9 1.6406 2.7455 1.6406 1.8039 0 2.0639-1.527 0.3654-2.1455-0.64453-0.23472 0.51563-0.7148 2.5781-1.0668s4.5054-1.0532 5.4288-1.5581c0.92332-0.50492 2.0748-0.6733 2.5588-0.37418s1.8379 0.01604 3.0087-0.62908 2.8024-1.0709 3.6258-0.94624c0.82341 0.12469 2.0314-0.41704 2.6844-1.2038 0.65298-0.7868 1.5879-1.1829 2.0776-0.88028 0.48969 0.30265 1.7075-0.18926 2.7063-1.0931 1.5794-1.4294 1.8159-1.4514 1.8159-0.16938 0 1.4613-2.2713 2.4957-13.125 5.9772-2.8359 0.90967-4.4679 1.8014-3.6266 1.9815 0.84128 0.18017 4.1322-0.54916 7.3131-1.6207 5.6114-1.8903 7.5635-1.8643 7.5635 0.10103 0 0.52209-1.1234 0.8136-2.4963 0.6478-1.4015-0.16925-2.6694 0.21277-2.8908 0.87104-0.25831 0.76776 0.19889 0.98604 1.3245 0.63234 1.639-0.51506 1.6407-0.49002 0.0358 0.5385-1.7803 1.1409-17.296 5.0743-23.629 5.9901-2.8807 0.41658-3.261 0.33551-1.6406-0.34974zm20.859-5.6399c0-0.51562-0.86865-0.9375-1.9303-0.9375s-1.6696 0.42188-1.3509 0.9375 1.1873 0.9375 1.9303 0.9375 1.3509-0.42188 1.3509-0.9375zm-8.9062-0.9375c0.31868-0.51562-0.26435-0.9375-1.2956-0.9375s-2.1357 0.42188-2.4544 0.9375 0.26435 0.9375 1.2956 0.9375 2.1357-0.42188 2.4544-0.9375zm-172.54 5.5626c-0.8594-1.3905-0.05119-1.9681 1.774-1.2677 0.84428 0.32398 1.3016 0.96672 1.0164 1.4283-0.70168 1.1353-2.0369 1.0585-2.7903-0.16061zm60.507-0.4845c0-1.6556 2.0182-1.3672 2.5976 0.37109 0.20411 0.6123-0.29687 1.1133-1.1133 1.1133-0.8164 0-1.4844-0.66797-1.4844-1.4844zm7.5 0.6022c0-1.6242 1.6501-1.9247 2.8211-0.51376 0.9641 1.1617 0.82459 1.3959-0.83128 1.3959-1.0944 0-1.9898-0.39698-1.9898-0.88217zm60-0.52408c0-0.77344 0.63281-1.4062 1.4062-1.4062s1.4062 0.63281 1.4062 1.4062c0 0.77344-0.63281 1.4062-1.4062 1.4062s-1.4062-0.63281-1.4062-1.4062zm-83.007-0.53112c-0.86282-1.3961 0.13755-2.1551 1.9325-1.4663 0.82836 0.31787 1.2435 1.0028 0.9226 1.5221-0.75991 1.2296-2.0767 1.2039-2.8551-0.05575zm8.0073 0.21862c0-1.3209 1.056-1.9269 2.4354-1.3976 1.9565 0.75078 1.5892 2.1789-0.56041 2.1789-1.0312 0-1.875-0.35156-1.875-0.78125zm83.438-0.70312c0-1.6556 2.0182-1.3672 2.5976 0.37109 0.20411 0.6123-0.29687 1.1133-1.1133 1.1133-0.8164 0-1.4844-0.66797-1.4844-1.4844zm8.1505-0.05264c-0.87491-0.87491 0.18237-2.213 1.7486-2.213 0.74301 0 1.3509 0.63281 1.3509 1.4062 0 1.4121-1.979 1.9272-3.0995 0.80674zm-150.65-1.2755c0-0.51562 0.42188-0.9375 0.9375-0.9375s0.9375 0.42188 0.9375 0.9375-0.42188 0.9375-0.9375 0.9375-0.9375-0.42188-0.9375-0.9375zm43.33-0.14484c0.4866-1.4598 2.584-1.7154 2.6575-0.32391 0.02723 0.51562-0.65416 1.0833-1.5142 1.2614-0.97755 0.20249-1.4061-0.14895-1.1433-0.9375zm43.339 0.06316c-0.34645-0.56055-0.26235-1.3867 0.18688-1.836 1.1088-1.1088 3.549 0.50524 2.7409 1.8128-0.81895 1.3251-2.1168 1.3353-2.9278 0.02313zm9.6013 0.41372c-1.327-1.3271-0.57612-3.1445 1.2992-3.1445 1.3106 0 1.845 0.50911 1.6406 1.5629-0.33463 1.7254-1.935 2.5864-2.9398 1.5816zm16.875 0c-1.327-1.3271-0.57612-3.1445 1.2992-3.1445 1.3106 0 1.845 0.50911 1.6406 1.5629-0.33463 1.7254-1.935 2.5864-2.9398 1.5816zm45.293-0.27671c0-1.3509 2.0075-2.2888 2.6829-1.2535 0.32907 0.50437 1.2311 1.1579 2.0046 1.4523 0.77344 0.29442 0.0352 0.56862-1.6406 0.60932-1.6758 0.040706-3.0469-0.32296-3.0469-0.80816zm-148.38-0.62174c-0.37598-0.37598-0.68359-1.3305-0.68359-2.1211 0-1.0552 0.27734-1.1602 1.043-0.39453 0.57363 0.57363 0.88125 1.5281 0.68359 2.1211-0.19766 0.59297-0.66699 0.77051-1.043 0.39453zm67.441-0.058593c-1.4534-1.4534-0.48041-3.125 1.819-3.125 1.8435 0 2.3042 0.36439 1.875 1.4829-0.31298 0.81561-0.56905 1.6594-0.56905 1.875 0 0.63187-2.4422 0.44984-3.125-0.23292zm26.796-0.54688c0.59066-1.7739 3.5161-2.0261 3.5161-0.30312 0 0.86966-0.80156 1.475-1.9531 1.475-1.1456 0-1.7918-0.48452-1.563-1.1719zm16.641-0.23438c0-0.78125 0.83333-1.4062 1.875-1.4062s1.875 0.625 1.875 1.4062-0.83333 1.4062-1.875 1.4062-1.875-0.625-1.875-1.4062zm-59.549-0.49682c-1.0219-1.6535 1.1929-3.3891 2.928-2.2946 0.79907 0.50404 1.5257 1.3383 1.6148 1.8539 0.23148 1.3397-3.7486 1.7258-4.5429 0.44068zm7.9861-0.44068c0-0.77344 0.63281-1.4062 1.4062-1.4062s1.4062 0.63281 1.4062 1.4062c0 0.77344-0.63281 1.4062-1.4062 1.4062s-1.4062-0.63281-1.4062-1.4062zm60 0c0-0.78125 0.83333-1.4062 1.875-1.4062s1.875 0.625 1.875 1.4062-0.83333 1.4062-1.875 1.4062-1.875-0.625-1.875-1.4062zm9.375 0c0-0.78125 0.83333-1.4062 1.875-1.4062s1.875 0.625 1.875 1.4062-0.83333 1.4062-1.875 1.4062-1.875-0.625-1.875-1.4062zm-135.81-0.78938c-0.57429-0.69197-0.79564-1.5067-0.49189-1.8104 0.90586-0.90586 3.1815 0.35486 3.1815 1.7626 0 1.6569-1.3345 1.6806-2.6896 0.04781zm144.41-0.28659c0.18165-0.94325 1.102-1.8636 2.0453-2.0453 1.2385-0.23852 1.6232 0.1462 1.3847 1.3847-0.18165 0.94325-1.102 1.8636-2.0453 2.0453-1.2385 0.23852-1.6232-0.1462-1.3847-1.3847zm-101.21-0.50606c-1.7713-1.7713-1.3526-2.6367 1.2758-2.6367 1.7481 0 2.329 0.4304 2.1094 1.5629-0.39216 2.0221-1.9444 2.5145-3.3851 1.0738zm7.3008-0.29297c0-0.78125 0.83333-1.4062 1.875-1.4062s1.875 0.625 1.875 1.4062-0.83333 1.4062-1.875 1.4062-1.875-0.625-1.875-1.4062zm102.19 0c0-0.77344 0.63281-1.4062 1.4062-1.4062s1.4062 0.63281 1.4062 1.4062c0 0.77344-0.63281 1.4062-1.4062 1.4062s-1.4062-0.63281-1.4062-1.4062zm-158.83-1.0717c-0.32512-0.84724-0.39832-1.7332-0.16268-1.9689 0.74506-0.74506 2.4282 0.75105 2.4282 2.1584 0 1.8389-1.5364 1.7104-2.2655-0.18951zm42.059 0.52125c-0.34644-0.56055-0.19716-1.4519 0.33174-1.9808 1.1828-1.1828 3-0.18386 3 1.6491 0 1.5784-2.4128 1.8186-3.3317 0.33174zm123.65-0.45008c-0.7417-1.9328 1.2023-3.9511 2.5284-2.625 1.0736 1.0736 0.26359 4.0943-1.098 4.0943-0.47665 0-1.1203-0.66117-1.4304-1.4693zm-130.21-0.48742c-0.34644-0.56055-0.17828-1.4708 0.37369-2.0228 1.1699-1.1699 4.2133 0.8318 3.3611 2.2107-0.71356 1.1546-2.9755 1.0408-3.7348-0.18791zm137.39-1.3246c0-0.77378 0.83006-1.4062 1.8456-1.4062 1.2553 0 1.673 0.44973 1.306 1.4062-0.29681 0.77344-1.1273 1.4062-1.8456 1.4062s-1.306-0.63281-1.306-1.4062zm27.363 0.41016c0.22558-0.67676 0.96386-1.415 1.6406-1.6406 0.70312-0.23438 1.0547 0.11719 0.82031 0.82031-0.22559 0.67676-0.96387 1.415-1.6406 1.6406-0.70312 0.23438-1.0547-0.11719-0.82031-0.82031zm-128.82-1.5666c2.205-0.19804 5.58-0.19526 7.5 0.0062 1.92 0.20145 0.11585 0.36348-4.0092 0.36008-4.125-0.0034-5.6959-0.16823-3.4908-0.36627zm107.27 0.0502c-2.0401-0.81739 1.8536-3.0769 4.2806-2.484 1.1668 0.28507 2.6954 0.04205 3.3968-0.54005 0.70138-0.5821 1.9772-0.78898 2.8352-0.45974 0.88258 0.33868 2.3002-0.07121 3.2645-0.94393 0.95244-0.86196 2.3848-1.2815 3.2463-0.9509 0.89138 0.34205 1.5418 0.12719 1.5418-0.50932 0-0.65125 0.72055-0.87228 1.764-0.54111 1.1324 0.35942 1.9694 0.02445 2.3378-0.93563 0.4238-1.1044 0.14638-1.3632-1.0608-0.98958-4.0004 1.238-15.284 3.2776-20.853 3.7693-3.7443 0.33058-1.3614-0.31136 6.1806-1.665 6.7509-1.2117 13.606-2.8675 15.234-3.6797 2.7309-1.3623 2.9589-1.3552 2.9457 0.09212-0.0337 3.6777-6.3427 6.9489-15.829 8.2073-2.653 0.35194-5.05 1.0062-5.3267 1.4538-0.54574 0.88301-2.0292 0.94916-3.9577 0.17648zm-175.81-0.92505c-1.0787-1.0787-0.68273-2.1875 0.78125-2.1875 0.77344 0 1.4062 0.63281 1.4062 1.4062 0 1.464-1.1088 1.86-2.1875 0.78125zm53.75-0.33007c-1.456-0.47721-0.21314-0.57004 3.2812-0.24508 3.0938 0.2877 5.8008 0.67543 6.0156 0.86162 0.75625 0.65541-6.9818 0.14225-9.2969-0.61654zm-60.368-1.4654c-0.81248-2.1173-0.73492-2.2719 0.8372-1.6686 0.77344 0.2968 1.4062 1.1273 1.4062 1.8456 0 1.7761-1.5406 1.6546-2.2434-0.17698zm82.183-1.0418c0.91216-0.2377 2.1778-0.22206 2.8125 0.03473 0.63471 0.2568-0.11159 0.45128-1.6585 0.43218-1.5469-0.01911-2.0662-0.22922-1.154-0.46692zm89.045 0.0035c0.90235-0.23581 2.3789-0.23581 3.2812 0 0.90235 0.23581 0.16407 0.42874-1.6406 0.42874s-2.543-0.19293-1.6406-0.42874zm35.391-0.23599c0-0.48519 0.42187-1.1429 0.9375-1.4616 0.51562-0.31867 0.9375 0.0783 0.9375 0.88217s-0.42188 1.4616-0.9375 1.4616c-0.51563 0-0.9375-0.39698-0.9375-0.88217zm-196.55-1.502c-0.30533-0.79568-0.32016-1.6817-0.03295-1.9689 0.82098-0.82098 2.5219 0.57155 2.5219 2.0646 0 1.7989-1.7883 1.7301-2.489-0.09576zm25.751 0.80626c0.67676-0.27082 1.4854-0.23751 1.7969 0.07402 0.31152 0.31152-0.24219 0.5331-1.2305 0.49239-1.0921-0.04498-1.3143-0.26713-0.56641-0.56641zm32.754-0.03776c1.6758-0.20796 4.418-0.20796 6.0938 0s0.30468 0.37811-3.0469 0.37811c-3.3516 0-4.7227-0.17015-3.0469-0.37811zm-11.016-1.2245c-0.98268-0.65439-0.13555-0.75196 2.8125-0.32393 5.2513 0.76243 6 1.2936 1.7969 1.2747-1.7617-0.0079-3.8359-0.43576-4.6094-0.95081zm153.28 0.02766c0.31868-0.51562 0.76545-0.9375 0.99283-0.9375s0.41342 0.42188 0.41342 0.9375-0.44678 0.9375-0.99283 0.9375c-0.54606 0-0.73209-0.42188-0.41342-0.9375zm-213.28-1.4062c0-0.77344 0.1658-1.4062 0.36845-1.4062s0.61128 0.63281 0.90808 1.4062c0.2968 0.77344 0.131 1.4062-0.36845 1.4062s-0.90808-0.63281-0.90808-1.4062zm6.886-0.04043c-0.30533-0.79567-0.32016-1.6817-0.03295-1.9689 0.82098-0.82098 2.5219 0.57155 2.5219 2.0646 0 1.7989-1.7883 1.7301-2.489-0.09576zm12.86-0.49579c-4.3507-0.98142-8.3585-2.2589-8.9062-2.8388-0.73136-0.77431-0.3733-0.85736 1.3478-0.31261 1.2891 0.408 6.1406 1.6808 10.781 2.8284 10.301 2.5473 7.7644 2.8015-3.2228 0.32305zm154.88 1.2928c0.91215-0.2377 2.1778-0.22206 2.8125 0.03473 0.63471 0.2568-0.1116 0.45128-1.6585 0.43218-1.5469-0.01911-2.0662-0.22922-1.154-0.46692zm-96.567-0.96055c1.425-0.21549 3.5344-0.20973 4.6875 0.0128s-0.0129 0.39884-2.591 0.3918c-2.5781-7e-3 -3.5215-0.18911-2.0965-0.40459zm102.64 0.05184c0.64454-0.26007 1.6992-0.26007 2.3438 0 0.64454 0.26007 0.11719 0.47286-1.1719 0.47286s-1.8164-0.21279-1.1719-0.47286zm30.491-1.2338c0.07851-1.0424 0.47486-1.8953 0.88075-1.8953 1.0367 0 0.92286 2.5876-0.14276 3.2462-0.48442 0.29939-0.81652-0.30853-0.73799-1.3509zm-209.32-0.56714c0-1.6556 2.0182-1.3672 2.5977 0.37109 0.2041 0.6123-0.29687 1.1133-1.1133 1.1133-0.81641 0-1.4844-0.66797-1.4844-1.4844zm60.469 0.0995c-6.2285-1.601-4.5459-1.6253 5.1562-0.07441 5.9853 0.95672 6.9187 1.2745 3.75 1.2765-2.3203 0.0015-6.3281-0.53944-8.9062-1.2021zm123.28 1.137c0.25781-0.25412 4.0547-1.173 8.4375-2.0419 4.3828-0.86892 9.7765-2.1858 11.986-2.9263 4.6305-1.552 6.6267-1.7446 5.311-0.5123-1.4299 1.3392-27.073 6.8004-25.734 5.4805zm-160.31-1.6272c-3.1509-1.0091 0.25301-1.0091 4.2188 0 2.5263 0.64283 2.574 0.71744 0.46875 0.73313-1.2891 0.0096-3.3984-0.3203-4.6875-0.73313zm152.67-0.23742c0.47235-0.47236 1.8567-0.70186 3.0763-0.51 1.8766 0.2952 1.7445 0.42724-0.85882 0.85883-1.863 0.30885-2.7376 0.17127-2.2175-0.34883zm36.73 0.05837c-0.0164-0.87191 0.42013-1.8634 0.97006-2.2033 1.6524-1.0212 1.8841 0.05535 0.42651 1.982-1.2 1.5861-1.3704 1.6131-1.3966 0.22126zm-201.59-2.6335c-6.8746-2.2548-3.9637-2.2811 3.75-0.03385 3.3516 0.9764 5.0391 1.764 3.75 1.7502-1.2891-0.01382-4.6641-0.78615-7.5-1.7163zm19.002 1.2253c0.91216-0.2377 2.1778-0.22206 2.8125 0.03473 0.63472 0.25681-0.11159 0.45129-1.6585 0.43218-1.5469-0.0191-2.0662-0.22922-1.154-0.46691zm53.888 0.02879c0.64453-0.26007 1.6992-0.26007 2.3438 0 0.64453 0.26007 0.11718 0.47286-1.1719 0.47286s-1.8164-0.21279-1.1719-0.47286zm73.184-0.01953c0.67675-0.27082 1.4854-0.23751 1.7969 0.07402 0.31152 0.31152-0.2422 0.5331-1.2305 0.49239-1.0921-0.04498-1.3143-0.26713-0.56641-0.56641zm26.678-0.0093c0.91215-0.2377 2.1778-0.22206 2.8125 0.03473 0.63471 0.2568-0.1116 0.45128-1.6585 0.43218-1.5469-0.01911-2.0662-0.22922-1.154-0.46692zm-167.8-2.6129c-4.7517-1.2281-9.3924-2.7158-10.312-3.3059-1.5252-0.97822-1.5074-1.0165 0.20204-0.43385 1.0312 0.35151 6.5156 1.8291 12.188 3.2835s9.4688 2.6545 8.4375 2.6668c-1.0312 0.01236-5.7628-0.98238-10.515-2.2105zm55.28 1.6537c1.418-0.2148 3.7383-0.2148 5.1562 0 1.418 0.2148 0.25781 0.39055-2.5781 0.39055s-3.9961-0.17575-2.5781-0.39055zm91.465 0.03107c0.67675-0.27082 1.4854-0.23751 1.7969 0.07402 0.31152 0.31152-0.2422 0.5331-1.2305 0.49239-1.0921-0.04498-1.3143-0.26713-0.56641-0.56641zm10.254 0.01953c0.64454-0.26007 1.6992-0.26007 2.3438 0 0.64454 0.26007 0.11719 0.47286-1.1719 0.47286s-1.8164-0.21279-1.1719-0.47286zm15.938 0c0.64454-0.26007 1.6992-0.26007 2.3438 0 0.64454 0.26007 0.11719 0.47286-1.1719 0.47286s-1.8164-0.21279-1.1719-0.47286zm-153.75-0.9375c0.64453-0.26007 1.6992-0.26007 2.3438 0s0.11719 0.47286-1.1719 0.47286c-1.2891 0-1.8164-0.21279-1.1719-0.47286zm27.188-0.04073c1.1602-0.22346 3.0586-0.22346 4.2188 0s0.21094 0.40628-2.1094 0.40628c-2.3203 0-3.2695-0.18283-2.1094-0.40628zm115.31 0.04073c0.64454-0.26007 1.6992-0.26007 2.3438 0 0.64454 0.26007 0.11719 0.47286-1.1719 0.47286s-1.8164-0.21279-1.1719-0.47286zm15.938 0c0.64454-0.26007 1.6992-0.26007 2.3438 0 0.64454 0.26007 0.11719 0.47286-1.1719 0.47286s-1.8164-0.21279-1.1719-0.47286zm-162.13-0.95703c0.67676-0.27082 1.4854-0.23751 1.7969 0.07402 0.31152 0.31152-0.24219 0.5331-1.2305 0.49239-1.0921-0.04498-1.3143-0.26713-0.56641-0.56641zm25.254 0.01953c0.64453-0.26007 1.6992-0.26007 2.3438 0s0.11719 0.47286-1.1719 0.47286c-1.2891 0-1.8164-0.21279-1.1719-0.47286zm115.31 0c0.64454-0.26007 1.6992-0.26007 2.3438 0 0.64454 0.26007 0.11719 0.47286-1.1719 0.47286s-1.8164-0.21279-1.1719-0.47286zm10.799-0.02879c0.91215-0.2377 2.1778-0.22206 2.8125 0.03473 0.63471 0.2568-0.1116 0.45128-1.6585 0.43218-1.5469-0.01911-2.0662-0.22922-1.154-0.46692zm19.904-1.2619c6.1974-1.995 7.9017-2.272 6.5156-1.0589-1.1724 1.0261-8.1291 2.9842-10.374 2.9201-0.97143-0.02773 0.76502-0.86527 3.8588-1.8612zm-125.39 0.31248c1.1602-0.22346 3.0586-0.22346 4.2188 0s0.21093 0.40628-2.1094 0.40628-3.2695-0.18283-2.1094-0.40628zm110.62 0.04073c0.64454-0.26007 1.6992-0.26007 2.3438 0 0.64454 0.26007 0.11719 0.47286-1.1719 0.47286s-1.8164-0.21279-1.1719-0.47286zm-164.94-0.95703c0.67676-0.27082 1.4854-0.23751 1.7969 0.07402 0.31152 0.31152-0.24219 0.5331-1.2305 0.49239-1.0921-0.04498-1.3143-0.26713-0.56641-0.56641zm9.5508-0.29708c-1.9308-0.61836-2.0134-0.76454-0.46875-0.82969 1.0312-0.0435 2.5078 0.32986 3.2812 0.82969 1.6426 1.0616 0.5022 1.0616-2.8125 0zm28.594 0.2485c-2.0625-0.20559-4.0806-0.6973-4.4847-1.0927-0.64335-0.62953 2.016-0.41201 13.86 1.1337 3.7279 0.48652-4.4414 0.45078-9.375-0.04101zm102.48 0.04857c0.67675-0.27082 1.4854-0.23751 1.7969 0.07402 0.31152 0.31152-0.2422 0.5331-1.2305 0.49239-1.0921-0.04498-1.3143-0.26713-0.56641-0.56641zm36.279-1.5984c4.6458-1.1329 9.0755-2.4202 9.8438-2.8606 1.0932-0.62659 1.1588-0.54289 0.30189 0.38498-1.0856 1.1755-14.484 4.7755-17.186 4.6176-0.77344-0.04519 2.3948-1.0091 7.0406-2.1421zm-30.654 0.66092c0.67675-0.27082 1.4854-0.23751 1.7969 0.07402 0.31152 0.31152-0.2422 0.5331-1.2305 0.49239-1.0921-0.04498-1.3143-0.26713-0.56641-0.56641zm15.879 0.01953c0.64454-0.26007 1.6992-0.26007 2.3438 0 0.64454 0.26007 0.11719 0.47286-1.1719 0.47286s-1.8164-0.21279-1.1719-0.47286zm-170.57-0.95703c0.67676-0.27082 1.4854-0.23751 1.7969 0.07402 0.31152 0.31152-0.24219 0.5331-1.2305 0.49239-1.0921-0.04498-1.3143-0.26713-0.56641-0.56641zm174.63 0.27144c0.21485-0.20294 4.3984-1.4357 9.2969-2.7395s9.75-2.6764 10.781-3.0503c1.3508-0.4897 1.6082-0.38739 0.92042 0.36598-0.52503 0.57513-5.0654 2.1138-10.09 3.4192-8.6877 2.2572-11.777 2.825-10.909 2.0046zm-180.55-1.2592c-3.2324-0.81567-6.3699-2.1582-5.9724-2.5557 0.20976-0.20976 2.694 0.40527 5.5206 1.3667 4.6959 1.5973 4.9744 2.3302 0.45176 1.189zm14.355 0.05021c0.67676-0.27082 1.4854-0.23751 1.7969 0.07401 0.31152 0.31152-0.24219 0.5331-1.2305 0.49239-1.0921-0.04498-1.3143-0.26713-0.56641-0.56641zm156.56 0c0.67675-0.27082 1.4854-0.23751 1.7969 0.07401 0.31152 0.31152-0.2422 0.5331-1.2305 0.49239-1.0921-0.04498-1.3143-0.26713-0.56641-0.56641zm3.0664-0.64146c0.21485-0.18941 2.0781-0.60133 4.1406-0.91538 2.6136-0.39796 3.1818-0.31356 1.875 0.27849-1.7997 0.81539-6.8211 1.347-6.0156 0.6369zm-173.85-2.9013c-5.4882-1.9367-8.5267-3.353-7.0865-3.3033 1.3591 0.04694 16.056 5.4903 14.922 5.5268-0.77344 0.02485-4.2993-0.97573-7.8353-2.2235zm7.3666-1.0086c-4.125-1.2534-9.293-2.7574-11.484-3.3423-2.1914-0.58488-3.9844-1.4085-3.9844-1.8302 0-0.42172 3.6878 0.4798 8.1952 2.0034 4.5073 1.5236 10.941 3.3609 14.297 4.0829 3.5535 0.76452 4.9272 1.3237 3.2892 1.3389-1.5469 0.01441-6.1875-0.9993-10.312-2.2527zm175.61 1.7389c0.67675-0.27082 1.4854-0.23751 1.7969 0.07402 0.31152 0.31152-0.2422 0.5331-1.2305 0.49239-1.0921-0.04498-1.3143-0.26713-0.56641-0.56641zm3.457-0.86092c4.0154-1.781 16.406-5.5019 16.406-4.9267 0 0.76424-14.309 5.5424-16.22 5.4165-0.61791-0.04071-0.70161-0.26113-0.18598-0.48983zm-150.31 77.762c0.94294-0.85335 1.7144-2.2128 1.7144-3.0211 0-1.0714-0.39537-0.90508-1.4594 0.61405-0.9847 1.4058-2.4332 2.0883-4.4531 2.098-2.2777 0.0109-2.6574 0.23172-1.5875 0.92315 2.0573 1.3295 3.8479 1.1395 5.7856-0.61405zm32.222-1.1986c-0.75865-1.2275-3.3198-1.3287-3.3198-0.13111 0 0.47782 0.73828 1.033 1.6406 1.2337 2.0459 0.45507 2.4698 0.17672 1.6792-1.1026zm4.5879-2.8517c6.6394-2.5243 2.1202-9.633-6.8286-10.741-2.7581-0.3416-8.3464-1.6736-12.418-2.96-8.8278-2.7887-12.293-1.4678-10.49 3.9986 1.9244 5.8345 22.367 12.505 29.737 9.7027zm-3.9702-3.9607c-0.61875-0.61875-1.125-1.5469-1.125-2.0625 0-0.52084 0.5-0.4375 1.125 0.1875 1.5616 1.5616 2.6744 1.4072 2.0265-0.28125-0.69045-1.7993 0.9572-1.827 2.4394-0.0411 2.2261 2.6823-1.9341 4.7292-4.4659 2.1973zm-23.62-4.9632c-1.6058-1.9349-0.08427-3.5588 2.9342-3.1318 1.4879 0.21051 2.2175 0.93063 2.2175 2.1887 0 2.3742-3.4411 3.0041-5.1517 0.94301zm2.8079-0.88768c0-0.22738-0.42188-0.67415-0.9375-0.99283s-0.9375-0.13264-0.9375 0.41342c0 0.54605 0.42188 0.99283 0.9375 0.99283s0.9375-0.18604 0.9375-0.41342zm-8.4375 6.9759c0.55191-1.0312 0.79253-1.875 0.53472-1.875s-0.92031 0.84375-1.4722 1.875-0.79253 1.875-0.53472 1.875 0.92031-0.84375 1.4722-1.875zm117.31-13.749c1.1654-1.4146 1.0216-1.4967-1.5258-0.87116-3.8837 0.95362-5.2076 2.4329-2.1773 2.4329 1.329 0 2.9955-0.70279 3.7031-1.5618zm-11.37-55.07c19.58-2.5503 37.862-5.4359 39.844-6.2887 2.4432-1.0516-4.2278-0.30428-18.712 2.0961-24.214 4.0129-75.295 5.3356-103.16 2.6713-17.652-1.6876-34.506-3.7496-38.906-4.7598-5.8124-1.3346-10.73-2.3714-17.344-3.6568-6.887-1.3385-20.555-5.3667-24.375-7.1836-2.562-1.2187-2.6513-1.2092-1.0024 0.1067 6.641 5.2998 38.897 13.672 61.94 16.078 26.499 2.766 32.816 3.0552 60.469 2.7691 20.212-0.20914 33.229-0.78722 41.25-1.832zm-23.284-2.0618c11-0.5119 13.649-0.89364 13.259-1.9107-0.28578-0.74473 0.13608-1.271 1.0188-1.271 0.82861 0 1.5066 0.43698 1.5066 0.97107 0 1.1327 16.943 0.41814 25.781-1.0873 3.0938-0.52698 6.8906-1.1309 8.4375-1.3421 6.196-0.84596 7.1657-1.3284 6.5526-3.2603-0.3324-1.0473-0.15291-1.8438 0.41548-1.8438 0.94638 0 1.4043 1.349 1.0734 3.1619-0.0821 0.44998 0.60617 0.50326 1.5296 0.1184s2.9446-0.98247 4.4915-1.328c3.5034-0.78265 2.5578-1.242-8.9062-4.3261-4.3828-1.1791-6.9141-2.1602-5.625-2.1801 2.273-0.03525 16.365 3.4641 20.156 5.0053 1.2999 0.5284 1.5875 0.45981 0.9375-0.22365-0.51562-0.54219-4.3125-2.0611-8.4375-3.3753-8.5178-2.7137-6.0599-3.2163 3.5156-0.71886 3.4805 0.90775 6.3281 1.5219 6.3281 1.3648 0-0.77989-7.8482-3.5206-14.367-5.0173-4.0348-0.92633-7.6207-1.9862-7.9688-2.3553-0.34803-0.36911 0.21097-0.43682 1.2422-0.15046 1.0312 0.28636 4.4062 1.023 7.5 1.6369 3.0938 0.61396 8.761 2.3234 12.594 3.7988 3.8329 1.4754 7.1676 2.4838 7.4105 2.2409 0.74075-0.74074-8.317-4.4583-16.254-6.6712-4.125-1.1501-6.8672-2.1221-6.0938-2.1601 2.0859-0.10253 18.822 4.6074 21.75 6.121 3.011 1.5564 6.8119 1.8673 4.4997 0.36807-2.2581-1.4641-13.125-5.402-19.075-6.9125-6.1294-1.5559-8.3103-2.7917-3.3562-1.9019 5.5349 0.99423 16.044 4.2308 21.335 6.5708 5.7314 2.5347 5.7841 2.5478 5.7841 1.4395 0-1.9675-17.479-8.6782-28.398-10.902-1.439-0.29316-2.4179-0.85431-2.1752-1.247 1.515-2.4513 19.276 0.73359 27.76 4.9781 5.4559 2.7294 8.4375 3.6336 8.4375 2.5589 0-0.94498-3.8058-2.7246-13.217-6.1804-5.3195-1.9533-9.0607-2.8945-23.222-5.8419-1.221-0.25413-2.0246-0.6574-1.7859-0.89616 0.90577-0.90578 19.405 3.4434 28.639 6.7333 5.2983 1.8875 9.8757 3.1894 10.172 2.8931 4.0382-4.0382-29.232-11.111-62.461-13.278-3.8672-0.25221-12.727-0.90029-19.688-1.4402-22.098-1.7139-75.212-1.7026-95.625 0.020391-4.8984 0.41344-12.492 1.0394-16.875 1.3911-16.132 1.2944-35.977 6.0762-41.481 9.995-4.3829 3.1209-2.8603 3.4393 3.0304 0.6336 3.0866-1.4701 6.1452-2.6397 6.7969-2.599 0.65166 0.04067-0.7136 1.0047-3.0339 2.1423-6.6834 3.2766-8.6318 4.4645-8.1362 4.9601 0.25406 0.25406 1.8476-0.25464 3.5412-1.1304 4.3322-2.2403 17.71-6.9939 19.505-6.9309 0.82299 0.02885-1.6677 1.2292-5.5349 2.6674-8.7785 3.2647-15.938 6.4389-15.938 7.0665 0 1.4621 5.3364 3.0446 7.5 2.2242 3.381-1.2821 20.837-5.4573 22.5-5.3815 1.5792 0.07196-3.277 1.5999-14.832 4.6669-4.5619 1.2108-7.4545 2.4172-6.9662 2.9055s2.4062 0.28058 4.619-0.50014c4.837-1.7066 18.8-4.5674 20.129-4.1242 0.55759 0.18586-4.2022 1.5387-10.577 3.0063-8.0974 1.8641-11.026 2.8728-9.7162 3.3464 1.0312 0.37289 2.7188 0.32611 3.75-0.10396 3.2229-1.3441 17.538-4.6943 18.016-4.2163 0.25015 0.25015-1.1698 0.88505-3.1554 1.4109s-5.6142 1.4848-8.0634 2.1311c-2.4492 0.64624-4.4531 1.5545-4.4531 2.0183s0.73828 0.5383 1.6406 0.16546c1.5555-0.64274 14.292-4.16 15.188-4.1941 2.1239-0.08089-2.6522 1.9495-7.7573 3.2978-4.5334 1.1973-5.985 1.9208-4.9812 2.4826 0.86837 0.48596 4.1749 0.03618 8.5423-1.162 3.919-1.0752 7.6371-1.7473 8.2624-1.4937 0.67136 0.27235 0.50103 0.49151-0.41597 0.53521-1.1126 0.05303-1.4045 0.6412-1.0297 2.0745 0.37947 1.4511 0.16227 1.8695-0.79089 1.5234-0.72272-0.26239-1.1965-0.98785-1.0529-1.6121 0.18639-0.81008-0.61887-0.94627-2.8125-0.47569-4.7547 1.02-5.2483 1.7399-1.6674 2.4314 1.8047 0.34853 6.6562 1.3308 10.781 2.1827s8.6305 1.3322 10.012 1.0673c1.3817-0.26498 2.6594-0.04031 2.8392 0.49926 0.6656 1.9968 30.629 4.3516 31.851 2.5031 0.63608-0.96248 1.0458-0.89675 1.9795 0.31758 2.0269 2.636 23.699 3.4974 53.315 2.1192zm-46.824-2.3891c0.4866-1.4598 2.584-1.7154 2.6575-0.32391 0.0272 0.51562-0.65416 1.0833-1.5142 1.2614-0.97754 0.20249-1.4061-0.14895-1.1433-0.9375zm8.6976 0.13822c-0.32091-0.51927 0.0943-1.2042 0.92262-1.5221 1.795-0.6888 2.7954 0.07024 1.9325 1.4663-0.77848 1.2596-2.0952 1.2853-2.8552 0.05575zm9.8478-0.46213c0-0.96559 0.61444-1.4254 1.6406-1.2278 1.9761 0.38056 1.8515 2.0444-0.18485 2.4684-0.84936 0.17685-1.4558-0.33993-1.4558-1.2406zm17.812 0c0-0.77344 0.63281-1.4062 1.4062-1.4062s1.4062 0.63281 1.4062 1.4062c0 0.77344-0.63281 1.4062-1.4062 1.4062s-1.4062-0.63281-1.4062-1.4062zm15.938-0.07812c0-1.6556 2.0182-1.3672 2.5976 0.37109 0.20411 0.6123-0.29687 1.1133-1.1133 1.1133-0.8164 0-1.4844-0.66797-1.4844-1.4844zm-23.866-0.32585c-0.29666-0.48-0.11062-1.1377 0.41342-1.4616 1.1188-0.69145 2.8278 0.18616 2.8278 1.4521 0 1.1408-2.5375 1.1482-3.2412 0.0095zm16.546-0.1351c0.18476-0.5543 0.73672-1.0078 1.2266-1.0078s1.0418 0.45352 1.2266 1.0078c0.18477 0.5543-0.36718 1.0078-1.2266 1.0078s-1.4113-0.45352-1.2266-1.0078zm-81.143-1.5177c-1.0558-1.0558-0.64302-2.162 0.80674-2.162 0.77344 0 1.4062 0.39698 1.4062 0.88217 0 1.1822-1.464 2.0288-2.213 1.2798zm125.96-0.28701c0-0.51562 0.42187-0.9375 0.9375-0.9375 0.51562 0 0.9375 0.42188 0.9375 0.9375s-0.42188 0.9375-0.9375 0.9375c-0.51563 0-0.9375-0.42188-0.9375-0.9375zm-118.83-0.67339c-1.3224-0.47435-1.6177-3.0766-0.34917-3.0766 1.2282 0 3.1345 2.5795 2.2697 3.0713-0.41176 0.23414-1.276 0.23654-1.9205 0.0053zm107.2-0.11765c-0.32443-0.52492-0.13304-1.2367 0.4253-1.5818 1.4414-0.89083 2.3714 0.32939 1.1681 1.5327-0.6733 0.67329-1.1977 0.68947-1.5934 0.04915zm5.2454-0.21678c0.18476-0.5543 0.73672-1.0078 1.2266-1.0078s1.0418 0.45352 1.2266 1.0078c0.18477 0.5543-0.36718 1.0078-1.2266 1.0078s-1.4113-0.45352-1.2266-1.0078zm-104.55-0.55469c-1.0787-1.0787-0.68273-2.1875 0.78125-2.1875 0.77344 0 1.4062 0.63281 1.4062 1.4062 0 1.464-1.1088 1.86-2.1875 0.78125zm85.312 0c-1.0787-1.0787-0.68272-2.1875 0.78125-2.1875 0.77344 0 1.4062 0.63281 1.4062 1.4062 0 1.464-1.1088 1.86-2.1875 0.78125zm6.875-0.78125c0-0.77344 0.63281-1.4062 1.4062-1.4062s1.4062 0.63281 1.4062 1.4062c0 0.77344-0.63281 1.4062-1.4062 1.4062s-1.4062-0.63281-1.4062-1.4062zm-84.375-0.9375c0-0.77344 0.58768-1.4062 1.306-1.4062s1.5488 0.63281 1.8456 1.4062c0.36705 0.95652-0.0506 1.4062-1.306 1.4062-1.0155 0-1.8456-0.63247-1.8456-1.4062zm8.6719 0.23438c0.21484-0.64453 0.95312-1.1719 1.6406-1.1719s1.4258 0.52734 1.6406 1.1719c0.23236 0.69712-0.4323 1.1719-1.6406 1.1719s-1.873-0.47476-1.6406-1.1719zm9.2855-0.17592c0.17815-0.86006 0.74579-1.5415 1.2614-1.5142 1.3915 0.0735 1.1359 2.1709-0.32391 2.6575-0.78855 0.26285-1.14-0.16572-0.9375-1.1433zm9.6604 0.34793c-0.86282-1.3961 0.13756-2.1551 1.9325-1.4663 0.82836 0.31787 1.2435 1.0028 0.92262 1.5221-0.75992 1.2296-2.0767 1.2039-2.8552-0.05575zm18.937 0.36674c-0.33928-0.33928-0.61687-1.1794-0.61687-1.8669 0-1.3966 2.4167-1.7113 3.2156-0.41872 0.63801 1.0323-1.7509 3.1334-2.5987 2.2856zm8.2043-0.65678c-0.79426-2.0698 0.26242-3.1265 1.6945-1.6945 0.84553 0.84554 0.84913 1.3696 0.0151 2.2036-0.83402 0.83402-1.2406 0.71293-1.7096-0.50918zm14.831 0.17664c0.57944-1.7383 2.5976-2.0266 2.5976-0.37109 0 0.81641-0.66797 1.4844-1.4844 1.4844-0.81641 0-1.3174-0.50098-1.1133-1.1133zm-32.414-1.2701c0.61402-1.6001 2.3428-1.4033 2.9215 0.33259 0.20608 0.61824-0.48431 1.1133-1.5526 1.1133-1.3482 0-1.7577-0.43254-1.3689-1.4459zm24.903 0.36353c0.48659-1.4598 2.584-1.7154 2.6575-0.32391 0.0273 0.51562-0.65416 1.0833-1.5142 1.2614-0.97754 0.20249-1.4061-0.14895-1.1433-0.9375zm49.196 0.48283c-0.74899-0.749 0.09768-2.213 1.2798-2.213 0.48519 0 0.88217 0.63281 0.88217 1.4062 0 1.4498-1.1062 1.8625-2.162 0.80674zm-5.338-1.6661c0-0.81641 0.66797-1.4844 1.4844-1.4844 0.81641 0 1.3174 0.50098 1.1133 1.1133-0.57944 1.7383-2.5976 2.0266-2.5976 0.37109zm-146.04-1.6602c0.57944-1.7383 2.5977-2.0266 2.5977-0.37109 0 0.81641-0.66797 1.4844-1.4844 1.4844-0.81641 0-1.3174-0.50098-1.1133-1.1133zm7.2852-0.29297c0-0.77344 0.42188-1.4062 0.9375-1.4062s0.9375 0.63281 0.9375 1.4062c0 0.77344-0.42188 1.4062-0.9375 1.4062s-0.9375-0.63281-0.9375-1.4062zm6.5456 0.4583c-1.094-0.67613-1.1367-1.086-0.20963-2.013 1.3981-1.3981 3.3083 0.0709 2.2721 1.7474-0.44473 0.71959-1.1756 0.8137-2.0625 0.26558zm114.39-0.92705c0-1.2083 0.47476-1.873 1.1719-1.6406 0.64454 0.21484 1.1719 0.95312 1.1719 1.6406s-0.52734 1.4258-1.1719 1.6406c-0.69711 0.23237-1.1719-0.43229-1.1719-1.6406zm5.625 0.46875c0-0.77344 0.63281-1.4062 1.4062-1.4062s1.4062 0.63281 1.4062 1.4062c0 0.77344-0.63281 1.4062-1.4062 1.4062s-1.4062-0.63281-1.4062-1.4062zm6.5625 0.46875c0-0.51562 0.63281-0.9375 1.4062-0.9375s1.4062 0.42188 1.4062 0.9375-0.63281 0.9375-1.4062 0.9375-1.4062-0.42188-1.4062-0.9375zm-120-1.4062c0-0.77344 0.61957-1.4062 1.3768-1.4062 0.83868 0 1.1659 0.54965 0.8372 1.4062-0.2968 0.77344-0.91637 1.4062-1.3768 1.4062s-0.8372-0.63281-0.8372-1.4062zm100.96 0.80078c-1.2226-1.2226-0.6389-2.207 1.3086-2.207 1.091 0 1.7893 0.49141 1.582 1.1133-0.45666 1.37-2.022 1.9623-2.8906 1.0938zm-93.223-1.5039c0.21484-0.64453 0.95312-1.1719 1.6406-1.1719s1.4258 0.52734 1.6406 1.1719c0.23237 0.69712-0.43229 1.1719-1.6406 1.1719s-1.873-0.47476-1.6406-1.1719zm17.24 0.52139c-1.1205-1.1205-0.60535-3.0995 0.80674-3.0995 0.77344 0 1.4062 0.60791 1.4062 1.3509 0 1.5662-1.3381 2.6235-2.213 1.7486zm7.4864-0.0974c-0.90191-1.4593 1.1175-3.5487 2.2933-2.3728 0.59529 0.59529 0.7989 1.541 0.45245 2.1015-0.7403 1.1978-2.0907 1.3313-2.7458 0.2713zm19.208-0.52995c-1.2138-1.4626-0.45044-2.4722 1.8694-2.4722 2.4579 0 3.0314 1.6379 0.96128 2.7458-1.319 0.70589-2.0787 0.63246-2.8306-0.2736zm33.872 0.65089c-1.6906-0.67569-0.46097-2.1856 1.7799-2.1856 1.0483 0 1.7317 0.49833 1.5267 1.1133-0.44009 1.3203-1.68 1.7224-3.3066 1.0723zm7.2715-0.7793c0-0.96559 0.61444-1.4254 1.6406-1.2278 1.9761 0.38056 1.8515 2.0444-0.18485 2.4684-0.84936 0.17685-1.4558-0.33993-1.4558-1.2406zm-77.162-0.13076c-0.87491-0.87492 0.18236-2.213 1.7486-2.213 0.74301 0 1.3509 0.63281 1.3509 1.4062 0 1.4121-1.9791 1.9272-3.0995 0.80674zm26.537-0.80674c0-0.96559 0.61444-1.4254 1.6406-1.2278 1.9761 0.38056 1.8515 2.0444-0.18486 2.4684-0.84936 0.17685-1.4558-0.33993-1.4558-1.2406zm19.375 0.78125c-1.1886-1.1886-0.61773-2.1875 1.25-2.1875 1.0417 0 1.875 0.625 1.875 1.4062 0 1.4273-1.9832 1.9231-3.125 0.78125zm7.3438-0.3125c-0.32861-0.53171 0.45902-0.9375 1.8197-0.9375 1.3195 0 2.3991 0.42188 2.3991 0.9375s-0.81885 0.9375-1.8197 0.9375-2.0804-0.42188-2.3991-0.9375zm8.9062-0.46875c0-0.77344 0.63281-1.4062 1.4062-1.4062s1.4062 0.63281 1.4062 1.4062c0 0.77344-0.63281 1.4062-1.4062 1.4062s-1.4062-0.63281-1.4062-1.4062zm17.812-2.3438-5.1562-0.63188 4.6875-0.08331c2.5781-0.04583 6.5859 0.25448 8.9062 0.66735l4.2188 0.75067-3.75-0.03547c-2.0625-0.01951-6.0703-0.31982-8.9062-0.66735zm-155.62-1.2934c0-1.25 19.584-8.1133 22.943-8.0403 1.0456 0.02274-2.9506 1.6684-8.8802 3.657-5.9297 1.9886-11.52 3.9136-12.422 4.2777-0.90234 0.3641-1.6406 0.41159-1.6406 0.10553zm146.5-0.29381c0.91215-0.2377 2.1778-0.22206 2.8125 0.03473 0.63471 0.2568-0.1116 0.45128-1.6585 0.43218-1.5469-0.01911-2.0662-0.22922-1.154-0.46692zm8.654-1.8487c-6.038-1.0629-6.1504-1.1223-1.4062-0.74281 2.8359 0.22684 6.9492 0.4161 9.1406 0.42058 2.1914 0.0045 3.9844 0.43672 3.9844 0.96054 0 1.106-2.6207 0.96329-11.719-0.63831zm2.8125-1.8813c-6.7345-0.83508-15.564-2.4002-15.259-2.705 0.4632-0.46321 23.41 2.2672 23.999 2.8556 0.50853 0.50853-4.0588 0.42981-8.7397-0.15062zm5.1562-2.3767c-2.3203-0.44167-8.2266-1.1525-13.125-1.5797-8.2338-0.71798-8.4462-0.78434-2.8125-0.87886 6.2253-0.10445 19.604 1.3187 20.462 2.1767 0.97508 0.97507-0.42443 1.0623-4.5243 0.28186zm0.76274-3.1059c-0.26799-0.26799-5.7172-0.87538-12.109-1.3498l-11.622-0.8625 12.775 0.39959c11.593 0.36261 22.529 2.072 14.335 2.2405-1.5898 0.03268-3.1099-0.15984-3.3779-0.42784zm-155.45-0.81506c0-0.50874 11.278-4.3376 12.604-4.2788 1.1724 0.051937-6.6787 3.1922-10.174 4.0696-1.3362 0.33537-2.4295 0.42952-2.4295 0.20922zm142.03-2.4477-12.188-0.5547 13.594-0.097952c7.4766-0.053874 14.648 0.23982 15.938 0.65265 2.7302 0.87436 1.8672 0.87436-17.344 0zm5.625-2.8778c-3.3055-0.49945-1.8283-0.61415 5.0105-0.38906 5.3339 0.17556 9.9394 0.56055 10.234 0.85554 0.72366 0.72366-9.423 0.41318-15.245-0.46648zm-13.346-1.5449c1.425-0.21549 3.5344-0.20973 4.6875 0.012797 1.1531 0.22253-0.0128 0.39884-2.591 0.3918-2.5781-0.00704-3.5215-0.18911-2.0965-0.40459zm87.212 31.61c0.26968-1.0312 0.33372-1.875 0.14232-1.875-0.19139 0-0.79955 0.84375-1.3515 1.875-0.55438 1.0359-0.61807 1.875-0.14233 1.875 0.47363 0 1.0818-0.84375 1.3515-1.875zm-21.151-1.5039c-0.31153-0.31152-1.1201-0.34483-1.7969-0.07402-0.74787 0.29927-0.52573 0.52142 0.56641 0.56641 0.98827 0.04071 1.542-0.18087 1.2305-0.49239zm7.7539-2.3855c0.89987-0.5272 0.3935-0.60488-1.4062-0.21573-1.5469 0.33448-3.4453 0.97888-4.2188 1.432-0.89987 0.5272-0.3935 0.60488 1.4062 0.21573 1.5469-0.33448 3.4453-0.97888 4.2188-1.432zm-1.4062-2.6731c-0.31868-0.51562-1.0819-0.93104-1.696-0.92314-0.67088 0.0086-0.55525 0.37709 0.28971 0.92314 1.801 1.1639 2.1256 1.1639 1.4062 0zm16.919-4.7583c0.34726-0.56188-0.65391-0.35694-2.2248 0.45542-1.5709 0.81236-3.1404 1.9367-3.4876 2.4986-0.34726 0.56188 0.65391 0.35694 2.2248-0.45542 1.5709-0.81236 3.1404-1.9367 3.4876-2.4986zm-236.14-2.2271c-0.94397-0.71541-2.3383-2.0731-3.0986-3.0171-1.2878-1.5989-1.3139-1.5748-0.38157 0.35292 0.55039 1.1381 1.7338 2.4963 2.6298 3.0184 2.3537 1.3713 2.8528 1.1634 0.85032-0.35422zm234.18 0.47656c0.97409-1.5761-18.734-9.4361-23.621-9.4203-1.5625 0.0051 0.98425 1.2426 6.3978 3.109 4.9464 1.7054 10.431 3.987 12.188 5.0702 3.7174 2.2923 4.2977 2.4353 5.0358 1.241zm15.574-1.0776c6.612-1.6482 7.7988-9.9968 1.6272-11.447-2.2593-0.53097-4.0458-0.45572-5.1562 0.21721-1.4348 0.86954-1.3117 0.94238 0.79172 0.46834 8.2682-1.8634 9.7132 7.8304 1.4776 9.9129-5.2308 1.3227-8.9054 2.9874-4.9059 2.2225 1.5469-0.29582 4.3214-0.91398 6.1656-1.3737zm0.42345-3.6857c2.8866-2.3957 1.7177-4.9656-1.9852-4.3647-4.215 0.68399-6.0101 2.1391-6.0101 4.8716 0 2.3378 4.9455 2.0243 7.9953-0.50687zm-9.8703 0.54614c0-0.22738-0.42188-0.67415-0.9375-0.99283-0.51563-0.31867-0.9375-0.13263-0.9375 0.41342 0 0.54606 0.42187 0.99283 0.9375 0.99283 0.51562 0 0.9375-0.18604 0.9375-0.41342zm-249.15-4.0649c-4.1439-3.4625-4.0669-6.4376 0.21272-8.2257 4.802-2.0064 6.6477-1.6911 9.8845 1.6885l2.9182 3.0469-2.1675-3.505c-3.2203-5.2073-8.6444-5.5464-14.121-0.88283-2.836 2.4152-1.1936 6.8037 3.5156 9.3934 3.0767 1.692 2.9965 1.1915-0.24283-1.5152zm9.1223-3.0217c-0.14112-4.4341-8.3565-5.8633-9.1782-1.5967-0.59946 3.1127 3.4627 5.3245 6.5521 3.5674 1.4526-0.82612 2.6343-1.713 2.6261-1.9708zm206.53 1.2601c-0.63472-0.2568-1.9004-0.27244-2.8125-0.03473-0.91216 0.2377-0.39285 0.44781 1.154 0.46691 1.5469 0.01911 2.2932-0.17537 1.6585-0.43218z"/>
</svg>
