<?xml version="1.0" encoding="UTF-8"?>
<!DOCTYPE svg  PUBLIC '-//W3C//DTD SVG 1.1//EN'  'http://www.w3.org/Graphics/SVG/1.1/DTD/svg11.dtd'>
<svg width="338pt" height="161pt" version="1.1" viewBox="0 0 338 161" xmlns="http://www.w3.org/2000/svg">
 <path d="m206.29 5.33c0.98-10.51 7.51 4.23 11.93 0.98 2.32-8.91 11.95 12.04 12.09-0.44 4.66 5.82 9.23 12.34 12.22 18.72 30.7 1.64 59.95 14.85 82.8 35.07 5.05 6.67 16.04 14.34 9.26 23.7-25.94 19.23-54.89 36.77-87.82 40.16-3.67 16.24-13.97 31.1-29.9 37.48h-1.76c-8.16-6.02-7.05-18.87-1.12-26.08 2.6-3.95 11.18-3.96 10.63-9.77-28.33-0.75-56.37-5.91-84.56-7.75-3.23 5.57-4.28 19.59-8.11 7.55-5.71 4.67-10.47 10.89-17.77 13.21 1.15-4.46 7.24-9.43 4.34-13.78-13.52-1.68-25.42 15.24-38.4 8.43-3.56-11.94-7.7-39.06 14.02-33.61-12.43-9.76-28.46-16.12-44.41-15.75-15.8 6.02-29.14 19.46-46.49 20.47-1.65-22.32-5.69-46.4 2.17-67.84 24.68 8.47 49.38 31.07 77.05 16.13-6.23-1.4-11.09-6.49-7.74-13.12 6.91-11.31 19.99-21.18 33.85-19.49 11.53 2.98 28.3 10.89 36.65 1.45 6.59 1.65 4.97-4.75 12.69-2.69-6.13-7.6 9.57 2.02 6.33-6.45 4.37 3.21 11.73 2.25 6.62-3.91 4.27 1.71 8.62 4 13.42 2.72-1.87-8.72 8.19 2.25 11.16-3-0.93-11.27 8.23 3.68 10.85-2.39z"/>
</svg>
