<?xml version="1.0" encoding="iso-8859-1"?>
<!-- Generator: Adobe Illustrator 19.0.0, SVG Export Plug-In . SVG Version: 6.00 Build 0)  -->
<svg version="1.1" id="Capa_1" xmlns="http://www.w3.org/2000/svg" xmlns:xlink="http://www.w3.org/1999/xlink" x="0px" y="0px"
	 viewBox="0 0 512 512" style="enable-background:new 0 0 512 512;" xml:space="preserve">
<polygon style="fill:#FFC687;" points="449.45,144.6 413.76,512 98.24,512 62.55,144.6 "/>
<polygon style="fill:#FFA76C;" points="449.45,144.6 413.76,512 256,512 256,144.6 "/>
<polygon style="fill:#D9D9DB;" points="318.34,0 318.34,80.45 288.34,80.45 288.34,30 223.66,30 223.66,80.45 193.66,80.45 
	193.66,0 "/>
<rect x="36.15" y="65.45" style="fill:#006EF5;" width="439.7" height="109.15"/>
<rect x="241" y="249.5" style="fill:#FF973F;" width="30" height="192.17"/>
<polygon style="fill:#F76D2A;" points="342.323,441.667 351.328,249.5 321.296,249.5 312.291,441.667 "/>
<polygon style="fill:#FF973F;" points="199.709,441.667 190.704,249.5 160.672,249.5 169.676,441.667 "/>
<polygon style="fill:#AEADB3;" points="288.34,30 256,30 256,0 318.34,0 318.34,80.45 288.34,80.45 "/>
<rect x="256" y="249.5" style="fill:#F76D2A;" width="15" height="192.17"/>
<rect x="256" y="65.45" style="fill:#004EB2;" width="219.85" height="109.15"/>
<g>
</g>
<g>
</g>
<g>
</g>
<g>
</g>
<g>
</g>
<g>
</g>
<g>
</g>
<g>
</g>
<g>
</g>
<g>
</g>
<g>
</g>
<g>
</g>
<g>
</g>
<g>
</g>
<g>
</g>
</svg>
