<?xml version="1.0" encoding="UTF-8"?>
<svg version="1.1" viewBox="0 0 278.06 786.29" xmlns="http://www.w3.org/2000/svg">
 <g transform="translate(-195.67 -151.77)">
  <g transform="translate(-3.0398 -14.286)">
   <path d="m337.92 360.27-0.36765 585.02" fill="none" stroke="#000" stroke-linecap="round" stroke-width="10"/>
   <g transform="matrix(.79184 -.61073 .61073 .79184 -529.66 -25.584)">
    <path transform="matrix(.58271 -.81268 .81268 .58271 -465.75 809.03)" d="m632.86 762.36a65.714 32.857 0 1 1 -131.43 0 65.714 32.857 0 1 1 131.43 0z"/>
    <path d="m494.29 741.65s14.409-2.3162 20.714-5.7143c22.088-11.904 53.571-52.857 53.571-52.857s-33.142 43.139-40 65c-2.0717 6.6038-1.4286 20.714-1.4286 20.714z"/>
   </g>
  </g>
  <g transform="translate(1.7288 -.35713)">
   <g transform="translate(-98.571 -133.02)">
    <path transform="matrix(.58271 -.81268 .81268 .58271 -465.75 809.03)" d="m632.86 762.36a65.714 32.857 0 1 1 -131.43 0 65.714 32.857 0 1 1 131.43 0z"/>
    <path d="m494.29 741.65s14.409-2.3162 20.714-5.7143c22.088-11.904 53.571-52.857 53.571-52.857s-33.142 43.139-40 65c-2.0717 6.6038-1.4286 20.714-1.4286 20.714z"/>
   </g>
   <g transform="matrix(-1 0 0 1 764.51 -133.02)">
    <path transform="matrix(.58271 -.81268 .81268 .58271 -465.75 809.03)" d="m632.86 762.36a65.714 32.857 0 1 1 -131.43 0 65.714 32.857 0 1 1 131.43 0z"/>
    <path d="m494.29 741.65s14.409-2.3162 20.714-5.7143c22.088-11.904 53.571-52.857 53.571-52.857s-33.142 43.139-40 65c-2.0717 6.6038-1.4286 20.714-1.4286 20.714z"/>
   </g>
  </g>
  <g transform="translate(.4141 -1.9308e-6)">
   <g transform="translate(-97.257 -38.017)">
    <path transform="matrix(.58271 -.81268 .81268 .58271 -465.75 809.03)" d="m632.86 762.36a65.714 32.857 0 1 1 -131.43 0 65.714 32.857 0 1 1 131.43 0z"/>
    <path d="m494.29 741.65s14.409-2.3162 20.714-5.7143c22.088-11.904 53.571-52.857 53.571-52.857s-33.142 43.139-40 65c-2.0717 6.6038-1.4286 20.714-1.4286 20.714z"/>
   </g>
   <g transform="matrix(-1 0 0 1 765.83 -38.017)">
    <path transform="matrix(.58271 -.81268 .81268 .58271 -465.75 809.03)" d="m632.86 762.36a65.714 32.857 0 1 1 -131.43 0 65.714 32.857 0 1 1 131.43 0z"/>
    <path d="m494.29 741.65s14.409-2.3162 20.714-5.7143c22.088-11.904 53.571-52.857 53.571-52.857s-33.142 43.139-40 65c-2.0717 6.6038-1.4286 20.714-1.4286 20.714z"/>
   </g>
  </g>
  <g transform="translate(.4141 -.71431)">
   <g transform="translate(-97.257 -228.02)">
    <path transform="matrix(.58271 -.81268 .81268 .58271 -465.75 809.03)" d="m632.86 762.36a65.714 32.857 0 1 1 -131.43 0 65.714 32.857 0 1 1 131.43 0z"/>
    <path d="m494.29 741.65s14.409-2.3162 20.714-5.7143c22.088-11.904 53.571-52.857 53.571-52.857s-33.142 43.139-40 65c-2.0717 6.6038-1.4286 20.714-1.4286 20.714z"/>
   </g>
   <g transform="matrix(-1 0 0 1 765.83 -228.02)">
    <path transform="matrix(.58271 -.81268 .81268 .58271 -465.75 809.03)" d="m632.86 762.36a65.714 32.857 0 1 1 -131.43 0 65.714 32.857 0 1 1 131.43 0z"/>
    <path d="m494.29 741.65s14.409-2.3162 20.714-5.7143c22.088-11.904 53.571-52.857 53.571-52.857s-33.142 43.139-40 65c-2.0717 6.6038-1.4286 20.714-1.4286 20.714z"/>
   </g>
  </g>
  <g transform="translate(-1.0145 .35708)">
   <g transform="translate(-95.828 -324.45)">
    <path transform="matrix(.58271 -.81268 .81268 .58271 -465.75 809.03)" d="m632.86 762.36a65.714 32.857 0 1 1 -131.43 0 65.714 32.857 0 1 1 131.43 0z"/>
    <path d="m494.29 741.65s14.409-2.3162 20.714-5.7143c22.088-11.904 53.571-52.857 53.571-52.857s-33.142 43.139-40 65c-2.0717 6.6038-1.4286 20.714-1.4286 20.714z"/>
   </g>
   <g transform="matrix(-1 0 0 1 767.26 -324.45)">
    <path transform="matrix(.58271 -.81268 .81268 .58271 -465.75 809.03)" d="m632.86 762.36a65.714 32.857 0 1 1 -131.43 0 65.714 32.857 0 1 1 131.43 0z"/>
    <path d="m494.29 741.65s14.409-2.3162 20.714-5.7143c22.088-11.904 53.571-52.857 53.571-52.857s-33.142 43.139-40 65c-2.0717 6.6038-1.4286 20.714-1.4286 20.714z"/>
   </g>
  </g>
  <g transform="translate(-.20602)">
   <g transform="matrix(.9827 -.18522 .18522 .9827 -241.09 -318.25)">
    <path transform="matrix(.58271 -.81268 .81268 .58271 -465.75 809.03)" d="m632.86 762.36a65.714 32.857 0 1 1 -131.43 0 65.714 32.857 0 1 1 131.43 0z"/>
    <path d="m494.29 741.65s14.409-2.3162 20.714-5.7143c22.088-11.904 53.571-52.857 53.571-52.857s-33.142 43.139-40 65c-2.0717 6.6038-1.4286 20.714-1.4286 20.714z"/>
   </g>
   <g transform="matrix(-.9827 -.18522 -.18522 .9827 910.9 -318.25)">
    <path transform="matrix(.58271 -.81268 .81268 .58271 -465.75 809.03)" d="m632.86 762.36a65.714 32.857 0 1 1 -131.43 0 65.714 32.857 0 1 1 131.43 0z"/>
    <path d="m494.29 741.65s14.409-2.3162 20.714-5.7143c22.088-11.904 53.571-52.857 53.571-52.857s-33.142 43.139-40 65c-2.0717 6.6038-1.4286 20.714-1.4286 20.714z"/>
   </g>
  </g>
 </g>
</svg>
