<?xml version="1.0" encoding="UTF-8"?>
<svg viewBox="0 0 640 480" xmlns="http://www.w3.org/2000/svg">
 <g fill-rule="evenodd">
  <path d="m290.04 487.46s-16.749 4.0028-18.442 6.7267c-1.6925 2.7239-3.6588 6.8838-3.6588 6.8838s8.3532-1.7515 9.0665-4.2068c0.71332-2.4554 20.57 0.75287 20.57 0.75287" stroke-width="0"/>
  <path d="m290.04 487.46s-16.749 4.0028-18.442 6.7267c-1.6925 2.7239-3.6588 6.8838-3.6588 6.8838s8.3532-1.7515 9.0665-4.2068c0.71332-2.4554 20.57 0.75287 20.57 0.75287" stroke="#000" stroke-width="3"/>
 </g>
 <g fill-rule="evenodd">
  <path d="m206.5 453.7s24.017-3.4311 30.565-2.542c6.5476 0.88913 14.326 5.0341 14.326 5.0341s-12.042-1.4572-15.365-0.54105c-3.3236 0.91614-9.2199 5.7566-9.2199 5.7566" stroke-width="0"/>
  <path d="m206.5 453.7s24.017-3.4311 30.565-2.542c6.5476 0.88913 14.326 5.0341 14.326 5.0341s-12.042-1.4572-15.365-0.54105c-3.3236 0.91614-9.2199 5.7566-9.2199 5.7566" stroke="#000" stroke-width="3"/>
  <path d="m226.68 472.29c-2.0296-1.8772 37.821-6.9881 38.596-9.298 0.77551-2.31-54.192-7.9756-54.192-7.9756" stroke-width="0"/>
  <path d="m226.68 472.29c-5.8328-1.6377 30.77-7.4374 38.596-9.298 7.8266-1.8607-54.433-6.3102-54.433-6.3102" stroke="#000" stroke-width="3"/>
  <path d="m175.39 378.88c2.1245 10.514 22.783 87.862 30.234 89.906 7.451 2.0443 30.409 10.724 32.399 11.592 2.4411 1.0646 12.871 9.3543 12.871 9.3543s-6.4815-13.344-9.5086-14.044c-3.0272-0.69998-23.515-14.549-24.644-17.544-13.542-25.702-22.501-65.246-24.25-80.322" stroke-width="0"/>
  <path d="m175.39 378.88c2.1245 10.514 22.783 87.862 30.234 89.906 7.451 2.0443 30.409 10.724 32.399 11.592 2.4411 1.0646 12.871 9.3543 12.871 9.3543s-6.4815-13.344-9.5086-14.044c-3.0272-0.69998-23.515-14.549-24.644-17.544-13.542-25.702-22.501-65.246-24.25-80.322" stroke="#000" stroke-width="3"/>
 </g>
 <g fill-rule="evenodd">
  <path d="m109.31 316.75s6.7193 43.873 24.901 48.221c18.182 4.3478 38.34 25.691 42.292 26.482 3.9526 0.79053 18.577 7.1146 20.948 7.1146 2.3716 0 50.197-27.668 50.197-27.668" stroke-width="0"/>
  <path d="m109.31 316.75s6.7193 43.873 24.901 48.221c18.182 4.3478 38.34 25.691 42.292 26.482 3.9526 0.79053 18.577 7.1146 20.948 7.1146 2.3716 0 50.197-27.668 50.197-27.668" stroke="#000" stroke-width="3"/>
  <path d="m296.23 137.15c-41.422 34.741-45.43 24.942-48.548 25.833-3.1178 0.89079-32.514 23.16-45.43 23.16s-41.867-5.3447-57.901-1.3362c-16.034 4.0086-94.869 32.068-94.869 32.068s5.3447 84.625 32.068 102c26.724 17.37 74.381 26.724 74.381 26.724s181.72 11.58 205.77-40.976c24.051-52.556 19.597-94.424 19.597-94.424l-44.539-73.935" stroke-width="0"/>
  <path d="m296.23 137.15c-41.422 34.741-45.43 24.942-48.548 25.833-3.1178 0.89079-32.514 23.16-45.43 23.16s-41.867-5.3447-57.901-1.3362c-16.034 4.0086-94.869 32.068-94.869 32.068s5.3447 84.625 32.068 102c26.724 17.37 74.381 26.724 74.381 26.724s181.72 11.58 205.77-40.976c24.051-52.556 19.597-94.424 19.597-94.424l-44.539-73.935" stroke="#000" stroke-width="3"/>
  <path d="m295.11 487.59s22.627-8.7539 29.206-9.3628c6.5796-0.60886 15.092 1.6769 15.092 1.6769s-12.06 1.2932-15.092 2.9346c-3.0317 1.6414-7.6858 7.6858-7.6858 7.6858" stroke-width="0"/>
  <path d="m295.11 487.59s22.627-8.7539 29.206-9.3628c6.5796-0.60886 15.092 1.6769 15.092 1.6769s-12.06 1.2932-15.092 2.9346c-3.0317 1.6414-7.6858 7.6858-7.6858 7.6858" stroke="#000" stroke-width="3"/>
  <path d="m318.97 501.15c-2.4004-1.3717 35.274-15.329 35.509-17.754 0.23508-2.4253-54.595 4.4386-54.595 4.4386" stroke-width="0"/>
  <path d="m318.97 501.15c-6.0518-0.28149 28.303-14.178 35.509-17.754 7.2061-3.5761-54.456 6.1155-54.456 6.1155" stroke="#000" stroke-width="3"/>
  <path d="m247.95 421.7c4.4386 9.765 41.993 80.47 49.713 80.783 7.72 0.31302 32.044 3.5977 34.178 3.9947 2.6182 0.48727 14.648 6.2141 14.648 6.2141s-9.3211-11.54-12.428-11.54c-3.107 0-26.188-8.8773-27.963-11.54-18.984-21.99-36.622-58.499-41.723-72.794" stroke-width="0"/>
  <path d="m247.95 421.7c4.4386 9.765 41.993 80.47 49.713 80.783 7.72 0.31302 32.044 3.5977 34.178 3.9947 2.6182 0.48727 14.648 6.2141 14.648 6.2141s-9.3211-11.54-12.428-11.54c-3.107 0-26.188-8.8773-27.963-11.54-18.984-21.99-36.622-58.499-41.723-72.794" stroke="#000" stroke-width="3"/>
  <path d="m140.82 366.58s30.649 23.121 32.8 23.659c2.1508 0.53769 19.357 7.5279 22.584 7.5279 3.2262 0 17.744-8.6033 17.744-8.6033l1.6131-26.885c-21.786 1.6561-22.292 16.728-74.741 4.3017z" fill-opacity=".091" stroke-width="0"/>
  <path d="m330.1 321.43c-8.8933 38.36-8.4386 52.165-33.518 78.482-1.635 4.9051-17.985 27.796-23.708 28.613-5.7227 0.81754-23.708 0-27.796-3.27-4.0876-3.2701-13.898-27.796-19.62-30.248-5.7226-2.4525-53.956-29.431-55.591-33.518-1.635-4.0876-21.256-26.978-21.256-26.978" stroke-width="0"/>
  <path d="m330.1 321.43c-8.8933 38.36-8.4386 52.165-33.518 78.482-1.635 4.9051-17.985 27.796-23.708 28.613-5.7227 0.81754-23.708 0-27.796-3.27-4.0876-3.2701-13.898-27.796-19.62-30.248-5.7226-2.4525-53.956-29.431-55.591-33.518-1.635-4.0876-21.256-26.978-21.256-26.978" stroke="#000" stroke-width="3"/>
 </g>
 <g fill-rule="evenodd">
  <path d="m360.34 219.44c-1.1556 60.093-16.757 85.517-49.114 90.718-32.358 5.2004-109.78 27.157-116.72 24.846-6.9338-2.3112-41.025-1.1556-41.025-8.0894 0-6.9339 79.161-27.735 79.161-27.735s-72.805 24.846-75.116 16.179c-2.3112-8.6673 67.605-31.78 67.605-31.78s-52.004 21.379-53.159 9.823c-1.1556-11.556 43.336-21.379 43.336-21.379s-41.025 9.823-39.292 2.3113c1.7334-7.5117 28.313-10.979 28.313-10.979s-15.023-1.1556-14.445-5.2003c0.5778-4.0447 20.802-9.8229 20.802-9.8229l64.138 35.825" stroke-width="0"/>
  <path d="m360.34 219.44c-1.1556 60.093-39.773 59.304-49.114 90.718-4.5533 15.311-104.24 29.174-116.72 24.846-6.9054-2.3948-41.025-1.1556-41.025-8.0894 0-6.9339 79.161-27.735 79.161-27.735s-72.805 24.846-75.116 16.179c-2.3112-8.6673 67.605-31.78 67.605-31.78s-52.004 21.379-53.159 9.823c-1.1556-11.556 43.336-21.379 43.336-21.379s-41.025 9.823-39.292 2.3113c1.7334-7.5117 28.313-10.979 28.313-10.979s-15.023-1.1556-14.445-5.2003c0.5778-4.0447 39.282-13.554 39.282-13.554l45.658 39.556" stroke="#000" stroke-width="3"/>
  <g stroke="#000">
   <g stroke-width=".735">
    <path d="m234.08 275.64c-48.565 13.196-55.104 15.95-52.298 20.573 5.9018 9.7237 69.96-7.1383 69.947-7.1682"/>
    <path d="m234.95 247.29c-48.565 13.196-55.104 15.95-52.299 20.573 5.9018 9.7238 69.96-7.1383 69.947-7.1682"/>
   </g>
   <path d="m258.62 304c-63.614 15.815-72.247 19.341-68.945 26.121 6.9459 14.263 90.816-5.8203 90.802-5.8639"/>
  </g>
 </g>
 <g fill-rule="evenodd">
  <path d="m376.5 228.1c0 39.92-40.689 84.043-60.332 84.043s-90.731-18.91-95.408-52.527c-4.6769-33.617 72.024-42.022 72.024-42.022" stroke-width="0"/>
  <path d="m376.5 228.1c0 39.92-40.689 84.043-60.332 84.043s-90.731-18.91-95.408-52.527c-4.6769-33.617 72.024-42.022 72.024-42.022" stroke="#000" stroke-width="3"/>
  <g stroke="#000">
   <path d="m284.23 218.49l-33.012 21.783 45.054-4.1942-16.777 15.559 59.666-7.8472-31.254 27.33 38.019-7.3061-6.6295 23.542 19.077-8.6591"/>
   <path d="m244.18 232.15l-16.1 20.43 30.983-0.2706-15.694 17.047 45.054 0.4059-18.265 20.836 46.948-3.653-11.906 18.671 28.277-1.4883"/>
  </g>
 </g>
 <g fill-rule="evenodd">
  <path d="m402.71 119.49c15.316-5.159 10.715-27.567 10.715-27.567l-8.9489-9.4582-27.535 15.692 3.0977 12.898s7.6995 10.801 22.672 8.4361z" stroke-width="0"/>
  <path d="m403.83 120.6c15.316-5.159 9.5972-28.685 9.5972-28.685l-8.9489-9.4582-27.535 15.692 3.0977 12.898s8.817 11.918 23.789 9.5535z" stroke="#000" stroke-width="3"/>
  <path d="m356.48 48.127c-35.565 20.714-41.452 31.142-46.924 42.084-5.4715 10.943-16.024 46.508-22.668 53.152-6.6439 6.644-12.116 9.3797-12.116 9.3797l19.15-6.644-2.345 26.576c6.8074-8.3514 10.52-17.145 12.506-26.185l5.0807 34.002c2.391-10.751 6.6628-18.995 15.242-21.495l0.7817 24.231c10.174-0.24185 17.049-5.4313 20.323-16.024l-0.7817 31.657c3.5316-7.1366 8.0899-12.22 16.414-9.7705 3.1527 16.892 1.0266 24.986-1.9541 31.657l12.116-5.4715-1.1725 19.541s13.679-18.76 12.897-24.231c-0.78168-5.4715-6.2532-10.161-4.6898-16.414 3.2643-13.057 10.552-41.036 8.2072-48.462-2.3449-7.4256-16.805-60.187-16.805-60.187l-13.263-37.395z" stroke-width="0"/>
  <path d="m355.02 47.761c-35.565 20.714-39.988 31.508-45.46 42.45-5.4715 10.943-16.024 46.508-22.668 53.152-6.6439 6.644-12.116 9.3797-12.116 9.3797l19.15-6.644-2.345 26.576c6.8074-8.3514 10.52-17.145 12.506-26.185l5.0807 34.002c2.391-10.751 6.6628-18.995 15.242-21.495l0.7817 24.231c10.174-0.24185 17.049-5.4313 20.323-16.024l-0.7817 31.657c3.5316-7.1366 8.0899-12.22 16.414-9.7705 3.1527 16.892 1.0266 24.986-1.9541 31.657l12.116-5.4715-1.1725 19.541s13.679-18.76 12.897-24.231c-0.78168-5.4715-6.2532-10.161-4.6898-16.414 3.2643-13.057 10.552-41.036 8.2072-48.462-2.3449-7.4256-16.805-60.187-16.805-60.187l-14.727-37.761z" stroke="#000" stroke-width="3"/>
  <path d="m400.33 53.81c-6.4497-12.626-35.57-10.743-45.77-6.0552-10.416 4.7868-17.453 24.043-17.453 24.043l14.96-9.9733-13.179 21.906 13.357-9.4391-12.289 30.81 13.179-15.85-4.2744 19.056 5.521-8.7266-0.7124 20.303 9.6171-15.494 2.8495 28.495 3.2058-11.754 5.5209 19.59 2.3153-18.522 8.1924 19.056s-2.0823-21.398-4.2743-25.29c-5.9214-10.514 17.01-29.401 21.341-25.219l15.491-16.142-17.598-20.794z" stroke-width="0"/>
  <path d="m400.33 53.81c-6.4497-12.626-35.57-10.743-45.77-6.0552-10.416 4.7868-17.453 24.043-17.453 24.043l14.96-9.9733-13.179 21.906 13.357-9.4391-12.289 30.81 13.179-15.85-4.2744 19.056 5.521-8.7266-0.7124 20.303 9.6171-15.494 2.8495 28.495 3.2058-11.754 5.5209 19.59 2.3153-18.522 8.1924 19.056s-4.6305-20.837-4.2743-25.29c0.3562-4.4524 0.32062-12.912 6.6939-19.277 2.5153-2.512 14.057-6.7857 22.682-8.0234 11.087-1.5911 11.187-11.159 11.187-11.159l-21.328-23.696z" stroke="#000" stroke-width="3"/>
  <path d="m379.3 60.596c-3.6899 0-14.529 3.6899-14.529 11.3 0 7.6104 9.9165 20.064 11.761 20.064 1.8449 0 4.6124-1.6143 7.1491-1.6143 2.5368 0 4.6124 5.0736 4.6124 5.0736l11.531-5.7654-2.3062-12.684 6.9186-6.4573s-12.453-10.147-25.137-9.9165z" stroke-width="0"/>
  <path d="m379.3 60.596c-3.6899 0-14.529 3.6899-14.529 11.3 0 7.6104 9.9165 20.064 11.761 20.064 1.8449 0 4.6124-1.6143 7.1491-1.6143 2.5368 0 4.6124 5.0736 4.6124 5.0736l11.531-5.7654-2.3062-12.684 6.9186-6.4573s-12.453-10.147-25.137-9.9165z" stroke="#000" stroke-width="2"/>
  <path d="m412 68.312c16.668 12.593 25.574 25.676 17.499 26.054-6.8034 0.3183-7.0522-3.2742-8.5634-3.2742s-16.497-0.75562-16.497-0.75562l-2.1286-12.072" stroke-width="0"/>
  <path d="m402.31 78.677c5.7316-4.0103 5.5196-12.093 9.007-10.159 17.851 9.8967 25.139 26.212 18.173 25.848-6.8016-0.35483-7.0522-3.2742-8.5634-3.2742s-16.497-0.75562-16.497-0.75562l-2.1199-11.659z" stroke="#000" stroke-width="3"/>
  <path d="m427.23 93.611c-7.6819-5.2892-12.971-14.356-14.986-13.097-2.0149 1.2593-7.0522 9.1931-7.0522 9.1931" fill-opacity=".091" stroke-width="0"/>
  <path d="m371.66 42.534c-3.6617-6.6643-11.02-28.582-8.7513-29.252 6.8732 5.2755 8.0521 9.0914 13.892 11.782 0 0 1.7696-16.406 3.2682-18.297 3.3249 2.2689 9.4307 20.953 9.4307 20.953s10.371-22.505 13.326-25.954c3.3616 3.2468-0.24972 34.536-0.24972 34.536s9.6777-18.281 13.674-19.803c2.0686 4.3629 1.2696 21.172 1.2696 21.172 6.3536-9.219 4.3543-1.9094 6.8173-3.5128 4.5378 10.994 3.7636 30.894-8.4054 35.687-10.33 2.1476-42.199-17.639-44.272-27.311z" stroke-width="0"/>
  <path d="m371.66 42.534c-3.6617-6.6643-11.02-28.582-8.7513-29.252 6.8732 5.2755 8.0521 9.0914 13.892 11.782 0 0 1.7696-16.406 3.2682-18.297 3.3249 2.2689 9.4307 20.953 9.4307 20.953s10.371-22.505 13.326-25.954c3.3616 3.2468-0.24972 34.536-0.24972 34.536s9.6777-18.281 13.674-19.803c2.0686 4.3629 1.2696 21.172 1.2696 21.172 6.3536-9.219 4.3543-1.9094 6.8173-3.5128 4.5378 10.994 3.7636 30.894-8.4054 35.687-10.33 2.1476-42.199-17.639-44.272-27.311z" stroke="#000" stroke-width="3"/>
  <g stroke-width="0">
   <path d="m389.55 72.534a8.0142 7.5997 0 1 1 -16.028 0"/>
   <path d="m388.59 72.471a7.1336 6.7646 0 1 1 -14.267 0"/>
   <path d="m386.81 72.35a5.3067 4.8691 0 1 1 -10.613 0"/>
  </g>
  <path d="m378.69 66.982c1.1319 5.4584 4.9512 5.4249 9.6458 4.1966-5.3226-0.31981-6.8208-0.65718-9.6458-4.1966z" stroke-width="3"/>
  <path d="m430.27 93.945s-7.5013-7.1751-13.494-9.132c-5.9929-1.9569-13.861-5.8706-13.861-5.8706" stroke="#000"/>
  <path d="m60.848 240.57c-44.779-13.505-60.416-4.9754-58.994-1.4216 1.4216 3.5539 58.994 13.505 58.994 13.505s-50.465-8.5293-50.465 4.2646 68.945 5.6862 68.945 5.6862-51.887 10.662-44.068 23.456c7.8185 12.794 73.21-17.059 73.21-17.059" stroke-width="0"/>
  <path d="m60.848 240.57c-44.779-13.505-60.416-4.9754-58.994-1.4216 1.4216 3.5539 58.994 13.505 58.994 13.505s-50.465-8.5293-50.465 4.2646 68.945 5.6862 68.945 5.6862-51.887 10.662-44.068 23.456c7.8185 12.794 73.21-17.059 73.21-17.059" stroke="#000" stroke-width="3"/>
  <path d="m80.894 246.57c-62.774 18.877-71.225 22.817-67.599 29.429 7.6284 13.91 90.428-10.211 90.411-10.254" stroke="#000"/>
  <path d="m139.41 196.23c-49.95-2.2419-69.975-137.92-96.629-127.53-14.855 4.5063 57 120.76 57 120.76s-51.814-101.57-65.965-97.523c-20.071 5.7347 43.5 110.69 43.5 110.69s-52.482-100.65-62.62-94.505c-10.138 6.1451 38.607 100.7 38.607 100.7 0.003826-0.002548-38.424-71.879-47.803-61.414-9.3791 10.465 42.381 81.554 42.381 81.554s-40.68-51.512-45.17-41.828c-4.6498 10.027 33.551 57.321 33.551 57.321s34.858 36.408 79.013 28.661c44.154-7.7463 44.154-7.7463 44.154-7.7463" stroke-width="0"/>
  <path d="m139.41 196.23c-49.95-2.2419-69.975-137.92-96.629-127.53-14.855 4.5063 57 120.76 57 120.76s-51.814-101.57-65.965-97.523c-20.071 5.7347 43.5 110.69 43.5 110.69s-52.482-100.65-62.62-94.505c-10.138 6.1451 38.607 100.7 38.607 100.7 0.003826-0.002548-38.817-72.055-48.196-61.59-9.3791 10.465 42.773 81.731 42.773 81.731s-40.68-51.512-45.17-41.828c-4.6498 10.027 33.551 57.321 33.551 57.321s34.858 36.408 79.013 28.661c44.154-7.7463 44.154-7.7463 44.154-7.7463" stroke="#000" stroke-width="3"/>
  <path d="m174.24 237.04s-71.332 13.587-74.162 7.9257c-2.8306-5.6612 28.872-7.9257 28.872-7.9257s-39.887 6.6183-41.327 1.1323c-1.4475-5.5124 38.497-10.19 38.497-10.19s-41.921-0.12305-41.893-7.9257c0.027977-7.8027 30.005-5.0952 30.005-5.0952s-35.206-2.883-35.666-13.021c-0.45484-10.032 35.1 4.529 35.1 4.529s-37.352-17.108-32.352-24.066c5.3741-7.4791 39.146 18.404 39.146 18.404s-35.768-24.502-28.872-31.137c6.8379-6.5798 15.285 6.7935 20.947 12.455 5.6612 5.6613 24.676 4.2014 31.462 4.3989 6.4514 0.18771 38.549 15.204 38.549 15.204" stroke-width="0"/>
  <path d="m203.86 459.43s-16.07 6.1911-17.385 9.1157c-1.3158 2.9245-2.7124 7.3087-2.7124 7.3087s8.0467-2.8451 8.4277-5.3734c0.38097-2.5284 20.488-1.9849 20.488-1.9849" stroke-width="0"/>
  <path d="m203.86 459.43s-16.07 6.1911-17.385 9.1157c-1.3158 2.9245-2.7124 7.3087-2.7124 7.3087s8.0467-2.8451 8.4277-5.3734c0.38097-2.5284 20.488-1.9849 20.488-1.9849" stroke="#000" stroke-width="3"/>
  <g stroke="#000">
   <path d="m66.023 197.02c-41.618-50.644-48.512-56.923-53.215-51.029-9.8938 12.401 44.283 79.501 44.316 79.469"/>
   <path d="m84.889 193.87c-33.787-56.172-39.692-63.39-45.204-58.244-11.596 10.826 32.216 85.109 32.253 85.082"/>
   <path d="m174.24 237.04s-71.332 13.587-74.162 7.9257c-2.8306-5.6612 28.872-7.9257 28.872-7.9257s-39.887 6.6183-41.327 1.1323c-1.4475-5.5124 38.497-10.19 38.497-10.19s-41.921-0.12305-41.893-7.9257c0.027977-7.8027 30.005-5.0952 30.005-5.0952s-35.206-2.883-35.666-13.021c-0.45484-10.032 35.1 4.529 35.1 4.529s-37.352-17.108-32.352-24.066c5.3741-7.4791 39.146 18.404 39.146 18.404s-35.768-24.502-28.872-31.137c6.8379-6.5798 15.285 6.7935 20.947 12.455 5.6612 5.6613 24.676 4.2014 31.462 4.3989 6.4514 0.18771 38.549 15.204 38.549 15.204" stroke-width="3"/>
  </g>
  <g fill-opacity=".091" stroke-width="0">
   <path d="m326.87 337.54s-6.4524 35.489-11.292 40.328c-4.8394 4.8393-17.744 20.433-17.744 20.433s-20.433 30.112-23.659 30.649c-3.2262 0.53769-28.498-3.2263-28.498-3.2263l29.036-24.734 16.669-53.77c21.232-19.856 26.966-6.3705 35.488-9.6787z"/>
   <path d="m302.36 493.96l14.72 2.1761-10.24-5.5042-27.265-39.681-9.6003-22.4-8.5762-0.2561c15.388 31.152 27.8 52.418 40.961 65.666z"/>
   <path d="m210.71 459.65l6.7842 0.128-13.312-32.257-5.1201-18.432-1.92-10.496-6.7842-2.1761c1.6435 22.951 10.201 42.92 20.352 63.234z"/>
   <path d="m386.08 99.318s-19.894 17.639-25.154 25.154c-5.2608 7.5154-0.7623 28.171-6.3989 40.196-5.6365 12.025 13.901 46.996 13.901 48.874 0 1.3076-2.7151 13.825-4.7072 22.911-6.3771 3.431-12.544 6.8878-15.556 9.8558-5.0949 5.0197-15.19 21.363-31.075 33.502s-55.972 33.231-77.596 40.637c-21.624 7.4058-63.768 11.437-63.768 11.437l22.874 3.4569s33.217-4.2613 60.054-5.5899c47.193-12.548 49.932-21.173 60.017-17.799 53.408-28.165 62.549-75.613 62.549-75.613l1.8448-23.938s-6.3575-14.258-4.8543-16.512c1.5031-2.2546 9.3777-39.848 9.3777-49.242 0-9.3943-4.8704-17.283-6.3735-24.047l4.8657-23.283z"/>
   <path d="m150.48 328.15l-1.5031 8.267 9.0186 8.6427s-68.766-15.782-79.288-27.807-16.158-30.438-16.158-30.438l15.782-5.6365c16.713 20.064 39.805 37.673 72.148 46.972z"/>
  </g>
 </g>
</svg>
