<?xml version="1.0" encoding="UTF-8"?>
<svg width="341.25" height="578.44" version="1.1" viewBox="0 0 341.25 578.4375" xmlns="http://www.w3.org/2000/svg">
 <path d="m212.81 577.68c-3.4047-0.93675-7.3408-3.8227-7.9859-5.8552-0.30746-0.96873-2.2224-2.6962-4.2553-3.8388-2.033-1.1426-3.6963-2.4216-3.6963-2.8423 0-1.2655-6.8604-0.79612-9.375 0.64138-1.2891 0.73689-3.5039 1.3548-4.9219 1.373-1.418 0.0183-2.5781 0.4551-2.5781 0.97073 0 1.6537-14.996 1.0331-22.969-0.95055-6.6131-1.6453-9.3485-1.7936-23.132-1.2548-14.235 0.55655-16.204 0.43589-22.031-1.3504-3.5196-1.0788-8.5621-2.1298-11.206-2.3355-5.2318-0.40703-12.983-4.553-13.982-7.4785-1.2565-3.6809-7.1881-4.9223-22.165-4.639-3.6913 0.0698-6.7692 0.83129-10.021 2.4793-5.1905 2.6302-5.0928 2.6225-30.438 2.3986-15.847-0.14003-17.99-0.34994-20.859-2.0427-2.6272-1.5501-3.1976-2.4472-3.1976-5.0287 0-1.7281 0.59574-3.4794 1.3239-3.8918s3.0599-2.3594 5.1818-4.3267c3.7083-3.4383 4.1907-3.6036 12.441-4.2628 4.8002-0.38353 8.734-1.139 8.9257-1.7141 0.18852-0.56557 1.1169-0.82587 2.0632-0.57842 1.022 0.26726 2.2406-0.28361 3.0019-1.357 0.70484-0.99378 2.2308-2.3106 3.3909-2.9261 1.1602-0.6156 2.1188-1.6318 2.1302-2.2582 0.01147-0.62639 0.7992-2.1513 1.7505-3.3886s1.5256-3.0303 1.2761-3.9844c-0.58234-2.2269-0.82585-2.193-4.1131 0.57307-3.3714 2.8368-8.1884 4.2427-14.561 4.2496-5.5923 0.00604-7.811-0.64878-7.811-2.3053 0-0.74314 2.0681-1.3886 5.6485-1.7628 3.1067-0.32471 6.8962-1.2356 8.4212-2.0242 3.7148-1.921 8.4303-6.6208 8.4303-8.4022 0-0.79081 0.42188-1.4378 0.9375-1.4378s0.9375-1.2164 0.9375-2.7032c0-1.8503-0.5521-2.8475-1.7499-3.1608-0.97538-0.25507-2.8231-2.7262-4.1746-5.5829-1.3336-2.8189-3.1052-5.69-3.9369-6.3803-0.83174-0.69029-2.1642-2.5158-2.961-4.0567-1.7695-3.4218-1.7156-4.0104 5.8556-63.897 1.2197-9.6478 10.779-45.629 14.498-54.567 3.5798-8.6054 7.9235-17.024 9.3336-18.089 1.6515-1.2476 3.975-6.5263 3.4616-7.8642-0.31885-0.83091-1.6228-1.5108-2.8976-1.5108s-2.5449-0.36739-2.8224-0.81641c-0.27751-0.44903-1.8492-1.0853-3.4927-1.414-3.6244-0.72487-8.8957-4.5879-9.6944-7.1044-0.56137-1.7687 1.2585-8.4324 3.434-12.574 0.57715-1.0987 3.5629-4.8468 6.6351-8.329 5.0767-5.7544 6.1747-6.5102 12.049-8.2944 3.5547-1.0797 6.4745-2.4494 6.4885-3.0437 0.0539-2.2958 6.4922-7.8746 11.32-9.8089 2.7834-1.1151 7.4762-2.301 10.429-2.6354 2.9523-0.33432 5.1567-0.9495 4.8986-1.367-0.61244-0.99095 10.234-11.798 12.592-12.547 2.5231-0.80081 8.6146-9.2398 11.529-15.973 2.7289-6.3036 4.2415-12.514 4.9087-20.156 0.24762-2.8359 2.3966-11.906 4.7756-20.156s5.3935-18.797 6.699-23.438c1.3055-4.6406 3.8106-11.895 5.567-16.12 1.7564-4.2252 3.1934-8.2556 3.1934-8.9564 0-2.9577 6.6232-20.618 9.1238-24.329 3.2307-4.7934 6.2468-12.496 5.5769-14.242-0.26239-0.68377-1.7677-1.5014-3.3452-1.8168-3.6826-0.73651-4.6654-4.0792-2.6144-8.8917 0.81048-1.9017 1.7575-5.3325 2.1044-7.6242 0.34695-2.2916 1.4236-6.471 2.3926-9.2874 2.1678-6.3008 2.1684-6.4469 0.0291-7.1258-1.9704-0.62538-3.8923-4.2745-3.8923-7.3903 0-1.1554-1.2041-3.543-2.6758-5.3058l-2.6758-3.2051 0.44592-15.041c0.41094-13.861 0.25487-15.83-1.9898-25.103-1.3396-5.5341-3.5002-11.748-4.8014-13.809-1.3012-2.0612-2.3657-4.1262-2.3657-4.5889s-0.63281-1.3665-1.4062-2.0084c-2.4877-2.0646-1.5873-4.2666 2.5781-6.305 4.6031-2.2527 16.591-4.4471 19.409-3.5528 2.7667 0.87812 2.3606 2.3521-0.65884 2.391-3.4084 0.04392-6.6667 1.929-8.0336 4.6479-1.5141 3.0118-3.2419 3.3766-3.6159 0.76352-0.24096-1.6833-0.82477-2.1054-2.6305-1.9021-3.7538 0.42267-3.9634 1.4948-1.2434 6.3612 1.4153 2.5322 3.2953 6.7187 4.1779 9.3032 0.88257 2.5846 1.6342 3.813 1.6704 2.7298s-0.39923-3.3033-0.96755-4.9336-0.73617-3.6971-0.373-4.593c1.0101-2.4918 6.2374 15.851 8.2189 28.84 0.31289 2.0511 0.4524 2.1305 1.1174 0.63583 0.81619-1.8346-3.2634-22.841-5.6346-29.014-1.6657-4.3361-1.6993-5.3717-0.17422-5.3717 2.1036 0 8.0104 24.319 8.7668 36.094 0.74025 11.523 0.81697 11.719 4.5987 11.719 3.8836 0 4.3445 1.608 0.68527 2.3909-5.1092 1.0932-10.349 3.3367-11.966 5.1232-1.562 1.726-1.5631 1.8546-0.0207 2.4465 0.89537 0.34359 6.1208-0.36622 11.612-1.5774 9.0532-1.9968 12.169-2.1973 33.422-2.151 28.367 0.06176 43.549 1.4445 51.703 4.709 6.1708 2.4703 9.2343 2.5809 9.2343 0.33327 0-2.2583-5.7883-5.4297-12.836-7.0326-12.766-2.9036-28.411-4.1916-55.234-4.5476-14.751-0.19573-27.301-0.65381-27.891-1.0179-1.5223-0.94082-1.4266-9.2625 0.10065-8.7581 0.64453 0.21286 1.3828 1.7947 1.6406 3.5152 0.55529 3.7056 0.51465 3.6971 17.812 3.7287 20.651 0.0377 52.672 1.9168 58.125 3.411 8.8332 2.4204 16.198 4.1667 16.451 3.9007 0.13324-0.14031 0.38866-3.2058 0.5676-6.8121l0.32538-6.557-5.4513-2.1633c-3.1746-1.2598-10.222-2.7528-16.875-3.5747-6.283-0.77625-14.847-1.8682-19.031-2.4266-8.9322-1.192-37.061 0.70639-52.108 3.5168-3.0127 0.56268-3.4518 0.4178-3.3575-1.1079 0.0597-0.96538-0.2124-4.6518-0.60463-8.192-0.91243-8.2353 0.67947-7.6275 2.2832 0.87172 1.0531 5.5812 1.3574 6.1298 3.1552 5.6881 6.0327-1.4822 26.813-3.5504 35.74-3.5571 15.334-0.0114 46.818 3.9383 57.274 7.185 1.904 0.59122 1.9787 0.24224 2.5431-11.883 0.51821-11.133 1.6938-17.813 4.8798-27.727 0.62656-1.9497 0.40341-2.1023-2.9471-2.0159-1.9937 0.05139-4.6797 0.40871-5.9687 0.79402-1.6682 0.49865-2.8842 0.22154-4.2188-0.96145-3.556-3.1521-6.5169-3.1727-9.9778-0.06936-2.8777 2.5804-2.9933 2.8817-1.3501 3.518 0.98842 0.3828 2.98 1.9949 4.4256 3.5825 2.1412 2.3514 2.6336 3.7665 2.656 7.633 0.0231 3.9876-0.38474 5.1322-2.5506 7.1586-7.8376 7.333-16.94 7.4335-29.229 0.32279-6.4838-3.7517-6.3612-13.892 0.2426-20.06 1.2999-1.2142 2.8165-1.9276 3.3703-1.5853 1.2518 0.77367 1.331 3.3241 0.10316 3.3241-1.5355 0-5.6588 6.8618-5.6588 9.4172 0 2.7609 3.8027 6.8271 7.7954 8.3356 6.2168 2.3489 14.866-0.04853 16.435-4.5556 0.65775-1.8889 0.32491-3.3511-1.5256-6.7024-2.8863-5.2271-2.4634-7.6595 2.1593-12.419 2.8862-2.9718 3.9384-3.4504 7.5862-3.4504 2.3294 0 5.1567 0.51254 6.283 1.139 1.1262 0.62644 5.0009 1.1538 8.6102 1.1719l6.5625 0.032889 0.28174 3.3608c0.15851 1.8909-0.60741 5.5811-1.7512 8.4375-1.5893 3.9689-2.1945 8.1455-2.7733 19.139-0.76269 14.488-1.1582 16.673-3.5148 19.42-1.3892 1.6193-1.3394 4.2429 0.32791 17.268 0.52955 4.137 0.33745 5.0917-1.3677 6.7969-2.4646 2.4646-2.4672 2.3685 0.2871 10.636 1.249 3.7491 3.3713 13.145 4.7162 20.879 3.6359 20.91 6.6849 33.472 9.9613 41.042 3.6882 8.5214 12.93 27.102 14.069 28.286 0.47143 0.48984 0.85715 1.5562 0.85715 2.3696 0 0.81344 1.2259 3.8418 2.7242 6.7296 3.254 6.2718 8.6658 19.873 10.759 27.041 2.8612 9.7968 5.9748 27.682 6.1202 35.156 0.0802 4.125 0.37139 8.2386 0.64699 9.1413 0.2756 0.90269-0.31182 2.8011-1.3054 4.2188-3.9158 5.5872-8.1187 24.488-9.1201 41.015-1.1465 18.92-7.019 47.731-12.585 61.743-4.1983 10.569-9.953 19.329-16.841 25.637-5.0925 4.6635-4.12 5.2627 1.5516 0.95603 6.5873-5.002 12.103-12.654 17.117-23.747 8.4591-18.715 13.767-41.167 19.7-83.338 0.50788-3.6094 1.8448-9.4149 2.971-12.901 1.7112-5.2972 2.7373-6.876 6.2458-9.6094 2.309-1.7989 4.8672-3.252 5.685-3.229 1.0918 0.0306 0.89899 0.46645-0.72602 1.6406-6.6715 4.8205-9.5729 11.087-11.375 24.568-2.8564 21.369-9.9314 55.94-14.294 69.844-1.8604 5.9296-6.8237 16.468-12.967 27.532-3.1937 5.752-12.362 13.945-20.868 18.648-7.2539 4.011-18.834 7.9044-27.273 9.17-3.1745 0.47606-4.6622 1.1757-4.9654 2.3351-0.24227 0.92647-2.3566 2.3708-4.8015 3.28-2.4028 0.89354-4.6936 1.9152-5.0907 2.2703-0.39714 0.35512-0.92089 4.4129-1.1639 9.0174-0.71633 13.573-1.5038 26.755-1.9283 32.278-1.9691 25.623-3.6858 67.323-3.6858 89.531v16.875l5.5434 0.28571c3.0488 0.15716 10.01-0.56411 15.469-1.6028 5.459-1.0387 16.886-3.1881 25.394-4.7766 8.5078-1.5884 18.368-3.5039 21.912-4.2566 3.5437-0.75269 7.5873-1.3685 8.9858-1.3685s7.1475-1.434 12.776-3.1866c5.6281-1.7526 12.553-3.6986 15.389-4.3243 2.8359-0.62577 6.1214-1.5103 7.301-1.9657l2.1448-0.82796-0.0912-63.051c-0.0652-45.103 0.29921-69.674 1.2803-86.32 1.2668-21.494 1.717-25.16 2.939-23.939 0.24689 0.24688 2e-3 9.493-0.54371 20.547-0.54592 11.054-1.1074 50.518-1.2477 87.698-0.14034 37.18-0.54619 68.07-0.90191 68.646-0.35571 0.57555-2.422 1.5384-4.5918 2.1397-8.7447 2.4233-22.914 6.7373-26.445 8.0512-2.0625 0.76754-6.9141 1.9404-10.781 2.6064-3.8672 0.66599-10.617 2.0742-15 3.1294-9.8048 2.3606-25.755 4.8589-31.021 4.8589-2.1549 0-5.4435 0.39027-7.308 0.86728-1.8645 0.477-5.0775 1.302-7.14 1.8333-5.1252 1.3203-15.427 2.0109-18.281 1.2255zm0.94015-34.629c2e-3 -14.824 0.19947-34.969 0.44004-44.766 0.29181-11.884 0.15289-16.564-0.41738-14.062-0.47012 2.0625-0.87906 5.9399-0.90878 8.6165-0.0297 2.6766-0.53193 5.1619-1.116 5.5229-0.77161 0.47689-0.94574-1.5588-0.63681-7.4447 0.23386-4.4556 0.0789-8.101-0.34425-8.101-0.42318 0-0.76943 3.5859-0.76943 7.9688v8.6719c0 0.38672 0.52734 0.70472 1.1719 0.70667 0.888 3e-3 1.0583 2.1602 0.70313 8.9062-0.25781 4.8965-0.43335 19.937-0.39008 33.423 0.0664 20.689-0.12699 24.441-1.2377 24.015-1.0374-0.39809-1.2863-2.8132-1.1743-11.395 0.0781-5.9895 0.0592-12.999-0.042-15.578l-0.18405-4.6875-0.78054 3.75c-0.4293 2.0625-0.57002 9.2251-0.31272 15.917 0.35999 9.3627 0.81429 12.55 1.9712 13.828 3.8338 4.2364 4.0251 3.0354 4.0279-25.292zm-31.173 18.972c10.295-5.0717 11.838-5.1556 16.215-0.88117 2.0189 1.9714 3.9948 3.2609 4.391 2.8656 0.39619-0.39532 0.99067-12.602 1.3211-27.127 0.3304-14.524 0.86071-28.728 1.1785-31.564s0.75842-9.1641 0.97926-14.062 0.63229-13.336 0.91432-18.75c0.36359-6.9796 0.25814-8.889-0.36242-6.5625-1.3576 5.0896-3.654 28.901-4.3595 45.203-0.35072 8.1038-0.99641 14.513-1.4349 14.242-1.6489-1.0191 0.13598-43.793 2.461-58.976 3.1576-20.62 4.5711-26.673 7.7365-33.129 5.0859-10.374 8.9767-14.463 20.035-21.057 11.56-6.8928 13.176-8.003 21.326-14.658 8.8252-7.2068 15.532-14.079 17.457-17.888l1.6517-3.2681-3.6226 3.3881c-5.6344 5.2696-13.993 10.492-24.504 15.31-10.329 4.7346-15.411 5.4746-6.455 0.94001 2.968-1.5028 4.9854-2.8695 4.4831-3.0369-2.2205-0.74016-20.657 10.94-27.772 17.595-2.0625 1.929-4.5938 3.8271-5.625 4.218-1.1968 0.4537-1.449 0.86985-0.69728 1.1505 0.64774 0.24181 0.96225 0.78829 0.6989 1.2144-0.9715 1.5719-4.3784 19.748-7.0989 37.873-1.5397 10.258-3.1861 20.383-3.6586 22.5-2.1698 9.7197-5.115 35.198-5.5926 48.38-0.43135 11.905-0.77498 14.531-1.9014 14.531-1.5992 0-1.5805-1.0083 0.48685-26.25 0.76015-9.2812 2.4581-23.203 3.7733-30.938 1.3152-7.7344 2.7748-17.227 3.2436-21.094 0.88801-7.3253 3.8411-24.362 5.9719-34.453 0.68051-3.2227 0.88659-5.8594 0.45796-5.8594-0.98279 0-5.1209 13.67-10.288 33.984-1.1475 4.5117-2.4048 8.2031-2.7941 8.2031-0.38926 0-0.56002-0.73828-0.37947-1.6406 0.18055-0.90235 0.81772-4.5938 1.4159-8.2031 3.759-22.68 14.494-48.801 19.298-46.957 0.63005 0.24177 1.6627-0.1836 2.2949-0.94527 0.63213-0.76166 4.7191-3.7117 9.0821-6.5557 9.0133-5.8752 9.9747-7.8331 1.3125-2.6731-3.1428 1.8722-6.1577 3.256-6.6999 3.0753-1.1482-0.38273 13.171-10.163 14.88-10.163 0.63174 0 0.89048-0.41767 0.57499-0.92817-0.68226-1.1039-8.0699 2.4763-14.642 7.096-4.5829 3.2213-6.4571 3.9132-6.4571 2.3837 0-1.0642 9.069-8.0448 12.422-9.5614 2.2473-1.0165 3.5449-2.7401 2.0628-2.7401-1.1443 0-6.7208 3.2304-9.9321 5.7534-1.8789 1.4762-3.8828 2.684-4.4531 2.684-2.0124 0-0.99934-1.7453 2.1389-3.6849 5.2124-3.2214 6.3492-5.5058 1.2773-2.5667-3.3829 1.9604-4.4531 2.2483-4.4531 1.198 0-0.76042-0.84346-1.6503-1.8744-1.9775-1.4875-0.47211-3.471 1.0868-9.6094 7.5522-4.2542 4.4809-7.8932 8.6225-8.0866 9.2036-0.22325 0.6709 0.10181 0.62879 0.89062-0.11538 0.68321-0.64453 1.5797-1.1719 1.9922-1.1719 1.5484 0 0.67102 4.6429-1.3594 7.1937-10.627 13.351-12.64 21.599-12.874 52.747-0.0674 8.9908-0.29376 16.624-0.50308 16.963-0.75626 1.2237-4.7434 85.284-4.0451 85.284 0.23381 0 3.4337-1.4822 7.1109-3.2937zm-0.24793-33.972c0.34353-11.73 1.1982-28.5 1.8993-37.266 0.70106-8.7656 1.9855-25.008 2.8543-36.094 1.6262-20.75 2.9532-29.147 4.6962-29.715 0.69491-0.22676 0.65508 2.1969-0.13053 7.9403-3.5492 25.948-9.0197 121.37-5.9781 104.28 0.41287-2.3203 0.78494-7.1719 0.82683-10.781 0.11888-10.245 1.1749-19.511 2.0636-18.108 0.42941 0.67814 0.57112 2.4986 0.31492 4.0455s-0.6401 9.1406-0.85312 16.875c-0.31259 11.35-0.65107 14.117-1.7548 14.345-0.75215 0.15533-1.6164 1.5264-1.9204 3.0469s-1.0231 2.7645-1.5978 2.7645c-0.75587 0-0.87212-5.8994-0.4203-21.328zm-47.379 32.591c0.84905-8e-3 1.025-0.33767 0.46875-0.87818-1.1089-1.0775-6.0469-0.19224-6.0469 1.084 0 0.51566 0.94922 0.68317 2.1094 0.37227 1.1602-0.31092 2.7211-0.57106 3.4688-0.5781zm21.978-0.55823c0.31298-0.8156 0.58693-3.4523 0.60877-5.8594 0.0342-3.7707 2.4724-16.263 2.693-13.798 0.0485 0.54179 0.44298 0.52738 1.0072-0.0368 0.51008-0.51007 1.3732-5.2719 1.9182-10.582 0.54489-5.3099 1.3589-10.356 1.8089-11.213 0.88605-1.6882 2.7343-18.503 5.6844-51.715 2.3014-25.908 4.1056-37.457 6.7264-43.052 1.6972-3.6237 2.0677-3.9633 2.3813-2.1821 0.20426 1.1602 0.76391 2.1094 1.2437 2.1094 1.3156 0 1.0474-5.4104-0.29021-5.8562-1.912-0.63734 7.1089-14.447 14.853-22.738 3.8531-4.125 7.6706-8.7656 8.4834-10.312 0.81278-1.5469 2.5898-4.0578 3.9489-5.5799l2.4711-2.7674-3.5586 2.7674c-1.9572 1.5221-5.5432 4.4904-7.9688 6.5963-5.8615 5.089-13.316 10.086-13.316 8.9254 0-0.51129 1.7542-2.3245 3.8983-4.0294 6.0777-4.8327 17.054-15.742 16.448-16.347-0.29987-0.29987-1.6446 0.55422-2.9884 1.898-2.8841 2.8841-3.2886 2.982-3.3163 0.80255-0.0169-1.3296-0.36837-1.1963-1.8542 0.70313-1.0083 1.2891-1.8427 2.8194-1.8542 3.4008-0.0324 1.6452-2.7971 3.5779-3.7283 2.6063-0.46833-0.48869 0.32817-3.2306 1.8712-6.4414 1.4776-3.0748 2.472-5.8051 2.2096-6.0675s-2.4576 1.687-4.8783 4.3319-8.4187 7.7461-13.329 11.336c-8.4833 6.2022-14.046 11.903-16.67 17.084-2.7835 5.4956-5.6676 19.362-10.03 48.226-2.303 15.237-3.7123 38.501-4.1207 68.024-0.16211 11.719-0.44959 14.901-1.1858 13.125-1.246-3.005-0.44191-53.083 1.0613-66.094 2.2994-19.902 5.9729-42.772 8.3574-52.031 4.7372-18.394 8.1457-22.78 29.142-37.5 4.4058-3.0888 6.2646-5.328 5.2581-6.3345-0.61467-0.61465-19.299 12.135-27.381 18.684-3.6764 2.9791-7.9546 7.4308-9.5071 9.8928-3.1579 5.0076-5.9942 17.022-7.6962 32.601-0.56332 5.1562-1.4455 12.539-1.9604 16.406-0.9879 7.4194-2.7134 26.869-5.0736 57.188-0.78271 10.055-1.8318 22.922-2.3312 28.594-1.2202 13.857-1.1231 17.421 0.54423 19.972 1.8572 2.8416 3.7281 3.4737 6.5184 2.2023 2.0337-0.92661 2.2854-1.6336 2.2968-6.4514 0.0144-6.0836 0.74037-9.6295 1.9715-9.6295 0.45549 0 0.82816 3.3307 0.82816 7.4016 0 6.6635-0.23212 7.6218-2.3276 9.6094-1.2802 1.2143-2.3348 2.5242-2.3438 2.9109-9e-3 0.38672 2.8918 0.70313 6.446 0.70313 5.0278 0 6.5885-0.32915 7.0312-1.4829zm1.3289-32.97c-0.16012-6.0586-0.0301-11.438 0.28887-11.953 0.31901-0.51563 0.8705-8.7422 1.2256-18.281 0.56598-15.206 1.5158-24.952 5.281-54.191 1.8936-14.704 9.2331-35.764 14.277-40.966l2.7271-2.8125-1.8653 3.75c-5.4237 10.904-9.551 23.776-11.874 37.031-0.6777 3.8672-1.6871 8.7188-2.243 10.781-1.8317 6.795-5.7642 63.548-5.7642 83.187 0 2.458-0.39634 4.4691-0.88074 4.4691-0.48441 0-1.0118-4.957-1.1719-11.016zm-5.0071 6.0938c0.36241-1.1602 0.64877-2.8476 0.63636-3.75-0.0277-2.0078 1.592-2.1689 2.3352-0.23227 0.85835 2.2368-0.49124 6.0916-2.1327 6.0916-1.1234 0-1.3331-0.52715-0.83881-2.1094zm-2.5331-16.111c-0.51363-2.6869 0.56297-5.0588 1.5623-3.442 1.0332 1.6717 2.4056 1.194 2.4056-0.83741 0-1.0312 0.42187-1.875 0.9375-1.875 1.1708 0 1.1653 0.54844-0.0493 4.9219-1.1567 4.165-4.1503 4.9247-4.8561 1.2325zm2.1112-19.748c-0.0242-1.0312-0.25465-2.7188-0.51212-3.75-0.25748-1.0312-0.0575-2.5058 0.44453-3.2767 0.78465-1.2051 1.1109-1.1393 2.3261 0.46875 1.8849 2.4943 1.8196 3.5906-0.37073 6.2197-1.7367 2.0847-1.8464 2.1043-1.8878 0.33823zm0.72627-18.984c-0.16693-0.38671-0.0683-3.2344 0.21923-6.3281 0.47745-5.1376 0.61566-5.4219 1.595-3.2812 1.0058 2.1986 1.0759 2.0935 1.1317-1.696 0.0359-2.4416 0.43031-3.8105 0.99693-3.4603 1.534 0.94808 1.1119 10.581-0.57657 13.158-1.5163 2.3142-2.7972 2.9259-3.3663 1.6076zm2.6345-28.594c0.63582-4.3024 4.0039-10.252 5.5271-9.7635 0.51562 0.1654 1.0643 2.2269 1.2192 4.5812 0.22792 3.4634-0.1505 4.7468-1.9825 6.7236-1.2453 1.3437-2.9591 2.4431-3.8084 2.4431-1.2841 0-1.445-0.67119-0.95539-3.9844zm4.1208-2.7656c0-1.5145-0.27723-1.7853-1.0433-1.0192-0.57381 0.57381-0.75986 1.5019-0.41341 2.0625 0.96974 1.5691 1.4567 1.2203 1.4567-1.0433zm-0.58594-18.68c0.32227-1.6113 0.58594-3.4796 0.58594-4.1518 0-1.6425 2.6166-4.1685 4.318-4.1685 1.1108 0 1.25 0.9359 0.73236 4.9219-0.66405 5.113-1.496 6.2895-4.4644 6.3138-1.4704 0.012-1.662-0.46469-1.1719-2.9153zm4.3359-18.956c0-2.7019 2.7105-5.3016 5.5276-5.3016 1.7419 0 1.9894 0.35861 1.4559 2.1094-1.5518 5.0921-6.9835 7.575-6.9835 3.1922zm14.197-14.574c-1.9638-1.2443-0.41988-4.5071 2.6371-5.5728 1.482-0.51662 2.9413-0.69251 3.2429-0.39086 1.0951 1.0951 0.50937 3.7307-1.166 5.2469-1.9256 1.7426-2.8687 1.886-4.714 0.71673zm-72.322 165.05c0-0.43401-1.6875-1.2947-3.75-1.9126-4.5463-1.3621-5.1041-3.3333-0.70312-2.4848 2.8745 0.55419 2.9439 0.50536 1.2271-0.863-1.0009-0.79774-2.8219-1.4504-4.0466-1.4504-1.8762 0-2.1801 0.40597-1.9302 2.5781 0.25162 2.1868 0.93704 2.7446 4.5154 3.6746 2.3203 0.60303 4.3242 1.1304 4.4531 1.1719s0.23437-0.27965 0.23437-0.71365zm19.688-0.1484c0-0.51563-2.4258-0.94326-5.3906-0.9503-2.9648-8e-3 -6.4453-0.22258-7.7344-0.47897-2.0689-0.41151-2.014-0.30503 0.46875 0.90801 3.189 1.5582 12.656 1.9481 12.656 0.52126zm5.7609-11.075c-0.25558-5.9847-0.0168-8.0517 1.0288-8.9062 1.0407-0.85053 1.6245-5.7535 2.4768-20.8 0.61337-10.828 1.9278-25.805 2.9209-33.281s2.4634-23.086 3.2672-34.688c0.80379-11.602 1.7205-22.148 2.0372-23.438 0.39945-1.6261 0.27291-2.0567-0.4132-1.4062-1.1202 1.062-1.5608 4.7874-6.2087 52.5-0.70321 7.2188-1.3147 11.016-1.3588 8.4375-0.0742-4.3335 2.8744-43.642 4.0787-54.375 1.7287-15.406 4.7804-30.469 6.1728-30.469 0.4743 0 0.88101 0.94922 0.9038 2.1094 0.0333 1.6933 0.42812 1.3698 2.002-1.6406 4.5342-8.6726 10.413-14.043 29.274-26.741 11.011-7.413 11.259-8.2087 2.6057-8.3496-4.2875-0.0698-7.6538-1.3889-8.8912-3.484-0.41234-0.69816-1.9037-1.2694-3.3142-1.2694s-5.5028-1.0244-9.094-2.2764c-3.5913-1.252-9.9661-3.4672-14.166-4.9226-4.2002-1.4554-8.419-3.32-9.375-4.1436-0.95602-0.82355-2.582-1.8128-3.6132-2.1982-2.7468-1.0267-26.458-4.2157-31.569-4.2458-2.4099-0.0143-6.5214-0.51976-9.1368-1.1235-4.1827-0.96547-6.855-0.68202-5.581 0.59198 0.23752 0.23752 5.4758 0.88535 11.641 1.4396 11.178 1.005 29.635 3.497 32.303 4.3614 1.2135 0.39322 1.1975 0.57288-0.1165 1.3108-0.97449 0.5472-5.5314 0.20762-12.656-0.94316-6.1234-0.98903-17.427-2.4798-25.119-3.3129-7.6918-0.83308-14.82-1.9617-15.841-2.5081-1.3075-0.69977-2.8547-0.69926-5.2336 2e-3 -1.8576 0.54734-4.1757 0.91188-5.1515 0.8101-0.97575-0.10177-1.9602 0.34258-2.1877 0.98746-0.264 0.74838 0.12341 0.96644 1.071 0.60282 2.1211-0.81393 1.8382 0.72313-0.86638 4.7086-3.8013 5.6015-7.8718 13.913-8.5377 17.433-0.34027 1.7986-1.1142 3.903-1.7199 4.6765-0.60568 0.77344-2.3249 4.9922-3.8205 9.375-2.2532 6.603-2.7443 9.6558-2.8651 17.812-0.08022 5.4141-0.6234 11.031-1.2071 12.483-0.58367 1.4514-1.0612 4.2716-1.0612 6.2669s-0.36226 4.6046-0.80503 5.7983-1.0382 6.6001-1.3231 12.014l-0.51805 9.8438 1.2142-8.4375c1.1946-8.3014 3.9647-23.123 4.7998-25.681 0.23448-0.71833 0.65466-1.0777 0.93373-0.79866 0.27906 0.27906-0.76921 9.3043-2.3295 20.056-5.0794 35.002-6.8543 55.642-4.7845 55.642 0.51562 0 0.9375-0.79905 0.9375-1.7757 0-2.67 1.7354-20.238 2.7881-28.224 0.50973-3.8672 1.404-11.672 1.9873-17.344 1.992-19.371 10.881-59.16 17.278-77.344 1.1792-3.3516 2.8285-8.5195 3.6651-11.484 0.83665-2.9648 1.9207-5.3906 2.4091-5.3906 0.94882 0 0.54354 2.9738-1.5281 11.213-1.6385 6.5163-1.6194 8.1468 0.10331 8.8079 1.3524 0.51898 1.286 1.4212-0.42451 5.7608-0.40647 1.0312-1.8982 6.0938-3.3149 11.25-7.543 27.453-8.0832 29.716-6.9248 29 0.45992-0.28425 0.83621-1.0844 0.83621-1.7781 0-2.4651 8.4331-27.273 10.3-30.301 1.4503-2.3518 1.7584-3.9575 1.3044-6.7969-0.42513-2.6586-0.26216-3.7176 0.57214-3.7176 0.73505 0 1.0029 0.85652 0.724 2.3154-0.53841 2.8165 0.94735 2.12 2.1337-1.0002 1.1022-2.899 3.1447-3.0291 2.2509-0.14331-0.35934 1.1602-1.6183 4.0301-2.7978 6.3776-3.6184 7.2021-11.448 31.793-13.118 41.201-0.86944 4.8984-2.1565 11.047-2.8602 13.664-1.9373 7.2043-4.1067 23.89-4.7654 36.653-0.47513 9.206-0.33108 11.668 0.74564 12.745 0.734 0.734 2.5799 5.0915 4.102 9.6834 1.5221 4.5918 2.8626 7.505 2.9788 6.4738 0.11628-1.0314 0.67175-10.945 1.2344-22.031 0.99995-19.703 2.3536-30.131 7.1192-54.844 4.6747-24.241 12.434-53.229 14.912-55.707 2.3369-2.3369 2.2141-0.82205-0.60192 7.426-7.835 22.948-16.43 73.478-18.179 106.88-0.31054 5.9297-0.99328 13.03-1.5172 15.777-0.52392 2.7479-0.68186 5.267-0.35096 5.5978 0.85843 0.85844 2.4416-1.9205 1.9137-3.3592-0.62077-1.6918 3.0808-40.339 5.6764-59.266 3.4741-25.333 10.97-57.708 15.954-68.906 2.6257-5.8992 2.6576-1.6805 0.04689 6.1855-2.6929 8.1135-4.6598 19.61-4.1544 24.283 0.33454 3.0929 0.39428 3.0122 1.0408-1.4062 0.8831-6.0352 5.0811-23.966 5.773-24.657 0.29156-0.29156 0.93881-0.1214 1.4383 0.37813 0.58598 0.58597 0.28058 2.5601-0.86072 5.5637-1.8208 4.792-3.499 13.559-2.5955 13.559 0.27977 0 1.1832-2.3203 2.0076-5.1562 0.82443-2.8359 1.9091-5.1562 2.4103-5.1562 1.169 0 1.1514 1.1214-0.06778 4.3281-4.6993 12.36-7.8169 30.667-12.115 71.141-1.0952 10.312-2.6048 23.83-3.3547 30.04-0.74996 6.2094-1.3636 13.711-1.3636 16.671 0 4.6927-0.2698 5.4943-2.1094 6.267-1.4649 0.61537-0.24758 0.71461 3.9844 0.32479 3.3516-0.30872 6.4708-0.90828 6.9317-1.3324 0.46085-0.42407 1.1807-4.8342 1.5997-9.8002 0.41901-4.9661 0.9819-9.7359 1.2509-10.6 0.26898-0.86373 1.3274-10.008 2.352-20.32 2.6082-26.251 4.639-43.589 6.2588-53.438 0.76329-4.6406 1.8634-11.707 2.4446-15.703 0.70814-4.8686 1.466-7.2656 2.297-7.2656 1.4808 0 1.4755-0.0528 0.34053 3.3757-1.0018 3.0263-4.8867 33.031-7.559 58.38-0.95812 9.0888-2.6135 24.752-3.6787 34.806-1.0652 10.055-2.3852 19.061-2.9333 20.013-1.1868 2.0623-1.1214 2.1519 2.1734 2.9788 3.0593 0.76782 2.662 1.8846 5.3447-15.023 3.6145-22.78 11.835-62.599 16.032-77.658 4.0843-14.655 9.3695-30.534 10.368-31.152 1.1317-0.69944 1.0651-0.11917-0.46198 4.0254-0.71629 1.944-1.8414 6.0658-2.5002 9.1596s-1.7045 6.6797-2.3237 7.9688c-1.4152 2.9463-4.5075 16.866-3.885 17.489 0.25451 0.25452 1.1515-1.9943 1.9933-4.9974 4.2543-15.177 8.7076-27.256 14.147-38.373 3.3068-6.7584 6.6657-12.83 7.4642-13.493 2.4667-2.0472 2.7973-0.1413 0.61288 3.5332-8.2976 13.958-12.018 23.406-20.388 51.779-3.437 11.65-10.642 50.531-13.464 72.656-2.0458 16.041-2.2585 18.936-1.3224 17.999 0.6729-0.6729 0.62921-0.39336 2.74-17.531 1.8619-15.117 3.7243-18.877 2.7862-5.625-0.34677 4.8984-1.0185 12.492-1.4928 16.875-0.47429 4.3828-0.8708 11.133-0.88114 15l-0.0189 7.0312 4.933 4.4759c2.7131 2.4617 6.0931 4.7293 7.5111 5.0391s2.5781 0.93233 2.5781 1.3835 0.62237 0.82031 1.383 0.82031c1.0429 0 1.1891-0.51884 0.59468-2.1094-0.43362-1.1602-0.45397-4.4297-0.0453-7.2656 0.40873-2.8359 0.77755-11.484 0.8196-19.219 0.11459-21.076 4.1863-63.742 7.6943-80.625 1.0714-5.1562 2.2899-11.062 2.7078-13.125 1.4166-6.991 3.0078-11.719 3.9442-11.719 0.92691 0 0.80968 0.70418-1.0144 6.0938-0.52354 1.5469-1.4401 5.9766-2.0368 9.8438s-1.8668 12.094-2.8224 18.281c-1.759 11.389-3.1589 27.299-4.5784 52.031-1.0484 18.266-0.36525 57.125 1.0339 58.811 0.586 0.70609 2.1563 1.157 3.4895 1.002 2.4207-0.2814 2.4236-0.29231 2.0912-8.0752zm-5.3184-36.503c0.31425-3.9961 0.95829-14.227 1.4312-22.734 1.9504-35.09 6.2426-65.945 10.694-76.875 0.73495-1.8047 1.5929-4.0799 1.9066-5.0561 0.31366-0.97614 0.79135-1.5538 1.0615-1.2836 0.27018 0.27019-0.18312 3.1782-1.0074 6.4623-6.1483 24.498-8.9944 45.426-10.756 79.096-1.215 23.219-1.6893 27.656-2.9562 27.656-0.60222 0-0.73743-2.633-0.37311-7.2656zm-46.662-11.25c0.80921-18.765 6.3067-73.507 9.2104-91.714 1.4691-9.211 5.1651-21.397 5.8587-19.316 0.19784 0.59354-0.4782 4.566-1.5023 8.8277-1.973 8.2105-3.2148 16.914-4.9175 34.467-0.5752 5.9297-1.8513 16.266-2.8359 22.969-0.98452 6.7031-2.2911 21.574-2.9035 33.047-0.782 14.649-1.4396 20.859-2.2088 20.859-0.78746 0-0.98452-2.569-0.70114-9.1406zm-31.593-91.766c0-0.84252 0.41977-3.0574 0.93281-4.9219 0.51305-1.8645 2.4185-9.5072 4.2343-16.984 3.4797-14.327 8.7623-30.938 9.8392-30.938 0.74044 0-3.0793 14.796-4.5098 17.469-0.53015 0.9906-2.0706 7.063-3.4232 13.494-1.3526 6.4313-2.8223 13.17-3.266 14.974-0.44369 1.8047-1.068 4.4414-1.3873 5.8594-0.62661 2.7823-2.4199 3.5577-2.4199 1.0463zm-0.34877-13.468c0.57637-5.2633 1.9425-9.0312 2.9201-8.0537 0.29941 0.29941 0.0031 2.3394-0.65852 4.5334-2.4881 8.2509-2.8395 8.7979-2.2616 3.5203zm30.161-30.188c2.4943-2.4943 0.04574-2.9515-6.1406-1.1467-1.3645 0.39808-2.1094 0.21473-2.1094-0.51924 0-0.62404 0.84375-1.3552 1.875-1.6249 2.3127-0.6048 2.4313-1.8536 0.23438-2.468-0.90234-0.25239 1.7344-0.2265 5.8594 0.0576 4.125 0.28402 7.6477 0.64246 7.8283 0.79651 0.80509 0.68697-1.0774 2.2798-2.6943 2.2798-0.98268 0-2.2382 0.84375-2.7902 1.875s-1.4949 1.875-2.0955 1.875c-0.8127 0-0.80426-0.28776 0.03298-1.125zm1.125-7.4756c-6.321-0.9016-9.891-2.6494-5.4116-2.6494 4.5668 0 17.123 2.0087 18.021 2.883 1.0934 1.0644-4.1964 0.96642-12.609-0.23357zm13.125-1.9226c-2.8359-0.49606-8.0249-1.3899-11.531-1.9862-6.3777-1.0848-8.9127-3.1812-3.2113-2.6557 5.1765 0.4771 22.621 3.0374 24.476 3.5923 1.4126 0.4226 1.5061 0.69149 0.46875 1.3485-1.5259 0.96642-3.2586 0.91565-10.202-0.29888zm10.506-2.6883c-4.2764-0.98569-12.292-2.3187-17.813-2.9622-5.7296-0.66789-9.9198-1.5724-9.7635-2.1075 0.15058-0.51563 2.049-0.81488 4.2188-0.66503 5.3277 0.36797 35.707 4.9801 36.262 5.5051 0.65716 0.6222-2.1027 2.1731-3.7228 2.0921-0.77344-0.0387-4.9051-0.8768-9.1814-1.8625zm61.652 198.6c0.0164-0.90234-0.603-1.6406-1.3764-1.6406-0.99601 0-1.4062 1.0095-1.4062 3.4604 0 3.244 0.0861 3.3466 1.3764 1.6406 0.75703-1.0009 1.3898-2.5581 1.4062-3.4604zm-41.22 2.1704c0-4.195-1.6493-6.3477-5.3174-6.9402-2.344-0.37867-5.5832-2.1968-9.3383-5.2414-3.1622-2.5639-6.0099-4.4012-6.3281-4.083-1.2651 1.2651-0.45189 4.7055 1.9504 8.2516 4.3484 6.4188 9.6565 9.6642 15.987 9.7741 2.4059 0.0418 3.0469-0.32867 3.0469-1.7611zm43.071-23.42c0.0297-5.3711-0.0989-9.5898-0.2858-9.375-0.1869 0.21485-0.5683 6.2969-0.84754 13.516-0.31676 8.1886-0.20926 11.715 0.2858 9.375 0.43644-2.0625 0.81782-8.1445 0.84754-13.516zm-81.508 14.453c0-0.77344-0.42188-1.4062-0.9375-1.4062s-0.9375 0.63281-0.9375 1.4062 0.42188 1.4062 0.9375 1.4062 0.9375-0.63281 0.9375-1.4062zm-29.062-0.26321c0-0.40258-1.3711-1.233-3.0469-1.8454l-3.0469-1.1134 2.2132 1.8453c2.3014 1.9188 3.8805 2.3719 3.8805 1.1134zm7.4965 0.0289c-0.0052-1.0388-12.155-7.1387-12.845-6.4488-0.32421 0.3242 0.04337 0.58947 0.81683 0.58947 0.77347 0 3.0586 1.459 5.0781 3.2422 3.3674 2.9734 6.958 4.3256 6.9496 2.6172zm3.8941-1.6407c0-0.48984-0.45352-1.0418-1.0078-1.2266-0.5543-0.18477-1.0078 0.36718-1.0078 1.2266s0.45352 1.4113 1.0078 1.2266c0.5543-0.18476 1.0078-0.73672 1.0078-1.2266zm28.922 0c0-0.77344-0.42188-1.4062-0.9375-1.4062s-0.9375 0.63281-0.9375 1.4062 0.42188 1.4062 0.9375 1.4062 0.9375-0.63281 0.9375-1.4062zm-50.625 0.02406c0-0.84794-5.5414-3.3053-7.4534-3.3053-2.9363 0-2.2884 1.4861 1.1253 2.5812 3.3532 1.0757 6.3281 1.4161 6.3281 0.72415zm27.656-0.49284c-0.31867-0.51563-0.97638-0.9375-1.4616-0.9375-0.4852 0-0.88217 0.42187-0.88217 0.9375 0 0.51562 0.65771 0.9375 1.4616 0.9375 0.80387 0 1.2008-0.42188 0.88217-0.9375zm8.6571-3.2812c0.20522-2.628 0.15962-2.6702-0.69519-0.6429-1.1518 2.7316-3.1498 1.6728-2.4094-1.2769 0.30148-1.2012 0.11978-2.4488-0.4038-2.7724-0.53142-0.32843-1.2059 0.68156-1.5269 2.2863-0.31621 1.5811-0.94407 2.8746-1.3952 2.8746-1.2332 0-0.98636-6.0214 0.29952-7.3073 0.8681-0.8681 0.66848-1.5403-0.88806-2.9905-1.3336-1.2425-2.2214-1.5251-2.6438-0.84168-0.61341 0.99251-5.8808 0.60562-9.2247-0.67756-1.2205-0.46836-1.4882 0.17203-1.4882 3.5605 0 2.2724-0.50625 4.6378-1.125 5.2566s-0.72422 1.1412-0.23438 1.161c7.702 0.3116 12.409 1.1908 14.855 2.7745 4.0793 2.6416 6.6049 2.1261 6.8806-1.4043zm-12.266-2.1147c-0.67588-1.0936 0.44144-5.854 1.374-5.854 0.45552 0 0.82821 1.4766 0.82821 3.2812 0 3.0005-1.1253 4.3152-2.2022 2.5728zm-6.2353-4.5259c0-4.2359 2.2131-3.9131 2.6375 0.38469 0.21707 2.198-0.0889 2.9747-1.1719 2.9747-1.0565 0-1.4656-0.93775-1.4656-3.3594zm22.486 6.8197c-0.01167-1.6699-0.18431-1.791-0.92314-0.64779-1.1936 1.847-1.1936 4.0189 0 3.2812 0.51562-0.31867 0.93104-1.5037 0.92314-2.6335zm3.3933-2.2689c-0.95298-0.95298-1.7393 0.48177-0.95739 1.7469 0.59066 0.95571 0.81148 0.95645 1.129 4e-3 0.21712-0.65136 0.13988-1.4392-0.17164-1.7507zm-43.691 0.6836c0-0.51563-0.63281-0.9375-1.4062-0.9375-0.77344 0-1.4062 0.42187-1.4062 0.9375 0 0.51562 0.63281 0.9375 1.4062 0.9375 0.77344 0 1.4062-0.42188 1.4062-0.9375zm52.77-0.9425c-0.2704-1.034 0.03169-2.5106 0.67131-3.2812 0.87691-1.0566 0.88859-1.4012 0.04744-1.4012-0.68884 0-0.88786-0.71713-0.52037-1.875 0.34138-1.0756 0.16847-1.875-0.40557-1.875-0.55038 0-1.0007 0.97031-1.0007 2.1562s-0.46378 2.62-1.0306 3.1869c-0.56684 0.56684-0.74935 1.9168-0.40557 3 0.81562 2.5698 3.3148 2.6543 2.644 0.0893zm-38.891-6.2425c0.22622-4.4555-0.05491-5.9018-1.3518-6.9545-0.9006-0.73107-1.4039-0.90733-1.1185-0.3917 0.28544 0.51562 0.21386 3.4688-0.15906 6.5625-0.72315 5.9992-0.47322 7.3444 1.2578 6.7696 0.61648-0.20469 1.2094-2.7925 1.3716-5.9859zm-4.3443-4.0708c0.37217-9.3554-1.4505-10.581-2.0833-1.4004-0.28433 4.125-0.34218 7.8532-0.12856 8.2848 0.95334 1.9264 1.9897-1.2992 2.2119-6.8844zm154.42 1.1777c-0.10284-5.142-0.14033-5.222-0.81285-1.734-0.64032 3.321-0.34069 7.1246 0.56125 7.1246 0.19767 0 0.31089-2.4258 0.2516-5.3906zm-158.33-3.571c0-5.5959 0.312-7.8312 1.031-7.3869 0.72464 0.44785 0.71484 0.0464-0.03298-1.3509-1.9758-3.6917-2.7387-2.0235-3.0566 6.6837-0.33488 9.1705-0.22893 10.078 1.1764 10.078 0.4852 0 0.88217-3.6108 0.88217-8.0241zm43.997 4.0397c0.03624-0.38671-0.35598-0.70312-0.8716-0.70312s-0.90785 1.1602-0.87161 2.5781c0.05839 2.2845 0.15764 2.3646 0.87161 0.70313 0.44315-1.0312 0.83537-2.1914 0.8716-2.5781zm-11.184 2.1094c0-0.51563-0.42188-0.9375-0.9375-0.9375s-0.9375-0.5651-0.9375-1.2558c0-0.69068-1.0745-1.7454-2.3879-2.3438-4.1969-1.9122-4.6704-1.1762-1.3302 2.0677 3.2729 3.1786 5.5931 4.2029 5.5931 2.4693zm5.492-7.1993c0.62859-7.3145 0.62307-7.3391-1.7276-7.7191-8.1944-1.3245-19.694 0.55345-24.155 3.9446-1.3993 1.0637-1.5619 3.4738-0.23438 3.4738 0.51562 0 0.9375-0.84375 0.9375-1.875s0.57431-1.875 1.2762-1.875c1.8758 0 0.75259 4.6648-1.1512 4.781-0.84223 0.0514-0.47665 0.40161 0.81242 0.77824 1.3546 0.39578 3.8772 0.15851 5.9772-0.5622 6.4465-2.2124 8.7308-1.6882 12.977 2.9781 2.1148 2.3238 4.0277 4.0425 4.2509 3.8193s0.68953-3.7078 1.0364-7.7437zm-3.9073 1.8087c-0.22052-0.38671-0.68641-2.2852-1.0353-4.2188-0.50875-2.8195-0.34749-3.5156 0.81437-3.5156 1.092 0 1.4487 1.0388 1.4487 4.2188 0 4.0324-0.35441 5.0472-1.2278 3.5156zm-17.522-3.3822c0-2.6989 0.29359-2.9557 4.3807-3.8318 2.6767-0.57376 2.9238-0.44405 2.4688 1.296-0.2781 1.0635-1.1141 1.9336-1.8579 1.9336s-1.0915-0.42188-0.77283-0.9375c0.31867-0.51563 0.16198-0.9375-0.34822-0.9375-0.51019 0-1.0624 0.91617-1.2272 2.0359-0.43626 2.9648-2.6433 3.3333-2.6433 0.44126zm9.7578-0.95676c-0.76672-1.998-0.1227-4.5769 1.2578-5.0365 0.76519-0.25477 1.1719 0.59378 1.1719 2.4451 0 3.1285-1.5778 4.8113-2.4297 2.5914zm-30.459 5.6898-0.07614-2.9915-1.2394 2.8125c-1.2738 2.8905-1.0256 4.6646 0.519 3.71 0.48-0.29665 0.83846-1.8856 0.79658-3.5309zm122.6-4.1634c-0.23581-0.90234-0.42875-0.16406-0.42875 1.6406s0.19294 2.543 0.42875 1.6406c0.2358-0.90234 0.2358-2.3789 0-3.2812zm40.43-11.484c-0.0351-6.6676-0.16858-7.3564-0.81758-4.2188-1.0613 5.131-1.0176 16.556 0.0538 14.062 0.44314-1.0312 0.78685-5.4609 0.7638-9.8438zm-150.62-7.96c-1.0111-2.0673-2.1414-5.6572-2.5117-7.9775-0.72844-4.5648-3.9426-12.188-5.139-12.188-1.0763 0-1.6665 15.991-0.692 18.75 0.45533 1.2891 2.0133 3.5039 3.4622 4.9219s3.0679 3.7383 3.5977 5.1562c2.3942 6.4073 2.506 6.4356 2.8165 0.71185 0.2251-4.1499-0.17534-6.5975-1.5338-9.375zm-20.344 12.497c1.4154-0.64489 2.3879-1.8617 2.3879-2.9879 0-1.7316-0.24911-1.6612-2.8125 0.79463-3.8228 3.6625-3.7399 4.0908 0.42464 2.1933zm17.013-2.287c-0.33365-0.86948-0.81757-1.3699-1.0754-1.1121-0.25781 0.25781-0.19576 1.1802 0.13788 2.0496s0.81757 1.3699 1.0754 1.1121c0.25781-0.25781 0.19576-1.1802-0.13788-2.0496zm42.494-17.641c0.03759-1.5039-0.22746-2.4386-0.58896-2.0771-0.71101 0.71102-1.8222 8.0213-2.584 16.999-0.401 4.726-0.19104 4.2016 1.3137-3.2812 0.98503-4.8984 1.8217-10.137 1.8593-11.641zm-30.368 12.901c0.20118-1.4666 1.0295-9.8384 1.8407-18.604 1.4772-15.962 4.3479-40.594 6.0639-52.031 1.7283-11.519 2.1606-17.385 1.209-16.406-1.0052 1.0344-5.958 35.398-8.1748 56.719-0.77735 7.4766-1.8218 17.512-2.321 22.302-0.81396 7.8091-0.57433 12.278 0.59562 11.108 0.23143-0.23143 0.58539-1.6207 0.78657-3.0873zm-15.119 0.14598c-0.86429-1.3191-2.4108-2.329-3.5372-2.31-1.8319 0.0308-1.7632 0.22908 0.81095 2.3391 3.6062 2.956 4.6747 2.9446 2.7263-0.0291zm21.573-24.844c1.4187-14.18 2.9654-29.145 3.4371-33.257 1.0834-9.4429 1.0893-14.604 0.01463-12.681-0.4323 0.77344-1.2977 6.8906-1.9231 13.594-0.62538 6.7031-1.5483 15.562-2.051 19.688-3.257 26.728-4.2855 40.977-2.8388 39.328 0.42989-0.48985 1.9424-12.492 3.3611-26.672zm25.653-0.46875c-0.0166-3.5672-0.0523-3.6129-0.73313-0.9375-0.39361 1.5469-0.72352 4.2891-0.73313 6.0938-0.01575 2.9604 0.05597 3.0521 0.73313 0.9375 0.41283-1.2891 0.74273-4.0312 0.73313-6.0938zm73.063-3.0469c-0.2148-1.418-0.39055-0.25781-0.39055 2.5781s0.17575 3.9961 0.39055 2.5781c0.21481-1.418 0.21481-3.7383 0-5.1562zm-134.87-5.8594l-0.11091-6.0938-0.73011 4.6875c-1.0908 7.0031-1.0732 10.634 0.04313 8.9062 0.49983-0.77344 0.85888-4.1484 0.79788-7.5zm173.3 1.6516c-0.22424-1.1662-0.41624-0.43281-0.42664 1.6297s0.17307 3.0166 0.40772 2.1203c0.23464-0.89634 0.24316-2.5838 0.0189-3.75zm-175.86-0.94844c0.06106-1.1602 0.04263-2.4811-0.04096-2.9354s0.25889-2.9856 0.76106-5.625c1.118-5.8763 2.3412-23.753 1.5727-22.984-0.30556 0.30557-1.1799 6.8425-1.943 14.527-0.76306 7.684-1.6343 15.131-1.9361 16.549-0.33184 1.5592-0.14873 2.5781 0.46328 2.5781 0.55659 0 1.0619-0.94922 1.123-2.1094zm67.738-7.7344c0.74628-4.125 2.4495-12.967 3.785-19.648 2.7226-13.621 2.7316-13.69 1.5382-11.803-0.47368 0.74877-1.1352 3.491-1.4701 6.0938-0.33487 2.6028-1.8393 10.142-3.3432 16.753-1.5039 6.6113-2.701 13.361-2.6603 15 0.0969 3.9011 0.50959 2.6737 2.1504-6.3956zm111.9-1.151c-0.20295-1.9451-0.3724-0.58341-0.37656 3.026-4e-3 3.6094 0.16189 5.2008 0.36899 3.5365s0.21051-4.6174 7e-3 -6.5625zm-40.724-3.0678c0.32738-6.5626 0.22555-8.5938-0.30547-6.0938-0.78971 3.718-1.2357 17.079-0.54508 16.328 0.19772-0.21485 0.58047-4.8203 0.85055-10.234zm-128.05 3.5156c-0.22346-1.1602-0.40628-0.21093-0.40628 2.1094s0.18283 3.2695 0.40628 2.1094c0.22346-1.1602 0.22346-3.0586 0-4.2188zm-15.012-0.4509c-0.2377-0.91216-0.44781-0.39285-0.46691 1.154-0.01911 1.5469 0.17537 2.2932 0.43218 1.6585 0.2568-0.63472 0.27244-1.9004 0.03473-2.8125zm9.5108-14.315c-0.03082-4.1069-0.06497-4.0572-1.2883 1.875-0.69113 3.3516-1.2473 7.7812-1.2358 9.8438 0.01926 3.4776 0.11283 3.3414 1.2883-1.875 0.69712-3.0938 1.2532-7.5234 1.2358-9.8438zm-8.5613 5.3906c-0.22346-1.1602-0.40628-0.21093-0.40628 2.1094s0.18283 3.2695 0.40628 2.1094c0.22346-1.1602 0.22346-3.0586 0-4.2188zm182.8 1.4241c-0.2377-0.91216-0.44781-0.39285-0.46691 1.154-0.0191 1.5469 0.17536 2.2932 0.43217 1.6585 0.2568-0.63472 0.27243-1.9004 0.0348-2.8125zm-167.82-1.8928c-0.23581-0.90234-0.42874-0.16406-0.42874 1.6406s0.19293 2.543 0.42874 1.6406c0.23581-0.90234 0.23581-2.3789 0-3.2812zm-14.062-7.5c-0.23581-0.90234-0.42874-0.16406-0.42874 1.6406s0.19293 2.543 0.42874 1.6406c0.23581-0.90234 0.23581-2.3789 0-3.2812zm182.82-1.8572c-0.2377-0.91216-0.44781-0.39285-0.46691 1.154-0.0191 1.5469 0.17536 2.2932 0.43217 1.6585 0.2568-0.63472 0.27243-1.9004 0.0348-2.8125zm-181.88-3.75c-0.2377-0.91216-0.44781-0.39285-0.46691 1.154-0.01911 1.5469 0.17537 2.2932 0.43218 1.6585 0.2568-0.63472 0.27244-1.9004 0.03473-2.8125zm16.887-14.549c-0.22346-1.1602-0.40628-0.21093-0.40628 2.1094s0.18283 3.2695 0.40628 2.1094c0.22346-1.1602 0.22346-3.0586 0-4.2188zm127.49 0.4866c-0.2377-0.91216-0.44781-0.39285-0.46691 1.154-0.0191 1.5469 0.17536 2.2932 0.43217 1.6585 0.2568-0.63472 0.27243-1.9004 0.0348-2.8125zm-141.56-1.875c-0.2377-0.91216-0.44781-0.39285-0.46691 1.154-0.01911 1.5469 0.17537 2.2932 0.43218 1.6585 0.2568-0.63472 0.27244-1.9004 0.03473-2.8125zm43.148-6.5674c-0.21549-1.4251-0.39756-0.48165-0.40459 2.0965-7e-3 2.5781 0.16927 3.7441 0.3918 2.591s0.22829-3.2624 0.0128-4.6875zm-28.148 1.88c-0.2377-0.91216-0.44781-0.39285-0.46691 1.154-0.01911 1.5469 0.17537 2.2932 0.43218 1.6585 0.2568-0.63472 0.27244-1.9004 0.03473-2.8125zm3.8477-0.37846c-0.2952-1.8766-0.42724-1.7445-0.85883 0.85882-0.30885 1.863-0.17127 2.7376 0.34883 2.2175 0.47236-0.47235 0.70186-1.8567 0.51-3.0763zm-17.91-1.4965c-0.2377-0.91216-0.44781-0.39285-0.46691 1.154-0.01911 1.5469 0.17537 2.2932 0.43218 1.6585 0.2568-0.63472 0.27244-1.9004 0.03473-2.8125zm2.0969-7.5732c0.03624-0.67496-0.35598-0.96646-0.87161-0.64779s-0.90785 1.7147-0.87161 3.1022c0.05884 2.2526 0.15217 2.322 0.87161 0.64779 0.44314-1.0312 0.83537-2.4272 0.87161-3.1022zm38.489 0.9375c-0.01237-1.3662-0.13996-1.3909-0.92314-0.17904-1.1865 1.836-1.1865 3.077 0 2.3438 0.51562-0.31867 0.93104-1.2928 0.92314-2.1647zm66.286-1.8197c-0.23581-0.90234-0.42875-0.16406-0.42875 1.6406s0.19294 2.543 0.42875 1.6406c0.2358-0.90234 0.2358-2.3789 0-3.2812zm99.073-2.56c14.612-7.7694 31.403-26.206 37.154-40.796 1.0698-2.7142 1.7306-5.1496 1.4683-5.4119-0.26228-0.26228-0.90248 0.64253-1.4227 2.0107-2.1453 5.6426-13.089 20.327-20.762 27.86-4.5136 4.4307-11.695 10.442-15.959 13.359-7.9714 5.4536-8.2364 7.1028-0.47854 2.978zm-202.84 0.60941c0-3.1582 3.9925-21.7 5.9752-27.75 2.3323-7.1163 2.6915-10.126 0.77258-6.4737-2.5442 4.8429-9.0234 35.002-7.5195 35.002 0.42444 0 0.7717-0.3504 0.7717-0.77867zm41.25-2.5026c0-1.2891-0.16176-2.3438-0.35946-2.3438s-0.56108 1.0547-0.8075 2.3438-0.08467 2.3438 0.35946 2.3438c0.44412 0 0.8075-1.0547 0.8075-2.3438zm-22.613-14.549c2.0669-7.467 4.4146-15.422 5.217-17.679 1.5877-4.4641 1.8855-7.6165 0.71959-7.6165-0.85574 0-9.214 29.349-10.145 35.625-1.0607 7.1465 0.28643 3.8402 4.2088-10.33zm155.74-8.8889c1.7492-1.8047 2.8585-3.2812 2.4651-3.2812-1.1376 0-7.1526 4.8239-7.1526 5.7363 0 1.5992 1.5395 0.79286 4.6875-2.455zm24.398-4.7485c1.3087-3.4421 1.1314-3.9474-0.54511-1.5538-1.6187 2.311-3.2281 2.7426-3.2281 0.8656 0-0.84522-1.0275-1.098-3.3573-0.82605-3.8296 0.44708-3.2891 1.4766 1.4823 2.8236 4.6883 1.3236 4.6432 1.334 5.6482-1.3093zm5.6677-0.367c-0.72319-0.44695-0.60522-1.4883 0.39597-3.4952 1.8316-3.6716 5.1818-16.739 5.1013-19.899-0.034-1.3355-1.0105 1.3687-2.1699 6.0093s-3.0071 10.818-4.1059 13.727c-1.9913 5.2722-1.9916 5.2879-0.0946 4.7918 1.1528-0.30147 1.4971-0.74873 0.87316-1.1344zm5.2856-4.5114c3.758-10.483 6.327-26.484 4.0235-25.061-0.51563 0.31867-0.9375 2.037-0.9375 3.8184 0 2.8734-3.745 20.118-5.3224 24.508-0.33077 0.92054-0.24505 1.3494 0.19048 0.95308 0.43554-0.39635 1.3562-2.2948 2.0459-4.2188zm5.1923-3.7405c3.048-10.018 3.779-15.494 3.22-24.117-1.025-15.813-5.1245-28.827-11.897-37.769-3.8093-5.0294-4.6764-7.2395-2.5703-6.551 4.4488 1.4545 13.364 19.816 16.277 33.523 1.4627 6.8827 1.3441 24.228-0.20351 29.766-0.85873 3.0728 2.3937 2.7919 5.4262-0.46875 5.3104-5.7098 5.7538-7.1321 5.5692-17.868-0.34228-19.915-4.0264-31.203-14.858-45.524-2.6997-3.5694-3.8405-5.8223-3.2482-6.4147 1.2199-1.2199 11.735 12.789 14.829 19.756 3.2588 7.3386 5.9594 19.171 5.9672 26.145 4e-3 3.4819 0.40802 5.8594 0.99593 5.8594 1.883 0 5.6527-10.217 9.7416-26.402 5.0299-19.91 6.6594-29.189 8.9581-51.008 2.038-19.345 1.4863-35.795-1.7586-52.434-2.7762-14.236-10.517-36.259-13.383-38.075-3.9944-2.5313-11.403 0.20042-17.356 6.3994-9.4879 9.8798-14.612 26.728-18.186 59.801-2.1008 19.437-2.8877 25.55-3.838 29.816-0.55174 2.477-0.79871 4.7082-0.54885 4.958 0.24987 0.24987 4.3434-6.6284 9.0968-15.285 9.4117-17.14 9.1736-16.757 9.9391-15.992 0.48962 0.48961-1.9713 5.5815-8.9572 18.534-1.5296 2.8359-2.7902 5.6182-2.8014 6.1828-0.0112 0.56462-0.86402 1.7902-1.8953 2.7234s-1.875 2.081-1.875 2.5505c0 0.75091-7.8456 14.792-10.361 18.543-0.51868 0.77344-1.2035 2.1924-1.5218 3.1533-0.47832 1.444-1.2716 1.669-4.5728 1.2969-4.7288-0.53301-7.5239 0.64441-3.4595 1.4573 3.1766 0.63533 11.343 6.826 14.073 10.668 1.033 1.454 3.07 5.3859 4.5267 8.7374 2.437 5.6073 2.641 6.9739 2.556 17.119-0.0508 6.064-0.37862 13.025-0.72841 15.469-0.61185 4.2747-0.57824 4.3633 0.88569 2.3339 0.83691-1.1602 2.1306-2.1094 2.8748-2.1094s1.3531-0.61797 1.3531-1.3733 0.84375-1.8248 1.875-2.3767 1.875-1.5537 1.875-2.2262c0-1.0411 1.1208-1.8354 5.8529-4.1478 1.5857-0.77483-1.4553 21.454-3.6574 26.735-1.4486 3.4737-1.5239 4.0175-0.5549 4.0065 0.38671-5e-3 1.44-2.4302 2.3407-5.3906zm-24.836 2.3468c1.1629-0.5612 3.2136-3.3736 4.557-6.2499 6.9964-14.979 7.6804-34.148 1.6482-46.192-2.2326-4.4578-12.431-15.756-14.222-15.756-0.53643 0-1.6426-0.25607-2.4582-0.56905-3.0812-1.1824-1.3965 2.823 3.257 7.7434 2.607 2.7565 5.5343 6.8076 6.5052 9.0025 4.7809 10.808 5.096 37.124 0.57397 47.946-1.2799 3.0632-1.6738 3.3532-3.3427 2.46-1.0405-0.55685-2.1472-2.0301-2.4594-3.274-0.50756-2.0223-1.0497-2.2506-5.1244-2.1578-4.9755 0.11333-5.4936 1.6609-0.55603 1.6609 2.9626 0 5.2884 1.3709 5.2884 3.1172 0 0.47695-1.2656 0.61406-2.8125 0.30468-3.5831-0.71662-3.5619-0.10007 0.0726 2.1102 2.9064 1.7675 5.1833 1.7307 9.0731-0.14641zm9.1159-4.2745c0.88936-2.7404 1.4061-5.1936 1.1483-5.4514-0.25781-0.25781-1.206 1.7734-2.1071 4.5139-0.90108 2.7404-1.8499 5.6154-2.1085 6.3889-0.31713 0.94849-0.1576 1.1011 0.49006 0.46875 0.52813-0.51563 1.6879-3.1797 2.5772-5.9201zm-187.45-4.6749c-0.59917-0.59917-2.3907 4.2165-2.3076 6.203 0.03633 0.86877 0.67082-0.0711 1.41-2.0886 0.73916-2.0175 1.1431-3.869 0.89767-4.1144zm192.16 2.6221c0.85708-2.5804 1.3701-5.2171 1.1401-5.8594-0.23002-0.64223-0.92248 0.73075-1.5388 3.0511-0.61631 2.3203-1.3348 4.957-1.5967 5.8594-0.26187 0.90235-0.27066 1.6406-0.0195 1.6406 0.25112 0 1.1578-2.1113 2.0149-4.6917zm-39.629-2.3396c0.45086-1.5469 0.57571-5.7464 0.27744-9.3322-0.30843-3.708-0.0712-8.6248 0.55003-11.401 0.98466-4.3999 1.4646-5.049 4.8686-6.584 6.7905-3.0621 15.858-1.442 17.602 3.1448 0.47128 1.2396 1.3 1.9799 1.8417 1.6451 0.67412-0.41663 0.68172-0.97378 0.0241-1.7662-0.52838-0.63666-0.91103-2.603-0.85034-4.3697 0.32574-9.4815-4.3141-19.033-11.582-23.843l-3.8965-2.5786-5.0598 1.595c-8.2273 2.5934-17.152 6.92-20.699 10.034-1.8219 1.5997-4.6532 3.4686-6.2917 4.1532-1.6385 0.68461-4.326 2.7788-5.9723 4.6538l-2.9932 3.409 0.20351 10.932c0.22994 12.353 1.4989 17.026 4.624 17.026 2.2488 0 2.2491 0.46867-0.01-14.687-1.3228-8.8756-0.45233-11.792 5.1375-17.21 4.4524-4.3154 5.103-2.8823 1.1601 2.5555-4.2052 5.7996-4.6978 8.1318-3.0362 14.376 0.7496 2.8168 1.3679 6.7312 1.374 8.6987 0.0131 4.2057 1.3971 7.204 3.3254 7.204 1.8743 0 1.721-3.0323-0.51382-10.162-1.0246-3.2686-1.8629-7.0285-1.8629-8.3554 0-3.864 8.3285-15.654 9.928-14.055 0.29785 0.29785-0.97037 2.905-2.8182 5.7937-3.8408 6.0042-3.8501 6.0788-1.9281 15.528 2.2102 10.867 3.7356 14.012 6.814 14.048 1.4542 0.0171 0.79286-4.4425-1.7685-11.927-2.1416-6.2576-1.2683-12.723 2.4414-18.076 3.1195-4.5014 4.0521-5.1992 5.2918-3.9596 0.60416 0.60416-0.0702 2.5342-1.9567 5.6001-1.6172 2.6283-2.8786 5.9751-2.8786 7.6378 0 2.5959 3.1319 19.084 4.2642 22.449 0.72326 2.1496 3.5346 0.7542 4.3894-2.1787zm-149.33-4.9219c0.6959-1.9336 2.316-4.8982 3.6003-6.588s2.1408-3.2667 1.9033-3.5041c-0.68732-0.68732-4.4328 4.8177-6.3995 9.4059-0.99062 2.311-1.479 4.2019-1.0853 4.2019 0.39372 0 1.2852-1.582 1.9811-3.5156zm166.46-0.23437c1.4731-0.63303 1.0712-0.81676-1.875-0.85725-2.7508-0.0378-3.3753 0.19062-2.3438 0.85725 1.6403 1.06 1.752 1.06 4.2188 0zm64.153-4.5085c-0.0588-2.2526-0.15216-2.322-0.8716-0.64779-1.1192 2.6046-1.1192 4.4417 0 3.75 0.51562-0.31867 0.90785-1.7147 0.8716-3.1022zm-60.302 0.99283c1.4437-1.9018 1.6384-3.0469 0.51804-3.0469-0.43287 0-1.2676 1.0547-1.8549 2.3438-1.2331 2.7064-0.48319 3.1008 1.3369 0.70312zm-2.6625-3.0469c0.64403-1.0312 1.8002-1.875 2.5693-1.875 1.0011 0 1.3983-1.0417 1.3983-3.6667 0-5.0156-4.027-8.5208-9.7892-8.5208-4.4367 0-8.9871 2.7836-8.9232 5.4587 0.0251 1.0516 0.50085 0.71856 1.4362-1.0056 0.76927-1.418 2.018-2.5781 2.775-2.5781 1.7179 0 1.7152 0.37524-0.0268 3.7439-1.5371 2.9724-0.8914 6.0152 1.8603 8.7669 2.1998 2.1998 7.2416 2.0124 8.7002-0.32327zm-57.17-2.6841c2.3672-1.7246 2.5441-2.3313 2.5441-8.7253 0-8.7809 2.2992-12.623 10.312-17.233 3.0938-1.7797 7.1016-4.4894 8.9062-6.0216l3.2812-2.7858-3.5773-0.0252c-4.1074-0.029-5.6689 0.69003-11.822 5.4433-2.4475 1.8908-6.1012 4.6989-8.1193 6.2404-5.2815 4.0341-7.6283 6.8656-10.256 12.374-2.5206 5.2845-3.0021 10.471-1.1481 12.364 1.5475 1.5804 6.6192 0.74303 9.8778-1.6309zm115.51-3.465c0-0.74301 0.65771-1.3509 1.4616-1.3509s1.2008-0.42188 0.88217-0.9375c-1.0319-1.6697-2.1385-1.0002-3.152 1.9071-0.5877 1.6858-0.62506 2.618-0.0917 2.2884 0.49497-0.30591 0.89993-1.1641 0.89993-1.9071zm-197.89-3.5628c-1.1045-0.95251-5.6468-1.5208-5.1013-0.63822 0.33145 0.53629 1.7027 0.97508 3.0473 0.97508s2.2689-0.15159 2.054-0.33686zm69.286-3.0452c1.197-1.8474 2.0408-3.485 1.875-3.6393-0.16579-0.15427-3.2168-0.72954-6.78-1.2784l-6.4786-0.9979-4.7237 3.9457-4.7237 3.9457 5.5773 0.54552c12.494 1.2221 12.868 1.1603 15.254-2.5213zm136.42 0.33516c0.61332-0.64454 1.8042-4.3359 2.6465-8.2031 0.84225-3.8672 2.4568-11.039 3.588-15.938 1.1311-4.8984 2.8255-13.125 3.7653-18.281 1.6485-9.0446 4.8246-20.871 7.8997-29.415 3.3528-9.3153 0.88574-30.424-6.1494-52.616-4.7071-14.848-15.398-35.625-18.331-35.625-1.2843 0-1.2915 0.23616-0.064 2.1095 1.705 2.6021 5.8401 12.496 8.1972 19.613 1.6663 5.0311 3.1035 11.841 5.9067 27.988 1.9588 11.282 1.1418 42.298-1.7156 65.134-1.7066 13.639-3.1389 23.708-3.5341 24.844-0.26903 0.77344-0.73176 2.5201-1.0283 3.8815-0.33621 1.5437-1.1216 2.4258-2.0868 2.3438-0.85122-0.0724-1.7226 0.36262-1.9365 0.96657-0.24854 0.70195 0.30635 0.91633 1.5381 0.59422 1.7346-0.45361 1.8709-0.18901 1.3662 2.6519-0.30837 1.7357-0.93808 4.6323-1.3994 6.437-1.2859 5.031-0.94852 5.9179 1.3374 3.5156zm-155.04-3.9521c1.8248-1.2644 6.2678-5.0584 9.8734-8.4312 3.6055-3.3728 6.8751-6.1323 7.2656-6.1323s0.71011-0.63281 0.71011-1.4062c0-1.0777-1.1918-1.4062-5.1009-1.4062-2.8055 0-5.3616 0.42187-5.6803 0.93747-0.31867 0.51562-4.035 3.5603-8.2585 6.766-8.2542 6.2651-13.773 11.252-13.773 12.447 0 1.6628 11.687-0.50379 14.963-2.7741zm-69.756 0.65649c0.54358-0.37882 2.5351-3.976 4.4256-7.9938 3.2779-6.9662 3.6777-7.4114 8.621-9.5976 2.8511-1.2609 5.1837-2.7197 5.1837-3.2418s0.79223-0.94932 1.7605-0.94932 3.275-0.63281 5.1261-1.4062c1.8511-0.77344 4.4339-1.4062 5.7395-1.4062 3.2639 0 3.1462-3.0223-0.20426-5.2437-3.2301-2.1416-25.7-4.3772-32.109-3.1948-3.5573 0.65624-5.1046 1.7356-9.8686 6.8843-6.9913 7.5559-11.122 17.871-7.9439 19.835 0.54046 0.33402 0.9375-0.54177 0.9375-2.0679 0-3.2484 2.7848-8.6027 7.7012-14.807 4.0664-5.1317 6.3613-6.924 6.3613-4.968 0 0.67039-1.7297 3.1111-3.8437 5.4238-5.1634 5.6487-7.4063 10.326-7.4063 15.444 0 7.7378 3.6591 4.6318 6.0286-5.1174 1.6598-6.8291 4.7012-12.398 8.0536-14.746 3.0548-2.1397 2.3641 1.104-0.98037 4.6036-1.5596 1.632-3.0547 3.843-3.3226 4.9133-0.26784 1.0704-1.0394 4.4774-1.7145 7.5712-0.67516 3.0938-1.5454 6.3633-1.934 7.2656-0.57112 1.3264-0.23273 1.6406 1.7671 1.6406 2.7754 0 2.7521 0.0494 4.0872-8.6618 0.83416-5.4428 1.5322-6.963 5.0385-10.973 2.2811-2.609 4.8944-4.6694 5.9452-4.6874 1.5105-0.0259 1.0852 0.72314-2.1877 3.8528-4.6956 4.4901-5.297 5.7978-6.1799 13.439-0.3575 3.0938-0.8643 6.3633-1.1262 7.2656-0.49714 1.7127 0.35789 2.0987 2.0447 0.92314zm54.186-2.3294c2.3609-1.6758 7.4998-5.4969 11.42-8.4914 3.92-2.9945 7.7313-5.6764 8.4696-5.9597 2.8083-1.0777 1.1624-2.1895-3.2412-2.1895-4.23 0-5.4429 0.60332-15.722 7.8203-6.126 4.3012-12.184 8.403-13.463 9.1152l-2.3252 1.295 3.2812 0.60507c6.0117 1.1086 7.2597 0.87205 11.581-2.195zm167.42-2.3991c0.0362-0.67496-0.35598-0.96646-0.8716-0.64779-0.51563 0.31867-0.90785 1.7147-0.8716 3.1022 0.0588 2.2526 0.15216 2.322 0.8716 0.64779 0.44315-1.0312 0.83537-2.4272 0.8716-3.1022zm-183.9 1.3931c1.9234-1.1978 4.2957-2.4734 5.2718-2.8346 2.8429-1.0519 1.3465-1.5786-8.4709-2.982-13.023-1.8617-22.698-1.7951-24.871 0.17104-3.3157 3.0007-2.0259 3.7551 9.7699 5.7144 14.842 2.4653 14.227 2.4676 18.3-0.0688zm193.33-2.4315c0.019-3.009-0.514-2.2464-1.2559 1.7969-0.4236 2.3085-0.32882 2.8644 0.31973 1.875 0.50701-0.77344 0.9283-2.4258 0.9362-3.6719zm-137.64 1.1828c2.7072-2.45 2.057-3.136-2.9731-3.136-3.6918 0-4.6875-0.32191-4.6875-1.5155 0-1.3058 0.83603-1.4259 6.0442-0.86819 5.7665 0.61754 6.2618 0.50482 10.781-2.4539 2.6054-1.7056 4.7371-3.4243 4.7371-3.8193 0-0.39497-3.3791-0.71814-7.5092-0.71814-6.4558 0-7.738 0.27338-9.1406 1.9488-0.89729 1.0718-2.7916 2.5592-4.2096 3.3053-1.418 0.74607-2.5781 1.9072-2.5781 2.5802 0 0.67306-1.1084 1.8169-2.4631 2.542-2.4187 1.2945-2.3554 1.3371 3.5156 2.3676 3.2883 0.57717 6.1564 1.11 6.3736 1.184 0.21721 0.074 1.1664-0.56362 2.1094-1.417zm-41.411-7.8016c0-0.31258-7.4824-1.2505-16.627-2.0842-14.15-1.29-16.979-1.3247-18.984-0.23306-2.329 1.2676-2.3125 1.2835 1.3931 1.3463 4.659 0.0789 26.602 3.3324 27.32 4.0507 0.60024 0.60025 6.8983-2.2115 6.8983-3.0798zm5.826-4.3799c1.9707-1.3657 3.4024-2.6636 3.1816-2.8844-0.22074-0.22075-5.8461-0.89758-12.501-1.5041-12.313-1.1222-18.191-0.79385-23.226 1.2975l-2.8125 1.1683 4.2188 0.7913c2.3203 0.43522 8.9941 1.1745 14.831 1.6429s10.864 1.1035 11.172 1.4115c0.88218 0.88219 1.3297 0.71462 5.1359-1.9231zm55.877-4.2276c2.5651-3.6446 14.043-6.1874 15.715-3.4815 0.45478 0.73586 0.8925 0.63136 1.4379-0.34326 0.48769-0.87147 1.6478-1.2361 3.0687-0.96444 1.6626 0.31784 2.674-0.16294 3.7151-1.7661 4.2862-6.5999 9.1335-28.513 13.241-59.859 5.6446-43.078 12.978-65.781 25.312-78.36 3.2112-3.275 7.0001-6.3962 8.4197-6.936l2.5812-0.98137-3.1946-3.5361c-3.712-4.1087-8.7576-12.634-9.6875-16.367-0.35432-1.4228-1.0378-2.8303-1.5189-3.1276-1.1601-0.71697-3.7658 1.4955-3.3076 2.8084 0.70686 2.0252-2.8305 12.54-6.3644 18.918-2.8322 5.1116-7.0958 9.9166-20.092 22.644-16.341 16.002-24.084 21.745-29.469 21.855-1.1157 0.0228-4.1036 0.58809-6.6399 1.2563-5.006 1.3189-5.5004 2.0154-6.5662 9.2492-1.0786 7.3208-2.699 5.3997-2.2079-2.6176 0.23822-3.8889 0.13523-6.7366-0.22888-6.3281-1.2877 1.4444-2.7919 9.6151-2.7919 15.165 0 3.2599-0.4578 5.9062-1.0893 6.2965-0.81618 0.50443-0.93669-1.9937-0.48066-9.964 1.0711-18.721-1.3041-9.6804-3.7632 14.323-0.91627 8.944-2.5257 6.4611-1.814-2.7984 1.2908-16.793 1.5768-27.949 0.66732-26.03-0.48861 1.0312-0.92039 3.5625-0.9595 5.625-0.0391 2.0625-0.47891 5.2266-0.9773 7.0312s-1.2999 9.8203-1.7812 17.812-1.1969 15.337-1.5904 16.322c-0.70422 1.7631-0.72526 1.7631-1.3468 0-0.5475-1.553 1.3978-29.089 3.2394-45.854 0.40373-3.6753 0.31011-5.1376-0.2701-4.2188-2.3884 3.7823-5.9201 48.915-5.9545 76.095-0.0327 25.813 1.4815 25.754 2.0577-0.0802 0.34881-15.639 0.76862-21.116 1.6406-21.406 0.91623-0.30461 1.1719 4.6264 1.1719 22.604 0 22.698 0.0268 23.012 2.0836 24.453 1.146 0.80266 2.5171 1.4593 3.0469 1.4591 0.61695-1.8e-4 1.0672-6.6368 1.2524-18.459 0.2826-18.044 0.4714-19.978 1.9503-19.978 0.83372 0 0.30046 37.362-0.55295 38.743-0.31168 0.50429 0.20525 1.4814 1.1487 2.1712 2.3708 1.7336 0.98131 2.7561-1.9379 1.426-3.1851-1.4512-3.0809-1.5087-3.4161 1.8849-0.44864 4.5429-2.862 4.7112-2.5346 0.17674 0.14376-1.9911-0.13699-3.7193-0.62389-3.8405-0.4869-0.12118-0.88527 1.3554-0.88527 3.2812 0 2.4875-0.40725 3.5016-1.4062 3.5016-1.067 0-1.4312-1.2438-1.5096-5.1562-0.15084-7.5256-0.61378-7.8783-1.2303-0.9375-0.40428 4.5511-0.89731 6.0938-1.9476 6.0938-1.1356 0-1.4078-1.4872-1.4143-7.7276-5e-3 -4.47-0.39986-7.7317-0.9375-7.7374-1.119-0.0117-1.6068 15.694-0.50856 16.373 0.41781 0.25822 3.9629 0.68185 7.8781 0.9414l7.1184 0.47192-0.56025-2.8012c-0.47393-2.3696-0.26877-2.8012 1.3316-2.8012 2.0543 0 3.2705 2.0324 2.4679 4.1239-0.76953 2.0054 0.74755 2.4606 8.4643 2.5399 3.9328 0.0404 7.0978 0.48032 7.0978 0.98649 0 1.4196 4.0646-0.20033 5.4533-2.1734zm-13.291-0.50237c-1.0558-1.0558-0.64302-2.162 0.80674-2.162 0.77344 0 1.4062 0.39697 1.4062 0.88217 0 1.1822-1.464 2.0288-2.213 1.2798zm4.9471 0.0255c-0.0431-0.42969-0.0136-5.6328 0.0655-11.562 0.14819-11.103 1.0764-14.444 2.7732-9.9809 1.3039 3.4294 2e-3 21.41-1.5885 21.936-0.64454 0.2135-1.2071 0.0367-1.2502-0.39308zm5.3408-0.14067c-0.77091-1.2474 0.53927-14.234 1.436-14.234 1.0916 0 1.0237 13.815-0.0711 14.491-0.48 0.29666-1.0942 0.18107-1.3648-0.25688zm-15.066-1.0446c-0.69333-1.1218 1.0703-2.2333 2.319-1.4616 1.0485 0.64796 0.36016 2.3343-0.95279 2.3343-0.45476 0-1.0696-0.39273-1.3662-0.87272zm19.383-3.0221c0.23102-0.69377 1.1719-1.4072 2.0909-1.5853 1.0688-0.20718 1.5196 0.13066 1.2509 0.9375-0.23102 0.69377-1.1719 1.4072-2.0909 1.5853-1.0688 0.20718-1.5196-0.13066-1.2509-0.9375zm-14.181-15.793c-0.0146-12.911 0.73877-16.976 2.2588-12.187 0.65204 2.0544 0.52089 13.558-0.24315 21.327-0.93978 9.5565-1.9999 4.749-2.0157-9.1406zm-4.9948 5.4244c-0.83336-10.064-0.18964-28.256 1.014-28.657 0.78736-0.26245 1.1215 4.0118 1.2237 15.655 0.0773 8.8086 0.18282 16.508 0.23438 17.109 0.0516 0.60156-0.37377 1.2496-0.9452 1.4401-0.6552 0.2184-1.2192-1.8304-1.5269-5.5469zm-10.09-18.549c0-17.065 0.2268-20.625 1.3141-20.625 1.0916 0 1.29 3.4921 1.1719 20.625-0.10891 15.799-0.41639 20.625-1.3141 20.625-0.902 3.7e-4 -1.1719-4.7493-1.1719-20.625zm-13.594 31.875c0.31868-0.51563 0.13264-0.9375-0.41342-0.9375s-0.99283-1.5469-0.99283-3.4375-0.26531-3.1722-0.58958-2.8479c-0.49537 0.49537-0.76034 4.9918-0.43944 7.4573 0.13264 1.0191 1.7572 0.86271 2.4353-0.23437zm-28.594-2.4054c0-1.4157-2.5321-4.9354-5.8299-8.104-4.5518-4.3734-11.467-6.623-17.784-5.785-4.0795 0.54116-7.3629 2.5051-6.1746 3.6933 0.50719 0.50719 6.5356-0.74313 9.5517-1.9811 1.1839-0.48593 1.5848-0.39738 1.1784 0.26031-0.35128 0.56838 0.44019 1.2619 1.8415 1.6136 3.287 0.82498 9.6789 6.2194 9.7001 8.1864 9e-3 0.86453 0.75518 1.7648 1.6575 2.0006 2.479 0.64782 5.8594 0.71467 5.8594 0.11587zm6.3461-3.155c-3.3373-5.5964-11.197-14.127-13.016-14.127-2.2851 0-4.58 0.98975-4.58 1.9753 0 0.46046 0.63159 0.8372 1.4036 0.8372 1.8647 0 8.6873 6.227 10.354 9.4501 1.8748 3.6255 4.016 5.5499 6.175 5.5499 1.7995 0 1.7883-0.12213-0.3365-3.6854zm9.1226-0.0646c0-0.6875-0.52734-1.4258-1.1719-1.6406-0.69712-0.23236-1.1719 0.4323-1.1719 1.6406s0.47476 1.873 1.1719 1.6406c0.64453-0.21484 1.1719-0.95312 1.1719-1.6406zm87.18-4.0756c2.7602-4.2126 5.9954-21.791 9.8611-53.581 1.0659-8.7656 2.3794-18.047 2.9187-20.625 1.9354-9.2511 5.6367-24.411 6.409-26.25 0.43309-1.0312 1.5221-4.4062 2.42-7.5 1.2914-4.4495 4.7131-11.855 6.6679-14.43 0.15359-0.20239 0.91727 0.16153 1.6971 0.80871 1.1589 0.96178 1.5238 0.90057 1.998-0.33516 0.88807-2.3143 4.8085-1.9002 5.6584 0.59754 0.39471 1.1602 0.63408 2.4258 0.53193 2.8125-0.39949 1.5122 1.7381 0.59757 2.8532-1.2209 1.7018-2.7752 10.861-9.5009 12.464-9.1526 0.83556 0.18156-0.64507 1.9203-3.8439 4.5141-14.421 11.693-21.508 32.335-28.002 81.562-1.3264 10.055-2.7606 20.496-3.1869 23.203-0.53161 3.3754-0.45714 4.9264 0.23704 4.9362 0.66691 9e-3 0.64442 0.24932-0.0659 0.70313-1.7484 1.1169-2.0138 5.845-0.32812 5.845 0.51562 0 0.9401-0.73828 0.94327-1.6406 3e-3 -0.90234 0.59758-2.775 1.3209-4.1614 0.72331-1.3864 1.614-5.7106 1.9794-9.6094 0.36534-3.8987 1.0066-7.0886 1.425-7.0886s0.74926-1.3711 0.73527-3.0469c-0.0336-4.0242 1.7517-18.866 3.4676-28.828 0.75494-4.3828 1.374-9.6678 1.3756-11.745 2e-3 -2.0767 0.58476-4.6079 1.2958-5.625 0.71106-1.0171 1.8174-4.3805 2.4586-7.4742 1.4049-6.7786 5.2752-18.622 7.3527-22.5 1.9872-3.7092 13.989-16.18 17.209-17.881 1.3924-0.73564 3.3963-1.3375 4.4531-1.3375 4.6917 0 0.86154-2.6968-7.4534-5.2479-5.683-1.7436-9.4306-1.6436-12.213 0.32598l-2.318 1.6406 3.2812 0.46871c2.7445 0.39207 3.2812 0.85005 3.2812 2.7997 0 1.4746-0.60276 2.447-1.6406 2.6469-0.90234 0.17377-1.6439-0.24233-1.6479-0.92467-9e-3 -1.5207-4.3455-3.6539-6.0771-2.9895-0.69275 0.26583-2.3553 2.1392-3.6946 4.163-2.4519 3.7051-4.2835 4.7438-4.2835 2.4294 0-1.5452 5.9075-7.6371 11.061-11.406 3.968-2.902 4.4995-4.4578 1.7079-4.9991-1.0045-0.19477-4.2291 2.3446-8.5993 6.7718-5.672 5.7461-7.7638 8.735-11.08 15.831-5.4728 11.713-7.6864 18.177-9.8627 28.802-1.0033 4.8984-2.2572 11.016-2.7863 13.594-0.52914 2.5781-2.2832 14.602-3.8978 26.719-2.9395 22.059-6.0781 38.438-8.7123 45.466-0.77255 2.0612-1.2084 4.0651-0.96857 4.4531 0.79684 1.2893 2.1404 0.73123 3.5991-1.495zm-134.56-5.2378c1.0943-2.0447 1.3146-6.6241 0.31866-6.6241-1.4068 0-5.9107 5.1343-5.9107 6.7379 0 2.3619 4.314 2.2742 5.592-0.11377zm37.162-1.6827c-0.95299-0.95298-1.7393 0.48178-0.95739 1.7469 0.59065 0.95571 0.81148 0.95645 1.129 4e-3 0.21712-0.65136 0.13988-1.4392-0.17164-1.7507zm9.81-5.2524c-0.71028-0.71028-1.0015 0.098-1.0015 2.7798 0 4.918 1.3178 6.2441 1.7046 1.7153 0.16408-1.9215-0.15232-3.9443-0.70312-4.4951zm96.858 6.5155c2.8852-1.0044 3.8854-1.9797 4.821-4.7012 1.6566-4.8186 3.8921-18.754 6.4825-40.409 1.4685-12.276 3.5379-25.759 4.3889-28.594 0.91227-3.0391 1.5007-5.3626 3.5613-14.062 0.42746-1.8047 1.0606-3.9529 1.4069-4.7738 0.47109-1.1166-0.14706-1.7153-2.4542-2.377-3.4896-1.0008-4.87-4.0992-1.8262-4.0992 1.0322 0 2.6113 0.73451 3.509 1.6322 1.1914 1.1914 1.7384 1.3137 2.0254 0.4528 0.21624-0.64871 1.8322-3.8911 3.591-7.2054 3.4313-6.4659 3.877-7.8581 2.0259-6.3282-0.64453 0.53269-2.7638 0.92234-4.7094 0.86587-2.3953-0.0696-4.0892 0.4873-5.2461 1.7244-3.4182 3.6553-11.422 33.093-13.241 48.702-0.54081 4.6406-1.4736 10.758-2.0728 13.594s-0.99512 5.6782-0.8798 6.3163c0.11532 0.638-0.4404 4.587-1.2349 8.7754-0.79454 4.1885-1.4517 9.3618-1.4604 11.496-8e-3 2.1344-0.77048 7.5722-1.6929 12.084-0.92244 4.5117-1.4427 8.1968-1.1561 8.189 0.28657-7e-3 2.1592-0.5844 4.1615-1.2814zm0.1634-12.68c-1.0009-1.6194 0.61951-3.8371 2.8036-3.8371 2.6252 0 3.4204 1.0092 2.2513 2.8573-0.47371 0.74881-0.86775 1.0302-0.87565 0.62537-8e-3 -0.40486-0.8325-0.29825-1.8324 0.23691-1.0711 0.57325-2.0353 0.62156-2.3468 0.11759zm5.5965-23.566c0.33263-0.53822 0.11028-1.5744-0.49413-2.3027-1.6209-1.9531-0.31558-3.5161 1.9319-2.3133 2.1916 1.1729 2.3958 4.2348 0.33517 5.0255-2.0874 0.80101-2.4669 0.71334-1.7729-0.40951zm0.44337-15.896c0-0.51563 0.63281-0.9375 1.4062-0.9375s1.4062 0.42187 1.4062 0.9375c0 0.51562-0.63281 0.9375-1.4062 0.9375s-1.4062-0.42188-1.4062-0.9375zm0.41827-3.8317c-0.88597-1.4335 1.0368-3.0926 2.8-2.416 0.8081 0.3101 1.4693 1.2099 1.4693 1.9995 0 1.6384-3.3142 1.9618-4.2692 0.41649zm2.3942-17.184c0-1.7617 0.52734-3.3871 1.1719-3.6119 2.2748-0.79349 3.5156 0.48912 3.5156 3.6341 0 2.768-0.30426 3.181-2.3438 3.181-2.0427 0-2.3438-0.41146-2.3438-3.2031zm3.75 0.39063c0-0.51563-0.65771-0.9375-1.4616-0.9375s-1.2008 0.42187-0.88217 0.9375c0.31868 0.51562 0.97639 0.9375 1.4616 0.9375s0.88217-0.42188 0.88217-0.9375zm0.9375-19.219c0-1.0573 0.65797-1.4432 2.1094-1.2371 1.1602 0.16477 2.1094 0.72146 2.1094 1.2371s-0.94922 1.0723-2.1094 1.2371c-1.4514 0.20614-2.1094-0.17975-2.1094-1.2371zm-139.93 87.271c0.30364-0.30364 1.7225-0.55208 3.153-0.55208 3.9083 0 4.0897-1.5582 0.25392-2.1806-3.152-0.51149-11.029 1.3808-12.839 3.0842-0.42074 0.39607 1.405 0.60322 4.0573 0.46034 2.6523-0.14287 5.0707-0.50822 5.3744-0.81186zm-9.9145-1.1836c1.7176-0.86298 4.2426-2.1286 5.6112-2.8125 1.3686-0.68389 3.7695-1.2434 5.3353-1.2434s3.1465-0.48475 3.5127-1.0772c1.0583-1.7124-11.031-0.39097-15.243 1.6662-1.9761 0.96513-3.7294 2.4931-3.8961 3.3954-0.3789 2.0508 0.70802 2.0674 4.6803 0.0715zm57.926-22.103c-6e-3 -12.504 0.46515-28.648 1.0464-35.876 1.4184-17.639 0.73825-20.655-1.2648-5.6089-1.3541 10.172-2.173 41.559-1.6448 63.047 0.0158 0.64454 0.4439 1.1719 0.95123 1.1719 0.57984 0 0.91858-8.4436 0.91205-22.734zm-37.616 16.406c0.4659-0.90234 1.141-3.267 1.5002-5.2547 0.50178-2.7768 0.36748-3.5202-0.57973-3.2091-0.67804 0.22276-1.3713 1.8491-1.5405 3.6141s-0.97288 3.9473-1.7859 4.8497c-1.3476 1.4957-1.3441 1.6406 0.0403 1.6406 0.83521 0 1.8998-0.73828 2.3656-1.6406zm26.142-6.5496c-0.21548-1.4251-0.39756-0.48165-0.4046 2.0965-7e-3 2.5781 0.16928 3.7441 0.3918 2.591 0.22253-1.1531 0.22829-3.2624 0.0128-4.6875zm-9.1102 2.0965c0-1.8047-0.42187-3.2812-0.9375-3.2812s-0.9375 1.4766-0.9375 3.2812 0.42187 3.2812 0.9375 3.2812 0.9375-1.4766 0.9375-3.2812zm4.6956-2.1094c5e-3 -2.9648 0.2427-7.7109 0.52937-10.547 0.40139-3.9709 0.28328-4.7831-0.51378-3.533-1.3612 2.1349-2.2144 19.47-0.95822 19.47 0.51396 0 0.93815-2.4258 0.94263-5.3906zm-16.87 1.875c8e-3 -1.418 0.28195-3.5838 0.61092-4.813 0.43574-1.6282 0.25712-2.1212-0.658-1.8162-1.3452 0.44839-2.0049 9.2073-0.69351 9.2073 0.40028 0 0.73355-1.1602 0.74059-2.5781zm6.1169-7.9688c0.71924-3.9419-0.25698-4.5042-2.8484-1.6406-1.1292 1.2478-1.299 1.875-0.50765 1.875 0.79225 0 1.0492 0.95389 0.76979 2.8576-0.62811 4.2797 1.7628 1.4212 2.5863-3.092zm5.1168-7.6792-4e-3 -4.7427-1.9406 3.1832c-1.4438 2.3683-1.6501 3.3628-0.80564 3.8847 0.67529 0.41736 0.92902 1.7788 0.62648 3.3615-0.47331 2.476-0.41733 2.5353 0.80915 0.85803 0.7247-0.99109 1.3161-3.9362 1.3141-6.5447zm16.448-5.3035c-0.33476-5.8914-0.0367-12.082 1.8243-37.877l0.47344-6.5625-1.3261 5.625c-2.3223 9.8511-3.1005 45.469-0.99344 45.469 0.21997 0 0.22978-2.9946 0.0219-6.6546zm-10.294-14.439c0.30591-4.125 1.1792-11.028 1.9406-15.341 0.76146-4.3123 1.151-8.074 0.8656-8.3594-0.28538-0.28537-0.51887 0.31083-0.51887 1.3249s-0.44663 2.2904-0.9925 2.8362c-0.54587 0.54587-1.1557 3.267-1.3552 6.0469-0.77608 10.816-1.6834 16.483-3.3452 20.892-1.3453 3.5692-1.4985 5.0186-0.68996 6.5294 0.95116 1.7773 1.1451 1.5872 2.2892-2.2438 0.68752-2.3021 1.5003-7.5606 1.8062-11.686zm7.4963 5.3652c-0.78242-0.78242-2.3958 0.87049-2.3666 2.4245 0.0262 1.3919 0.1966 1.3649 1.3966-0.22127 0.75171-0.99361 1.1882-1.9851 0.97006-2.2032zm-1.7135-14.037c-0.20227-1.9336-0.36774-0.35156-0.36774 3.5156s0.16547 5.4492 0.36774 3.5156c0.20226-1.9336 0.20226-5.0976 0-7.0312zm0.90424-10.295c-0.2377-0.91216-0.44781-0.39285-0.46691 1.154-0.0191 1.5469 0.17536 2.2932 0.43217 1.6585 0.2568-0.63472 0.27243-1.9004 0.0348-2.8125zm2.4566-17.049c-0.78671-1.0462-1.3123 1.1676-1.6747 7.0541l-0.39787 6.4616 1.1832-6.5625c0.65074-3.6094 1.051-6.7383 0.88943-6.9531zm4.7682 2.4214c0.4186-1.7425 0.30268-2.4493-0.33688-2.054-0.53628 0.33144-0.97507 1.7027-0.97507 3.0473 0 2.9387 0.44905 2.5987 1.312-0.99325zm4.0218-2.2652c-0.23581-0.90234-0.42875-0.16406-0.42875 1.6406s0.19294 2.543 0.42875 1.6406c0.2358-0.90234 0.2358-2.3789 0-3.2812zm-2.5356-4.7428c8e-3 -0.67496-0.40753-0.96647-0.92315-0.64779-0.51563 0.31868-0.93104 1.5037-0.92315 2.6335 0.0117 1.6699 0.18432 1.791 0.92315 0.64779 0.49984-0.77344 0.91525-1.9585 0.92315-2.6335zm-5.5135-1.3944c-0.75452-0.75452-1.0269-0.28589-1.0061 1.731 0.025 2.4245 0.15261 2.5521 1.0346 1.0346 0.72109-1.2406 0.71301-2.0241-0.0285-2.7656zm30.633-2.6894c-0.20024-0.60073-1.4706-1.1407-2.8231-1.1999s-3.3088-0.87662-4.3473-1.8165c-1.0385-0.93986-2.4388-1.5253-3.1118-1.301-0.77504 0.25834-0.3653 0.85934 1.1176 1.6393 1.2877 0.6773 2.6786 1.8027 3.091 2.5008 0.92814 1.5715 6.5936 1.7368 6.0737 0.17716zm19.666-2.6335c3.7309-1.7451 6.1643-3.5278 6.6878-4.8994 0.45263-1.1858 6.5425-7.55 13.533-14.142 11.688-11.023 21.238-22.636 19.743-24.009-0.33928-0.31166-0.80775-0.0317-1.041 0.6221-0.59304 1.6621-5.546 7.2349-18.069 20.331-18.179 19.01-20.05 20.61-26.292 22.48-3.0803 0.92271-5.8731 2.1186-6.2062 2.6575-0.98837 1.5992 5.1591-5e-3 11.645-3.0386zm-1.9304-8.7206c3.7108-2.3938 7.3102-5.4274 7.9987-6.7414 1.3129-2.5057 19.157-21.124 20.248-21.126 1.0475-3e-3 5.4504-7.584 8.1183-13.978 1.3794-3.3063 3.0733-8.9776 3.764-12.603 1.1728-6.1551 1.1368-6.7432-0.54462-8.8807-2.3182-2.9472-2.2732-5.7463 0.18442-11.459 2.2648-5.2647 3.64-5.2488 3.64 0.0422 0 1.9985 0.44967 4.8164 0.99926 6.2619l0.99927 2.6283 1.8162-2.3328c2.9543-3.7948 4.865-11.417 3.6579-14.592-0.66481-1.7486-0.79611-6.3223-0.37692-13.13 0.70947-11.521 0.0158-13.365-3.7099-9.8653-1.1552 1.0853-2.4951 1.9656-2.9775 1.9564-0.48239-0.0093-2.2514-2.1186-3.9312-4.6875-2.2473-3.4368-2.6807-4.6706-1.6406-4.6706 0.7774 0 1.4268 0.31641 1.4431 0.70312 0.0163 0.38672 1.0738 1.89 2.3499 3.3407l2.3203 2.6376 2.9465-2.0981 2.9465-2.0981 1.7349 2.1425c1.6382 2.0231 2.2426 5.2002 1.9494 10.248-0.0709 1.2206 0.44615 2.7942 1.149 3.497 0.70282 0.70282 1.5604 3.0792 1.9058 5.2808 1.004 6.4002 5.0344 22.044 7.6607 29.734 4.4066 12.904 7.8079 19.035 15.086 27.196 2.7688 3.1049 2.7124 1.6737-0.084-2.1311-6.5739-8.9446-11.082-21.702-18.344-51.914-4.7803-19.887-5.4829-23.647-3.9081-20.914 0.87728 1.5226 8.8397 29.319 9.9365 34.688 1.2047 5.8972 6.8985 23.295 8.9661 27.397 3.8324 7.603 13.98 20.638 13.98 17.958 0-0.48052-1.582-2.9885-3.5156-5.5733-4.5676-6.1059-8.3195-13.647-9.9965-20.094-0.73778-2.8359-3.3115-12.75-5.7194-22.031-2.4079-9.2812-4.992-18.562-5.7424-20.625-2.7225-7.4827-3.8912-11.719-3.233-11.719 1.7345 0 7.7303 15.922 10.495 27.871 1.0465 4.5225 2.2532 9.6993 2.6814 11.504 0.42825 1.8047 1.2205 5.3906 1.7605 7.9688 1.9892 9.4964 6.9113 21.202 8.322 19.792 0.29009-0.29009 0.027-1.1304-0.58467-1.8675-1.2774-1.5392-6.6532-19.792-6.6589-22.61-6e-3 -2.9629-7.0148-29.321-9.707-36.506-1.3405-3.5772-2.2352-6.7062-1.9882-6.9531 0.24696-0.24697 0.5545-0.27326 0.6834-0.05842 4.2158 7.0262 8.5795 19.488 11.081 31.645 1.8547 9.0141 3.4833 13.179 2.4423 6.246-2.2929-15.271-8.5871-37.438-11.072-38.997-2.3969-1.503-10.639-3.5631-18.154-4.5373-20.175-2.6158-55.466-2.9186-65.622-0.56316-3.4171 0.79248-7.6142 1.4409-9.3267 1.4409-2.4366 0-3.2367 0.45874-3.679 2.1094-1.0063 3.7549-0.6623 5.3906 1.1336 5.3906 2.1374 0 3.9005 3.6832 3.9005 8.1482 0 1.8548-1.318 8.1622-2.9289 14.016-2.3347 8.4845-2.6986 10.922-1.7936 12.012 0.99276 1.1962 1.606 1.1797 4.8834-0.13167 3.7011-1.4809 3.7792-1.4685 6.2355 0.98781 2.0272 2.0272 2.2916 2.7892 1.4292 4.118-0.62554 0.96379-2.0585 1.5583-3.5044 1.454-2.1858-0.15772-2.4462 0.15848-2.4462 2.9702 0 1.7307-0.27303 3.9195-0.60673 4.864-0.49642 1.4051-0.37709 1.5042 0.65625 0.54542 1.5197-1.4101 12.705-1.5925 13.553-0.22097 0.32323 0.52299 2.2466 1.7972 4.2741 2.8316s3.6864 2.294 3.6864 2.7991c0 1.3616-3.8438 1.1025-6.8416-0.46119-1.5543-0.81072-3.7495-1.1428-5.3883-0.815-1.521 0.3042-3.3129 0.0987-3.9821-0.45665-0.87628-0.72724-2.2321-0.66063-4.8463 0.23808-6.338 2.1789-12.693 12.851-14.729 24.734-1.1189 6.5319-0.48201 13.305 1.2511 13.305 0.59882 0 0.79078-1.0409 0.47545-2.5781-1.1999-5.8492 4.1394-24.609 7.004-24.609 0.51292 0 0.67607-0.80825 0.36253-1.7961-0.74981-2.3625 0.83406-3.274 2.4033-1.3832 1.0252 1.2353 0.96262 3.1016-0.36904 11.005-2.0039 11.893-2.035 21.473-0.0884 27.186 1.1056 3.2448 1.2302 4.7362 0.47206 5.6497-0.77138 0.92946-0.61888 1.5971 0.60723 2.6585 3.3864 2.9314 5.5251 3.5974 10.544 3.2834 4.2387-0.26519 6.3569-1.0971 11.903-4.675zm-7.2157-2.9467c0-0.21617 0.60432-2.8529 1.3429-5.8594 0.73861-3.0065 1.8038-11.794 2.3672-19.529 1.1104-15.245 1.6234-18.281 3.0892-18.281 0.6074 0 0.7157 1.6226 0.29725 4.4531-0.36209 2.4492-1.0259 10.781-1.4752 18.516-0.82276 14.165-1.3765 17.771-3.0591 19.922-0.86841 1.1099-2.5623 1.6248-2.5623 0.77885zm-14.131-2.5477c-1.9769-3.6939-2.1859-14.635-0.4095-21.434 0.87569-3.3516 1.8259-9.1742 2.1116-12.939 0.37622-4.9576 0.80243-6.5624 1.5456-5.8193 1.2767 1.2767 1.0589 11.728-0.31988 15.354-2.2809 5.9993-2.8946 15.132-1.3634 20.288 1.6142 5.4355 0.5562 8.5126-1.5644 4.5501zm4.1791-3.797c-1.1846-1.9167-0.65642-12.142 0.94219-18.241 0.83042-3.1682 1.5099-8.5471 1.5099-11.953 0-3.5035 0.40712-6.1928 0.9375-6.1928 1.8044 0 1.4658 11.471-0.60584 20.522-0.8684 3.7943-1.1462 7.7919-0.75756 10.902 0.60021 4.8039-0.48362 7.4586-2.0262 4.9627zm17.148-0.49601c-0.70314-1.1377 1.8714-28.056 3.0741-32.141 1.6759-5.693 3.0455-8.4375 4.2108-8.4375 0.77872 0 0.44004 2.1054-1.0934 6.7969-1.541 4.7147-2.518 10.818-3.1892 19.922-0.89705 12.168-1.7149 15.943-3.0023 13.86zm-12.485-5.546c1.565-5.1455 2.5608-11.744 3.0985-20.532 0.33024-5.3974 0.9582-9.8134 1.3955-9.8134 0.43726 0 0.77656 4.957 0.754 11.016-0.0427 11.453-1.8698 19.828-4.5105 20.674-0.87055 0.27906-1.1026-0.14397-0.73751-1.3444zm19.858-8.5484c0.83456-7.0158 5.2154-20.132 6.9087-20.684 0.96717-0.31555 1.1333 0.0429 0.61983 1.3375-1.1617 2.9291-4.1072 15.527-4.7425 20.284-0.412 3.0849-1.0299 4.4531-2.011 4.4531-1.1735 0-1.3064-0.92404-0.77503-5.3906zm4.724 3.6354c-0.33348-0.53958-0.18221-1.7365 0.33614-2.6598 2.758-4.9128 10.371-22.987 10.371-24.622 0-1.1072 0.61826-1.9009 1.4807-1.9009 2.1847 0 1.0457 4.049-4.8503 17.241-5.2838 11.823-6.3444 13.548-7.3377 11.941zm6.0197-2.5626c0-0.31229 1.0804-1.8517 2.4008-3.421 4.7232-5.6133 12.599-24.027 12.599-29.457 0-1.1988 0.42187-2.1796 0.9375-2.1796 1.2206 0 1.1893 3.4209-0.0856 9.3658-1.194 5.5675-6.9887 17.237-11.199 22.553-2.6346 3.3264-4.6528 4.6878-4.6528 3.1384zm-7.4172-30.455c-7.2251-2.8886-21.645-16.316-21.645-20.155 0-2.2931 1.3269-1.4003 3.7473 2.5215 1.2876 2.0862 4.1615 5.1335 6.3866 6.7717s5.2076 3.9003 6.628 5.0268c1.4203 1.1266 4.3471 2.7544 6.504 3.6174 4.0126 1.6055 5.2186 3.2875 2.281 3.1811-0.90234-0.0327-2.658-0.46619-3.9015-0.96335zm-14.614-24.634c-1.5469-0.73534-3.5508-1.5783-4.4531-1.8732-1.8722-0.6119-2.2495-3.4076-0.45989-3.4076 0.64941 0 1.7436 0.90132 2.4316 2.0029 1.1549 1.8492 1.8197 1.964 8.663 1.4949 6.5591-0.44957 8.9764 0.11228 6.6552 1.5468-2.1484 1.3278-10.228 1.4764-12.837 0.23605zm-1.3874-5.8747c-1.5572-0.65477-2.8314-1.6327-2.8314-2.1733 0-1.2629 1.4968-1.2511 3.8919 0.0307 1.0415 0.5574 2.0767 0.83039 2.3005 0.60664 0.61553-0.61553-5.4889-6.8611-7.3643-7.5346-2.3948-0.86002-2.0051-4.0944 0.78496-6.5136l2.4256-2.1032-2.66-0.47325c-2.3437-0.41698-2.6932-0.9243-2.9392-4.2673-0.2114-2.8728 0.18835-4.2171 1.6464-5.5366 2.356-2.1321 3.3918-1.3902 1.9141 1.3709-1.5671 2.9281-0.65321 3.2687 5.0807 1.8931 2.8101-0.67414 6.6978-0.9523 8.6771-0.62082 1.9723 0.3303 6.716 1.1284 10.542 1.7735 7.6716 1.2937 10.22 3.5167 4.0317 3.5167-2.0351 0-5.9097-0.41902-8.6102-0.93117-6.3339-1.2012-9.1678 0.09164-3.9648 1.8088 2.0209 0.66695 5.479 2.6408 7.6848 4.3863s4.373 3.1736 4.8161 3.1736c0.44307 0 0.80557 0.89163 0.80557 1.9814 0 1.6643-0.41257 1.8971-2.5781 1.4542-12.663-2.5892-13.754-2.7198-14.099-1.687-0.19504 0.58509-1.1237 1.0638-2.0637 1.0638-1.2541 0-1.5771 0.50498-1.2131 1.8968 0.46881 1.7927 0.56323 1.8056 1.7203 0.23438 1.1678-1.5858 1.2538-1.5863 1.8648-0.01 0.35232 0.90892 0.11986 2.28-0.51659 3.0469-1.8868 2.2735 1.7161 1.7362 6.4305-0.95891 3.8957-2.2271 6.4794-2.3705 5.1925-0.28827-1.018 1.6471-9.0144 4.8322-13.704 5.4584-2.7789 0.37107-5.4912 0.14769-7.2656-0.59839zm19.317-13.279c-0.2544-0.41163-2.5604-1.731-5.1246-2.932-5.4054-2.5317-11.936-2.1636-14.641 0.82528-1.5359 1.6972-1.3627 1.7356 5.7514 1.2759 4.0966-0.26469 8.3698-0.04697 9.6788 0.49323 2.8679 1.1835 4.959 1.3463 4.3356 0.33758zm25.352 14.186c-1.2384-1.2384-0.58963-6.6691 1.0581-8.8579 0.92571-1.2297 2.4741-4.0459 3.4408-6.2582 1.1499-2.6315 2.2661-3.9245 3.228-3.7392 2.1276 0.40973 2.3674 3.2178 0.32055 3.7531-1.9712 0.51548-3.9849 6.2169-3.9849 11.283 0 2.1503-0.51855 3.5056-1.4829 3.8756-1.8362 0.7046-1.8186 0.70499-2.5796-0.056zm-66.321 70.219c-1.1575-8.1784-0.51466-14.824 2.5378-26.235 1.0747-4.0173-1.1658-2.09-2.7246 2.3438-2.162 6.1493-3.4493 15.162-2.8277 19.796 0.34802 2.5947 0.16395 3.8758-0.5569 3.8758-0.63469 0-0.0822 1.9626 1.3458 4.7807 1.3324 2.6294 2.6444 4.5589 2.9155 4.2878 0.27108-0.27109-0.0394-4.2534-0.68986-8.8495zm88.02 7.3395c0.23437-0.70312-0.11719-1.0547-0.82031-0.82031-0.67677 0.22558-1.415 0.96386-1.6406 1.6406-0.23437 0.70312 0.11719 1.0547 0.82031 0.82031 0.67676-0.22559 1.415-0.96387 1.6406-1.6406zm-38.318-12.289c2.8052-2.5547 4.4769-4.645 3.7148-4.645-0.76212 0-3.4633 2.1094-6.0027 4.6875-5.9442 6.0349-4.353 6.0053 2.2879-0.0426zm72.243-3.7074c0-0.51563-1.0796-0.9375-2.3991-0.9375-1.3606 0-2.1483 0.40579-1.8197 0.9375 0.31867 0.51562 1.3983 0.9375 2.3991 0.9375s1.8197-0.42188 1.8197-0.9375zm-13.941-5.8789c-1.5608-1.5608-2.4448-0.0101-0.99208 1.7403 0.8786 1.0586 1.3867 1.1851 1.6453 0.40937 0.20576-0.61728-0.0882-1.5846-0.65323-2.1497zm7.3716 1.8945c-4e-3 -0.64453-1.0351-1.6484-2.2914-2.2308-2.2429-1.0399-2.2577-1.0188-0.82237 1.1719 1.5819 2.4142 3.1255 2.9392 3.1137 1.059zm-20.217-10.758c-6.5161-7.9672-13.786-23.41-14.288-30.35-0.2201-3.043-0.71401-5.5326-1.0976-5.5326-1.4547 0-1.7809 8.1895-0.49621 12.458 1.8402 6.1144 14.123 26.8 15.959 26.877 0.5205 0.0218 1.5396 0.9889 2.2648 2.149 0.8137 1.3019 1.4653 1.6696 1.7022 0.96069 0.21106-0.63177-1.6087-3.5849-4.044-6.5625zm4.8691 0.44556c-6.2137-8.6142-13.369-27.81-16.061-43.088-0.8823-5.0071-2.2028-9.8586-2.9345-10.781-2.1503-2.7115-0.91586 7.5178 2.9462 24.414 1.7562 7.6832 9.8237 24.271 13.87 28.518 3.3697 3.537 4.3628 3.9642 2.1796 0.9375zm-27.85-6.3281c-0.0339-0.92724-0.32599-0.76757-0.85725 0.46875-1.1075 2.5773-1.1075 4.0575 0 2.3438 0.49984-0.77344 0.8856-2.0391 0.85725-2.8125zm-1.1722-12.243c0.33511-3.2061 0.21414-5.5691-0.28508-5.5691-0.47693 0-0.94937 1.8892-1.0499 4.1982s-0.82506 5.7355-1.6101 7.6145c-2.0141 4.8204-1.7661 6.0981 0.47129 2.4283 1.0404-1.7065 2.1536-5.6089 2.4738-8.6719zm-68.952-71.686c-0.15609-4.4396-1.4434-10.758-2.1918-10.758-0.51138 0-0.67371 0.66732-0.36073 1.4829 0.31298 0.81561 0.56905 3.593 0.56905 6.1719 0 2.9274 0.37862 4.5627 1.0078 4.353 0.5543-0.18476 0.99335-0.74726 0.97568-1.25zm-4.5665-3.7266c-0.24642-1.2891-0.60978-2.3438-0.80749-2.3438-0.1977 0-0.35946 1.0547-0.35946 2.3438s0.36337 2.3438 0.8075 2.3438c0.44412 0 0.60587-1.0547 0.35945-2.3438zm87.57-28.159c4.597-2.694 5.5298-4.9746 4.592-11.228-0.86657-5.7787-2.8582-5.4852-2.8651 0.42213-7e-3 5.4312-2.2623 9.0801-7.1088 11.498-2.8913 1.4424-2.9812 1.5999-0.93695 1.6406 1.2438 0.02477 4.0872-1.025 6.3188-2.3328zm-3.7107 498.48c0.58381-39.992 2.4016-89.613 3.4349-93.763 0.99688-4.0033 1.3613-4.3845 5.2894-5.5336 3.7051-1.0838 31.307-5.9219 50.156-8.7915 3.6094-0.54948 8.5872-1.3831 11.062-1.8524 7.2047-1.3665 8.157-1.1806 8.157 1.592 0 2.0615-0.33113 2.3656-2.1094 1.9373-1.1602-0.27945-4.0078-0.11273-6.3281 0.37047-4.7316 0.98537-14.939 2.6549-37.031 6.0571-21.847 3.3644-24.701 4.0458-25.838 6.1704-0.54816 1.0242-1.3898 13.14-1.8924 27.243-0.49783 13.969-1.079 25.679-1.2915 26.023-0.21248 0.34381-0.47607 13.05-0.58575 28.236l-0.19941 27.611 3.8721 0.28751c2.1297 0.15814 7.7815-0.75117 12.56-2.0207 4.7781-1.2695 10.797-2.5794 13.375-2.9108 7.6441-0.98273 18.105-3.2985 28.594-6.33 5.4141-1.5648 10.41-3.0072 11.103-3.2053 0.93384-0.26712 1.1121-1.51 0.6897-4.8092-1.4028-10.957-1.4274-38.115-0.0507-56.012 0.79327-10.312 1.7454-24.411 2.1158-31.331 0.46737-8.7305 1.0321-12.699 1.8454-12.969 1.552-0.51416 1.5141 3.0252-0.30949 28.903-1.0129 14.373-1.3835 30.064-1.1719 49.615l0.30949 28.594-5.1562 1.1486c-2.8359 0.63173-7.6875 1.9955-10.781 3.0305-3.0938 1.035-11.531 2.9618-18.75 4.2817-7.2188 1.3199-17.344 3.4078-22.5 4.6398s-11.507 2.4501-14.113 2.7069l-4.738 0.4669 0.28302-19.387zm11.537 3.5816c0-4.8644 0.23643-5.625 1.7486-5.625 2.0007 0 6.6889 3.4034 6.6889 4.8558 0 0.55588-0.70019 0.68149-1.6406 0.29434-0.90234-0.37148-2.4844-0.90472-3.5156-1.185-1.7626-0.47903-1.7829-0.40244-0.33821 1.2782 1.7996 2.0936 0.81815 6.0066-1.5066 6.0066-1.1307 0-1.4365-1.1974-1.4365-5.625zm19.431-1.6406c-2.8856-2.4492-5.274-5.0061-5.3076-5.682-0.0579-1.1631 17.17-35.358 21.344-42.365 1.0751-1.8047 3.4378-6.2344 5.2506-9.8438s3.9093-7.6172 4.6588-8.9062 2.9117-5.5964 4.8048-9.5719c4.6108-9.6828 5.3242-10.173 8.3403-5.7346 1.3284 1.9549 2.4152 4.0892 2.4152 4.743 0 1.9456-1.7231 1.3546-3.3675-1.1551-0.84462-1.2891-1.8526-2.3438-2.2398-2.3438-0.38729 0-2.0617 3.0586-3.721 6.7969s-4.7262 9.75-6.8154 13.359c-4.8001 8.2928-8.8764 15.896-13.32 24.844-3.8591 7.771-8.4681 16.785-12.176 23.812-1.3328 2.526-2.4232 5.006-2.4232 5.511s2.3965 3.1844 5.3255 5.9541c6.5899 6.2315 4.4232 6.6875-2.7692 0.58275zm18.624 0.23438c-1.3182-2.0118-1.3381-2.3438-0.14081-2.3438 1.2169 0 3.3358 2.6406 3.3358 4.1571 0 1.3336-1.8039 0.3098-3.195-1.8134zm-14.071-2.2203c-2.577-0.55797-4.6386-2.936-2.5454-2.936 2.4482 0 10.476 2.117 10.952 2.8884 0.58648 0.94895-4.121 0.97559-8.407 0.0476zm12.579-2.4391c0-0.75801 1.2474-2.3005 2.7721-3.4277 2.7196-2.0107 2.7418-2.0955 1.1694-4.4812-0.8815-1.3374-2.6155-4.377-3.8533-6.7547-2.1875-4.2018-2.3188-4.2874-4.685-3.0526-3.1846 1.6618-5.7157 1.6255-5.7157-0.0819 0-0.82071 1.329-1.6131 3.3375-1.9899 2.6117-0.48995 3.1971-0.95791 2.6919-2.1518-1.2659-2.992-1.545-5.7444-0.58242-5.7444 0.53793 0 2.0529 2.2148 3.3665 4.9219 2.468 5.0857 3.4111 6.6977 6.7193 11.484 1.0691 1.5469 2.2446 3.3228 2.6123 3.9464 0.39131 0.66365-0.75067 2.7048-2.7536 4.9219-3.606 3.9914-5.079 4.6903-5.079 2.4098zm-32.812-1.527c0-0.56662 1.426-3.6252 3.1689-6.7969s4.2156-7.6651 5.4949-9.9854 4.7648-8.8594 7.7454-14.531c23.606-44.919 24.93-47.329 26.013-47.338 0.97862-8e-3 0.88095 2.2446-0.14402 3.3222-0.46594 0.48985-4.1037 7.2188-8.0839 14.953-3.9802 7.7344-8.8107 16.805-10.734 20.156-1.9237 3.3516-4.8815 8.625-6.5728 11.719-1.6913 3.0938-5.1281 9.3797-7.6372 13.969s-4.562 8.6376-4.562 8.9966c0 0.35904-0.66371 1.9832-1.4749 3.6093-1.4471 2.9008-3.2126 3.9594-3.2126 1.9263zm39.22-14.218c-8.3394-14.058-9.5765-16.645-8.4808-17.741 0.57371-0.57371 2.6157 2.264 5.643 7.8421 2.6092 4.8076 6.2152 11.05 8.0133 13.872 2.9749 4.6685 3.4836 6.6122 1.7208 6.5742-0.35628-8e-3 -3.4596-4.7538-6.8962-10.547zm-21.408 8.8066c0-0.4492 2.2148-1.0967 4.9219-1.439 2.707-0.34223 6.293-0.8654 7.9688-1.1626 5.0346-0.89292 3.5022 1.2903-1.6868 2.4031-5.7031 1.2231-11.204 1.3205-11.204 0.19846zm-22.969-5.8511c-2.5781-1.0455-5.0812-2.2862-5.5625-2.7572-1.9395-1.898 0.57267-1.8975 5.6475 9.4e-4 2.9538 1.1052 5.9667 1.7807 6.6953 1.5011 0.88259-0.33869 1.2201 0.0345 1.0114 1.1182-0.44139 2.2919-2.3924 2.3261-7.7917 0.13657zm55.249-4.8166c-0.36206-1.1602-0.96641-2.3203-1.343-2.5781-0.87509-0.59906-11.208-18.517-12.233-21.212-1.1207-2.9477 0.16136-3.6004 2.1521-1.0956 1.7086 2.1498 1.7099 2.1476 1.4421-2.5359-0.14739-2.5781 0.1539-4.8984 0.66952-5.1562 1.305-0.65253 1.7953 9.4927 0.49747 10.295-0.6529 0.40351 0.66393 3.6232 3.6789 8.995 2.5827 4.6016 4.7035 8.8841 4.7128 9.5168 9e-3 0.63264 1.0717 1.8413 2.3608 2.6859 2.8006 1.835 3.0271 3.195 0.53193 3.195-1.0589 0-2.0854-0.8766-2.4701-2.1094zm-47.821-2.0872c-1.8336-2.7984-3.652-9.9995-4.6105-18.258-0.89478-7.7094 1.0511-21.258 3.3888-23.596 2.1368-2.1368 2.2015-3.0429 0.32813-4.5977-2.0928-1.7368-6.0615 0.25383-6.0803 3.0498-0.0149 2.2176-1.4666 5.2139-2.1541 4.4461-0.21744-0.24288-0.64601-1.9182-0.95237-3.7228-0.50196-2.9569-0.22135-3.5361 2.8391-5.8594 3.4114-2.5897 5.9067-3.3168 5.9067-1.7211 0 0.47135 1.3711 2.2697 3.0469 3.9963 4.0366 4.159 11.953 14.612 11.953 15.782 0 2.2313 1.7872 0.64707 2.3914-2.1198 0.36598-1.6758 1.4542-4.053 2.4182-5.2827 2.2559-2.8775 2.2086-4.0971-0.24377-6.2908-1.0981-0.98227-2.9813-3.2625-4.1848-5.0672s-3.4691-5.0892-5.0346-7.2988-2.8465-4.6495-2.8465-5.4219 1.5366-2.9409 3.4146-4.8189l3.4146-3.4146-2.0209-1.6364c-1.1115-0.90003-2.5426-1.8229-3.1802-2.0508-0.63763-0.22788-0.87471-0.72156-0.52686-1.097 0.88519-0.95547 3.5961 0.10754 6.6365 2.6023l2.5815 2.1182-3.7533 4.0251c-4.0396 4.3321-4.1546 4.5949-2.8866 6.598 0.70841 1.1191 1.0791 1.0828 2.3964-0.23438 2.4692-2.4692 15.278-1.7149 16.167 0.952 0.2433 0.72989-2.0785 1.0092-7.5779 0.91163-4.3608-0.0773-8.2211 0.14777-8.5785 0.50032-0.35741 0.35254 0.72228 2.3484 2.3993 4.4352 2.4531 3.0525 3.4794 3.6862 5.2504 3.2418 1.6728-0.41984 2.2012-0.16423 2.2012 1.0648 0 1.1706-0.53257 1.478-1.9285 1.1129-1.2712-0.33242-1.7507-0.13002-1.4069 0.59379 0.28693 0.60395 0.7821 1.8364 1.1004 2.7387 0.31828 0.90235 0.8459 1.6361 1.1725 1.6305 0.32657-6e-3 2.2813-3.2751 4.3438-7.2656s4.9102-9.1311 6.3281-11.423c1.418-2.2924 2.5781-4.6833 2.5781-5.3132 0-0.7288-3.0685-1.5796-8.4375-2.3395-4.6406-0.6568-8.4375-1.5273-8.4375-1.9345 0-1.4465 4.6543-1.876 9.3697-0.86477 2.6318 0.56442 4.9691 1.0262 5.1939 1.0262 0.22486 0-0.42714-1.3711-1.4489-3.0469-2.1975-3.6042-2.367-4.8276-0.52602-3.7966 1.5241 0.85353 7.0988 8.2993 7.0988 9.4814 0 0.42852-1.3711 3.2133-3.0469 6.1884s-4.7591 8.6399-6.8518 12.588c-2.0927 3.9485-4.6058 8.6556-5.5846 10.46-2.2247 4.1018-5.7126 12.275-7.602 17.812-3.117 9.136-9.7854 22.676-11.439 23.227-0.53938 0.1798-1.6996-0.77021-2.5782-2.1111zm5.6906-7.0389c1.9652-4.6488 2.0259-5.2623 0.71866-7.2575-1.4896-2.2734-2.0728-15.869-0.77112-17.975 1.2585-2.0362 2.4556 0.0741 1.8558 3.2714-0.74098 3.9497 0.35689 13.509 1.5515 13.509 0.47852 0 0.87004-0.57919 0.87004-1.2871s0.88724-3.2928 1.9716-5.7443c1.1748-2.6558 1.6066-4.6932 1.0683-5.041-0.49683-0.32109-1.5882-1.8494-2.4253-3.3963-0.83707-1.5469-2.9892-4.5-4.7825-6.5625-2.9848-3.4329-3.3872-3.6236-4.7577-2.2552-0.83615 0.83488-1.9538 4.56-2.5314 8.4375-1.5724 10.554 1.2814 30.647 4.214 29.67 0.4793-0.15977 1.8374-2.5756 3.0181-5.3686zm-15.905 7.5286c-0.30404-0.49195-1.005-4.5916-1.5578-9.1103-1.2167-9.9468-0.30586-24.752 1.673-27.195 1.2502-1.543 1.3329-1.2568 0.86098 2.9805-1.5921 14.294-1.6318 20.792-0.16512 27.011 0.82833 3.5125 1.506 6.5711 1.506 6.7969 0 0.77766-1.7653 0.40901-2.3171-0.48387zm55.347-13.402c0.4206-1.6758 0.84085-7.0366 0.93391-11.913 0.10711-5.6125 0.55755-8.9954 1.2275-9.2188 1.4521-0.48403 1.4261 18.596-0.0297 21.791-1.5807 3.4693-3.0535 3.014-2.1317-0.65902zm-0.49548-24.518c-1.3077-3.4395-1.2262-5.4884 0.19953-5.015 1.8327 0.60852 3.1473 5.198 1.8581 6.4871-0.82211 0.82211-1.3212 0.46508-2.0577-1.4721zm-30.33-1.7323c-0.79628-1.1602-4.844-5.618-8.9948-9.9064-8.1303-8.3997-10.063-12.411-8.9197-18.508 0.93604-4.9895 2.6142-3.3741 3.7772 3.6359 0.89293 5.3819 1.7612 7.1934 6.256 13.053 2.8705 3.7419 6.5172 8.0426 8.1038 9.557s2.8847 3.0965 2.8847 3.5156c0 1.468-1.6726 0.74281-3.1072-1.3473zm38.226-3.2429c-0.30869-1.4391-1.1648-4.3181-1.9025-6.3978-1.5809-4.4571-1.6392-5.1249-0.4476-5.1249 1.1936 0 4.7314 8.1092 4.7314 10.845 0 3.2097-1.7324 3.7027-2.3813 0.67763zm-10.666-21.57c0.53269-1.4011 1.3586-3.0174 1.8352-3.5917 0.4767-0.57438 0.69897-2.7305 0.49395-4.7914-0.48064-4.8313 0.36546-6.0743 4.262-6.261l3.1751-0.15218 0.28149 5.402c0.23095 4.4316-0.0115 5.5144-1.35 6.028-0.95008 0.36457-1.791 0.14771-2.0133-0.51923-0.47575-1.4272-3.0119 0.41155-3.0119 2.1837 0 1.1649-2.9288 4.2493-4.035 4.2493-0.33336 0-0.17027-1.1463 0.36242-2.5474zm-8.5149-35.929c0-0.53718 0.87096-1.9083 1.9355-3.0469 6.9787-7.4644 14.131-26.399 19.169-50.748 1.8055-8.726 3.5486-16.109 3.8736-16.406 2.3782-2.1767-5.5108 38.179-9.4645 48.416-1.8739 4.8516-4.4685 15.37-3.9254 15.913 1.2847 1.2847 8.0994-8.587 8.0994-11.733 0-1.075 0.4948-3.0406 1.0996-4.3679 0.76634-1.6819 0.80193-2.7109 0.11747-3.3954-0.68447-0.68447-1.1652-6e-3 -1.5864 2.2388-0.33233 1.7715-1.4439 4.8616-2.4702 6.8669l-1.866 3.646 0.59998-3.75c0.32998-2.0625 0.92642-4.1719 1.3254-4.6875 0.39899-0.51563 0.87132-1.9922 1.0496-3.2812 0.2394-1.7306 0.89117-2.3438 2.4916-2.3438 2.1171 0 2.1698 0.22318 2.2757 9.632 0.0683 6.073 0.46104 9.5145 1.0628 9.3139 1.7332-0.57773 2.5806-5.6406 3.4848-20.821 0.49142-8.25 1.4222-22.066 2.0684-30.703 0.64618-8.6367 0.89968-15.703 0.56334-15.703-0.33635 0-1.1367 0.63281-1.7786 1.4062-3.243 3.9075-3.8404-0.5788-0.614-4.611 1.5703-1.9624 2.6679-2.5522 3.8825-2.0862 1.4996 0.57545 1.6309 1.4784 1.1476 7.8922-0.30018 3.9833-1.2661 20.11-2.1465 35.836-1.8539 33.116-0.97772 30.79-12.582 33.399-3.8672 0.86943-8.3888 2.1479-10.048 2.841-3.5906 1.5-7.7645 1.6524-7.7645 0.28353zm8.4563-4.2022c0.65223-0.7859 0.92502-1.6898 0.60619-2.0086-0.68089-0.6809-3.4375 1.416-3.4375 2.6148 0 1.2914 1.528 0.96421 2.8313-0.6062zm13.106-26.064c0-3.146 2.777-22.471 3.305-22.999 0.24476-0.24476 0.61227-0.26923 0.8167-0.0544 0.40875 0.42956-0.91749 16.13-1.8346 21.719-0.63235 3.8533-2.2871 4.8192-2.2871 1.3351zm22.977-9.6972c0.53733-3.0986 2.4766-44.21 2.8892-61.247 0.56623-23.386 0.57368-25.804 0.0837-27.188-0.27396-0.77344-0.71196-2.6719-0.97335-4.2188-1.0154-6.0095-3.4948-13.154-5.1336-14.793-2.4601-2.4601-10.912-3.1741-15.397-1.3005-3.9074 1.6326-4.5289 0.89929-1.5329-1.8086 2.4469-2.2116 12.061-2.4125 16.265-0.33994 4.6384 2.2867 8.0411 8.1595 8.9885 15.514 1.1285 8.7598 1.0588 31.903-0.14092 46.79-0.54015 6.7031-1.4771 20.802-2.082 31.33-0.78086 13.589-1.4374 19.254-2.2634 19.528-0.8089 0.2685-1.0233-0.42249-0.70335-2.2672zm-7.0394-105.31c0-0.51563 0.81885-0.9375 1.8197-0.9375s2.0804 0.42187 2.3991 0.9375c0.32861 0.53171-0.45902 0.9375-1.8197 0.9375-1.3195 0-2.3991-0.42188-2.3991-0.9375zm-76.875-201.4c0-0.49471 0.63281-1.1423 1.4062-1.4391 0.77344-0.2968 1.4062-0.97474 1.4062-1.5066 0-1.509-3.4851-1.1345-4.089 0.43933-0.76427 1.9917-2.4735 1.7471-2.4735-0.35396 0-2.8156 2.3822-4.1542 6.1389-3.4494 3.0932 0.5803 3.325 0.85487 3.0572 3.6219-0.24028 2.4822-0.73055 3.0447-2.868 3.2906-1.418 0.16316-2.5781-0.10812-2.5781-0.60282zm-81.797-3.9877c-2.4348-1.4181-2.022-4.4788 0.77594-5.7537 4.3234-1.9699 8.1223 2.6278 4.4627 5.401-2.0549 1.5571-3.0551 1.6245-5.2386 0.35268zm3.9844-2.7374c0-0.51562-0.63281-0.9375-1.4062-0.9375s-1.4062 0.42188-1.4062 0.9375 0.63281 0.9375 1.4062 0.9375 1.4062-0.42188 1.4062-0.9375zm53.454 1.4259c-1.6252-1.9583 0.16289-6.1134 2.6308-6.1134 2.727 0 5.4639 3.5066 4.2502 5.4455-1.3273 2.1203-5.3514 2.5109-6.881 0.66788zm-33.782-1.2497c-3.8511-3.1184 0.12662-8.2502 4.557-5.8792 2.3907 1.2795 3.172 3.5517 1.9844 5.7709-1.2143 2.2689-3.8199 2.312-6.5414 0.10827zm3.8625-3.2664c-1.2033-1.2033-2.4235-0.27328-1.5327 1.1681 0.34507 0.55834 1.0569 0.74973 1.5818 0.42531 0.64031-0.39574 0.62414-0.92012-0.0491-1.5934zm11.72 3.5238c-2.8746-2.8746-1.1209-6.0586 3.337-6.0586 3.2297 0 5.4305 3.2923 3.4526 5.165-2.2302 2.1117-5.1829 2.5003-6.7896 0.8936zm-40.174-19.859c-4.258-0.45472-7.902-3.8965-9.6794-9.1423-2.1529-6.354 0.7577-13.506 6.4419-15.83 0.82794-0.33846 0.77947-0.70113-0.18366-1.3741-1.9843-1.3864-0.6052-3.8732 1.7992-3.2444 2.9854 0.7807 3.3313 2.9134 1.169 7.2077-1.0633 2.1117-2.1852 4.6045-2.493 5.5395-1.5708 4.7711 7.4356 12.059 11.959 9.678 3.9659-2.0877 7.8684-7.1592 5.509-7.1592-0.38975 0-1.2689-1.2656-1.9536-2.8125s-1.7726-2.8125-2.4176-2.8125c-1.6681 0-6.2065-5.3315-5.7613-6.7681 0.20464-0.66035 0.62435-2.3531 0.93269-3.7617 0.68681-3.1374 4.7304-5.4081 9.6276-5.4065 1.9592 6.581e-4 7.1035-0.49366 11.432-1.0985 7.3376-1.0253 8.1299-0.96771 11.719 0.85262 4.7373 2.4028 10.366 3.3526 18.517 3.1244 6.7105-0.18791 12.614 1.6151 13.587 4.1496 0.89814 2.3405-0.11195 2.5749-4.012 0.93072-2.2692-0.95661-7.0737-1.639-12.894-1.8313-8.7776-0.28999-9.3888-0.18567-11.358 1.9386-2.9189 3.1496-4.386 2.7538-6.6094-1.783-1.6168-3.2991-2.4392-3.99-5.0516-4.2441-5.2094-0.5066-7.4208 0.52693-8.9479 4.1819l-1.411 3.3769-3.3355-2.5441c-2.4029-1.8328-3.9759-2.3833-5.626-1.9692-3.3481 0.84032-2.8195 2.6069 1.8202 6.0833 4.7509 3.5597 6.2017 6.2104 6.2017 11.331 0 5.173-1.4103 7.6706-5.9177 10.48-4.3415 2.7063-7.7791 3.4713-13.063 2.907zm3.981-2.968c0-0.45687-1.4709-1.5287-3.2686-2.3817-4.1627-1.9753-5.1959-3.9737-5.3644-10.375-0.0747-2.8392-0.2625-5.1622-0.41732-5.1622-0.15483 0-1.0037 1.1022-1.8864 2.4494-2.4458 3.7328-1.8015 9.7382 1.2962 12.082 3.8539 2.9157 9.6405 4.9494 9.6405 3.3881zm55.913-6.4349c-0.55881-3.9149-0.35793-6.789 0.58062-8.3076 0.34297-0.55495 0.19614-2.5571-0.3263-4.4492-0.97305-3.5241-0.46973-5.7421 1.085-4.7813 1.129 0.69775 1.146 21.054 0.0176 21.054-0.47031 0-1.0809-1.582-1.3569-3.5156zm-4.3505-4.3978c0-3.8368 0.42187-7.2367 0.9375-7.5553 0.59538-0.36796 0.9375 2.1778 0.9375 6.9759 0 4.4119-0.39006 7.5553-0.9375 7.5553-0.541 0-0.9375-2.9503-0.9375-6.9759zm9.375-1.7741c0-6.0685 0.34718-9.0625 1.0509-9.0625 0.74806 0 0.86048 2.4989 0.39012 8.6719-0.36342 4.7695-0.83632 8.8477-1.0509 9.0625-0.21455 0.21484-0.39011-3.6875-0.39011-8.6719zm-60.829 0.27155c-0.0381-4.0664 0.28942-6.3864 0.8524-6.0384 1.155 0.71382 1.2133 12.642 0.0618 12.642-0.46882 0-0.88023-2.9716-0.91423-6.6034zm46.767 3.9081c0-3.191 1.1576-7.6172 1.9922-7.6172 0.45117 0 0.82031 2.1094 0.82031 4.6875 0 3.5417-0.34375 4.6875-1.4062 4.6875-0.77344 0-1.4062-0.79102-1.4062-1.7578zm-41.562 0.19531c-0.98759-0.98759-0.72708-5.9375 0.3125-5.9375 0.51562 0 0.9375 1.4766 0.9375 3.2812 0 3.3719-0.17099 3.7353-1.25 2.6562zm-9.4068-1.7324c-0.85052-2.2164-0.70583-6.3256 0.27744-7.8791 0.59701-0.94324 1.036-0.03636 1.5089 3.1174 0.67667 4.5123-0.58821 7.884-1.7864 4.7617z"/>
</svg>
