<?xml version="1.0" encoding="UTF-8"?>
<svg width="844.69" height="179.06" version="1.1" viewBox="0 0 844.6875 179.0625" xmlns="http://www.w3.org/2000/svg">
 <path d="m568.41 178.12c-4.4399-1.7884-5.695-5.8373-4.5817-14.781 0.53922-4.3319 0.41335-6.2678-0.4773-7.341-1.2533-1.5102-3.0495-19.201-3.1072-30.604l-0.0321-6.3281h-7.2187c-8.2318 0-10.185 0.50916-10.185 2.6556 0 0.83462-1.793 3.1092-3.9844 5.0546l-3.9844 3.5372-23.438 0.0972c-12.891 0.0534-37.148 0.30355-53.906 0.5558-49.852 0.75041-138.62 0.76275-161.25 0.0224-11.602-0.37957-28.266-0.92244-37.031-1.2064-8.7656-0.28395-21.784-0.71181-28.931-0.95082-7.1463-0.239-13.76-0.84499-14.698-1.3466-0.93735-0.50166-3.7388-0.85377-6.2254-0.7825-2.4866 0.0712-7.4743-0.0861-11.084-0.34957-3.6094-0.26354-13.312-0.9545-21.562-1.5354-15.137-1.0659-26.788-2.2343-37.969-3.8077-3.3516-0.47162-9.6797-1.3236-14.062-1.8933s-10.078-1.6364-12.656-2.3704c-2.5781-0.73398-6.7969-1.5474-9.375-1.8076-2.5781-0.26019-7.8516-1.1405-11.719-1.9562-3.8672-0.81574-9.9844-2.0492-13.594-2.741-3.6094-0.6918-10.57-2.2147-15.469-3.3842-4.8984-1.1695-10.383-2.326-12.188-2.5698-1.8047-0.24388-3.7031-0.76761-4.2188-1.1638-0.51562-0.39623-2.8359-1.0319-5.1562-1.4127-2.3203-0.38075-5.0509-1.2722-6.068-1.981-1.0171-0.70882-3.418-1.2887-5.3353-1.2887s-3.7468-0.42188-4.0655-0.9375-1.5575-0.9375-2.753-0.9375-2.6518-0.57615-3.2362-1.2803c-0.58442-0.70418-3.5129-1.8003-6.5077-2.4359-7.066-1.4995-13.476-6.4493-11.475-8.8605 1.3241-1.5954 2.6639-1.7137 15.535-1.3721 19.916 0.52866 46.476-0.80896 48.089-2.4219 0.21156-0.21156 1.3087-0.03332 2.4381 0.39608 1.3052 0.49623 3.171 0.31087 5.1201-0.50866 1.6866-0.70917 5.8871-1.5659 9.3345-1.904 3.4474-0.33801 6.7286-0.97613 7.2917-1.4181 0.56307-0.44193 1.2273-0.60001 1.476-0.3513 0.24871 0.24871 2.7411-0.12405 5.5387-0.82836s7.1186-1.5401 9.6022-1.8572c2.4836-0.31716 5.3797-1.1819 6.4358-1.9216 1.056-0.73969 2.4704-1.1337 3.143-0.87563 0.67259 0.2581 2.2062-0.15419 3.408-0.9162 2.1557-1.3668 8.0654-3.0389 9.4695-2.6793 0.39706 0.10167 2.8144-0.87547 5.3718-2.1714s4.9834-2.248 5.3909-2.1156c0.40755 0.13235 2.6309-0.54814 4.9407-1.5122 2.3098-0.96407 5.0434-2.0939 6.0747-2.5107 1.0312-0.41679 3.5625-1.0261 5.625-1.354s5.345-1.413 7.2945-2.4112c1.9495-0.99825 4.1538-1.815 4.8984-1.815s4.2121-1.3127 7.7055-2.9172c3.4934-1.6044 7.1954-3.2909 8.2266-3.7478s2.5078-1.2172 3.2812-1.6896 3.9375-2.0281 7.0312-3.457 7.6475-3.7855 10.119-5.2369c4.8764-2.8633 9.1876-3.2796 16.599-1.603 2.3203 0.52489 5.4844 1.1923 7.0312 1.4832 1.5469 0.29087 3.2344 0.84248 3.75 1.2258 1.643 1.2214 18.194 4.4207 26.719 5.1647 3.3516 0.29251 9.0469 0.94817 12.656 1.457 5.9413 0.83761 12.15 1.4851 30.469 3.1775 3.3516 0.30963 9.2578 0.97132 13.125 1.4704 3.8672 0.4991 9.1406 1.0603 11.719 1.247 2.5781 0.18676 5.3203 0.57703 6.0938 0.86727 1.2852 0.4823 7.6553 0.92896 31.406 2.2022 4.6406 0.24877 10.125 0.6347 12.188 0.8576s5.8594 0.62372 8.4375 0.89068 11.648 0.66266 20.156 0.87933c16.719 0.42579 42.567 2.1219 45.256 2.9696 0.91402 0.28821 8.5078 0.71809 16.875 0.95528s18.799 0.69988 23.182 1.0282c7.1487 0.53553 16.005 0.58766 58.666 0.34534l12.26-0.06964-0.42622-2.904c-0.23443-1.5972 0.0172-4.4449 0.55913-6.3281 0.54194-1.8832 1.6843-6.5881 2.5386-10.455 0.85429-3.8672 2.3156-9.3516 3.2472-12.188 1.8546-5.6452 1.8965-7.8508 0.20779-10.954-3.3653-6.1842 3.1533-18.972 8.6047-16.88 0.71638 0.2749 1.7305 0.071829 2.2536-0.45127 5.1437-5.1437 14.241 12.613 9.1822 17.921-2.0878 2.1906-2.2026 2.7552-1.344 6.6138 0.5163 2.3203 1.3326 6.0178 1.814 8.2166s0.87523 6.2872 0.87523 9.0853 0.42187 5.3482 0.9375 5.6669c0.51562 0.31867 0.9375 3.8928 0.9375 7.9426v7.3631l14.297 0.26344c7.8633 0.1449 18.516 0.08514 23.672-0.13279 11.956-0.50532 64.986-0.55274 75.469-0.06748 4.3828 0.20288 16.617 0.06525 27.188-0.30585 23.938-0.84039 49.802-0.65772 51.072 0.36071 0.52745 0.4228 9.8184 1.033 20.646 1.3561 10.828 0.32305 20.531 0.61682 21.562 0.65283 10.307 0.35986 20.078 9.5381 20.367 19.13 0.21782 7.2398-0.57139 20.268-1.2533 20.69-0.41847 0.25863-0.36554 1.51 0.11762 2.7808 0.55522 1.4604 0.5396 3.2019-0.0425 4.7328-0.50651 1.3322-1.589 5.3593-2.4054 8.9491-1.5929 7.0035-4.8308 10.412-10.909 11.484-1.4095 0.24862-2.985 0.71306-3.5012 1.0321-0.89528 0.55332-40.66 0.61661-53.467 0.0851-3.3516-0.1391-13.898-0.57692-23.438-0.97295-9.5391-0.39602-17.78-1.0685-18.313-1.4944-0.53327-0.42589-2.6282-0.40027-4.6554 0.0569-2.0272 0.4572-4.1222 0.47544-4.6554 0.0405-0.53326-0.43494-4.8368-0.8391-9.5635-0.89816-4.7266-0.0591-10.522-0.46747-12.877-0.90761s-8.056-0.87659-12.667-0.96988c-4.6108-0.0933-9.5738-0.50322-11.029-0.91096-1.455-0.40774-12.135-0.84279-23.734-0.9668-11.599-0.124-21.513-0.5464-22.031-0.93868-0.51846-0.39226-5.1614-0.80212-10.318-0.91079-5.1562-0.10866-11.906-0.57457-15-1.0354-10.711-1.5953-16.492-1.8155-16.884-0.64315-0.2039 0.6103-0.83177 5.5393-1.3953 10.953-0.5635 5.4141-1.5707 13.353-2.2383 17.643-1.1384 7.3149-1.1014 7.9416 0.5961 10.1 6.4064 8.1444-5.4181 19.589-15.884 15.374zm11.48-6.7879c0.69469-1.5211 0.59459-3.4167-0.35896-6.7969-0.72729-2.5781-1.2887-5.8477-1.2476-7.2656 0.0818-2.8221-0.41668-3.029-4.0075-1.6638-1.6662 0.63347-2.4048 1.6105-2.4048 3.1809 0 1.2467-0.63281 2.5095-1.4062 2.8063-2.0953 0.80404-1.9151 8.9118 0.23437 10.543 2.7764 2.1076 8.0724 1.6441 9.1906-0.80433zm-11.276-29.062c0.38033-4.7695 0.78436-15 0.89784-22.734 0.11349-7.7344 0.50533-17.438 0.87078-21.562 0.48115-5.4309 0.38967-7.0694-0.33159-5.939-0.81339 1.2747-2.3505 13.506-2.7493 21.877-0.11017 2.3121-0.54832 4.1686-1.5108 6.4016-0.40637 0.94277-0.38877 6.849 0.0391 13.125 0.42789 6.276 0.77047 12.782 0.7613 14.458-0.0355 6.5049 1.3663 2.6063 2.0227-5.625zm10.634-3.0186c1.6863-1.6492 0.45623-3.5415-1.8304-2.8157-1.1426 0.36264-1.8094 0.12069-1.8328-0.66499-0.0325-1.0936-2.7758 4.3783-2.7758 5.5367 0 0.85436 5.142-0.78749 6.439-2.056zm1.1915-7.978c2.5977-2.1784 1.2847-3.7298-3.1774-3.7547-2.2428-0.0125-2.5781 0.35149-2.5781 2.7982 0 3.4014 2.3703 3.7953 5.7555 0.95655zm-124.35-6.1708c34.85-0.40346 77.059-2.3418 79.114-3.6332 0.31555-0.19834 0.57374-5.988 0.57374-12.866v-12.505l-37.031-0.04677c-45.118-0.05698-101.59-1.122-127.5-2.4047-10.57-0.52322-29.085-1.1456-41.144-1.383-12.059-0.23745-22.307-0.66766-22.773-0.95602-0.46657-0.28836-7.6863-0.476-16.044-0.41698-8.3576 0.05902-24.055-0.31441-34.883-0.82984-10.828-0.51544-33.188-1.2277-49.688-1.5828-16.5-0.35512-32.953-0.71368-36.562-0.79679-48.092-1.1074-95.021-0.25964-103.59 1.8715-3.5651 0.88625-10.265 1.2231-21.713 1.0915-9.1064-0.10467-16.359 0.13044-16.117 0.52248 0.24229 0.39203 1.9977 0.73116 3.9008 0.75361 3.9168 0.04622 8.0575 0.88765 17.523 3.5608 11.676 3.2975 24.305 6.5674 27.188 7.0394 1.5469 0.25327 5.3438 1.2974 8.4375 2.3202s7.5234 2.1404 9.8438 2.4835c2.3203 0.34309 5.4844 1.0107 7.0312 1.4836 4.4051 1.3468 21.592 4.0045 32.115 4.9661 3.2255 0.29477 7.4442 0.94653 9.375 1.4484 5.2177 1.3561 20.711 3.0128 27.034 2.8907 3.0463-0.0588 7.3924 0.18189 9.6579 0.53482 3.2952 0.51334 4.2913 0.3342 4.9795-0.89559 0.47318-0.84551 1.2631-1.2883 1.7555-0.98404 0.49235 0.30428 0.65246 0.94596 0.3558 1.426-0.29665 0.47999 0.50572 0.87272 1.783 0.87272s2.9437 0.23842 3.7031 0.52984c0.78729 0.30211 2.8485-0.75887 4.7957-2.4685 3.5169-3.0879 5.8054-3.1653 3.0337-0.10262-2.8539 3.1535-0.19272 3.9132 5.4029 1.5424 1.4502-0.61445 1.6855-0.45681 1.2013 0.80491-0.74314 1.9366 3.8666 2.2505 5.8313 0.39713 0.99512-0.93879 1.3317-0.92674 1.6921 0.0606 1.5308 4.1935 11.478 0.74138 11.51-3.9945 4e-3 -0.54339 1.6705-2.6755 3.704-4.738s3.718-4.2773 3.7433-4.9219c0.0588-1.499 1.921-1.5478 1.921-0.0503 0 1.2521-3.9774 7.4698-7.0789 11.066-3.7994 4.4055-3.0292 8.9566 0.95598 5.6492 0.77688-0.64476 1.8699-0.79537 2.5662-0.35362 1.596 1.0125 1.2991 0.99764 35.27 1.7666l29.37 0.66479 3.2086-3.1099c1.7647-1.7104 3.2098-3.5544 3.2113-4.0978 2e-3 -0.54338 1.2696-1.8317 2.818-2.863 1.5484-1.0312 3.0225-2.5198 3.2758-3.3079 0.64387-2.0033 11.541-12.648 12.236-11.953 1.2529 1.2529-3.5482 7.8056-14.114 19.263l-5.625 6.0998 4.4162-0.47848c2.4289-0.26316 4.6421-0.25257 4.9182 0.0235 2.2602 2.2602 6.1841 0.88576 10.189-3.569 2.3101-2.5694 4.6631-4.6716 5.2289-4.6716 1.6035 0 1.2488 0.80432-1.7795 4.0352-1.5445 1.6478-2.81 3.4179-2.8124 3.9335-5e-3 1.1415 14.936 1.2792 16.677 0.15366 0.68234-0.44094 1.7093-0.37192 2.3475 0.15778 2.0916 1.7358 10.218 1.7761 114.56 0.56809zm125.92-2.5202c0.26654-2.3165 5e-3 -2.5781-2.5781-2.5781-1.5811 0-2.8748-0.42187-2.8748-0.9375 0-0.51562 1.2656-0.9375 2.8125-0.9375h2.8125l0.19641-22.266c0.21314-24.163 0.21927-23.054-0.22933-41.484-0.26771-10.998-0.83266-16.236-3.41-31.615-0.42781-2.5529-0.14715-3.1853 1.8097-4.0768 2.2064-1.0053 2.6402-3.3832 1.7278-9.4703-0.34789-2.3209-4.999-6.1717-6.8993-5.7121-6.3195 1.5286-7.9829 8.9274-3.1804 14.147 1.7053 1.8534 2.034 3.4626 2.2018 10.781 0.10849 4.7315 0.40768 11.134 0.66488 14.228 0.8293 9.9752 0.90523 55.842 0.11534 69.674l-0.7666 13.424 3.6505-0.299c3.1972-0.26188 3.6873-0.61914 3.9471-2.8771zm-39.825-11.939c0.85797-3.086 1.56-7.3047 1.56-9.375s0.42187-3.7642 0.9375-3.7642c0.51562 0 0.9375 1.8735 0.9375 4.1634s0.45606 4.4453 1.0135 4.7898c0.5574 0.34449 0.76679 1.6092 0.46531 2.8104-0.3015 1.2012-0.12395 2.4462 0.39453 2.7666 1.2071 0.746 2.4018-2.4371 3.2544-8.6708 1.1679-8.5388 2.6856-6.0064 2.8026 4.6764 0.0556 5.0755 1.8243 4.77 2.4208-0.41822 0.86618-7.5336 2.7659-7.4388 3.4974 0.17435 0.50126 5.2168 2.076 6.4559 2.1112 1.6612 0.0123-1.6758 0.45176-4.7344 0.97657-6.7969 0.52483-2.0625 1.0502-11.027 1.1675-19.922l0.21328-16.172-15.018-0.09785c-8.2599-0.05382-18.393-0.23918-22.518-0.41192s-13.195-0.5543-20.156-0.84791-20.672-0.74382-30.469-1.0005c-19.788-0.51836-32.845-1.0074-46.875-1.7558-8.0166-0.42759-8.5736-0.37189-3.8444 0.38446 6.2308 0.99648 7.2092 1.5402 5.2234 2.9027-1.6705 1.1463-14.151 0.47517-53.41-2.872-5.9297-0.50555-15.844-1.321-22.031-1.8122s-19.266-1.8109-29.062-2.9327c-16.228-1.8583-38.569-3.3116-35.156-2.2871 0.77344 0.23217 5.4141 0.86227 10.312 1.4002 33.23 3.6493 40.353 4.5574 41.549 5.2967 0.57836 0.35744 5.7662 0.69035 11.529 0.73979 7.2299 0.06204 10.943 0.47671 11.981 1.338 2.4564 2.0386 1.7697 3.1579-1.543 2.5153-1.6758-0.32503-5.107-0.56043-7.625-0.52311-4.3852 0.065-13.97-0.85437-30.109-2.888-10.331-1.3018-23.782-2.1306-33.281-2.0506-31.135 0.26196-39.816 0.08108-40.386-0.84146-0.40598-0.65688-3.0004-0.78992-7.5384-0.38657-3.8057 0.33825-11.56 0.15025-17.232-0.41778-5.6719-0.56803-13.266-1.1878-16.875-1.3773-3.6094-0.18947-9.322-0.64381-12.695-1.0096-5.1911-0.56306-6.8098-0.35649-10.547 1.3459-6.0448 2.7537-5.5422 3.8081 1.9136 4.0139 8.287 0.22883 10.627 0.36056 20.526 1.1557 4.5663 0.36676 10.834 0.85179 13.927 1.0778 7.2695 0.53116 44.074 2.276 48.047 2.2778 1.6758 7.77e-4 3.0469 0.37943 3.0469 0.84145 0 1.4646-26.573 2.2642-40.146 1.208-7.0528-0.54881-19.151-1.2376-26.886-1.5305-17.724-0.67143-15.838-0.53918-22.969-1.61-10.442-1.5678-13.745-1.6156-16.401-0.23739-1.4098 0.73139-3.429 1.3298-4.4873 1.3298-3.7471 0-0.72435 1.1365 3.7203 1.3988 27.572 1.627 30.613 2.0983 27.481 4.2587-0.89808 0.61946-5.4716 0.75891-12.656 0.3859-6.1875-0.32125-13.676-0.63352-16.641-0.69395-3.7296-0.07601-5.3906-0.4838-5.3906-1.3234 0-0.66744-0.42188-1.2135-0.9375-1.2135-0.51563 0-0.9375 0.36633-0.9375 0.81406 0 0.77606-6.1341 2.129-9.6094 2.1195-0.90234-0.0024-1.6406 0.41059-1.6406 0.91793s1.8179 0.82833 4.0398 0.71332 4.5834 0.12682 5.2477 0.5374c0.66433 0.41058 5.7842 0.67368 11.377 0.58465 5.5932-0.08902 11.775 0.25555 13.737 0.76573s10.429 1.1448 18.817 1.4102c8.3872 0.26545 15.77 0.81976 16.406 1.2318 0.63627 0.41204 6.6412 0.62444 13.344 0.47201 12.33-0.2804 16.669 0.55921 13.594 2.6306-1.6282 1.0967-17.146 1.0368-26.719-0.10321-18.034-2.1476-93.782-3.2852-100.68-1.5121-5.8451 1.5023 14.49 2.5431 49.687 2.5431 9.6857 0 25.966 0.40083 36.177 0.89074 10.212 0.48991 29.325 1.1444 42.473 1.4544s26.227 0.72783 29.062 0.92848c2.8359 0.20065 15.703 0.40674 28.594 0.45799s38.203 0.50382 56.25 1.0057c91.223 2.537 111.41 2.987 142.97 3.1871 41.425 0.26259 40.111-0.14829 37.649 11.773-2.3807 11.526-0.74688 17.533 2.0413 7.5043zm106.15 1.3225c1.7564-1.4244 1.7381-1.4575-0.52394-0.9503-1.2891 0.28904-2.896 0.53129-3.571 0.53833-0.67496 7e-3 -0.96646 0.43468-0.64779 0.9503 0.83961 1.3585 2.6583 1.1521 4.7427-0.53833zm-10.836-0.39917c0-0.51562-1.2905-0.9375-2.8678-0.9375-1.6732 0-2.6265 0.39054-2.2884 0.9375 0.31867 0.51563 1.6092 0.9375 2.8678 0.9375s2.2884-0.42187 2.2884-0.9375zm26.719 0c-2.5773-1.1075-4.0575-1.1075-2.3438 0 0.77344 0.49984 2.0391 0.8856 2.8125 0.85725 0.92724-0.0339 0.76757-0.32599-0.46875-0.85725zm6.7969 0.29125c-0.90234-0.2358-2.3789-0.2358-3.2812 0-0.90234 0.23581-0.16406 0.42875 1.6406 0.42875s2.543-0.19294 1.6406-0.42875zm105.35-3.0133c-0.71058-0.45008-1.0051-1.2825-0.65443-1.8499 0.40089-0.64865 0.0974-0.82433-0.81739-0.47327-1.754 0.67305-1.8903 1.9008-0.28307 2.5493 1.9649 0.79287 3.1272 0.64308 1.7549-0.22615zm-181.11-1.9655c2.2061 0 3.8116-0.44577 3.8116-1.0583 0-1.022-8.6389-0.4448-10.493 0.70109-1.6788 1.0376-0.70007 2.2677 1.0564 1.3277 0.99735-0.53376 3.5286-0.97048 5.625-0.97048zm127.34-4.2444c11.36-3.0195 11.362-3.0065-1.2505-9.3083-10.07-5.0314-15.704-5.4357-20.724-1.4872-1.339 1.0532-3.3674 1.9149-4.5077 1.9149-7.5941 0-9.3456 4.2139-2.7879 6.7069 2.5549 0.97129 5.7 2.2708 6.989 2.8877 6.4269 3.076 8.2403 3.0179 22.281-0.71409zm108.03 1.9509c1.2891-0.12436 3.9258-0.29201 5.8594-0.37257l3.5156-0.14646v-5.7253c0-5.1052-0.17769-5.6464-1.6406-4.9968-0.90234 0.40068-3.5391 0.87415-5.8594 1.0521s-9.7031 0.79476-16.406 1.3706c-18.199 1.5634-18.877 1.5899-20.171 0.79017-2.9318-1.812 4.9564-7.4908 10.405-7.4908 0.9885 0 1.7973-0.38211 1.7973-0.84913 0-0.71742-22.377-0.33198-23.254 0.40054-0.1571 0.13122 1.5002 0.81317 3.6828 1.5155 9.0917 2.9253 4.4058 5.6556-9.5572 5.5686-9.7549-0.06075-14.888 1.4739-6.0276 1.8021 7.0044 0.25942 8.3015 0.26231 11.719 0.02606 1.8047-0.12476 6.8672 0.19935 11.25 0.72024 4.8367 0.57485 9.9557 0.62509 13.024 0.12783 16.414-2.6601 29.164-1.1538 29.164 3.4457 0 1.3578-8.1318 1.6207-8.9545 0.28957-0.71705-1.1602-6.7253-1.0972-7.4517 0.0781-0.31867 0.51563-2.242 0.9375-4.2741 0.9375-3.541 0-4.9806 1.2333-2.5228 2.1612 1.0093 0.38102 7.4416 0.0924 15.703-0.70462zm-158.36-5.2065c0.98907 0 1.7983-0.39243 1.7983-0.87205 0-0.92487-5.4248 0.30308-6.4554 1.4612-0.31669 0.35589 0.19698 0.3689 1.1415 0.02897 0.94452-0.33996 2.5266-0.61812 3.5156-0.61812zm-17.889-0.9375c0-1.2059-11.259-1.2059-13.125 0-0.97493 0.63006 0.82219 0.91319 5.8594 0.92315 4.2283 0.0084 7.2656-0.37756 7.2656-0.92315zm-43.125-1.9742c0-0.46107-1.0547-0.83832-2.3438-0.83832-3.0542 0-3.0537 1.3652 6.7e-4 1.5414 1.2887 0.07434 2.3431-0.24204 2.3431-0.70312zm23.906 0.07753c-1.0312-0.43122-3.5022-0.8137-5.4909-0.84994-2.8138-0.05128-3.4962-0.37787-3.0763-1.4721 0.70824-1.8457-0.47402-1.7765-4.0071 0.23438-4.2644 2.4271-3.7257 2.6867 5.7775 2.7835 5.4408 0.05541 7.9733-0.20383 6.7969-0.69576zm126.33-1.607c-2.707-0.18938-7.1367-0.18938-9.8438 0-2.707 0.18938-0.49218 0.34432 4.9219 0.34432s7.6289-0.15495 4.9219-0.34432zm-164.77-2.3026c0.58735-0.54794-0.61096-0.76495-3.2084-0.58103-2.2802 0.16146-4.312 0.7989-4.5149 1.4165-0.43257 1.3162 6.1841 0.60044 7.7233-0.8355zm38.906-2.7169c1.0583-0.74841 1.1163-1.1122 0.23437-1.47-0.64453-0.26153-1.1719-1.487-1.1719-2.7233 0-2.8979-2.3204-3.4867-10.801-2.7406-11.932 1.0499-25.263 1.2603-26.282 0.41484-1.3842-1.1488-8.1539-0.6648-8.5783 0.61331-0.20322 0.61211 1.4615 1.2874 4.0474 1.6419 2.416 0.33114 4.9002 1.0234 5.5207 1.5383 1.7578 1.4588 12.275 2.3102 13.049 1.0564 0.35947-0.58163 1.6635-1.0575 2.8979-1.0575s3.3225-0.49123 4.6402-1.0916c1.862-0.84838 2.8994-0.82218 4.6553 0.1176 1.2427 0.66508 3.5594 1.0184 5.1482 0.78525 2.5205-0.36993 2.8888-0.14589 2.8888 1.7574 0 2.3281 1.4586 2.7786 3.75 1.1582zm203.73-4.6594c-0.34554-4.3682-3.2227-11.217-5.5094-13.115-1.1936-0.9906-4.6477-1.2356-14.812-1.0505-7.376 0.13429-15.335-0.22568-17.943-0.81157-6.492-1.4582-34.46-2.8445-35.578-1.7635-0.54438 0.52619 1.2521 0.86086 4.6209 0.86086 5.6543 0 11.738 1.6001 11.738 3.0872 0 1.5809-23.413-0.37323-25.781-2.1518-2.2018-1.6535-11.719-2.0752-11.719-0.51922 0 1.0178-0.81537 1.464-2.5781 1.4107-1.418-0.04283-4.8984 0.10616-7.7344 0.3311-3.449 0.27357-5.8673-0.03142-7.3038-0.92114-1.258-0.77918-4.1704-1.2614-7.0312-1.1643-2.686 0.09123-6.5712-0.09937-8.6337-0.42353-2.0625-0.32417-3.2227-0.34266-2.5781-0.04111 1.8199 0.85148 1.3808 2.267-0.70312 2.267-1.0417 0-1.875-0.625-1.875-1.4062 0-1.051-1.125-1.4092-4.4531-1.418-2.4492-0.0065-10.377-0.27295-17.618-0.59223-12.169-0.53659-42.017 0.52218-37.226 1.3204 7.3985 1.2326-1.1297 1.93-21.684 1.7734-18.363-0.13996-23.694 0.07899-23.356 0.95932 0.31745 0.82728-1.0546 1.0897-4.9939 0.95513-4.9404-0.16877-5.4854-0.3975-6.0272-2.5293-0.44875-1.7659-0.68988-1.1329-0.97809 2.5676-0.35608 4.5721-0.25299 4.8679 1.4925 4.2816 2.6243-0.88138 13.875-0.34423 14.953 0.7139 1.3928 1.3674 5.3544 1.0258 6.5152-0.56165 1.9023-2.6015 16.53-3.0337 18.755-0.55415 0.98225 1.0946 2.3912 1.9901 3.131 1.9901s2.0455 0.81848 2.9016 1.8188c2.3763 2.7768 7.1019 2.9603 7.4811 0.29054 0.25485-1.7944-0.13008-2.1094-2.5781-2.1094-1.5827 0-2.8777-0.42188-2.8777-0.9375s0.84375-0.9375 1.875-0.9375 1.875-0.42188 1.875-0.9375 2.2954-0.9375 5.1009-0.9375 5.3485-0.40065 5.6512-0.89033c0.58169-0.94119 6.1036-0.74914 7.752 0.2696 0.53481 0.33053 3.5233 0.53066 6.6411 0.44473 3.258-0.08979 6.2447 0.3218 7.0231 0.96787 1.8656 1.5483 19.588 1.2624 24.276-0.39158 2.8524-1.0064 5.2776-1.077 11.327-0.32973 4.2337 0.52295 14.448 1.1486 22.698 1.3903s17.337 0.85935 20.193 1.3725c4.0162 0.72168 6.2465 0.62147 9.8438-0.44228 4.9738-1.4708 15.107-1.2159 16.745 0.42118 0.51575 0.51574 1.908 0.93771 3.094 0.93771 1.9107 0 3.2309 1.7674 1.4531 1.9454-7.6512 0.76604-12.999 1.036-17.578 0.88744-34.882-1.132-60.627 0.33033-40.826 2.3189 6.2005 0.62269 8.14 1.5736 5.4355 2.6649-0.71805 0.28974-0.55457 0.50152 0.42217 0.54688 0.87672 0.04071 1.9732-0.60341 2.4365-1.4314 0.86403-1.5439 17.415-1.973 26.907-0.69745 4.3237 0.581 4.5493 0.57874 16.406-0.16422 4.8984-0.30694 9.75-0.92691 10.781-1.3777 1.0312-0.45081 4.1953-1.0443 7.0312-1.319s7.3096-0.77196 9.9414-1.1052c7.1381-0.90376 11.455 1.8497 6.4648 4.1233-4.3991 2.0044-2.3455 2.6021 9.5052 2.7666 6.5169 0.09045 12.072 0.3871 12.344 0.65923 2.3204 2.3204 5.4521 0.31193 5.1654-3.3128zm-141.47-1.2327c-0.47583-1.24-6.1723-2.6378-10.362-2.5427-1.1056 0.02508-2.5283-0.57879-3.1617-1.3419-0.84782-1.0216-3.2085-1.3875-8.9502-1.3875-4.2892 0-8.0626-0.4271-8.3852-0.94911-0.37209-0.60204-1.1548-0.63111-2.1405-0.07949-0.93546 0.52351-2.186 0.5313-3.1422 0.01958-1.8513-0.9908-12.053-0.73191-12.053 0.3059-2.5e-4 0.38672 0.68402 0.70312 1.5206 0.70312 1.2565 0 1.3148 0.24856 0.33515 1.4289-1.9454 2.3441 1.3201 2.7115 32.671 3.6758 6.357 0.19554 11.806 0.60352 12.109 0.90663 1.0361 1.0361 2.0555 0.55302 1.5596-0.73918zm-527.26-21.021c0-0.41204 1.582-1.2837 3.5156-1.937 1.9336-0.65329 4.3594-1.5592 5.3906-2.0132 4.8434-2.132 16.651-6.5507 17.504-6.5507 0.52598 0 2.2853-0.94922 3.9096-2.1094 4.6438-3.3168 8.9097-5.4087 11.183-5.4841 2.9782-0.09875 27.893 3.0268 37.715 4.7315 6.143 1.0661 10.448 1.279 9.6463 0.47705-0.28048-0.28049-1.7219-0.7041-3.2031-0.94136-3.9064-0.62573-15.664-3.1825-23.787-5.1728-14.774-3.6198-24.375-4.7665-24.375-2.9111 0 0.42748-2.1092 1.7651-4.687 2.9725-2.5779 1.2074-5.3854 2.967-6.2391 3.9103-0.85361 0.94323-2.0368 1.715-2.6294 1.715-0.59257 0-2.953 1.1707-5.2453 2.6016-2.2924 1.4309-7.332 4.0187-11.199 5.7507-7.0224 3.1451-10.903 5.7102-8.6384 5.7102 0.62612 0 1.1384-0.33712 1.1384-0.74917zm104.95-3.9113c-0.80199-0.4694-3.5442-1.0735-6.0938-1.3424-2.5496-0.26892-5.4794-0.70553-6.5106-0.97023s-4.8281-0.67066-8.4375-0.90212-8.25-0.65444-10.312-0.93994c-2.0625-0.2855-6.0703-0.81711-8.9062-1.1814-2.8359-0.36424-6-0.77719-7.0312-0.91767s-4.1953-0.52089-7.0312-0.84536-6.9555-1.246-9.1546-2.0479c-3.569-1.3014-4.173-1.3058-5.625-0.04133-0.89467 0.77913-2.8912 1.8228-4.4367 2.3194l-2.81 0.90275 2.3411 1.2529c1.3543 0.72481 5.8387 1.3261 10.639 1.4266 4.5638 0.0955 8.5716 0.57744 8.9064 1.071 0.34371 0.50677 7.046 0.90341 15.399 0.9113 10.053 0.0095 15.143 0.36642 15.891 1.1144 0.72868 0.72867 5.0755 1.0908 12.866 1.072 7.527-0.01823 11.24-0.33597 10.307-0.88196zm13.177-3.777c0-0.51562-1.793-0.87763-3.9844-0.80446l-3.9844 0.13304 3.75 0.67143c2.0625 0.36928 3.8555 0.73129 3.9844 0.80446 0.12891 0.07317 0.23438-0.28884 0.23438-0.80446zm-11.592-1.6702c-0.24905-0.40296-1.856-0.7902-3.571-0.86054-2.8408-0.11651-2.9096-0.05965-0.77439 0.63921 3.1364 1.0265 4.8984 1.1163 4.3454 0.22134z"/>
</svg>
