<?xml version="1.0" encoding="UTF-8"?>
<svg viewBox="0 0 640 480" xmlns="http://www.w3.org/2000/svg">
 <g transform="rotate(-55.497 336.89 234.46)">
  <path d="m480.45 345.7c-26.846-88.76-93.373-65.09-93.373-65.09s-52.523-178.7-64.194-227.22c96.876-21.303 50.188-127.81 50.188-127.81l-218.26 35.504c33.847 144.38 127.22 106.51 127.22 106.51s46.687 172.78 64.195 229.59c-82.87 43.788-50.188 125.45-50.188 125.45l37.349 120.71 185.58-73.375c0 0.001343-11.673-35.503-38.519-124.26zm-254.44-354.92l108.55-21.303s17.508 39.055-36.182 52.073-64.195-15.384-72.365-30.77z" stroke="#000"/>
 </g>
</svg>
