<?xml version="1.0" encoding="UTF-8"?>
<svg viewBox="0 0 500 500" xmlns="http://www.w3.org/2000/svg">
 <path d="m344.28 334.91c-20.176-65.79-70.175-48.245-70.175-48.245s-39.474-132.46-48.245-168.42c72.807-15.79 37.719-94.737 37.719-94.737l-164.04 26.316c25.438 107.02 95.614 78.947 95.614 78.947s35.088 128.07 48.246 170.18c-62.281 32.456-37.719 92.982-37.719 92.982l28.07 89.474 139.47-54.386c0 0.001007-8.773-26.315-28.949-92.105zm-191.23-263.07l81.579-15.79s13.158 28.948-27.193 38.597-48.246-11.403-54.386-22.807z" stroke="#000"/>
 <path d="m340.32 336.24c-18.753-61.15-69.227-42.843-69.227-42.843s-43.69-143.12-51.843-176.54c76.661-17.695 39.059-89.057 39.059-89.057l-152.47 26.46c23.645 99.472 91.872 70.38 91.872 70.38s38.614 139.04 50.844 178.18c-64.049 31.433-37.06 86.426-37.06 86.426l26.091 83.165 129.64-50.551c9.77e-4 0.001984-8.154-24.458-26.907-85.61zm-193.74-266.52s72.773-12.669 88.826-16.676c6.753 18.042 9.229 38.907-28.275 47.875-37.505 8.968-55.076-11.412-60.551-31.199z" fill="#fff" stroke="#000" stroke-width=".929"/>
 <path d="m249.18 446.51s-25.316-100.33-12.158-109.1 48.632-27.193 59.158-24.562c0 7.895 4.122 31.053 56.754 102.1-6.141-21.93-32.192-96.843-32.192-96.843s-7.019-24.562-35.966-14.035-60.035 20.176-57.403 42.105 17.421 88.93 21.807 100.33z" fill="#fff"/>
 <g fill="#fff">
  <path d="m134 54l-22.667 4.667s7.333 32.667 25.333 48.667c-4.666-10.667-29.999-44.667-2.666-53.334z"/>
  <polygon points="203.33 128 251.33 297.33 255.33 296 206.67 126"/>
  <path d="m216 341s-8 14 18 103c-18-53-30-86-18-103z"/>
 </g>
</svg>
