<?xml version="1.0" encoding="UTF-8"?>
<svg viewBox="0 0 1096.7288 496.93369" xmlns="http://www.w3.org/2000/svg">
 <g transform="translate(143.85 -481.19)">
  <path d="m-58.33 976.53c-14.642-21.116-32.434-44.232-42.88-69.191-19.172-34.376-30.492-73.165-37.352-111.9-1.5138-21.41-8.4944-67.071-3.5281-97.239 6.4691-63.084 24.438-131.07 77.431-171.11 39.328-34.013 93.047-49.568 144.84-45.164 71.399 1.2634 143.24-2.6359 214.37 2.9525 55.302 12.233 104.05 49.657 129.64 100.14 8.837 28.401 34.138 26.925 54.69 19.95 8.0776-41.216 52.853-37.236 71.59-7.837 10.178 5.8311 48.794 11.053 18.454 15.977-27.731 0.15202-44.989-37.464-75.975-15.823-6.8593 37.89 0.74613 77.098-1.1944 116.04-15.577 25.449 29.74 59.642 30.042 42.095-24.05-6.8169-23.54-18.184 0-8.9378 34.664-9.8164 15.933-65.383 19.889-94.432-18.372-26.99 33.537-10.786 5.963-10.286-3.9374 28.348 1.3857 64.797 32.382 56.206-35.262 10.4 11.751 9.9321 1.4389 15.537-19.108 14.018 34.444 6.991 44.826 7.8369 19.666 4.6526 48.385-4.1839 58.607 5-16.352-1.7856-70.8 3.1184-27.107 6 20.316-3.6446 36.649 1.8041 56.657-2.4351-12.148-7.7333-41.269-6.1964-7.5554-6.4844 27.755 4.4737 29.963 1.1052 61 1.0048 36.439 13.209 32.987-41.237 30.017-64.559-0.4289-22.144-5.0572-47.426-25.114-51.206-18.548 7.6774-59.943 4.3626-82.602 2.1448-25.386-0.068-69.291 4.7809-86.224-0.39403-28.596 11.072-20.556-15.707 4.878-6.2936 57.179-0.79991 116.58 0.72214 172.44-1.7768 25.515 0.82854 41.599-32.125 68.47-26.689-5.8168 10.192-58.211 22.196-33.375 41.688 20.836 31.896 6.5389 76.445 15.113 105.55-19.85-12.84-13.077 38.538 1.7059 21.005-9.1957-15.049 37.336 8.3836 51.92 13.403 8.0724-8.5497 19.023-11.036 2.2582-21.702 30.526 12.604 13.535-1.7861-0.0398-17.044 19.193 10.078 17.228 11.576 26.453-3.713 11.68-16.16 4.7067-5.8564 15.995-6.5305 4.0531-8.8447-3.2489-19.909-13.032-17.796 10.17-16.427 22.99 28.101 23.09-0.17294-2.9917-10.814 2.2474-22.487-22.413-21.755-14.793-13.405 0.2768-31.713-7.307-48.966 11.381 16.063 13.61 17.676 8.1537 24.525 32.763 6.0339-7.0306-33.824-13.082-46.868-8.922-18.807-71.54-21.511-23.161-24.995 24.473-0.0204 47.323 24.22 54.544 38.057 18.237 39.568 26.259 96.196-3.4356 130.25-6.3278 10.206-34.432 35.229-55.8 32.218-12.042 2.1009-27.5-5.2938-47.532-12.738-22.149-13.395-45.183-12.671-67.51-16.356-28.702-1.1559-49.014-2.9262-76.813-1.2714-38.016 0.50282-74.722-1.1661-111.75 1.8905-11.135-12.27-19.527 11.817-38.458 20.012-25.905 25.247-44.838-22.162-74.205-20.549-14.782-9.2368-19.629 2.243-45.772 2.5798-24.448 11.358-39.374 2.2049-58.413 6.9774-32.776-6.8021-45.86-7.9562-78.835-11.366-23.074-3.0295-43.666-4.7269-67.749-8.6336-25.568-2.9105-54.487-7.9052-76.525-8.014-31.47-8e-3 -70.873 7.9014-94.323 34.342-28.974 28.553-32.398 71.614-48.347 107.65-16.112 36.268-23.4 78.128-45.418 110.8l-2.0216-0.15422-2.0115-1.4443zm-4.6559-13.442c-2.306-5.257-1.7454 7.9121 0 0zm10.572-4.7425c10.837-25.663 20.416-55.061 31.676-84.006 11.122-30.615 20.846-65.1 32.827-93.039 10.877-21.731 19.231-29.364 41.14-45.961 18.855-10.611 40.266-19.308 61.324-19.692 32.032-2.2442 65.992 5.1463 95.518 8.3822 32.97 3.883 63.984 8.1862 97.455 13.5 18.189 1.3534 49.828 1.0665 68.782 9.8101 11.416-16.135 59.245 1.237 53.747-29.042-4.4005-28.794 2.9578-52.329-1.4228-71.617 4.8672-16.119-6.6722-62.352-8.5942-19.591 10.024-17.794-19.954-72.525-16.168-26.228-1.2604 27.943 5.6968 92.081-1.4884 99.673-0.0225-44.369-0.45106-88.789-1.528-133.17-26.844-39.349-8.433 84.568-15.958 20.031 6.5869-22.439-12.556-75.029-16.244-28.776 7.7442-23.392-19.978-51.697-14.705-11.946 1.2287 16.764-1.4756 53.792-2.3084 16.32 6.1458-14.946-6.5161-69.097-14.469-32.543 2.7378 23.587-3.0296 34.442-2.4536 5.0322 10.167-37.35-24.672-27.657-15.6 3.8291 5.1289-17.283-16.5-58.838-16.376-17.163 0.19452 17.061-0.13049 48.323-2.7252 17.673 7.0263-16.985-8.9757-62.748-14.887-25.704 2.4217 31.659-6.586-36.125-18.339-17.478 10.662 29.269-18.401-23.608-16.01 12.378 0.25391 55.107 2.6435 110.49 2.1106 165.41-5.4516-26.719-2.8468-79.256-2.8952-115.71-5.0173-18.866 2.5978-47.014-4.1111-62.37-25.492-7.6899-6.0027 77.998-14.783 22.308 8.8907-34.875-48.477-26.165-30.529 9.1713 2.8019 18.864-1.7799 47.061-2.0362 11.838-5.12-13.458 11.026-48.134-12.746-43.004-5.9881 18.125-2.0832 50.28-5.6227 10.622-3.3848-33.068-11.537 7.4202-16.741 7.6237 8.8008-22.979-23.484-27.616-16.427-4.363-10.158-43.446-20.805 19.277-14.12 37.589 0.51133 41.944 1.6398 83.976 1.6799 125.86-6.3757-52.906-2.3462-109.05-4.4855-163.22-4.2261-22.484-5.5816-29.078-14.284-16.922-1.8703-1.8216-28.696 3.5483-16.943 27.307-0.31686 42.528 2.5726 85.109 1.0966 127.6-5.8196-38.683-1.5387-83.541-4.1219-124.54 20.85-36.881-44.877-45.069-30.607-6.098 2.9295 21.425-2.056 68.729-2.5923 19.137 5.4556-25.966-1.0524-52.581-17.832-37.908-4.8502-13.393-23.454 7.1062-28.093-4.0907-7.3787 15.355 3.3949 117.2-3.4934 94.049-7.0178-24.009 9.5741-78.119-9.3427-86.471-12.787 11.691-2.2326 28.51-13 3.5121-21.831 11.247-0.86177 69.01-10.714 72.748 1.6948-20.074-3.2339-99.148-15.785-44.521 0.62227 96.309 6.321 192.9 4.6428 289.15-6.9703-20.096-1.4563-78.497-4.0683-113.34 1.7477-49.541-3.4129-100.03-2.3891-150.28 4.6755-16.705-7.6092-56.615-13.579-19.971-0.49562 32.74-1.7968 8.3022-5.8444-6.7332-15.534 21.623 0.36121 57.771-5.1727 84.198 0.93853 50.462 2.6741 100.93 1.511 151.41-4.9213-74.099-0.03332-149.06-6.1681-222.97-18.042 2.8567-6.3825 60.134-12.852 14.123-25.595 20.982-1.9336 75.158-8.9557 108.07 1.7185 22.196-2.2836 46.861-2.2823 9.6176-4.1867-29 6.8788-83.022-8.4148-98-13.403 12.719 0.5508 54.231-14 28.5-12.998 20.407-8.9118 41.214-9.4838 67.589-18.537 7.4818-8.1648 64.212-11.014 84.723 4.5556 33.766 14.736 61.768 18.977 96.606 6.8956 27.526 17.39-10.675 13.487 25.533 0.33212 23.292 20.468 36.285 13.041 4.0492 1.8552-36.818-4.3433-85.274 0.97318-115.13 0.83653 49.618 1.5772 99.305 2.186 148.88 16.828 44.631 11.072-54.554 14.293 1.1798-4.4025 11.609 2.0469 45.54 18.338 36.577zm-6.7965-22.173c1.8641-9.0427 1.8144 10.787 0 0zm-0.90032-15.083c2.3862-23.915 3.1117 14.725 0 0zm-13.1-22.25c2.4793-5.269 2.4793 5.269 0 0zm25.1-6.4679c3.305-31.334 3.9209 25.307 0 0zm-25.659 1.6748c-2.9056-19.851 7.3366-13.392 1.4663 1.293l-1.4663-1.293zm13.377-6.2273c0.49114-19.357-3.0632-68.152 1.8522-75.122-0.55005 19.536 4.3845 76.789-1.8522 75.122zm-13.825-34.73c-1.7806-22.003 2.1497-68.399 2.2038-18.458 1.7915 15.015 0.32173 65.089-2.2038 18.458zm25.644 3.1135c-3.6532-17.504 3.2799-55.999 2.993-15.614 0.57539 2.6074-1.0326 36.007-2.993 15.614zm-55.961 3.0064c0.70542-23.241-4.0833-54.604 0.83598-73.156 1.6589 21.863 2.955 59.171-0.83598 73.156zm71.114 1.5872c-1.4152-9.6672 6.0103-1.5398 0 0zm0.20954-10.136c1.0172-14.652 7.3518-6.0079 0.90621 2.5933l-0.90621-2.5933zm16.191-41.075c3.6667-5.5666 1.2856 4.7873 0 0zm-32.191-6.9732c1.7118-16.116-1.6146-85.061 2.8494-31.597-0.65558 3.1224 2.537 51.54-2.8494 31.597zm-25.008-0.11334c-2.1285-72.185-2.5333-144.91-3.1586-217.16 4.843 35.134 1.5324 73.405 3.6508 109.36-0.36887 34.072 2.7548 83.719-0.49222 107.8zm13.008-15.219c1.9284-47.912 2.4353 49.863 0 0zm-62.519 9.809c-0.35047-15.246-2.8672-86.196 1.1467-64.5-0.80183 19.057 4.1861 54.222-1.1467 64.5zm106.14-6.2867c-3.2581-17.483 2.0707-86.518 3.1735-31.007-1.9286 7.2147 3.6875 28.99-3.1735 31.007zm-88.053-10.649c-2.7639-48.104 8.6514 1.9226 0 0zm105.21-12.564c-4.7516-49.094 8.1746-1.3219 0 0zm-89.044-1.5057c-3.7938-22.079 4.2589-36.021 2.1106-5.6677-0.27445-2.4444 0.10483 10.706-2.1106 5.6677zm-16.492-25.031c-3.1503-19.553 2.7283-36.049 2.099-6.3276 0.59246 9.7764-0.49352 29.785-2.099 6.3276zm119.76-2.2793c4.0509-22.986 5.2354 14.932 0 0zm-63.316-2.6843c-2.5871-16.286 1.1011-54.335 1.497-15-0.13135 0.3525 0.88664 24.052-1.497 15zm48.179-0.75c-0.77785-48.999 7.7 10.355 0 0zm-88.24-1.6746c-3.902-23.966 3.9565-45.133 1.6214-5.5167 0.06148-3.7136-0.03576 11.517-1.6214 5.5167zm72.043 8e-3c-4.0162-17.154 8.8263 3.4454 0 0zm48.644-8.82c4.0631-20.647 2.9423 18.908 0 0zm321.69 1.1417c2.1948-14.91 7.6503 5.6805 0 0zm17-1.5718c2.9045-11.373 4.1726 9.8372 0 0zm49.842-0.66666c-1.4003-22.49 2.8861-61.997 2.2338-16.818 5e-3 0.2834 0.26331 28.745-2.2338 16.818zm-544.17 1.1631c-4.1836-18.573 2.8082-69.334 2.006-23.131-1.3479 4.2239 1.3877 23.228-2.006 23.131zm106.44-6.0798c2.5128-25.2 3.2427 24.613 0 0zm354.5 5.9182c-0.0607-20.013 9.0107 5.8131 0 0zm-16.469-1.7521c-3.998-19.591 9.424 1.6489 0 0zm66.823-1.0633c2.906-11.424 1.1313 8.8662 0 0zm-84.475-3.6484c0.52736-11.314 6.4593 5.9969 0 0zm51.514 1.0456c2.5549-3.5874 2.5549 3.5874 0 0zm49.564-0.70687c-1.2511-4.3768 3.4725 4.6752 0 0zm-355.41-0.61235c-3.6967-15.068 9.4582-0.38659 0 0zm-33.735-4.5013c-0.68549-22.403 7.9917 13.845 0 0zm271.11 3.8644c-0.48638-13.622 8.3037 2.0191 0 0zm-16.897-2.2938c-0.82453-18.553 6.9869 9.3022 0 0zm-269.65-0.25c0.50554-58.68-3.2465-117.91-2.4445-176.36 4.5313 55.264 3.7767 113.25 4.2986 169.55l-0.66963 5.8998-1.1844 0.90736h-2e-5zm252.21-3.5496c0.40257-20.36 4.3046 12.302 0 0zm-16.939-2.6779c-0.27839-23.622 4.0766 16.043 0 0zm-340.38 1.9776c1.0132-18.256-4.7518-71.43 1.2239-75.5-0.549 24.247 2.715 54.743-1.2239 75.5zm171.12-3.25c3.756-7.0664 3.756 7.0664 0 0zm-83.475-1.25c0.73305-18.825-0.87666-92.546 2.212-38.572-1.3829 8.0431 3.3949 41.026-2.212 38.572zm49.987 1.2693c-3.8845-25.137 9.5094 0.24139 0 0zm185.49-3.5926c4.0321-15.209 4.8303 15.082 0 0zm152.88 4.1247c-1.6105-14.652 8.2301-4.2117 0 0zm-16.358-3.3014c2.9322-16.769 4.2651 9.1141 0 0zm32.473-1.191c3.474-17.273 4.9715 15.557 0 0zm-304.49-0.0212c2.1553-19.196 6.158 8.2131 0 0zm118.49-0.45603c2.2679-15.574 6.3083 9.8765 0 0zm136.62 0.86814c-0.14091-16.908 7.3953 2.7034 0 0zm-154.2-1.7979c0.18471-15.962 8.536 5.2029 0 0zm137.65-0.20205c3.1197-16.235 1.7131 6.8801 0 0zm-171.35-1.4091c-1.1921-14.963 6.8456 4.1599 0 0zm17.921-0.055c-1.5185-14.415 4.715 5.941 0 0zm135.73-2.6568c5.0589-17.549 2.1585 16.86 0 0zm-254.83 1.6328c-1.5214-27.204 9.3843-2.1996 0 0zm50.461-0.40283c5.1374-10.713 3.1821 7.8953 0 0zm17.639 0.74713c-3.4392-9.196 6.8449-1.6116 0 0zm15.971-0.87859c0.54912-17.316 8.8421 8.2444 0 0zm1.9936-2.1567c-2.2533 0.93468 2.1015 3.9596 0 0zm152 2.1474c-3.2922-17.147 7.6646 0.0397 0 0zm-335.69-6.1682c-0.64368-34.097-3.341-82.809 0.20513-107.68 0.39561 31.668 4.1174 93.412-0.20513 107.68zm318.09-0.75c3.8899-15.221 3.0783 14.437 0 0zm-17.5-0.5c1.0427-19.413 6.345 8.8959 0 0zm136.4 0.75c-1.8906-19.331 1.4152-50.643 1.4804-12.913-0.81492 0.30199 2.9293 19.373-1.4804 12.913zm-372.21-1.4837c1.892-22.125-3.2078-92.397 1.5335-84.969-1.0018 27.557 3.4753 60.181-1.5335 84.969zm51.563-6e-3c-5.2201-15.495 6.9724-6.0807 0 0zm304.5-0.83715c-3.7258-6.2612 3.8183-3.2256 0 0zm-136.73-4.1732c1.4716-10.39 2.592 12.663 0 0zm-16.06 2.75c-5.014-9.2249 9.7927-4.6381 0 0zm-136.25-3.0135c0.3271-21.524 7.9908 7.1269 0 0zm33.486-2.2279c5.2514-15.153 2.5052 13.163 0 0zm86.071 2.7601c-3.387-20.922 8.1628 5.1637 0 0zm152.74-0.95975c0.38995-8.2743 2.6116 7.2033 0 0zm-322.96-11.234c-2.0962-19.945 3.1832-67.741 2.7722-16.763 1.532 6.8795-2.0552 45.01-2.7722 16.763zm100.96 8.1746c5.1985-11.624 2.6833 11.851 0 0zm33.723 2.75c0.0201-15.459-2.7484-80.529 2.0002-66.813-1.1765 20.819 3.1178 50.419-2.0002 66.813zm170.65-1.5c1.7314-14.849 2.5279 9.258 0 0zm-238.37-1.75c3.8894-15.867 5.0705 12.071 0 0zm85.59 2.1454c-2.1144-14.32 5.13-3.6111 0 0zm137.1-0.85503c-3.045-15.866 5.3697-6.4793 0 0zm-171.75-1.4571c-1.3419-15.817 2.1702-49.542 2.52-12.896-2.6867 2.5563 4.0068 15.855-2.52 12.896zm153.99-7.1147c-1.9511-13.604 0.87032-57.419 1.9368-17.127-0.45184 4.461 1.3096 39.601-1.9368 17.127zm-34.117 5.5314c-0.32536-51.688-2.7767-103.85-1.2423-155.27 3.7778 49.641 1.661 100.16 3.9067 150.1l-1.5742 6.9139-1.0902-1.75zm17.171-1.5c0.61298-19.856-2.9232-69.058 1.0092-71.744-0.1053 22.466 2.2966 60.556-1.0092 71.744zm134.32-1.5797c-3.8452-28.697 7.0471-0.37436 0 0zm-370.79-0.96414c-2.4265-47.177-3.2095-94.913-2.4217-142.21 3.946 46.887 2.4628 94.677 3.3802 141.5l-0.9585 0.7062zm184.33-3.4562c-0.53604-43.406-1.469-86.882-1.0237-130.25 4.1052 42.836 2.4805 87.765 3.6559 131.5l-1.5414 1.9965-1.0908-3.25zm-50.228 0.19785c0.0832-19.599-3.4419-71.12 1.2158-71.944-0.58267 22.177 3.0236 56.432-1.2158 71.944zm186.88 0.80215c-3.0072-15.378 1.1706-67.049 1.6287-22.676-0.6533 5.2312 0.74902 22.272-1.6287 22.676zm-304.89-2.3437c3.105-13.819 2.9486 5.2792 0 0zm151.36-35.656c0.94952-44.093-3.8966-93.043-0.15154-134.08 1.7848 57.02 4.1598 114.34 1.907 171.33-2.7424-12.164-1.1833-24.873-1.7554-37.25zm103.1 33.942c-3.5755-23.675 3.1599-39.479 1.7515-6.0824-0.4699 0.85045 0.92336 15.998-1.7515 6.0824zm-204.45 0.48596c5.1e-4 -14.835-3.0373-78.195 1.4714-66.844-2.9042 21.35 5.3986 49.714-1.4714 66.844zm85.31-8.428c1.0674-28.142-5.4278-84.293 0.65954-96.349-0.42675 35.027 3.7807 71.457 0.39083 105.6l-1.0504-9.25h2e-5zm136.73 8.4992c-3.1984-32.98 4.3607-19.444 0 0zm-255.79-13.499c-1.7892-28.676 4.6188-23.842 2.9208 2.0294-0.29398 13.796-3.2811 16.533-2.9208-2.0294zm272.04 7.9517c-1.0042-15.282-1.4401-80.786 1.2419-31.747-0.2395 2.0331 1.5734 46.03-1.2419 31.747zm-255.27 3.6045c-3.0724-7.928 6.5722-0.74248 0 0zm-32.641-4.3087c-4.55-24.228 6.7742-0.88422 0 0zm32.001-6.9141c6.2976-20.437 0.52044 17.338 0 0zm322.16-0.0833c0.87512-4.5074 0.87512 4.5074 0 0zm-33.627-2.2931c-1.0586-8.8244 3.3286 5.2577 0 0zm33.156-4.4481c3.9103-28.573-5.7578-3.5706 4e-5 0h-4e-5zm-33.832-11.009c-2.583-24.138 3.7786-33.835 2.8525-2.9506 1.8648 11.855-3.9463 21.433-2.8525 2.9506zm-320.22 8.9707c-2.7421-19.211 0.46833-78.803 1.783-29.005-1.0123 8.3982 2.9276 23.091-1.783 29.005zm83.248-6.9707c1.2311-23.491-3.9257-83.984 1.0732-86.582 2.7332 27.643-0.0453 71.833-1.0732 86.582zm187.99 5c-2.4959-28.548 4.7786-8.9598-4e-5 0h4e-5zm-354.57-5.041c-4.024-20.544 0.49592-60.663 0.91773-18.752-1.1583 4.0082 2.5918 18.77-0.91773 18.752zm336.95-8.4181c-3.0005-28.423 5.543-13.619 1.1242 4.9167l-1.1242-4.9167zm-237.46-9.5409c0.22401-40.33-4.2978-81.289-0.54651-121.25 1.8796 43.17 3.3133 86.839 1.7593 129.95l-1.2128-8.6984zm-50.797 5.25c2.3637-8.6612 2.3637 8.6612 0 0zm271.35-7.4988c2.0418-29.962 1.4409 30.689 0 0zm-409.75 5.4152c1.9129-4.6887 3.2388 5.5313 0 0zm477.05-4.4522c-0.91383-24.186 5.1996 16.826 0 0zm-32.987 3.3691c-3.002-12.146 4.0543-6.2754 0 0zm-305.12-2.9995c-3.7315-16.97 1.4291-54.468 1.4776-14.504-0.91934 1.2089 2.6674 19.265-1.4776 14.504zm338.1-12.084c-2.1589-19.18 1.0218-63.85 1.6261-21.991-0.46523 4.4857 2.1313 26.05-1.6261 21.991zm-49.566-1.6667c0.44611-4.3114 1.4431 2.6633 0 0zm-155.07-6.0833c-2.523-18.532 1.8262-49.617 2.0879-12.128 0.66356 2.8368-1.6487 26.396-2.0879 12.128zm171.74 4.9253c-3.5614-23.284 5.5293-19.124 0 0zm16.25-4.092c0.54784-15.218 2.2689 16.225 0 0zm-34.325 1.0087c-2.4987-20.593 3.0758-55.127 1.2875-13.705-1.4728 3.8004 4.3255 13.885-1.2875 13.705zm-16.757-2.533c-2.2488-15.301 1.1114-56.766 1.5952-18.062-1.096 4.8942 1.9614 14.523-1.5952 18.062zm-16.306-4.6282c-2.2996-17.868 0.50353-49.004 1.2968-13.375-1.0562 1.2315 1.7804 15.929-1.2968 13.375zm-304.54-6.3718c1.2453-13.93 2.539 15.962 0 0zm133.92 1.941c-1.804-13.463-0.16056-39.152 2.2796-9.5391 0.23174-2.6101-0.2162 18.216-2.2796 9.5391zm67.355-4.0881c-1.6428-16.875 1.0527-55.168 2.1186-15.402 1.1488-1.1592-0.24751 32.328-2.1186 15.402zm-117.35 2.8971c1.8976-5.0354 3.1061 3.6266 0 0zm-0.46754-5.5883c-1.6328-34.672 5.3422-16.211 0 0zm271.34-5.2207c-2.6693-28.592 5.3082-10.984 0.94965 6.25l-0.94965-6.25zm-305 2c-3.1367-21.319 0.49456-55.585 0.92735-13.044-0.39699 4.3133 1.0218 8.959-0.92735 13.044zm-83.273-4.5c-3.7262-44.473 7.5354 4.389 0 0zm166.4-13.191c1.8976-5.0354 3.1061 3.6266 0 0zm50.214-2.309c-2.8348-43.116 6.5079-6.7533 0 0zm154.29-2.0457c-0.56348-20.651 3.8925 14.85 0 0zm-17.504 1.8548c1.8976-5.0354 3.1061 3.6266 0 0zm68 0.5c2.3337-3.4348 2.8802 1.9056 0 0zm-255-3.559c2.4793-5.269 2.4793 5.269 0 0zm170.48-4.8843c-3.473-56.894 6.6071 15.807 0 0zm-170.25 0.63431c-3.291-19.637 6.0526-15.758 0.42337 1.6857l-0.42337-1.6857zm203.43-4.6941c-1.1986-21.957 6.2421 3.9486 0 0zm-136.66-7.5559c3.8113-10.427 2.9679 10.085 0 0zm-151.7-1.722c-3.5155-28.68 7.0941-20.003 0 0zm118.65-0.27801c-4.2341-34.624 5.4768-28.001 0 0zm16.52-5.0445c-2.4046-21.373 4.4251-10.128 0 0zm-50.887-5.2055c-3.3338-16.934 1.7179-48.27 2.1099-13.749-0.31107 0.82808 0.84393 30.622-2.1099 13.749zm-118.59 1.375c-0.61046-19.831 8.1384 4.3923 0 0zm51.619-0.75025c-3.2984-33.452 6.2477 0.92554 0 0zm219.99-10.957c-3.207-28.555 6.8914 9.0165 0 0zm-238.61-6.8531c1.3321-23.618 4.4096 8.9696 0 0zm18-0.94707c1.5225-13.875 3.1095 10.939 0 0zm-115.8 439.38c-2.2171-8.8865-10.587 3.8946 0 0zm32.796-17c-1.2155-9.4782-3.2475 10.093 0 0zm-54.25-21.689c-8.4329-9.6645 1.1176 5.1503 0 0zm-23.388-51.811c-4.8275-5.5515-2.4907 6.1297 0 0zm127.93-69.5c-0.36-7.0685-3.3464 7.047 0 0zm868.71-23.059c-5.7283-7.9088-0.7875 9.4656 0 0zm-10-1.5c-2.8802-1.9056-2.3337 3.4348 0 0zm-2.4843-3.5125c1.5583-11.982-5.5755 10.636 0 0zm-335.33-0.6116c-4.3834-1.4324-0.43359 1.9249 0 0zm322.81-0.87591c-3.0681-3.5451-0.58937 4.9281 0 0zm17.771-0.62848c-3.6337-5.246-3.3621 4.4497 0 0zm-19.771-2.8125c-5.2428-3.6848-5.2428 3.6848 0 0zm13-1c-7.8892-11.93-48.48-10.002-10.429 0 2.6343 0.83692 9.3473 4.5171 10.429 0zm46-1.5c-0.86537-5.2821-2.3735 5.247 0 0zm-376.5-6.5c-2.4663-3.5623-1.2094 3.6562 0 0zm-156.5-1c-2.4663-3.5623-1.2094 3.6562 0 0zm467.5-2c-3.8442-3.5852-2.5632 3.7039 0 0zm60.5-3c-3.9032-3.6531-3.9032 3.6531 0 0zm-592.02-3.25c-6.1318-3.6954-0.53948 7.3587 0 0zm605.01 0.5c-10.306-5.0471-6.6756 4.8402 0 0zm-657.51-4c-6.8243-11.755-5.4667 5.5216 0 0zm8.6154-1.0489c-6.3805-10.59-2.1553 8.8573 0 0zm286.9 1.2155c-3.4938-4.4507-3.5458 5.339 0 0zm250 0.0833c-13.71-13.564-9.0437 5.8634 0 0zm120.36 0c1.4385-5.3978-4.5395 5.5675 0 0zm-462.36-2.5c24.444 2.246-8.1178-37.508-4.0084-11.118-0.24262-13.316-9.9757 14.364-15.496-4.2009-9.594 8.2243 2.9245-24.062 19.882-9.7371 9.6335 4.3552 17.828 15.014 10.885-5.0029-29.51 4.6211-40.777-13.939-6.355-10.517 27.075 3.5044-8.2384-15.069-25.284-9.7926 17.308-8.5201 45.882-1.2588 32.967-34.824 3.8586-26.788-1.9883-40.738-29.019-30.808-33.064-2.1279-1.0405 54.477-12.326 78.668-2.0064 23.651-1.4035 42.423 28.755 37.332zm-15.817-107.73c24.642-7.3072 33.799 6.5826 0 0zm322.82 107.73c21.06-10.119-33.354-4.7064 0 0zm-191.62-3.1964c2.082-10.508-13.697 4.4037 0 0zm44.621 0.19642c7.6748-12.287-70.156 0.0827-17.75 0.96196 5.9036-0.2683 11.932 0.43484 17.75-0.96196zm276 0.059c-2.7372-5.6308-3.5905 3.2703 0 0zm-330-1.618c-2.8802-1.9056-2.3337 3.4348 0 0zm146.19-0.12409c-4.3834-1.4324-0.43359 1.9249 0 0zm214.81-0.74357c7.3523-6.6565-5.5198 3.1201 0 0zm-117.69-0.2128c-0.51909-5.3592-7.8975 3.2037 0 0zm-3.9127-1.958c-0.9372-17.808-27.222 2.2186 0 0zm-634.39-1.4615c-2.8802-1.9056-2.3337 3.4348 0 0zm376.12-0.19098c6.5126-19.294-13.27-16.401-1.5246-4.2105-1.7131 2.1016-3.4412 8.5836 1.5246 4.2105zm242.88 0.25c-2.4663-3.5623-1.2094 3.6562 0 0zm126.7-5.2969c-7.5176-2.7276 6.2043 12.075 0 0zm-447.7 4.2969c-2.5549-3.5874-2.5549 3.5874 0 0zm344 0c-2.5549-3.5874-2.5549 3.5874 0 0zm-259.98-2.5651c2.232-12.039-8.8392 9.76 0 0zm-437.25-0.9349c-4.3291-7.8534-2.8083 8.6451 0 0zm6.2293 1.5c-2.5549-3.5874-2.5549 3.5874 0 0zm350 0c-2.5549-3.5874-2.5549 3.5874 0 0zm88.5 0c-2.4663-3.5623-1.2094 3.6562 0 0zm347.14-0.5c4.364-6.2578-8.323 5.4829 0 0zm-439.64-2.5c-2.4663-3.5623-1.2094 3.6562 0 0zm10-0.25c-2.4249-2.7986-2.2802 3.666 0 0zm62.559-0.2818c-14.167-4.6361 2.9768 6.5803 0 0zm272.44-3.5767c-4.251-3.0264-4.8732 7.4368 0 0zm-255 1.1085c-2.5549-3.5874-2.5549 3.5874 0 0zm374.5 0c-2.4662-3.5623-1.2094 3.6561 0 0zm-123.69-4.0626c-12.953-13.853 12.767-23.106 3.8739-51.503 8.7007-10.2-27.73-71.191-20.063-30.175 15.186 25.706-1.6388 62.427 7.4529 83.465 2.8582 0.19145 6.8118 1.1507 8.7362-1.7867zm-261.45-13.437c-2.3736-5.247-0.86541 5.2821 0 0zm-67.757-7.2292c-4.889-0.0236 2.725 5.1753 0 0zm339.4-1.7708c-2.4793-5.269-2.4793 5.269 0 0zm-340.82-19.717c-4.3692-0.88559 3.0968 4.52 0 0zm446.74-6.1514c12.933-13.023 23.55-10.633-8.4086-11.921-21.809-1.7663 3.6948 21.553 8.4086 11.921zm12.748 0.86803c-6.3212-5.8142 0.0155 5.215 0 0zm-1.6667-5.5c-2.5549-3.5874-2.5549 3.5874 0 0zm-1074.4-10.729c-4.889-0.0236 2.725 5.1753 0 0zm566.4 1.7292c-2.5549-3.5874-2.5549 3.5874 0 0zm481 0c-2.5549-3.5874-2.5549 3.5874 0 0zm27 0c-2.5549-3.5874-2.5549 3.5874 0 0zm-1069.6-3.5c-0.86541-5.2821-2.3736 5.247 0 0zm1042.8-10.183c-4.3834-1.4324-0.43362 1.9249 0 0zm-481.19-3.2579c-1.8976-5.0354-3.1061 3.6266 0 0zm500-7.059c-2.5549-3.5874-2.5549 3.5874 0 0zm-449-4.941c-1.8976-5.0354-3.1061 3.6266 0 0zm445-1.059c-2.4662-3.5623-1.2094 3.6561 0 0zm-466.72-7.0211c-4.0481-4.6553-2.3482 6.5422 0 0zm5.7158-1.9789c-3.8443-3.5852-2.5632 3.7039 0 0zm333.15-0.92341c-4.1094-17.568-19.506 7.1683 0 0zm124.85 0.92341c-3.9032-3.6531-3.9032 3.6531 0 0zm-254-3.559c-3.1061-3.6266-1.8976 5.0354 0 0zm26.667 0.059c-3.3812-5.3478-3.3811 5.3478 0 0zm13.333 0.50002c-2.5549-3.5874-2.5549 3.5874 0 0zm68-1.607c-4.008-1.7751-3.9041 3.2606 0 0zm-296.5-1.393c-2.4663-3.5623-1.2094 3.6562 0 0zm301 0c-2.4663-3.5623-1.2094 3.6562 0 0zm124.69-1.6831c-4.3834-1.4324-0.43362 1.9249 0 0zm-406.05-13.627c31.367 3.8203 18.946-10.059-2.141-4.0742-9.1058 0.54885-3.1047 9.8951 2.141 4.0742zm311.86 1.9168c-0.45576-2.685-5.9134 0.8962 0 0zm-325-1.607c-2.5549-3.5874-2.5549 3.5874 0 0zm412.9-2.1492c2.4448-17.747-7.8991 11.556 0 0zm-407.9-0.85078c-2.5549-3.5874-2.5549 3.5874 0 0zm-602-6.5c-2.4793-5.269-2.4793 5.269 0 0zm611.75-1.1893c-3.8077-6.1268-7.0576 3.6832 0 0zm373.85-5.0398c-4.8892-0.0234 2.7252 5.1752 0 0zm-471.6-6.7708c-4.8345-8.5247-0.87451 7.9352 0 0zm-465-37c-2.3736-5.247-0.86541 5.2821 0 0zm400.19-18.183c-4.3834-1.4324-0.43355 1.9249 0 0zm8.563-1.5669c-7.1521-6.3393-1.078 5.2093 0 0zm-373.75-0.75c-2.5549-3.5874-2.5549 3.5874 0 0zm17.455-7.75c-2.0992-9.1218-4.0429 11.506 0 0zm330.3-2c-11.647-9.6944-10.13 4.6203 0 0zm-32.75-8.309c-4.3859-3.7867-2.1703 5.0757 0 0zm-35 0.059c-3.9032-3.6531-3.9032 3.6531 0 0zm23.667-0.5c-4.7331-5.4342-4.7331 5.4342 0 0zm-208.46-3.5122c-0.81755-10.146-14.808 10.748 0 0zm143.79 1.0122c-2.4663-3.5623-1.2094 3.6562 0 0zm655.94 252.35c-18.204-18.831 12.945 0.38896 0 0zm-22.444-5.0296c-35.022-14.167 2.036-11.412 5.106 1.5855l-5.106-1.5855v-2e-5zm-337.76-1.088c-33.153-17.272 45.49-4.958 9.4934 0.52313l-9.4934-0.52313zm362.88-6.1756c-16.627-21.237 19.3 9.2478 3.4595 4.6362l-3.4595-4.6362zm-18.693-6.3049c-3.6718-11.037 10.997 2.3799 0 0zm-337.17-2.489c-39.112-10.528 5.8554-12.041 14.25-8.261-1.5998 5.5911-7.8338 11.809-14.25 8.261zm0.25-2.82c-2.8802-1.9056-2.3337 3.4348 0 0zm325 1.559c-33.338-16.013 14.636-1.6282 0 0zm-75.179-3.0372c-13.904-0.72632-52.046-3.8864-14.305-4.9275 4.3477 0.52912 35.564 4.2267 14.305 4.9275zm134.14-3.2947c-15.35-10.794 13.516 1.5485 0 0zm-231.96-0.25142c-48.758-9.9554 56.674-0.79925 5.7479 1.4343l-5.7478-1.4343h-4e-5zm27-0.82855c10.118-8.8546 45.734 4.162 6.9382 2.3931-1.8029-1.0524-9.0776 2.3919-6.9382-2.3931zm28.5 0.41186c-1.5732-8.7715 3.7153 6.3921 0 0zm149.92 0.69031c1.9758-11.575 16.041 6.4134 0 0zm-291.42-2.7958c13.962-8.7246 90.371 0.19682 47.043-0.81032-15.249 0.94046-32.395 2.1388-47.043 0.81032zm274.76-0.12048c-19.14 2.797-29.33-22.771-10.758-5.215 2.4546-3.7362 28.609 7.6806 10.758 5.215zm32.873-3.2938c1.2074-4.9501 6.4608 4.5576 0 0zm17.822 0.59549c-8.4396-6.2634 6.9798 2.7128 0 0zm-399.41-4.8074c-22.108-12.522 40.054 1.0455 4.4949 0.74087l-4.4949-0.74087zm240.67-4.276c6.0548-7.5913 20.183 6.8098 0 0zm28.723 0.89592c2.1053-7.6963 7.4577 4.6956 0 0zm-97.931-0.8882c-23.661-2.4426 14.526-7.6483 3.0167 0.96548l-3.0167-0.96548zm17.063-1.3271c3.6754-6.6829 15.1 6.2077 0.50625 1.6173l-0.50625-1.6173zm15.437 0.92357c21.271-4.5636 11.59 3.2257 0 0zm18.245 0.15349c17.58-6.0607 7.1665 4.4739 0 0zm3.9422-0.43311c-4.3834-1.4324-0.43359 1.9249 0 0zm-152.98-1.5727c5.2412-10.333 19.25 5.0859 0 0zm16.797-0.74419c7.5088-10.303 18.447 5.7276 0 0zm37.675 1.342c6.5647-9.7043 16.348 5.669 0 0zm18.721-0.50937c8.2138-8.6565 15.275 4.7814 0 0zm219.62 0.43916c-8.6504-8.6916 27.492 1.9541 0 0zm-14.822-3.5694c-11.073-17.38 14.326 12.667 0 0zm36.427-0.24191c-0.85267-7.8494 7.1622 3.5817 0 0zm-383.87-3.7006c-10.071-10.735 32.753 6.8843 0 0zm334.36 0.86684c-2.9765-12.652 10.259 8.3725 0 0zm-299.11-6.0198c6.6584-9.1654 12.335 6.823 0 0zm20.46-1.7318c4.6074-13.811 10.918 7.7143 0 0zm168.62 1.4382c-20.341-5.7417 14.248-8.2562 0 0zm-39.695-3.0634c0.78959-10.847 17.274 5.675 0 0zm4.1156-0.25c-3.9032-3.6531-3.9032 3.6531 0 0zm13 0.61547c-2.5816-9.5175 16.754 5.7148 0 0zm37.25 0.71277c-4.1199-10.175 15.438 0.32946 0 0zm-90.75-1.2464c2.0326-10.401 10.906 3.8072 0 0zm11 0.0849c2.1537-5.6657 8.3176 4.231 0 0zm204.82-0.21026c-25.398-8.2614 33.907-2.5204 0 0zm20.833-2.5772c-2.0691-13.511 10.998 5.4719 0 0zm-292.46-0.11777c7.4637-8.2059 5.9791 7.9046 0 0zm34.503 1.0165c-9.3004-8.3807 14.135 1.6587 0 0zm76.58-1.8822c3.9597-2.1014 0.93456 2.2534 0 0zm213.73-2.3958c2.5632-3.7039 3.8442 3.5852 0 0zm-169-2.5c2.3777-5.3997 3.5053 5.2925 0 0zm131.39-8.931c0.45199-11.599 10.577 4.7347 0 0zm-14.388-5.9872c3.1869-12.925 13.21 7.22 0 0zm18-11.082c4.2853-15.994 6.9396 8.9083 0 0zm-361.67-17.483c9.544-21.597 7.3276 21.776 0 0zm-20.331 3.483c0.86541-5.2821 2.3736 5.247 0 0zm36 0.5c-12.749-6.3981 22.096-2.943 0 0zm346.62-4.5378c4.2116-10.477 4.2774 7.3844 0 0zm-339.62-4.3028c-28.295-7.1364 0.12125-10.719 0 1e-5v-1e-5zm105.48-0.12357c-26.511-2.4226 8.0067-2.719 0 0zm26.087 0.069c12.822-6.1739 55.77-1.789 59.435-1.1048-16.618 2.3106-25.982 0.0975-42 1.1265-5.7588-1.464-10.832 1.4326-17.435-0.0218zm-80.315-0.8952c-63.296-3.8243 52.291-4.1338 37.556-0.51372-12.495 0.76201-25.044 0.69861-37.556 0.51372zm-74.25-4.2096c2.664-10.164 4.3763 10.022 0 0zm39.222 1.8342c5.6425-4.4879 2.7136 4.0664 0 0zm261.32 0.10533c-3.4599-5.3008 8.1801 2.7686 0 0zm-68.294-1.617c0.75528-6.0948 17.663 2.0778 0 0zm-256.24-1.243c27.447-3.1322 6.9766 0.90548 0 0zm383.36-8.529c-6.3069-16.17-60.305-23.041-15.139-16.182 8.7571-1.0976 36.952 33.93 15.139 16.182zm-8.9064 2.5176c-13.401-5.0456 6.7383 1.1387 0 0zm-372.12-4.8061c-25.648-11.503 33.693 3.3282 0 0zm318.69-1.0119c10.416-11.254 10.602-0.78528 0 0zm33.802-0.15802c-36.578-4.2202-27.255-15.733 0 0zm-47.754-3.2706c7.8705-16.753 61.875-13.28 19.505-7.6812-4.5605 3.2249-15.681 7.4703-19.505 7.6812zm31.921-26.455c-7.9446-5.0138 11.803 4.0883 0 0z"/>
 </g>
</svg>
