<?xml version="1.0" encoding="iso-8859-1"?>
<!-- Generator: Adobe Illustrator 19.0.0, SVG Export Plug-In . SVG Version: 6.00 Build 0)  -->
<svg version="1.1" id="Layer_1" xmlns="http://www.w3.org/2000/svg" xmlns:xlink="http://www.w3.org/1999/xlink" x="0px" y="0px"
	 viewBox="0 0 511.852 511.852" style="enable-background:new 0 0 511.852 511.852;" xml:space="preserve">
<path style="fill:#965353;" d="M144.581,308.094L13.636,439.038c-0.008,0.016-0.008,0.016-0.008,0.016
	c-16.659,16.651-16.659,43.659-0.008,60.31c16.651,16.651,43.659,16.651,60.31,0l130.952-130.96L144.581,308.094z"/>
<path style="fill:#A85D5D;" d="M36.239,476.746c-4.163-4.172-4.163-10.92,0-15.074l125.243-125.243
	c4.163-4.171,10.911-4.171,15.073,0c4.163,4.155,4.163,10.903,0,15.073L51.312,476.746C47.15,480.901,40.402,480.901,36.239,476.746
	z"/>
<g>
	<rect x="75.676" y="388.206" style="fill:#965353;" width="79.55" height="21.321"/>
	<polygon style="fill:#965353;" points="27.374,452.159 27.374,430.838 111.88,430.838 111.872,452.159 	"/>
</g>
<path style="fill:#FECD57;" d="M510.719,234.109c0-95.596-65.137-182.038-151.719-217.309C332.508,6.006,303.985,0,274.729,0
	c29.318,5.678,53.733,18.072,73.306,34.896c124.211,106.827,65.916,377.01-203.454,273.198l-34.708,34.708
	C333.727,568.764,510.719,358.969,510.719,234.109z"/>
<path style="fill:#F5BA45;" d="M495.646,219.028c0,122.01-168.979,325.088-385.539,123.54l-0.234,0.234
	c223.854,225.962,400.846,16.167,400.846-108.693c0-65.59-30.662-126.868-77.883-170.269
	C471.403,105.804,495.646,160.709,495.646,219.028z"/>
<g>
</g>
<g>
</g>
<g>
</g>
<g>
</g>
<g>
</g>
<g>
</g>
<g>
</g>
<g>
</g>
<g>
</g>
<g>
</g>
<g>
</g>
<g>
</g>
<g>
</g>
<g>
</g>
<g>
</g>
</svg>
