<?xml version="1.0" encoding="UTF-8"?>
<svg viewBox="0 0 251.03113 215.01329" xmlns="http://www.w3.org/2000/svg">
 <path transform="translate(-83.788 -10.519)" d="m314.08 152.85c-2.7143-1.3234-7.2768 24.186-9.6211 35.387-1.964 9.3838-4.3663 16.375-6.6041 19.22-3.4066 4.3307-19.578 10.734-35.355 13.999-19.328 3.9999-64.211 5.4254-81.736 2.5959l-9.7635-1.5778c-1.925-0.31158-7.1-1.0032-11.5-1.5368-15.564-1.8878-34.028-7.7418-39.025-12.373-3.4325-3.1811-6.3745-11.515-6.9009-19.549-0.23483-3.5833-0.66505-7.1901-0.95605-8.0151s-0.73439-3.525-0.98531-6c-0.43581-4.2987-1.4863-9.4492-3.8241-18.75-0.61268-2.4375-1.6583-4.25-2.4519-4.25-0.76098 0-2.3363-0.5625-3.5007-1.25-1.624-0.95888-2.2182-0.97198-2.551-0.0562-0.23867 0.65658-4.3108 2.4178-6.6549 2.2999-3.2179-0.16184-5.8485-1.0006-8.7728-4.0579-0.24442-11.533-0.07107-8.064 1.6455-9.9608 1.6844-1.8613 2.6069-2.0403 7.5554-1.4659l5.6367 0.65421 0.54627-4.0728c0.30045-2.24 1.6021-5.3987 2.8926-7.0192s3.1386-4.078 4.107-5.4611c1.1045-1.5775 3.8568-3.1754 7.3848-4.2876 6.1696-1.9448 9.1043-5.2697 11.318-12.823 1.6011-5.4635 5.7266-13.79 8.089-16.326 1.0713-1.1499 1.9479-2.7354 1.9479-3.5232 0-0.84373 1.3357-1.6441 3.25-1.9475 1.7875-0.28328 6.4194-1.4115 10.293-2.5072 9.278-2.6243 37.131-6.1081 50.957-6.3736 6.05-0.11618 11.543-0.61262 12.206-1.1032s1.7532-0.5539 2.4218-0.1407 4.8508 0.83899 9.2938 0.94618c12.733 0.30719 28.663 1.494 33.578 2.5017 2.475 0.50736 7.9829 1.3787 12.24 1.9363 11.386 1.4914 20.86 5.4563 23.747 9.9382 1.2748 1.9792 3.1494 4.8178 4.1656 6.308s1.8476 3.3127 1.8476 4.05 0.48058 1.8211 1.068 2.4084c0.75726 0.75726 0.71585 2.9246-0.14235 7.45-0.66567 3.5101-1.1773 7.1281-1.137 8.0399 0.0897 2.0301 3.2291 5.8421 4.8112 5.8421 0.63542 0 1.7155 0.675 2.4002 1.5s2.7792 1.5 4.6546 1.5 4.9437 0.64096 6.8186 1.4244c2.7231 1.1378 3.6354 2.2652 4.5344 5.6037 1.0194 3.7857 1.3782 4.1358 3.8089 3.7171 1.4759-0.25427 3.413-0.77683 4.3046-1.1612 0.98109-0.42301 2.303-0.017 3.3483 1.0283 1.4435 1.4435 1.6159 2.8082 1.0497 8.3075-0.37268 3.6191-1.1413 8.3802-1.708 10.58s-9.1289 3.0314-18.731-1.6501zm-118.08 66.15c0-0.55-0.47656-1-1.059-1s-0.7809 0.45-0.44098 1 0.81648 1 1.059 1 0.44098-0.45 0.44098-1zm30.643-0.5c1.3333-1.3333 1.3333-1.6667 0-3-0.825-0.825-2.3196-1.4857-3.3214-1.4682-1.7608 0.0307-1.7608 0.0778-2e-3 1.4107 1.7406 1.3194 1.7298 1.4072-0.25 2.0356-1.138 0.36117-2.069 1.0764-2.069 1.5893 0 1.4826 3.9945 1.081 5.6429-0.56739h-4.1e-4zm16.357 0.5c0-0.55-0.47656-1-1.059-1s-0.7809 0.45-0.44098 1 0.81648 1 1.059 1 0.44098-0.45 0.44098-1zm-26-1c0-0.55-0.7875-1.0522-1.75-1.116-1.6667-0.11048-1.6667-0.13778 0-0.57333 2.5545-0.66755 2.1397-2.3107-0.58333-2.3107-3.1384 0-3.7811 0.84386-2.3673 3.1078 1.2322 1.973 4.7006 2.6313 4.7006 0.89219zm-29-1c-1.9388-1.2529-3-1.2529-3 0 0 0.55 1.0125 0.99311 2.25 0.98469 1.8194-0.0124 1.963-0.20082 0.75-0.98469zm48.334-0.25c-0.43124-0.6875-0.66082-2.0003-0.51018-2.9173s-0.52975-1.8758-1.525-2.134c-1.6598-0.43066-1.6636-0.47569-0.0488-0.58273 1.0625-0.0704 1.75-0.92491 1.75-2.175 0-1.1325-0.45-1.7809-1-1.441s-1 0.15005-1-0.42193 1.125-1.3223 2.5-1.6674c2.9312-0.73569 3.1949-1.9065 0.75-3.3305-1.6667-0.97075-1.6667-1.0207 0-1.0497 0.9625-0.0167 1.75-0.44741 1.75-0.95709s-0.7875-1.1325-1.75-1.384c-1.6667-0.43555-1.6667-0.46285 0-0.57333 0.9625-0.0638 1.75-0.54364 1.75-1.0663s-0.7875-1.409-1.75-1.9696c-1.6667-0.97075-1.6667-1.0207 0-1.0497 0.96246-0.01673 1.75-0.48041 1.75-1.0304s-0.45-1-1-1-1-0.45-1-1 0.7301-1 1.6224-1c1.3288 0 1.3971-0.27149 0.37756-1.5-0.8601-1.0364-0.89795-1.5-0.12244-1.5 0.61734 0 1.1224-0.72314 1.1224-1.607 0-1.096-0.5565-1.4132-1.75-0.99755-1.6667 0.58043-1.6667 0.54456 0-0.75325 0.9625-0.74948 1.75-1.6506 1.75-2.0024s-0.7875-0.69196-1.75-0.75576c-1.6667-0.11048-1.6667-0.13778 0-0.57333 2.1683-0.56662 2.3266-3.3107 0.19098-3.3107-0.85746 0-1.2764-0.45734-0.9309-1.0163s1.0159-0.77663 1.4899-0.48369c1.3899 0.85898 2.2723-1.467 1.0948-2.8858-0.59258-0.71402-0.7683-1.6073-0.39048-1.9851 2.1171-2.1171 0.95357-3.629-2.7928-3.629-2.2133 0-3.9115 0.48478-3.9115 1.1166 0 0.6546 1.0442 0.91696 2.5239 0.63411 1.3881-0.26536 2.7647-0.0928 3.059 0.38342s-0.8789 0.86589-2.6072 0.86589c-2.0803 0-2.9946 0.42247-2.7053 1.25 0.24039 0.6875 1.1779 1.1178 2.0833 0.95616s1.6463 0.17589 1.6463 0.75-0.85777 1.0438-1.9062 1.0438c-2.3512 0-2.8182 3.211-3.6229 24.91-0.44682 12.049-0.28786 15.59 0.72881 16.235 0.99926 0.63384 1.0109 0.82832 0.0503 0.84009-0.6875 8e-3 -1.25 0.46531-1.25 1.0153s1.3766 1 3.059 1c2.1987 0 2.8385-0.35154 2.275-1.25h-3e-5zm-28.334-0.75c1.1383-0.7356 0.71622-0.97307-1.75-0.98469-1.7875-0.00842-3.25 0.43469-3.25 0.98469 0 1.2702 3.0345 1.2702 5 0zm36 0c0-0.55-0.64844-1-1.441-1s-1.7191 0.45-2.059 1 0.30852 1 1.441 1 2.059-0.45 2.059-1zm8.5-1c0.33992-0.55-0.057-1-0.88197-1s-1.7781 0.45-2.118 1 0.057 1 0.88197 1 1.7781-0.45 2.118-1zm-69.5-1.9167c0-0.50416-0.5625-1.1436-1.25-1.421-1-0.40351-1-0.52017 0-0.58333 2.9672-0.18741 0.92007-2.079-2.25-2.079-2.7933 0-3.5 0.39044-3.5 1.9336 0 1.3417 0.84179 2.0611 2.75 2.3502 1.5125 0.22912 3.0875 0.48401 3.5 0.56642s0.75-0.26267 0.75-0.76684zm7-0.0986c1.3333-0.87528 1.3333-1.0958 0-1.9847s-1.3333-1.1196 0-2.0761c1.2304-0.88275 1.255-1.1741 0.13685-1.621-1.1509-0.46006-1.1509-0.6818 0-1.4239s1.1479-1.0178 6e-3 -1.754c-0.96168-0.6202-1.0297-1.0771-0.23369-1.5691 0.61769-0.38175 0.83308-1.1633 0.47865-1.7368s-0.0243-1.4424 0.73368-1.9309c1.1561-0.74513 1.1365-1.0493-0.12188-1.8882-1.3333-0.88889-1.3333-1.1094 0-1.9847 1.249-0.81994 1.1654-0.99233-0.5-1.0304-1.8391-0.042-1.8592-0.12774-0.25-1.065 2.4317-1.4163 2.1859-2.9006-0.5-3.0196-2.143-0.0949-2.1316-0.13262 0.23992-0.79271 1.7195-0.4786 2.1012-0.93324 1.2337-1.4694-0.69093-0.42702-0.99734-1.1953-0.6809-1.7073s0.09916-0.93094-0.4833-0.93094-1.059-0.45-1.059-1 0.7875-1.0069 1.75-1.0153c1.4372-0.0126 1.4934-0.17771 0.3143-0.92379-1.1898-0.7529-1.2117-1.1784-0.12755-2.4847 1.1105-1.3381 1.0253-1.5882-0.56431-1.6552-1.0536-0.0444-1.3258-0.29951-0.62244-0.58333 1.7999-0.72628 1.5376-2.1159-0.5-2.6484-1.6667-0.43555-1.6667-0.46285 0-0.57333 2.5707-0.1704 2.1355-2.0989-0.5-2.2157-2.1586-0.0956-2.1484-0.13222 0.25-0.90032 1.375-0.44035 1.825-0.87894 1-0.97463s-2.5269-0.36492-3.7819-0.59828c-1.4102-0.26219-2.5016 0.14823-2.857 1.0743-0.61727 1.6086-2.9786 2.0459-3.5278 0.65331-0.18333-0.46491-1.5533-1.1441-3.0444-1.5093l-2.7111-0.66399 0.55322 13.259c0.30427 7.2926 0.68854 14.834 0.85393 16.759s0.34894 4.7375 0.40788 6.25c0.0865 2.2197 0.57789 2.75 2.5481 2.75 2.883 0 4.3894-1.8688 2.4652-3.058-1.0635-0.6573-0.95483-0.98607 0.51218-1.549 1.8024-0.69166 1.8034-0.75766 0.0309-2.0538-1.3603-0.99466-1.4607-1.3474-0.3903-1.371 1.0391-0.0229 0.89963-0.44138-0.5-1.5-1.0676-0.80751-1.4419-1.4682-0.83179-1.4682s1.8212-0.27314 2.6911-0.60699c1.3654-0.52395 1.5818 0.54771 1.5818 7.8333 0 4.6422 0.3 8.7403 0.66667 9.107 0.96378 0.96379 3.5962 0.7917 5.3333-0.34864l-5e-5 4e-5zm-9-19.076c1.1681-0.82611 1.2142-1.1761 0.20826-1.5819-0.99191-0.40016-1.0215-0.8467-0.12755-1.9239 0.90262-1.0876 0.85583-1.4062-0.20827-1.4181-1.0852-0.0121-1.0585-0.23732 0.12756-1.0761 1.2301-0.86996 1.2547-1.1589 0.13685-1.6057-1.1509-0.46006-1.1509-0.6818 0-1.4239 1.1343-0.73137 1.1113-1.0443-0.13685-1.8636-0.84334-0.55362-0.99377-0.99139-0.34362-1 1.4984-0.0198 0.49065-4.0051-1.023-4.0457-0.62335-0.0167-0.32092-0.50305 0.67208-1.0807 1.4942-0.86921 1.5858-1.3149 0.53183-2.5849-1.0791-1.3003-0.97306-1.4767 0.69455-1.1552 1.6427 0.31669 1.9995 1.2867 2.1579 5.8653 0.33979 9.8258-0.62928 15.988-2.5117 15.971-1.4592-0.0133-1.4825-0.15363-0.17804-1.0761zm16.5 19.091c-1.1-0.47269-1.4375-0.94731-0.75-1.0547s1.7-0.30779 2.25-0.44529 1.2801-0.30625 1.6224-0.375 0.12125-0.7289-0.49132-1.467-0.81767-1.6381-0.45578-2 0.047-0.65799-0.6998-0.65799c-0.87886 0-0.67309-0.51789 0.58333-1.4682 1.9154-1.4488 1.9147-1.469-0.0589-1.5318-1.9138-0.0609-1.9215-0.1231-0.18023-1.4431 1.7597-1.3339 1.7597-1.4144 0-2.4378-1.7492-1.0173-1.7496-1.0595-0.0108-1.0887 0.99496-0.0167 1.543-0.46076 1.218-0.98674s-1.3254-0.6745-2.2231-0.33006c-1.0045 0.38547-1.3827 0.22283-0.98356-0.42296 0.35665-0.57708 1.51-1.2745 2.563-1.5499 2.4388-0.63777 3.1792 2.5731 2.4254 10.518-0.53751 5.665-0.50999 5.7412 2.0732 5.7412 1.4399 0 2.618-0.45 2.618-1s0.5625-1.0003 1.25-1.0007 1.3149-1.1254 1.3942-2.5c0.09417-1.6305-0.38291-2.4993-1.3724-2.4993-1.2348 0-1.2853-0.2788-0.27177-1.5 1.0035-1.2092 0.9788-1.5059-0.12756-1.5304-0.85654-0.019-0.65239-0.44838 0.54313-1.1424 1.862-1.0808 1.8636-1.1499 0.0589-2.4696-1.7716-1.2954-1.7562-1.3576 0.3344-1.3576 2.0601 0 2.1911 0.44859 2.1911 7.5 0 8.0168 0.2628 8.3419 5.5879 6.9121 1.7679-0.47466 2.0662-1.2771 1.9467-5.2363-0.0776-2.5717 0.30388-5.2726 0.84784-6.002 0.68784-0.92236 0.55182-1.6028-0.44669-2.2347s-1.0536-0.91315-0.1857-0.92379c1.8832-0.0231 1.5006-1.8032-0.5-2.326-1.6667-0.43555-1.6667-0.46285 0-0.57333 2.0398-0.13521 2.2446-1.2214 0.55-2.916-0.93333-0.93333-0.82222-1.2 0.5-1.2 0.935 0 1.7-0.45 1.7-1s-0.7875-1.0069-1.75-1.0153c-1.5101-0.0132-1.5444-0.16073-0.25-1.0761 1.1783-0.83332 1.2206-1.1734 0.197-1.5857-0.97387-0.39229-0.84757-0.86085 0.5-1.855 1.6946-1.2501 1.6526-1.3906-0.697-2.3356-1.7529-0.70503-1.977-1.0245-0.75-1.0689 0.9625-0.03487 1.75-0.51339 1.75-1.0634s-0.7875-1.0285-1.75-1.0634c-1.2762-0.0462-1.0732-0.37301 0.75-1.2071 2.4328-1.113 2.3957-1.1535-1.3818-1.5048-2.135-0.1986-4.2906 0.0477-4.7902 0.54731s-0.91495 5.0303-0.92296 10.068c-8e-3 5.076-0.436 9.1598-0.95982 9.1598s-0.89198-0.3375-0.82685-0.75c0.32569-2.0627-0.26555-3.25-1.6184-3.25-0.825 0-1.5-0.49814-1.5-1.107s0.675-0.84797 1.5-0.53138 1.5 0.13972 1.5-0.39301-0.675-0.96862-1.5-0.96862-1.5-0.45-1.5-1 0.675-1 1.5-1c2.1214 0 1.8762-1.9932-0.25-2.0318-1.649-0.03-1.651-0.10704-0.0348-1.3348 1.3056-0.99182 1.4369-1.5813 0.55-2.4682s-0.81892-1.1689 0.2848-1.1805c1.2332-0.013 1.2257-0.16026-0.05-0.98469-1-0.64625-1.0833-0.97448-0.25-0.98469 1.8832-0.0231 1.5006-1.8032-0.5-2.326-1.6667-0.43555-1.6667-0.46285 0-0.57333 3.3135-0.21964 1.7451-2.116-1.75-2.116h-3.5l-0.125 5c-0.0687 2.75-0.2375 5.45-0.375 6s-0.30625 3.25-0.375 6c-0.10729 4.2917-0.40833 5-2.125 5-1.1 0-2-0.45-2-1s0.675-1 1.5-1 1.5-0.49814 1.5-1.107-0.675-0.84797-1.5-0.53138-1.5 0.13972-1.5-0.39301 0.675-0.96862 1.5-0.96862c2.1713 0 1.9484-4.7362-0.25-5.3107-1.6667-0.43555-1.6667-0.46285 0-0.57333 1.9347-0.12825 2.4597-2.116 0.55887-2.116-0.65512 0-0.31762-0.66069 0.75-1.4682s1.3928-1.4825 0.72251-1.5-0.97333-0.67099-0.67354-1.4522c0.35324-0.92053-0.2737-1.5765-1.7814-1.8638l-2.3264-0.44339 2.25-0.13618c2.7821-0.16839 3.0124-2.1362 0.25-2.1362-2.2058 0-2.7239-1.5748-0.75-2.2798 2.2332-0.79757 0.32774-1.5586-2.5286-1.0099-2.1676 0.41637-2.6476 0.94671-2.1826 2.4117 0.32782 1.0329 0.22821 1.8775-0.22135 1.877s-0.68717 9.2244-0.52802 20.5l0.28936 20.501 3.2106-0.0703c2.701-0.0591 2.8932-0.20669 1.2106-0.92971v1e-5zm7.75 0.33772c-0.6875-0.27741-1.8125-0.27741-2.5 0s-0.125 0.50439 1.25 0.50439 1.9375-0.22698 1.25-0.50439zm40.071-0.58772c1.5996-1.6965 1.8001-5.0521 0.35669-5.9701-0.85474-0.54362-0.80565-0.75349 0.17887-0.7646 0.77972-9e-3 1.1174-0.6398 0.79367-1.4833-0.30982-0.80739-0.13297-1.734 0.39301-2.059 1.505-0.93012 1.1208-2.2824-0.79367-2.7937-1.5031-0.40139-1.4423-0.56673 0.4308-1.1719 1.3429-0.43384 1.9704-1.2528 1.6332-2.1315-0.42013-1.0948-0.86954-1.1598-1.9308-0.27902-0.8243 0.68411-1.3832 0.74371-1.3832 0.1475 0-0.55026 1.0125-1.7068 2.25-2.57 2.1419-1.4941 2.1539-1.5735 0.25-1.6524-1.841-0.0763-1.8609-0.16388-0.25-1.1021 2.1357-1.2439 2.3371-3.0824 0.25-2.2815-0.825 0.31659-1.5 0.12995-1.5-0.41475s0.9-1.2257 2-1.5134 2-1.0455 2-1.684c0-0.70593-0.78393-0.9122-2-0.52623-1.1 0.34913-2 0.20694-2-0.31598s1.0125-1.2854 2.25-1.6943l2.25-0.74358-2.2714-0.44541-2.2714-0.44541 2.2714-1.8944 2.2714-1.8944-2.4167-0.0333c-2.8356-0.039-2.3255-0.90889 0.89695-1.5295l2.2509-0.43349-0.45315 12.465-0.45316 12.465h2.8376c1.5607 3e-5 2.8376-0.47653 2.8376-1.059s-0.45-0.7809-1-0.44098-1 0.17898-1-0.35765 0.5625-1.2039 1.25-1.4829c0.94068-0.38169 0.87881-0.76971-0.25-1.568-1.2944-0.9154-1.2601-1.0629 0.25-1.0761 0.9625-8e-3 1.75-0.46531 1.75-1.0153s-0.675-1-1.5-1-1.5-0.45-1.5-1 0.675-1 1.5-1c1.8018 0 2.0382-1.966 0.25-2.079-1-0.0632-1-0.17982 0-0.58333 0.6875-0.27741 1.25-1.1684 1.25-1.9801s-0.45-1.1976-1-0.85765-1 0.14148-1-0.44098 0.45-1.059 1-1.059 1-0.49814 1-1.107c0-0.61978-0.77022-0.83876-1.75-0.49755-1.6667 0.58043-1.6667 0.54456 0-0.75325 0.9625-0.74948 1.75-1.6506 1.75-2.0024s-0.7875-0.66828-1.75-0.70315c-1.2844-0.0465-1.121-0.31524 0.61414-1.01 1.9552-0.78288 2.1503-1.2043 1.1276-2.4366-0.85806-1.0339-0.893-1.49-0.11414-1.49 0.61734 0 1.1224-0.49878 1.1224-1.1084 0-1.3918-5.1291-0.2243-6.3161 1.4377-0.58372 0.81728-0.97296 0.84231-1.2893 0.0829-0.27823-0.66793-1.8893-0.85595-4.1739-0.4871l-3.7207 0.60072-0.64436 7.9871c-0.3544 4.3929-0.97871 11.899-1.3874 16.679l-0.74299 8.6923 2.3874-0.58995c1.3889-0.34321 2.0388-0.21451 1.554 0.3077-0.45834 0.49371-1.3208 0.89765-1.9167 0.89765s-1.2708 0.5625-1.5 1.25c-0.26141 0.78422 0.6391 1.3058 2.4167 1.3998l2.8333 0.14983-2.75 0.41659c-1.5274 0.23139-2.75 1.0539-2.75 1.8502 0 1.7642 3.7105 1.8922 5.3214 0.18358zm10.179-1.8921c0.66694-0.6673-0.14004-0.89352-2.423-0.67924-1.8826 0.17672-3.6288 0.94731-3.8804 1.7124-0.35289 1.0733 0.20065 1.2285 2.423 0.67924 1.5842-0.39154 3.3304-1.1621 3.8804-1.7124zm5.7652-0.95192c-0.30887-1.1811 0.0213-1.9176 0.8682-1.9364 0.89079-0.0198 0.73616-0.39714-0.44411-1.0837-2.6985-1.5697-4.6893-0.31987-4.6893 2.944 0 2.5081 0.31672 2.8322 2.3818 2.4374 1.7618-0.33679 2.252-0.9515 1.8834-2.3613zm7.153 2.487c2.2961-0.88109 1.9434-2.3003-0.41821-1.6828-1.1 0.28766-2 0.92053-2 1.4064 0 1.0455 0.319 1.0819 2.4182 0.27638zm-110.78-1.893c-0.31658-0.825-0.17042-1.5 0.3248-1.5 0.99885 0 0.80364-3.9503-0.28202-5.7069-0.38149-0.61726-0.12831-1.3515 0.56262-1.6316 0.97658-0.39591 0.94945-0.72394-0.12189-1.4736-0.76877-0.53794-1.0437-1.5054-0.62188-2.1879 0.42422-0.68641 0.1512-1.6068-0.62188-2.0965-0.99796-0.6321-1.0333-0.87711-0.12812-0.8882 0.6875-8e-3 1.25-0.69031 1.25-1.5153s-0.47656-1.5-1.059-1.5-0.72465-0.54101-0.31598-1.2022c0.93859-1.5187 0.60299-16.006-0.38795-16.747-0.40538-0.30306-0.73705-1.8635-0.73705-3.4677s-0.5625-3.1042-1.25-3.3333c-0.931-0.31033-1.25 1.6382-1.25 7.6353 0 6.5166-0.26876 7.9488-1.4095 7.5111-1.049-0.40255-1.1958-1.2861-0.57368-3.4551 0.49351-1.7208 0.44976-3.1528-0.10683-3.4968-0.51846-0.32042-0.65265-1.0518-0.29822-1.6253s0.0243-1.4355-0.73368-1.9156c-0.84792-0.53706-0.93323-0.87878-0.22174-0.8882 1.863-0.0247 0.34619-3.7814-1.7478-4.329-1.0486-0.27421-2.0856-0.20332-2.3044 0.15755s0.0157 6.0561 0.52116 12.656 1.1518 15.825 1.4364 20.5c0.61399 10.085 0.86605 11 3.0318 11 1.3071 0 1.5298-0.63263 1.0564-3-0.33-1.65-0.23645-3 0.20788-3 0.68386 0 0.75644-3.3906 0.10703-5-0.11096-0.275-0.12471-0.90876-0.0305-1.4084s-0.41505-1.2871-1.1316-1.75c-0.98072-0.63357-1.0115-1.0307-0.12467-1.6062 1.3799-0.89557 1.2661-4.4023-0.17812-5.4854-0.62745-0.47059-0.44118-1.1226 0.5-1.75 1.2278-0.81856 1.258-1.1562 0.16615-1.8608-1.0945-0.70638-1.0751-0.96013 0.1084-1.4143 1.1548-0.44314 1.5689 1.0738 2.0778 7.6108 0.34959 4.4904 0.63831 10.279 0.64161 12.865 4e-3 3.4171 0.48374 4.9786 1.756 5.7196 2.3567 1.3727 2.559 1.3277 1.8884-0.4199h-4e-5zm8.3616 0.53943c0-0.52832-0.63294-1.5408-1.4065-2.25-1.2046-1.1044-1.1688-1.5616 0.25-3.1855 1.3359-1.5292 1.3927-1.988 0.29338-2.371-1.1509-0.40099-1.1509-0.61183 0-1.3539s1.1479-1.0178 6e-3 -1.754c-0.99096-0.63908-1.0453-1.0675-0.20144-1.589s0.8563-1.0743 0.065-2.0278c-0.80033-0.96434-0.74675-1.4516 0.20144-1.832 0.82147-0.3296 0.65463-0.54704-0.45826-0.59724-2.2047-0.09948-2.3261-2.079-0.12715-2.079 1.2152 0 1.3525-0.32528 0.54699-1.2958-0.59151-0.71272-0.89298-2.7377-0.66995-4.5s-0.04968-3.2042-0.60601-3.2042-0.76555-0.39796-0.46494-0.88436c0.64999-1.0517 0.83847-8.7762 0.28343-11.616-0.25764-1.318-1.3407-2.112-3.1763-2.3285l-2.7853-0.32846 0.60255 8.3285c0.3314 4.5807 0.89132 13.166 1.2443 19.078s1.0238 10.75 1.4909 10.75 0.59014 0.675 0.27356 1.5c-0.89308 2.3273 0.36561 4.5 2.607 4.5 1.1173 0 2.0314-0.43226 2.0314-0.96057zm7.0818-0.03943c0.50501 0 0.91821-0.45 0.91821-1s-0.9-1-2-1-2-0.48032-2-1.0674c0-0.61231 0.85269-0.79675 2-0.43261 2.0792 0.65992 2.7949-0.89069 0.94016-2.037-0.66978-0.41395-0.39375-1.16 0.75-2.0272 1.7268-1.3093 1.7181-1.3744-0.19016-1.4193-1.6716-0.0394-1.7537-0.21191-0.5-1.0508 1.3075-0.87487 1.2686-1.1808-0.303-2.3837-1.3508-1.0338-1.4762-1.5116-0.5-1.9049 1.0236-0.41231 0.98132-0.75237-0.197-1.5857-0.825-0.58345-1.0125-1.0677-0.41667-1.0761s1.0833-1.3653 1.0833-3.0153-0.4301-3-0.95578-3-0.36712-0.7093 0.35236-1.5762c1.0718-1.2914 1.0734-1.7213 9e-3 -2.3789-1.054-0.65138-1.0418-0.91984 0.0643-1.4238 1.0612-0.4835 1.0849-0.7507 0.10692-1.2065-0.69093-0.32198-0.93723-1.1016-0.54734-1.7324 1.0334-1.672 1.1085-4.6822 0.11689-4.6822-0.46884 0-0.64862-1.124-0.39952-2.4977 0.3639-2.0068-0.0345-2.62-2.027-3.1201-1.364-0.34233-2.7476-0.35478-3.0747-0.0277s-0.10603 8.8187 0.4913 18.87c1.4976 25.2 1.3539 24.313 3.7868 23.379 0.86564-0.33202 1.9868-0.60371 2.4919-0.60371zm55.751-0.55283c0.36707-0.39654 0.0861-0.92813-0.62433-1.1813-1.0253-0.36539-1.0386-0.76539-0.0643-1.9393s0.96365-1.642-0.0421-2.2636c-0.94813-0.58598-0.80526-0.96452 0.5643-1.4952 1.7584-0.68134 1.754-0.76937-0.10728-2.1392-1.689-1.243-1.7215-1.4286-0.25-1.4286 2.2482 0 2.1905-1.9909-0.0589-2.0318-1.6419-0.0298-1.6386-0.11627 0.053-1.399 1.35-1.0236 1.4756-1.4991 0.5-1.8921-1.024-0.41248-0.98181-0.7553 0.197-1.601 1.2287-0.88148 1.2587-1.2318 0.16615-1.937-1.0681-0.68932-1.0056-0.98677 0.31339-1.4929 1.0206-0.39165 1.3479-1.1103 0.86027-1.8892-1.1007-1.7582-1.0252-4.118 0.16019-5.0071 0.63483-0.47612 0.50222-1.071-0.36315-1.629-1.1509-0.74207-1.1509-0.95034 0-1.3374s1.1475-0.71971-9e-3 -2.121c-1.192-1.444-1.1328-1.6626 0.45-1.6626 1.0794 0 1.4351-0.34677 0.87244-0.85048-0.5225-0.46776-2.8191-0.64964-5.1035-0.40416l-4.1535 0.44631 0.13708 5.1542c0.0754 2.8348-0.17696 8.3042-0.56078 12.154s-0.98657 9.8781-1.3394 13.396l-0.64158 6.3959 4.1885-0.5618c2.3037-0.30898 4.4888-0.88623 4.8559-1.2828h-2.7e-4zm-82.239-0.59887c0.39148-0.63344-0.11161-1.7538-1.118-2.4897-2.2459-1.6423-2.5595-1.3949-1.8195 1.435 0.63231 2.4179 1.8293 2.8477 2.9375 1.0546zm107.14-1.4756c1.2313-0.33002 2.0386-0.92385 1.794-1.3196-0.61474-0.99467-6.5328-0.034-6.5328 1.0605 0 1.0252 1.562 1.1106 4.7388 0.25916zm16.261-0.81364c0-0.79254-0.52694-1.7666-1.171-2.1647-0.7759-0.47954-0.43852-0.99466 1-1.5268 2.4722-0.91451 2.9291-2.8675 0.67097-2.8675-1.9411 0-1.894-0.99245 0.18793-3.9648 1.2039-1.7188 1.3455-2.524 0.49377-2.8079-1.4662-0.48872-0.53852-2.2272 1.1884-2.2272 0.85098 0 1.2325 1.6753 1.191 5.2295-0.0492 4.2086 0.27985 5.2965 1.6854 5.5726 1.2409 0.24378 1.5718-0.11216 1.143-1.2295-0.36407-0.94876-0.0652-1.5853 0.75351-1.6044 0.93079-0.0218 0.78544-0.46506-0.46278-1.4113-1.7597-1.3339-1.7597-1.4148 0-2.4499 1.5801-0.92946 1.6222-1.2025 0.31977-2.0734-1.2868-0.86039-1.2512-1.0052 0.25-1.0183 0.9625-8e-3 1.75-0.46531 1.75-1.0153s-0.7875-1.0143-1.75-1.0318c-1.5627-0.0284-1.5365-0.19313 0.24513-1.5395 1.5303-1.1564 1.694-1.6938 0.70266-2.3065-1.0233-0.63242-0.96035-1.0744 0.30221-2.1222 1.2701-1.0541 1.3306-1.494 0.29733-2.1617-1.0524-0.68001-1.0371-1.006 0.0808-1.7265 0.75796-0.4885 1.0689-1.3885 0.69098-2s-0.21058-1.1118 0.37188-1.1118c1.7408 0 1.1974-1.8172-0.69098-2.3107-1.579-0.41265-1.5686-0.46866 0.10699-0.57333 1.3056-0.0816 1.6667-0.61188 1.2161-1.786-0.35247-0.91853-0.0631-2.0778 0.64301-2.5761 1.0348-0.73033 1.0195-1.0118-0.0793-1.451-1.1509-0.46006-1.1509-0.67942 0-1.4086 1.0042-0.63622 0.77993-0.86767-0.85167-0.87895-3.0996-0.0214-3.9366 2.17-4.7681 12.485-0.39906 4.95-0.9041 9.2952-1.1223 9.6561s-1.3476 0.40747-2.5098 0.10355c-1.834-0.47961-1.8999-0.67182-0.49901-1.4558 2.1118-1.1818 2.0526-2.5401-0.13599-3.1245-1.4892-0.39768-1.4182-0.57409 0.47611-1.1837 1.7787-0.5724 2.0315-1.0799 1.258-2.5253-0.67882-1.2684-0.59697-1.9825 0.27389-2.3896 0.98692-0.46141 0.98528-0.70048-8e-3 -1.164-1.7499-0.81664-1.5611-2.4167 0.2852-2.4167 1.1829 0 1.3084-0.42384 0.54681-1.8468-0.67749-1.2659-0.63089-2.2043 0.14815-2.9833 1.6782-1.6782 0.56045-2.2079-2.7804-1.3179-2.77 0.73797-2.9935 1.1777-3.6679 7.2169-0.395 3.5371-0.94415 12.394-1.2204 19.681-0.48082 12.687-0.41841 13.25 1.4682 13.25 1.0837 0 1.9703-0.64844 1.9703-1.441zm6-1.559c0-0.55-0.70156-1-1.559-1s-1.2809 0.45-0.94098 1 1.0415 1 1.559 1 0.94098-0.45 0.94098-1zm-140-1c0-0.55-0.47656-1-1.059-1s-0.7809 0.45-0.44098 1 0.81648 1 1.059 1 0.44098-0.45 0.44098-1zm9.7165-3.5c0.0434-2.7438-0.37527-4.506-1.0727-4.5153-0.62911-8e-3 -0.46884-0.45842 0.35616-1 1.3333-0.87528 1.3333-1.0958 0-1.9847-1.2954-0.86357-1.3041-1.126-0.0643-1.9238 1.1898-0.76557 1.2116-1.1938 0.12755-2.5-0.71948-0.86692-0.97294-1.5762-0.56325-1.5762s0.15623-0.7093-0.56325-1.5762c-1.0841-1.3062-1.0622-1.7344 0.12755-2.5 1.1981-0.77091 1.2112-1.0686 0.0789-1.7988-0.87526-0.56447-0.98853-1.1026-0.31917-1.5163 0.57067-0.35269 0.79124-1.8714 0.49016-3.375s-0.56996-3.9712-0.5975-5.4837-0.48016-2.75-1.0058-2.75-0.39558-0.675 0.28911-1.5c0.75377-0.90823 0.83434-1.5 0.20423-1.5-0.57236 0-1.738-0.26759-2.5903-0.59464-1.3583-0.52122-1.4742 0.59003-0.93875 9 0.46699 7.3349 0.31646 9.5946-0.63916 9.5946-0.68752 0-1.012-0.62017-0.72118-1.3781s0.024-1.883-0.59301-2.5c-0.82911-0.82915-0.77677-1.1219 0.20062-1.1219 0.875 0 1.0156-0.42294 0.41551-1.25-0.49882-0.6875-0.87847-3.1625-0.84366-5.5 0.0419-2.8174-0.36778-4.25-1.2155-4.25-1.9208 0-1.5384-1.7994 0.47121-2.2171 1.394-0.28977 1.2764-0.49322-0.57847-1.0002l-2.3285-0.63646 0.64393 7.6769c0.35415 4.2223 0.88829 9.4769 1.187 11.677 2.0867 15.371 2.9842 19.886 4.0214 20.232 0.77463 0.25821 1.0543-0.57495 0.81203-2.419-0.20327-1.5471-0.43851-2.8128-0.52275-2.8128s-0.29908-1.9114-0.47743-4.2475c-0.54129-7.0903 1.2809-5.7582 2.0358 1.4883 1.073 10.299 4.0371 14.389 4.1735 5.7592zm-7.7165-14.5c0-0.55 0.42344-1 0.94098-1s1.2191 0.45 1.559 1-0.0835 1-0.94098 1-1.559-0.45-1.559-1zm116.43 17.479c2.3073-1.7456 1.9362-2.2559-2.2499-3.0931-2.9239-0.58479-3.1771-0.42627-3.1771 1.9896 0 3.0064 2.295 3.473 5.427 1.1035zm27.474-1.7285c0.11312-1.7875 0.24294-3.925 0.28849-4.75 0.0455-0.825 0.49333-2.0224 0.99507-2.661 0.56344-0.71707 0.50509-1.4126-0.15262-1.8191-1.2042-0.74425-0.43803-2.5199 1.0873-2.5199 0.63902 0 0.75187 2.5337 0.31177 7-0.48689 4.9412-0.35765 7 0.43945 7 0.62107 0 1.2062-1.6875 1.3003-3.75s0.21508-4.65 0.2689-5.75c0.12427-2.5399 1.9408-2.4866 2.4257 0.0711 0.40526 2.1376 2.1043 3.5654 3.3366 2.8039 0.43876-0.27117 0.80026-1.929 0.80333-3.684s0.41773-4.766 0.92147-6.691 1.4841-6.875 2.1786-11 1.4378-6.7125 1.6518-5.75c0.56166 2.5259 2.24 2.154 2.2561-0.5 8e-3 -1.2375 0.3034-3.3329 0.65753-4.6564 0.45143-1.6872 0.29792-2.1926-0.51366-1.691-0.63663 0.39346-1.1718 1.7013-1.1893 2.9064-0.03 2.069-0.10811 2.0904-1.4024 0.38337-1.2488-1.6471-1.4314-1.4473-2.0561 2.25-0.37704 2.2317-1.096 4.0576-1.5976 4.0576-1.1134 0-1.1143 0.19176 0.0181-3.7566 0.53651-1.8707 0.55283-3.2434 0.0386-3.2434-1.011 0-2.5271 5.4399-3.2748 11.75-0.63855 5.3888 0.90186 5.602 1.8061 0.25 0.37169-2.2 1.1344-4 1.6949-4s0.74986 0.7016 0.4208 1.5591-1.3897 5.695-2.357 10.75c-1.4931 7.8029-1.8076 8.5868-2.0825 5.1909-0.17812-2.2-1.0354-4.7875-1.905-5.75-1.4444-1.5986-1.438-1.75 0.0738-1.75 0.91025 0 1.655 0.47656 1.655 1.059s0.45 0.7809 1 0.44098c1.6264-1.0052 1.1486-2.2279-1.1006-2.8161-1.4008-0.36631-1.8354-0.97841-1.3046-1.8372 0.43779-0.70836 0.942-3.1012 1.1205-5.3173s0.45475-5.7258 0.61397-7.7992c0.56322-7.3345-1.8151-3.0711-2.9849 5.3508-1.6706 12.027-1.6404 14.919 0.15569 14.919 0.825 0 1.5 0.45 1.5 1 0 1.2478-0.22741 1.2442-3.651-0.0574-2.2349-0.84971-2.4932-1.2426-1.3151-2 1.284-0.82551 1.2798-1.0649-0.0339-1.9273-1.159-0.76086-1.1916-0.98817-0.14301-1 0.74664-8e-3 1.1164-0.64216 0.82218-1.409s0.0596-4.254 0.7862-7.75c0.78599-3.7819 0.94236-6.4969 0.38608-6.7036s-0.54291-0.8196 0.0557-1.5409c1.4852-1.7895 2.5074-8.414 1.079-6.9926-0.61863 0.61562-1.2188 1.7406-1.3336 2.5s-0.53402 1.9008-0.93148 2.5365c-1.0747 1.7188-4.9067 28.526-4.3707 30.576 0.25402 0.97135 0.0541 2.0181-0.44427 2.3261s-0.90612 2.1085-0.90612 4.001c0 4.5428 2.615 4.7149 2.9013 0.19098l3e-5 -2e-5zm-150.9 1.25c0-0.55-0.47656-1-1.059-1s-0.7809 0.45-0.44098 1 0.81648 1 1.059 1 0.44098-0.45 0.44098-1zm133.53 0.0437c-0.32507-0.52598-1.3641-0.71989-2.309-0.43093s-0.59297-0.16474 0.78203-1.0082c2.7745-1.7021 2.7864-1.6885-1.6814-1.9315-2.5737-0.13998-3.2635 0.25672-3.6113 2.077-0.38676 2.0238-0.0359 2.25 3.4904 2.25 2.2396 0 3.6669-0.41001 3.3293-0.95633zm-128.75-6.0092c-0.20546-2.731-0.6581-5.25-1.0059-5.5978s-0.39018-1.2633-0.0942-2.0346-0.0152-1.4022-0.69135-1.4022c-0.91512 0-0.94469-0.34309-0.11566-1.342 0.61257-0.7381 0.79803-1.6578 0.41213-2.0436s-0.79434-2.3695-0.90764-4.408c-0.50448-9.0768-1.9734-19.14-2.9342-20.1-0.24158-0.24156-0.43922 3.6858-0.43922 8.7275 0 9.8294-1.342 12.728-1.7396 3.7574-0.26709-6.0258-1.6699-10.591-3.2547-10.591-0.57409 0-0.83573 1.0125-0.58141 2.25s0.74658 5.625 1.0939 9.75 1.02 9.525 1.4947 12 1.1436 6.6375 1.4864 9.25c0.42106 3.2094 1.096 4.75 2.081 4.75 1.0938 0 1.2825-0.68662 0.75585-2.75-0.38606-1.5125-0.6476-3.5375-0.5812-4.5s-0.4138-1.7569-1.0671-1.7653c-0.71254-9e-3 -0.58764-0.40933 0.31215-1 0.99859-0.65553 1.1452-1.2354 0.43856-1.7347-1.1921-0.84234-1.4184-5.25-0.26959-5.25 0.40722 0 1.0024 1.6875 1.3227 3.75s0.99634 5.2868 1.5024 7.165 0.67448 3.8123 0.37437 4.2979c-0.77046 1.2466 0.35315 3.7871 1.675 3.7871 0.70986 0 0.97233-1.779 0.73261-4.9654zm-7.276-17.035c0.33992-0.55 1.0415-1 1.559-1s0.94098 0.45 0.94098 1-0.70156 1-1.559 1-1.2809-0.45-0.94098-1zm163.5 19.441c0-0.24254-0.45-0.44098-1-0.44098s-1 0.47656-1 1.059 0.45 0.7809 1 0.44098 1-0.81648 1-1.059zm-165-1.941c0-1.375-0.45-2.5-1-2.5-1.1172 0-1.3707 3.296-0.33333 4.3333 1.1023 1.1023 1.3333 0.78473 1.3333-1.8333zm-6.3958-1.2292c-0.3323-0.33229-0.56864 0.25834-0.52522 1.3125 0.048 1.165 0.28494 1.4019 0.60416 0.60417 0.28887-0.72188 0.25335-1.5844-0.0789-1.9167h-4e-5zm143.9 0.72917c0.33992-0.55-0.19602-1.0143-1.191-1.0318-1.7404-0.0306-1.74-0.0842 0.0108-1.4113 1.7597-1.3339 1.7597-1.4144 0-2.4378-1.6895-0.98258-1.6945-1.0605-0.0698-1.0887 0.9625-0.0167 1.75-0.70541 1.75-1.5304s-0.7875-1.516-1.75-1.5354c-1.3272-0.0269-1.1459-0.37184 0.75-1.4277 2.2882-1.2743 2.3425-1.4534 0.64054-2.1136-1.6755-0.64994-1.6981-0.81158-0.22897-1.6338 0.89677-0.50186 1.3649-1.3422 1.0404-1.8673s-1.009-0.69596-1.521-0.37952-0.9309 0.0988-0.9309-0.48369 0.675-1.059 1.5-1.059c1.7996 0 2.044-1.9862 0.25-2.0318-0.77556-0.0197-0.59899-0.52637 0.4652-1.3348 1.2686-0.96368 1.4228-1.5954 0.59238-2.4258s-0.78948-1.5245 0.15725-2.6652c1.0926-1.3165 0.93257-1.5401-1.0924-1.5271-4.9883 0.0322-5.2622 0.88627-6.3277 19.735l-0.52292 9.25h2.9301c1.6115 0 3.2082-0.45 3.5481-1h-2e-5zm-138.81-7.75c-0.25153-0.9625-0.45733-0.175-0.45733 1.75s0.2058 2.7125 0.45733 1.75 0.25152-2.5375 0-3.5zm-9.1347-8.8884c-0.32601-1.2989-1.023-2.3616-1.5489-2.3616-0.60629 0-0.60355 0.92753 7e-3 2.5347 0.53003 1.3941 0.9156 2.8566 0.85683 3.25s0.0184 1.8403 0.1716 3.2153c0.22292 2.0014 0.36096 1.8242 0.6921-0.88837 0.2275-1.8636 0.14691-4.4511-0.17909-5.75h4.9e-4zm5.9737 6.8884c-0.37708-0.9625-0.88679-3.775-1.1327-6.25s-0.62608-5.4-0.84487-6.5-0.43224-2.6106-0.47432-3.357c-0.0442-0.78356-0.71037-1.1138-1.5765-0.78138-1.4504 0.55658-2.001-0.93803-1.5516-4.212 0.10632-0.77454-0.29864-1.0512-0.94969-0.64885-0.62428 0.38583-0.8935 1.331-0.59827 2.1004s-0.0116 1.4344-0.68182 1.4778c-0.92473 0.0599-0.91716 0.20059 0.0314 0.58333 0.6875 0.27741 1.25 1.1419 1.25 1.921s0.675 1.4167 1.5 1.4167c1.8018 0 2.0491 3.9866 0.25 4.0304-0.69372 0.0169-0.47121 0.48401 0.5 1.0497 0.9756 0.56823 1.756 2.2142 1.7636 3.7196 0.0194 3.8387 1.0512 7.2003 2.21 7.2003 0.5447 0 0.68183-0.7875 0.30475-1.75h-2e-5zm174.47 0.19098c0-0.85746-0.45-1.2809-1-0.94098s-1 1.0415-1 1.559 0.45 0.94098 1 0.94098 1-0.70156 1-1.559zm-171.48-1.691c-0.22723-0.6875-0.64896-3.725-0.93718-6.75-1.0308-10.818-1.7526-15.473-2.6326-16.975-1.2324-2.1038-1.2178-0.90749 0.14586 11.975 1.2789 12.081 1.4794 13 2.8371 13 0.55 0 0.81409-0.5625 0.58686-1.25zm172.48-2.809c0-0.51754-0.45-0.94098-1-0.94098s-1 0.70156-1 1.559 0.45 1.2809 1 0.94098 1-1.0415 1-1.559zm3-1.941c0-0.55-0.45-1-1-1s-1 0.45-1 1 0.45 1 1 1 1-0.45 1-1zm-1.691-7.309c-0.30746-0.49748-0.92308-0.31545-1.368 0.40451s-0.55746 1.716-0.25 2.2135 0.92308 0.31545 1.368-0.40451 0.55746-1.716 0.25-2.2135zm2.2952-2.4202c-0.33229-0.33229-0.56864 0.25834-0.52522 1.3125 0.048 1.165 0.28494 1.4019 0.60416 0.60417 0.28887-0.72188 0.25335-1.5844-0.0789-1.9167h-4e-5zm-82.063 0.66264c0.36253-0.58659 0.50159-1.1977 0.30902-1.3581-0.79727-0.66386-7.8501 0.71436-7.8501 1.534 0 1.266 6.7472 1.1086 7.5411-0.17594zm10.795-1.1528c2.772-1.4236 1.4185-1.9249-3.2022-1.186-2.5472 0.40732-4.1335 1.1949-4.1335 2.0522 0 1.4673 3.6253 1.0392 7.3356-0.86621zm17.362-0.57236c0.67099-0.42655 0.85429-1.3159 0.41704-2.0234-0.58359-0.94426-1.4674-1.0011-3.5074-0.22548-1.5 0.57029-2.4486 1.4877-2.108 2.0388 0.72889 1.1794 3.4977 1.2913 5.1984 0.21016zm7.9436-1.2083c0.26248 0 0.19912-0.45-0.1408-1-0.98476-1.5934-3.5-1.1572-3.5 0.60699 0 1.0545 0.5438 1.3983 1.5818 1 0.86998-0.33385 1.7965-0.60699 2.059-0.60699zm-135.66-3.25c-0.0168-3.5685-1.3869-6.5262-2.3222-5.013-0.82173 1.3296 0.41032 8.263 1.4683 8.263 0.47804 0 0.86227-1.4625 0.85385-3.25zm89.279 2.5461c-1.2299-0.23736-3.4799-0.24351-5-0.0136s-0.51375 0.42406 2.2362 0.43157 3.9937-0.18056 2.7638-0.41792v-5e-5zm11.736-0.30789c0-0.62582-1.6213-0.76348-4.25-0.36084-5.8242 0.89211-5.9701 1.3727-0.41667 1.3727 2.5667 0 4.6667-0.45532 4.6667-1.0118zm82-0.5472c0-0.85746-0.45-1.2809-1-0.94098s-1 1.0415-1 1.559 0.45 0.94098 1 0.94098 1-0.70156 1-1.559zm-71-0.4528c0-0.62582-1.6213-0.76348-4.25-0.36084-5.8242 0.89211-5.9701 1.3727-0.41667 1.3727 2.5667 0 4.6667-0.45532 4.6667-1.0118zm31.75-0.23818c-0.22917-0.6875-1.0167-1.25-1.75-1.25s-1.5208 0.5625-1.75 1.25c-0.24786 0.74359 0.46111 1.25 1.75 1.25s1.9979-0.50641 1.75-1.25zm-74.562-0.43311c-0.72188-0.28887-1.5844-0.25335-1.9167 0.0789s0.25834 0.56864 1.3125 0.52522c1.165-0.048 1.4019-0.28494 0.60417-0.60416v4e-5zm23.312-0.31689c-0.33992-0.55-0.81648-1-1.059-1s-0.44098 0.45-0.44098 1 0.47656 1 1.059 1 0.7809-0.45 0.44098-1zm37.96-1.0648c-0.2882-0.46632-1.1846-0.59436-1.992-0.28454s-1.468 0.06517-1.468-0.54367-0.675-1.107-1.5-1.107-1.5 0.80964-1.5 1.7992c0 1.4666 0.64552 1.7238 3.492 1.3915 1.9206-0.22422 3.2562-0.7892 2.968-1.2555zm-75.856-1.6644c-1.0165-1.0165-1.8552 0.51389-1.0212 1.8634 0.63003 1.0194 0.86558 1.0202 1.2043 4e-3 0.2316-0.69479 0.14921-1.5351-0.18308-1.8674v4e-5zm30.034 1.2292c-0.31658-0.825-0.15385-1.5 0.36163-1.5s0.69584-0.62905 0.40081-1.3979c-0.9166-2.3886 3.583-5.5907 8.0378-5.72 2.2338-0.0648 5.6364-0.2689 7.5614-0.45349s4.2668-0.38607 5.204-0.44774 3.061-1.6576 4.7194-3.5465 3.4304-3.4344 3.9376-3.4344 1.2178-1.1781 1.5792-2.618 0.89298-2.3821 1.1813-2.0938 0.07 2.1694-0.48523 4.1802c-1.3198 4.78 0.70741 4.3458 2.4687-0.52879 1.4624-4.0474 1.798-2.8318 0.48352 1.7516-0.73786 2.5728-0.64263 3.0749 0.5 2.6364 0.7763-0.2979 1.4114-0.0856 1.4114 0.47174s0.81172 0.8011 1.8038 0.54166 4.6671 0.18978 8.1667 0.99826 6.8562 1.2807 7.4592 1.0493 1.7059-1.7979 2.451-3.4812 2.0892-3.3307 2.987-3.661 1.9629-1.0833 2.367-1.6734 0.74158 0.16456 0.75 1.6771-0.46125 2.75-1.0437 2.75-0.7809-0.45-0.44098-1-0.0835-1-0.94098-1-1.559 0.4132-1.559 0.91821-0.26376 1.6056-0.58613 2.4456c-0.4983 1.2986-0.15099 1.3632 2.3178 0.43132 1.9583-0.73917 3.6234-2.5939 5.1133-5.6956 1.2151-2.5298 1.9702-3.7702 1.6779-2.7566-1.9055 6.6083-1.9253 7.2153-0.18873 5.7847 0.91623-0.75485 1.6659-1.9658 1.6659-2.691s0.49821-1.6264 1.1071-2.0028c0.72804-0.44995 0.89773-0.0245 0.49558 1.2426-0.5262 1.6579 0.12184 2.0778 4.6429 3.0082 4.6554 0.95803 5.5679 0.85888 8.0044-0.8697 3.3024-2.343 3.6782-1.4098 0.5 1.2416-2.2126 1.8458-2.2155 1.8776-0.17431 1.9103 1.1416 0.0183 3.1309-1.09 4.4206-2.4628s2.5699-2.271 2.8449-1.996-0.55522 1.6232-1.8449 2.996c-1.9138 2.0372-2.0418 2.4961-0.69629 2.4961 2.2823 0 4.997-5.6626 5.1078-10.654 0.0507-2.2848 0.42971-3.9458 0.84221-3.691 1.1076 0.68411 0.91083 7.1762-0.28518 9.411-0.76376 1.4271-0.71132 1.9343 0.2 1.9343 0.96069 0 0.96851 0.26667 0.0352 1.2-1.6309 1.6309-1.5145 2.8579 0.20844 2.1968 0.77465-0.29726 1.9519-1.8524 2.6161-3.4559s1.6398-2.6483 2.1682-2.3218c0.90975 0.56226 4.8074-2.8182 4.8074-4.1695 0-0.34874 0.9-1.7782 2-3.1767 1.2604-1.6024 2.0023-4.0643 2.0062-6.6577l6e-3 -4.1151 1.4391 2.7588c1.2541 2.4041 1.2516 3.2078-0.0196 6.25-1.5803 3.7822-1.0192 4.5261 1.3134 1.7412 1.0701-1.2777 1.0384-1.0264-0.11757 0.93095-1.4647 2.4802-1.4539 2.7077 0.14451 3.0382 1.027 0.21237 2.6404-0.85245 3.9778-2.6252 2.3752-3.1482 2.9217-5.594 1.2502-5.594-0.55 0-0.94671-0.3375-0.88158-0.75 0.48749-3.0874-0.37118-5.5033-2.1184-5.9602-1.1-0.28766-2-0.92053-2-1.4064s-1.9573-0.88337-4.3495-0.88337c-3.1106 0-5.5441-0.80232-8.5435-2.8167l-4.194-2.8167-4.4415 4.3167c-2.4428 2.3742-5.2357 4.3317-6.2065 4.35-1.5215 0.0287-1.4546 0.29229 0.48494 1.9103 1.2375 1.0324 2.25 2.3674 2.25 2.9667s0.47656 1.0897 1.059 1.0897 0.75121 0.49804 0.375 1.1068c-0.47943 0.77573-0.92804 0.71193-1.4999-0.2133-0.44872-0.72603-2.53-1.8519-4.625-2.5019-2.989-0.92739-3.2888-1.2044-1.3925-1.2867 3.6758-0.15948 1.7966-1.2283-4.6322-2.6346-5.0679-1.1086-5.3509-1.2867-2.2845-1.4381 2.8381-0.14009 3.1218-0.32489 1.5-0.97718-2.2085-0.88826-7.6303-0.39785-11.5 1.0402-3.2237 1.198-17.062 1.8142-16.392 0.72995 0.28047-0.45382 2.8459-0.82135 5.7009-0.81673 2.855 5e-3 8.2382-0.77256 11.963-1.727 6.4183-1.6449 7.0253-1.6453 11.634-8e-3 5.6348 2.0013 6.7383 2.0956 8.3864 0.71617 0.66428-0.55599 2.469-1.9573 4.0104-3.114 3.4864-2.6162 2.9681-3.4184-0.90388-1.3992-1.5943 0.83145-3.5738 1.5142-4.3988 1.5171-0.825 3e-3 0.41058-0.94035 2.7457-2.0962s4.0276-2.4545 3.761-2.8859 0.19087-1.345 1.0166-2.0303c1.0807-0.89691 1.206-1.6018 0.44725-2.5161-0.74469-0.89731-0.72252-1.3806 0.0755-1.6466 2.0314-0.67712 3.017-9.3412 1.5387-13.526-1.071-3.0321-1.7909-3.7391-3.5941-3.5299-1.9236 0.22318-2.0677 0.03598-0.98033-1.2742 1.7724-2.1357 0.44924-3.09-1.5342-1.1065-2.0506 2.0506-3.138 2.1214-1.4561 0.09488 0.69572-0.83829 0.93914-1.85 0.54094-2.2482s-1.6249 0.51267-2.7259 2.0242-2.682 2.7478-3.5132 2.7478-4.6286 0.94685-8.4387 2.1041c-4.7486 1.4423-7.3135 1.7889-8.1552 1.1019-0.76905-0.62767-3.2832-0.6963-6.7279-0.18368-3.025 0.45018-8.875 1.0819-13 1.4038-18.446 1.4395-39.734 2.8207-42.25 2.7412-1.7837-0.0563-2.75 0.42606-2.75 1.3729 0 1.1175-1.4069 1.4597-6 1.4597-3.3333 0-6-0.44444-6-1 0-0.55 0.5625-1.0778 1.25-1.1729s-3.7-0.47734-9.75-0.84944-15.239-1.6433-20.419-2.8249-9.5714-1.9958-9.7577-1.8095c-0.44888 0.44888 14.955 4.6567 17.047 4.6567 0.89634 0 1.6297 0.45 1.6297 1s-0.27311 1-0.60692 1c-2.0654 0-15.32-3.4105-17.393-4.4755-1.375-0.70623-4.975-2.0118-8-2.9012s-6.625-2.5301-8-3.6459l-2.5-2.0288 3 0.60465 3 0.60465-2.5-2.0553c-1.375-1.1304-2.95-1.9297-3.5-1.7762-1.1892 0.33184-5.5854 9.1531-8.0603 16.174-2.134 6.0534-8.0158 12.265-12.454 13.153-4.7239 0.94477-10.059 7.0715-11.683 13.416-0.73602 2.876-1.1053 5.4621-0.82058 5.7468 0.63444 0.63444 0.56115 0.74782 3.2746-5.0657 1.2194-2.6125 2.6593-4.75 3.1999-4.75s-0.12858 1.6378-1.487 3.6396-2.476 4.1392-2.4835 4.75-0.285 2.123-0.61664 3.3604c-0.99013 3.6947 1.2364 2.5463 2.9085-1.5 1.4062-3.4029 1.5051-3.4723 1.0694-0.75l-0.4802 3 5.7307 0.16801c4.0566 0.11893 5.9893 0.63015 6.616 1.75 1.3746 2.4564 2.7844 1.8686 2.8013-1.168 8e-3 -1.5125 0.49209-3.425 1.0748-4.25 0.78793-1.1155 0.89974-0.5344 0.43619 2.267-0.74384 4.4953 0.53095 7.4966 1.5813 3.7229l0.69303-2.4899 0.0997 2.691c0.12296 3.3194 2.0937 4.827 2.115 1.618 8e-3 -1.27 0.46899-2.984 1.0235-3.809 0.70874-1.0545 0.82505-0.015 0.39164 3.5l-0.61653 5 3.1933 0.21761c2.843 0.19374 3.132-0.0266 2.6347-2.0083-0.30727-1.2242-0.13429-2.8972 0.38441-3.7176 0.72766-1.151 0.94657-0.87701 0.95839 1.1993 8e-3 1.48 0.47265 2.9736 1.0316 3.3191 1.6386 1.0127 0.0757 2.4899-2.6343 2.4899-1.375 0-2.251 0.40281-1.9468 0.89514 0.32148 0.52017 2.2312 0.46921 4.559-0.12164 3.8026-0.9652 5.107-2.2105 3.0797-2.9402-0.50936-0.18333-1.1937-1.6833-1.5208-3.3333-0.55157-2.7823-0.50957-2.8368 0.57888-0.75 0.64548 1.2375 1.5548 2.25 2.0208 2.25s0.84719 0.675 0.84719 1.5c0 0.84198 0.8928 1.5 2.0352 1.5 1.1194 0 3.1098 0.70414 4.4233 1.5648 2.2969 1.505 2.371 1.4764 1.9387-0.75l-0.44943-2.3148 1.1789 2.25c1.3988 2.6696 5.8733 3.1477 5.8733 0.62756 0-1.3288 0.27149-1.3971 1.5-0.37756 0.825 0.68469 1.5 0.89504 1.5 0.46746s0.9 0.0371 2 1.0325c1.3641 1.2345 2 1.3999 2 0.52013 0-0.70942 0.93266-0.10416 2.0726 1.345 2.4872 3.162 4.4835 3.5425 2.8816 0.54921-0.61391-1.1471-0.89583-2.306-0.62649-2.5754s0.78628 0.44468 1.1488 1.5867c0.6526 2.0562 4.2545 4.6768 5.1698 3.7614 0.26123-0.26123-0.67731-1.6272-2.0856-3.0356s-2.5251-3.3686-2.4817-4.3561c0.0613-1.3943 0.20218-1.4603 0.63049-0.29545 0.75755 2.0603 3.406 5 4.5046 5 0.49722 0 0.59817-0.4949 0.22434-1.0998-0.45766-0.7405 0.0411-0.71403 1.5266 0.081 2.5871 1.3846 3.8098 0.65715 2.1854-1.3001-0.89176-1.0745-0.59105-1.6149 1.4046-2.5242 3.0991-1.412 3.4451-1.4278 3.4451-0.15693 0 0.55-0.675 1-1.5 1s-1.5 0.45-1.5 1c0 1.3218 1.3285 1.2715 2.7022-0.10223 0.80296-0.80296 1.8754-0.54862 3.95 0.93679 1.5663 1.1215 4.6478 2.18 6.8478 2.3522 3.6596 0.28656 3.9731 0.11984 3.6834-1.959-0.47777-3.4287 2.1868-2.3045 2.9892 1.2611 0.3699 1.6439 0.28116 3.2307-0.19721 3.5264-0.4853 0.29993-0.45784 1.1889 0.0621 2.0112 0.51255 0.81049 0.9388 2.4861 0.94722 3.7236 9e-3 1.3936 0.627 2.25 1.6223 2.25 1.0176 0 1.3959-0.55016 1.0314-1.5h3e-5zm-1.6384-8.941c0-0.24254 0.45-0.7191 1-1.059s1-0.14148 1 0.44098-0.45 1.059-1 1.059-1-0.19844-1-0.44098zm55.22-5.125c1.4958-1.5554 2.9528-2.5949 3.2377-2.31s-0.93896 1.5575-2.7197 2.828l-3.2377 2.31 2.7197-2.828zm-104.02-0.93405c-0.0204-1.65 0.18706-2.4461 0.46099-1.769s0.29059 2.027 0.0371 3-0.47766 0.41903-0.49804-1.231h-5e-5zm19.884 0.0833c-0.0434-1.0542 0.19292-1.6448 0.52522-1.3125s0.36781 1.1948 0.0789 1.9167c-0.31922 0.79773-0.55618 0.56078-0.60416-0.60417h4e-5zm27-1c-0.0434-1.0542 0.19292-1.6448 0.52522-1.3125s0.36781 1.1948 0.0789 1.9167c-0.31922 0.79773-0.55618 0.56078-0.60416-0.60417h4e-5zm11.639 0.80086c-1.0784-1.0783 1.2916-3.3842 3.4782-3.3842 1.3184 0 1.8427 0.56737 1.6173 1.75-0.3401 1.7844-3.8271 2.9027-5.0956 1.6342v-3e-5zm3.2825-1.4432c0-0.58246-0.45-0.7809-1-0.44098s-1 0.81648-1 1.059 0.45 0.44098 1 0.44098 1-0.47656 1-1.059zm26.537-0.28369c0.0524-1.1973 0.56802-3.0217 1.1458-4.0541 0.93184-1.6651 1.1034-1.5168 1.5187 1.3132 0.33204 2.2623-1e-3 3.4415-1.1458 4.0541-1.264 0.67647-1.5934 0.39169-1.5187-1.3132zm-75.537 0.40173c0-0.58246 0.45-1.059 1-1.059s1 0.19844 1 0.44098-0.45 0.7191-1 1.059-1 0.14148-1-0.44098zm-23.333-0.72569c-0.36667-0.36666-0.63114-1.6042-0.58772-2.75 0.0542-1.4304 0.24696-1.6132 0.61503-0.58333 0.29485 0.825 1.2453 2.0625 2.1122 2.75 1.3838 1.0974 1.39 1.25 0.0516 1.25-0.83846 0-1.8245-0.3-2.1911-0.66667h4e-5zm43.798-1.0115c-1.0157-1.0157-1.2459-1.9405-0.63516-2.5513 1.3947-1.3947 4.5964-0.51315 4.9581 1.3652 0.44132 2.2916-2.4297 3.0794-4.323 1.1861zm112.66 1.6782c-0.0204-0.275 0.58768-2.75 1.3513-5.5 0.84088-3.0283 1.3972-4.0141 1.4108-2.5 0.0182 2.0281-2.635 9.7128-2.762 8zm-151.14-3.5198c-0.98376-1.1854-1.018-1.8458-0.14118-2.7226 1.8227-1.8227 1.3676-2.7576-1.3424-2.7576-4.3824 0-2.6301-6.0188 2.1658-7.4397 1.1912-0.35291 2.4553-0.17335 2.809 0.39902 0.38003 0.6149-0.37966 1.0407-1.8568 1.0407-1.375 0-2.8215 0.52023-3.2145 1.1561-0.5137 0.83118 0.31281 0.98937 2.941 0.56287 2.0288-0.32923 3.6555-0.17618 3.6555 0.34393s-1.575 0.93713-3.5 0.93713-3.5 0.45-3.5 1 0.95625 1 2.125 1c1.8278 0 2.0411 0.41961 1.525 3-0.6812 3.406 0.23484 3.735 4.1957 1.5068 1.4599-0.82123 3.8313-1.9121 5.2698-2.4241 2.243-0.79836 2.6842-1.6458 3.0977-5.95 0.63033-6.5599 2.8472-9.771 7.7624-11.244 3.2708-0.97996 4.8373-0.91698 8.754 0.35199 3.2188 1.0428 4.7252 2.0681 4.6315 3.1522-0.17425 2.0158 2.1365 2.048 7.6389 0.10666 4.7083-1.6612 15.676-1.9902 17.971-0.53906 2.3268 1.4715 0.97558 1.739-5.471 1.083-4.2328-0.43069-7.9705-0.0891-12.69 1.1597-7.931 2.0985-12.561 1.544-13.005-1.5575-0.3492-2.437-2.5646-3.1014-7.3486-2.2039-4.0851 0.76636-6.456 4.8708-6.456 11.176 0 4.7001-1.6823 6.3816-6.3846 6.3816-1.3838 0-2.8759 0.61605-3.3157 1.369-1.3081 2.2394-4.861 2.8645-6.3161 1.1112zm155.02-0.23531c0-0.55 0.675-1.5602 1.5-2.2449 0.83674-0.69443 1.5-0.80272 1.5-0.24489 0 0.55-0.675 1.5602-1.5 2.2449-0.83674 0.69443-1.5 0.80272-1.5 0.24489zm-132.95-1.681c-2.1236-2.5588 1.2498-6.5639 5.5287-6.5639 2.1038 0 1.6688 2.1434-1.0654 5.25-2.8071 3.1893-2.8873 3.2129-4.4633 1.3139zm3.7149-3.5639c0.68696-1.1 0.8852-2 0.44054-2-1.0418 0-3.2085 2.161-3.2085 3.2 0 1.4734 1.5062 0.82042 2.7679-1.2zm93.311 3.5833c-0.0434-1.0542 0.19293-1.6448 0.52522-1.3125s0.36781 1.1948 0.0789 1.9167c-0.31922 0.79773-0.55618 0.56078-0.60416-0.60417h4e-5zm12.921-0.51001c0-1.4311 0.64223-2.0733 2.0733-2.0733 2.5626 0 2.2719 3.3098-0.3348 3.8118-1.2 0.2311-1.7385-0.30742-1.7385-1.7385zm-62.711-0.97824c-0.98393-1.0477-2.8624-2.0602-4.1744-2.25s-3.0074-1.2868-3.7676-2.4379c-1.2179-1.8441-1.1338-2.4086 0.70798-4.75 2.4661-3.1351 4.3452-3.4936 3.445-0.65721-0.34913 1.1-0.19658 2 0.33899 2s0.73842 0.9 0.45076 2c-0.3629 1.3877-0.0307 2 1.0851 2 0.88449 0 2.1702 0.9 2.8572 2 1.9546 3.1298 6.9067 2.6562 9.5455-0.91299 1.1845-1.6022 3.5191-3.2129 5.1881-3.5795s3.0344-1.2837 3.0344-2.0381c0-1.0748-0.91993-0.95409-4.25 0.55749-4.4945 2.0401-10.252 2.5871-11.194 1.0634-0.30922-0.50033 1.4199-0.87973 3.8425-0.84311 2.7439 0.0415 5.713-0.70535 7.8746-1.9807 4.1479-2.4473 11.727-3.969 11.727-2.3544 0 0.59835-1.35 1.0879-3 1.0879-1.8464 0-3 0.51722-3 1.345 0 1.8664-2.9686 4.2601-6.25 5.0397-1.5125 0.35935-2.75 1.0948-2.75 1.6343 0 2.0371-4.1141 4.981-6.961 4.981-1.6286 0-3.7661-0.85721-4.75-1.9049zm22.726 0.15492c-0.00842-1.2375 0.43469-2.25 0.98469-2.25 1.2529 0 1.2529 1.0612 0 3-0.78387 1.213-0.9723 1.0694-0.98469-0.75zm23.985-0.25c0-1.8667 0.26667-2.1333 1.2-1.2s0.93333 1.4667 0 2.4-1.2 0.66667-1.2-1.2zm-13.275 0.39124c-1.4397-1.4397-0.65898-2.5207 2.8922-4.0045 4.2461-1.7741 6.3833-1.2445 6.3833 1.5818 0 1.4359-0.65956 2.0354-2.25 2.045-1.2375 8e-3 -3.1614 0.25857-4.2754 0.55791s-2.3515 0.21819-2.75-0.18032zm7.2754-3.0079c0-0.21085-0.9-0.38337-2-0.38337s-2 0.40787-2 0.90638 0.9 0.67103 2 0.38337 2-0.69553 2-0.90638zm-148-0.32435c0-0.51754 0.44485-1.2159 0.98855-1.5519 0.56686-0.35034 0.7345 0.0511 0.39301 0.94098-0.66479 1.7324-1.3816 2.0494-1.3816 0.61096zm15-0.55902c0-0.825 0.43588-1.5 0.96862-1.5s0.70959 0.675 0.39301 1.5-0.75246 1.5-0.96862 1.5-0.39301-0.675-0.39301-1.5zm4.5558-2.4098c-0.96464-1.5608 0.616-4.2036 2.3201-3.8791 0.89329 0.17012 1.768 1.3172 1.9437 2.5491 0.24011 1.683-0.18025 2.2398-1.691 2.2398-1.1058 0-2.2636-0.40939-2.5728-0.90976zm178.44-0.03122c0-0.58246 0.45-1.059 1-1.059s1 0.19844 1 0.44098-0.45 0.7191-1 1.059-1 0.14148-1-0.44098zm-116.52-1.0976c-0.95797-1.55 0.7378-3.0653 2.3295-2.0815 1.0316 0.63753 0.99773 1.0384-0.16933 2.0069-1.0773 0.89408-1.6417 0.91357-2.1602 0.0746zm114.68-0.96143c0-1.375 0.22698-1.9375 0.50439-1.25s0.27741 1.8125 0 2.5-0.50439 0.125-0.50439-1.25zm-198.16-0.94098c0-0.58246 0.45-1.059 1-1.059s1 0.19844 1 0.44098-0.45 0.7191-1 1.059-1 0.14148-1-0.44098zm96-0.05902c0-0.55 0.45-1 1-1s1 0.45 1 1-0.45 1-1 1-1-0.45-1-1zm-33.009-1.511c-1.0284-1.2391-0.87956-1.489 0.8867-1.489 1.1673 0 2.1224 0.42344 2.1224 0.94098 0 1.7325-1.7601 2.053-3.0091 0.54801zm-54.303-2.1348c-1.3041-1.3041-0.68149-2.3542 1.3958-2.3542 1.1638 0 1.9086 0.52417 1.6875 1.1875-0.48711 1.4613-2.1569 2.0931-3.0833 1.1667zm34.746-2.1762c-1.6863-0.92288-4.6113-2.8401-6.5-4.2605-4.1176-3.0967-9.563-4.7398-16.737-5.0502-6.7622-0.29262-7.639-1.5453-1.444-2.0632 4.6644-0.38993 13.582 1.5138 15.953 3.4057 0.6634 0.52933 1.6247 0.70374 2.1363 0.38758s1.1641 0.32009 1.4502 1.4139 1.0388 1.9888 1.6727 1.9888 0.87452-0.45 0.5346-1-0.25398-0.98569 0.19098-0.9682c1.3222 0.052 4.3965 2.6738 4.2281 3.6058-0.37146 2.055 0.18531 2.5207 1.6051 1.3423 2.0055-1.6644 3.2776-0.3425 1.4163 1.4718-1.2377 1.2065-1.872 1.168-4.5065-0.27381zm-21.426-1.1517c-0.82043-0.5187-2.5079-0.68802-3.75-0.37628-2.6741 0.67116-3.1374-1.6756-0.72588-3.6769 1.2411-1.03 2.2868-1.0228 5.5 0.0376 4.258 1.4053 4.6352 1.9217 2.7676 3.7893-1.4329 1.4329-1.8443 1.4575-3.7917 0.2263v1e-5zm-2.0083-3.0853c0-0.58246-0.45-0.7809-1-0.44098s-1 0.81648-1 1.059 0.45 0.44098 1 0.44098 1-0.47656 1-1.059zm161-2.9724c0-0.53274 0.675-0.96862 1.5-0.96862s1.5 0.17686 1.5 0.39301-0.675 0.65203-1.5 0.96862-1.5 0.13972-1.5-0.39301zm-6-0.96862c0-0.55 0.45-1 1-1s1 0.45 1 1-0.45 1-1 1-1-0.45-1-1zm-22-1c0-0.55 0.64844-1 1.441-1s1.7191 0.45 2.059 1-0.30852 1-1.441 1-2.059-0.45-2.059-1zm29-2c0-0.55 0.45-1 1-1s1 0.45 1 1-0.45 1-1 1-1-0.45-1-1zm-101-1c0-0.55 0.45-1 1-1s1 0.45 1 1-0.45 1-1 1-1-0.45-1-1zm96.649-0.79367c-0.22804-0.38848-0.0213-1.7477 0.45951-3.0206 0.9752-2.5818 2.891-2.074 2.891 0.76627 0 1.8423-2.5753 3.575-3.3506 2.2543zm-145.65-1.633c0-0.92763 0.855-1.5733 2.0833-1.5733 2.437 0 2.0926 2.3368-0.4162 2.8233-0.98676 0.19138-1.6671-0.31876-1.6671-1.25zm135.18-1.259c-0.96157-0.38442-0.75737-0.92195 0.75176-1.979 2.5178-1.7635 4.7299-0.8374 2.9945 1.2537-1.2382 1.492-1.636 1.569-3.7463 0.72531zm-142.51-2.7316c-0.55447-1.4449 1.2371-2.5828 4.0666-2.5828 1.352 0 1.3187 0.2812-0.23678 2-2.1402 2.365-3.0905 2.5095-3.8299 0.58276zm156.53-1.7828c-1.8211-1.8211-1.4375-4.6025 0.8-5.8 1.1829-0.63306 2-0.68148 2-0.11852 0 0.52352-0.5625 1.2064-1.25 1.5176s-0.35 0.43441 0.75 0.27395 1.8875-0.82753 1.75-1.4824 0.2-1.1906 0.75-1.1906c1.5771 0 1.1649 2.9995-0.5 3.6384-1.6674 0.63985-2.0722 3.3616-0.5 3.3616 0.55 0 1-0.45 1-1s0.45-1 1-1 1 0.675 1 1.5c0 1.8368-5.0408 2.0592-6.8 0.3zm-72.025-1.3087c0.27977-0.27977 5.8673-0.74883 12.417-1.0423s14.833-0.95609 18.408-1.4724c15.139-2.1865 14.559-2.1868 14.724 7e-3 0.0835 1.109-0.27014 2.0164-0.78596 2.0164s-0.93785-0.5129-0.93785-1.1398c0-1.182-5.2728-0.81094-15.5 1.0909-5.2158 0.96992-29.212 1.4277-28.325 0.54033zm-86.175-3.4913c0-0.55 0.19844-1 0.44098-1s0.7191 0.45 1.059 1 0.14148 1-0.44098 1-1.059-0.45-1.059-1zm144-0.79341c0-0.43637 1.8-1.2738 4-1.8611 4.921-1.3135 5.1763-0.73496 0.53212 1.2055-3.9908 1.6675-4.5321 1.7458-4.5321 0.65556zm-53.762 65.086c-1.2439-0.23919-3.0439-0.23011-4 0.0202s0.0617 0.446 2.2617 0.4349 2.9822-0.21589 1.7383-0.45508v-2e-5zm35.343-0.29274c0.78001 0 1.4182-0.35964 1.4182-0.7992s-1.5714-0.61575-3.492-0.39153-3.2251 0.83954-2.8988 1.3674 1.2594 0.70403 2.0738 0.39153 2.1188-0.56817 2.8988-0.56817zm15.959-0.0665c0.36253-0.58659 0.48194-1.2437 0.26535-1.4603-0.68687-0.68689-4.8065 0.72174-4.8065 1.6435 0 1.2514 3.748 1.1002 4.5411-0.18316v3e-5zm8.4589-1.2948c0-0.91286-0.82359-1.2039-2.5-0.88342-1.375 0.26285-2.5 0.87544-2.5 1.3613s1.125 0.88342 2.5 0.88342c1.4424 0 2.5-0.57591 2.5-1.3613zm22-0.19769c0-0.85746-0.45-1.2809-1-0.94098s-1 1.0415-1 1.559 0.45 0.94098 1 0.94098 1-0.70156 1-1.559zm-188.42-4.1935c-1.1537-1.1537-1.7456 0.65318-0.95886 2.9272l0.80455 2.3254 0.36756-2.3359c0.20215-1.2847 0.10619-2.5972-0.21325-2.9167zm27.419 3.7525c0-0.55-1.0125-0.96837-2.25-0.92971-2.1469 0.0671-2.1584 0.10966-0.25 0.92971 1.1 0.47269 2.1125 0.89106 2.25 0.92971s0.25-0.37971 0.25-0.92971zm23.5 0c-0.33992-0.55-0.81648-1-1.059-1s-0.44098 0.45-0.44098 1 0.47656 1 1.059 1 0.7809-0.45 0.44098-1zm33.104-1.7292c-0.3323-0.33229-0.56864 0.25834-0.52522 1.3125 0.048 1.165 0.28494 1.4019 0.60416 0.60417 0.28887-0.72188 0.25335-1.5844-0.0789-1.9167h-4e-5zm67.396 1.7292c0-0.55-0.45-1-1-1s-1 0.45-1 1 0.45 1 1 1 1-0.45 1-1zm28 0c0-0.55-0.45-1-1-1s-1 0.45-1 1 0.45 1 1 1 1-0.45 1-1zm-3.275-3c-0.0829-1.1-0.45241-2-0.82122-2s-0.90592 0.9-1.1936 2c-0.33146 1.2675-0.0307 2 0.82122 2 0.73933 0 1.2764-0.9 1.1936-2zm10.275 1c0-0.55-0.45-1-1-1s-1 0.45-1 1 0.45 1 1 1 1-0.45 1-1zm-90.378-1.3149c0.75797 0.29087 1.3781-6e-4 1.3781-0.64769 0-1.6855-4.2544-0.83173-4.7967 0.96256-0.35128 1.1623-0.17265 1.2362 0.79353 0.32814 0.68577-0.64452 1.867-0.93387 2.625-0.64301zm84.378-0.24415c0-0.24254-0.45-0.44098-1-0.44098s-1 0.47656-1 1.059 0.45 0.7809 1 0.44098 1-0.81648 1-1.059zm9 0.55902c0-0.55-0.45-1-1-1s-1 0.45-1 1 0.45 1 1 1 1-0.45 1-1zm-183.5-1c-0.33992-0.55-0.81648-1-1.059-1s-0.44098 0.45-0.44098 1 0.47656 1 1.059 1 0.7809-0.45 0.44098-1zm55.688 0.31689c-0.72188-0.28887-1.5844-0.25335-1.9167 0.0789s0.25834 0.56864 1.3125 0.52522c1.165-0.048 1.4019-0.28494 0.60417-0.60416v4e-5zm121.8-2.1259c-0.0132-1.4573-0.14929-1.4837-0.98469-0.19098-1.2656 1.9584-1.2656 3.2822 0 2.5 0.55-0.33992 0.99311-1.379 0.98469-2.309zm-172.49 0.79271c-0.34546-0.55897-1.047-0.75742-1.559-0.44098-1.387 0.85723-1.1284 1.4573 0.62812 1.4573 0.85746 0 1.2764-0.45734 0.9309-1.0163zm41.51 0.63875c0-0.20765-0.675-0.93775-1.5-1.6224-1.2285-1.0196-1.5-0.95124-1.5 0.37756 0 0.89234 0.675 1.6224 1.5 1.6224s1.5-0.1699 1.5-0.37756zm30.5-0.62244c-0.33992-0.55-0.81648-1-1.059-1s-0.44098 0.45-0.44098 1 0.47656 1 1.059 1 0.7809-0.45 0.44098-1zm37.5-0.94996c0-1.5874-1.3169-1.876-2.619-0.57385-1.907 1.907-1.7293 2.4277 0.61905 1.8136 1.1-0.28766 2-0.84553 2-1.2397zm-120.54-1.1191c-0.85723-1.387-1.4573-1.1284-1.4573 0.62812 0 0.85746 0.45734 1.2764 1.0163 0.9309s0.75742-1.047 0.44098-1.559zm180.54 1.0101c0-0.58246-0.45-0.7809-1-0.44098s-1 0.81648-1 1.059 0.45 0.44098 1 0.44098 1-0.47656 1-1.059zm6.5714-0.94098c0-1.1-0.30109-2-0.66908-2s-0.90444 0.9-1.1921 2c-0.30701 1.174-0.0307 2 0.66908 2 0.65566 0 1.1921-0.9 1.1921-2zm-119.01-0.41824c1.0668-0.78003 1.6325-1.7253 1.2572-2.1006s-1.6969 0.26294-2.937 1.4182c-2.5361 2.3627-1.3032 2.8635 1.6798 0.68231zm47.943 0.41824c0.33992-0.55-0.0835-1-0.94098-1s-1.559 0.45-1.559 1 0.42344 1 0.94098 1 1.2191-0.45 1.559-1zm12.417-1.6485c0.22916-0.19335-1.2333-0.35154-3.25-0.35154-2.534 0-3.6667 0.44728-3.6667 1.448 0 1.1919 0.57486 1.254 3.25 0.35154 1.7875-0.60304 3.4375-1.2546 3.6667-1.448zm11.083 1.6485c0-0.55-0.47656-1-1.059-1s-0.7809 0.45-0.44098 1 0.81648 1 1.059 1 0.44098-0.45 0.44098-1zm50.5 0c-0.33992-0.55-0.81648-1-1.059-1s-0.44098 0.45-0.44098 1 0.47656 1 1.059 1 0.7809-0.45 0.44098-1zm-70.5-5.7774c0-1.2903-0.31235-1.2499-1.9764 0.25609-1.087 0.98375-1.722 2.2003-1.411 2.7036 0.77053 1.2467 3.3874-1.0397 3.3874-2.9596zm71.188 3.0943c-0.72188-0.28887-1.5844-0.25335-1.9167 0.0789s0.25834 0.56864 1.3125 0.52522c1.165-0.048 1.4019-0.28494 0.60417-0.60416v4e-5zm-35.188-1.3759c0-0.58246-0.45-0.7809-1-0.44098s-1 0.81648-1 1.059 0.45 0.44098 1 0.44098 1-0.47656 1-1.059zm12.471-0.9876c-0.70739-1.1446-10.146-1.2884-10.84-0.16515-0.26795 0.43355 2.1941 0.86259 5.4712 0.95343 3.564 0.0988 5.7216-0.21799 5.3692-0.78828zm39.529-1.9534c0-0.55-0.45-1-1-1s-1 0.45-1 1 0.45 1 1 1 1-0.45 1-1zm-219.46-2.9335c-0.36254-0.58659-1.2128-1.0665-1.8896-1.0665-0.68515 0-1.2129-1.2187-1.191-2.75 0.0388-2.7073-0.0667-2.7546-6.7991-3.0477-4.5793-0.19935-6.6246 0.0484-6.191 0.75 0.35614 0.57624 2.196 1.0477 4.0885 1.0477 2.6995 0 3.441 0.40458 3.441 1.8776 0 2.4553 1.7952 3.8608 5.5 4.3059 3.5513 0.42669 3.913 0.29384 3.0411-1.117zm211.46-0.18456c0-0.55-0.45-0.72189-1-0.38197s-1 1.068-1 1.618 0.45 0.72189 1 0.38197 1-1.068 1-1.618zm-203-0.44099c0-0.24254-0.45-0.44098-1-0.44098s-1 0.47656-1 1.059 0.45 0.7809 1 0.44098 1-0.81648 1-1.059zm198 0c0-0.24254-0.45-0.44098-1-0.44098s-1 0.47656-1 1.059 0.45 0.7809 1 0.44098 1-0.81648 1-1.059zm15-1.0518c0 2.3096 1.7454 1.9883 2.5239-0.46458 0.83875-2.6427 0.69486-2.7307-3.5882-2.195-2.0611 0.25779-4.0679 1.2523-4.7585 2.3581-0.72616 1.1628-0.79897 1.9123-0.18576 1.9123 0.55466 0 1.0085-0.45 1.0085-1s0.43588-1 0.96862-1 0.72007 0.7875 0.41629 1.75c-0.39971 1.2665 0.0234 1.0977 1.5314-0.61078 1.6055-1.819 2.0837-1.9911 2.0837-0.75zm-234.24-0.63922c-0.52402-1.5912-4.755-2.2679-4.755-0.76053 0 0.62071 0.41891 0.86967 0.9309 0.55324s1.2136-0.11799 1.559 0.44098c0.89719 1.4517 2.7569 1.2598 2.2651-0.23369zm2.7023-0.8191c-0.85724-1.387-1.4573-1.1284-1.4573 0.62812 0 0.85746 0.45734 1.2764 1.0163 0.9309s0.75741-1.047 0.44098-1.559zm237.54 0.0691c0-1.1-0.45-2-1-2s-1 0.9-1 2 0.45 2 1 2 1-0.9 1-2zm-218.5-1c-0.33992-0.55-0.81648-1-1.059-1s-0.44098 0.45-0.44098 1 0.47656 1 1.059 1 0.7809-0.45 0.44098-1zm199.5-0.55902c0-0.24254-0.45-0.44098-1-0.44098s-1 0.47656-1 1.059 0.45 0.7809 1 0.44098 1-0.81648 1-1.059zm-90.51-41.457c-0.34546-0.55897-1.047-0.75742-1.559-0.44098-1.387 0.85723-1.1284 1.4573 0.62812 1.4573 0.85746 0 1.2764-0.45734 0.9309-1.0163zm12.51-0.26177c1.9e-4 -0.77921-9.0749 0.0824-9.981 0.94763-0.26465 0.25271 1.8728 0.31794 4.7498 0.14496s5.2311-0.66465 5.2312-1.0926zm-69.036-2.1049c-1.5219-1.4374-10.964-2.8896-10.964-1.6863 0 0.70641 6.9846 2.6554 10.464 2.9199 1.7102 0.13001 1.7749-0.02957 0.5-1.2336zm33.286-0.27933c-0.6875-0.27741-1.8125-0.27741-2.5 0s-0.125 0.50439 1.25 0.50439 1.9375-0.22697 1.25-0.50439zm72.73-1.4188c1.4665-0.45685 0.0118-0.54811-3.4803-0.21833-3.3 0.31163-6.675 0.96762-7.5 1.4578-1.6867 1.002 6.8944 0.03345 10.98-1.2394zm-31.793 0.39802c-0.72188-0.28887-1.5844-0.25337-1.9167 0.07895s0.25834 0.56864 1.3125 0.52522c1.165-0.04798 1.4019-0.28494 0.60417-0.60417zm-60.949-1.0242c-1.2439-0.23919-3.0439-0.2301-4 0.02018s0.0617 0.446 2.2617 0.4349 2.9822-0.21588 1.7383-0.45508zm52.396-0.59406c0.38427-0.38427-3.2279-0.69867-8.027-0.69867-5.5112 0-8.5 0.36518-8.113 0.99126 0.67564 1.0932 15.014 0.83328 16.14-0.29259zm24.615 0.63905c-0.6875-0.27741-1.8125-0.27741-2.5 0s-0.125 0.50439 1.25 0.50439 1.9375-0.22697 1.25-0.50439zm-110.25-1.3377c-0.825-0.53316-2.175-0.96937-3-0.96937-1.3333 0-1.3333 0.10771 0 0.96937 0.825 0.53316 2.175 0.96937 3 0.96937 1.3333 0 1.3333-0.10771 0-0.96937zm10-0.39301c0-0.21616-0.675-0.65203-1.5-0.96862s-1.5-0.13973-1.5 0.39301 0.675 0.96861 1.5 0.96861 1.5-0.17686 1.5-0.39301zm22.709-1.2318c-0.70895-0.70895-13.985-2.282-14.625-1.7328-1.1128 0.95512 1.5393 1.754 7.6703 2.3105 6.882 0.62464 8.0594 0.52684 6.955-0.57765zm68.291 0.6248c0-0.55-0.47656-1-1.059-1s-0.7809 0.45-0.44098 1 0.81648 1 1.059 1 0.44098-0.45 0.44098-1zm37.5-2.1749c1.3239-0.57788 0.47877-0.67857-2.5-0.29784-2.475 0.31634-4.9359 1.0106-5.4688 1.5427-1.0934 1.0921 4.6818 0.18987 7.9688-1.2449zm-28.164-0.88892c-0.72424-0.72424-2.1448-0.75303-4.45-0.09019l-3.3861 0.97368 4.45 0.09019c3.1448 0.06373 4.138-0.22186 3.3861-0.97368zm3.8514 0.38078c-0.72188-0.28887-1.5844-0.25337-1.9167 0.07895s0.25834 0.56864 1.3125 0.52522c1.165-0.04798 1.4019-0.28494 0.60417-0.60417zm4.8125-0.87593c0-0.24254-0.70156-0.44098-1.559-0.44098s-1.2764 0.45734-0.9309 1.0163c0.57081 0.92358 2.4899 0.48015 2.4899-0.57533zm-34.5-0.44098c0.35191-0.5694-0.50929-1-2-1s-2.3519 0.4306-2 1c0.33992 0.55 1.2399 1 2 1s1.6601-0.45 2-1zm-49.017-0.87677c-0.90972-0.87254-9.0275-1.6412-12.483-1.182-3.0574 0.40629 2.5182 1.7642 7.983 1.9442 3.4577 0.11391 5.1199-0.16765 4.5-0.76224zm36.704 0.19368c-0.72188-0.28887-1.5844-0.25337-1.9167 0.07895s0.25834 0.56864 1.3125 0.52522c1.165-0.04798 1.4019-0.28494 0.60417-0.60417zm54.812-0.31691c0-0.55-0.42344-1-0.94098-1s-1.2191 0.45-1.559 1 0.0835 1 0.94098 1 1.559-0.45 1.559-1zm12.25 0.01365c0.4125-0.00746 0.75-0.46365 0.75-1.0136 0-1.5019-2.3664-1.2038-4.5589 0.57422-1.8735 1.5194-1.854 1.5547 0.55887 1.0137 1.375-0.30831 2.8375-0.56671 3.25-0.57422zm-16.593-2.6899c-0.28277-0.28278-2.0088-0.18263-3.8356 0.22256-2.847 0.63146-3.0358 0.84138-1.3215 1.4695 1.9524 0.7154 6.1782-0.67108 5.1572-1.6921zm-101.66-1.8828c0-0.24254-0.45-0.44098-1-0.44098s-1 0.47656-1 1.059 0.45 0.7809 1 0.44098 1-0.81648 1-1.059zm58 0.55902c0-0.55-1.1516-1-2.559-1-1.4514 0-2.2915 0.43284-1.941 1 0.33992 0.55 1.4915 1 2.559 1s1.941-0.45 1.941-1zm7 0c0-0.55-1.125-1-2.5-1s-2.5 0.45-2.5 1 1.125 1 2.5 1 2.5-0.45 2.5-1zm33-0.55902c0-0.24254-0.70156-0.44098-1.559-0.44098s-1.2764 0.45734-0.9309 1.0163c0.57081 0.92358 2.4899 0.48015 2.4899-0.57533zm-10-1.4096c0-0.53274-0.675-0.70959-1.5-0.39301s-1.5 0.75246-1.5 0.96862 0.675 0.39301 1.5 0.39301 1.5-0.43588 1.5-0.96862zm-50.25-3.7207c-0.9625-0.25153-2.5375-0.25153-3.5 0s-0.175 0.45732 1.75 0.45732 2.7125-0.2058 1.75-0.45732zm11.25-2.8697c0-0.24254-0.45-0.44098-1-0.44098s-1 0.47656-1 1.059 0.45 0.7809 1 0.44098 1-0.81648 1-1.059zm70.607-10.023c-0.86665-2.2584-0.78392-2.4233 0.89301-1.7798 0.825 0.31658 1.5 1.2025 1.5 1.9686 0 1.8945-1.6433 1.7649-2.393-0.18878zm-117.27-0.98543c-0.33077-0.86197-0.0916-2.077 0.53139-2.7 1.6251-1.6251 1.406-2.4281-0.82148-3.0106-1.6354-0.42766-1.8582-1.1031-1.3655-4.1393 0.42219-2.6016 0.12402-4.1418-1.0538-5.4433-1.5298-1.6904-1.5047-1.9398 0.36548-3.6324 2.7543-2.4926 2.5239-4.0038-0.9919-6.5073-3.8292-2.7266-3.7787-4.3324 0.24931-7.9314 4.1398-3.6989 5.0234-3.0064 1.224 0.95931l-2.8809 3.007 3.1966 2.9196c3.1598 2.886 3.3815 4.624 0.98638 7.7316-0.56525 0.73338-0.47354 2.0094 0.24027 3.3431 0.63493 1.1864 0.86062 3.3277 0.50152 4.7584-0.50537 2.0136-0.12916 2.9971 1.665 4.3529 1.8553 1.402 2.0684 2.0017 1.0679 3.0055-1.6793 1.6847-1.5769 2.854 0.25 2.854 0.825 0 1.5 0.45 1.5 1 0 1.6267-4.0094 1.1391-4.6642-0.56722zm66.174-0.41647c-0.34546-0.55897 0.07344-1.0163 0.9309-1.0163 1.7565 0 2.0152 0.60006 0.62812 1.4573-0.512 0.31643-1.2136 0.11799-1.559-0.44098zm-102.73-1.073c-0.28483-0.79383 0.0725-2.8981 0.79404-4.6762 1.1538-2.8432 1.109-3.3464-0.37157-4.175-0.92592-0.51817-1.339-1.2866-0.91801-1.7076s1.5028-0.02817 2.404 0.87299c1.4916 1.4916 1.5027 2.064 0.12396 6.3838-0.85942 2.6928-1.7385 4.121-2.0324 3.302zm23.472 0.33643c-0.72334-0.25834-1.25-2.1688-1.25-4.5344 0-2.4362-0.6835-4.8432-1.6917-5.9572-1.5891-1.756-1.5881-2.0445 0.0163-4.7606 1.6426-2.7807 1.6296-2.9462-0.33896-4.3251-1.9854-1.3906-1.9941-1.5257-0.29198-4.4915 1.6912-2.9467 1.6838-3.1363-0.20206-5.2202l-1.957-2.1625 3.4827-2.8872c3.1224-2.5886 3.256-2.89 1.2917-2.9142-2.9218-0.03587-3.6703-1.4839-1.6354-3.1636 1.2899-1.0648 1.7438-1.0896 2.0723-0.11331 0.2314 0.6875 1.0582 1.25 1.8374 1.25 2.1912 0 1.675 2.6517-0.9124 4.6869-2.0021 1.5748-2.305 2.6392-2.1574 7.5818 0.0944 3.1624 0.46749 6.0456 0.82907 6.4072 1.0702 1.0702 0.75026 4.8313-0.51893 6.1005-0.90183 0.90183-0.75637 1.6405 0.62327 3.165 1.2028 1.3291 1.6238 2.9087 1.2693 4.763-0.2917 1.5259-0.0857 3.6052 0.45775 4.6207 1.1204 2.0934 0.88121 2.5995-0.92394 1.9548zm59.573-2.3298c-0.54055-7.4698-0.39946-10.806 0.43514-10.291 0.51177 0.31629 0.70992 1.7289 0.44034 3.1391s-9e-3 3.6197 0.57871 4.9099c0.78058 1.7132 0.75252 2.6622-0.10403 3.5188-0.89716 0.89716-1.2146 0.59695-1.3502-1.2771zm54.346-6.1833c0.0569-9.5033-0.10445-10.984-1.3613-12.499-1.0197-1.2287-0.8449-1.8189 0.97515-3.2927 2.6654-2.1583 2.8531-4.5147 0.46757-5.8699-1.5222-0.86482-1.5753-1.2792-0.40783-3.1837 1.1229-1.8318 1.1229-2.3285 0-3.0402-1.0446-0.66204-0.96721-0.85406 0.34881-0.86598 2.3367-0.02116 3.227 1.7762 1.7571 3.5472-0.98042 1.1813-0.89802 1.8353 0.41391 3.2849 2.1317 2.3555 2.0656 3.4555-0.33841 5.6312-1.087 0.98375-1.664 2.291-1.2823 2.905 1.1069 1.7801 1.414 17.402 0.35499 18.057-0.5673 0.35061-0.94636-1.5591-0.92772-4.6738zm15.995 1.9304c-0.79631-0.95949-0.57142-2.1415 0.85306-4.4839 1.9343-3.1807 1.9343-3.181-0.29107-5.2695l-2.2255-2.0886 2.75-2.3796c3.3154-2.8689 3.517-4.4755 0.56144-4.4755h-2.1886l2.1468-2c2.3044-2.1469 3.7567-2.6606 2.7033-0.9562-0.35481 0.57409-0.0585 1.7506 0.65848 2.6145 1.1059 1.3325 0.89143 1.9253-1.4139 3.9082-3.0686 2.6395-3.403 3.9564-1.2175 4.795 1.95 0.74827 1.9116 3.6058-0.0868 6.4588-1.2571 1.7948-1.3356 2.5682-0.37756 3.7225 0.69039 0.83187 0.78017 1.457 0.20924 1.457-0.55 0-1.4866-0.58634-2.0814-1.303zm-100.85-1.323c-0.34317-0.89429-0.10405-3.0637 0.53139-4.821 1.6476-4.5565 1.4686-5.4532-1.3447-6.735-3.2529-1.4821-3.1555-2.2605 0.71585-5.7196 2.6835-2.3977 3.0078-3.124 1.959-4.3878-0.69128-0.83294-2.3634-1.7922-3.7158-2.1316-3.3543-0.84188-3.1-2.0923 1.291-6.3467l3.75-3.6333-4.2314-0.61427c-4.0646-0.59005-6.068-1.5187-5.1838-2.4029 0.22997-0.22998 2.555 0.07084 5.1667 0.66848 5.6861 1.3012 6.0206 2.842 1.6056 7.3971l-3.1429 3.2427 2.6693 0.66995c4.573 1.1477 5.0939 3.8266 1.5329 7.8824l-3.1042 3.5355 2.594 0.98622c2.9908 1.1371 3.2367 2.8922 1.0089 7.2003-1.1396 2.2038-1.2801 3.3702-0.5 4.1503 1.3708 1.3708 1.3971 2.6851 0.0537 2.6851-0.56727 0-1.3122-0.73169-1.6553-1.626h2e-5zm65.347-4.1966c-1.843-2.0365-2.2075-5.7213-0.66054-6.6774 1.5325-0.94714 1.1877-4.4908-0.5-5.1384-2.2456-0.8617-1.8126-2.9268 1-4.7697 3.4969-2.2912 3.2463-4.592-0.5-4.592-1.65 0-3-0.45-3-1 0-1.1038 3.9376-1.3449 6.4182-0.39301 2.3571 0.90449 1.9299 2.6853-1.4122 5.8872-2.9524 2.8286-2.967 2.8935-1.0495 4.6799 1.6526 1.5397 1.7829 2.2749 0.86806 4.8992-0.81274 2.3314-0.75942 3.6799 0.21769 5.5057 1.6349 3.0549 0.8051 4.0148-1.3817 1.5984zm-15.313-1.7146c-0.32444-0.84549 0.24827-2.4634 1.2727-3.5954 1.8244-2.0159 1.8144-2.0972-0.4895-3.9628-2.3316-1.888-1.7578-2.4663 1.2877-1.2976 1.7674 0.67823 2.1553 4.9205 0.54111 5.9182-0.57237 0.35375-0.76705 1.5053-0.43261 2.559 0.72349 2.2795-1.3141 2.6335-2.1794 0.3786zm-102.1-2.0038c-2.1704-1.5202-3.0305-3.4922-1.4948-3.4271 1.5116 0.0641 4.4485 2.8728 4.0992 3.9204-0.23093 0.6928-1.1631 0.51623-2.6044-0.49333zm-0.25394-9.9699c-1.3494-1.6259-0.29113-1.9654 1.8659-0.59868 0.82415 0.52221 0.96677 1.1007 0.36331 1.4737-0.5464 0.33769-1.5495-0.05606-2.2292-0.875zm75.111-0.40499c-1.1852-0.7504-1.1441-1.5206 0.26911-5.0527 1.6044-4.0098 1.5905-4.2651-0.367-6.7536-1.8276-2.3234-1.8804-2.7566-0.51911-4.2608 2.0618-2.2783 1.9029-3.7591-0.48468-4.5169-2.3289-0.73917-2.6052-2.0538-0.59396-2.8256 1.6141-0.6194 4.594 2.2699 4.594 4.4543 0 0.80919-0.53091 2.0022-1.1798 2.651-0.9064 0.90639-0.87618 1.7471 0.13036 3.6278 0.81483 1.5225 1.0344 3.515 0.5808 5.2702-0.40115 1.5522-0.7494 4.0596-0.77389 5.5721s-0.0924 2.7431-0.151 2.7347-0.73572-0.41373-1.5048-0.90068zm7.3253-0.62133c-1.889-1.4868-1.8827-1.5481 0.323-3.1116 2.9596-2.098 2.8552-4.161-0.25-4.9404-1.375-0.3451-2.4859-1.1412-2.4686-1.769 0.0378-1.3738 4.9686-5.1402 4.9686-3.7953 0 0.51683-0.675 1.1987-1.5 1.5153-1.926 0.73907-1.9513 2.6384-0.03518 2.6384 0.80565 0 1.941 0.88969 2.5229 1.9771 0.83492 1.5601 0.65251 2.3827-0.86481 3.9-1.3806 1.3806-1.6174 2.2285-0.83959 3.0062 1.7579 1.7579 0.24211 2.2309-1.8563 0.57934zm75.573-4.935c0-0.87472-0.675-1.8494-1.5-2.166s-1.5-0.96781-1.5-1.4472 1.125-0.35899 2.5 0.2675c2.5644 1.1684 3.277 3.2198 1.5 4.318-0.55 0.33992-1-0.09765-1-0.97237zm-157.28-4.1672c-1.4951-0.78338-2.7184-1.8273-2.7184-2.3198 0-1.3356 5.1718-5.15 6.4191-4.7344 1.4111 0.47019 1.4739 5.1195 0.0947 7.0058-0.93752 1.2821-1.4287 1.2884-3.7953 0.04842l-5e-5 -4e-6zm3.2816-3.0748c0-2.5852-0.0832-2.631-1.75-0.96384-1.5305 1.5309-1.5619 1.8694-0.25 2.699 2.0408 1.2905 2 1.3259 2-1.7351zm101.29 2.9643c-0.35512-0.9625-1.1155-2.063-1.6897-2.4456-1.4872-0.99096 9e-3 -2.1678 1.855-1.4593 0.84872 0.32568 1.5431 1.7313 1.5431 3.1235 0 2.9372-0.78122 3.2945-1.7084 0.78139zm33.779-4.941c0.03865-0.44496 0.45702-1.709 0.92971-2.809 0.82859-1.9282 0.86195-1.9214 0.92971 0.19098 0.03866 1.205-0.37971 2.4691-0.92971 2.809s-0.96837 0.25398-0.92971-0.19098zm-0.46742-9.9015c-0.77541-2.0207 1.3896-3.815 2.8459-2.3587 0.62067 0.62067 0.40463 1.5264-0.60489 2.5359-1.4272 1.4272-1.6316 1.411-2.241-0.17719z"/>
</svg>
