<?xml version="1.0" encoding="utf-8"?>
<!-- Generator: Adobe Illustrator 19.1.0, SVG Export Plug-In . SVG Version: 6.00 Build 0)  -->
<svg version="1.1" id="Layer_1" xmlns="http://www.w3.org/2000/svg" xmlns:xlink="http://www.w3.org/1999/xlink" x="0px" y="0px"
	 viewBox="0 0 800 800" style="enable-background:new 0 0 800 800;" xml:space="preserve">
<style type="text/css">
	.st0{fill:#010101;}
	.st1{fill:#FFFFFF;stroke:#000000;stroke-miterlimit:10;}
</style>
<path id="path18807" sodipodi:nodetypes="ccccsscccccscsscccccccc" inkscape:connector-curvature="0" class="st0" d="M111.6,235.2
	c-13.4,3.3-11.5,28.8-3.4,12.1c26.9-16.2,31.7-0.5,37.2,26.3c12.3,15.3,17.1,40.2,29,55.5c3.3,6.2,8.8,11.3,13.3,16.5
	c2.3,2.7,4.3,4.8,6.9,7.3c6.8,6.7,13.2,13.9,20.5,20.1c15.5,10.3,34,18.9,47,31.7c28.1,19.9,57.9,33.5,89.9,45.4
	c21.5,11.8,43.2,24.8,67.2,30.3c20.6,5.1,42.9,7.4,63.1,14.5c17.2,2.6,35.3,2.5,54.3-1.2c21.7-4.2,36.5-35.6,46.6-37.5
	c-10.8-8.9-7.5-17.5-15.7-25c-12.3-11.2-29.8-21.8-46.6-24.8c-16.1-2.9-31-7.8-47.1-9c-15.8-7.3-33.8-8.7-49-17.7
	c-16.4-7.9-35.4-8.1-51.9-16.5c-30.1-19.1-67.2-24.9-95.2-47.4c-16.3-6.2-30.6-16.1-45.7-24.5c-21.8-6.1-39-11.2-57-19
	c-18.6-11.5-16-20.8-23-25.9C140.2,234.5,133.6,228,111.6,235.2L111.6,235.2z"/>
<path class="st1" d="M186.1,320.4c10.9,11.9,20.3,25.5,32.3,35.8c12,10.3,27.8,16.9,42.2,12.1c-24.2-13.1-47.7-28.1-70-44.9"/>
<path class="st1" d="M274.7,373.5c-0.7,7.2,4.1,13.6,8.6,19.2c6.2,7.8,12.8,15.9,21.9,19.9c8.1,3.5,17.2,3.4,26.1,3.3
	c3.2-0.1,6.6-0.2,9.4-1.7c2.8-1.6,4.8-5.2,3.4-8.1c-0.7-1.5-2.1-2.6-3.5-3.6C333.1,397.1,274.5,375.7,274.7,373.5z"/>
<path class="st1" d="M410.8,461.3c6.4,0.5,38.7-10,34.1-20.7c-1.5-3.3-12.1-3.6-15.2-4c-14.1-2-28-5.8-41.2-11.2
	c-19-7.8-13.5,12.8-4.8,21.9c4.5,4.7,9.3,9.6,15.4,11.9C402.8,460.6,406.8,461,410.8,461.3z"/>
<path class="st1" d="M511.8,475.3c4.5-0.2,26-10.4,21.8-17.4c-1.3-2.2-8.7-1.4-10.9-1.4c-10-0.1-20-1.5-29.7-4.1
	c-13.9-3.7-8.2,10.1-1.4,15.6c3.6,2.9,7.3,5.8,11.8,6.9C506.2,475.5,509,475.4,511.8,475.3z"/>
</svg>
