<?xml version="1.0" encoding="iso-8859-1"?>
<!-- Generator: Adobe Illustrator 19.0.0, SVG Export Plug-In . SVG Version: 6.00 Build 0)  -->
<svg version="1.1" id="Layer_1" xmlns="http://www.w3.org/2000/svg" xmlns:xlink="http://www.w3.org/1999/xlink" x="0px" y="0px"
	 viewBox="0 0 512 512" style="enable-background:new 0 0 512 512;" xml:space="preserve">
<path style="fill:#A58763;" d="M7.097,504.901V255.998c0-21.086,2.659-42.053,7.903-62.316l0.073-0.265l4.529-15.334l0.042-0.125
	C38.83,119.975,78.634,71.124,131.724,40.406l0.232-0.129l13.76-7.372l0.115-0.058c32.043-15.881,66.467-24.5,102.312-25.617
	l0.253-0.003h15.335l0.127,0.004C301.88,8.422,338.179,18,371.743,35.701l0.223,0.122l13.52,7.679l0.114,0.07
	c25.162,15.407,47.224,34.965,65.57,58.131c18.154,22.918,32.011,48.573,41.185,76.253l0.08,0.254l4.53,15.34l0.034,0.133
	c5.244,20.263,7.903,41.23,7.903,62.316v248.903H7.097z"/>
<path style="fill:#554432;" d="M90.858,421.142V256c0-91.059,74.082-165.142,165.142-165.142S421.142,164.941,421.142,256v165.142
	H90.858z"/>
<path style="fill:#5E4C36;" d="M300.662,413.031h86.569V263.196c0-82.619-58.869-149.833-131.229-149.833
	s-131.229,67.215-131.229,149.833V413.03h84.448h91.442V413.031z"/>
<path style="fill:#806749;" d="M289.934,413.031h65.775V275.933c0-75.597-44.73-137.098-99.71-137.098s-99.71,61.502-99.71,137.098
	v137.098h64.164H289.934z"/>
<g>
	<path style="fill:#8C6D4B;" d="M15.208,187.107h89.787l29.874-40.231L69.941,97.085C69.941,97.085,18.63,155.64,15.208,187.107z"/>
	<rect x="9.395" y="256.061" style="fill:#8C6D4B;" width="86.432" height="70.762"/>
	<path style="fill:#8C6D4B;" d="M8.997,460.36h81.657v-68.114H7.604C7.604,392.246,11.388,460.36,8.997,460.36z"/>
	<rect x="91.055" y="460.364" style="fill:#8C6D4B;" width="82.055" height="45.015"/>
	<polygon style="fill:#8C6D4B;" points="347.177,417.739 347.177,460.36 256.02,460.36 256.02,422.519 	"/>
	<path style="fill:#8C6D4B;" d="M419.274,504.396V460.36h83.25v45.011C502.524,505.37,417.99,503.111,419.274,504.396z"/>
	<rect x="419.272" y="326.828" style="fill:#8C6D4B;" width="83.248" height="65.414"/>
	<polygon style="fill:#8C6D4B;" points="403.341,187.107 496.792,187.107 504.396,256 424.85,256 	"/>
	<path style="fill:#8C6D4B;" d="M444.811,106.738l-17.834,13.545l-43.951,33.366l-53.38-48.199l2.879-3.731l20.784-26.867
		l4.998,4.055l23.055-28.419C405.687,65.383,427.17,84.464,444.811,106.738z"/>
	<path style="fill:#8C6D4B;" d="M142.437,41.32l45.409,60.944l70.105-11.153L256,7.604C256,7.604,171.913,16.623,142.437,41.32z"/>
</g>
<g>
	<rect x="279.309" y="33.319" style="fill:#C6A98D;" width="29.036" height="29.036"/>
	<rect x="434.734" y="137.165" style="fill:#C6A98D;" width="25.279" height="25.279"/>
	<rect x="460.901" y="272.779" style="fill:#C6A98D;" width="23.572" height="23.572"/>
	<rect x="465.819" y="405.322" style="fill:#C6A98D;" width="21.862" height="21.862"/>
	<rect x="381.1" y="439.053" style="fill:#C6A98D;" width="31.926" height="8.285"/>
	<rect x="282.107" y="478.766" style="fill:#C6A98D;" width="67.911" height="10.59"/>
	<rect x="196.638" y="478.766" style="fill:#C6A98D;" width="35.526" height="8.54"/>
	<rect x="170.339" y="433.324" style="fill:#C6A98D;" width="57.385" height="11.955"/>
	<rect x="44.289" y="473.98" style="fill:#C6A98D;" width="34.846" height="10.077"/>
	<rect x="49.132" y="345.879" style="fill:#C6A98D;" width="22.887" height="22.887"/>
	<rect x="28.571" y="204.121" style="fill:#C6A98D;" width="23.229" height="23.229"/>
	<rect x="110.217" y="77.723" style="fill:#C6A98D;" width="27.328" height="27.328"/>
	<rect x="317.278" y="72.258" style="fill:#C6A98D;" width="12.369" height="12.369"/>
	<rect x="150.528" y="94.461" style="fill:#C6A98D;" width="9.226" height="9.226"/>
</g>
<path style="fill:#FF9911;" d="M355.595,319.808c0,54.99-44.578,99.568-99.568,99.568s-99.568-44.578-99.568-99.568
	s99.568-150.318,99.568-150.318S355.595,264.819,355.595,319.808z"/>
<path style="fill:#FECE00;" d="M313.885,361.519c0,31.955-25.904,57.859-57.859,57.859s-57.859-25.904-57.859-57.859
	s57.859-87.35,57.859-87.35S313.885,329.564,313.885,361.519z"/>
<path d="M437.019,74.981C388.667,26.629,324.38,0,256,0S123.332,26.629,74.981,74.981C26.629,123.332,0,187.62,0,256v256h512V256
	C512,187.62,485.371,123.332,437.019,74.981z M197.411,390.618c-20.359-16.882-33.349-42.357-33.349-70.81
	c0-20.698,16.594-52.121,47.989-90.871c17.604-21.729,35.403-40.159,43.975-48.764c8.572,8.604,26.372,27.035,43.975,48.764
	c31.395,38.751,47.989,70.173,47.989,90.871c0,28.452-12.989,53.926-33.348,70.808c4.373-8.772,6.847-18.65,6.847-29.1
	c0-34.214-54.043-86.943-60.205-92.841l-5.259-5.035l-5.259,5.035c-6.162,5.899-60.204,58.628-60.204,92.841
	C190.563,371.967,193.037,381.846,197.411,390.618z M256.025,284.864c17.737,18.032,50.255,55.466,50.255,76.654
	c0,27.711-22.544,50.255-50.255,50.255c-27.71,0-50.254-22.544-50.254-50.255C205.771,340.33,238.288,302.895,256.025,284.864z
	 M363.198,319.808c0-57.575-97.752-151.827-101.913-155.811l-5.259-5.035l-5.259,5.035c-4.161,3.984-101.913,98.236-101.913,155.811
	c0,39.901,21.921,74.774,54.349,93.222H98.969V256c0-86.587,70.443-157.031,157.031-157.031S413.031,169.412,413.031,256v157.031
	H308.849C341.277,394.583,363.198,359.71,363.198,319.808z M496.792,316.98h-33.264v15.208h33.264V453.45h-33.264v15.208h33.264
	v28.135H263.604v-26.673h149.427v10.469h15.208v-25.677h-75.723V442.98h-15.208v11.931h-73.704v-26.674h164.635v-27.815h31.404
	v-15.208h-31.404V263.953h36.653v-15.208h-36.817c-1.528-36.682-14.579-70.432-35.626-97.723l36.666-27.931l-9.216-12.097
	l-37.268,28.389c-31.497-34.174-76.603-55.62-126.631-55.62c-48.358,0-92.116,20.041-123.431,52.242l-32.832-25.011l-9.216,12.097
	l31.903,24.303c-22.729,27.902-36.903,63.028-38.499,101.352H47.107v15.208h36.654v121.263H52.357v15.208h31.405v27.815h164.634
	v26.674H98.969v-11.931H83.761v27.139h82.326v10.469h15.208v-10.469h67.101v26.671H15.208v-28.135h33.263V453.45H15.208V332.188
	h33.263V316.98H15.208V256c0-20.809,2.655-41.011,7.641-60.283h40.828v-15.208H27.341C46.033,124.036,85.09,76.756,135.783,47.425
	l25.547,31.48l11.807-9.582l-23.703-29.208c30.005-14.871,63.529-23.671,98.961-24.776v35.544h15.208V15.34
	c37.573,1.172,72.998,10.994,104.358,27.535l-21.463,26.448l11.807,9.582l23.058-28.413
	c48.187,29.504,85.239,75.471,103.293,130.017h-36.338v15.208h40.829c4.988,19.273,7.643,39.475,7.643,60.284V316.98z"/>
<g>
</g>
<g>
</g>
<g>
</g>
<g>
</g>
<g>
</g>
<g>
</g>
<g>
</g>
<g>
</g>
<g>
</g>
<g>
</g>
<g>
</g>
<g>
</g>
<g>
</g>
<g>
</g>
<g>
</g>
</svg>
