<?xml version="1.0" encoding="UTF-8"?>
<svg width="1793.3mm" height="1115.8mm" version="1.1" viewBox="0 0 6354.3309 3953.4535" xmlns="http://www.w3.org/2000/svg">
 <defs>
  <linearGradient id="d" x1="-712.74" x2="-797.88" y1="504.26" y2="385.67" gradientUnits="userSpaceOnUse">
   <stop stop-color="#4d4d4d" offset="0"/>
   <stop stop-color="#ccc" offset="1"/>
  </linearGradient>
  <linearGradient id="c" x1="-220.13" x2="-502.92" y1="324.85" y2="-216.41" gradientUnits="userSpaceOnUse">
   <stop stop-color="#4d4d4d" offset="0"/>
   <stop stop-color="#ccc" offset="1"/>
  </linearGradient>
  <linearGradient id="b" x1="108.31" x2="35.202" y1="-16.499" y2="-145.51" gradientUnits="userSpaceOnUse">
   <stop stop-color="#666" offset="0"/>
   <stop stop-color="#ccc" offset="1"/>
  </linearGradient>
  <linearGradient id="a" x1="-491.12" x2="-551.06" y1="626.73" y2="448.29" gradientUnits="userSpaceOnUse">
   <stop stop-color="#666" offset="0"/>
   <stop stop-color="#666" stop-opacity="0" offset="1"/>
  </linearGradient>
 </defs>
 <g transform="translate(1127.1 3022.7)">
  <g transform="matrix(1.8792 0 0 1.8792 835.16 -662.56)">
   <path d="m-217.33 224.01-78.79-147.48 142.87-55.275 160.71-76.429l160.71-82.143 144.29-80.714 146.43-87.143 102.14-65.714 107.14-67.143 97.143-63.571 103.57-67.143 90-62.857 121.43-80.714 116.43-81.429 142.86-99.286 61.429-42.857 63.571-44.286 64.286-43.571 24.286-16.429 160.71-27.857 165-26.428 207.14-37.143 82.857-13.571-8.5714 10.714-448.57 130-265.71 142.86-214.13 139.19-130.87 85.807-109.29 90-125.71 106.43-99.286 85-76.429 44.286-51.429 32.143-117.14 75-93.572 77.857-51.428 55.714-124.36 19.932-53.033 75.256-102.25 28.026-103.57 30.357 33.571 54.286-78.214 33.929-86.418 39.776-68.69 21.213-10.102-1.5152z" fill="url(#b)" fill-rule="evenodd" stroke="#666" stroke-width="1px"/>
   <path d="m-151.78 355.7-212.4-400.02c-96.333-3.5338-160.58-93.293-233.56-159.58l438.35 838.12c-24.356-116.76-24.93-212.36 7.6046-278.51z" fill="url(#c)" fill-rule="evenodd" stroke="#000" stroke-width="10"/>
   <path d="m-335.7 299.61-608.12 443.36 28.598-284.77 493.84-324.73z" fill="url(#d)" fill-rule="evenodd" stroke="#000" stroke-width="10"/>
   <path d="m-219.35 230.08 222.23-99-82.828-56.568 258.6-62.63l54.548-88.893 143.44-12.122 121.22-145.46 224.25-121.22 208.09-163.64 341.43-258.6 468.71-248.5 161.62-46.467 190.35-41.386-47.918 23.204-62.63 22.223-172.74 73.741-116.17 52.528-135.36 64.65-137.38 68.69-136.37 78.792-68.69 44.447-101.02 69.701-87.883 77.782-34.345 33.335-37.376 46.467-19.193 39.396-24.244 38.386-30.305 42.426-64.65 59.599-115.16 11.112-13.132 8.0812 57.579 35.355-97.985 69.701-170.72 25.254-1.0102 10.102 91.924 18.183-98.995 59.599-172.62 23.307 86.87 23.233-155.56 80.813-159.61 18.186 42.43 38.38-302.03 137.38z" fill="#ccc" fill-rule="evenodd" stroke="#ccc" stroke-width="1px"/>
   <path d="m-297.4 78.415c580.4-218.86 1215.5-681.52 1847.8-1118.2l687.54-116.83c-56.831-0.2986-1147.1 410.29-1299.9 734.28-21.565 45.729-63.981 94.321-120.19 143.76l-127.35 15.678 61.96 37.682m0 0c-32.627 24.918-68.076 49.867-105.46 74.593l-172.01 27.666 96.948 20.166m0 0c-33.726 20.759-68.444 41.236-103.6 61.274l-172.49 22.605 90.173 23.137m0 0c-52.84 28.659-105.8 56.121-156.97 81.819l-160.98 19.565 43.39 38.04m0 0c-170.78 81.67-301.93 137.51-301.93 137.51l-106.88-202.56" fill="none" stroke="#000" stroke-linecap="round" stroke-linejoin="round" stroke-width="10"/>
   <path d="m-221.37 523.02c-150.48 140.38-354.68 179.36-575.16 115.12l64.302-48.199c88.858 20.077 198.2 31.038 307.07-17.433 55.518-24.717 109.86-68.589 163.48-126.96 20.729 28.1 39.304 66.592 40.308 77.472z" fill="url(#a)" fill-rule="evenodd" stroke="#000" stroke-width="10"/>
   <path d="m-578.54 239.84 60.724-41.011 107.75 156.49-62.04 44.582z" fill="#1a1a1a" stroke="#000" stroke-linejoin="round" stroke-width="7.7436"/>
   <path transform="matrix(.80636 -.59143 .5519 .83391 0 0)" d="m-816.28-162.41 79.381 4.3226 0.38487 199.22-81.608 0.76078z" fill="#1a1a1a" stroke="#000" stroke-linejoin="round" stroke-width="8.2314"/>
   <path d="m-659.97 294.13 60.724-41.011 107.75 156.49-62.04 44.582z" fill="#1a1a1a" stroke="#000" stroke-linejoin="round" stroke-width="7.7436"/>
   <path d="m-708.93 591.12-63.986 54.13 149.08-37.13 96.383 50.262 104.05-83.128 121.1 9.979 3.153-99.587 66.67 48.487" fill="none" stroke="#000" stroke-width="5"/>
  </g>
 </g>
</svg>
