<?xml version="1.0" encoding="iso-8859-1"?>
<!-- Generator: Adobe Illustrator 19.0.0, SVG Export Plug-In . SVG Version: 6.00 Build 0)  -->
<svg version="1.1" id="Capa_1" xmlns="http://www.w3.org/2000/svg" xmlns:xlink="http://www.w3.org/1999/xlink" x="0px" y="0px"
	 viewBox="0 0 512 512" style="enable-background:new 0 0 512 512;" xml:space="preserve">
<rect x="251.733" y="341.333" style="fill:#394D5C;" width="85.333" height="170.667"/>
<rect x="285.867" y="460.8" style="fill:#FDBD40;" width="17.067" height="17.067"/>
<polygon style="fill:#AABECE;" points="379.733,281.6 209.067,281.6 209.067,76.8 294.4,8.533 379.733,76.8 "/>
<polygon style="fill:#7D8D9C;" points="311.467,281.6 277.333,281.6 277.333,93.867 294.4,76.8 311.467,93.867 "/>
<g>
	<rect x="234.667" y="238.933" style="fill:#DA1C4B;" width="17.067" height="17.067"/>
	<rect x="234.667" y="187.733" style="fill:#DA1C4B;" width="17.067" height="34.133"/>
	<path style="fill:#DA1C4B;" d="M192,34.133c-14.14,0-25.6-11.46-25.6-25.6c0-4.71-3.823-8.533-8.533-8.533
		c-4.71,0-8.533,3.823-8.533,8.533c0,14.14-11.46,25.6-25.6,25.6c-4.71,0-8.533,3.823-8.533,8.533s3.823,8.533,8.533,8.533
		c14.14,0,25.6,11.46,25.6,25.6c0,4.71,3.823,8.533,8.533,8.533c4.71,0,8.533-3.823,8.533-8.533c0-14.14,11.46-25.6,25.6-25.6
		c4.71,0,8.533-3.823,8.533-8.533S196.71,34.133,192,34.133z M157.867,51.465c-2.483-3.345-5.453-6.315-8.798-8.798
		c3.345-2.483,6.315-5.453,8.798-8.798c2.483,3.345,5.453,6.315,8.798,8.798C163.319,45.15,160.35,48.119,157.867,51.465z"/>
</g>
<path style="fill:#AABECE;" d="M337.067,443.733h-85.333v-68.267h85.333V443.733z M268.8,426.667H320v-34.133h-51.2V426.667z"/>
<rect x="192" y="281.6" style="fill:#FDBD40;" width="204.8" height="68.267"/>
<g>
</g>
<g>
</g>
<g>
</g>
<g>
</g>
<g>
</g>
<g>
</g>
<g>
</g>
<g>
</g>
<g>
</g>
<g>
</g>
<g>
</g>
<g>
</g>
<g>
</g>
<g>
</g>
<g>
</g>
</svg>
