<?xml version="1.0" encoding="UTF-8"?>
<svg viewBox="0 0 640 480" xmlns="http://www.w3.org/2000/svg">
 <defs>
  <linearGradient id="a" x1=".13992" x2=".82212" y1="1.2052" y2=".92682">
   <stop stop-color="#b27d00" offset="0"/>
   <stop stop-color="#624500" offset="1"/>
  </linearGradient>
 </defs>
 <g stroke="#000">
  <g fill="#fff" fill-rule="evenodd" stroke-width="4">
   <path d="m420.32 131.28c31.806-35.685 30.178-61.893 14.575-91.419-24.25 32.503-47.321 48.865-14.575 91.419z"/>
   <path d="m416.71 114.22c8.3762-47.063 29.979-61.99 62.832-67.986-10.548 39.157-9.14 67.406-62.832 67.986z"/>
   <path d="m412.36 152.8c8.3762-47.063 29.979-61.99 62.832-67.986-10.548 39.157-9.14 67.406-62.832 67.986z"/>
   <path d="m418.94 156.88c21.378-42.756 12.959-67.628-9.816-92.052-14.916 37.71-32.911 59.531 9.816 92.052z"/>
   <path d="m409.1 188.44c8.3762-47.063 29.979-61.99 62.832-67.986-10.548 39.157-9.14 67.406-62.832 67.986z"/>
   <path d="m414.84 186.19c13.742-45.785 1.1894-68.848-25.431-89.012-8.239 39.707-22.232 64.287 25.431 89.012z"/>
   <path d="m403.66 223.06c8.3762-47.063 29.979-61.99 62.832-67.986-10.548 39.157-9.1399 67.406-62.832 67.986z"/>
   <path d="m412.88 223.95c7.7664-47.168-7.6365-68.434-36.62-85.022-3.0867 40.435-13.817 66.605 36.62 85.022z"/>
   <path d="m397.13 260.63c8.3762-47.063 29.979-61.99 62.832-67.986-10.548 39.157-9.1399 67.406-62.832 67.986z"/>
   <path d="m345.15 767.66l26.35 12.309c-16.054-166.51 12.855-352.23 40.254-545.06l-19.461 2.0332c-22.813 147.57-54.023 379.79-47.142 530.71z"/>
   <path d="m413.77 262.51c2.3246-47.746-15.408-67.112-46.098-80.28 1.5551 40.523-6.1141 67.748 46.098 80.28z"/>
  </g>
  <g fill="#fff" fill-rule="evenodd" stroke-width="4">
   <path d="m335.8 132.76c-27.604-39.027-23.046-64.887-4.2303-92.476 20.452 35.018 41.542 53.864 4.2303 92.476z"/>
   <path d="m341.29 116.21c-3.045-47.705-22.838-64.96-54.81-74.603 6.0901 40.093 1.5225 68.006 54.81 74.603z"/>
   <path d="m341.29 155.03c-3.045-47.705-22.838-64.96-54.81-74.603 6.0901 40.093 1.5225 68.006 54.81 74.603z"/>
   <path d="m334.3 158.35c-16.448-44.884-5.2929-68.654 20.078-90.37 10.592 39.145 26.026 62.846-20.078 90.37z"/>
   <path d="m340.53 190.81c-3.045-47.705-22.838-64.96-54.81-74.603 6.09 40.093 1.5225 68.006 54.81 74.603z"/>
   <path d="m335.09 187.94c-8.5208-47.037 6.5396-68.547 35.254-85.598 3.7338 40.38 14.882 66.375-35.254 85.598z"/>
   <path d="m342.06 225.83c-3.045-47.705-22.838-64.96-54.81-74.603 6.09 40.093 1.5225 68.006 54.81 74.603z"/>
   <path d="m332.8 225.67c-2.4274-47.741 15.263-67.145 45.924-80.379-1.4677 40.526 6.2601 67.734-45.924 80.379z"/>
   <path d="m344.34 263.89c-3.045-47.705-22.838-64.96-54.81-74.603 6.09 40.093 1.5225 68.006 54.81 74.603z"/>
   <path d="m339.12 773.55l-27.564 9.2762c34.627-163.65 26.729-351.44 21.13-546.13l19.11 4.2029c6.1184 149.2 11.088 383.45-12.676 532.65z"/>
   <path d="m327.59 263.89c3.045-47.705 22.838-64.96 54.81-74.603-6.09 40.093-1.5225 68.006-54.81 74.603z"/>
  </g>
  <g fill="#fff" fill-rule="evenodd" stroke-width="4">
   <path d="m246.73 187.29c-34.072-33.529-34.161-59.787-20.522-90.27 26.324 30.848 50.416 45.666 20.522 90.27z"/>
   <path d="m249.21 170.03c-11.436-46.414-33.969-59.896-67.143-63.731 13.086 38.383 13.528 66.664 67.143 63.731z"/>
   <path d="m256.08 208.24c-11.436-46.414-33.969-59.896-67.143-63.731 13.086 38.383 13.528 66.664 67.143 63.731z"/>
   <path d="m249.78 212.74c-24.128-41.266-17.354-66.636 3.7753-92.496 17.35 36.654 36.733 57.252-3.7753 92.496z"/>
   <path d="m261.66 243.59c-11.436-46.414-33.969-59.896-67.143-63.731 13.086 38.383 13.528 66.664 67.143 63.731z"/>
   <path d="m255.79 241.73c-16.707-44.788-5.689-68.623 19.556-90.484 10.818 39.083 26.389 62.696-19.556 90.484z"/>
   <path d="m269.35 277.79c-11.436-46.414-33.969-59.896-67.143-63.731 13.086 38.383 13.528 66.664 67.143 63.731z"/>
   <path d="m260.21 279.27c-10.834-46.559 3.1451-68.786 30.982-87.235 5.7243 40.147 18.143 65.558-30.982 87.235z"/>
   <path d="m278.34 314.85c-11.436-46.414-33.969-59.896-67.143-63.731 13.086 38.383 13.528 66.664 67.143 63.731z"/>
   <path d="m363.36 817.39l-25.488 14.006c5.1315-167.2-35.861-350.63-75.811-541.26l19.552 0.7561c32.415 145.77 78.743 375.44 81.747 526.5z"/>
   <path d="m261.85 317.81c-5.4418-47.492 10.986-67.976 40.749-83.122 1.0982 40.538 10.531 67.202-40.749 83.122z"/>
  </g>
  <g fill="#fff" fill-rule="evenodd" stroke-width="4">
   <path d="m490.18 219.99c37.88-29.158 41.148-55.212 31.299-87.122-29.865 27.434-55.573 39.227-31.299 87.122z"/>
   <path d="m489.81 202.55c16.971-44.689 40.97-55.344 74.365-55.135-17.637 36.517-21.499 64.536-74.365 55.135z"/>
   <path d="m478.37 239.65c16.971-44.689 40.97-55.344 74.365-55.135-17.637 36.517-21.499 64.536-74.365 55.135z"/>
   <path d="m484.07 244.88c28.947-38.042 25.293-64.045 7.4498-92.274-21.66 34.284-43.394 52.384-7.4498 92.274z"/>
   <path d="m468.55 274.07c16.971-44.689 40.97-55.344 74.365-55.135-17.637 36.517-21.499 64.536-74.365 55.135z"/>
   <path d="m474.6 272.92c22.006-42.436 13.954-67.43-8.4586-92.187-15.47 37.486-33.785 59.04 8.4586 92.187z"/>
   <path d="m456.77 307.08c16.971-44.689 40.97-55.344 74.365-55.135-17.637 36.517-21.499 64.536-74.365 55.135z"/>
   <path d="m465.67 309.66c16.391-44.905 5.2051-68.662-20.194-90.345-10.542 39.159-25.946 62.88 20.194 90.345z"/>
   <path d="m443.37 342.78c16.971-44.689 40.97-55.344 74.365-55.135-17.637 36.517-21.499 64.536-74.365 55.135z"/>
   <path d="m298.14 831.34l23.606 16.988c15.147-166.59 78.044-343.71 140.78-528.1l-19.5-1.6164c-49.823 140.77-123.62 363.15-144.88 512.73z"/>
   <path d="m459.37 347.72c11.151-46.484-2.6767-68.806-30.387-87.445-5.9975 40.107-18.589 65.434 30.387 87.445z"/>
  </g>
  <g fill="#fff" fill-rule="evenodd" stroke-width="4">
   <path d="m325.52 236.29c-27.604-39.027-23.046-64.887-4.2303-92.476 20.452 35.018 41.542 53.864 4.2303 92.476z"/>
   <path d="m331.02 219.74c-3.045-47.705-22.838-64.96-54.81-74.603 6.0901 40.093 1.5225 68.006 54.81 74.603z"/>
   <path d="m331.02 258.57c-3.045-47.705-22.838-64.96-54.81-74.603 6.0901 40.093 1.5225 68.006 54.81 74.603z"/>
   <path d="m324.02 261.88c-16.448-44.884-5.2929-68.654 20.078-90.37 10.592 39.145 26.026 62.846-20.078 90.37z"/>
   <path d="m330.26 294.35c-3.045-47.705-22.838-64.96-54.81-74.603 6.09 40.093 1.5225 68.006 54.81 74.603z"/>
   <path d="m324.81 291.47c-8.5208-47.037 6.5396-68.547 35.254-85.598 3.7338 40.38 14.882 66.375-35.254 85.598z"/>
   <path d="m331.78 329.36c-3.045-47.705-22.838-64.96-54.81-74.603 6.09 40.093 1.5225 68.006 54.81 74.603z"/>
   <path d="m322.52 329.21c-2.4274-47.741 15.263-67.145 45.924-80.379-1.4677 40.526 6.2601 67.734-45.924 80.379z"/>
   <path d="m334.06 367.43c-3.045-47.705-22.838-64.96-54.81-74.603 6.09 40.093 1.5225 68.006 54.81 74.603z"/>
   <path d="m328.84 877.09l-27.563 9.276c34.627-163.65 26.729-351.44 21.13-546.13l19.11 4.203c6.118 149.2 11.087 383.45-12.677 532.65z"/>
   <path d="m317.31 367.43c3.045-47.705 22.838-64.96 54.81-74.603-6.09 40.093-1.5225 68.006-54.81 74.603z"/>
  </g>
  <g fill="#fff" fill-rule="evenodd" stroke-width="4">
   <path d="m415.52 193.9c31.953-35.554 30.433-61.768 14.952-91.358-24.384 32.403-47.522 48.669-14.952 91.358z"/>
   <path d="m411.99 176.82c8.5699-47.028 30.234-61.865 63.111-67.726-10.709 39.113-9.4176 67.368-63.111 67.726z"/>
   <path d="m407.47 215.38c8.57-47.028 30.234-61.865 63.111-67.726-10.709 39.113-9.4176 67.368-63.111 67.726z"/>
   <path d="m414.03 219.49c21.554-42.667 13.238-67.574-9.4366-92.091-15.071 37.648-33.156 59.395 9.4366 92.091z"/>
   <path d="m404.07 251.01c8.57-47.028 30.234-61.865 63.111-67.726-10.709 39.113-9.4176 67.368-63.111 67.726z"/>
   <path d="m409.81 248.78c13.931-45.728 1.473-68.842-25.064-89.116-8.4025 39.673-22.497 64.195 25.064 89.116z"/>
   <path d="m398.49 285.61c8.57-47.028 30.234-61.865 63.111-67.726-10.709 39.113-9.4175 67.368-63.111 67.726z"/>
   <path d="m407.7 286.53c7.9606-47.135-7.3545-68.464-36.269-85.172-3.2532 40.422-14.092 66.547 36.269 85.172z"/>
   <path d="m391.79 323.15c8.5699-47.028 30.234-61.865 63.111-67.726-10.709 39.113-9.4175 67.368-63.111 67.726z"/>
   <path d="m337.73 829.96l26.299 12.418c-15.368-166.57 14.306-352.17 42.499-544.88l-19.469 1.9529c-23.421 147.48-55.587 379.56-49.328 530.51z"/>
   <path d="m408.43 325.1c2.5212-47.736-15.131-67.175-45.766-80.469 1.3881 40.529-6.3932 67.722 45.766 80.469z"/>
  </g>
  <path d="m628.49 568.44" fill="url(#a)" stroke-linecap="round" stroke-linejoin="round" stroke-width="5.031"/>
 </g>
</svg>
