<?xml version="1.0" encoding="UTF-8"?>
<svg viewBox="0 0 793.7 1122.5" xmlns="http://www.w3.org/2000/svg">
 <g fill="#fff" stroke-linecap="square" stroke-linejoin="round">
  <g stroke-width="5">
   <path d="m94.675 44.233l132.8 70.674 216.72 85.612 151.94 69.704 37.622 10.248-20.642 47.104-35.651-21.862-147.53-58.413-213.92-106.22-141.97-49.739 20.642-47.104z" stroke="#000"/>
   <path d="m90.06 69.219l202.34 83.557 165.63 75.414 124.91 54.073 31.498 15.261-3.1133 18.948-29.711-16.96-113.62-44.481c-59.571-29.154-119.14-58.308-178.71-87.462-66.938-31.059-136.78-56.68-207.07-80.944l7.8588-17.407z"/>
  </g>
  <path d="m45.764 212.67c8.7362-45.977 53.014-113.24 64.995-141.68 11.981-28.442 3.7605-15.236 15.741-43.679l80.278 36.554c-11.981 28.442-9.1663 15.451-21.147 43.894-11.981 28.442-27.946 97.889-55.129 143.49l-84.738-38.584z" stroke="#000" stroke-width="4.275"/>
  <path d="m66.328 166.31c17.312-31.391 33.281-55.209 42.29-78.418 9.0089-23.209 12.194-30.106 21.203-53.315l67.826 33.201c-9.0089 23.209-14.898 30.172-23.907 53.382-9.0089 23.209-10.418 41.419-25.775 79.731l-81.636-34.581z" stroke-width="3.462"/>
 </g>
</svg>
