<?xml version="1.0" encoding="iso-8859-1"?>
<!-- Generator: Adobe Illustrator 19.0.0, SVG Export Plug-In . SVG Version: 6.00 Build 0)  -->
<svg version="1.1" id="Capa_1" xmlns="http://www.w3.org/2000/svg" xmlns:xlink="http://www.w3.org/1999/xlink" x="0px" y="0px"
	 viewBox="0 0 512 512" style="enable-background:new 0 0 512 512;" xml:space="preserve">
<path style="fill:#455A64;" d="M336.005,0c-26.51,0-48,21.49-48,48v416c0,26.51,21.49,48,48,48s48-21.49,48-48l0,0V48
	C384.005,21.49,362.515,0,336.005,0z"/>
<path style="fill:#ECEFF1;" d="M432.005,64H298.117c-34.74,0.036-68.709-10.244-97.6-29.536L152.869,2.688
	C147.227-1.07,139.83-0.865,134.405,3.2c-77.762,58.321-93.521,168.638-35.2,246.4c10.006,13.342,21.858,25.194,35.2,35.2
	c2.77,2.077,6.138,3.2,9.6,3.2c3.155-0.002,6.239-0.938,8.864-2.688l47.648-31.744c28.893-19.317,62.876-29.609,97.632-29.568
	h133.856c8.837,0,16-7.163,16-16V80C448.005,71.163,440.842,64,432.005,64z"/>
<path d="M144.005,288c-3.462,0-6.83-1.123-9.6-3.2c-77.762-58.321-93.521-168.638-35.2-246.4c10.006-13.342,21.858-25.194,35.2-35.2
	c5.425-4.065,12.822-4.27,18.464-0.512l47.648,31.776c28.894,19.285,62.861,29.564,97.6,29.536h133.888c8.837,0,16,7.163,16,16v128
	c0,8.837-7.163,16-16,16H298.117c-34.746-0.04-68.718,10.252-97.6,29.568l-47.648,31.744
	C150.244,287.062,147.16,287.998,144.005,288z M144.933,35.84c-59.735,52.503-65.598,143.49-13.095,203.225
	c4.079,4.641,8.453,9.015,13.095,13.095l37.824-25.216c34.143-22.817,74.294-34.98,115.36-34.944h117.888V96H298.117
	c-41.061,0.034-81.208-12.116-115.36-34.912L144.933,35.84z"/>
<path d="M368.005,96c-8.837,0-16-7.163-16-16V48c0-8.837-7.163-16-16-16s-16,7.163-16,16v32c0,8.837-7.163,16-16,16s-16-7.163-16-16
	V48c0-26.51,21.49-48,48-48s48,21.49,48,48v32C384.005,88.837,376.842,96,368.005,96z"/>
<path d="M336.005,512c-26.51,0-48-21.49-48-48l0,0V208c0-8.837,7.163-16,16-16s16,7.163,16,16v256c0,8.837,7.163,16,16,16
	s16-7.163,16-16V208c0-8.837,7.163-16,16-16s16,7.163,16,16v256C384.005,490.51,362.515,512,336.005,512L336.005,512z"/>
<g>
</g>
<g>
</g>
<g>
</g>
<g>
</g>
<g>
</g>
<g>
</g>
<g>
</g>
<g>
</g>
<g>
</g>
<g>
</g>
<g>
</g>
<g>
</g>
<g>
</g>
<g>
</g>
<g>
</g>
</svg>
