<?xml version="1.0" encoding="UTF-8"?>
<svg width="696.56" height="2437.5" version="1.1" viewBox="0 0 696.5625 2437.5" xmlns="http://www.w3.org/2000/svg">
 <path d="m328.77 2435.3c-0.79722-1.2167-2.0568-2.8196-2.7991-3.5619-1.7928-1.7927-9.4652-18.078-10.751-22.82-0.55933-2.0625-1.5165-6.2813-2.127-9.375-0.61054-3.0938-1.5213-6.1339-2.0239-6.7559-0.50261-0.6219-0.66984-1.5256-0.3716-2.0082 0.29824-0.4825-1.5895-6.5127-4.195-13.4-4.454-11.774-10.221-29.065-12.151-36.429-0.47289-1.8047-1.4951-5.6016-2.2716-8.4375-10.209-37.283-9.6374-34.766-16.002-70.515-1.2591-7.0725-2.0574-13.463-1.7739-14.202 0.28343-0.7385 0.0647-1.6214-0.48609-1.9618-0.55077-0.3404-1.0014-1.8347-1.0014-3.3207s-0.42188-2.9626-0.9375-3.2812c-0.51563-0.3187-0.9375-1.7671-0.9375-3.2188 0-1.4516-0.65291-4.4852-1.4509-6.7415-0.798-2.2562-1.2402-4.914-0.98256-5.9062 0.2576-0.9921-0.27854-4.1562-1.1914-7.0312-0.91288-2.8751-1.7546-7.3367-1.8705-9.9148-0.1159-2.5782-0.62178-6.2368-1.1242-8.1303s-1.1539-5.9013-1.4477-8.9063c-0.29383-3.0049-0.72897-6.5181-0.96699-7.8072-0.238-1.2891-0.77997-6.1406-1.2044-10.781-0.4244-4.6407-1.2663-10.24-1.871-12.444-0.60464-2.2033-0.88183-4.3579-0.61599-4.788s0.0735-3.2681-0.42736-6.3065c-0.50089-3.0385-1.11-8.7493-1.3536-12.691-0.24363-3.9413-0.83595-8.1601-1.3163-9.375-2.1858-5.5283-4.6492-27.119-4.9585-43.459-0.0781-4.125-0.47307-7.9366-0.87771-8.4703-0.40465-0.5335-0.75724-2.4319-0.78354-4.2187-0.0584-3.9657-0.60164-11.162-2.5454-33.717-1.2886-14.953-1.6951-28.737-2.1978-74.531-0.0509-4.6407 0.21686-13.922 0.59512-20.625 0.37825-6.7032 0.55245-14.086 0.3871-16.406-0.3498-4.9088-0.36888-2.4381 0.28226-36.562 0.28041-14.695 0.73842-33.047 1.0178-40.781 0.46775-12.949 0.56263-21.11 0.49589-42.656-0.16372-52.849 0.81993-112.77 1.8618-113.41 0.93265-0.5764 0.88576-1.1985-0.22287-2.9572-1.1999-1.9036-1.3436-7.0648-0.98839-35.509 0.22858-18.305 0.30094-35.391 0.16079-37.969-0.14015-2.5782-0.22217-7.4297-0.18226-10.781 0.0399-3.3516 0.0626-15.797 0.0504-27.656s0.0487-23.039 0.13519-24.844c0.0865-1.8047 0.2624-15.727 0.3908-30.938 0.12839-15.211 0.59118-28.21 1.0284-28.887 0.49955-0.7735 0.20412-1.8838-0.79496-2.9878-0.87446-0.9663-1.3549-2.1371-1.0676-2.6019 0.63224-1.023 1.801-87.865 1.5358-114.12-0.25038-24.786-0.27213-71.818-0.034-73.594 0.30552-2.2792-0.73989-63.647-1.0977-64.436-0.17978-0.3963-0.0298-5.9939 0.33336-12.439 0.36313-6.4453 0.62078-27.961 0.57255-47.812-0.0482-19.852-0.0324-38.414 0.0352-41.25s0.30741-35.742 0.53301-73.125 0.63301-70.711 0.90535-74.062c0.4227-5.2022 1.9202-71.947 1.8299-81.562-0.36182-38.549-0.11915-48.16 1.4873-58.9 0.95588-6.391 1.0757-20.234 0.87811-101.41-0.0517-21.257 0.23622-27.964 1.4087-32.812 2.418-9.9983 3.4672-38.124 1.9759-52.969-1.2966-12.907-0.18539-70.958 1.4774-77.179 1.4277-5.3416-0.21807-6.777-8.4294-7.352-2.3203-0.16247-9.7031-0.65607-16.406-1.0969-6.7031-0.4408-13.309-1.2632-14.68-1.8276-4.7727-1.9652-18.022-2.4974-19.446-0.78122-1.4324 1.7259-3.1355 1.92-5.4964 0.62622-7.0829-3.8814-25.188-6.1358-29.193-3.6349-1.6468 1.0284-2.7281 0.94654-6.855-0.51924-3.6175-1.2848-7.2379-1.7046-13.834-1.604-6.5123 0.0993-10.812-0.38937-15.863-1.8029-4.7462-1.3283-9.1764-1.8756-14.062-1.7375-6.9607 0.19681-16.937-1.6477-23.071-4.2656-7.645-3.2627-10.391-4.9421-11.238-6.8719-0.63844-1.4552-1.7287-2.1094-3.5156-2.1094-1.4246 0-3.4666-0.87637-4.5377-1.9475-2.103-2.103-4.6151-1.8175-4.6151 0.52452 0 1.3268-4.9766 4.0224-12.656 6.8554-1.6528 0.6097-6.6782 0.88414-12.188 0.66555-5.1563-0.20459-11.844-0.37102-14.862-0.36984-13.424 0.00562-28.086-7.521-27.174-13.949 1.6444-11.588 6.8996-14.635 33.349-19.338 11.716-2.083 27.064-0.10328 28.515 3.6782 0.9687 2.5244-0.50025 2.7235-4.3071 0.58397-5.7947-3.2568-20.889-3.0323-33.801 0.50287-2.8359 0.7764-6.6328 1.7322-8.4375 2.1239-21.153 4.5916-9.6791 19.447 14.654 18.973 6.2552-0.12174 13.216-0.47642 15.469-0.78817 2.2527-0.31176 6.9307-0.69132 10.396-0.84349 8.1475-0.35781 7.8779-0.0826 8.64-8.82 0.7777-8.9153 2.9003-11.29 10.092-11.29 6.9624 0 27.636-5.0021 31.218-7.5532 0.51563-0.3673 2.4141-0.97618 4.2188-1.3531s3.7031-1.0042 4.2188-1.3939c0.51563-0.38976 4.9453-1.4518 9.8438-2.3601 4.8984-0.90832 11.648-2.4269 15-3.3747 10.799-3.0537 20.033-4.8773 37.5-7.4054 7.4766-1.0821 17.62-2.5789 22.541-3.3261s10.827-1.3582 13.125-1.3578c2.2978 3.9e-4 7.5528-0.60901 11.678-1.3542 7.5877-1.3708 16.382-2.6291 29.945-4.2848 9.2599-1.1303 8.8523-0.64952 9.9979-11.794 0.52509-5.1078 1.3646-10.042 1.8656-10.966s0.64258-2.1129 0.31467-2.6434c-0.88662-1.4346 2.494-63.117 4.4505-81.202 0.82161-7.5947 0.78957-9.8848-0.15417-11.022-0.94356-1.1369-0.95946-2.2633-0.0765-5.417 0.61314-2.1899 1.2843-6.0894 1.4914-8.6655 0.42157-5.2425 1.7469-14.801 3.7044-26.715 2.1276-12.95 2.2928-14.935 1.2938-15.553-1.0595-0.65482-0.15811-9.6019 1.1286-11.202 0.43059-0.53556 1.2329-3.6996 1.7828-7.0312 0.54997-3.3316 1.406-7.745 1.9023-9.8075 0.49627-2.0625 0.91862-7.9688 0.93854-13.125 0.02-5.1562 0.69189-12.117 1.4933-15.469 1.3385-5.5979 2.9765-13.764 5.1714-25.781 0.47088-2.5781 1.0591-6.9399 1.3072-9.6928 0.24808-2.7529 1.0891-7.1537 1.8689-9.7795s1.4178-6.6039 1.4178-8.8401 0.80426-7.1167 1.7872-10.845c0.98298-3.7288 1.991-9.5218 2.24-12.873 0.249-3.3516 1.5988-11.367 2.9995-17.812 1.4007-6.4453 2.7515-12.773 3.0018-14.062 0.25024-1.2891 1.1334-3.8203 1.9627-5.625 2.122-4.6182 2.1332-12.519 0.0224-15.72-1.8669-2.831-2.3028-10.047-0.66793-11.057 0.56823-0.35119 1.6286-2.0636 2.3563-3.8053 0.72775-1.7417 1.7665-3.1668 2.3083-3.1668 0.67595 0 0.78094-5.2228 0.33454-16.641-0.44218-11.31-0.30617-18.292 0.42457-21.797 0.59135-2.8359 1.4777-8.6922 1.9697-13.014s1.5713-8.8908 2.3986-10.153c1.7068-2.605 3.631-9.4788 5.7181-20.426 1.5017-7.8772 2.4579-9.8438 4.7865-9.8438 1.4099 0 6.4603-4.9847 13.479-13.304l3.7104-4.3977 5.6913 2.9915c3.774 1.9837 6.6098 4.322 8.4177 6.9411 1.4995 2.1723 3.2442 4.2817 3.8771 4.6875 2.0889 1.3394 5.0174 6.29 6.5369 11.05 3.1055 9.7289 4.4585 15.266 4.4874 18.364 0.0164 1.7594 0.64921 4.0178 1.4062 5.0187s1.3788 3.3212 1.3817 5.1562c3e-3 1.835 0.47103 5.0143 1.0404 7.0649 0.5693 2.0507 1.1573 5.2147 1.3066 7.0312 2.0639 25.103 2.2882 30.233 1.3949 31.902-2.3199 4.3348 1.1068 12.07 5.7697 13.023 3.753 0.76757 4.8649 3.6934 1.7165 4.5167-1.7909 0.46833-1.983 0.98629-1.4958 4.0332 0.44976 2.8126 0.0745 4.2063-1.9197 7.1306-3.4166 5.0101-4.1675 9.0081-2.6808 14.274 0.67716 2.3985 1.5043 6.2384 1.8382 8.5331 0.33384 2.2947 0.9526 4.615 1.375 5.1562s1.0281 4.2153 1.346 8.1646 1.0493 9.2228 1.6255 11.719c3.0426 13.182 3.6004 16.485 4.0908 24.226 0.61769 9.7502 1.7978 16.452 4.2918 24.375 1.1642 3.6984 1.9314 9.6388 2.24 17.344 0.25812 6.4453 1.1661 14.434 2.0177 17.753 0.85161 3.3186 1.7018 7.9593 1.8892 10.312s0.75121 6.8098 1.2528 9.9036c0.50156 3.0938 1.6224 10.898 2.4908 17.344s1.907 12.589 2.3081 13.652c0.40104 1.0632 1.2194 8.235 1.8186 15.938 0.59919 7.7024 1.447 15.903 1.884 18.223 0.9292 4.9332 2.1302 14.087 4.7355 36.094 1.0378 8.7656 2.3003 19.312 2.8056 23.438 0.50534 4.125 1.5645 15.472 2.3536 25.216 0.78914 9.7439 1.6656 18.09 1.9477 18.546 0.28208 0.45643 0.89875 8.5154 1.3704 17.909 0.47162 9.3934 1.0036 17.908 1.1822 18.921 0.51287 2.9089 5.3679 4.9525 13.384 5.6336 4.0682 0.34566 9.717 1.0116 12.553 1.4799 2.8359 0.46827 9.1641 1.2921 14.062 1.8308 4.8984 0.53868 12.07 1.6393 15.938 2.4458 3.8672 0.80653 10.617 2.0479 15 2.7586 4.3828 0.71074 10.711 1.7691 14.062 2.3519 3.3516 0.58281 12.131 2.1056 19.51 3.384 7.3788 1.2784 18.348 2.8932 24.375 3.5885 6.0274 0.6953 13.279 1.9287 16.115 2.7409 2.8359 0.81217 7.4766 1.932 10.312 2.4885 9.8843 1.9396 23.679 6.6664 27.49 9.4196 3.9637 2.8636 8.7418 2.691 16.104-0.58172 3.8294-1.7023 20.773-3.2882 35.132-3.2882 7.8246 0 12.211-0.37385 12.94-1.1028 0.84546-0.84546 1.4909-0.75948 2.7656 0.36842 0.91453 0.8092 4.194 1.9816 7.2878 2.6053 8.1251 1.6381 9.4817 2.5246 11.298 7.3832 0.89213 2.3868 2.0448 4.8772 2.5614 5.5342 0.51664 0.65699 0.64536 1.4885 0.28603 1.8478-0.35932 0.35933-0.97785 0.12823-1.3745-0.51356-0.53811-0.87067-1.1562-0.68614-2.4351 0.72696-2.0572 2.2732-4.2418 1.0516-4.2418-2.372 0-7.5475-4.1014-10.138-18.511-11.69-23.746-2.5579-52.954 2.0133-49.314 7.718 0.42568 0.66712 0.98935 3.5277 1.2526 6.3569 0.47507 5.1058 0.50462 5.1481 3.9912 5.7113 1.9319 0.31206 4.2522 1.1921 5.1562 1.9556 2.4829 2.0971 14.299 3.6138 27.626 3.5459 12.999-0.0662 14.682-0.53991 22.137-6.2296 6.4302-4.9078 10.175-3.4332 4.9554 1.9516-1.6048 1.6558-2.9179 3.4938-2.9179 4.0846 0 1.2724-3.7702 4.0911-4.7018 3.5153-0.35546-0.21968-2.9234 0.46233-5.7066 1.5156s-6.3259 2.3305-7.8728 2.8384c-4.1509 1.3629-20.463 1.0353-29.062-0.58364-4.125-0.7766-9.1279-1.652-11.117-1.9452-2.2267-0.32821-4.5082-1.4944-5.9345-3.0333-2.1052-2.2716-2.4001-2.3517-3.226-0.87591-0.49992 0.89332-1.4866 1.6242-2.1926 1.6242s-2.478 0.5962-3.9378 1.3249c-8.4882 4.2372-17.678 7.1126-22.73 7.1126-1.9002 0-3.8556 0.38486-4.3455 0.85525-0.90404 0.86813-7.7588 2.2309-19.641 3.9048-3.6094 0.50847-7.295 1.333-8.1904 1.8322-0.89535 0.49925-3.2157 0.91092-5.1562 0.91481-3.9361 8e-3 -13.736 1.4008-19.466 2.7667-12.485 2.9762-16.379 3.7898-20.156 4.2109-2.3203 0.25865-5.9062 0.90108-7.9688 1.4276-2.0625 0.52655-9.2031 0.98515-15.868 1.0191-6.6648 0.0339-13.837 0.43489-15.938 0.89091-2.1008 0.45604-6.3508 1.4031-9.4446 2.1046-3.4261 0.77685-10.023 1.1962-16.875 1.0728-6.1875-0.11142-12.757 0.17663-14.599 0.64012l-3.3492 0.84271-1.2262 10.311c-0.72489 6.0956-0.95268 12.711-0.55718 16.181 0.36796 3.2283 0.82283 20.635 1.0108 38.682 0.30975 29.733 0.84082 47.948 1.8177 62.344 0.19244 2.8359 0.6555 10.641 1.029 17.344 0.44186 7.9297 1.1452 12.901 2.0132 14.231 1.1671 1.7877 1.1438 2.334-0.18544 4.3627-1.2152 1.8546-1.4086 3.7927-0.96569 9.6752 0.30462 4.0458 0.5375 20.088 0.5175 35.649s0.41209 31.517 0.96018 35.458c0.70448 5.065 0.70399 7.5173-2e-3 8.3676-0.68643 0.8271-0.97026 21.23-0.90873 65.324 0.0492 35.266-0.17922 67.074-0.50762 70.683-0.68558 7.5352-1.3188 56.698-1.9085 148.18-0.22624 35.093-0.77959 64.802-1.2297 66.018-0.45007 1.2167-0.48932 3.9337-0.0872 6.0377 0.41889 2.192 0.29575 6.2614-0.28839 9.5297-0.68115 3.8112-0.71055 6.2562-0.0886 7.3675 0.51198 0.9149 0.64838 3.4105 0.30312 5.5459-0.60746 3.757-0.54932 10.216 0.41475 46.07 0.61862 23.007 0.64756 21.82-0.89184 36.562-1.0873 10.413-1.2405 20.681-0.74131 49.688 0.34606 20.109 0.59472 38.25 0.55256 40.312-0.79493 38.888-1.3669 91.964-1.2124 112.5 0.10862 14.438 0.14925 32.789 0.0903 40.781-0.093 12.61-0.18129 52.948-0.17336 79.219 0.0126 41.564-0.872 157.96-1.2396 163.12-0.2569 3.6093-0.70708 21.961-1.0004 40.781-0.98447 63.165-2.9961 138.87-3.7617 141.56-0.34305 1.2073-1.1222 14.478-2.7796 47.344-0.41485 8.2264-1.0754 16.169-2.417 29.062-1.2073 11.602-2.699 35.592-3.2751 52.671-0.2641 7.8286-0.66374 14.79-0.88809 15.469-0.34445 1.0428-1.4647 14.049-1.6002 18.579-0.0232 0.7734-0.44778 6.2578-0.94366 12.188-0.49587 5.9297-1.055 14.156-1.2425 18.281s-2.2384 18.047-4.5575 30.938c-2.3192 12.891-4.6832 27.023-5.2535 31.406s-1.4431 9.8672-1.9396 12.188c-0.49651 2.3203-1.7315 9.2813-2.7445 15.469-1.8467 11.28-3.2368 18.178-8.4069 41.719-2.69 12.248-4.4944 19.835-6.5777 27.656-0.54936 2.0625-2.7092 10.922-4.7997 19.688-2.0905 8.7656-5.2247 21.844-6.9649 29.062-1.7402 7.2187-4.0521 16.824-5.1375 21.346-2.1244 8.8497-3.5087 13.017-4.5815 13.791-0.37163 0.2683-1.8612 3.3166-3.3102 6.7739-3.141 7.4944-5.9706 10.645-4.9544 5.5158 0.34852-1.7591 1.2634-4.4606 2.0331-6.0035 0.76969-1.5428 1.3994-3.3195 1.3994-3.9482s0.92062-3.2006 2.0458-5.7154c1.1252-2.5147 2.5544-7.1035 3.1761-10.197 1.0341-5.1464 2.946-13.19 6.6851-28.125 0.77455-3.0938 1.9466-8.1563 2.6046-11.25 0.65798-3.0938 2.1152-9.6329 3.2384-14.531 1.8854-8.2232 2.7588-11.688 4.8451-19.219 0.73517-2.6538 4.0714-19.922 7.0642-36.562 0.74185-4.125 1.7859-9.137 2.32-11.138 0.53418-2.0008 1.3541-5.7977 1.8222-8.4375 0.46801-2.6398 1.744-9.0185 2.8356-14.175 1.0915-5.1563 2.3468-11.484 2.7894-14.062 0.44265-2.5782 1.4559-7.6405 2.2517-11.25 0.79576-3.6092 1.4468-8.1294 1.4468-10.045s0.86727-7.8219 1.9273-13.125c2.1476-10.745 4.7369-32.626 4.0016-33.816-0.26099-0.4224 0.19503-5.0702 1.0134-10.329 2.1281-13.675 5.8535-64.37 6.2141-84.561 0.0921-5.1563 0.52001-12.961 0.95097-17.344 0.95116-9.6731 1.6859-21.739 2.312-37.969 0.74548-19.324 2.082-36.671 2.9715-38.568 0.45005-0.9597 0.74621-3.2214 0.65812-5.0261-0.0881-1.8047 0.23682-18.68 0.72203-37.5s1.0366-45.609 1.2253-59.531c0.18872-13.922 0.76004-26.392 1.2696-27.711 0.75555-1.9564 1.0704-15.208 1.2573-52.914 0.0388-7.8296 0.73398-29.967 1.207-38.438 0.31676-5.6719 0.71654-12.844 0.88839-15.938 0.56741-10.215 0.65787-36.455 0.14705-42.656-0.27608-3.3516-0.43619-16.219-0.35581-28.594 0.20217-31.124 0.0117-41.842-0.9081-51.094-0.43572-4.3828-0.70438-14.719-0.59701-22.969 0.10736-8.25 0.2323-18.375 0.27763-22.5 0.0453-4.125 0.17783-8.7657 0.29445-10.312 0.11662-1.5469 0.0332-5.1329-0.18531-7.9688-0.67529-8.7633-0.48892-31.332 0.44901-54.375 1.2294-30.204 1.1812-49.719-0.12865-52.042-0.74162-1.3153-0.85231-5.2844-0.36605-13.125 0.38338-6.1817 0.44647-12.193 0.14018-13.358-0.3063-1.1655-0.16346-6.228 0.31742-11.25 0.92747-9.6862 1.3402-89.055 0.54373-104.57-0.25941-5.0516-0.0842-9.5722 0.38942-10.046 0.47359-0.4737 0.83383-6.0437 0.80053-12.378-0.23736-45.155-0.0762-58.472 0.79728-65.892 1.0593-8.9978 1.0604-9.133 0.27717-34.219-0.66824-21.404-0.67467-15.922 0.0771-65.625 0.8391-55.477 0.83364-50.745 0.0746-64.708-0.4143-7.6213-0.31349-12.196 0.2768-12.561 0.56771-0.3508 0.91357-8.3079 0.89023-20.481-0.021-10.949 0.28693-30.032 0.68428-42.407 1.1094-34.552 1.2678-95.223 0.2822-108.13-0.64272-8.4193-0.59336-11.92 0.18125-12.853 0.7334-0.8837 1.0538-8.5117 1.03-24.523-0.0415-27.978 0.0473-47.039 0.26348-56.522 0.0881-3.8672-0.17213-10.195-0.57838-14.062-0.40626-3.8672-0.94602-15.469-1.1995-25.781s-0.48621-18.75-0.51721-18.75-0.25282-4.2188-0.49291-9.375c-0.24011-5.1562-0.66177-11.695-0.93703-14.531-0.27527-2.8359-0.66967-14.333-0.87643-25.55s-0.64443-20.828-0.97261-21.359-0.59198-8.8616-0.58623-18.512c9e-3 -15.579-1.7034-36.896-3.2981-41.052-0.44946-1.1713-1.328-1.3165-4.4214-0.73105-3.9344 0.74463-6.549 0.71919-19.798-0.19266-9.3389-0.64274-9.7849-0.65948-12.656-0.47461-1.2891 0.083-9.6619-0.18607-18.606-0.59791-19.352-0.89104-17.403-2.7787-17.614 17.064-0.0929 8.7656-0.49003 41.883-0.88247 73.594-0.6543 52.87-0.59881 104.18 0.12522 115.78 0.16084 2.5781-0.1599 9.75-0.71276 15.938-0.55285 6.1875-0.90819 14.625-0.78966 18.75 0.11855 4.125 0.21463 15.516 0.21353 25.312-9.4e-4 9.7969 0.0339 37.641 0.0778 61.875s0.0611 50.391 0.0383 58.125c-0.0229 7.7344-0.0351 20.602-0.0271 28.594 0.0258 25.751-0.42206 144.66-0.68668 182.34-0.14121 20.109-0.26308 47.32-0.27081 60.469-7e-3 13.148-0.0237 26.016-0.0354 28.594-0.0118 2.5781 5e-3 12.492 0.0376 22.031 0.0833 24.494 0.0261 27.478-0.55838 29.062-0.85068 2.3072-1.5851 25.617-1.3293 42.188 0.13137 8.5078 0.15826 31.5 0.0597 51.094-0.0985 19.594-0.14862 42.164-0.11134 50.156 0.0765 16.389 0.0841 16.148-0.65595 20.625-0.9476 5.7328-1.3168 61.311-0.41448 62.398 0.51454 0.62 0.50004 2.2624-0.0365 4.1331-1.2048 4.2007-1.339 34.108-0.16299 36.306 0.59752 1.1165 0.61126 2.3168 0.0383 3.3408-1.1705 2.0915-1.8249 107.57-0.66736 107.57 0.46706 0 0.40039 0.8386-0.14816 1.8636-1.3718 2.5632-1.9552 17.991-0.7364 19.471 0.6717 0.8155 0.6375 2.4027-0.11108 5.1563-0.62302 2.2915-0.9528 8.4752-0.77792 14.586 0.16697 5.8347-0.0332 10.817-0.44481 11.071-1.3831 0.8547-0.81887 5.0393 0.67946 5.0393 1.2542 0 1.2643 0.2565 0.083 2.1094-1.3943 2.1869-1.8134 53.213-0.44823 54.578 0.3266 0.3266 0.24503 2.1402-0.18127 4.0304-0.42629 1.8901-0.44503 3.8729-0.0416 4.4062 0.4034 0.5332 0.45037 3.9227 0.10438 7.5321-0.346 3.6093-0.33665 7.4023 0.0207 8.4288 0.35742 1.0265 0.34749 2.9249-0.022 4.2188-0.36955 1.2937-0.36434 4.6727 0.0116 7.5086 0.38528 2.9065 0.25732 7.2294-0.29327 9.9081-0.68438 3.3293-0.67569 6.2745 0.029 9.8384 0.7137 3.6095 0.71493 5.63 5e-3 6.958-1.1102 2.0743-1.1439 12.074-0.10773 31.889 0.85614 16.372 0.87923 24.442 0.0811 28.359-0.47312 2.3221-0.29741 3.0469 0.73858 3.0469 1.4313 0 1.09 4.3582-0.60093 7.673-0.4689 0.9192-0.40889 2.6226 0.14358 4.0757 0.65214 1.7153 0.62906 3.6854-0.0737 6.2953-0.82802 3.0751-0.73078 4.5636 0.51047 7.8137 1.2061 3.1582 1.3287 4.779 0.57462 7.5944-0.52732 1.9685-0.81695 7.1651-0.64363 11.548s-0.10247 10.078-0.61289 12.656c-1.034 5.2229-1.0223 4.5126-0.25386 15.469 0.30741 4.3828 0.57308 12.398 0.59037 17.812 0.054 16.918 0.13901 105.32 0.10409 108.28-1.1173 94.634-1.5215 227.69-0.80047 263.49 0.45479 22.577 2.2019 27.837 7.578 22.814 2.1267-1.987 5.0997-0.8045 3.3108 1.3168-3.9245 4.6538-4.9689 6.2248-6.6215 9.961-2.7091 6.1243-4.4647 7.0278-6.7824 3.4904zm-4.3826-69.506c0.0503-0.5157 0.0982-7.6875 0.10629-15.938 8e-3 -8.25 0.0536-18.586 0.10119-22.969 0.0476-4.3828-0.4105-10.237-1.018-13.01-0.68202-3.113-0.7732-5.4438-0.23838-6.0937 0.74639-0.9071 1.181-78.388 1.2967-231.21 0.0257-33.847-0.93157-59.714-2.1628-58.445-0.57197 0.5896-1.9626 63.76-1.782 80.945 0.0136 1.2891-0.0419 6.1406-0.12328 10.781-0.22672 12.932-0.13134 16.545 0.54746 20.738 0.43835 2.7074 0.18507 4.7145-0.84667 6.7097-1.5591 3.0149-2.4549 30.86-1.097 34.098 0.35648 0.8502 0.25409 1.7894-0.22754 2.0871-0.96255 0.5948-0.33476 5.4613 0.80153 6.2131 1.6444 1.0879 2.0884 7.4978 0.51941 7.4978-1.8539 0-2.3139 28.822-0.48918 30.646 0.72106 0.721 0.7536 3.3262 0.11065 8.8594-0.52664 4.5322-0.70798 23.456-0.42998 44.869 0.69909 53.846-0.58942 89.909-2.9226 81.797-0.61744-2.1469-1.8857-74.744-1.6747-95.859 0.0902-9.0234 0.14386-17.039 0.11928-17.812-0.0246-0.7734-0.20694-18.07-0.40528-38.438s-0.56636-49.055-0.81783-63.75c-0.30775-17.984-0.0785-30.061 0.70154-36.943 0.69315-6.116 0.86024-12.112 0.41582-14.924-0.44149-2.7929-0.34421-6.4423 0.23979-8.9947 0.61528-2.689 0.7163-7.9754 0.2702-14.139-0.39187-5.4141-0.58885-10.266-0.43771-10.781 0.15112-0.5156 0.47417-11.906 0.7179-25.312 0.6134-33.742 0.95406-48.148 1.7292-73.125 0.71841-23.149 0.77002-27.105 0.49538-37.969-0.19119-7.563 0.41284-113.6 1.223-214.69 0.27479-34.289 0.74987-98.836 1.0557-143.44 0.30585-44.602 0.72375-82.992 0.92867-85.312 2.2712-25.717 2.147-343.41-0.13564-347.1-0.27022-0.4372 0.0215-1.4127 0.64809-2.1678 0.70824-0.8534 1.1022-4.2475 1.041-8.9695-0.0541-4.1782 0.2864-8.3156 0.75665-9.1942 0.51865-0.9691 0.50435-3.0486-0.0364-5.2863-0.9046-3.7437-1.0172-23.19-0.35501-61.345 0.50881-29.32 0.76158-101.06 0.53512-151.88-0.10455-23.461 0.069-59.742 0.3857-80.625 0.31669-20.883 0.72036-48.18 0.89705-60.66s0.59402-23.132 0.92738-23.672c0.33337-0.53939 0.26482-1.5081-0.15233-2.1526-1.029-1.5899-0.97127-55.076 0.0594-55.077 0.44986-5.8e-4 0.30137-0.62346-0.32998-1.3842-0.87008-1.0484-1.1298-11.46-1.0733-43.021l0.0745-41.638-2.0167-0.52737c-1.1092-0.29005-2.2598-0.37702-2.5571-0.19328-0.69114 0.42725-0.40084 109.4 0.34603 129.89 0.97507 26.755 1.3013 106.73 0.49531 121.41-0.42464 7.7344-1.0224 24.188-1.3284 36.562s-0.80212 30.305-1.1025 39.844c-0.30039 9.5391-0.62684 27.346-0.72547 39.571-0.17775 22.035-0.74248 27.549-1.9304 18.849-0.74324-5.443 0.31615-73.956 1.8166-117.48 0.82826-24.027 0.84606-80.02 0.0361-113.44-0.60054-24.776-0.87603-115.32-0.37798-124.22 0.11036-1.9724-0.34791-5.8137-1.7672-14.813-0.52972-3.3588-0.51579-7.4222 0.0364-10.627 1.0227-5.9362 0.46445-6.8882-3.6618-6.244-2.6159 0.40837-2.9906 0.86912-3.4416 4.2317-0.56673 4.2252-1.808 5.9777-3.4954 4.9349-0.75598-0.46722-0.94095-2.075-0.55918-4.8604 0.49668-3.6236 0.35934-4.1185-1.0614-3.8248-0.97436 0.20142-1.5532 1.0783-1.4366 2.1764 0.10743 1.0115 0.24886 3.1047 0.31429 4.6516 0.1217 2.8771-0.6969 40.397-1.4318 65.625-1.5686 53.849-2.7706 146.84-2.6538 205.31 0.0525 26.297 0.19578 75.867 0.31839 110.16 0.20056 56.088-0.27341 95.559-1.4522 120.94-1.3442 28.94-1.3691 55.932-0.0563 60.938 1.5142 5.7728 0.65665 8.0108-2.0374 5.3173-1.9496-1.9491-2.0763-11.954-0.87439-69.067 0.62853-29.868 1.031-222.33 0.76945-367.97-0.0589-32.768 0.38032-57.377 1.2882-72.188 0.92895-15.154 1.3667-47.275 0.6699-49.158-0.41449-1.1205-0.44252-5.2839-0.0623-9.252 0.75765-7.9064 0.40169-8.7646-3.8276-9.2276-3.4357-0.37612-5.1761 2.1733-4.2772 6.2655 0.75047 3.4169-0.17687 6.5286-1.9456 6.5286-0.96327 0-1.3713-1.2593-1.4427-4.4531-0.1747-7.8066-0.28193-8.1907-2.3703-8.4885-1.2744-0.18176-2.7077 0.61284-3.9467 2.188-2.0569 2.615-3.8957 2.4099-3.8957-0.43445 0-1.7099-3.2398-2.8744-7.9973-2.8744-2.0891 0-2.1263 0.17003-1.6269 7.4548 0.28993 4.23 0.0292 9.9034-0.60264 13.115-1.057 5.3728-1.3732 39.587-0.71942 77.868 0.13649 7.9922-0.0955 16.354-0.51553 18.583-0.67554 3.5838-2.1049 47.553-1.7426 53.605 0.4816 8.0447-0.19865 59.425-0.89987 67.969-0.4655 5.6719-1.095 17.245-1.399 25.719-0.30392 8.4736-0.92726 16.107-1.3852 16.962-1.2828 2.397-1.3134 25.323-0.0655 49.194 1.113 21.291 0.92852 34.907-0.88264 65.154-0.98354 16.425-1.1646 30.871-0.71086 56.721 0.15386 8.7656 0.0353 18.385-0.26367 21.376-0.29889 2.991-0.25675 5.6154 0.0936 5.8319 0.35038 0.2166 0.47038 3.0429 0.26667 6.2806-0.20372 3.2378-0.25883 8.2072-0.12246 11.043 0.13636 2.8359 0.19166 8.9531 0.12289 13.594-0.0688 4.6406-0.3343 31.931-0.59005 60.645s-0.69198 52.575-0.96943 53.024c-0.6863 1.1105-0.90129 92.578-0.28584 121.61 0.33299 15.711 0.17179 23.8-0.49017 24.597-0.54249 0.6537-0.67768 1.9322-0.30042 2.8411s0.81938 11.356 0.98248 23.215c0.16312 11.859 0.33978 21.984 0.3926 22.5 0.0528 0.5156-0.13008 6-0.40642 12.188-0.44576 9.9802-1.0579 115.32-0.76813 132.19 0.33385 19.43 0.12855 29.03-0.64066 29.956-0.83744 1.0091-0.68405 27.578 0.29252 50.668 0.26169 6.1875 0.77607 26.226 1.1431 44.531s0.71998 35.602 0.7844 38.438c0.0644 2.8359-0.19367 10.219-0.57353 16.406-1.3286 21.643-2.6735 115.34-1.7434 121.47 0.35272 2.3241 0.31364 7.9627-0.0868 12.53-0.40046 4.5674-0.36963 8.945 0.0685 9.7279 0.44551 0.7961 0.41229 2.6979-0.0754 4.3148-0.47959 1.5903-1.0314 11.262-1.2261 21.493-0.19479 10.231-0.58718 18.835-0.87198 19.12-0.2848 0.2847-0.3086 6.4686-0.0529 13.742 1.516 43.119 1.5622 47.26 0.68126 61.036-0.39566 6.1875-0.39077 14.836 0.0109 19.219 0.8563 9.3442 1.5183 29.729 1.3549 41.719-0.26389 19.361 0.36651 31.637 1.7316 33.72 0.98382 1.5015 1.458 6.0521 1.7367 16.666 0.21085 8.0301 0.76989 15.377 1.2423 16.326 0.47242 0.949 0.92769 3.4131 1.0117 5.4756 0.44112 10.827 3.0761 33.151 6.252 52.969 1.8343 11.446 3.1442 21.142 3.7863 28.026 0.30755 3.2974 1.1519 7.5161 1.8764 9.375 0.72446 1.8589 1.7513 6.0166 2.2818 9.2392 0.53055 3.2227 1.3975 8.4961 1.9266 11.719 0.52911 3.2226 1.7592 7.9687 2.7334 10.547 0.97427 2.5781 2.8815 11.648 4.2383 20.156s3.8764 20.953 5.5991 27.656c1.7227 6.7031 3.8363 15.562 4.6968 19.688s1.9173 8.5546 2.3484 9.8437 1.3135 4.875 1.9609 7.9688c0.64739 3.0937 1.9582 8.0374 2.9128 10.986 0.95468 2.9486 1.7358 6.5068 1.7358 7.9071 0 1.4004 0.77777 4.2613 1.7284 6.3578 0.95062 2.0963 3.3265 8.8741 5.2797 15.062 4.9091 15.551 5.9135 18.479 9.6484 28.125 5.446 14.065 5.2984 14.191 6.0364-5.1563 0.36387-9.5391 0.70281-17.766 0.75321-18.281zm-16.079-114.14c-0.0732-7.8633-0.21832-22.734-0.32255-33.047-0.60016-59.384-0.0181-164.92 0.98495-178.59 0.691-9.4171 1.3244-86.923 1.2259-150-0.0439-28.102-0.0876-60.797-0.0972-72.656-0.01-11.859 0.24071-86.531 0.55612-165.94 0.73949-186.18 0.84714-239.68 0.52625-261.56-0.14367-9.7969 0.27622-25.569 0.9331-35.049 1.1932-17.219 0.98903-62.186-0.49637-109.35-0.45441-14.428-0.33184-21.629 0.40689-23.906 1.0204-3.1461 1.1134-4.7405 0.92777-15.916-0.20129-12.118-0.12025-22.693 0.24785-32.344 0.44089-11.559 0.42276-23.518-0.0526-34.688-0.37708-8.8607 0.23242-23.043 1.0476-24.375 1.942-3.1736 2.2352-25.355 1.2981-98.203-0.41892-32.565-0.3005-46.641 0.39237-46.641 0.54578 0 1.0349 0.73828 1.0869 1.6406 0.13196 2.2905 0.93254 58.726 0.91432 64.453-0.0144 4.521 0.0137 7.3252 0.31934 31.875 0.0891 7.1519 0.58813 12.14 1.3701 13.694 1.032 2.0502 0.98573 3.6415-0.28764 9.8847-1.3131 6.4378-1.5693 18.748-1.9006 91.306-0.21062 46.126-0.62954 93.358-0.93096 104.96-0.30141 11.602-0.75296 55.477-1.0034 97.5-0.46129 77.395-0.94385 127.28-1.8734 193.64-0.4407 31.466-0.31222 37.09 0.91441 40.026 1.4008 3.3525 1.2998 4.7843-0.62175 8.8161-0.9807 2.0576-0.8484 3.9505 1.137 16.267 0.73107 4.5352 0.93898 11.857 0.58567 20.625-0.30126 7.4766-0.72235 32.789-0.93574 56.25-0.2134 23.461-0.6334 55.312-0.93334 70.781s-0.80164 70.523-1.1149 122.34c-0.31324 51.82-0.72918 95.906-0.92431 97.969-1.1287 11.93-1.7068 147.48-0.90531 212.29 0.26428 21.371 0.23899 39.617-0.0563 40.547-1.4834 4.6738-2.2971 0.4323-2.4184-12.606zm-6.4546-142.91c-0.0761-7.1224-0.28996-14.848-0.47511-17.169-0.27118-3.3985-0.57283-36.188-0.44417-48.281 0.0164-1.5469 0.0466-10.195 0.0669-19.219s0.22667-46.57 0.45841-83.438c0.23173-36.867 0.6164-118.92 0.85482-182.34 0.23841-63.422 0.68482-150.33 0.992-193.12 0.87919-122.49 0.77622-178.64-0.32965-179.75-3.5895-3.5895-3.9216-0.861-3.3601 27.605 1.3718 69.553 1.1806 92.609-0.76802 92.609-0.50633 0-0.67778-0.6328-0.38098-1.4062 0.65119-1.697-0.24689-4.3864-1.2564-3.7625-0.39649 0.245-0.59965 2.4575-0.45144 4.9165 0.34968 5.8018 0.29014 5.673 1.7396 3.7634 1.0626-1.3999 1.2552 0.022 1.293 9.5456 0.0244 6.1548 0.31002 12.028 0.63469 13.05 0.32468 1.0229 0.25676 2.065-0.15093 2.3158-0.4077 0.2508-0.53033 4.7385-0.27252 9.9728 0.25782 5.2343 0.20915 10.233-0.10814 11.107-0.31728 0.8748-0.22769 2.5254 0.19912 3.6681 0.49869 1.3352 0.36983 2.5078-0.36061 3.2813-0.81987 0.8681-1.1184 6.6246-1.0713 20.657 0.0359 10.699-0.28609 19.453-0.71556 19.453-0.42946 0-0.69195 2.8477-0.58331 6.3281 0.10865 3.4805-0.16323 10.903-0.60415 16.494-0.65898 8.3563-0.56677 10.317 0.51801 11.016 1.0455 0.6733 1.0731 1.0093 0.13287 1.6175-0.78774 0.5096-1.141 2.8806-1.0506 7.0509 0.13008 5.9994 0.95545 8.3182 2.228 6.2592 0.88358-1.4297 2.3532-1.1465 2.3532 0.4535 0 0.7947-0.83948 1.4062-1.9303 1.4062-1.0617 0-1.6915 0.3864-1.3995 0.8588s0.10435 1.9805-0.41686 3.3513c-1.2069 3.1744-1.2284 131.61-0.0231 137.82 0.10011 0.5156-0.0974 7.4765-0.43892 15.469-0.34151 7.9922-0.54202 39.422-0.44557 69.844 0.17024 53.699 0.16875 59.164-0.0168 61.641-0.0483 0.6445 0.0471 14.585 0.2118 30.979 0.16476 16.394-0.0236 30.316-0.4187 30.938-0.51762 0.8144-0.72936 0.7372-0.75795-0.2762-2.7228-96.484-2.3256-579.96 0.51738-629.68 0.29942-5.2355 0.20249-9.7303-0.21538-9.9884-0.41788-0.2581-0.65183-5.4667-0.51988-11.575 0.13194-6.108 0.44267-52.408 0.6905-102.89s0.67158-92.005 0.94167-92.275c2.3332-2.3333 3.2792 3.8684 3.1217 20.466-0.11182 11.786 0.18827 18 0.93647 19.392 1.2464 2.318 1.4913 9.3192 0.3507 10.024-0.41268 0.2551-0.80072 16.752-0.86232 36.66s-0.38739 37.827-0.72398 39.819c-0.42281 2.5027-0.14808 4.5193 0.88884 6.5245 1.7651 3.4133 1.6036 29.104-0.20416 32.478-0.73675 1.3751-0.76021 3.9755-0.0817 9.0534 0.60976 4.5633 0.64419 10.104 0.0957 15.415-0.76061 7.3646-0.87822 16.539-0.3917 30.556 0.14713 4.2386 2.0296 6.5727 2.0296 2.5165 0-1.0652 0.39238-2.6698 0.87196-3.566 1.2857-2.4023 2.3448-33.161 2.2638-65.747-0.09-36.211-0.0583-95.548 0.0588-109.88 0.0599-7.3317 0.47262-11.353 1.2444-12.125 2.6229-2.6229 2.5089-7.4331 1.8034 76.064-0.73332 86.794-1.5037 205.69-2.0563 317.34-0.29346 59.297-0.57859 114.35-0.63363 122.34-0.055 7.9922-0.0619 37.734-0.0151 66.094 0.0467 28.359-0.0675 63.375-0.25384 77.812-0.18636 14.438-0.35058 35.32-0.36496 46.406-0.0143 11.086-0.0318 21.211-0.0387 22.5-7e-3 1.2891-0.23398 19.219-0.50458 39.844s-0.49876 46.148-0.50702 56.719c-8e-3 10.57-0.0571 20.273-0.10858 21.562-0.0515 1.2891 6e-3 13.312 0.12719 26.719 0.51476 56.837 0.49198 58.889-0.65828 59.275-0.82191 0.276-1.1516-3.0314-1.2537-12.575zm-32.787-120.29c0-8.125 0.35714-13.125 0.9375-13.125s0.9375 5 0.9375 13.125-0.35714 13.125-0.9375 13.125-0.9375-5-0.9375-13.125zm-0.0353-35.625c-1.3888-10.17-0.69476-30.823 0.94659-28.167 1.1291 1.8269 1.1607 25.509 0.0363 27.23-0.50541 0.7734-0.94772 1.1953-0.98293 0.9375zm-0.90225-43.908c0-8.5795 0.4855-11.405 1.9598-11.405 1.3504 0 0.5809 19-0.78791 19.454-0.87953 0.2922-1.1719-1.716-1.1719-8.0497zm0.24428-22.655c0.12345-5.9297 0.58042-10.677 1.0155-10.55 1.4538 0.4256 1.5107 17.759 0.0645 19.637-1.1334 1.472-1.275 0.2809-1.0799-9.0872zm14.004-28.596c-0.1554-6.4411 0.12698-12.443 0.62752-13.337 0.62198-1.1114 0.91007 2.5975 0.91007 11.716 0 16.448-1.1506 17.661-1.5376 1.6214zm-13.713-8.4078c-0.34471-1.8375-0.35875-3.7746-0.0312-4.3045 0.84377-1.3653 0.91977-8.7083 0.1038-10.029-0.54609-0.8836-0.88371-18.83-0.68327-36.32 0.0513-4.4767-0.0469-58.913-0.14791-82.031-0.0507-11.602-9e-3 -23.414 0.0923-26.25 0.10152-2.8359-0.0607-72.867-0.36063-155.62-0.68689-189.57-0.68777-189.19 0.50116-215.62 0.54496-12.117 0.96672-22.875 0.93724-23.906-0.98792-34.566 0.0962-127.74 1.513-130.03 1.0113-1.6363 0.1376-52.058-1.0564-60.964-0.61865-4.6143-0.49426-5.458 0.88266-5.9864 1.1245-0.4315 1.4411-1.2594 1.0609-2.7742-0.78093-3.1116 1.1639-3.7969 2.2994-0.8103 0.68157 1.7926 0.64394 2.89-0.13111 3.8239-0.71598 0.8628-0.8798 3.1438-0.47997 6.6829 1.3496 11.946 1.3476 44.904-4e-3 59.162-1.54 16.251-1.8239 27.637-1.5457 61.992 0.10647 13.148-3e-3 26.016-0.2435 28.594-0.49998 5.362-1.2461 153.1-1.2618 249.84-6e-3 35.836-0.055 75.794-0.10944 88.794-0.0626 14.973 0.26355 24.315 0.88976 25.485 0.63091 1.1789 0.67923 2.661 0.13354 4.0964-0.47927 1.2605-0.50289 2.8188-0.0537 3.5455 0.46936 0.7594 0.39171 1.7901-0.18744 2.4879-0.54382 0.6553-0.74782 1.8193-0.45333 2.5867 0.29448 0.7674 0.50497 12.902 0.46774 26.965-0.0372 14.063-0.0285 37.804 0.0194 52.757 0.11198 34.972-0.04 133.16-0.21216 137.03-0.18995 4.2736-1.2102 4.7001-1.9398 0.8111zm14.175-11.512c-0.82427-1.4498-0.51643-16.172 0.33816-16.172 0.49381 0 0.88847 3.7479 0.88847 8.4375 0 7.8962-0.24746 9.4565-1.2266 7.7344zm-0.5502-111.93c0.21616-68.797 0.6082-89.471 1.6763-88.399 0.90478 0.908 0.93664 3.7381 0.86455 76.817-0.083 84.081 6e-3 79.43-1.5261 79.941-1.01 0.3371-1.1921-11.93-1.0148-68.359zm1.0068-110.49c0.0889-7.7344 0.50941-14.062 0.93455-14.062s0.77298 6.3281 0.77298 14.062c0 8.7204-0.35502 14.062-0.93456 14.062-0.58671 0-0.87441-5.234-0.77297-14.062zm0.17913-18.047c0.31092-1.1601 0.57106-5.6148 0.5781-9.899 8e-3 -4.9514 0.3544-7.5786 0.9503-7.2103 1.6798 1.0381 0.56318 19.219-1.1804 19.219-0.5023 0-0.6589-0.9492-0.348-2.1094zm1.029-44.062c0.32894-14.051 0.81563-46.852 1.0815-72.891 0.26591-26.039 0.61285-48.504 0.77098-49.922 0.15815-1.4179 0.34673-8.3789 0.41908-15.469 0.092-9.0143 0.4161-12.468 1.0778-11.484 0.59816 0.8889 0.76312 7.7866 0.44841 18.75-0.27383 9.5391-0.76051 43.289-1.0815 75s-0.6756 59.344-0.78798 61.406c-0.11237 2.0625-0.2689 7.4414-0.34785 11.953-0.0908 5.1856-0.51783 8.2031-1.161 8.2031-0.7214 0-0.84346-7.4342-0.41942-25.547zm2.9464-191.25c0.20211-13.535 0.28338-33.469 0.18061-44.297s-0.15123-22.852-0.10767-26.719c0.33362-29.622 0.26439-41.475-0.24705-42.302-0.3265-0.5283-0.60706-9.0507-0.62346-18.939-0.0228-13.721-0.26574-17.364-1.0262-15.384-2.7034 7.0384-2.9669 1.2638-2.9669-65.003 0-64.214 0.0701-66.954 1.7221-67.272 1.6141-0.3108 1.7126 0.5409 1.5695 13.581-0.84326 76.889-0.69598 86.095 1.3775 86.098 2.9864 0 3.9278 85.051 1.9511 176.25-0.26822 12.375-0.4964 23.871-0.50706 25.547-0.0107 1.6758-0.39526 3.0469-0.85466 3.0469-0.47682 0-0.67757-10.561-0.4678-24.609zm-0.44134-163.46c-0.17191-5.3985-0.64506-10.959-1.0514-12.356-0.52801-1.8159-0.57045 17.32-0.0514 23.162 0.0191 0.2148 0.34536 0.08 0.72506-0.2997 0.37969-0.3797 0.54967-5.1073 0.37774-10.506zm17.148-18.48c-0.99161-2.5841-0.0158-7.6672 1.4718-7.6672 1.0377 0 1.4062 1.085 1.4062 4.1406 0 4.1275-1.8007 6.334-2.8781 3.5266zm-1.0326-14.765c-0.76659-0.7666-0.80331-1.8594-0.12762-3.7977 0.52177-1.4968 0.75368-3.2434 0.51535-3.8815s-0.0639-7.6992 0.38749-15.691c0.45146-7.9922 0.7692-46.805 0.70611-86.25-0.16392-102.48-0.0334-138.49 0.52351-144.38 1.3716-14.488 1.7187-16.875 2.4537-16.875 0.83388 0 0.34661 234.05-0.52773 253.49-0.33028 7.3416-0.15471 11.564 0.51433 12.37 2.678 3.2268-1.5091 7.9461-4.4451 5.0102zm-32.717-77.499c-0.55454-2.1081-0.65797-7.8671-0.25699-14.309 1.2614-20.267 1.8729-54.752 2.1767-122.77 0.16712-37.408 0.55443-83.414 0.86069-102.23 1.5786-97.008 1.8276-111.79 2.0217-120 0.11578-4.8984 0.25751-13.652 0.31496-19.453 0.0613-6.1913 0.48386-10.547 1.0232-10.547 0.90107 0 0.55317 119.24-0.41441 142.03-0.85316 20.097-1.3978 74.21-1.6042 159.38-0.11495 47.438-0.46483 87.277-0.77753 88.533-0.87919 3.53-2.3213 3.2585-3.3441-0.6296zm11.369-21.723c-0.28935-0.4682-0.26015-9.0112 0.0649-18.984s0.5099-27.91 0.41077-39.861c-0.14136-17.041 0.10332-22.298 1.1343-24.375 0.98108-1.976 1.2543-6.0364 1.077-16.007-0.13062-7.3476 0.12016-13.359 0.5573-13.359 1.3596 0 1.6476 2.8379 1.7124 16.875 0.0345 7.4766 0.33694 16.869 0.67205 20.873 0.474 5.6631 0.29871 7.7534-0.78945 9.4141-1.1822 1.8042-1.342 6.4111-1.0322 29.752 0.44585 33.59-0.36986 41.234-3.8071 35.672zm2.8661-116.86c-0.81853-2.133-0.68495-105.83 0.13527-105.01 0.79305 0.79401 0.93872 7.586 1.3852 64.589 0.2956 37.738 0.0415 44.491-1.5205 40.421zm19.562-151.58c0.34497-64.91 1.2054-150.11 1.777-175.95 0.12173-5.5034 0.54283-8.023 1.388-8.3047 0.98269-0.32757 1.1087 4.9146 0.66324 27.588-1.0696 54.441-1.4105 88.751-1.5541 156.43-0.0799 37.641-0.35752 70.02-0.61705 71.953-1.6168 12.046-2.0115-5.0369-1.6571-71.719zm-19.477 23.977c-0.24644-0.9412-0.35813-4.4535-0.24819-7.805 0.10995-3.3516 0.27307-8.3086 0.36249-11.016 0.0916-2.7729 0.60101-4.9219 1.1668-4.9219 0.69506 0 0.81043 3.824 0.37476 12.422-0.64479 12.725-0.87532 14.301-1.6558 11.321zm0.75022-42.551c1.3787-17.42 1.7094-72.325 0.84233-139.86-0.41079-31.997-0.29319-46.641 0.37454-46.641 1.6736 0 2.0729 4.5757 2.0455 23.438-0.0146 10.055 0.0881 39.375 0.22825 65.156 0.20896 38.441-0.55505 82.592-1.6304 94.219-0.11922 1.2891-0.27117 4.5586-0.33766 7.2656-0.0712 2.8983-0.54726 4.9219-1.1579 4.9219-0.73088 0-0.83853-2.5081-0.36464-8.4956zm-9.834-103.77c7e-3 -3.9961 0.42331-7.8984 0.92315-8.6719 0.62304-0.9641 0.9133 1.3204 0.92315 7.2656 8e-3 5.1658-0.36468 8.6719-0.92315 8.6719-0.54559 0-0.9315-3.0373-0.92315-7.2656zm0.12774-46.763c-0.12806-22.442-0.57078-36.896-1.164-38.005-1.44-2.6907-0.70195-9.686 1.0219-9.686 1.7321 0 1.7284-0.0523 2.2451 31.406 0.42723 26.012-0.21632 52.5-1.2756 52.5-0.34143 0-0.71379-16.297-0.82745-36.216zm30.546-18.847c-0.716-1.358 0.46227-20.875 1.2603-20.875 1.0634 0 1.014 20.422-0.0509 21.08-0.45681 0.28233-1.001 0.19003-1.2094-0.20509zm17.638 1387.6c0.86571-19.96 1.1542-77.057 0.44022-87.115-0.36606-5.1563-0.737-7.8985-0.82431-6.0938-0.0873 1.8047-0.37103 8.9766-0.63048 15.938-0.25946 6.9609-0.67436 15.14-0.922 18.175-0.46778 5.7337 0.55258 72.07 1.1001 71.523 0.17103-0.171 0.54742-5.7629 0.83643-12.426zm4.051-422.97c0.0406-3.9961 0.44514-11.274 0.89897-16.172s0.49683-13.969 0.0956-20.156c-0.40127-6.1875-0.76157-12.435-0.80068-13.884-0.0406-1.503-0.47353-2.3847-1.0086-2.054-0.59214 0.366-0.9375 11.208-0.9375 29.43 0 24.884 0.25375 30.101 1.4642 30.101 0.11781 0 0.24743-3.2695 0.28803-7.2656zm0.22829-67.969c0.058-3.7383 0.4382-12.914 0.84478-20.391 0.86681-15.94 0.93113-24.368 0.65969-86.438-0.15657-35.802-0.47519-46.866-1.3756-47.766-0.93749-0.9371-1.1822 3.2258-1.2232 20.813-0.0282 12.091-0.15539 48.668-0.2825 81.281-0.12712 32.613 0.10694 59.297 0.52012 59.297 0.4132 0 0.79875-3.0586 0.8568-6.7969zm1.2154-161.72c0.29283-1.418 0.4852-12.132 0.4275-23.808s0.2484-21.802 0.68022-22.5 0.59729-6.5431 0.36771-12.988c-0.5659-15.887-0.53077-25.419 0.30232-82.031 0.74639-50.721 0.32844-67.707-1.7354-70.53-2.2101-3.0224-2.7708-0.2224-2.6401 13.185 0.0713 7.3053 0.28214 55.575 0.46875 107.27 0.31177 86.361 0.60155 98.803 2.129 91.406zm1.5966-252.64c-0.54991-2.4377-0.75131-5.0797-0.44756-5.8713 0.56104-1.462-1.1096-4.2278-2.5538-4.2278-1.4736 0 0.11303 20.161 1.8076 22.969 1.2075 2.0006 2.1809-8.4938 1.1937-12.87zm0.18399-82.896c-0.24783-56.69-0.22031-55.325-1.0879-53.957-0.4236 0.66778-0.85292 12.902-0.95403 27.188-0.10112 14.285-0.60464 32.723-1.119 40.973-0.51431 8.2501-1.1886 21.397-1.4984 29.216l-0.56328 14.216 2.2324 0.3158c2.979 0.4212 3.2246-4.3388 2.9902-57.95zm1.1385-256.96c0.13138-32.066-0.21592-45.834-1.133-44.917-0.59351 0.59351-1.2252 26.816-1.3018 54.044-0.0853 30.31-0.19621 27.829 1.1817 26.451 0.81192-0.81192 1.15-10.411 1.2531-35.578zm1.209-85.349c-0.0408-10.686 0.0533-34.735 0.20904-53.443 0.28676-34.448-0.0235-38.089-2.9932-35.12-1.9089 1.9089-2.8889 33.275-1.1253 36.018 0.43892 0.68249 0.91243 13.475 1.0522 28.428 0.22804 24.389 0.63172 41.772 1.0191 43.883 1.0076 5.493 1.898-4.0819 1.8382-19.767zm63.461-93.967c0.32091-0.51927-0.18153-1.234-1.1166-1.5882-0.93502-0.35423-2.2782-1.2157-2.9849-1.9144-0.70668-0.69871-2.4727-1.5079-3.9244-1.7983-1.4518-0.29035-2.8642-1.1134-3.1388-1.829-0.27459-0.71558-1.3211-1.301-2.3255-1.301s-2.6392-1.116-3.6328-2.48c-1.7004-2.3342-2.2971-2.4897-10.156-2.646-15.895-0.31604-23.239-2.0269-20.884-4.8649 1.8581-2.2388 0.0713-2.6623-11.684-2.7691-6.2735-0.057-12.672-0.38053-14.219-0.71894-10.629-2.3254-17.647-3.5919-19.688-3.5535-6.1087 0.11517-27.756-2.0859-30.791-3.1307-2.6203-0.90215-4.3501-0.9804-6.3398-0.28676-1.505 0.52465-3.4694 0.65133-4.3653 0.28151s-4.957-0.84541-9.0248-1.0569c-4.0677-0.21145-9.4418-1.0536-11.942-1.8716-4.7429-1.5513-8.5504-1.1357-6.685 0.72971 1.0363 1.0363 9.5098 3.7191 19.461 6.1617 3.0938 0.75937 6.4688 1.7295 7.5 2.1559 3.9756 1.6437 11.195 3.737 12.889 3.737 0.97541 0 3.537 1.2005 5.6924 2.6677s5.9228 3.423 8.372 4.3461c2.9733 1.1207 4.4531 2.2228 4.4531 3.3167 0 0.90106 0.73828 1.8506 1.6406 2.11 0.90234 0.25944 2.3408 0.76103 3.1966 1.1146 1.0705 0.44232 1.7368 0.073 2.1357-1.1837 0.33638-1.0598 2.8823-2.8599 6.065-4.2882 3.0169-1.3539 6.0099-3.0937 6.651-3.8662 0.64112-0.77252 2.4851-1.4231 4.0978-1.4457 1.6126-0.0226 4.6196-0.64909 6.6821-1.3921 4.8534-1.7485 8.9062-1.7792 8.9062-0.0674 0 0.83468-1.4492 1.5058-3.9844 1.8452-11.547 1.5456-12.28 1.7946-17.942 6.095l-5.7168 4.3417 9.3685 0.69413c5.1527 0.38177 17.384 0.90634 27.181 1.1657 18.84 0.49875 49.397 2.7659 55.023 4.0823 0.35629 0.0833 0.91038-0.27327 1.2313-0.79254zm19.739-1.3698c2.2411-1.6951 4.5547-1.7932 6.9539-0.29481 1.5099 0.94296 2.5708 0.78009 6.1061-0.9375 2.3533-1.1433 4.7069-2.0788 5.2302-2.0788 1.7876 0 13.061-5.6593 13.061-6.5567 0-0.49232 1.1779-1.5042 2.6175-2.2487 1.4396-0.74445 5.1819-3.2812 8.3161-5.6373 10.535-7.9194 31.666-11.062 41.134-6.1178 2.923 1.5265 4.75 1.8256 8.5794 1.4047 7.4536-0.81928 8.2271 2.6569 0.85725 3.8528-3.6736 0.59615-10.301-1.0287-12.828-3.1448-1.797-1.5052-10.393-1.6479-11.844-0.1967-0.70113 0.70113-1.893 0.75961-3.6366 0.17843-3.8098-1.2699-12.948 1.4924-17.455 5.2767-2.0151 1.6918-5.01 3.7435-6.6552 4.5594-1.6452 0.81582-4.184 2.6694-5.6416 4.1192s-3.2039 2.6359-3.8805 2.6359-2.2262 0.87299-3.4435 1.94l-2.2132 1.94 10.312-0.63324c5.6719-0.34828 14.742-0.90485 20.156-1.2368s10.297-0.8989 10.85-1.2598c1.3456-0.87736 16.022-2.7052 24.775-3.0855 9.6116-0.41768 32.603-4.6124 34.21-6.2417 0.59275-0.60074-5.4764-0.11026-7.7029 0.62252-1.6104 0.53003-6.7618-1.8278-10.101-4.6234l-2.8125-2.3546 2.7521-0.0337c1.5136-0.0186 3.623 0.77349 4.6875 1.7601 4.6011 4.2643 21.681-0.18566 22.2-5.784 0.0594-0.6413 0.16494-1.7919 0.23438-2.5569 0.23955-2.6394 3.1386-2.1392 3.7191 0.64178 0.45716 2.19-0.0274 3.1318-2.9288 5.6929-6.2659 5.531-1.7097 7.1146 11.23 3.9031 14.728-3.6553 19.991-4.6281 25.041-4.6281 5.6955 0 15.127-3.069 17.504-5.6958 4.3121-4.7648 1.1679-16.804-4.3886-16.804-1.7936 0-3.4773-0.74384-4.4763-1.9776-1.6074-1.9851-7.5777-4.5444-10.663-4.5708-0.90796-8e-3 -3.4392-0.82178-5.625-1.8089s-5.9682-2.0662-8.4054-2.3979-4.6656-0.98221-4.9519-1.4455c-0.28635-0.46332-1.0816-0.62713-1.7672-0.36404s-4.1526-0.21959-7.7044-1.0726c-3.5518-0.85304-8.989-1.8914-12.083-2.3075-3.0938-0.41609-8.3672-1.1948-11.719-1.7304-3.3516-0.53567-7.8896-1.1844-10.085-1.4417s-4.4804-0.77032-5.0787-1.1401c-1.0173-0.62871-8.123-1.6612-19.056-2.769-9.9528-1.0084-25.816-3.1346-26.488-3.5503-0.38798-0.23978-4.6878-0.69874-9.5552-1.0199-4.8674-0.32115-9.8312-0.83021-11.031-1.1313-3.2332-0.8115-8.108 1.4087-6.7324 3.0663 0.58711 0.70742 1.8311 1.2862 2.7645 1.2862 0.93336 0 1.9504 0.7982 2.26 1.7738 0.56141 1.7688 3.0399 2.8643 6.5946 2.9147 1.0312 0.0146 2.9297 0.62146 4.2188 1.3485 4.3229 2.4381 10.54 5.213 11.68 5.213 1.1956 0 17.548 15.409 18.92 17.828 1.9143 3.3754 7.0657 6.5468 10.634 6.5468h3.5901l0.63459-4.9219c0.98941-7.6738 2.5104-11.973 4.6282-13.082 1.0694-0.55982 3.421-2.1614 5.2257-3.559 4.2667-3.3043 7.6451-3.8538 13.814-2.2471 2.7652 0.72026 5.968 1.3096 7.1173 1.3096 2.9636 0 16.634 7.1789 18.379 9.6517 4.691 6.6465 7.6132 16.279 5.2174 17.198-2.5459 0.97695-5.1632-2.6345-6.9017-9.5232-1.0897-4.3178-2.2084-6.6929-3.4477-7.3195-1.009-0.51022-2.4674-1.2861-3.2409-1.7241-5.7756-3.2712-8.2863-3.2477-17.812 0.16626-5.3728 1.9255-5.9041 2.321-7.6571 5.6988-3.206 6.1778-3.1652 8.6437 0.20631 12.484 3.4486 3.9278 2.6797 7.1552-0.9271 3.8911-1.3706-1.2404-2.6869-1.5278-5.0055-1.0928-2.5577 0.47983-3.5393 0.17139-5.2501-1.6496-1.887-2.0087-2.4805-2.1443-5.7507-1.3142-3.8314 0.97252-12.938-1.1094-15.334-3.5057-0.60592-0.60593-2.0422-1.605-3.1917-2.2202s-2.09-1.5732-2.09-2.1288c0-1.0206-0.74856-2.0246-9.6391-12.929-4.177-5.123-5.5977-6.2087-9.3907-7.1763-2.458-0.62705-5.1106-1.6724-5.8946-2.3231-1.4945-1.2404-6.1397-2.261-16.326-3.5873-3.3516-0.43638-7.4364-1.351-9.0774-2.0325-2.5635-1.0646-3.4216-1.0239-6.0938 0.28906-1.7106 0.84049-3.9189 1.7798-4.9075 2.0874-3.0521 0.94964-0.36883 2.3439 5.3472 2.7784 2.9318 0.22287 5.8619 0.73357 6.5112 1.1349 0.64935 0.40131 3.081 1.0274 5.4036 1.3914 7.5042 1.1759 11.399 2.495 13.258 4.4901 1.0007 1.0741 2.5413 1.9546 3.4236 1.9565 7.053 0.0154 13.978 9.1016 10.246 13.444-3.4869 4.058-5.6066 3.3625-4.863-1.5956 0.63899-4.2611-4.976-10.915-9.2108-10.915-0.81881 0-1.7295-0.38962-2.0238-0.86582-1.6648-2.6937-9.9035-3.8191-31.338-4.2806-12.055-0.25956-23.619-0.92971-25.697-1.4892-7.5904-2.0439-17.379-2.7612-38.916-2.8517-19.462-0.0817-25.297-1.771-9.3281-2.7002 8.2297-0.4789 12.018-1.7272 6.2499-2.0595-15.639-0.90088-13.657-0.88335-33.672-0.2978-9.0234 0.26399-19.359 0.9112-22.969 1.4382-3.6094 0.52704-9.0938 1.1485-12.188 1.381-11.029 0.82904-21.089 2.9584-23.236 4.9187-1.1419 1.0423-3.7636 2.4165-5.8261 3.0539s-5.8594 2.1343-8.4375 3.3264c-4.5986 2.1265-12.493 4.7229-21.328 7.0149-4.4457 1.1533-6.0241 2.7865-2.6929 2.7865 0.96811 0 2.2854 0.63281 2.9273 1.4062 0.67634 0.81494 2.7215 1.4062 4.8639 1.4062 2.0333 0 4.528 0.44482 5.5438 0.98849 2.525 1.3513 16.213 3.4551 27.561 4.236 5.1562 0.35482 10.061 0.9988 10.899 1.4311 3.2967 1.6998 26.043 1.7737 26.987 0.0878 0.73924-1.3209 1.3293-1.3894 3.9907-0.46291 1.7177 0.59797 6.7091 1.341 11.092 1.6512s10.711 0.8052 14.062 1.1c3.3516 0.29477 11.156 0.68433 17.344 0.86567s17.156 0.72315 24.375 1.204c7.2188 0.48086 16.434 0.77937 20.478 0.66336 5.429-0.15573 7.4793 0.11733 7.8347 1.0434 0.69317 1.8064 7.5314 1.6001 25.593-0.77203 15.283-2.0072 21.946-3.8686 12.656-3.5359-7.8512 0.28118-8.7105-0.16035-2.8125-1.4451 4.7391-1.0323 5.8581-1.0199 7.1051 0.0786 2.0988 1.8489 4.0254 1.6335 9.3012-1.0399 5.0406-2.5543 7.8714-3.0101 7.2778-1.1719-0.49644 1.5374-8.392 5.5373-15.087 7.6432-2.9248 0.91996-5.1163 1.9987-4.87 2.3972 2.577 4.1696-53.978 8.006-69.352 4.7045-0.51563-0.11073-2.4141-0.12463-4.2188-0.0308-5.426 0.28185 0.0555 2.0365 7.9688 2.5509 6.6264 0.43072 21.7 5.4916 24.918 8.3661 0.81404 0.72716 2.1222 1.3221 2.907 1.3221 3.419 0 7.3656 2.1522 7.9077 4.3124 0.65667 2.6164 3.6714 3.021 6.5104 0.87363zm-133.65-5.1861c-0.77344-0.49984-2.107-0.91525-2.9635-0.92315-0.8565-8e-3 -2.6517-1.3854-3.9893-3.0612s-3.0815-3.733-3.8752-4.5716c-1.8527-1.9573-10.791-4.0231-26.399-6.1013-2.1699-0.28894-4.4364-1.1171-5.0367-1.8403-0.60022-0.72323-1.6595-1.315-2.3539-1.315-3.9959 0-11.269-5.5904-10.359-7.9623 0.36698-0.9563-0.64934-2.1785-3.0958-3.7229-2.0032-1.2646-4.3139-3.2583-5.135-4.4305-0.82105-1.1722-3.0383-2.5649-4.9273-3.0949-5.746-1.6122-5.2489-3.6454 0.74661-3.0533 6.8151 0.6731 16.762-1.853 16.762-4.2567 0-1.1227 1.4354-2.3448 4.1799-3.5589 2.299-1.0169 4.4332-2.2588 4.7428-2.7598s1.2763-0.91341 2.1482-0.91658c0.87191-3e-3 2.7937-0.636 4.2706-1.4062 1.4769-0.77026 3.3383-1.4005 4.1363-1.4005 0.7981 0 3.5975-0.6238 6.221-1.3862 3.9195-1.1391 21.355-4.7697 32.661-6.8009 3.3594-0.60357 3.2517-1.5162-0.51823-4.3917-3.2633-2.489-11.919-4.8508-14.353-3.9166-0.79 0.30315-2.2744 0.10269-3.2986-0.44548-3.1762-1.6999-27.419 2.1365-29.877 4.7278-1.2969 1.3676-6.38 4.5288-8.2222 5.1135-1.1507 0.36523-2.5285 1.4792-3.0617 2.4756-0.53322 0.99634-1.8147 1.8115-2.8477 1.8115s-3.6344 1.6875-5.7809 3.75-4.345 3.7613-4.8857 3.7752c-0.54066 0.0139-2.0236 1.7118-3.2955 3.7732-1.7252 2.7961-3.2729 4.0262-6.0938 4.8434-2.0797 0.60246-4.625 1.6053-5.6562 2.2285s-3.3516 1.4249-5.1562 1.7815-5.4814 1.669-8.1705 2.9166c-4.1444 1.9226-5.4816 2.1351-8.7771 1.3947-4.0996-0.92111-9.941-0.39269-10.787 0.9758-2.7482 4.4466-4.9556-0.75941-2.6559-6.2635 1.6946-4.0557 0.66071-7.9254-2.1174-7.9254-0.88569 0-3.248-1.1349-5.2495-2.5219-3.9972-2.7701-12.006-2.21-15.658 1.0951-0.86715 0.78477-2.0346 1.4268-2.5943 1.4268-6.9762 0-8.2385 20.897-1.3575 22.473 3.1596 0.72361 2.9736 2.3265-0.30727 2.6484-6.824 0.66938-11.721-11.948-7.1363-18.387 1.0987-1.543 2.0212-3.1622 2.05-3.5982 0.13083-1.9821 10.454-8.8393 14.827-9.8486 10.828-2.4993 23.559 4.5868 23.559 13.113 0 3.0112 4.4567 4.0088 6.9172 1.5483 3.8152-3.8152 0.37257-9.2226-8.8731-13.937-4.3877-2.2372-6.0978-3.6464-6.3271-5.2135-0.44956-3.0721-13.345-1.2904-37.186 5.138-3.0938 0.83418-7.1016 1.8432-8.9062 2.2424-1.8047 0.39915-4.9148 1.4222-6.9114 2.2734-1.9966 0.85126-4.661 1.5477-5.921 1.5477s-3.2124 0.49574-4.3386 1.1016c-2.0025 1.0773-5.2537 1.917-13.766 3.5554-7.1422 1.3747-7.0049 1.2001-7.2965 9.2768-0.3103 8.5953 2.39e-4 9.019 7.2965 9.9552 2.8359 0.36388 6.365 1.2468 7.8424 1.962 1.4774 0.71523 4.8524 1.5542 7.5 1.8643s6.2987 1.1197 8.1135 1.799 7.5101 1.8786 12.656 2.665c41.059 6.2746 50.14 5.9282 59.014-2.2518 9.373-8.6397 32.296-14.443 37.297-9.442 1.2009 1.2009-1.3433 7.863-4.382 11.474-1.7422 2.0705-2.0386 3.2363-1.5653 6.1565l0.58385 3.6023 11.705 1.0927c16.324 1.524 33.655 2.1399 34.226 1.2163 0.26345-0.42628 1.6157-0.18531 3.0051 0.53548 1.3893 0.7208 3.3861 1.0967 4.4372 0.83528 1.0512-0.26139 3.5987-0.0785 5.6612 0.40646 5.262 1.2372 10.742 1.3188 8.9062 0.13256zm-72.52-8.9473c0.10924-3.6687 0.61972-4.9903 2.5781-6.6748 2.673-2.2992 3.172-4.0654 1.1486-4.0654-1.61 0-8.0817 7.7725-8.0817 9.7061 0 6.781 4.1545 7.7674 4.355 1.0341zm-8.4244 0.55332c-0.63563-3.1782 4.5769-10.704 9.0679-13.093 4.3493-2.313 2.9172-3.1912-4.2954-2.6342-7.6298 0.58923-14.323 3.614-18.798 8.4946-1.4441 1.5753-4.1151 3.763-5.9354 4.8617l-3.3097 1.9975 6.4042 1.1064c16.276 2.812 17.564 2.7561 16.866-0.73346zm317.79-29.202c1.3885-2.8558 1.7162-4.4794 1.0663-5.2835-0.664-0.82152-0.4687-1.341 0.66823-1.7772 0.89193-0.34227 1.9243-0.10223 2.321 0.53967 1.1556 1.8698 5.1506 0.7994 5.4739-1.4667 0.36259-2.5412-2.138-3.5536-4.942-2.0007-1.1702 0.64806-3.9758 2.1794-6.2348 3.4029-5.1344 2.781-4.6027 2.1747-5.5357 6.3118-1.8585 8.2404 3.2156 8.4339 7.1831 0.27387zm-321.19-2.7625c8.4887-2.7362 9.1496-3.1507 15.443-9.6864 3.6162-3.7554 7.6595-7.1001 8.9851-7.4328 1.3256-0.33269 4.0147-1.8801 5.9759-3.4386 1.9611-1.5585 4.1308-2.8337 4.8214-2.8337 0.69064 0 1.9042-0.98966 2.6967-2.1992 0.79256-1.2096 2.5136-2.688 3.8245-3.2852 3.8444-1.7516 1.8088-2.7776-4.4625-2.249-4.0543 0.34167-6.2651 1.0135-7.2762 2.2111-1.0612 1.257-3.7246 1.988-9.8899 2.7143-4.6406 0.54667-11.602 1.5924-15.469 2.3238-14.908 2.8196-18.491 3.4296-24.844 4.2295-3.6094 0.45448-7.2875 0.8524-8.1737 0.88428-2.9416 0.10582-0.74803 2.5586 4.6535 5.2035 6.4153 3.1413 8.1669 5.1082 10.237 11.495 1.8967 5.8533 1.777 5.835 13.478 2.0634zm217.85-14.586c0.81562-0.31298 1.4829-1.1658 1.4829-1.8951s1.1602-1.7834 2.5781-2.3424c11.602-4.5738 11.341-5.1902-1.8748-4.4324-21.365 1.225-27.663 4.9646-11.756 6.9806 2.7272 0.34562 5.5914 0.98232 6.3648 1.4149 1.7406 0.97352 1.4481 0.94847 3.2046 0.27447zm-20.548-8.391c6.534-2.0068 18.07-4.1646 22.266-4.1648 8.2885-3.8e-4 2.0752-3.3788-7.6646-4.1676-3.8288-0.31008-7.4153-0.9404-7.97-1.4007-3.6917-3.0639-85.63-4.4081-85.009-1.3946 0.20459 0.9936 0.41553 4.043 0.46875 6.7764 0.088 4.519 0.26689 4.9172 1.9718 4.389 1.0312-0.31951 11.674-0.5229 23.65-0.45198l21.775 0.12896 2.366-2.366c1.3013-1.3013 2.366-3.018 2.366-3.8148 0-2.1337 3.4478-1.7684 4.0216 0.42614 0.29627 1.1329 1.2788 1.875 2.4825 1.875 1.0957 0 2.2202 0.59419 2.4989 1.3204 0.6586 1.7163 6.1505 3.8678 10.684 4.1857 0.77344 0.0543 3.5156-0.54927 6.0938-1.3411zm-86.072-1.5869c3.4568-2.3474 4.7614-5.0452 3.1966-6.61-0.56685-0.56685-1.0306-1.79-1.0306-2.7181 0-1.9428-0.37145-1.997-11.719-1.7105-9.7256 0.24557-9.1728 0.0407-8.4017 3.1132 0.41993 1.6731 1.8865 2.9455 4.9675 4.3098 2.4044 1.0647 5.4264 2.779 6.7154 3.8096 2.9043 2.3218 2.5506 2.3328 6.2715-0.19398zm106.59-13.164c1.1442-0.83665 1.8176-2.9862 2.1769-6.9485l0.52022-5.7371-5.5133-0.60084c-3.0323-0.33046-6.568-0.86247-7.8571-1.1823-1.2891-0.31977-4.2422-0.49706-6.5625-0.39397-4.2264 0.18776-7.5717-1.0418-6.2985-2.315 0.81584-0.81584 9.0566-0.83381 14.267-0.0311 12.925 1.9912 11.72 2.0848 11.704-0.90954-0.0282-5.316-5.7528-7.8822-18.267-8.1888-4.3138-0.10566-5.625-0.46559-5.625-1.544 0-1.5251 9.876-1.7701 18.047-0.44784l3.9844 0.64478v-4.1893c0-2.3041-0.44423-6.4617-0.98717-9.2391-0.54293-2.7774-0.97622-6.9483-0.96285-9.2686 0.0215-3.7314-1.3078-14.952-2.3878-20.156-0.21404-1.0312-0.57434-4.4062-0.80069-7.5s-0.87672-10.688-1.4453-16.875c-0.56856-6.1875-1.2049-14.414-1.4142-18.281-0.57211-10.573-2.4414-24.699-3.434-25.951-1.0169-1.2824-3.906-21.795-5.8856-41.786-0.75325-7.607-1.7944-14.625-2.3138-15.595-0.51934-0.97039-1.1568-5.0018-1.4165-8.9587s-0.68159-7.533-0.93741-7.9469c-0.42331-0.68492-1.2424-6.387-3.3773-23.512-0.41783-3.3516-1.6468-10.523-2.7311-15.938s-2.1739-14.906-2.4213-21.094c-0.55134-13.787-1.2254-18.909-2.9338-22.293-0.72347-1.4331-1.05-3.0352-0.72551-3.5601 0.32444-0.52495 0.0693-3.1247-0.56706-5.7772-0.63632-2.6525-1.2308-5.4801-1.321-6.2836s-0.40244-2.0937-0.6938-2.8672c-1.4634-3.8846-2.6189-9.5046-2.6189-12.738 0-3.9006-1.9895-13.522-2.7913-13.498-0.26947 7e-3 -1.0779 0.38668-1.7966 0.84176-1.7283 1.0944-6.6621-0.64896-6.6621-2.3541 0-0.93297 1.2246-1.3145 4.2188-1.3145 4.4952 0 5.248-1.0466 2.9819-4.1457-1.087-1.4865-3.1604-1.7377-17.109-2.0728-8.7299-0.20969-17.407-0.8465-19.282-1.4151-1.8751-0.56863-4.8283-0.80685-6.5625-0.52936-9.3032 1.4885-11.212 1.9249-11.671 2.6684-0.27704 0.44824 0.89341 0.77624 2.601 0.7289 1.7076-0.0473 5.6359 0.19416 8.7297 0.53667s8.3672 0.72024 11.719 0.83941c3.3516 0.11916 6.955 0.6874 8.0077 1.2628s2.7402 0.97284 3.75 0.88331c1.2653-0.11218 1.836 0.42007 1.836 1.7122 0 2.0424-5.6426 2.6072-9.4378 0.94467-2.8973-1.2692-19.983-1.4621-26.879-0.30351-7.9413 1.3343-8.8267 2.3329-11.432 12.894-2.3461 9.5086-2.4707 9.3067 4.6243 7.4928 10.326-2.6398 22.978-3.4197 28.727-1.7708 1.7244 0.49456 6.356 0.8992 10.292 0.8992 4.9094 0 7.4911 0.40255 8.2209 1.2819 1.9941 2.4028-0.99384 3.0867-11.616 2.6586-16.949-0.68315-30.066-0.43216-35.224 0.67402-3.4532 0.74059-5.208 0.75198-6.0666 0.0394-1.6312-1.3538-2.8727 4.1723-4.5358 20.19-0.21415 2.0625-0.84364 5.4869-1.3989 7.6098-2.0109 7.6884-3.0406 20.834-1.789 22.838 0.95494 1.5291 0.87038 2.3476-0.47838 4.6309-1.5044 2.5468-2.0623 6.1998-4.0921 26.796-0.3049 3.0938-1.3 6.8906-2.2113 8.4375-1.1431 1.9403-1.9859 6.5919-2.7177 15-0.58344 6.7031-1.6228 14.079-2.3097 16.39-0.87761 2.953-0.98674 5.1517-0.3671 7.3958 0.73791 2.6725 0.54851 3.6443-1.161 5.9564-1.6452 2.2253-2.0466 4.0698-2.0627 9.4792-0.011 3.6939-0.65465 8.4909-1.4304 10.66-0.79196 2.2144-1.1444 5.0036-0.80376 6.3608 0.34845 1.3884-0.0475 4.2985-0.9304 6.8375-0.85265 2.4522-1.6576 8.1774-1.8077 12.858-0.14887 4.6406-0.73781 16.453-1.3088 26.25-0.57095 9.7969-1.2502 21.82-1.5095 26.719-0.25927 4.8984-0.86903 12.492-1.355 16.875-0.48599 4.3828-1.1116 11.555-1.3904 15.938-0.27872 4.3828-0.94138 11.709-1.4726 16.279-0.5312 4.5709-0.66167 9.8443-0.28994 11.719 0.37172 1.8744 0.69816 6.994 0.72542 11.377l0.0496 7.9688 42.188 0.12052c27.612 0.0788 43.286 0.47435 45.368 1.1447 1.7492 0.56332 3.4667 0.84721 3.8168 0.63089 0.98265-0.60731 47.409 2.2507 50.714 3.122 0.28817 0.0759 1.2694-0.40703 2.1806-1.0733zm-128.8-14.708c0-0.55051-1.6931-0.68749-4.2188-0.34132-4.6176 0.63291-6.3082-1.6996-2.1813-3.0094 3.2061-1.0176 40.836-1.9168 48.119-1.1499 3.6094 0.38009 9.2911 0.91211 12.626 1.1823 8.1822 0.66281 9.8061 1.219 8.4236 2.8849-1.0672 1.2859-5.2214 1.2452-15.425-0.15131-11.572-1.5838-13.874-1.7363-20.156-1.3349-1.2891 0.0824-7.1953 0.13362-13.125 0.11389-8.4293-0.028-11.008 0.26531-11.822 1.3447-1.1958 1.5862-2.2404 1.8011-2.2404 0.46104zm-4.6875-12.109c-4.9573-1.3738-2.6618-3.2933 4.2188-3.5276 34.077-1.1604 60.363-0.19512 61.17 2.2462 0.29961 0.90599-5.8164 1.1104-28.05 0.9375-15.638-0.12161-29.91 0.0521-31.714 0.38616-1.8047 0.33399-4.3359 0.31497-5.625-0.0423zm110.08-9.5945c-1.9544-3.1624 12.293-3.5304 15.425-0.39845 1.2891 1.2891 0.60105 1.4242-6.7431 1.3241-4.4983-0.0613-8.4051-0.47785-8.6819-0.92566zm-114.61-5.1894c0.21429-1.1291 1.288-1.8114 3.1306-1.9892 1.5425-0.14884 6.0508-0.91016 10.018-1.6918 5.026-0.99016 14.101-1.4768 29.921-1.6044 22.556-0.18195 23.691-0.0442 23.402 2.8403-0.0401 0.39961-10.935 0.74095-24.211 0.75855-14.802 0.0196-25.588 0.43674-27.888 1.0785-7.9867 2.2289-14.734 2.5143-14.373 0.60806zm118.71-4.92c-4.8343-0.68559-5.9387-1.3107-4.9998-2.8299 1.3676-2.2127 13.196-0.16255 12.425 2.1536-0.44451 1.3352-1.8665 1.4647-7.4255 0.67631zm-121.06-6.3298c-2.0853-2.0853 3.1314-3.9218 14.375-5.0605 42.9-4.3447 58.125-4.2709 58.125 0.28175 0 0.58426-1.653 0.66258-4.4531 0.21101-5.6298-0.9079-30.333-0.5644-31.617 0.43963-0.52866 0.41347-4.3362 1.0281-8.4612 1.3659-4.125 0.33778-10.448 0.85512-14.051 1.1497-3.6032 0.29454-7.2669 0.9185-8.1415 1.3866-1.8658 0.99854-4.8852 1.1167-5.7759 0.22602zm118.13-5.6169c-0.33927-0.33928-0.23321-1.0791 0.2357-1.6441 1.1673-1.4065 12.454-0.45831 12.964 1.0891 0.41326 1.2542-11.979 1.7753-13.199 0.555zm-109.36-7.8086c-4.0129-2.4801 3.0384-5.5317 14.98-6.4831 8.1643-0.65043 43.57 0.96795 44.636 2.0403 2.0396 2.0523-2.0966 3.5115-7.1813 2.5334-7.2791-1.4002-43.505-1.5699-45.142-0.2115-2.177 1.8068-6.0022 2.9191-7.2936 2.121zm114.82-2.7767c-1.0312-0.41276-3.2461-0.53719-4.9219-0.27652-2.3857 0.3711-3.0469 0.14218-3.0469-1.055 0-1.2585 1.09-1.5289 6.1625-1.5289 5.2486 0 6.1175 0.23179 5.8594 1.5629-0.36924 1.904-1.5741 2.2897-4.0531 1.2975zm7.615-10.174c-0.28906-0.46771-3.1569-1.1254-6.373-1.4616-6.3586-0.66461-8.704-1.9432-6.3904-3.4838 2.6438-1.7604 16.428 1.858 15.676 4.1149-0.45221 1.3566-2.2672 1.8742-2.9123 0.83041zm-123.86-2.0459c-2.7194-4.4001 42.234-8.6284 61.866-5.8191 13.586 1.9442 5.3236 3.4564-19.688 3.603-13.59 0.0797-25.432 0.55625-26.765 1.0771-4.144 1.6199-14.637 2.3953-15.413 1.139zm115.77-11.434c-2.3203-0.49552-5.0625-0.97664-6.0938-1.0692-3.0289-0.27174-2.2559-2.9453 0.9375-3.2422 3.4781-0.32339 12.847 2.6525 13.367 4.2459 0.4455 1.3642-2.037 1.384-8.2111 0.0655zm-114.96-4.0129c-0.85028-2.2158-0.55548-2.3142 8.6228-2.8782 4.6022-0.28279 10.055-0.7053 12.118-0.93889 9.6841-1.0968 37.109-1.4005 38.921-0.431 2.6392 1.4125 1.282 3.111-1.9666 2.4613-1.4644-0.29288-2.879-0.18208-3.1437 0.24618-0.26469 0.42828-2.9178 0.59609-5.8957 0.37289-10.625-0.79629-18.337-0.40686-43.149 2.1789-3.9922 0.41605-5.032 0.22509-5.5064-1.0112zm117.77-7.539c-1.2891-0.7358-4.5586-1.3528-7.2656-1.371-5.0333-0.0339-7.6152-2.7298-2.8125-2.9366 8.7437-0.37653 15.051 1.2075 14.575 3.6605-0.38927 2.0058-1.7684 2.2043-4.4965 0.64713zm-119.38-4.8418c-1.5735-1.5735 1.9588-3.34 10.625-5.3136 12.28-2.7966 45.492-4.642 50.625-2.813 1.8047 0.6431 5.3906 1.1943 7.9688 1.2248 5.111 0.0606 7.636 1.1023 6.6273 2.7345-0.78754 1.2742-5.4809 1.3535-9.3732 0.15819-6.0569-1.86-24.674-2.5781-32.232-1.2434-3.9652 0.70022-9.1488 1.4541-11.519 1.6753-2.3702 0.22118-7.9764 1.2572-12.458 2.3022-9.0868 2.1188-9.383 2.1556-10.264 1.275zm107.46-6.4343c-1.4011-1.0246-1.3449-1.2397 0.59542-2.2781 3.1159-1.6676 12.258 0.35333 12.258 2.7097 0 1.2291-11.091 0.85665-12.853-0.43157zm-106.74-5.2213c-0.32943-0.53304-0.45126-1.0688-0.27073-1.1905 3.7365-2.5199 6.0123-3.4039 8.7629-3.4039 1.8394 0 4.9128-0.67107 6.8299-1.4913 3.6701-1.5703 44.684-2.333 47.043-0.87488 3.021 1.867-1.2505 3.4848-7.418 2.8094-11.857-1.2984-34.936-0.4667-38.393 1.3835-1.0131 0.54217-3.2618 0.98577-4.9973 0.98577s-3.5562 0.36608-4.046 0.81352c-1.4522 1.3265-6.8585 2.0236-7.5107 0.9684zm116.18-0.88319c-0.53695-0.53695-3.0471-1.0652-5.5781-1.1738-3.3748-0.14488-4.6018-0.57202-4.6018-1.6018 0-1.1137 1.1638-1.3626 5.625-1.2029 6.6568 0.23835 10.359 1.7987 8.7799 3.7008-1.2473 1.503-2.8916 1.611-4.2249 0.27775zm-116.64-10.811c-0.86241-1.0392-0.72488-1.4326 0.65428-1.8718 0.96042-0.30586 2.7153-0.94366 3.8997-1.4173 1.1844-0.47368 3.6343-0.86123 5.4442-0.86123s5.0596-0.43686 7.2215-0.9708c6.4362-1.5896 25.38-3.4958 26.94-2.711 0.79569 0.40022 5.5613 1.0297 10.59 1.3988 12.093 0.88771 13.411 3.8482 1.5402 3.4595-3.8581-0.12631-12.594-0.41557-19.413-0.6428-9.1569-0.30512-13.079-0.0847-15 0.84284-1.4307 0.69079-5.3434 1.4885-8.695 1.7727s-7.4429 0.92175-9.0918 1.4167c-2.2839 0.68561-3.2581 0.58659-4.09-0.41572zm114.75 0.47885c-0.54766-0.54766-2.8469-1.1352-5.1094-1.3058-6.0703-0.45746-11.081-3.9144-5.4418-3.7546 5.9804 0.16945 14.922 1.7924 14.922 2.7085 0 2.4978-2.7468 3.9759-4.3708 2.3519zm-108.06-11.077c-5.507-1.5389-2.6721-4.2058 5.5555-5.2261 2.8359-0.3517 7.2656-1.176 9.8438-1.8319 4.3697-1.1116 13.379-1.3111 34.922-0.77348 7.9462 0.19832 8.6719 0.37183 8.6719 2.0736 0 2.2547-3.8902 3.482-6.866 2.1661-5.8783-2.5994-43.055-0.0992-45.688 3.0725-1.1814 1.4235-2.7508 1.55-6.4394 0.51926zm104.46-0.6589c-1.5469-0.80836-4.8539-1.7127-7.3489-2.0097-4.667-0.55545-6.4637-2.2902-4.4536-4.3002 0.84519-0.84519 1.7676-0.72104 3.9504 0.53177 1.5663 0.89893 4.6066 1.6478 6.7562 1.6642 5.5884 0.0427 9.5655 3.5454 5.7067 5.0261-1.8401 0.70612-1.3152 0.80999-4.6108-0.91228zm-107.04-11.27c-0.65252-1.7004 1.1314-3.1482 3.916-3.1781 1.0312-0.0111 3.009-0.61178 4.3951-1.3349 3.8655-2.0167 27.101-3.1536 42.949-2.1015 2.8359 0.18828 6.9492 0.40376 9.1406 0.47884 2.812 0.0963 3.9844 0.54057 3.9844 1.5098 0 2.9986-3.547 3.5801-14.434 2.3665-15.961-1.7793-40.662-0.30349-46.41 2.7728-2.4543 1.3135-2.8623 1.2543-3.5406-0.5134zm93.66-3.9844c-0.64027-1.6681 1.6436-3.0983 4.0058-2.5085 1.0312 0.25747 4.3008 0.4739 7.2656 0.48094 4.6729 0.0111 5.3906 0.25076 5.3906 1.8 0 2.2763-15.793 2.4919-16.662 0.22752zm-93.025-8.8674c0-4.7547 60.423-7.8339 67.53-3.4414 3.3493 2.07 2.3239 2.15-24.405 1.9041-10.842-0.0997-19.617 0.24048-21.562 0.83606-6.311 1.9315-21.562 2.4276-21.562 0.70129zm102.25-0.20981c-1.4789-0.81161-2.8381-0.95729-3.8549-0.41315-2.0058 1.0734-5.2504-1.0941-4.1947-2.8022 1.0488-1.6969 9.4226-0.72572 11.728 1.3602 3.2655 2.9552 0.69186 4.2533-3.678 1.8552zm-96.88-9.4457c-5.0482-5.0482 47.852-11.018 60.024-6.7737 3.529 1.2306 2.7307 3.9358-0.9375 3.177-1.6758-0.34666-4.1016-0.56764-5.3906-0.49106-1.2891 0.0766-9.0938 0.26222-17.344 0.41255-13.068 0.23813-27.692 1.8674-33.774 3.7628-1.0444 0.32547-2.2045 0.28609-2.5781-0.0876zm95.883-1.7607c-1.2891-0.7437-4.1367-1.3671-6.3281-1.3854-2.9019-0.0242-3.9844-0.41528-3.9844-1.4395 0-1.0316 1.0614-1.4025 3.9844-1.3921 4.9718 0.0176 11.484 2.2124 11.484 3.8702 0 1.7688-2.4105 1.9309-5.1562 0.34676zm-92.845-11.302c-2.6395-3.1804 3.6712-4.8208 21.595-5.6135 4.8984-0.21664 11.54-0.75604 14.759-1.1986 6.9973-0.96208 15.373 0.0147 18.674 2.1779 4.0594 2.6598 1.437 3.3901-9.1342 2.5439-5.3723-0.43004-11.666-0.46825-13.987-0.0849s-8.9132 0.72215-14.651 0.75289c-8.0785 0.0433-10.695 0.37315-11.599 1.4621-1.5071 1.8159-4.1332 1.7975-5.658-0.0397zm84.772-0.59819c-1.1642-1.8837 0.96308-2.7993 5.1373-2.211 6.0147 0.84768 7.738 1.4365 7.1218 2.4336-0.64754 1.0478-11.597 0.84894-12.259-0.22259zm-83.323-12.003c-0.8436-1.365 0.29556-2.8278 2.2021-2.8278 0.89769 0 2.0902-0.45801 2.65-1.0178 3.484-3.484 52.559-1.8323 50.339 1.6942-1.08 1.7154-2.9415 1.8779-13.013 1.1364-5.0758-0.37373-39.904 0.98236-40.951 1.5945-0.3511 0.2053-0.90334-0.0555-1.2272-0.57952zm44.053-11.562c-3.1431-1.7154-5.1155-2.0241-12.188-1.9073-14.024 0.23149-16.612 0.44754-23.273 1.9422-4.7419 1.0642-6.6708 1.1626-7.4531 0.38025-2.9785-2.9785 10.987-5.8738 29.257-6.0655l13.931-0.14622 4.0072 2.8125c7.2125 5.0622 3.8366 7.4149-4.2819 2.9841zm36.797-9.5953c-3.0258-1.6636-3.4204-4.1701-0.65656-4.1701 2.7726 0 7.6373 2.7272 7.2054 4.0394-0.54957 1.6698-3.6375 1.7314-6.5489 0.13072zm-80.882-2.3309c-1.1671-1.8883 0.90727-2.7736 8.9845-3.8343 4.3519-0.57149 8.8216-1.4608 9.9326-1.9763s2.4818-0.65179 3.0463-0.30293c0.56447 0.34885 8.2517 0.78936 17.083 0.97891 16.012 0.34367 18.468 0.86654 17.38 3.7009-0.57949 1.5102-24.076 1.4934-32.159-0.0229-1.9243-0.36102-3.6992-0.15758-4.5122 0.51718-1.8475 1.5333-18.887 2.3436-19.755 0.93943zm-0.44661-11.538c0-4.7074 34.147-7.1191 47.578-3.3604 9.3505 2.6168 2.9709 6.0504-6.7969 3.6582-7.0092-1.7166-32.382-2.04-34.818-0.44373-2.668 1.7481-5.9631 1.8288-5.9631 0.1459zm75.374-9.564c-0.81539-3.2488-0.13395-3.6506 4.5288-2.6706 3.1217 0.65609 4.0694 1.3058 4.303 2.9497 0.48689 3.4266-7.9688 3.1593-8.8318-0.27909zm-72.209-2.7346c-1.4344-3.738 39.909-8.8895 46.658-5.8138 1.7301 0.78839 3.9545 1.5676 4.943 1.7315 2.1917 0.36347 2.9789 2.2273 1.2251 2.9003-0.7016 0.26923-3.1452 0.0827-5.4302-0.41451-4.3422-0.94484-9.6869-1.0587-16.811-0.3581-2.3203 0.22819-9.2812 0.78138-15.469 1.2293-6.1875 0.44792-11.985 1.1468-12.883 1.5531-1.1362 0.51405-1.8156 0.26228-2.2339-0.82781zm73.945-6.1572c-3.8366-1.5422-2.3749-2.8966 2.8037-2.5979 3.7972 0.21901 4.9839 0.65601 5.225 1.924 0.35186 1.8508-4.1587 2.2294-8.0287 0.67391zm-28.828-4.8531c-2.1347-1.2678-27.244-1.5475-36.797-0.40987-5.903 0.70295-8.5283-0.95043-4.2188-2.6569 9.0664-3.5901 46.641-2.0954 46.641 1.8553 0 2.2281-2.8718 2.8466-5.625 1.2115zm26.173-8.3665c-0.27659-0.44753-0.24216-1.2356 0.0765-1.7512 1.1809-1.9107 10.781-0.55805 10.781 1.519 0 1.4585-9.9681 1.6717-10.858 0.23221zm-67.412-2.6694c-1.6942-2.7413 14.837-6.4977 20.919-4.7534 1.4258 0.4089 5.6071 0.46712 9.2919 0.12936 3.6848-0.33775 7.4624-0.31324 8.3946 0.0545 0.9322 0.3677 4.7844 0.6982 8.5605 0.73443 5.9926 0.0576 6.8258 0.27279 6.5523 1.6928-0.28686 1.4896-2.2118 1.6288-22.803 1.6486-12.369 0.0119-24.23 0.37993-26.356 0.81782-2.7386 0.56391-4.0686 0.46938-4.5589-0.32402zm68.613-8.6246c-2.911-1.0615-2.9405-2.9611-0.0526-3.3904 3.061-0.45499 6.9368 1.4244 6.3094 3.0594-0.62422 1.6267-2.4402 1.7228-6.2568 0.33099zm-68.759-2.1879c-0.75026-1.9552 1.3329-4.2068 3.8919-4.2068 1.167 0 3.3302-0.63022 4.8071-1.4005 3.1528-1.6443 15.035-1.8838 24.536-0.49451 3.4509 0.50464 8.653 1.1619 11.56 1.4606 6.6701 0.68532 9.1816 2.2393 7.0555 4.3654-1.1856 1.1856-2.2196 1.2875-5.4946 0.54145-2.2188-0.50541-7.6201-1.2629-12.003-1.6833-4.3828-0.42039-9.4003-1.0658-11.15-1.4342-3.7657-0.79286-15.718 1.1503-18.355 2.9842-2.4136 1.6782-4.1712 1.6302-4.8476-0.1324zm70.916-12.393c-4.3667-0.80284-6.4807-4.0012-2.6447-4.0012 3.2039 0 8.2697 2.1254 8.2697 3.4696 0 1.2198-1.2433 1.3373-5.625 0.53167zm-67.812-1.8138c-1.9948-1.9948 1.4815-3.3563 12.969-5.0792 9.0822-1.3621 32.63-1.2726 35.259 0.13398 4.703 2.517 1.1165 3.1115-19.38 3.2127-14.09 0.0696-21.211 0.45674-22.614 1.2295-2.2478 1.2381-5.2556 1.4808-6.2335 0.50294zm-0.0645-9.539c-2.4891-4.0275 3.5563-5.6492 26.627-7.1425 5.0742-0.32846 18.594 1.2964 19.221 2.3099 1.3138 2.1258-2.3866 2.7895-10.736 1.9257-5.1894-0.53689-10.589-0.56142-13.491-0.0613-2.6609 0.45862-8.0021 1.3362-11.869 1.9502s-7.5159 1.3004-8.1083 1.5256c-0.59238 0.2251-1.332-4e-3 -1.6437-0.50754zm62.751-0.0988c-1.1443-1.8516 0.54376-2.8622 4.7809-2.8622 3.5242 0 4.1801 0.27445 3.921 1.6406-0.35748 1.8846-7.6586 2.9095-8.7018 1.2216zm-59.889-22.988c-2.0155-5.2523 38.977-7.7268 44.39-2.6796 2.2204 2.0703-0.52725 3.2719-6.0938 2.6649-12.221-1.3327-19.762-1.3364-27.347-0.0136-9.9236 1.7305-10.295 1.7315-10.949 0.0283zm67.187-30.997 2.4997-3.1327-1.7922-4.181c-2.2843-5.3292-51.63-11.351-51.63-6.3001 0 0.94463 7.1942 1.9241 14.132 1.9241 6.4167 0 10.243 1.2448 10.243 3.3325 0 1.1724-0.60039 1.3721-2.7232 0.90582-3.2946-0.72361-4.6538 0.88472-1.9642 2.3242 3.1712 1.6972 1.189 2.8132-4.9772 2.8022-8.6115-0.0153-13.015-0.94227-13.512-2.8446-0.23687-0.9058-1.6894-1.884-3.2657-2.1993-2.4507-0.49014-2.7758-0.8987-2.3766-2.987 0.98672-5.1617-5.7469-3.618-8.3894 1.9233-4.2214 8.8524 4.5714 11.311 41.029 11.475l20.227 0.0906 2.4997-3.1327zm-7.3623-17.26c6.348-10.271 2.6753-52.944-7.1261-82.799-3.9256-11.957-18.046-20.01-22.91-13.065-0.79338 1.1327-1.8976 2.0595-2.4537 2.0595-4.402 0-14.82 20.668-14.82 29.4 0 1.5456-0.49909 4.1904-1.1091 5.8773-0.86843 2.4016-0.85147 3.6325 0.0781 5.6728 1.0931 2.3991 0.97667 2.7868-1.469 4.8918l-2.6562 2.2861v20.324c0 23.153 0.12176 23.592 6.4664 23.307 5.2178-0.23421 17.268 0.85024 20.721 1.8647 3.8917 1.1434 24.592 1.2915 25.279 0.18085zm-41.685-5.7091c0-0.53189 0.8726-3.5573 1.9391-6.7232 1.7992-5.3408 1.934-7.8136 1.8679-34.27-0.0556-22.262 0.18312-28.429 1.0887-28.127 0.87245 0.29082 1.1148 4.4842 0.97769 16.921-0.10023 9.0937 0.19074 16.764 0.64661 17.046 1.0175 0.62884 1.8946-7.7599 2.281-21.817 0.16019-5.8262 0.73996-11.042 1.2884-11.59 1.604-1.604 3.1932 0.09827 2.632 2.8194-2.3774 11.529-3.5876 54.52-1.5347 54.52 1.6886 0 2.0856-3.9754 2.2456-22.484 0.10953-12.675 0.50931-19.02 1.2446-19.755 0.81932-0.81916 1.0788 3.0188 1.0648 15.752-0.0116 10.617 0.36738 17.556 1.0261 18.787 1.4352 2.6817 1.3088 4.7574-0.39347 6.4596-0.79094 0.79094-1.2032 2.1779-0.91625 3.0822 0.77081 2.4286-0.41079 4.7208-2.4335 4.7208-0.97608 0-1.7747 0.63281-1.7747 1.4062s-0.63281 1.4062-1.4062 1.4062-1.408-0.52734-1.4101-1.1719c-0.0177-5.3584-0.93024-19.762-1.2737-20.106-0.23781-0.23781-0.69646 2.4484-1.0192 5.9695-0.32275 3.521-0.97184 7.8784-1.4424 9.6831-0.47058 1.8047-1.0954 4.4414-1.3886 5.8594-0.49536 2.3963-3.3097 3.7662-3.3097 1.611z"/>
</svg>
