<?xml version="1.0" encoding="UTF-8"?>
<svg viewBox="0 0 256 32.000004" xmlns="http://www.w3.org/2000/svg">
 <defs>
  <linearGradient id="a" x1="50.576" x2="427.59" y1="235.51" y2="115.09" gradientTransform="matrix(.26475 .084564 -.084564 .26475 6.5256 -102.63)" gradientUnits="userSpaceOnUse">
   <stop stop-color="#a9a9a9" offset="0"/>
   <stop stop-color="#eaeaea" offset="1"/>
  </linearGradient>
 </defs>
 <g transform="translate(22 46)">
  <path transform="translate(-22 -46)" d="m244 5c-1 0-106 1-106 1v1l-136-1c15 14 53 17 136 17v2c5 0 3.8784 1.478 13-5 0 0 81-1 82 0s7 5 9 5 11-10 11-11-8-9-9-9z" fill="none" stroke="#333" stroke-linecap="round" stroke-linejoin="round" stroke-width="6"/>
  <path d="m116-40s105-1 106-1 9 8 9 9-9 11-11 11-8-4-9-5-82 0-82 0c-9.1216 6.478-8 5-13 5z" fill="#2a2a2a"/>
  <path d="m-20-40 136 1v16c-83 0-121-3-136-17z" fill="url(#a)"/>
  <path transform="matrix(.26516 0 0 .26516 65.971 -53)" d="m558.61 71.02c0 9.3726-7.598 16.971-16.971 16.971s-16.971-7.598-16.971-16.971 7.598-16.971 16.971-16.971 16.971 7.598 16.971 16.971z" fill="#9c9c9c" fill-rule="evenodd"/>
  <path transform="matrix(.26516 0 0 .26516 26.971 -53)" d="m558.61 71.02c0 9.3726-7.598 16.971-16.971 16.971s-16.971-7.598-16.971-16.971 7.598-16.971 16.971-16.971 16.971 7.598 16.971 16.971z" fill="#9c9c9c" fill-rule="evenodd"/>
  <path transform="matrix(.26516 0 0 .26516 -12.029 -53)" d="m558.61 71.02c0 9.3726-7.598 16.971-16.971 16.971s-16.971-7.598-16.971-16.971 7.598-16.971 16.971-16.971 16.971 7.598 16.971 16.971z" fill="#9c9c9c" fill-rule="evenodd"/>
  <path transform="translate(-22 -46)" d="m23.6875,13.71875-.59375,2.34375c1.8357.46802 3.79845.90163 5.84375,1.3125l.6875-2.6875c-1.96894-.30791-3.96039-.61365-5.9375-.96875zm12.75,1.9375-.71875,2.90625c1.9115.29799 3.89682.58165 5.96875.84375l.75-3.03125c-1.99438-.21903-4.00148-.45714-6-.71875zm13.15625,1.4375-.78125,3.09375c1.94204.19368 3.96221.39256 6.03125.5625l.8125-3.21875c-2.01409-.13709-4.04876-.26366-6.0625-.4375zm84.03125.375-6.25.1875-1.34375,5.3125c2.02158.00819 4.10743.02742 6.1875.03125l1.40625-5.53125zm-12.96875.375c-2.09924.06032-4.14105.09987-6.21875.15625l-1.25,4.875c2.03132.02002 4.0909.04816 6.1875.0625l1.28125-5.09375zm-58.15625.09375-.84375,3.3125c1.94878.12887 4.04077.23145 6.09375.34375l.875-3.375c-2.04483-.06952-4.08512-.18093-6.125-.28125zm45.09375.25c-2.07004.04902-4.16633.08617-6.21875.125l-1.125,4.375c2.03624.03627 4.07788.09615 6.1875.125l1.15625-4.625zm-32.28125.1875-.90625,3.5625c1.99217.08799 4.07197.17459 6.15625.25l.9375-3.71875c-2.06624-.01552-4.13079-.05403-6.1875-.09375zm19.25.0625c-2.07113.02445-4.1302.05511-6.1875.0625l-1,3.90625c2.01998.05804 4.05436.10782 6.15625.15625l1.03125-4.125z" fill="#575757"/>
 </g>
</svg>
