<?xml version="1.0" encoding="iso-8859-1"?>
<!-- Generator: Adobe Illustrator 19.0.0, SVG Export Plug-In . SVG Version: 6.00 Build 0)  -->
<svg version="1.1" id="Capa_1" xmlns="http://www.w3.org/2000/svg" xmlns:xlink="http://www.w3.org/1999/xlink" x="0px" y="0px"
	 viewBox="0 0 454.4 454.4" style="enable-background:new 0 0 454.4 454.4;" xml:space="preserve">
<g>
	<path style="fill:#FDE7AE;" d="M250.4,207.2c-2.4-15.2-4-30.4-4-46.4h-5.6c-7.2,0-15.2,0-22.4,0.8
		C221.6,180.8,236.8,196.8,250.4,207.2z"/>
	<path style="fill:#FDE7AE;" d="M351.2,211.2c-2.4-12-3.2-24.8-4-37.6c-8-2.4-16-4-24-5.6C328,185.6,337.6,200,351.2,211.2z"/>
</g>
<path style="fill:#FA9E15;" d="M362.4,173.6c0.8,16,3.2,39.2,10.4,50.4c2.4,4,0.8,8.8-2.4,11.2c-2.4,1.6-5.6,1.6-8,0
	s-51.2-31.2-56.8-74.4c-14.4-2.4-28.8-4-44.8-4c0,18.4,2.4,49.6,10.4,61.6c2.4,4,0.8,8.8-2.4,11.2c-2.4,1.6-5.6,1.6-8,0
	s-52.8-28.8-60-72c-14.4,0.8-28.8,3.2-43.2,5.6c0.8,16.8,4,48.8,12,60c2.4,3.2,2.4,8.8-1.6,11.2c-2.4,1.6-5.6,2.4-8,0.8
	c-1.6-0.8-40.8-19.2-51.2-59.2c-49.6,16.8-80,41.6-80,64c0,72.8,80,76,212,76s210.4-3.2,210.4-76C451.2,216,416,190.4,362.4,173.6z"
	/>
<path style="fill:#FDE7AE;" d="M148,213.6c-3.2-13.6-4.8-28-4.8-42.4c-6.4,1.6-12.8,3.2-19.2,4.8C128,190.4,136.8,204,148,213.6z"/>
<path style="fill:#873C1B;" d="M240.8,131.2L240.8,131.2h-13.6c-10.4,0-20.8,0-31.2,0.8l0,0C87.2,139.2,0,181.6,0,231.2
	c0,92,105.6,92,227.2,92s227.2,0,227.2-92C454.4,179.2,358.4,134.4,240.8,131.2z M333.6,160c0,12.8,1.6,24.8,4,36.8
	c-13.6-11.2-23.2-25.6-28-42.4C318.4,156,326.4,157.6,333.6,160L333.6,160z M227.2,147.2h5.6c0,15.2,1.6,31.2,4,46.4
	c-12.8-10.4-28.8-26.4-32-45.6C212,147.2,220,147.2,227.2,147.2z M130.4,157.6c0.8,14.4,2.4,28,4.8,41.6c-11.2-9.6-20-22.4-24-36.8
	C117.6,160.8,123.2,159.2,130.4,157.6z M227.2,307.2c-131.2,0-212-3.2-212-76c0-22.4,31.2-47.2,80-64c10.4,40,49.6,58.4,51.2,59.2
	c4,1.6,8.8,0,10.4-4c0.8-2.4,0.8-4.8-0.8-7.2c-8-12-11.2-43.2-12-60c14.4-2.4,28.8-4.8,43.2-5.6c6.4,42.4,57.6,70.4,60,72
	c3.2,3.2,8,3.2,11.2,0c3.2-3.2,3.2-8,0-11.2c-8-11.2-10.4-43.2-10.4-61.6c15.2,0.8,30.4,2.4,44.8,4c5.6,43.2,54.4,72.8,56.8,74.4
	c4,2.4,8.8,0.8,11.2-3.2c1.6-2.4,1.6-5.6,0-8c-7.2-10.4-9.6-34.4-10.4-50.4c54.4,16.8,88.8,43.2,88.8,66.4
	C439.2,304,358.4,307.2,227.2,307.2z"/>
<g>
</g>
<g>
</g>
<g>
</g>
<g>
</g>
<g>
</g>
<g>
</g>
<g>
</g>
<g>
</g>
<g>
</g>
<g>
</g>
<g>
</g>
<g>
</g>
<g>
</g>
<g>
</g>
<g>
</g>
</svg>
