<?xml version="1.0" encoding="iso-8859-1"?>
<!-- Generator: Adobe Illustrator 19.0.0, SVG Export Plug-In . SVG Version: 6.00 Build 0)  -->
<svg version="1.1" id="Capa_1" xmlns="http://www.w3.org/2000/svg" xmlns:xlink="http://www.w3.org/1999/xlink" x="0px" y="0px"
	 viewBox="0 0 436 436" style="enable-background:new 0 0 436 436;" xml:space="preserve">
<g>
	<path style="fill:#FFECC7;" d="M300.8,424.292v-238.8h112v212c1.649,13.152-7.675,25.151-20.827,26.8
		c-1.983,0.249-3.99,0.249-5.973,0L300.8,424.292z"/>
	<path style="fill:#FFECC7;" d="M50,424.292c-5.212,0.122-10.375-1.032-15.04-3.36c-8.127-4.878-12.709-14.009-11.76-23.44v-212h112
		v238.8L50,424.292z"/>
	<path style="fill:#FFECC7;" d="M254.64,424.292v-102h-73.28v102H135.2v-170.32h27.52v24.96h39.04v-24.96h32.48v24.96h39.04v-24.96
		h27.52v170.32H254.64z"/>
</g>
<path style="fill:#F27668;" d="M181.36,322.292h73.36v102h-73.36V322.292z"/>
<path style="fill:#73D5D8;" d="M337.2,227.332h39.36v53.36H337.2V227.332z"/>
<path style="fill:#F27668;" d="M285.68,40.612l71.12-29.12v58.32L285.68,40.612z"/>
<g>
	<path style="fill:#73D5D8;" d="M8.08,185.492l-0.8-79.2h30.4v27.2h28.88v-27.2h25.2v27.2h28.88v-27.2h29.68l-0.08,79.2H8.08z"/>
	<path style="fill:#73D5D8;" d="M59.52,323.172h39.36v53.36H59.52L59.52,323.172z"/>
</g>
<path style="fill:#F27668;" d="M79.2,11.492l71.12,29.12l-71.12,29.2L79.2,11.492z"/>
<g>
	<path style="fill:#73D5D8;" d="M285.76,185.492l-0.88-79.2h30.48v27.2h28.88v-27.2h25.2v27.2h28.88v-27.2H428l-0.08,79.2H285.76z"
		/>
	<path style="fill:#73D5D8;" d="M59.52,227.332h39.36v53.36H59.52L59.52,227.332z"/>
	<path style="fill:#73D5D8;" d="M337.2,323.172h39.36v53.36H337.2V323.172z"/>
</g>
<g>
	<path style="fill:#42362C;" d="M59.52,288.612H98.8c4.418,0,8-3.582,8-8v-53.28c0-4.418-3.582-8-8-8H59.52c-4.418,0-8,3.582-8,8
		v53.36C51.564,285.079,55.133,288.612,59.52,288.612z M67.52,235.252H90.8v37.36H67.52L67.52,235.252z"/>
	<path style="fill:#42362C;" d="M59.52,384.452H98.8c4.418,0,8-3.582,8-8v-53.28c0-4.418-3.582-8-8-8H59.52c-4.418,0-8,3.582-8,8
		v53.36C51.564,380.919,55.133,384.452,59.52,384.452L59.52,384.452z M67.52,331.092H90.8v37.36H67.52L67.52,331.092z"/>
	<path style="fill:#42362C;" d="M337.2,288.612h39.36c4.418,0,8-3.582,8-8v-53.28c0-4.418-3.582-8-8-8H337.2c-4.418,0-8,3.582-8,8
		v53.36C329.244,285.079,332.813,288.612,337.2,288.612z M345.2,235.252h23.36v37.36H345.2V235.252z"/>
	<path style="fill:#42362C;" d="M337.2,384.452h39.36c4.418,0,8-3.582,8-8v-53.28c0-4.418-3.582-8-8-8H337.2c-4.418,0-8,3.582-8,8
		v53.36C329.244,380.919,332.813,384.452,337.2,384.452L337.2,384.452z M345.2,331.092h23.36v37.36H345.2V331.092z"/>
	<path style="fill:#42362C;" d="M420.64,98.292h-22.4c-4.418,0-8,3.582-8,8v19.12h-12.8v-19.12c0-4.418-3.582-8-8-8h-4.56v-86.8
		c-0.017-0.959-0.207-1.908-0.56-2.8v-0.56c-0.359-0.794-0.846-1.523-1.44-2.16l-0.88-0.8l-1.04-0.56h-0.48
		c-0.867-0.344-1.788-0.533-2.72-0.56h-0.48c-0.932,0.027-1.853,0.216-2.72,0.56l-71.92,28.64c-4.087,1.679-6.039,6.353-4.36,10.44
		c0.812,1.978,2.383,3.548,4.36,4.36l66.24,27.12v23.12h-4.64c-4.418,0-8,3.582-8,8v19.12h-12.88v-19.12c0-4.418-3.582-8-8-8h-22.4
		c-8.586,0.344-15.367,7.407-15.36,16v63.2c-0.011,8.533,6.677,15.573,15.2,16v52.48h-19.52c-4.418,0-8,3.582-8,8v17.04H242v-17.04
		c0-4.418-3.582-8-8-8h-32c-4.418,0-8,3.582-8,8v17.04h-23.28v-17.04c0-4.418-3.582-8-8-8H143.2v-52.48
		c8.523-0.427,15.211-7.467,15.2-16v-63.2c0.007-8.593-6.774-15.656-15.36-16h-22.4c-4.418,0-8,3.582-8,8v19.12H99.76v-19.12
		c0-4.418-3.582-8-8-8h-4.64v-23.12l66.24-27.12c4.087-1.679,6.039-6.353,4.36-10.44c-0.812-1.978-2.383-3.548-4.36-4.36L82,4.132
		c-0.867-0.344-1.788-0.533-2.72-0.56h-0.56c-0.932,0.027-1.853,0.216-2.72,0.56h-0.48l-1.04,0.56l-0.88,0.8
		c-0.594,0.637-1.081,1.366-1.44,2.16v0.56c-0.353,0.892-0.543,1.841-0.56,2.8v87.28h-4.56c-4.418,0-8,3.582-8,8v19.12H45.68v-19.12
		c0-4.418-3.582-8-8-8H15.36c-8.586,0.344-15.367,7.407-15.36,16v63.2c-0.011,8.533,6.677,15.573,15.2,16v204
		c-1.051,12.408,5.191,24.298,16,30.48c5.812,2.974,12.272,4.458,18.8,4.32h336c17.599,1.621,33.179-11.332,34.8-28.93
		c0.18-1.952,0.18-3.917,0-5.87v-204c8.523-0.427,15.211-7.467,15.2-16v-63.2C436.007,105.699,429.226,98.635,420.64,98.292
		L420.64,98.292z M87.2,23.412l42.08,17.28l-42.08,17.2V23.412z M127.2,253.972v162.32H50c-3.899,0.129-7.771-0.695-11.28-2.4
		c-1.84-1.04-7.6-4.16-7.6-16.48v-203.92h96L127.2,253.972z M142.32,177.492H16l-0.64-63.2h14.4v19.12c0,4.418,3.582,8,8,8h28.88
		c4.418,0,8-3.582,8-8v-19.12h9.2v19.12c0,4.418,3.582,8,8,8h28.88c4.418,0,8-3.582,8-8v-19.12h13.68L142.32,177.492z
		 M246.32,416.292h-56.96v-86h57.36L246.32,416.292z M292.48,416.292h-29.84v-94c0-4.418-3.582-8-8-8h-73.28c-4.418,0-8,3.582-8,8
		v94H143.2v-154.32h11.6v17.04c0,4.418,3.582,8,8,8H202c4.418,0,8-3.582,8-8v-17.04h16v17.04c0,4.418,3.582,8,8,8h38.96
		c4.418,0,8-3.582,8-8v-17.04h11.6L292.48,416.292z M306.4,40.291l42.08-17.28v34.88L306.4,40.291z M404.8,397.492
		c1.441,8.942-4.64,17.359-13.582,18.8c-1.728,0.278-3.49,0.278-5.218,0h-77.2v-222.8h96L404.8,397.492z M419.92,177.492H293.68
		l-0.64-63.2h14.4v19.12c0,4.418,3.582,8,8,8h28.88c4.418,0,8-3.582,8-8v-19.12h9.2v19.12c0,4.418,3.582,8,8,8h28.88
		c4.418,0,8-3.582,8-8v-19.12h13.68L419.92,177.492z"/>
</g>
<g>
</g>
<g>
</g>
<g>
</g>
<g>
</g>
<g>
</g>
<g>
</g>
<g>
</g>
<g>
</g>
<g>
</g>
<g>
</g>
<g>
</g>
<g>
</g>
<g>
</g>
<g>
</g>
<g>
</g>
</svg>
