<?xml version="1.0" encoding="UTF-8"?>
<svg enable-background="new -37.573 -40.9767 1994.573 1786.7219" version="1.1" viewBox="-37.573 -40.9767 1994.573 1786.7219" xmlns="http://www.w3.org/2000/svg">
 <path d="m867.57 8.52c3.27-2.03 7.15-0.15 9.59 2.3 9.2 8.76 16.1 20.41 27.85 26.16 8.74 4.33 18.68 1.95 27.97 3.13 3.57 0.26 6.56 3.3 6.62 6.91 0.61 9.66-0.29 19.34-0.8 28.98 0.54 18.8 3.75 37.71 10.96 55.16 2.36 5.24 4.94 10.89 9.87 14.22 3.81 2.47 8.64 0.74 11.88-1.88 7.59-6.17 12.92-14.51 18.82-22.18 10.41-14.03 21.7-28.09 37.06-36.96 6.97-3.9 14.18-8.36 22.35-8.9-2.27 5.15-7.1899 8.35-10.79 12.5-10.82 10.59-19.71 23.08-26.37 36.67-8.73 17.04-14.61 35.38-19.08 53.96-1.34 5.52-2.41 11.14-2.33 16.85 3.49-1.86 5.46-5.42 7.86-8.41 15.66-21.07 32.99-40.88 51.59-59.41 10.71-10.37 21.74-20.54 34.12-28.91 3.6801-2.43 7.4-5.11 11.85-5.87-1.24 3.93-4.4299 6.69-7.13 9.63-16.97 17.71-35.43 34.29-49.25 54.73-6.74 10.25-12.69 21.47-14.32 33.79-0.72 5.64 0.1799 12.43 5.12 16 4.71 3.42 10.88 2.97 16.35 2.26 12.31-2.19 23.98-7.09 35.01-12.86 12.23-6.22 22.88-14.95 33.54-23.47 3.74-2.74 7.52-6.02 12.27-6.71 2.5599-0.5 5.3999 1.23 5.58 3.96 0.84 7.01-3.08 13.32-6.45 19.13-8.3301 12.98-18.35 24.85-29.47 35.53-5.86 5.81-12.87 10.45-20.49 13.6-5.88 2.55-12.33 3.98-17.56 7.83 2.49 2.95 6.3099 3.96 9.8199 5.21 18.69 6.38 37.18 13.41 55.01 21.94 33.33 15.87 64.95 35.07 95.94 55.06 63.79 41.57 124.61 87.78 181.16 138.79 55.09 49.51 106.44 102.99 156.26 157.74 49.91 54.99 98.46 111.23 144.68 169.36 50.39 63.25 97.55 129.13 140.16 197.88 18.09 29.4 35.83 59.13 50.67 90.34 3.23 7.02 6.41 14.11 8.49 21.57 0.88 2.96 1.01 6.12 0.12 9.1-5.78-0.39-9.58-5.21-13.46-8.9-13.61-14.62-25.21-30.94-36.84-47.14-21.96-31.1-43.38-62.57-65.46-93.58-24.53-34.58-49.68-68.73-75.77-102.15-47.19-60.38-97.76-118.05-149.82-174.23-50.51-54.42-102.63-107.38-156.08-158.94-54.97-52.3-110.81-104.23-173.14-147.81-32.86-22.89-66.79-44.39-102.47-62.63-19.7-10.25-40.25-18.71-60.79-27.1-10.89-4.6-21.95-8.94-32.28-14.73-6.96-4.02-14.13-9.49-16.19-17.68-2.35-10.28 3.66-20.03 2.89-30.29-0.27-1.88-0.79-4.37-2.91-4.94-2.98-1.34-6.25-0.25-9.22 0.49-10.72 3.29-20.68 8.88-31.71 11.14-3.77 0.33-8.66 1.15-11.23-2.37-4.08-5.58-3.18-13.02-2.3-19.46 1.22-10.89 5.1-21.27 6.66-32.09-5.64 2.27-9.69 7.05-14.49 10.6-5.95 4.68-12.34 10.18-20.31 10.3-6.67-0.48-11.22-6.02-14.97-10.94-2.29-2.6-4.3-6.39-8.08-6.79-2.72 1.12-4.37 3.85-5.77 6.3-8.58 16.34-11.8 35.24-22.6 50.45-7.56 10.79-21.26 14.48-33.75 15.35-6.83 0.97-15.55 0.57-19.62 7.27-3.39 6.62-3.88 14.52-8.38 20.62-3.73 5.48-10.24 8-16.38 9.65-18.18 4.43-37.29 3.39-55.3 8.63-7.93 2.33-15.81 6.85-19.54 14.55-7.37 14.56-5.69 32.02-13.64 46.35-5.17 9.2-13.97 15.39-21.81 22.13-8.2 7.15-16.78 14.52-27.4 17.72-12.33 3.62-25.32 2.57-37.98 3.16-3.02 0.54-6.92 0.47-8.92 3.11-1.29 2.94 0.69 6.09 2.04 8.68 6.23 10.31 15.15 19.09 19.32 30.57 1.89 4.84 1.44 10.72-2.1801 14.64-7.89 9.29-20.68 11.8-32.23 12.86-9.41 1.13-19.73 1.49-27.62 7.35-3.01 3.55-0.1 8.46-0.29 12.57 0.09 11.99-8.41 21.62-11.3 32.87-1.96 7.25-2.16 15.58-7.59 21.35-4.89 5.21-12.46 6.11-19.22 6.18-9.3199 0.4-18.63-0.93-27.93-0.11-2.72 0.43-5.98 0.72-7.76 3.09-1.34 3.59 0.16 7.39 1.67 10.67 6.12 12.44 15.12 23.17 21.54 35.43 1.28 2.73 3.17 6.18 1.05 9-2.7599 1.38-5.91 0.4-8.68-0.41-12.52-4.4-22.38-14.64-35.66-17.19-7.9-1.81-16.12 1.09-22.36 5.96-10.4 7.98-18.12 18.8-25.72 29.35-11.21 16.04-21.21 32.89-31.38 49.6-11.36 18.87-22.51 37.89-32.42 57.57-8.28 16.69-15.8 33.96-19.81 52.23-2.75 13.47-4.28 27.88 0.76 41.02 2.45 6.96 7.99 12.9 15.12 15.1 9.87 3.12 20.43 0.82 29.97-2.38 15.01-5.37 28.94-13.28 42.67-21.29 19.33-11.49 38.14-23.83 57.18-35.79 16.9-10.72 33.91-21.27 50.37-32.67 12.69-9.03 25.67-18.25 35.24-30.72 3.4-5.36 6.99-11.23 6.71-17.82 0.21-7.55-4.21-14.17-9.09-19.52-8.93-9.39-20.04-16.27-31.1-22.84-5.47-3.36-11.42-6.4301-15.4-11.62-1.44-1.79-1.89-4.5-0.31-6.35 2.93-3.62 7.36-5.54 11.41-7.61 16.95-7.84 34.79-14.14 50.3-24.77 15.59-10.48 30.4-23.3 49.05-27.93 18.49-4.49 38.01-3.21 56.46 0.87 5.4301 1.63 11.85 2.63 15.64 7.25 0.79 3.06-2.76 4.74-4.85 6.13-10.67 5.22-22.29 8.07-33.63 11.41-15.92 4.6899-31.76 9.99-46.62 17.46-8.45 4.95-17.27 9.65-24.27 16.61-2.22 2.29-4.85 5.15-4.02 8.62 1.05 1.7 2.69 2.9901 4.56 3.69 6.9901 2.82 14.63 3.09 22.04 3.8 23.05 1.4 46.21 2.29 69.01 6.21 30.07 5.14 58.62 17.3 84.38 33.47 4.81 3.13 9.75 6.14 14.1 9.92 0.88 0.94 2.58 2.14 1.15 3.42-6.58 0.63-13.25-0.03-19.77 1.22-11.75 1.44-23.02 5.42-33.49 10.84 8.37 6.82 15.4 15.18 21.75 23.88 8.34 11.7 13.03 25.5 16.76 39.25 6.85 25.61 10.85 51.85 14.71 78.04 9.49 67.5 14.84 135.52 17.23 203.59 0.15 11.3 0.34 22.6 0.96 33.89-0.06 25.02 0.67 50.07-0.63 75.07-0.84 49.35-4.34 98.71-11.57 147.56-6.83 42.55-17.11 85-35.77 124.03-13.66 28.79-32.53 55.38-56.89 76.1-15.45 13.37-32.78 24.31-50.41 34.55-11.67 7.01-23.95 13.55-33.57 23.38-4.73 4.72-8.28 11.31-7.4301 18.18 1.14 8.72 6.6 16.25 13.03 21.96 12.01 10.49 27.18 16.48 42.4 20.57 22.58 5.8101 46.04 7.87 69.31 6.9501 22.15-1.12 44.54-5 64.65-14.71 27.49-13.07 48.51-36.9 62.38-63.59 19.71-37.53 28.87-79.53 34.35-121.26 3.48-28.13 5.1299-56.43 6-84.74 0.08-26.34 0.58-52.7-0.69-79.01-0.94-42.69-3.64-85.31-6.25-127.92-3.19-47.67-6.61-95.33-9.94-142.99-2.46-37.01-5.29-73.99-6.69-111.05 0.09-5.77-0.28-11.66 1.33-17.26 3.41 3.19 4.39 7.92 6 12.12 7.04 21.21 12.54 42.9 17.65 64.66 2.6 11.87 5.63 23.66 7.74 35.65 4.89-18 14.75-34.1 25.64-49.04 20.49-27.85 43.67-53.57 67.05-78.98 15.21-16.44 30.77-32.55 46.41-48.59 12.69-12.99 25.77-25.65 37.43-39.59 22.25-25.88 29.51-60.27 46.85-89.04 4.59-7.52 9.7-14.9 16.48-20.61 3.01-2.4301 6.64-4.73 10.67-4.42 3.9199 0.39 6.38 4.07 7.51 7.52 3.1599 9.56 1.78 19.79 0.37 29.54-2.9401 17.17-7.99 33.9-13.54 50.38-14.53 41.93-33.52 82.34-56.85 120.1-19.09 30.9-40.47 60.37-63.73 88.26-11.32 13.32-22.83 26.52-35.53 38.56-13.31 12.18-27.57 24.41-45.1 29.87-9.96 2.7899-21.54 3.1-30.5-2.73-3.51-2.0701-6.2401-5.13-8.67-8.3301 2.11 9.62 3.61 19.38 5.04 29.13 11.67 72.44 18.57 145.65 20.61 218.97 1.47 27.91 0.86 55.87 0.86 83.81-0.33 10.33-1.05 20.64-1.11 30.98-2.59 47.95-7.05 96.19-19.72 142.67-9.9 36.05-25.38 71.39-50.44 99.55-6.1899 6.13-12.02 12.69-18.92 18.06-7.63 6.2-15.62 11.99-24.28 16.68-11.74 5.9701-23.45 12.21-36.14 15.95-6.61 2.15-13.11 4.64-19.91 6.12-12.41 2.72-24.89 5.42-37.56 6.47-4.8 0.5801-9.64 0.73-14.39 1.62-13.01-0.1899-26.03-0.1899-39.03 0.01-5.34-1.04-10.79-0.9299-16.15-1.8199-21.05-2.38-41.93-8.2101-60.4-18.78-25.05-14.16-44.8-37.44-54.37-64.61-5.55-15.01-8.22-30.88-9.84-46.74-6.5-0.0901-12.2-3.52-17.52-6.88-15.2-9.75-28.23-22.36-41.37-34.63-29.33-29.17-56.66-60.34-81.95-93.08-35.59-45.88-65.25-96.12-90.67-148.26-3.86-7.4501-7.08-15.27-11.62-22.36-1.64-2.33-4.12-5.6599-7.4-4.2899-5.6 2.2799-9.05 7.6599-13.46 11.56-33.81 35.27-66.68 71.43-98.01 108.94-24.5 29.34-48.12 59.43-70.93 90.11-23.58 31.73-46.44 64.04-67.48 97.54-10.01 15.76-19.36 31.92-29.2 47.79-2.66 4.09-4.89 8.66-8.9 11.65 0.06-7.42 3.17-14.36 5.15-21.4 13.91-41.29 32.13-81.02 52.48-119.51 34.79-65.99 79.28-126.2 125.15-184.81 23.11-29.51 46.85-58.52 70.19-87.85 12.29-15.48 24.47-31.08 35.58-47.44 10.56-15.33 19.8-31.96 23.77-50.32 6.72-28.56 15.32-56.77 27.36-83.57 21.51-47.51 52.76-89.58 80.39-133.56 7.11-11.26 14.19-22.56 20.94-34.04 4.37-8.86 10.69-16.75 14.13-26.06-4.94 0.52-9.57 2.36-14.28 3.83-20.7 6.64-41.42 13.27-62.2 19.66-10.34 3.03-20.66 6.34-31.35 7.89-5.02 0.66-10.62 0.83-14.99-2.14-5.52-3.57-8.21-9.96-9.78-16.08-2.31-9.42-3.12-19.16-2.99-28.84-0.39-22.07 2.76-44.05 7.48-65.55 5.5-24.01 13.11-47.62 23.77-69.85 10.42-22.05 23.72-42.56 37.54-62.59 2.47-4.1 6.08-7.97 6.61-12.9-1.02-3.55-4.79-5.25-7.65-7.12-15.14-8.56-30.22-17.37-43.93-28.13-11.39-9.26-22.29-19.7-29.15-32.87-8.08-14.88-11.55-32.36-8.86-49.14 1.5-8.44 5.44-16.31 11.03-22.77 4.69-6.04 11.3-11.05 13.57-18.63 3.15-4.06 3.69-9.42 3.91-14.39 1.06-20.81-4.67-41.27-4-62.07 0.64-8.37 1.75-17.41 7.27-24.11 2.86-3.6 7.13-5.86 11.65-6.51 8.9-1.56 17.99 0.39 26.9-1.01 3.91-0.6 7.57-3.04 9.19-6.71 1.97-4.61 1.93-9.75 1.74-14.67-1.07-15.55-6.6-30.26-11.27-44.99-1.01-3.3-1.35-7.31 0.64-10.3 2.63-2.69 6.75-2.75 10.27-2.93 14.55 0.07 29.08 3.71 43.63 1.67 6.6-0.88 13.33-4.28 16.33-10.5 4.56-9.76 3.5-20.97 6.99-31.02 0.59-2.36 3.27-3.44 5.33-2.15 8.23 4.44 13.97 12.41 22.36 16.63 4.24 2.2 9.85 2.03 13.58-1.14 6.31-5.08 8.57-13.47 9.12-21.22 0.8-12.96-3.7-25.36-5.55-38.02-0.27-3.31-0.84-7.13 1.28-10 1.86-2.4 5.27-1.99 7.95-1.86 11.93 1.2 23.53 7.05 35.7 4.8 8.8-1.44 15.16-10.26 14.84-18.96 0.4-12.79-5.95-25.84-1.05-38.38 1.36-4.28 6.09-6.88 10.43-5.57 11.55 2.88 21.4 10.66 33.29 12.47 5.45 0.82 11.12-0.5 15.62-3.68 8.07-5.59 13.04-14.47 16.55-23.42 1.61-3.71 2.59-7.79 5.07-11.06 2.23-1.57 4 1.36 5.44 2.73 2.97 3.23 6.06 8.14 11.11 7.39 4.72-1.13 7.79-5.3 10.48-9.03 8.14-11.5 11.07-25.97 20.08-36.92 4.29-5.36 10.88-8.46 17.67-8.96 12.02-1.27 24.46 1.64 36.18-2.07 11.09-3.6 17.2-15.65 28.76-18.15 12.67-1.31 24.04 5.81 36.06 8.56 10.51 3.11 22.08 1.36 31.45-4.22 5.8-2.9899 10.26-7.9499 15.89-11.17m-195.06 768.02c-29.18 14.81-61.93 20.12-91.82 33.17-23.13 9.81-43.31 25.33-61.22 42.74-35.71 36-65.13 77.84-90.09 121.88-22.99 41.39-42.53 84.79-57.29 129.8-7.72 24.19-13.94 49.31-13.57 74.87-0.59 23.67 3.83 47.11 9.18 70.07 9.82 39.78 24.66 78.17 41.99 115.24 17.27 36.43 36.73 71.97 60.21 104.8 19.38 27.49 43.31 51.35 68.39 73.61 5.9 5.4501 12.2 10.64 16.72 17.36-1.58-21.11-0.57-42.32 0.73-63.41 1.62-22.95 3.91-45.85 6.38-68.72 14.6-138.59 29.41-277.34 54.58-414.49 8.85-48.36 19.3-96.47 32.8-143.77 6.21-21.59 12.81-43.13 21.27-63.97 2.93-6.47 5.48-13.34 10.15-18.8 1.08-1.56 3.01-1.71 4.74-1.83 3.71 5.92 3.77 13.12 4.33 19.86 0.81 8.7-0.15 17.41-0.35 26.12-1 14.48-2.49 28.92-4.22 43.33-5.9 48.63-13.72 97-20.81 145.47-6.23 41.76-12.28 83.56-17.37 125.49-6.1 50.71-11.25 101.71-9.69 152.86 0.82 23.44 3.29 46.88 8.21 69.83 4.02 18.27 9.72 36.16 16.61 53.54 3.42 8.27 7.27 16.87 14.21 22.82 6.42 5.38 15.56 6 23.36 3.72 13.06-3.58 23.44-13.08 31.94-23.22 12.82-15.89 21.43-34.68 28.23-53.8 14.63-42.46 20.13-87.47 22.24-132.13-0.08-7.6799 0.59-15.33 0.84-22.99 0.07-22.67 0.49-45.35-0.73-67.99 0.16-13.7-1.11-27.34-1.31-41.02-1-8.4-0.51-16.88-1.48-25.27-1.12-23.25-2.86-46.45-4.38-69.67-3.93-50.77-7.68-101.67-16.27-151.92-4.62-27.32-12.19-54.2-23.62-79.48-4.75-11.57-11.34-22.89-11.96-35.67-16.08 11.86-32.86 22.96-50.93 31.57m419.07 45.09c-16.39 15.58-32.38 31.58-47.92 48.01-25.57 26.02-49.15 54.03-69.94 84.02-3.31 5.22-7.21 10.83-6.96 17.29-0.04 2.19 2.08 3.96 4.24 3.3 5.92-1.28 10.8-5.17 15.57-8.7 14.36-11.51 27.31-24.68 39.81-38.15 28.18-30.68 52.27-64.99 72.85-101.16 3.4301-6.7 7.9301-12.95 9.98-20.27-6.82 4.07-11.63 10.58-17.63 15.66z"/>
 <path d="m931.43 456.71c15.4-1.47 30.75 1.44 45.82 4.31 15.18 3.3 30.46 6.82 44.83 12.86 3.9999 1.99 9.3 4.12 10.08 9.11-1.3 6.4-7.04 10.35-11.01 15.1-9.91 10.6-16.59 23.59-24.22 35.81-6.66 10.74-13.17 21.84-22.51 30.52-8.88 8.31-20.54 13.34-32.6 14.56-16.81 1.67-34.13 0.2-50.09-5.52-8.49-3.02-16.76-9-19.37-18.02-3.88-12.61-1.5-26.19 2.4-38.5 5.65-16.73 14.63-32.51 26.93-45.26 7.8-8.25 18.36-13.89 29.74-14.97z"/>
</svg>
