<?xml version="1.0" encoding="UTF-8"?>
<svg width="503.44" height="356.25" version="1.1" viewBox="0 0 503.4375 356.25" xmlns="http://www.w3.org/2000/svg">
 <path d="m312.15 355.31c-5.4323-0.35981-12.604-1.1475-15.938-1.7505-3.3333-0.60295-9.864-1.7043-14.513-2.4475-42.56-6.8039-70.005-39.321-49.133-58.211 2.6144-2.366 2.2719-3.4672-2.181-7.0111-12.484-9.936-31.922-31.267-34.378-37.727-0.53135-1.3976-1.3984-2.541-1.9268-2.541-0.52838 0-0.9607-0.46644-0.9607-1.0365 0-0.5701-1.0797-2.3197-2.3993-3.8879-2.8246-3.3568-15.41-28.574-15.412-30.88-6.1e-4 -0.87192-0.41564-1.8415-0.92227-2.1546-1.7201-1.0631-7.7422-24.317-10.321-39.854-0.5563-3.3516-1.313-13.028-1.6815-21.502l-0.67001-15.409-3.4733-1.935c-14.695-8.1867-35.866-21.008-39.636-24.005-2.0537-1.6321-6.2467-4.236-9.3178-5.7863-5.5496-2.8014-6.3819-3.3096-14.758-9.0116-2.4046-1.637-4.5748-2.9763-4.8225-2.9763-0.2478 0-3.7648-2.2317-7.8155-4.9594-18.164-12.233-39.856-24.984-47.505-27.926-1.644-0.633-4.465-1.713-6.27-2.401-1.805-0.689-5.153-1.258-7.44-1.266-5.277-0.018-15.99-2.632-17.999-4.392-4.6342-4.059-2.3573-17.906 4.5418-27.623 1.6966-2.389 3.0842-4.634 3.0842-4.988 0-1.7303 8.1139-9.9515 11.698-11.853 6.6229-3.5134 16.216 1.3636 16.395 8.3351 0.13922 5.418 21.272 22.694 27.76 22.694 0.30894 0 3.3247 1.2789 6.7017 2.8419 3.377 1.5631 8.2968 3.7234 10.933 4.8007 2.6361 1.0773 6.6385 2.7785 8.8942 3.7804s6.2337 2.6621 8.8399 3.6894 7.2997 3.048 10.43 4.4906c6.572 3.0286 14.552 6.4324 25.848 11.025 9.9133 4.0304 23.442 9.7471 25.312 10.696 0.77344 0.39248 3.9375 1.6562 7.0312 2.8083 5.9638 2.2208 8.6543 3.3447 20.625 8.6158 4.125 1.8163 12.201 5.2665 17.948 7.6669l10.448 4.3645 7.3649-2.2766c15.878-4.9082 23.093-6.4941 43.927-9.6561 52.616-7.9853 98.98-6.5221 157.03 4.9557 12.646 2.5003 12.361 2.4257 27.677 7.261 25.987 8.2042 38.716 16.929 45.637 31.277l2.8538 5.9172-0.58857 13.793c-1.1796 27.642-3.1708 36.887-12.317 57.184-0.763 1.6933-1.3873 3.598-1.3873 4.2326 0 0.63467-0.90199 2.8352-2.0044 4.8901s-2.7637 5.9406-3.6916 8.6351c-0.92796 2.6944-2.1604 5.4366-2.7387 6.0938-0.57831 0.65714-1.9757 2.6322-3.1053 4.3891-1.1296 1.7568-3.1085 4.759-4.3975 6.6715-1.2891 1.9125-3.5622 5.3266-5.0514 7.587s-4.7706 6.2324-7.2919 8.8268c-2.5214 2.5944-5.468 6.1803-6.5481 7.9688-2.6677 4.4172-8.7348 10.936-14.242 15.302l-4.5571 3.6128 3.2267 3.4184c7.827 8.2921 9.3568 13.534 6.2979 21.582-8.789 23.124-28.685 34.408-77.771 44.108-11.952 2.3619-36.2 3.2148-55.346 1.9467zm44.564-7.4479c2.5781-0.45791 9.1609-1.5141 14.628-2.3471 5.4675-0.83298 11.163-1.8969 12.656-2.3642 1.4934-0.46733 6.7926-2.1323 11.776-3.6998 34.419-10.827 51.371-30.109 41.119-46.77-3.5244-5.7279-3.3501-5.6912-9.3888-1.9756-5.0509 3.1079-5.1576 3.8337-0.88805 6.0416 3.632 1.8782 3.6286 4.188-7e-3 4.188-1.7886 0-3.2727-0.73298-4.2188-2.0836-0.80266-1.146-1.4594-1.6522-1.4594-1.125 0 0.52723 0.46949 1.4281 1.0433 2.0019 3.1214 3.1214-1.7786 3.3-5.2621 0.19176-1.8105-1.6155-2.0685-1.5764-7.5 1.1364-43.096 21.525-105.26 23.233-147.21 4.0451-6.1562-2.8159-6.1062-2.816-11.42 0.0129-4.0284 2.1445-5.8977 2.3419-5.8977 0.6228 0-0.39165 1.3711-1.4315 3.0469-2.3107 3.0396-1.5948 3.0406-1.5978 0.4208-1.2284-2.4424 0.34431-2.5858 0.1871-2.051-2.248 0.71321-3.2472-5.161-8.0234-7.9995-6.5042-17.442 9.3347-4.3696 34.103 23.458 44.445 25.204 9.3672 71.338 14.202 95.156 9.9712zm-7.5-36.214c3.6094-0.28351 8.0391-0.88633 9.8438-1.3396s6.0234-1.5134 9.375-2.3558c6.7857-1.7056 16.839-5.0258 18.281-6.0378 0.51562-0.36168 3.0469-1.413 5.625-2.3363 52.289-18.725 94.89-74.896 104.56-137.86 0.55422-3.6094 1.2048-7.5117 1.4458-8.6719 0.66148-3.185-1.2677-2.5284-2.7545 0.9375-5.189 12.096-32.27 24.474-67.156 30.696-3.3516 0.59771-7.9922 1.466-10.312 1.9296-9.0502 1.8082-19.711 3.1803-42.656 5.4902-5.6719 0.571-10.933 1.2685-11.691 1.55-2.4668 0.91631-58.88 0.57095-67.778-0.41494-4.7609-0.52746-14.984-1.4342-22.719-2.0148-7.7344-0.58071-19.125-2.023-25.312-3.205-6.1875-1.182-14.203-2.6562-17.812-3.2758-29.814-5.1185-46.354-12.071-57.775-24.287l-6.4436-6.8918 7e-3 4.5481c6e-3 3.8532 0.81405 10.164 2.383 18.611 3.7162 20.007 20.745 59.459 30.422 70.482 1.2891 1.4682 3.5896 4.3512 5.1124 6.4065 7.5915 10.247 27.428 29.518 30.383 29.518 0.46052 0 1.3569 0.62607 1.992 1.3913 2.7664 3.3333 28.988 16.396 38.45 19.155 2.3203 0.67649 5.0625 1.5945 6.0938 2.04 11.755 5.078 43.896 7.8677 68.438 5.94zm9.8438-122.74c20.015-0.78871 49.993-4.408 66.094-7.9795 2.0625-0.45751 6.7031-1.3403 10.312-1.9617 25.51-4.392 57.465-21.158 61.822-32.435 6.6496-17.214-7.3385-33.198-37.915-43.327-58.37-19.342-138.54-24.454-198.28-12.649-27.36 5.407-44.58 10.689-34.85 10.689 0.68454 0 3.917 1.0859 7.1832 2.4131 5.6462 2.2943 6.1273 2.3438 9.771 1.0057 2.1078-0.77407 6.3636-1.8845 9.4574-2.4677 3.0938-0.58315 7.7344-1.4593 10.312-1.9471 4.9134-0.92954 14.862-2.3524 26.719-3.8215 3.8672-0.47914 19.055-1.1131 33.75-1.4089 26.667-0.53668 35.62-0.10699 62.812 3.0148 12.945 1.4861 15.781 1.9172 30.469 4.6307 4.6406 0.85737 11.391 2.1029 15 2.7678 18.53 3.4138 42.1 13.549 47.394 20.38 3.3799 4.3615 5.0965 8.8994 3.9172 10.356-0.52158 0.64407-0.94206 2.3059-0.9344 3.693 0.0207 3.7484-7.813 11.586-14.752 14.758-9.8744 4.5147-18.305 6.8815-33.984 9.5414-2.707 0.45921-7.3477 1.2495-10.312 1.7562-37.126 6.3448-71.322 8.873-101.95 7.5374-25.41-1.1079-62.172-4.4751-77.161-7.0675l-8.7235-1.5088-3.9327 2.3003c-16.486 9.6426-35.766 4.0034-30.38-8.8858l1.3921-3.3318-5.7535-3.3084c-3.1644-1.8197-7.8629-4.4737-10.441-5.8978-2.5781-1.4242-5.8073-3.3728-7.176-4.3304-1.3687-0.95754-2.7621-1.741-3.0966-1.741-0.33448 0-2.1602-1.0547-4.0573-2.3438-6.0671-4.1227-8.8071 0.30697-5.815 9.4009 0.95846 2.913 13.896 16.471 17.905 18.765 8.6738 4.9618 19.05 8.787 31.302 11.539 13.621 3.06 41.423 7.4999 65.625 10.48 10.259 1.2633 45.574 2.6138 57.188 2.1868 4.6406-0.1706 14.133-0.53461 21.094-0.80892zm11.565-19.812c9.8948-0.59974 10.23-1.002 2.9663-3.563-2.5781-0.90906-6.7969-2.648-9.375-3.8643s-11.227-4.7907-19.219-7.9432c-7.9922-3.1524-15.797-6.2897-17.344-6.9718-7.45-3.3-27.72-11.76-28.14-11.76-0.25935 0-2.4709-0.89284-4.9145-1.9841-8.6452-3.8607-10.357-4.5784-10.923-4.5784-0.31441 0-2.36-0.78718-4.5458-1.7493-17.839-7.8523-39.871-17.001-40.942-17.001-0.3609 0-0.49483 4.1133-0.29763 9.1406 0.43135 10.997-7.1443 30.901-11.878 31.207-0.29931 0.0193-2.2252 1.4734-4.2797 3.2313l-3.7355 3.1961 4.455 4.2687c5.1876 4.9706 4.677 4.8295 8.1592 2.255 2.7097-2.0034 2.7754-2.0058 12.853-0.4696 5.571 0.84924 15.192 2.1825 21.379 2.9628 6.1875 0.78032 14.625 1.8718 18.75 2.4255 16.327 2.1917 60.536 2.7962 87.034 1.19zm-153.12-1.85c0-1.1464-3.9141-6.0041-4.8378-6.0041-0.52809 0-2.0328-0.84375-3.3438-1.875-4.9665-3.9066-10.258 1.6034-5.4063 5.6298 2.3672 1.9646 13.588 3.822 13.588 2.2493zm184.69-1.7607c10.266-1.4247 23.715-3.6441 30.938-5.1056 14.735-2.9814 23.085-4.9975 23.859-5.7605 0.48985-0.48251 1.5131-0.8773 2.2738-0.8773 2.4622 0 14.788-6.5833 17.203-9.1882 21.374-23.055-54.248-46.071-151.51-46.113-14.893-0.0066-28.604 0.3822-30.469 0.86348-1.8645 0.48128-8.0306 1.3724-13.703 1.9803-5.6719 0.60789-16.219 2.2429-23.438 3.6333l-13.125 2.5281 5.625 2.581c3.0938 1.4195 6.2876 2.933 7.0975 3.3633 0.80986 0.43027 4.3958 1.911 7.9688 3.2906 7.7264 2.9833 8.9015 3.4656 14.689 6.0299 2.4436 1.0826 4.6957 1.9684 5.0046 1.9684 0.30894 0 3.2961 1.2656 6.6381 2.8125s6.2625 2.8125 6.49 2.8125c0.22745 0 2.2019 0.80212 4.3877 1.7825 3.52 1.5788 22.601 9.4636 41.474 17.139 3.6094 1.4678 7.4062 3.0544 8.4375 3.5258 1.0312 0.47144 4.1953 1.6905 7.0312 2.709 4.8757 1.751 13.684 5.554 22.031 9.5121 4.5945 2.1786 8.4202 2.2716 21.094 0.51281zm56.953-26.179c-5.2328-4.6249-4.5553-6.8076 1.1906-3.8363 2.6528 1.3718 4.6687 3.9722 4.6687 6.0224 0 1.8195-2.2968 0.96254-5.8594-2.1861zm11.201-0.33038c-0.21696-0.38671-0.65916-1.813-0.98268-3.1696-0.37548-1.5745-1.7417-3.0138-3.7776-3.98-1.7542-0.8324-3.433-2.1483-3.7307-2.9241-0.3-0.78-1.58-1.41-2.86-1.41-2.5181 0-3.9736-1.3888-2.4454-2.3333 0.52313-0.32331 1.8895 0.0694 3.0364 0.87272 1.1469 0.80331 2.8249 1.4606 3.7289 1.4606 2.3408 0 9.9604 8.6697 10.093 11.484 0.0183 0.38672-0.57468 0.70313-1.3177 0.70313-0.74301 0-1.5284-0.31641-1.7454-0.70313zm-25.732-22.004c-2.582-1.2452-2.7444-2.6058-0.31105-2.6058 2.7942 0 10.368 3.5789 10.368 5.0123 0 1.5287-7.1089-0.98491-10.057-2.4065zm-226.95 35.129c12.938-10.341 17.71-18.838 17.563-31.27-0.14613-12.307 0.079-11.94-10.342-16.868-0.84108-0.39774-6.3254-2.6902-12.188-5.0944-5.862-2.4042-13.655-5.7835-17.319-7.5095-3.6632-1.726-7.7805-3.4193-9.1495-3.7629s-2.721-0.99987-3.0044-1.4584c-0.28337-0.4585-1.1282-0.83364-1.8775-0.83364-0.74925 0-4.4158-1.4333-8.1478-3.1852-3.73-1.753-19.44-8.337-34.91-14.632-15.47-6.296-30.76-12.667-33.99-14.159-3.22-1.492-6.094-2.712-6.384-2.712-0.492 0-4.5718-1.8073-15.875-7.0324-2.5781-1.1918-8.4844-3.7651-13.125-5.7186-4.6406-1.9534-9.7031-4.2955-11.25-5.2046-1.547-0.909-4.173-2.346-5.836-3.194-5.079-2.589-10.936-8.371-13.324-13.152-1.309-2.622-2.424-3.96-2.638-3.166-2.002 7.431-12.392 26.218-14.498 26.218-0.37757 0-1.341 1.2656-2.1409 2.8125l-1.455 2.812h3.7389c3.6072 0 13.653 3.117 15.481 4.8033 0.48984 0.45195 1.4411 0.82172 2.114 0.82172 1.3083 0 7.7418 3.0176 13.87 6.5059 5.0466 2.8724 31.895 19.645 51.732 32.318 5.5789 3.5641 11.831 7.5286 13.893 8.8101 2.0625 1.2814 5.5553 3.5333 7.7618 5.0042s4.2337 2.6743 4.505 2.6743c0.58001 0 14.131 8.4461 19.761 12.317 2.1468 1.4759 4.171 2.6834 4.4982 2.6834 0.32719 0 2.7895 1.3967 5.4717 3.1039 2.6823 1.7071 5.5096 3.3921 6.2831 3.7443 0.77344 0.35226 4.1484 2.3724 7.5 4.4893 3.3516 2.1168 7.8447 4.8298 9.9848 6.0287s5.6122 3.2664 7.7157 4.5943c2.1036 1.3279 4.0035 2.4144 4.222 2.4144 0.21852 0 3.0746 1.5346 6.3468 3.4102 5.0346 2.8858 8.9949 4.4779 12.267 4.9314 0.38082 0.0528 1.6161-0.64232 2.7451-1.5447zm-187.66-109.75c0-2.3287 9.1657-15.16 10.364-13.962 0.60103 0.60103-3.8817 9.9056-5.7569 12.181-3.152 3.824-4.607 4.386-4.607 1.781zm-17.406-2.001c4.1914-2.763 11.053-10.755 13.516-15.743 1.2121-2.4545 2.5903-5.2066 3.0625-6.1158 5.74-11.049-0.705-18.769-9.433-11.298-15.903 13.612-22.262 43.122-7.145 33.157z"/>
</svg>
