<?xml version="1.0" encoding="UTF-8"?>
<svg version="1.0" viewBox="0 0 1217.3 916.59" xmlns="http://www.w3.org/2000/svg">
 <g transform="translate(249.68 -10.511)">
  <path d="m216.93 926.58c-37.516-1.4612-111.94-6.264-128-8.2606-1.65-0.20508-9.9604-0.89475-18.468-1.5326-8.5071-0.63784-16.191-1.5467-17.074-2.0196-0.88374-0.47297-4.5493-1.0468-8.1457-1.2752s-6.9629-0.67734-7.4812-0.99763c-0.51825-0.32029-2.7173-0.82014-4.8868-1.1108-5.7942-0.77621-18.314-3.2459-34.445-6.7947-3.025-0.66551-6.175-1.3134-7-1.4398-9.7762-1.4977-20.146-4.2098-39.7-10.383-12.514-3.9505-20.081-8.0001-28.3-15.145-12.735-11.071-35.686-35.167-43.957-46.15-3.8026-5.0495-8.2254-10.756-9.8283-12.681-3.3278-3.9964-10.214-13.742-10.214-14.455 0-0.26163-3.0868-4.8853-6.8596-10.275-3.7728-5.3895-7.8024-11.647-8.9548-13.906-1.1763-2.3057-3.0465-4.3558-4.2642-4.6742-1.7267-0.45154-2.0432-1.0682-1.5523-3.0242 0.42289-1.6849 0.14755-2.637-0.87622-3.0299-0.82479-0.3165-1.4972-1.8176-1.5026-3.3543-0.01178-3.3546-4.318-12.923-7.2007-15.999-1.1679-1.2465-2.432-4.4565-2.886-7.3286-0.44433-2.8108-2.3601-8.3377-4.2573-12.282-6.8967-14.338-8.6229-18.56-11.156-27.285-7.135-24.577-11.717-44.731-18.957-83.386-3.651-19.491-5.2815-31.098-7.9369-56.5-0.86242-8.25-1.7963-15.9-2.0753-17s-0.96946-6.275-1.5344-11.5c-0.56492-5.225-1.4346-12.2-1.9327-15.5-0.98279-6.5113-2.7829-37.319-3.535-60.5-0.25877-7.975-0.75898-21.323-1.1116-29.662l-0.64109-15.162-9.633-7.0428c-5.2981-3.8736-10.252-8.0482-11.009-9.277-1.89-3.0678-1.5374-11.453 0.64063-15.238 3.1576-5.4872 19.286-15.405 30.829-18.958 2.6988-0.83061 8.732-2.6916 13.407-4.1356s10.3-3.0027 12.5-3.464 10.525-2.2592 18.5-3.9956c7.9748-1.7363 15.582-2.8852 16.905-2.5532 1.3231 0.33207 2.6732 0.21564 3.0004-0.25874 0.32717-0.47437 4.6449-1.8651 9.5949-3.0905 9.1647-2.2688 20.191-6.9575 28.765-12.232 2.6208-1.6122 5.233-2.9312 5.8049-2.9312 0.57191 0 3.0209-0.90248 5.4422-2.0055 2.4213-1.103 8.8091-2.5214 14.195-3.152 8.6446-1.012 11.61-0.89321 25.293 1.0136 18.256 2.5441 27.073 2.6619 48 0.64147 8.525-0.82309 20.225-1.9465 26-2.4964 5.775-0.54995 16.8-1.6868 24.5-2.5264 33.245-3.6248 74.106-6.9627 97.5-7.9647 5.225-0.22379 17.6-0.86379 27.5-1.4222 45.1-2.544 80.924-2.9617 151-1.7608 61.13 1.0476 75.109 1.4872 100.5 3.1602 35.431 2.3346 74.83 4.0414 82.611 3.5788 0.61107-0.03633 2.1853-2.091 3.4983-4.566s2.7255-4.5 3.139-4.5c0.41345 0 0.75172-0.38543 0.75172-0.8565 0-1.7975 10.389-18.83 13.862-22.725 2.0012-2.2449 4.3683-4.9449 5.2602-6 2.5465-3.0124 9.4154-8.7895 21.878-18.401 6.325-4.8779 12.4-9.7307 13.5-10.784s4.475-3.6032 7.5-5.6663 6.175-4.4118 7-5.2192c0.825-0.80736 3.975-3.2772 7-5.4886s7.075-5.4718 9-7.2454 5.975-4.902 9-6.952 9.775-6.8395 15-10.643c5.225-3.804 11.671-8.4017 14.323-10.217s6.9279-5.2698 9.5-7.6761 6.9265-5.818 9.6765-7.5815c4.5831-2.939 10.211-7.3566 18-14.129 1.65-1.4347 5.475-4.3456 8.5-6.4686s6.85-4.8122 8.5-5.9757c7.6765-5.4134 24.447-15.97 25.37-15.97 0.56686 0 1.3905-0.62282 1.8304-1.384 0.43983-0.76123 5.7497-4.742 11.8-8.8461 13.425-9.1073 21.148-14.527 25.048-17.58 1.6234-1.2705 6.4182-4.6455 10.655-7.5 4.2369-2.8545 11.782-8.1151 16.766-11.69 18.026-12.929 24.039-16.396 33.53-19.336 27.62-8.5539 46.16-17.415 58.446-27.933 4.6452-3.9771 11.62-10.551 15.5-14.609 18.509-19.358 30.973-24.145 52.205-20.047 5.6187 1.0843 11.795 2.6311 13.724 3.4373 1.9296 0.80623 7.9217 1.958 13.316 2.5595 5.3942 0.60148 9.9787 1.2648 10.188 1.4739s0.326 3.4344 0.2597 7.1673c-0.1161 6.5309-0.2625 6.9119-3.8797 10.098-10.066 8.867-15.742 12.435-27.195 17.096-19.991 8.1354-50.658 32.15-61.198 47.922-3.6821 5.51-13.283 15.066-17.192 17.111-1.5135 0.79183-7.3069 5.2118-12.874 9.8222-5.5674 4.6104-11.738 9.5875-13.711 11.06s-4.4159 3.6993-5.427 4.9478-3.2611 2.9962-5 3.8839c-1.7389 0.88763-4.997 3.2411-7.2402 5.23s-7.6432 6.5404-12 10.115-8.8215 7.3358-9.9215 8.3591-6.275 5.1317-11.5 9.1296c-5.225 3.998-11.352 9.2364-13.616 11.641-6.3253 6.718-16.332 15.891-22.769 20.872-13.495 10.442-18.472 14.142-24.747 18.393-3.6476 2.4716-9.2726 6.8935-12.5 9.8264s-7.443 6.5012-9.368 7.9296-6.1681 5.1678-9.4291 8.3097-7.5298 6.9115-9.4863 8.3769c-1.9564 1.4653-9.3978 7.3323-16.536 13.038-7.1386 5.7054-14.57 11.409-16.514 12.675-5.616 3.6568-23.034 21.249-23.034 23.264 0 0.46133-1.0188 1.7959-2.2641 2.9658s-3.5858 4.6533-5.2012 7.741c-3.4019 6.5024-3.109 6.9776 4.9175 7.9773 2.7763 0.34581 7.9728 1.2462 11.548 2.0009s13.925 2.5333 23 3.9525 24.6 4.1642 34.5 6.1 21.375 4.1751 25.5 4.9762 11.1 2.3916 15.5 3.5346 9.7823 2.5204 11.961 3.0609c2.1784 0.54059 4.4284 1.3548 5 1.8093 0.5717 0.45454 5.3144 2.5405 10.539 4.6354 9.3537 3.7502 17.247 7.9091 21.784 11.478 1.2706 0.99947 3.59 2.0983 5.1542 2.4419 2.356 0.51747 3.3813 1.8263 5.9756 7.6284 2.7605 6.1738 3.0081 7.4412 2.0889 10.694-1.3195 4.6702-4.0191 7.8058-11.252 13.07-3.1625 2.3014-5.7917 4.7326-5.8427 5.4028s-0.0207 3.0714 0.0673 5.336c0.0898 2.3091-0.7164 6.0423-1.8356 8.5-1.7379 3.8162-2.0747 7.3543-2.6069 27.382-1.2304 46.308-1.8756 58.695-4.0367 77.5-0.7901 6.875-2.3579 21.725-3.4841 33-1.9389 19.412-3.4802 31.204-6.0125 46-0.6119 3.575-1.2603 8.3-1.4409 10.5s-1.0496 7.375-1.9311 11.5c-0.8814 4.125-2.3273 10.875-3.2129 15-0.8857 4.125-2.6836 11.1-3.9954 15.5s-2.8917 10.417-3.5108 13.372c-0.6192 2.9547-2.1403 7.6797-3.3802 10.5s-3.2411 8.5028-4.447 12.628c-1.206 4.125-2.6608 9.075-3.2328 11-1.0381 3.4935-2.9532 8.053-7.3503 17.5-2.4705 5.3078-3.8508 9.3598-5.5354 16.25-0.5715 2.3375-1.4717 4.25-2.0005 4.25s-0.96146 1.0995-0.96146 2.4433c0 1.3516-0.9421 3.1032-2.1084 3.9201-1.1596 0.81223-1.8485 1.8973-1.5308 2.4113 0.31767 0.51401-0.53354 1.9784-1.8916 3.2542s-2.4692 2.7343-2.4692 3.241c0 0.50673-0.84405 2.1158-1.8757 3.5757-1.0316 1.4599-2.1924 4.1169-2.5795 5.9044-0.38708 1.7875-1.118 3.25-1.6243 3.25-0.50629 0-0.92054 0.44896-0.92054 0.99769 0 0.54872-1.5211 3.1362-3.3803 5.75s-4.3966 6.7773-5.6388 9.2523-4.221 7.2572-6.6197 10.627-4.3612 6.4481-4.3612 6.8405c0 0.39243-1.9465 3.0353-4.3256 5.873s-5.3981 6.7345-6.709 8.6595c-6.8488 10.057-29.546 33.978-35.614 37.534-2.32 1.3596-4.4922 3.2581-4.8271 4.2188-0.6803 1.9518-14.812 13.623-23.858 19.705-3.2386 2.1773-6.1114 4.5398-6.3839 5.25-0.27253 0.71022-1.0673 1.2913-1.7661 1.2913-0.69882 0-1.7893 0.625-2.4232 1.3889-1.1972 1.4425-7.3358 3.344-15.092 4.675-2.475 0.4247-10.125 1.8987-17 3.2756-14.762 2.9564-50.334 8.2768-68 10.17-6.875 0.73695-19.7 2.2409-28.5 3.342-8.8 1.1012-18.7 2.2317-22 2.5124-11.431 0.97218-40.014 3.6965-43 4.0986-5.5017 0.74062-41.59 1.7432-78.5 2.1809-72.037 0.85422-87.777 0.87589-106.5 0.14663zm79.5-3.415c4.142-0.3486 6.7024-0.92056 5.7185-1.2774-0.97982-0.35543-5.4798-0.36773-10-0.02735-4.5202 0.34039-9.7935 0.46124-11.719 0.26857-5.449-0.5454-26.12-0.88635-26.568-0.43822-1.1591 1.1592-51.286-0.8973-74.432-3.0537-6.875-0.64049-16.325-1.2588-21-1.374s-13.225-0.32268-19-0.46098c-5.775-0.13831-14.249-0.84445-18.831-1.5692s-8.8944-1.1017-9.5824-0.83772-3.2388-0.00442-5.6685-0.59654-8.4676-1.4847-13.418-1.9836c-4.95-0.49885-12.6-1.3596-17-1.9128s-11.15-1.245-15-1.5375c-3.85-0.29247-11.95-1.4876-18-2.656-14.402-2.7811-18.144-3.3104-17.329-2.4516 1.5466 1.6311 25.127 6.4803 36.829 7.5735 5.775 0.53954 15 1.6384 20.5 2.4418 5.5 0.80346 13.6 1.6501 18 1.8814 4.4 0.23132 11.6 0.8765 16 1.4337 20.741 2.6267 75.875 6.4339 103.5 7.147 25.014 0.6457 66.178 0.3412 77-0.56958zm28.153-1.4424c-1.4362-0.57537-3.5702-0.58577-5.5-0.0268-2.8517 0.82599-2.6272 0.91592 2.3467 0.94016 4.4141 0.02151 5.0367-0.15882 3.1533-0.91336zm-102.65-11.933c-0.33992-0.55-1.379-0.99311-2.309-0.98469-1.4573 0.0132-1.4837 0.14929-0.19098 0.98469 1.9584 1.2656 3.2822 1.2656 2.5 0zm6.5 0.55902c0-1.0555-1.9191-1.4989-2.4899-0.57533-0.34546 0.55897 0.07344 1.0163 0.9309 1.0163s1.559-0.19844 1.559-0.44098zm3.7292-0.16319c-0.33229-0.33229-1.1948-0.36781-1.9167-0.07894-0.79773 0.31922-0.56078 0.55618 0.60417 0.60416 1.0542 0.04342 1.6448-0.19293 1.3125-0.52522zm-25.053-1.4648c-1.5532-0.43871-10.93-1.2753-20.837-1.8591-9.9072-0.58378-18.42-1.3132-18.918-1.6208-0.49782-0.30767-1.6962-0.09872-2.663 0.46432-2.172 1.2648-3.3713 1.0453 13.242 2.4233 17.029 1.4124 33.245 1.7416 29.176 0.59228zm8.574 0.40666c-0.6875-0.27741-1.8125-0.27741-2.5 0s-0.125 0.50439 1.25 0.50439 1.9375-0.22698 1.25-0.50439zm-53.25-3.2127c0-1.0738-4.952-2.125-10.01-2.125-5.0637 0-13.99-2.9737-13.99-4.6606 0-1.0361 1.2409-1.234 5.25-0.83723 45.582 4.5114 90.599 6.5801 138.25 6.3532 34.931-0.16633 47.088-0.48761 87-2.2992 28.76-1.3054 47.992-3.2216 49.355-4.9176 1.4444-1.7966 4.6186-10.234 8.1409-21.639 1.7836-5.775 3.6287-11.4 4.1002-12.5 1.2859-2.9997 11.033-42.835 13.458-55 0.21925-1.1 2.0016-9.875 3.9607-19.5 3.5628-17.504 5.8263-31.217 9.491-57.5 3.9327-28.205 5.0008-38.556 7.5321-73 0.32336-4.4 0.78809-9.575 1.0327-11.5 0.91802-7.2239 2.5215-32.012 2.9756-46 0.25892-7.975 0.69544-18.325 0.97004-23 1.2942-22.033 2.6488-110.02 1.7358-112.75-0.25501-0.76121-2.2436-1.2507-5.0854-1.2519l-4.6667-0.0019 0.5 16.252c0.49834 16.198 0.5093 16.261 3.3038 19.01 3.119 3.0684 2.817 4.7416-0.85577 4.7416h-2.4339l0.09949 18.75c0.13847 26.095-0.86322 82.036-1.487 83.045-0.28364 0.45895-0.59238 4.8553-0.68609 9.7697-0.31101 16.311-4.8928 67.335-7.582 84.435-0.8217 5.225-1.8936 12.875-2.382 17-1.8308 15.463-2.9173 22.791-4.893 33-1.1176 5.775-2.4754 14.456-3.0175 19.291-0.54205 4.835-1.6342 11.36-2.427 14.5-2.1997 8.7126-4.3495 18.824-7.6982 36.209-2.7694 14.377-6.1769 29.572-6.9597 31.035-0.4973 0.92921-1.1693 3.214-1.4933 5.0772-0.67626 3.8886-3.4879 7.5836-3.4879 4.5836 0-0.95297 0.86739-4.9869 1.9275-8.9643s3.3204-13.532 5.0227-21.232 4.216-18.335 5.5859-23.633c1.3699-5.2982 2.2381-10.292 1.9293-11.096s0.1286-3.4448 0.97201-5.8668c0.8434-2.422 1.54-5.6237 1.548-7.1149s0.92633-6.6216 2.0407-11.401c1.8725-8.0306 6.1739-36.215 7.3084-47.888 0.26728-2.75 0.96321-7.6517 1.5465-10.893 0.58329-3.241 0.82787-6.2692 0.54349-6.7293-0.28438-0.46014 0.0017-1.8059 0.63573-2.9906s1.2731-3.7815 1.4202-5.7707c0.14707-1.9892 0.75301-8.1167 1.3465-13.617 2.3847-22.098 3.3233-34.458 5.0883-67 1.0142-18.7 1.9272-42.662 2.0287-53.249 0.62293-64.922 0.69704-93.098 0.25157-95.652l-0.50581-2.9006-16.095 0.80305c-8.8522 0.44167-17.895 0.89679-20.095 1.0114-2.2 0.11458-7.4676 0.27096-11.706 0.34751l-7.7058 0.13919 0.20581 50.75c0.24588 60.627-0.1065 93.137-1.3305 122.75-0.50013 12.1-1.152 28.918-1.4486 37.374s-0.76393 16.331-1.0385 17.5c-0.27459 1.1692-0.92827 9.3258-1.4526 18.126-0.9567 16.056-3.1413 39.497-4.9859 53.5-1.4692 11.153-3.9889 32.731-4.5541 39-0.27273 3.025-1.3978 10.675-2.5002 17s-2.6641 15.325-3.4705 20c-2.8595 16.578-7.5157 36-8.6305 36-1.1855 0-1.1241-0.97799 0.5519-8.8026 1.998-9.3276 5.2706-26.812 6.0265-32.197 0.3474-2.475 1.0604-6.525 1.5846-9 1.0493-4.9549 2.329-15.493 7.4079-61 3.3708-30.203 4.1411-38.518 5.0951-55 0.27059-4.675 0.67209-10.75 0.89222-13.5s0.69913-11.75 1.0644-20c0.36531-8.25 0.81758-17.25 1.005-20 1.2463-18.283 2.5618-74.884 2.4519-105.5-0.21609-60.213-0.70921-85.147-1.7037-86.141-0.63041-0.63041-2.3771-0.7718-4.3046-0.34846l-3.2437 0.71243 0.74037 32.139c0.90737 39.388 0.89376 30.974 0.14181 87.639-0.34669 26.125-1.0934 56.275-1.6595 67-0.56603 10.725-1.2323 23.55-1.4807 28.5s-0.91581 12.15-1.4832 16-0.98385 10.129-0.92543 13.953c0.09948 6.5118-0.69422 17.445-3.0888 42.547-2.9151 30.559-4.2887 42.816-6.5 58-0.76089 5.225-1.5926 11.075-1.8481 13-0.25558 1.925-1.6618 9.125-3.125 16s-2.7608 13.175-2.8837 14c-0.78323 5.259-1.9614 9-2.8344 9-0.61985 0-0.74315-1.2627-0.31733-3.25 1.3755-6.4196 4.6927-26.442 6.0055-36.25 0.7362-5.5 1.6167-11.125 1.9566-12.5 0.60729-2.4566 2.304-16.801 5.027-42.5 1.3823-13.046 3.505-42.828 3.9985-56.101 0.14521-3.9056 0.50312-7.5056 0.79535-8s0.84475-8.0988 1.2278-16.899 0.86404-18.925 1.0688-22.5 0.64549-20 0.9794-36.5 0.79554-32.475 1.0258-35.5c0.45959-6.0366 0.46321-104.28 0.00436-118.14-0.1573-4.754-0.53982-9.0543-0.85006-9.5563-0.31024-0.50198-2.1703-0.72517-4.1334-0.49598-4.5755 0.53416-5.0596 2.353-3.6953 13.884 0.57338 4.8465 1.0338 12.412 1.0231 16.812-0.01066 4.4 0.01251 25.1 0.05149 46 0.06858 36.776-0.48989 71.955-1.4208 89.5-0.24805 4.675-0.49357 11.65-0.54559 15.5s-0.50027 13.3-0.99611 21c-1.534 23.822-2.1975 34.939-2.1786 36.5 0.05293 4.3732-5.5512 64.391-6.3319 67.813-0.29024 1.2719-0.76212 4.8719-1.0486 8-0.2865 3.1281-1.1482 9.7375-1.9148 14.687-2.0969 13.539-2.6444 17.259-2.9492 20.035-0.37073 3.3772-1.5477 4.4347-1.5374 1.3812 0.00701-2.0646 1.1154-12.702 2.44-23.417 1.9508-15.78 1.9072-15.343 2.9406-29.5 0.38141-5.225 1.1104-13.1 1.6199-17.5 0.93951-8.1128 1.998-20.31 2.4733-28.5 0.14364-2.475 0.96707-14.85 1.8298-27.5 3.2878-48.205 4.2742-103.03 3.6712-204.04-0.05924-9.923-0.46296-18.617-0.89714-19.319-1.1677-1.8894-8.6903-1.1041-8.249 0.86108 0.18525 0.825 0.48141 31.425 0.65812 68 0.28911 59.84-0.20478 91.619-1.9116 123-1.4176 26.064-2.7417 47.496-3.1119 50.369-0.2219 1.7221-0.44303 6.0561-0.49139 9.6311-0.09333 6.8991-1.3406 22.699-3.1577 40-0.60653 5.775-1.1522 11.475-1.2126 12.667s-0.4473 2.5044-0.8598 2.9167c-1.0541 1.0536-0.93427-12.004 0.19051-20.761 0.51728-4.0273 1.2506-12.047 1.6295-17.822 0.37896-5.775 0.84812-12.75 1.0426-15.5 0.88493-12.514 1.4661-24.174 1.9189-38.5 0.26946-8.525 0.69961-18.65 0.9559-22.5 1.2605-18.935 2.0285-101.7 1.4652-157.89l-0.3498-34.892-31.051 0.64771c-17.078 0.35624-37.576 0.7005-45.551 0.76502-7.975 0.06451-15.288 0.52759-16.25 1.029-1.0476 0.54579-2.4524 0.5481-3.5 0.00574-0.9625-0.4983-25.375-1.2068-54.25-1.5744-28.875-0.36759-55.425-0.85325-59-1.0792-3.575-0.22598-15.092-0.67735-25.593-1.003-14.971-0.46436-19.316-0.31326-20.13 0.70004-1.2315 1.534-1.6945 22.179-1.7334 77.292-0.02537 35.972 0.28309 47.177 1.9959 72.5 0.27901 4.125 0.93707 14.475 1.4624 23 1.0073 16.347 4.5296 49.434 5.4151 50.867 0.28698 0.46433 0.74267 3.9468 1.0126 7.7388 0.86743 12.183 2.6245 24.529 5.6776 39.895 1.6393 8.25 3.1666 17.025 3.394 19.5 0.22738 2.475 1.2879 8.325 2.3568 13 2.8875 12.629 3.18 14.858 2.0422 15.561-1.6057 0.99236-1.9534 0.14697-2.9632-7.2051-0.51798-3.771-1.3864-8.8813-1.9299-11.356-2.1192-9.6515-5.0076-24.669-5.3854-28-0.6108-5.3854-2.6671-17.264-3.1137-17.986-0.21924-0.35474-0.85494-4.8904-1.4127-10.079-0.55773-5.1889-1.209-10.334-1.4473-11.434-0.23832-1.1-1.1684-9.425-2.0668-18.5s-2.2931-22.8-3.0993-30.5c-0.80616-7.7-1.7412-19.175-2.0778-25.5-0.33666-6.325-0.75091-11.731-0.92056-12.013-1.6076-2.6713-2.487-118.8-1.0468-138.24 0.72072-9.7299 0.71741-9.7502-1.6075-9.8596-1.2813-0.06029-3.7922-0.23263-5.5797-0.38298l-3.25-0.27336-0.09772 8.133c-0.05375 4.4731-0.27204 13.083-0.48511 19.133-1.2305 34.939-0.637 99.451 1.1499 125 2.77 39.605 4.3371 56.037 7.8677 82.5 2.278 17.074 2.5091 18.513 6.1056 38 0.86278 4.675 1.7091 9.4 1.8808 10.5 1.5417 9.879 5.6254 29.081 7.9211 37.247 0.92735 3.2985 1.113 5.4712 0.49993 5.8501-1.692 1.0457-2.2465-0.43941-4.4472-11.91-1.1805-6.153-3.3519-16.587-4.8254-23.187-4.9733-22.277-6.7847-32.87-9.0628-53-0.87141-7.7-1.8055-14.635-2.0757-15.41-0.41866-1.2016-1.8058-14.144-3.9751-37.09-0.28599-3.025-0.73255-7.525-0.99236-10-1.0157-9.6759-3.3628-49.152-3.6268-61-0.74661-33.503 0.37254-103.73 1.7788-111.61 0.63508-3.5611-0.87563-4.3512-8.3656-4.3753-4.8407-0.01555-4.4162-1.2911-4.821 14.486-0.76103 29.659-0.00276 121.76 1.016 123.41 0.23582 0.38157 0.68238 6.0702 0.99235 12.641 0.65193 13.82 2.1515 32.456 3.5363 43.948 0.53022 4.4 1.4623 12.725 2.0712 18.5 1.6384 15.538 2.0145 18.347 2.678 20 0.33111 0.825 0.94139 4.2 1.3562 7.5 1.8271 14.536 3.0619 21.908 5.9458 35.5 5.4881 25.865 6.3624 31.721 4.4512 29.809-0.58281-0.58281-2.9272-11.331-4.9751-22.809-0.73597-4.125-2.45-13.125-3.809-20-2.2846-11.558-6.9554-42.819-8.1429-54.5-0.27956-2.75-0.92461-8.6-1.4334-13-5.8244-50.363-6.6154-66.385-6.6154-133.98v-61.981l-7.5-0.22334c-4.125-0.12284-15.375-0.86524-25-1.6498s-17.798-1.2527-18.163-1.0404c-2.9925 1.7423-2.8922 71.401 0.15094 104.88 0.50001 5.5 1.1763 13.375 1.5029 17.5 0.32658 4.125 1.0451 11.775 1.5966 17s1.2418 12.425 1.5338 16 0.94608 9.65 1.4534 13.5 1.3686 10.6 1.9138 15c4.476 36.122 9.2678 64.257 13.54 79.5 1.3103 4.675 2.8715 11.603 3.4692 15.395s1.5626 7.7841 2.1443 8.8709c0.58166 1.0868 1.6624 5.4092 2.4016 9.6052 0.73922 4.196 2.2854 11.004 3.4361 15.129 1.1506 4.125 3.7121 13.35 5.6922 20.5s4.1124 13.9 4.7383 15 1.962 4.7 2.9689 8c2.3466 7.6905 7.438 21.27 9.1855 24.5 1.4881 2.75 5.4352 11.664 5.4352 12.274 0 1.8545 14.017 23.998 17.873 28.236 9.8303 10.803 29.672 22.399 38.608 22.564 2.2104 0.04077 6.0439 0.43445 8.5189 0.87484 6.3405 1.1282 11 1.2028 11 0.17604zm94-7c0-4.0933 1.1138-9.125 2.02-9.125 0.87912 0 1.6388 6.3824 1.1605 9.75-0.47847 3.369-3.1804 2.838-3.1804-0.625zm20.385-7.875c0.61202-7.0224 2.3358-31.617 3.0663-43.75 0.2318-3.85 1.1324-22.945 2.0012-42.433s1.778-35.631 2.0203-35.874c0.24231-0.24232 1.1355-0.17392 1.9848 0.152 1.2801 0.49122 1.4664 2.0945 1.0893 9.3735-0.2502 4.8295-0.5145 12.381-0.58735 16.781-0.07284 4.4-0.5388 14.3-1.0355 22-0.49667 7.7-1.1323 18.368-1.4124 23.707s-0.71852 11.189-0.97412 13c-0.25559 1.811-0.68619 7.1414-0.9569 11.845-0.65012 11.297-2.5546 26.748-3.6532 29.637-1.5664 4.12-2.1437 2.4584-1.5425-4.4399zm-8.8075 3.204c-0.35145-1.4003-0.37181-2.9783-0.04524-3.5067s0.54891-58.895 0.49408-129.7c-0.05482-70.809-0.10572-141.73-0.1131-157.61-0.00738-15.877 0.13459-29.015 0.31548-29.196s0.99086 0.08021 1.7999 0.58022c1.2745 0.78763 1.518 13.909 1.8221 98.196 0.39603 109.75 0.27104 211.55-0.26618 216.79-0.19739 1.925-0.40974 4.2875-0.47188 5.25-0.17275 2.6758-2.813 2.0813-3.5352-0.79599zm-11.384-85.705c-0.78452-192.53-0.65576-331.74 0.30663-331.5 1.1199 0.27787 1.1018-1.2005 1.8724 153.25 0.77843 156.02 0.79118 244.62 0.03589 249.35-0.36516 2.2836-0.94392 4.1518-1.2861 4.1516-0.3422-2.8e-4 -0.76017-33.863-0.92882-75.25zm-152.39-21.749c-0.98112-2.3239-1.9413-7.1012-2.3114-11.5l-0.33655-4 1.9712 4.458c1.2167 2.7517 1.8446 6.005 1.6406 8.5-0.18788 2.2976-0.60385 3.3946-0.96381 2.542zm321.27 0.30902c0.03865-0.44496 0.45702-1.709 0.92971-2.809 0.82859-1.9282 0.86195-1.9214 0.92971 0.19098 0.03866 1.205-0.37971 2.4691-0.92971 2.809s-0.96837 0.25398-0.92971-0.19098zm-70.07-3.75c0-0.85746 0.45-1.559 1-1.559s1 0.42344 1 0.94098-0.45 1.2191-1 1.559-1-0.08352-1-0.94098zm72-3.5245c0-1.2643 0.90659-7.7518 2.0146-14.417s3.1929-20.893 4.6329-31.618c3.1869-23.735 4.1248-30.596 4.7159-34.5 0.72923-4.816 2.5128-22.94 3.6412-37 5.1889-64.654 5.5414-75.798 5.0579-159.85-0.1071-18.618 0.03006-34.075 0.30479-34.35 0.27474-0.27473 0.91409-0.24329 1.4208 0.06987 0.97691 0.60376 0.79254 134.14-0.20727 150.13-1.4165 22.65-4.1915 56.639-5.0617 62-0.26785 1.65-0.93819 7.5-1.4896 13-0.55144 5.5-1.684 14.725-2.5167 20.5s-1.9832 14.325-2.5565 19-1.4478 9.85-1.9432 11.5c-0.49542 1.65-1.1865 5.7-1.5358 9-0.34928 3.3-1.0384 7.35-1.5313 9-0.49296 1.65-1.134 4.8-1.4246 7-1.1381 8.6172-3.5215 15.747-3.5215 10.535zm-143.29-12.659c-0.36615-0.36615-0.45869-30.638-0.20564-67.271 0.48752-70.577-0.69524-134.43-2.5312-136.64-0.76512-0.92191-0.7402-1.4924 0.08754-2.0039 0.84-0.51914 0.98264-4.8602 0.52048-15.839-0.35016-8.3181-0.80942-22.099-1.0206-30.624s-0.68292-21.415-1.0484-28.644c-0.47623-9.4206-0.34068-13.344 0.47854-13.85 0.62863-0.38852 1.4086-0.44075 1.7333-0.11606 0.86014 0.86013 1.993 18.212 2.684 41.11 0.33194 11 0.85616 24.5 1.1649 30 1.4977 26.679 2.7571 179.68 1.6908 205.42-0.7097 17.129-1.3833 20.628-3.5539 18.457zm145.84-84.126c0.70109-5.7824 1.0664-6.9637 1.8969-6.1332 0.82871 0.8287-0.71735 11.883-1.662 11.883-0.54884 0-0.64541-2.3641-0.2349-5.75zm2.6788-18.25c0-1.925 0.2058-2.7125 0.45733-1.75 0.25152 0.9625 0.25152 2.5375 0 3.5-0.25153 0.9625-0.45733 0.175-0.45733-1.75zm0.13837-10.39c0.3463-2.6893 0.62963-6.4283 0.62963-8.309 0-2.1716 0.39001-3.1784 1.0687-2.7589 1.3083 0.80858 0.19872 13.475-1.3103 14.958-0.6892 0.67722-0.81445-0.57827-0.38806-3.8896zm2.1223-29.11c0.41774-8.25 0.91384-46.05 1.1024-84 0.1886-37.95 0.35685-70.068 0.3739-71.372 0.02536-1.9409 0.29071-2.1569 1.4588-1.1875 1.2174 1.0103 1.3627 10.13 0.98618 61.872-0.24289 33.378-0.58037 62.937-0.74996 65.687s-0.64354 10.85-1.0532 18c-1.219 21.275-1.5221 24.747-2.2162 25.389-0.36379 0.33624-0.31965-6.1386 0.09809-14.389zm-166.6-56.177c-0.06027-1.0028-0.25212-22.608-0.42635-48.012-0.25809-37.634-0.06907-46.394 1.0206-47.299 0.8328-0.69116 1.5621-0.74619 1.9331-0.14586 0.32768 0.5302 0.65698 22.49 0.73177 48.799 0.12404 43.636-0.00823 47.863-1.5068 48.158-1.0151 0.19979-1.6846-0.37334-1.7523-1.5zm-245.39 332.68c-0.33992-0.55-1.604-0.99311-2.809-0.98469-1.7812 0.01245-1.9105 0.1966-0.69098 0.98469 1.9701 1.2732 4.2869 1.2732 3.5 0zm-7.5-1.8417c0-0.80761-6.7882-3.2375-8.616-3.0841-0.91172 0.07649 6.5279 3.7194 7.866 3.8517 0.4125 0.04079 0.75-0.30461 0.75-0.76755zm541.5-3.2559c16.779-3.2081 27.948-7.4392 41.5-15.721 6.5246-3.9872 18.532-12.487 20-14.157 0.275-0.31292 3.1175-2.7767 6.3166-5.475 5.858-4.941 20.618-20.738 26.183-28.021 1.65-2.1596 4.5944-5.7494 6.5431-7.9773 8.4182-9.6242 12.317-14.971 21.207-29.082 5.1867-8.233 11.014-17.444 12.95-20.469 2.8789-4.4986 10.225-19.12 19.342-38.5 2.5235-5.3639 7.5448-17.839 10.013-24.878 1.3267-3.7829 2.9469-7.5223 3.6004-8.3096 0.6534-0.78737 1.2945-2.8672 1.4247-4.6219 0.1301-1.7547 1.6371-7.2404 3.349-12.19 1.7118-4.95 3.3089-10.475 3.5491-12.277 0.2403-1.8024 0.7178-3.7317 1.0612-4.2874 0.9272-1.5002 5.4247-18.209 7.5196-27.936 1.8489-8.5848 5.351-31.618 8.4385-55.5 0.9244-7.15 2.1078-15.475 2.6298-18.5 1.2346-7.1552 4.125-36.085 5.3951-54 0.3704-5.225 0.8378-9.7679 1.0387-10.095s0.5913-10.902 0.8676-23.5 0.2491-22.005-0.0604-20.905c-0.3096 1.1-0.9692 2.4275-1.4658 2.95s-0.9029 1.895-0.9029 3.05-0.3807 2.5275-0.8461 3.05c-0.4653 0.5225-1.882 4.6772-3.1482 9.2326s-2.6855 8.5195-3.1539 8.809c-0.4685 0.28953-0.8529 1.7374-0.8542 3.2174s-2.0209 8.091-4.4879 14.691-4.4909 12.495-4.4976 13.101c-0.0066 0.60558-1.1149 3.1752-2.4629 5.7103-1.3479 2.5351-2.928 6.3817-3.5114 8.548-1.3609 5.0542-5.805 40.838-6.4912 52.269-0.1529 2.5455-0.5381 5.0491-0.8561 5.5636-0.5289 0.8559-2.4262 16.161-3.1992 25.808-0.1763 2.2-0.8249 6.25-1.4414 9-0.6166 2.75-1.3564 7.25-1.6441 10s-0.91288 6.125-1.3893 7.5c-0.90037 2.5987-3.3786 12.723-7.0982 29-1.1941 5.225-2.7204 10.85-3.3918 12.5-2.0548 5.0494-5.6648 15.727-7.0999 21-2.4204 8.8934-13.48 34.523-22.007 51-11.718 22.642-14.532 27.823-19.01 35-8.4234 13.499-16.48 25.242-18.815 27.424-1.4269 1.3334-2.5943 2.8094-2.5943 3.2801 0 2.6568-30.232 34.83-35.088 37.341-1.6017 0.82827-2.9122 1.93-2.9122 2.4482s-4.1625 3.7138-9.25 7.1012-9.4 6.5518-9.5833 7.032c-0.18334 0.48024-0.79044 0.87316-1.3491 0.87316s-5.2117 2.4694-10.34 5.4876c-10.631 6.2566-22.399 11.627-31.931 14.571-3.6009 1.1122-6.5471 2.2748-6.5471 2.5835 0 0.87612 13.465-0.62937 24.5-2.7392zm-516.58 0.71985c-0.22917-0.20775-4.6917-1.5899-9.9167-3.0715-15.465-4.3852-19.473-7.5362-30.74-24.166-3.2214-4.7551-23.26-44.779-23.264-46.467-0.00205-0.77981-0.84585-2.7988-1.8751-4.4866-1.0292-1.6878-2.1973-4.1628-2.5957-5.5-0.74388-2.4968-6.9604-18.854-8.525-22.431-0.86145-1.9696-2.3519-6.5233-2.4548-7.5-0.05967-0.56639-1.1612-4.1988-5.6101-18.5-4.8926-15.728-4.7637-15.387-4.8566-12.813-0.22181 6.1434 12.54 50.126 16.917 58.306 0.64508 1.2053 2.0826 4.9626 3.1944 8.3495 1.8377 5.598 4.8274 12.127 10.605 23.158 4.9936 9.5344 7.3147 15.79 6.2528 16.852-0.75017 0.75017-1.4762 0.63416-2.4692-0.39452-1.7849-1.8492-19.578-37.436-19.583-39.167-0.00205-0.70958-0.82422-2.6401-1.827-4.2901s-2.6536-5.25-3.6685-8-2.138-5.45-2.4959-6-2.8003-7.75-5.4275-16-5.6319-16.636-6.6771-18.636c-1.0452-1.9999-1.9028-4.2499-1.9059-5-0.01017-2.4877-2.1301-9.0615-2.729-8.4626-0.32385 0.32384-0.07256 2.2785 0.5584 4.3438 1.1878 3.8879 6.9363 23.611 7.6522 26.255 0.2234 0.825 0.86044 2.85 1.4156 4.5s1.9863 6.15 3.1801 10 2.5202 7.45 2.9474 8c0.42722 0.55 1.4628 3.25 2.3014 6s2.6844 7.8978 4.102 11.44c3.1705 7.9213 3.178 8.1876 0.13814 4.9093-2.5931-2.7966-15.908-29.541-18.08-36.317-0.711-2.2175-3.1838-9.2068-5.4951-15.532-2.3113-6.325-4.4232-12.4-4.6932-13.5-0.26993-1.1-1.108-3.3906-1.8625-5.0902-0.75442-1.6996-2.0279-5.5246-2.83-8.5-2.4505-9.0903-4.7191-16.26-6.1412-19.41-0.74503-1.65-2.569-7.5-4.0532-13-4.8198-17.86-6.2036-22.878-8.4108-30.5-3.0733-10.612-5.9737-22.018-5.8027-22.819 0.07984-0.3743-0.20659-2.373-0.63652-4.4416-0.89304-4.2968-2.5768-6.0054-2.511-2.548 0.06028 3.1694 1.6844 15.75 2.4281 18.809 0.33433 1.375 1.2281 6.1959 1.9861 10.713s1.6439 8.643 1.9687 9.1685c0.86902 1.4061 3.7105 18.314 3.1688 18.856-1.2205 1.2205-2.7152-1.5244-5.1804-9.5136-1.4806-4.7982-3.0499-9.6241-3.4875-10.724s-1.3344-3.8-1.9929-6-1.7969-5.575-2.5298-7.5c-2.6995-7.0905-5.4466-17.688-6.3508-24.5-0.51105-3.85-1.6148-10.15-2.4527-14-0.83796-3.85-1.9723-10.95-2.5208-15.778-0.54848-4.8279-1.2024-9.1099-1.4532-9.5157-0.25077-0.40575-0.97398-4.3307-1.6072-8.7221-3.8836-26.935-5.2033-37.918-6.4869-53.984-0.79095-9.9-1.6741-19.8-1.9626-22-0.28847-2.2-0.80888-9.85-1.1565-17s-0.7804-14.575-0.96178-16.5-0.58678-9.575-0.90089-17c-1.191-28.153-1.6681-36.567-2.1936-38.684-0.61744-2.4882-4.228-4.0481-12.358-5.3393-3.025-0.48041-6.4-1.0686-7.5-1.3071s-3.9447-0.75666-6.3216-1.1515l-4.3216-0.71789 0.60209 19.35c0.91633 29.449 1.7992 43.083 5.0413 77.85 1.3572 14.554 2.218 21.91 4.0958 35 0.27614 1.925 0.9313 7.1 1.4559 11.5 0.52461 4.4 1.4375 10.25 2.0286 13s1.7456 9.05 2.5654 14 2.0854 12.6 2.8123 17 1.7924 9.1912 2.3678 10.647c0.57542 1.4559 0.83947 2.8539 0.58679 3.1066-0.42199 0.42199 2.6344 15.278 7.6036 36.958 2.014 8.7872 11.75 39.274 14.412 45.128 0.79036 1.7383 2.121 5.1855 2.9571 7.6605 0.83605 2.475 3.3414 8.6697 5.5674 13.766 2.226 5.0964 4.0474 9.699 4.0474 10.228 0 1.8301 6.8892 15.669 8.4416 16.957 0.85709 0.71133 1.5584 1.91 1.5584 2.6636 0 1.8918 16.212 30.643 21.08 37.385 2.1843 3.025 5.6472 7.9658 7.6952 10.98 2.048 3.0138 6.5371 9.0506 9.9757 13.415s6.0486 8.1388 5.7999 8.3875c-0.68837 0.68837-6.0505-3.9573-7.8281-6.7821-0.86525-1.375-5.7694-7.9901-10.898-14.7-5.1287-6.7102-10.225-13.681-11.325-15.49-6.3951-10.519-9.1201-15.557-14.503-26.81-3.2889-6.875-6.938-14.3-8.109-16.5-5.9056-11.095-7.1806-13.891-11.398-25-2.5057-6.6-5.433-13.833-6.5051-16.074-1.0721-2.2409-3.5647-9.2159-5.5392-15.5s-4.0418-12.776-4.5942-14.426c-4.2993-12.844-6.3716-21.381-9.8304-40.5-1.0448-5.775-3.0564-16.35-4.4702-23.5-4.0896-20.681-4.4119-22.453-6.002-33-0.82922-5.5-2.1999-14.5-3.0461-20-0.84611-5.5-1.705-11.8-1.9088-14s-0.87359-8.95-1.4886-15c-3.0693-30.192-3.6437-39.033-4.7105-72.5-0.32434-10.175-0.88327-22.775-1.2421-28l-0.65235-9.5-3.2213-0.31122-3.2213-0.31122 0.41602 4.8112c0.22881 2.6462 0.67868 12.686 0.9997 22.311 1.8255 54.731 3.2265 74.969 7.0268 101.5 0.86658 6.05 2.2219 16.902 3.0118 24.116 0.78992 7.214 1.898 14.331 2.4623 15.815s1.0261 4.0553 1.0261 5.7132c0 2.8581-0.1626 2.9786-3.1358 2.3256-2.9147-0.64017-3.0966-0.52235-2.5789 1.6706 0.30631 1.2976 1.5217 7.7593 2.7009 14.359 1.1792 6.6 3.2056 16.725 4.5031 22.5s2.6575 12.075 3.0223 14c3.631 19.163 11.817 45.864 19.774 64.5 1.4091 3.3 3.2297 7.8 4.0458 10 0.81614 2.2 3.0509 7.375 4.9661 11.5s4.8764 10.65 6.5804 14.5 3.7504 8.125 4.5476 9.5c0.79721 1.375 3.4668 6.5721 5.9323 11.549 2.4656 4.977 8.0101 13.977 12.321 20 4.3111 6.023 8.6207 12.076 9.5768 13.451 17.221 24.767 34.169 41.896 57.673 58.289 15.182 10.589 47.253 22.586 62.988 23.561 1.3292 0.08241 2.2292-0.02014 2-0.22789zm387.73-0.38759c2.2892-1.467 17.869-44.436 20.39-56.235 1.3922-6.516 3.6622-15.887 4.966-20.5 2.1096-7.4644 2.6215-9.8999 7.4611-35.5 0.25994-1.375 1.4019-8.8 2.5377-16.5s2.5286-16.7 3.0952-20c1.2391-7.2173 1.5398-9.348 2.3286-16.5 0.33362-3.025 1.0616-8.2 1.6177-11.5 0.55611-3.3 1.4523-9.825 1.9915-14.5 0.53919-4.675 1.4151-11.875 1.9464-16s1.6542-16.05 2.4953-26.5 1.98-23.5 2.531-29c2.0293-20.258 2.9776-50.469 3.4609-110.25l0.49518-61.25h-7.9632v17.5c0 20.409 0.10366 18.67-1.2075 20.25-0.73077 0.88052-0.68678 1.25 0.14883 1.25 1.4213 0 1.4012 32.78-0.03647 59.5-0.50308 9.35-1.1128 22.175-1.355 28.5-1.325 34.604-7.1063 105.78-9.5437 117.5-1.0763 5.1739-2.6772 17.554-3.621 28-0.29814 3.3-0.92086 7.575-1.3838 9.5-0.46297 1.925-1.1337 5.975-1.4906 9-0.35686 3.025-1.3186 9.1-2.1372 13.5s-1.8712 10.925-2.3391 14.5c-1.1939 9.1219-12.99 60.69-17.842 78-0.53962 1.925-3.5036 10.746-6.5866 19.602-3.083 8.8558-5.6054 16.618-5.6054 17.25 0 1.2728 3.8505 1.534 5.6465 0.38316zm95.854-0.23469c1.9282-0.82859 1.9214-0.86195-0.19098-0.92971-1.205-0.03866-2.4691 0.37971-2.809 0.92971-0.731 1.1828 0.24752 1.1828 3 0zm-85.33-1.0908c2.0095-1.0754 5.9356-8.7698 9.9512-19.503 1.7059-4.5594 1.8338-5.7562 0.75446-7.0568-1.0888-1.3119-0.99083-1.7921 0.60356-2.958 1.0469-0.76549 2.2674-1.3918 2.7122-1.3918s0.80887-0.90611 0.80887-2.0136 0.42329-2.795 0.94065-3.75c0.89676-1.6554 2.509-8.6031 5.0439-21.736 0.63695-3.3 1.8312-8.7 2.6538-12 0.82263-3.3 1.8133-8.475 2.2016-11.5 0.38821-3.025 1.0104-5.9829 1.3826-6.5731 0.37225-0.59019 1.1305-3.7402 1.6851-7s1.4531-8.4019 1.9968-11.427c3.4176-19.015 8.8257-53.707 9.5871-61.5 0.79891-8.1776 3.3088-27.706 4.4812-34.867 0.52832-3.2268 1.4536-14.702 2.0562-25.5s1.5175-20.758 2.0332-22.133 0.77746-3.85 0.58187-5.5-0.03627-7.725 0.35404-13.5c0.39032-5.775 0.37863-11.175-0.02597-12-0.40459-0.825-0.24635-2.625 0.35165-4s1.207-6.325 1.3534-11c0.14634-4.675 0.33185-9.85 0.41224-11.5s0.05004-3.9-0.06745-5 0.03956-4.7 0.349-8c1.1295-12.046 2.4978-37.261 2.5698-47.357 0.04063-5.6964 0.26515-10.667 0.49894-11.045 0.71238-1.1527 0.92495-51.699 0.22219-52.836-0.36088-0.58391-2.2291-1.0616-4.1516-1.0616h-3.4955l0.52267 7.15c0.28747 3.9325 0.51084 11.425 0.49637 16.65-0.05 18.062-1.2136 94.523-1.537 101-0.17852 3.575-0.62547 13.025-0.99323 21-0.36775 7.975-1.0944 18.55-1.6148 23.5-0.52038 4.95-1.359 14.625-1.8635 21.5-1.0464 14.259-1.8707 23.163-2.5458 27.5-0.2568 1.65-0.73256 5.7-1.0572 9-0.61143 6.2146-3.7223 31.717-5.3727 44.045-0.51875 3.8748-1.4355 8.3399-2.0371 9.9224-0.60168 1.5825-0.86207 3.4816-0.57866 4.2202 0.28342 0.73857-0.11599 5.0485-0.88757 9.5776s-1.903 12.469-2.5144 17.645c-0.61133 5.1755-1.3729 9.833-1.6924 10.35-0.31949 0.51695-0.92155 3.4824-1.3379 6.59-0.83778 6.2527-3.8069 20.439-6.9658 33.283-1.1318 4.6018-2.2563 9.2669-2.4988 10.367-0.24257 1.1-1.8344 5.825-3.5374 10.5s-3.5493 10.3-4.1029 12.5c-0.55357 2.2-3.4898 11.302-6.5249 20.227-5.9894 17.611-6.1444 19.828-1.2019 17.183zm-435.17-0.31496c0-0.44819-12.874-6.5943-13.812-6.5943-1.4073 0 1.9894 2.3756 6.4574 4.5162 4.5955 2.2017 7.3549 2.9814 7.3549 2.078zm106.4-0.74877c-0.39244-0.63498-1.3365-1.8725-2.0978-2.75-6.6625-7.6788-10.823-13.371-12.86-17.595-1.326-2.75-3.316-6.575-4.4221-8.5-3.4647-6.0296-9.0377-18.14-12.655-27.5-1.9128-4.95-4.153-10.034-4.9783-11.298-0.82521-1.2636-3.0422-7.3386-4.9266-13.5s-3.8248-12.102-4.3119-13.202c-0.98859-2.2324-6.9229-25.509-8.2857-32.5-0.48248-2.475-1.5578-6.2158-2.3896-8.313-0.83182-2.0971-1.748-5.6881-2.036-7.9799s-2.1348-10.251-4.1041-17.687c-5.6716-21.416-13.784-62.621-15.854-80.52-0.12716-1.1-1.1758-9.425-2.3304-18.5-4.3074-33.857-6.1947-52.594-7.5542-75-2.0797-34.275-2.817-50.047-3.4125-73l-0.68756-26.5-3.25-0.31336c-3.8672-0.37287-3.4899-4.0621-3.4069 33.313 0.06574 29.582 0.86753 61.358 1.6352 64.805 0.26883 1.2072 0.98261 9.3949 1.5862 18.195 1.7676 25.771 1.8358 26.603 2.9101 35.5 0.56453 4.675 1.2025 10.075 1.4177 12 2.2173 19.833 8.4538 59.042 13.202 83 0.81752 4.125 1.8804 8.625 2.362 10 0.48158 1.375 1.6328 6.1 2.5582 10.5s2.0569 8.9 2.5144 10c0.8326 2.0019 1.1434 3.3554 5.0514 22 1.1528 5.5 2.7814 12.25 3.619 15 0.83763 2.75 1.8969 6.8 2.354 9 2.3279 11.205 3.1238 14.071 6.296 22.676 1.8905 5.1281 3.9814 11.124 4.6465 13.324 1.8178 6.013 7.7254 20.943 11.654 29.454 1.916 4.1503 3.9998 8.6709 4.6306 10.046 0.63086 1.375 2.0632 3.8481 3.1831 5.4958 1.1198 1.6477 2.8813 4.5727 3.9143 6.5s2.717 4.4042 3.742 5.5042c1.0251 1.1 4.0048 4.4303 6.6217 7.4006 5.0708 5.7556 12.905 12.034 15.067 12.075 0.73734 0.01396 0.9974-0.47941 0.59549-1.1297zm344.07-8.0636c2.0334-4.4485 3.9436-9.7067 4.2447-11.685 0.30116-1.9783 1.1785-4.3259 1.9496-5.2169 1.2707-1.4682 5.939-16.742 6.993-22.88 0.23612-1.375 0.82952-4.075 1.3187-6 1.2868-5.064 2.9316-12.112 3.5006-15 0.27089-1.375 1.4151-6.55 2.5427-11.5s2.4352-11.475 2.9057-14.5 1.7696-10 2.8868-15.5 2.554-12.925 3.1928-16.5 1.5738-8.75 2.0778-11.5 1.8328-11.975 2.953-20.5 2.6732-19.1 3.4511-23.5c1.5279-8.641 3.7536-29.654 5.508-52 0.60452-7.7 1.2848-14.675 1.5118-15.5s0.66405-4.875 0.97124-9 0.77513-9.3 1.0399-11.5c1.1364-9.443 1.8385-24.81 2.9017-63.5 0.34003-12.375 0.8295-28.35 1.0877-35.5 0.39391-10.908 0.71657-47.486 0.53589-60.75-0.04113-3.0194-0.42683-3.75-1.9796-3.75-1.0607 0-2.6642 0.73565-3.5634 1.6348-1.413 1.413-1.6142 4.2956-1.4828 21.25 0.20225 26.098-0.8649 75.4-2.102 97.115-0.54835 9.625-1.424 25.113-1.9459 34.417s-1.145 17.63-1.3847 18.5-0.71901 7.8825-1.0652 15.583-0.80736 14.675-1.0249 15.5-0.88316 7.575-1.4792 15c-1.0835 13.496-1.7891 20.298-2.5937 25-0.23528 1.375-0.87128 6.325-1.4134 11s-2.1026 15.25-3.4678 23.5-3.1966 19.725-4.0698 25.5c-1.822 12.05-2.7249 16.954-5.4318 29.5-1.068 4.95-2.6643 13.05-3.5474 18-2.7912 15.646-5.6394 28.939-6.5856 30.736-0.50271 0.95504-0.91402 2.4414-0.91402 3.3029s-1.2143 5.623-2.6984 10.581c-2.1984 7.3439-2.4764 9.3701-1.5 10.934 1.5322 2.4535 1.5077 2.9462-0.14657 2.9462-2.3421 0-4.3188 3.2614-6.9701 11.5-3.4095 10.595-3.7351 13.84-1.2943 12.904 0.7648-0.29348 3.0543-4.1732 5.0877-8.6217zm86.465 6.6495c4.7061-1.4127 10.357-3.3126 12.557-4.222 6.1376-2.537 26.102-13.699 29.158-16.302 1.0131-0.86297 3.8922-2.738 6.398-4.1667 6.6121-3.77 29.616-26.253 41.604-40.663 9.4275-11.331 22.683-30.109 26.527-37.578 0.84919-1.65 4.0527-7.05 7.1188-12s6.6873-11.25 8.047-14c9.89-20.003 17.722-36.983 19.603-42.5 1.2189-3.575 2.6375-7.2975 3.1524-8.2722 0.51492-0.97472 1.8582-4.3497 2.985-7.5s2.4372-6.6278 2.912-7.7278c1.3939-3.2295 4.6675-13.596 5.9999-19 0.67806-2.75 2.1121-7.925 3.1868-11.5s2.3396-8.525 2.8108-11c0.47122-2.475 1.9696-10.125 3.3296-17 2.4681-12.476 3.7757-20.627 7.7-48 1.1433-7.975 2.5092-16.75 3.0353-19.5s1.1302-7.7 1.3423-11 0.7204-8.8631 1.1296-12.362l0.7439-6.3624-2.3919 0.73481c-3.6173 1.1113-4.8919 2.4782-4.8919 5.2465 0 1.3813-0.4203 4.1387-0.9339 6.1276-0.85429 3.3075-3.0664 19.389-3.6612 26.616-0.13581 1.65-1.0026 8.625-1.9261 15.5s-1.8404 14.075-2.0376 16c-1.1688 11.413-1.8153 15.035-3.5316 19.788-1.0503 2.9081-1.9096 6.3557-1.9096 7.6613 0 2.8826-4.348 21.498-6.3214 27.064-0.78254 2.2073-1.7309 6.0323-2.1074 8.5s-1.0864 5.3868-1.5775 6.4868c-1.5513 3.4745-3.9937 11.507-3.9937 13.134 0 0.86016-0.62377 2.9819-1.3862 4.715-0.76238 1.7331-2.3802 5.8511-3.5951 9.1511s-3.2911 8.2565-4.6138 11.014c-1.3227 2.7579-2.4038 5.4579-2.4023 6 0.00272 1.0389-22.756 46.406-26.386 52.597-5.4905 9.3649-8.328 13.99-13.123 21.389-2.8512 4.4-6.0413 9.5228-7.0892 11.384s-3.0302 4.6082-4.4052 6.1046-3.625 4.378-5 6.4037-4.3 5.6082-6.5 7.9611c-10.151 10.856-19.803 20.649-20.373 20.669-0.34475 0.01213-2.8329 2.0371-5.5293 4.5s-5.3206 4.478-5.8317 4.478c-0.51106 0-2.8049 1.4992-5.0975 3.3316-4.6032 3.6791-18.127 11.876-26.668 16.164-3.025 1.5186-6.625 3.5409-8 4.494s-4.2892 2.3139-6.476 3.0239c-2.1868 0.71003-5.3368 2.1208-7 3.1351s-4.0099 1.8458-5.215 1.8479c-1.205 0.00206-2.4691 0.45374-2.809 1.0037-1.0832 1.7527 4.5814 1.0917 13.443-1.5686zm-458.59-3.6854c-3.4004-3.8337-8.8055-11.938-12.836-19.246-4.6468-8.4257-12.513-24.105-12.513-24.941 0-0.32974-1.759-4.303-3.9089-8.8295-3.618-7.6175-7.2905-17.3-12.224-32.23-1.0905-3.3-2.6317-7.418-3.4249-9.1511s-1.4421-4.0638-1.4421-5.1793-1.575-6.7856-3.5-12.6-3.5-11.344-3.5-12.287-0.62504-3.5302-1.389-5.7486-1.836-6.2834-2.3823-9.0334c-0.54633-2.75-1.7444-7.475-2.6623-10.5s-2.0717-7.075-2.5639-9-2.0014-7.775-3.3538-13c-6.3678-24.602-10.048-43.482-13.643-70-1.1559-8.525-2.56-18.65-3.1203-22.5-0.56029-3.85-1.4056-11.275-1.8784-16.5s-1.3224-13.775-1.8879-19c-2.1327-19.704-4.0232-41.707-4.0677-47.341-0.02534-3.2127-0.25662-6.1819-0.51396-6.5983-0.25733-0.41638-0.76829-12.638-1.1354-27.159-0.36717-14.521-0.75406-27.639-0.85975-29.152-0.1057-1.5125-0.27093-7.0522-0.36718-12.31l-0.175-9.5604-3.75 0.31036-3.75 0.31037 0.03424 8c0.10372 24.234 0.94177 56.649 1.5771 61 0.40151 2.75 0.98603 10.4 1.2989 17 0.3129 6.6 1.0698 15.6 1.682 20 0.61223 4.4 1.2548 11.375 1.4279 15.5 0.28149 6.707 1.2511 16.289 4.452 44 2.0525 17.769 4.714 34.397 8.7231 54.5 1.3162 6.6 3.0543 15.825 3.8624 20.5s2.1187 10.75 2.9125 13.5c2.9804 10.326 6.4053 23.248 8.0838 30.5 0.95477 4.125 2.8256 11.55 4.1574 16.5s2.9543 11.1 3.6057 13.667c0.65134 2.567 1.5214 5.0045 1.9336 5.4167 0.41213 0.41213 0.76844 1.9118 0.79179 3.3327 0.02335 1.4208 1.1739 5.7333 2.5567 9.5833s2.8707 8.35 3.3065 10 1.7602 5.1128 2.9433 7.6951 2.1511 5.1546 2.1511 5.7161c0 0.56151 0.65689 2.4987 1.4598 4.3049 0.80287 1.8062 3.3191 8.0089 5.5917 13.784 8.0647 20.494 17.404 37.214 26.226 46.953 1.2222 1.3492 2.9317 3.5992 3.7989 5 0.86724 1.4009 2.4772 2.9999 3.5778 3.5534 1.1005 0.5535 2.807 1.8124 3.7922 2.7976 2.5259 2.5259 3.3154 1.1628 0.90224-1.5579zm381.53-2.9961c4.5406-9.7321 11.492-32.368 12.656-41.213 0.35924-2.7294 1.3426-6.6856 2.1852-8.7915 1.6514-4.1273 1.0743-6.017-1.1258-3.6864-1.4728 1.5601-7.5925 22.296-7.5925 25.726 0 1.1533-0.45 2.375-1 2.7149s-1 1.4223-1 2.4054-0.65526 3.1008-1.4561 4.7062c-1.6533 3.314-8.5439 22.324-8.5439 23.571 0 0.44971 0.66623 0.81766 1.4805 0.81766 0.83838 0 2.7452-2.7108 4.3965-6.25zm6.8839 4c3.3989-4.2241 19.4-53.922 17.858-55.465-0.7997-0.7997-2.6187 0.73052-2.6187 2.203 0 2.1286-6.2229 20.383-12.923 37.908-3.3425 8.7429-6.0772 16.055-6.0772 16.25 0 0.90071 2.8642 0.21814 3.7609-0.89625zm12.666-3.9036c0.86528-1.7345 1.5732-3.5394 1.5732-4.0109 0-0.47149 0.8637-2.7648 1.9193-5.0964 1.0556-2.3315 2.2342-5.3641 2.6192-6.7391 0.38491-1.375 1.4877-4.3 2.4507-6.5 6.5499-14.964 10.277-26.964 11.957-38.5 0.44063-3.025 1.5478-7.975 2.4605-11 0.91263-3.025 1.9091-7.0376 2.2144-8.9169 0.30529-1.8793 0.9821-4.5401 1.504-5.9128 1.293-3.4009-0.67085-5.4683-2.6491-2.7888-1.3714 1.8576-1.7399 3.4168-4.9904 21.118-0.90896 4.95-2.7814 12.6-4.1609 17-1.3796 4.4-3.1589 10.449-3.9541 13.443-0.79519 2.9935-1.8169 5.9185-2.2704 6.5-0.45354 0.58152-1.1153 2.275-1.4705 3.7632-0.35522 1.4882-1.1662 3.9632-1.8021 5.5-0.63593 1.5368-2.3616 6.1691-3.8348 10.294s-3.4304 9.1875-4.3492 11.25c-1.4066 3.1574-1.443 3.75-0.23045 3.75 0.7921 0 2.1481-1.4191 3.0134-3.1536zm-496.82 0.27293c-0.93611-1.0344-5.6184-4.519-10.405-7.7436-18.482-12.451-40.938-33.713-52.35-49.566-7.987-11.096-18.853-27.786-18.853-28.959 0-0.40175-2.6516-4.9821-5.8924-10.179-3.2408-5.1964-8.2368-14.111-11.102-19.81-2.8654-5.6992-6.1758-11.937-7.3564-13.862s-3.353-6.875-4.8273-11-4.4611-11.551-6.6371-16.501c-2.176-4.9508-5.1607-12.601-6.6326-17-1.4719-4.3992-3.0925-8.8986-3.6014-9.9986s-1.599-4.6553-2.4225-7.9006c-0.82345-3.2454-2.3486-8.1954-3.3893-11s-2.6547-8.9244-3.5868-13.599c-0.93205-4.675-2.0988-10.3-2.5928-12.5-4.1925-18.671-6.9571-32.331-7.9944-39.5-0.67634-4.675-1.6424-9.023-2.1468-9.6621-1.0021-1.2699-10.626-3.8635-11.413-3.076-0.26797 0.26798 0.476 5.8312 1.6533 12.363 1.1773 6.5315 2.2938 13 2.4812 14.375s1.027 4.975 1.8658 8 2.4872 10 3.6632 15.5c8.0594 37.694 24.822 82.427 45.613 121.72 4.5754 8.6482 8.319 16.116 8.319 16.595 0 0.4791 0.88851 1.6752 1.9745 2.658s2.2686 2.7137 2.6282 3.8465c0.68888 2.1704 7.8864 12.428 15.21 21.677 6.3406 8.0073 6.5353 8.2652 8.3051 11 6.0814 9.3983 42.355 40.69 53.883 46.482 1.925 0.96727 4.2182 2.3865 5.0961 3.1538 1.3757 1.2025 10.653 6.1608 11.809 6.3111 0.22274 0.02896-0.36092-0.79366-1.297-1.828zm104.82-0.36929c-1.0347-1.2375-2.3596-2.7-2.9442-3.25-1.7993-1.6927-7.0572-10.751-10.182-17.543-7.1049-15.44-15.374-34.733-15.772-36.798-0.2375-1.2332-1.305-4.1361-2.3722-6.4508-4.821-10.457-9.5081-25.081-16.252-50.708-1.6645-6.325-3.9143-14.875-4.9996-19-1.7399-6.613-5.5033-22.208-9.4115-39-4.2654-18.326-8.4238-40.289-9.9406-52.5-0.34158-2.75-1.4931-10.4-2.559-17-2.3762-14.714-4.6196-33.752-6.0098-51-0.57627-7.15-1.2479-14.35-1.4925-16-2.3089-15.576-5.4507-82.131-5.4905-116.31-0.0024-2.0579-0.4125-2.2764-3.7527-2l-3.75 0.31037v26c0 23.858 2.459 79.061 3.8331 86.049 0.31906 1.6228 0.83419 7.0006 1.1447 11.951 0.31054 4.95 0.75815 10.125 0.99469 11.5s0.69087 5.875 1.0096 10c0.72274 9.3527 3.0596 29.322 4.9736 42.5 0.7988 5.5 2.1032 14.5 2.8988 20 0.79553 5.5 2.1292 13.15 2.9638 17s2.2695 11.024 3.1889 15.942c1.4028 7.504 5.6551 25.006 9.611 39.558 0.52331 1.925 1.1112 4.4 1.3064 5.5 0.19524 1.1 1.123 4.7 2.0618 8 0.93872 3.3 2.0902 7.575 2.5589 9.5 1.2906 5.3009 3.4869 12.774 5.8777 20 1.1829 3.575 2.3954 8.075 2.6945 10 0.57496 3.7001 6.8812 23.325 8.4138 26.184 0.49646 0.92598 1.8534 4.526 3.0153 8 1.162 3.474 4.0466 10.366 6.4102 15.316s5.6508 11.925 7.3049 15.5c2.7638 5.9735 14.246 22.6 16.693 24.172 0.57495 0.36934 2.5889 2.0568 4.4755 3.75 3.9868 3.5781 6.2446 4.1127 3.4986 0.82847zm-47.429-0.52421c0-0.97582-2.0748-5.3633-4.6107-9.75-4.7902-8.2863-19.389-36.929-19.389-38.041 0-0.34912-1.8-4.4234-4-9.054s-4-8.8629-4-9.4052c0-0.54224-1.727-5.146-3.8377-10.231s-4.1489-10.595-4.5292-12.245c-0.38029-1.65-2.4271-8.625-4.5486-15.5-5.2474-17.006-8.5992-29.255-11.903-43.5-2.7008-11.644-2.8668-12.01-5.6041-12.328-4.5121-0.52493-4.8746 0.82625-2.5302 9.4306 1.1835 4.3437 2.5238 9.4726 2.9784 11.398 0.45463 1.925 1.7222 6.65 2.8169 10.5s3.6202 12.85 5.6124 20c1.9921 7.15 4.7778 16.15 6.1904 20s3.4334 9.6697 4.4907 12.933c1.0573 3.2629 2.2654 6.4129 2.6847 7 0.41928 0.58707 1.3712 2.8674 2.1153 5.0674 0.74412 2.2 3.9285 9.4 7.0765 16 3.1479 6.6 7.1948 15.119 8.993 18.931 5.0947 10.8 9.9099 18.562 15.397 24.819 5.3378 6.0868 6.5975 6.846 6.5975 3.9758zm13 0.96277c0-0.44629-0.84495-1.7184-1.8777-2.8269-1.0327-1.1085-2.1556-2.8808-2.4952-3.9386-0.33963-1.0577-1.9686-3.4981-3.62-5.4231s-3.0035-3.885-3.0048-4.3556c-0.00129-0.47061-1.1128-2.1754-2.47-3.7883-1.3572-1.613-4.7646-7.5208-7.5719-13.129-2.8073-5.6077-5.4506-10.653-5.874-11.212-0.42338-0.55869-1.553-3.0408-2.5102-5.5158s-2.3257-5.85-3.041-7.5-1.8562-4.575-2.5351-6.5-1.8051-4.85-2.5026-6.5c-3.7429-8.8547-8.577-21.88-9.3543-25.205-0.48795-2.0872-2.9736-11.22-5.5237-20.295-4.6604-16.585-5.9051-21.119-7.8246-28.5-0.5721-2.2-1.6013-6.025-2.287-8.5-1.2509-4.5145-2.5935-10.468-4.5669-20.25-0.58251-2.8875-1.7075-7.3354-2.5-9.8842s-1.4409-5.8258-1.4409-7.2821-0.60438-4.096-1.3431-5.8658c-0.73868-1.7698-1.856-6.1429-2.483-9.7179-3.1638-18.04-5.5053-32.863-5.6867-36-0.11132-1.925-0.70079-5.3-1.3099-7.5s-1.3564-6.7-1.6606-10c-0.30416-3.3-0.79202-7.472-1.0841-9.2711-1.2738-7.8454-3.4159-28.128-3.4239-32.42-0.00478-2.58-0.46034-4.9701-1.0124-5.3113-0.55202-0.34116-0.737-1.6828-0.41108-2.9814 0.32593-1.2986-0.09626-9.0335-0.93818-17.189-1.3139-12.727-2.3869-26.575-3.1248-40.328-0.10328-1.925-0.60055-10.925-1.105-20-0.50449-9.075-0.91726-23.138-0.91726-31.251 0-13.424-0.15856-14.751-1.7633-14.75-1.6428 5.2e-4 -1.7314 1.4191-1.2962 20.751 0.25692 11.412 0.53734 26.045 0.62315 32.516 0.08582 6.4711 0.51502 13.446 0.95379 15.5 0.43877 2.0538 1.0353 11.943 1.3257 21.975 0.29038 10.033 0.75786 18.613 1.0388 19.068 0.28098 0.45463 1.2366 7.5461 2.1236 15.759 0.88703 8.2127 1.8213 16.282 2.0761 17.932 0.25484 1.65 1.1131 9.3 1.9073 17 1.6971 16.454 4.3028 34.981 6.4695 46 0.54078 2.75 1.925 10.625 3.076 17.5s2.5783 14.3 3.1717 16.5 1.6529 6.7 2.3545 10c3.1209 14.68 4.6734 20.96 6.974 28.208 1.354 4.2662 2.7124 9.3396 3.0186 11.274 0.61907 3.9113 4.2813 18.402 5.438 21.517 0.40843 1.1 1.651 5.15 2.7613 9 6.2642 21.722 12.894 42.219 14.232 44 0.4131 0.55 1.5537 3.475 2.5347 6.5 1.9629 6.0531 15.394 33.302 16.677 33.833 0.44224 0.18334 0.80407 0.87306 0.80407 1.5327 0 3.1021 7.9099 15.545 13.518 21.264 6.0703 6.191 7.4823 7.2399 7.4823 5.5583zm6.9509-7.171c-2.723-4.3904-4.9509-8.2468-4.9509-8.5698 0-0.32305-1.2751-2.4684-2.8336-4.7675s-4.3236-7.3302-6.1447-11.18c-1.8211-3.85-3.6892-7.675-4.1514-8.5s-1.4573-2.85-2.2112-4.5-2.7473-5.925-4.4298-9.5c-8.4972-18.056-18.661-49.158-26.142-80-1.0006-4.125-3.2178-12.45-4.9271-18.5-3.7248-13.184-8.4837-32.991-10.572-44-5.4444-28.707-6.5547-34.735-7.552-41-0.61285-3.85-1.5251-9.475-2.0271-12.5-1.1377-6.8548-2.4048-16.499-4.5327-34.5-0.9102-7.7-2.2797-15.457-3.0433-17.237-0.78894-1.8394-1.1284-4.5368-0.7863-6.2475 0.3427-1.7135 0.10265-3.6124-0.55721-4.4074-0.72559-0.87429-1.2895-6.9546-1.5074-16.252-0.19146-8.1706-0.85583-25.656-1.4764-38.856s-1.3538-32.308-1.6294-42.462c-0.27561-10.154-0.94558-18.907-1.4888-19.45-2.0912-2.0912-3.104 1.339-3.1063 10.52-0.00374 14.798 1.8286 67.079 2.6599 75.892 0.18157 1.925 0.82357 8.675 1.4267 15s0.81295 13.651 0.46635 16.28c-0.35188 2.6688-0.19633 5.3185 0.35225 6 1.3213 1.6414 2.034 5.4017 3.1987 16.875 0.53903 5.3102 1.2382 12.06 1.5538 15 1.1033 10.278 3.5808 28.415 5.0241 36.779 0.80047 4.639 2.156 13.189 3.0123 19 1.8871 12.806 5.9301 31.278 11.396 52.066 2.2415 8.525 5.6765 22.235 7.6333 30.468 1.9568 8.2321 3.9112 15.657 4.3432 16.5 0.43192 0.84285 1.9668 6.3016 3.4109 12.131 3.804 15.355 6.5708 23.708 13.879 41.902 0.55233 1.375 2.0059 4.525 3.2302 7s2.556 5.8475 2.9594 7.4944 1.1972 3.5532 1.7641 4.2362c0.56684 0.68301 3.2304 5.8605 5.919 11.506 2.6886 5.6451 5.7292 11.403 6.7568 12.794 1.0276 1.3919 2.7911 4.3169 3.9189 6.5 2.0978 4.0607 13.55 16.469 15.2 16.469 0.50332 0-1.3128-3.5921-4.0358-7.9824zm440.72 4.4602c21.045-6.0986 40.126-18.321 60.854-38.978 11.36-11.322 30.108-35.169 38.22-48.617 7.9717-13.215 17.846-31.081 21.49-38.883 2.1834-4.675 6.7924-14.35 10.242-21.5s7.7462-16.6 9.5477-21 3.7588-8.6184 4.3497-9.3742c0.59082-0.75583 2.0545-5.2558 3.2526-10s3.5195-13.576 5.1587-19.626c1.6391-6.05 3.2828-13.025 3.6527-15.5 0.36985-2.475 1.0528-5.4 1.5178-6.5 0.46492-1.1 1.3892-5.375 2.0538-9.5 0.66468-4.125 1.833-9.9828 2.5962-13.017 0.76322-3.0345 1.803-8.6595 2.3105-12.5 0.50756-3.8405 1.6113-11.708 2.4528-17.483 1.7259-11.845 2.3278-17.064 3.2735-28.384 0.54401-6.5118 0.41524-7.8029-0.73982-7.4179-1.6549 0.55165-3.0198 6.104-3.4292 13.95-0.16208 3.1065-0.99956 8.7315-1.8611 12.5-0.8615 3.7685-1.6899 7.7195-1.8409 8.78-0.37288 2.6187-5.8345 4.1442-7.3848 2.0626-1.5286-2.0524-3.1357-1.8666-3.8702 0.44752-0.69399 2.1866-6.3748 4.4383-8.8251 3.498-1.1776-0.45189-1.7936 0.14586-2.2907 2.2228-0.37395 1.5625-1.5452 6.2159-2.6028 10.341-1.0576 4.125-3.6667 14.925-5.7981 24-5.3375 22.727-9.4762 38.393-12.02 45.5-1.1811 3.3-2.7427 8.025-3.47 10.5-1.5509 5.2771-8.0925 22.71-12.008 32-1.5068 3.575-3.406 8.3-4.2205 10.5-0.81453 2.2-2.7676 6.925-4.3401 10.5-3.4694 7.8872-9.9442 24.471-9.9442 25.47 0 0.39691-0.89772 1.9824-1.9949 3.5233-1.0972 1.5409-5.1913 9.0354-9.0979 16.654-13.751 26.819-19.651 35.353-24.439 35.353-2.1261 0-1.2844-2.7777 3.1275-10.322 1.8726-3.2019 3.4047-6.2257 3.4047-6.7196 0-0.49386 0.82469-2.3741 1.8326-4.1783s4.6357-10.016 8.0617-18.249c5.7903-13.914 6.1056-15.059 4.4762-16.25-0.96407-0.70495-2.4007-1.2817-3.1926-1.2817-1.0869 0-1.3005-0.85769-0.87174-3.5 0.95909-5.9102-0.11759-3.9182-2.8377 5.25-1.4278 4.8125-3.4196 10.55-4.4261 12.75-3.342 7.3047-8.0588 19.976-8.0506 21.628 0.00445 0.89515-0.66691 2.1878-1.4919 2.8724s-1.5 1.7609-1.5 2.3915c0 1.979-8.7575 18.997-11.017 21.409-1.773 1.8927-2.4222 2.0794-3.6594 1.0526-1.2529-1.0398-1.2784-1.4239-0.15278-2.3008 1.8672-1.4546 13.32-30.245 16.331-41.053 0.91931-3.3 2.9826-9.6326 4.585-14.072 3.2811-9.0911 3.4821-10.428 1.5685-10.428-2.4614 0-4.4851 3.4287-6.0731 10.29-0.86431 3.7343-2.198 8.0093-2.9637 9.5s-3.0533 7.6604-5.0834 13.71c-3.4626 10.319-14.594 34.561-17.907 39-0.98624 1.3212-1.8218 1.6606-2.4617 1-0.62844-0.64876 0.06304-4.1612 1.9687-10 1.6156-4.95 4.0342-12.825 5.3747-17.5 9.3093-32.465 9.705-34.192 7.7469-33.799-0.92912 0.18624-2.4158 3.5062-3.94 8.7991-1.3464 4.675-4.0272 13.225-5.9574 19s-3.8881 11.85-4.3508 13.5c-1.4013 4.9968-9.1281 21.951-10.349 22.708-2.4415 1.5142-2.4598-1.0492-0.0682-9.5384 1.3682-4.8566 3.363-12.957 4.4329-18 1.0699-5.0434 3.003-13.746 4.2959-19.339 1.604-6.939 2.0504-10.706 1.4053-11.858-0.63576-1.136-0.25821-5.1738 1.153-12.331 2.4708-12.531 3.7305-27.142 2.3402-27.142-0.52497 0-1.2425 1.9125-1.5945 4.25-2.0761 13.786-3.8133 27.562-3.7298 29.575 0.05306 1.2788-0.35939 3.1769-0.91657 4.218s-1.8799 5.8448-2.9394 10.675c-4.2856 19.537-5.0845 22.865-5.9495 24.782-0.49643 1.1-1.4387 4.25-2.094 7-1.7593 7.3835-9.8483 30.112-13.136 36.91-1.572 3.2504-2.8582 6.6478-2.8582 7.55 0 0.90216-0.41498 2.0678-0.92218 2.5903-1.0912 1.1241-2.5687 8.45-1.7042 8.45 0.3279 0 4.5128-1.135 9.2998-2.5222zm-476.28-5.9436c-5.2786-10.092-23.193-45.977-24.794-49.666-7.7558-17.871-12.773-31.939-18.856-52.868-2.693-9.2659-2.76-9.5196-9.2175-34.869-2.4335-9.5527-4.6632-17.607-4.9549-17.899-0.29174-0.29174-1.4912-1.0259-2.6654-1.6315-1.2028-0.62029-2.7807-3.0659-3.614-5.601-1.4175-4.3128-3.3269-7.5128-3.2519-5.45 0.01899 0.5225 1.1088 4.775 2.4219 9.45s4.0293 14.8 6.0361 22.5 4.5144 16.93 5.5725 20.51c1.058 3.5807 2.5374 8.7557 3.2876 11.5 0.75011 2.7443 2.3532 8.5896 3.5624 12.99 2.0716 7.538 11.939 33.958 14.095 37.736 0.54472 0.95504 0.9904 2.2464 0.9904 2.8698 0 1.7766 9.6186 21.763 19.199 39.894 3.5502 6.7185 13.358 17.776 14.634 16.5 0.24385-0.24385-0.85643-2.9284-2.4451-5.9656zm516.32 1.3901c14.486-5.363 31.024-13.936 41.928-21.733 3.6075-2.5799 7.5186-5.3658 8.6914-6.1908 7.0385-4.9514 14.532-13.33 31.303-35 5.8265-7.5286 20.373-29.483 20.373-30.748 0-0.47186 1.3226-2.6564 2.9391-4.8544 3.5395-4.813 20.163-37.309 27.001-52.782 5.0199-11.359 5.9189-13.642 11.071-28.116 0.39151-1.1 1.4358-3.6747 2.3207-5.7215 1.5344-3.5494 3.2132-9.5109 9.6526-34.278 1.573-6.05 4.0798-18.2 5.5708-27s3.0857-18.025 3.5438-20.5c1.3031-7.0396 5.0007-32.703 5.9074-41 0.45074-4.125 1.3249-11.229 1.9425-15.787 1.1609-8.5669 0.92357-10.213-1.4726-10.213-2.9523 0-3.9941 5.5363-6.492 34.5-0.47433 5.5-1.806 14.5-2.9592 20s-2.3072 13.123-2.5643 16.94c-0.25717 3.8168-1.3272 9.6668-2.3778 13s-2.6938 10.785-3.6515 16.56-3.2465 14.958-5.0863 20.406-3.3598 10.848-3.3777 12c-0.03554 2.2795-3.2739 12.234-4.3203 13.28-0.35585 0.35586-0.64701 1.2327-0.64701 1.9486 0 2.3527-10.106 27.659-15.122 37.865-2.7028 5.5-4.9061 10.53-4.8961 11.178s-1.4932 3.7981-3.3404 7c-7.7119 13.368-12.642 22.661-12.642 23.83 0 0.6857-0.65757 1.7925-1.4613 2.4595s-1.767 2.1846-2.1406 3.3724c-0.37364 1.1878-2.4161 4.7225-4.5387 7.8548-2.1227 3.1323-3.8594 6.0158-3.8594 6.4076s-1.7258 3.0041-3.8352 5.8049c-5.9923 7.9566-13.165 18.601-13.165 19.538 0 1.3781-8.0061 10.737-14.872 17.385-3.5047 3.3934-8.53 8.2716-11.167 10.84-2.6373 2.5688-5.8448 5.2237-7.1278 5.8998-1.283 0.67609-5.4828 3.2941-9.3328 5.8177s-8.575 5.3717-10.5 6.3289-4.175 2.194-5 2.7484c-0.825 0.55443-6.9 3.4902-13.5 6.5239s-13.8 6.3868-16 7.4513c-7.5916 3.6733-0.47189 2.047 13.205-3.0162zm-588.7-1.0628c-24.312-21.394-40.876-38.638-49.218-51.236-2.5949-3.919-6.7346-9.6426-9.1995-12.719s-6.1615-8.4764-8.2148-12-4.3054-7.0941-5.0046-7.9345c-1.1187-1.3445-5.7876-9.4266-10.671-18.472-2.5712-4.7625-13.021-27.103-17.541-37.5-9.3275-21.457-19.447-51.631-23.141-69-1.2281-5.775-2.9048-13.2-3.726-16.5-0.82124-3.3-2.1194-9.15-2.8849-13-0.76543-3.85-2.0473-9.925-2.8485-13.5-3.442-15.358-7.0538-36.833-10.007-59.5-0.78822-6.05-1.923-14.15-2.5216-18-3.1981-20.567-5.1924-49.744-6.5957-96.5-0.96249-32.069-0.73984-30.947-6.1516-30.985-1.8667-0.01284-2.1562 0.42758-1.798 2.7347 0.38488 2.4786 1.5485 34.341 1.9995 54.75 0.22211 10.052 1.4201 27.413 2.6567 38.5 0.52141 4.675 1.3431 14.575 1.8259 22 0.98421 15.134 1.6411 21.208 3.0822 28.5 0.54352 2.75 2.1563 11.975 3.5839 20.5 2.8001 16.721 5.9238 34.085 7.2856 40.5 0.46703 2.2 1.6214 8.275 2.5652 13.5s1.8857 9.7749 2.0931 10.111c0.20737 0.33598 1.028 4.161 1.8236 8.5 2.2948 12.515 7.7004 32.089 13.916 50.389 3.7551 11.056 12.04 31.472 13.545 33.378 0.48735 0.61724 1.4526 2.9222 2.145 5.1222 4.1374 13.146 28.286 56.649 36.546 65.838 0.57456 0.63915 3.9015 4.9871 7.3932 9.6621s8.6466 10.955 11.455 13.955c14.613 15.609 17.699 18.672 24.546 24.362 12.478 10.37 33.089 23.369 23.06 14.544zm-20-5.3024c0-0.24254-0.45-0.7191-1-1.059s-1-0.14148-1 0.44098 0.45 1.059 1 1.059 1-0.19844 1-0.44098zm-4.7003-3.9248c-0.43983-0.75117-6.0465-6.9387-12.459-13.75-6.4128-6.8113-14.331-15.984-17.596-20.384-3.2651-4.4-6.7252-8.6544-7.689-9.4543-0.96383-0.79986-3.8132-4.6249-6.332-8.5s-6.2994-9.3366-8.4014-12.137-3.8219-5.3951-3.8219-5.767-1.964-3.931-4.3644-7.9091c-6.6362-10.998-22.141-42.152-26.99-54.233-3.5104-8.7448-10.525-28.342-11.65-32.545-0.65533-2.45-2.0067-6.2546-3.003-8.4546s-2.1274-5.8-2.5136-8-1.3344-6.025-2.1071-8.5-2.4859-9.675-3.8072-16c-1.3212-6.325-3.7563-17.575-5.4113-25-2.8188-12.646-9.3575-47.582-10.575-56.5-0.30029-2.2-0.98448-7.15-1.5204-11-3.1781-22.83-5.3432-39.505-5.583-43-0.15097-2.2-0.60901-9.85-1.0178-17s-0.8591-15.025-1.0006-17.5c-0.90463-15.825-1.5473-33.275-1.914-51.965-0.46117-23.511-0.25278-22.792-6.6573-22.964-2.3527-0.06326-2.6754 0.37726-3.2276 4.4062-0.33746 2.4621-0.43218 5.0496-0.21047 5.75 0.2217 0.70044 0.70952 11.849 1.084 24.774 0.37452 12.925 0.83065 26.65 1.0136 30.5 0.77923 16.396 1.3695 27.62 1.9456 37 0.33784 5.5 0.77247 13.825 0.96585 18.5 0.36612 8.851 1.1046 14.744 4.5738 36.5 1.1401 7.15 2.4313 15.7 2.8692 19 0.43794 3.3 1.3146 7.2668 1.9482 8.8151 0.63355 1.5483 1.1519 4.4462 1.1519 6.4398s0.45188 6.1268 1.0042 9.1849c6.4045 35.462 8.0398 43.62 10.536 52.56 3.5581 12.743 10.731 36.027 11.971 38.857 1.1284 2.5759 9.473 22.56 16.136 38.643 2.7514 6.6411 15.538 30.955 18.488 35.154 1.0255 1.4599 1.8645 2.9314 1.8645 3.2699 0 0.33853 1.1184 2.3871 2.4852 4.5524 1.3669 2.1653 2.2691 4.5188 2.0049 5.2301-0.26419 0.7113 1.3999 3.3183 3.698 5.7933s5.3126 5.7453 6.6989 7.2674 2.5414 3.9971 2.5668 5.5c0.03476 2.0549 0.6042 2.8118 2.2962 3.0521 1.2375 0.17575 2.25 0.68313 2.25 1.1275 0 1.2735 19.734 24.767 23.442 27.908 1.0681 0.90475 3.1324 2.77 4.5873 4.145s5.2752 4.75 8.4895 7.5c10.918 9.3413 15.794 12.573 13.781 9.1342zm72.259-14.541c-1.4074-2.2294-2.5589-4.3758-2.5589-4.7696 0-0.39383-2.7-6.2366-6-12.984-3.3-6.7473-6-12.721-6-13.275 0-0.5541-1.1748-3.6078-2.6106-6.786-3.4563-7.6503-7.7283-20.065-11.967-34.779-6.7676-23.49-7.484-26.076-9.0046-32.5-0.84617-3.575-1.9538-7.4-2.4613-8.5-0.50756-1.1-1.1751-3.575-1.4834-5.5-1.4757-9.214-4.4116-18.842-6.7271-22.061-1.6446-2.286-4.0045-11.113-5.1975-19.439-0.2364-1.65-1.1255-5.025-1.9758-7.5l-1.546-4.5 0.61119 6c1.4076 13.818 4.4556 30.866 7.2413 40.5 0.55659 1.925 1.83 6.425 2.8299 10s2.0974 6.95 2.4392 7.5c0.34171 0.55 0.95555 3.0179 1.3641 5.4842s2.7222 10.341 5.1415 17.5c4.8488 14.348 6.227 18.776 7.0069 22.516 0.28677 1.375 1.3633 4.75 2.3923 7.5 6.3439 16.954 9.2216 24.113 10.03 24.95 0.50455 0.5225 0.91737 1.7049 0.91737 2.6276 0 0.92265 0.62077 2.1927 1.3795 2.8224 0.75871 0.62968 1.6327 2.3723 1.9421 3.8724 0.30945 1.5002 2.1637 5.3696 4.1205 8.5987s3.5579 6.4541 3.5579 7.1667 0.3637 1.4455 0.80821 1.6288c0.44452 0.18333 2.3274 2.5598 4.1841 5.2811 3.9532 5.7939 5.3285 4.6048 1.5666-1.3545zm561.98-2.1598c1.0763-1.7414-0.14952-2.1102-1.5211-0.45764-0.78875 0.95039-0.86462 1.5242-0.20152 1.5242 0.58488 0 1.36-0.47994 1.7226-1.0665zm14.572-3.5695c0.74677-0.8998 2.9394-2.7021 4.8724-4.005 7.4261-5.0054 12.052-9.0274 15.495-13.471 1.9652-2.5368 5.4133-6.5868 7.6625-9s5.1679-6.0752 6.486-8.1376 2.8409-3.75 3.384-3.75c0.54311 0 0.99945-0.5625 1.0141-1.25s2.0396-3.9159 4.5-7.1743c2.4603-3.2583 4.4734-6.3546 4.4734-6.8806s1.575-3.1486 3.5-5.828c1.925-2.6795 3.5-5.0819 3.5-5.3388 0-0.25685 2.199-4.1933 4.8868-8.7477 4.3921-7.4425 23.113-44.988 23.113-46.354 0-0.30534 1.125-3.0147 2.5-6.0207 1.375-3.0061 2.5-5.7425 2.5-6.081 0-0.33849 1.5371-3.8127 3.4159-7.7204 4.0322-8.3869 11.08-29.48 12.717-38.058 0.6346-3.3259 1.4893-6.4972 1.8994-7.0472s1.7062-5.05 2.8804-10 2.7786-11.475 3.5654-14.5 1.6497-7.3 1.9175-9.5c0.26777-2.2 0.99582-6.7 1.6179-10 1.3119-6.9592 2.5498-15.521 3.976-27.5 0.55662-4.675 1.2234-9.0648 1.4818-9.755 0.47845-1.2782 2.817-20.162 4.0407-32.628 0.64509-6.5718 0.05197-8.5328-2.6016-8.6017-1.2792-0.03322-4.8048 32.207-4.8099 43.985-3.6e-4 0.825-0.67587 4.1664-1.5011 7.4254s-1.259 6.3162-0.96381 6.7938c0.29517 0.4776 0.08849 1.4112-0.45929 2.0746-0.54778 0.66341-1.6993 6.2755-2.559 12.471-0.85968 6.1958-1.9808 12.046-2.4914 13-0.5106 0.95416-1.2475 3.9848-1.6376 6.7348-0.39007 2.75-1.7845 9.2118-3.0987 14.359-1.3142 5.1477-2.3923 10.323-2.3956 11.5-0.00339 1.1773-0.66229 3.3984-1.4642 4.9359-0.80193 1.5374-1.9394 5.5874-2.5277 9-0.58832 3.4126-1.4922 7.1047-2.0087 8.2047-1.3696 2.9171-3.9184 10.275-5.5068 15.899-0.7611 2.6943-1.8569 5.3718-2.4351 5.95s-1.0513 2.0912-1.0513 3.3622-0.87133 4.2185-1.9363 6.55c-1.065 2.3315-2.6309 5.8141-3.4799 7.7391-0.84898 1.925-1.9806 4.175-2.5148 5-0.53415 0.825-3.7394 7.35-7.1227 14.5-9.5124 20.103-10.473 22.019-12.591 25.111-1.0882 1.589-3.7228 6.2642-5.8547 10.389-5.7097 11.048-5.8675 11.325-7.6778 13.5-0.91576 1.1-4.7091 6.5-8.4296 12s-8.4433 12.475-10.495 15.5c-3.8319 5.6497-27.94 30-29.702 30-0.54072 0-1.2422 0.675-1.5587 1.5-0.77931 2.0308 1.7586 1.9315 3.4745-0.13601zm17.218-28.364c5.529-7.2596 17.6-25.043 20.361-29.995 1.2052-2.1621 4.0177-6.4035 6.25-9.4252 2.2323-3.0218 4.0587-6.0997 4.0587-6.8398 0-0.74013 1.2583-3.1218 2.7962-5.2927s3.8392-6.422 5.114-9.447 2.7641-6.3577 3.3097-7.406c0.54554-1.0483 2.5825-5.0983 4.5266-9s4.2833-8.219 5.1982-9.594c1.766-2.6542 3.3244-6.2252 7.637-17.5 1.4726-3.85 3.4732-8.8 4.4457-11 6.6198-14.975 17.812-55.952 21.442-78.5 0.75254-4.675 2.1256-12.55 3.0513-17.5 0.92567-4.95 1.855-10.985 2.0652-13.412s0.59781-5.1264 0.86145-6c0.26365-0.87359 0.97048-6.5383 1.5707-12.588 1.6326-16.455 2.0314-19.849 2.5313-21.545 0.25047-0.84971 0.65957-6.0247 0.90911-11.5 0.3864-8.4781 0.16974-10.474-1.4604-13.455l-1.9141-3.5-0.19945 3.5c-0.1097 1.925-0.16292 4.1563-0.11829 4.9584 0.04464 0.80214-0.30073 2.172-0.76749 3.0442s-1.1264 5.6134-1.466 10.536c-0.33953 4.9228-0.85263 9.888-1.1402 11.034-0.2876 1.1459-1.1494 7.6733-1.9151 14.505-0.76572 6.832-1.8626 15.347-2.4376 18.922-0.57494 3.575-1.2848 9.425-1.5776 13s-0.81271 8.075-1.1555 10-0.52607 4.4648-0.40727 5.6441c0.1188 1.1792-0.53658 3.8792-1.4564 6-0.91983 2.1208-2.2546 6.5559-2.9661 9.8559-7.3757 34.209-11.384 49.241-17.11 64.171-1.3017 3.3938-2.3667 6.7623-2.3667 7.4856 0 1.3348-0.79444 3.0957-9.8896 21.921-2.8107 5.8177-5.1104 11.24-5.1104 12.05s-0.40693 1.8998-0.90428 2.4224c-1.6003 1.6812-7.6282 13.815-9.0485 18.214-0.75723 2.3454-1.9776 4.763-2.712 5.3724s-1.3352 1.5801-1.3352 2.1569c0 0.57685-0.59057 1.7592-1.3124 2.6276-0.72181 0.86831-2.147 3.6037-3.167 6.0787s-3.0302 6.075-4.4669 8c-1.4368 1.925-3.3367 4.6456-4.2222 6.0457-0.88543 1.4001-3.7972 5.2748-6.4707 8.6104-2.6734 3.3356-5.9858 7.5562-7.3608 9.379s-4.3065 5.5982-6.5144 8.3896-4.6275 6.2774-5.3769 7.7466c-0.74936 1.4692-2.9722 3.9442-4.9396 5.5s-4.4978 3.9293-5.6231 5.2745-3.0585 3.5032-4.296 4.7954c-1.2375 1.2923-2.25 2.8292-2.25 3.4152 0 1.5641 22.433-20.726 27.33-27.157zm-107.33 10c0-0.55-0.19844-1-0.44098-1s-0.7191 0.45-1.059 1-0.14148 1 0.44098 1 1.059-0.45 1.059-1zm-8.1591-8.7873c0.5084-2.2628 0.68419-4.3543 0.39062-4.6478-1.242-1.2421-3.168 3.2762-3.1693 7.4352-0.00161 5.1948 1.2723 3.917 2.7787-2.7873zm12.144-3.9627c0.00842-1.2375-0.38591-2.25-0.87628-2.25-1.1742 0-2.3538 4.7939-1.514 6.1528 0.88765 1.4363 2.3704-0.98474 2.3903-3.9028zm-9.4429-8.7995c0.68451-2.7228 1.5694-7.4255 1.9665-10.45 0.39708-3.025 1.0888-6.1994 1.5373-7.0543s1.0589-3.3298 1.3567-5.5c0.29778-2.1702 1.0038-6.1957 1.5688-8.9457 1.0068-4.8999 1.8725-10.46 3.9705-25.5 1.2624-9.0503 3.7846-23.521 6.0135-34.5 1.2204-6.0117 1.8519-10.248 1.9627-13.164 0.08085-2.1281 6.5906-5.7907 21.082-11.862 2.475-1.0368 6.067-2.9177 7.9821-4.1796 1.9152-1.2619 3.8818-2.2944 4.3703-2.2944 2.6994 0 21.687-13.986 22.827-16.814 0.37385-0.92716 0.71135-4.7232 0.75-8.4357 0.05586-5.3646-0.23758-6.75-1.4297-6.75-0.825 0-1.5 0.45-1.5 1s0.5051 1 1.1224 1c0.77551 0 0.73766 0.46364-0.12244 1.5-0.7005 0.84405-2.8804 1.5-4.9849 1.5-3.451 0-14.229 3.8305-20.764 7.3798-1.5131 0.82171-7.2233 3.559-12.689 6.083-12.851 5.9337-13.096 5.756-11.032-7.9834 0.82463-5.4886 1.7174-13.804 1.984-18.479 0.26659-4.675 0.71866-10.525 1.0046-13s0.71593-8.325 0.95553-13c0.62106-12.118 1.4867-24.011 2.5622-35.201 0.51281-5.3354 0.91958-16.484 0.90395-24.774-0.01564-8.2901 0.2069-15.454 0.49453-15.919 0.28763-0.4654 0.77993-15.867 1.094-34.226 0.87787-51.317 0.98047-49.811-3.3007-48.452-2.562 0.81315-3.1006 8.3575-3.2536 45.572-0.06217 15.125-0.2432 29.75-0.40227 32.5-0.15908 2.75-0.62249 16.925-1.0298 31.5s-0.96482 26.866-1.2389 27.313c-0.27409 0.44693-0.88085 9.4469-1.3484 20-0.7485 16.896-2.822 42.401-4.4052 54.187-0.29552 2.2-0.78742 7.375-1.0931 11.5s-1.3894 12.9-2.4082 19.5-2.132 14.7-2.4736 18c-1.3178 12.727-1.598 15.11-2.1752 18.5-0.32779 1.925-0.754 4.625-0.94715 6-0.19314 1.375-1.0703 6.325-1.9492 11s-2.0434 11.425-2.5878 15c-0.54437 3.575-1.648 10.159-2.4524 14.632-0.80444 4.4725-1.4737 9.4225-1.4872 11-0.01352 1.5775-0.91352 5.5256-2 8.7734-2.2543 6.739-2.4702 8.9264-0.8268 8.3786 0.63174-0.21058 1.7087-2.6106 2.3932-5.3333zm10.836 2.7855c0.78614-1.5202 1.9249-7.2577 2.5307-12.75 0.60571-5.4923 1.7255-13.586 2.4883-17.986 0.76286-4.4 1.0213-8.3918 0.57439-8.8706-0.44695-0.47885-1.1041 1.0962-1.4603 3.5-1.6652 11.237-3.2973 19.888-4.5976 24.371-1.3302 4.5848-2.3775 14.5-1.5317 14.5 0.31178 0 1.2101-1.2438 1.9962-2.7641zm14.622-19.795c0-0.85746-0.45-1.2809-1-0.94098s-1 1.0415-1 1.559 0.45 0.94098 1 0.94098 1-0.70156 1-1.559zm-0.31689-4.6285c-0.31922-0.79773-0.55618-0.56078-0.60416 0.60417-0.04342 1.0542 0.19293 1.6448 0.52522 1.3125s0.36781-1.1948 0.07894-1.9167zm2.6482-11.562c0.35547-1.8674 0.20387-3.25-0.35636-3.25-0.53625 0-0.975 1.65-0.975 3.6667 0 4.2858 0.46388 4.1406 1.3314-0.41667zm32.669-5.9167c0-2.9316-0.17797-2.8926-1.8997 0.41667-0.97013 1.8646-0.90769 2.25 0.36455 2.25 0.99645 0 1.5352-0.9358 1.5352-2.6667zm31.614-6.995c3.7138-8.3975 7.6193-20.139 7.1586-21.521-0.65304-1.9591-6.5297 11.356-8.6866 19.682-0.42745 1.65-1.102 4.0125-1.499 5.25-1.4063 4.3839 0.55896 2.1688 3.0269-3.4116zm-73.614 0.16164c0-0.825-0.45-1.5-1-1.5s-1 0.675-1 1.5 0.45 1.5 1 1.5 1-0.675 1-1.5zm64.274-6.8217c1.2612-3.7835 0.24717-4.4555-3.0403-2.015-2.9867 2.2173-5.4175 6.2301-4.5875 7.5731 0.93205 1.5081 6.6648-2.6692 7.6277-5.5582zm-626.78-7.9283c-1.5162-7.4476-2.6357-10.75-3.6442-10.75-1.211 0-0.60488 3.2268 1.8314 9.75 1.8883 5.056 2.7335 5.5222 1.8128 1zm8.4971-9.7431c-0.66464-3.0288-1.5848-6.6319-2.0448-8.0069s-1.755-6.55-2.8778-11.5-3.4533-15.075-5.1789-22.5-3.6449-16.554-4.2652-20.286c-1.024-6.1622-2.4473-8.6524-4.9716-8.6982-1.1785-0.02138 0.26298 10.052 1.7866 12.485 0.68886 1.1 1.8189 6.5 2.5112 12s2.0948 12.25 3.1166 15c1.8663 5.0227 3.0632 9.3926 3.3933 12.389 0.09764 0.8863 0.46738 2.2864 0.82163 3.1114 0.58951 1.3729 7.5356 24.207 7.8506 25.808 0.0749 0.38056 0.34553-0.42996 0.60141-1.8012 0.25587-1.3712-0.07858-4.9712-0.74322-8zm25.622-24.007c-1.1096-3.5206-1.4399-3.9339-1.5172-1.8992-0.1182 3.1092 2.1922 10.048 2.63 7.8992 0.16807-0.825-0.33268-3.525-1.1128-6zm-42.616 4.441c0-0.85746-0.45734-1.2764-1.0163-0.9309s-0.75742 1.047-0.44098 1.559c0.85723 1.387 1.4573 1.1284 1.4573-0.62812zm39.937-15.806c-0.95091-0.87589-1.0842-0.7169-0.58467 0.69713 0.35595 1.0075 0.70846 2.5825 0.78336 3.5 0.0749 0.91751 0.338 0.60381 0.58467-0.69713 0.24666-1.3009-0.10585-2.8759-0.78336-3.5zm-43.337 0.76534c-0.35589-0.92744-0.87208-1.4613-1.1471-1.1863s-0.20881 1.2588 0.14708 2.1863 0.87208 1.4613 1.1471 1.1863 0.20881-1.2588-0.14708-2.1863zm32.69 0.6c-0.28766-1.1-0.69553-2-0.90638-2s-0.38337 0.9-0.38337 2 0.40787 2 0.90638 2 0.67103-0.9 0.38337-2zm9.3934-6.1875c-0.31922-0.79773-0.55618-0.56078-0.60416 0.60417-0.04342 1.0542 0.19292 1.6448 0.52522 1.3125 0.33229-0.33229 0.36781-1.1948 0.07894-1.9167zm-0.68311-7.0125c0-2.0611-0.34425-2.8558-0.96725-2.2328-0.53198 0.53198-0.7045 1.972-0.38337 3.2 0.82366 3.1496 1.3506 2.7723 1.3506-0.96725zm-45 0.25902c0-2.187-1.562-3.5767-2.4342-2.1656-0.73067 1.1822 0.36678 4.1066 1.5411 4.1066 0.49115 0 0.89301-0.87344 0.89301-1.941zm34-4.5c0-0.24254-0.45-0.7191-1-1.059s-1-0.14148-1 0.44098 0.45 1.059 1 1.059 1-0.19844 1-0.44098zm-39.052-15.938c-0.63338-3.6372-1.4967-6.3997-1.9185-6.139-0.4218 0.26068-0.06685 3.3998 0.78877 6.9758 1.9794 8.2729 2.632 7.7896 1.1297-0.83681zm702.05-3.18c0-0.79254-0.45-1.441-1-1.441s-1 0.92656-1 2.059 0.45 1.7809 1 1.441 1-1.2665 1-2.059zm5.2-26.641c-0.93333-0.93333-1.2-0.66667-1.2 1.2s0.26667 2.1333 1.2 1.2 0.93333-1.4667 0-2.4zm3.3-10.8c0.33992-0.55 0.14148-1-0.44098-1s-1.059 0.45-1.059 1 0.19844 1 0.44098 1 0.7191-0.45 1.059-1zm3.5-16c0-0.55-0.19844-1-0.44098-1s-0.7191 0.45-1.059 1-0.14148 1 0.44098 1 1.059-0.45 1.059-1zm26.939-22.097c0.65976-3.3535 0.9559-6.3409 0.65809-6.6387-0.70685-0.70684-2.5974 4.2912-2.5974 6.8668 0 1.1004-0.46583 2.8711-1.0352 3.9349-0.79516 1.4858-0.70939 1.9343 0.36989 1.9343 0.92198 0 1.8175-2.0964 2.6046-6.0972zm-10.256-8.0903c-0.31922-0.79773-0.55618-0.56078-0.60416 0.60417-0.04342 1.0542 0.19293 1.6448 0.52522 1.3125s0.36781-1.1948 0.07894-1.9167zm13.181-11.562c0.65145-3.7125 1.4158-9.45 1.6986-12.75 0.28277-3.3 0.96332-9.1174 1.5123-12.928 0.82627-5.7344 0.74356-7.1823-0.48021-8.4061-1.3045-1.3046-1.5351-1.1954-1.9608 0.92766-0.44522 2.2208-2.0595 18.737-3.2895 33.656-0.68927 8.3606 1.0244 8.0205 2.5195-0.5zm-10.864 0.75c0-0.55-0.19844-1-0.44098-1s-0.7191 0.45-1.059 1-0.14148 1 0.44098 1 1.059-0.45 1.059-1zm1-6c0-0.55-0.47656-1-1.059-1s-0.7809 0.45-0.44098 1 0.81648 1 1.059 1 0.44098-0.45 0.44098-1zm23.458-6.25c0.98668-5.8477 2.2023-23.209 1.7505-25-0.24283-0.9625-1.064-1.75-1.8249-1.75-1.4631 0-1.6575 0.81623-1.9056 8-0.08547 2.475-0.49627 7.3342-0.91288 10.798-0.78738 6.5469-0.20193 11.202 1.4089 11.202 0.5146 0 1.1824-1.4625 1.484-3.25zm-771.46-10.75c0-0.55-0.19844-1-0.44098-1s-0.7191 0.45-1.059 1-0.14148 1 0.44098 1 1.059-0.45 1.059-1zm-0.65066-7.468c0.73772-1.9225-1.3301-3.1812-2.3952-1.4579-0.8802 1.4242-0.36806 2.9259 0.99785 2.9259 0.4587 0 1.0875-0.66059 1.3973-1.468zm36.401-1.1155c-0.95295-0.95296-2.8635 0.5906-2.1533 1.7397 0.42212 0.683 0.98146 0.66575 1.6996-0.05243 0.58876-0.58876 0.79291-1.348 0.45366-1.6873zm-114.75-0.91653c0-0.83333-0.88889-1.5-2-1.5-1.9922 0-2.6011 1.0655-1.3333 2.3333 1.2179 1.2179 3.3333 0.68908 3.3333-0.83333zm5.6667-1c0-0.825-0.34845-1.5-0.77432-1.5-1.1263 0-1.9455 1.6135-1.1985 2.3605 1.0914 1.0914 1.9728 0.7069 1.9728-0.86052zm101.62-1.5c-0.58056-2.2201-3.2898-2.7691-3.2898-0.66667 0 1.668 0.96363 2.6667 2.573 2.6667 0.74738 0 1.032-0.79426 0.7167-2zm788.21-5.0351c1.8311-1.4853 4.6292-6.9649 3.5565-6.9649-0.5811 0-1.0565 0.43844-1.0565 0.97432s-1.4017 1.6992-3.1149 2.5851c-3.7501 1.9392-6.1665 0.57707-4.1456-2.3369 8.0547-11.614 11.502-21.329 16.759-47.222 1.3957-6.875 3.4001-16.325 4.4541-21 1.0541-4.675 1.5616-8.8618 1.1279-9.304-0.4337-0.44221-3.8918-1.0071-7.6845-1.2552-3.7928-0.24817-9.371-1.1581-12.396-2.0221-3.3156-0.94697-11.549-1.7922-20.73-2.128-17.497-0.64006-17.505-0.63608-15.347 7.7845 0.67924 2.6503 1.4085 6.3051 1.6207 8.1218 1.7775 15.223 2.7248 21.429 3.403 22.293 0.73975 0.94233 1.0739 2.4381 2.5716 11.51 0.31778 1.925 1.5021 7.1 2.6319 11.5s2.478 9.8 2.9962 12c2.8369 12.045 9.8757 18.207 19.354 16.943 2.75-0.36674 5.45-1.0318 6-1.478zm6.9199-11.095c-0.7889-1.2765-2.4199-0.05582-2.4199 1.8111 0 1.2712 0.2783 1.3324 1.489 0.32768 0.8189-0.67967 1.2378-1.6421 0.9309-2.1388zm-48.42-0.37038c0-2.5532-1.3649-3.3367-2.5296-1.4521-0.83186 1.346 0.1561 3.9521 1.4982 3.9521 0.56726 0 1.0314-1.125 1.0314-2.5zm52.287-7.2206l0.5084-2.6595-1.8754 2.4401c-1.0315 1.342-1.8854 3.0576-1.8977 3.8125-0.0386 2.3842 2.6978-0.62739 3.2647-3.593zm4.6825-12.779c0-0.55-0.4362-0.325-0.9694 0.5s-0.9694 1.95-0.9694 2.5 0.4362 0.325 0.9694-0.5 0.9694-1.95 0.9694-2.5zm-209.04-8.75c0.08942-4.7708-1.5601-4.9612-1.7391-0.20079-0.07338 1.9521-0.39786 3.9771-0.72105 4.5-0.32319 0.52294-0.25843 1.4834 0.14391 2.1344 1.0187 1.6482 2.2277-1.71 2.3162-6.4336zm211.57 2.25c0.3399-0.55 0.168-1-0.382-1s-1.2781 0.45-1.618 1-0.168 1 0.382 1 1.2781-0.45 1.618-1zm3.1286-9.0765c0.6207-1.8829 1.4556-4.9985 1.8553-6.9235 0.5924-2.8528 0.4869-3.2703-0.5708-2.2578-1.4187 1.3582-4.911 9.9541-4.9123 12.091-0.0015 2.5181 2.4998 0.51183 3.6278-2.9099zm-205.63 2.1356c0-0.51754-0.45-1.2191-1-1.559s-1 0.08352-1 0.94098 0.45 1.559 1 1.559 1-0.42344 1-0.94098zm-8.3126-16.809c-0.2426-10.514-0.94355-13.828-2.6956-12.745-0.92005 0.56863-0.42173 21.241 0.61456 25.495l0.60907 2.5 0.86002-2.2499c0.47301-1.2374 0.74839-7.0874 0.61196-13zm7.6021 11.751c0.28751-1.0995 0.115-2.251-0.38337-2.559s-0.90612 0.59154-0.90612 1.999c0 3.064 0.56994 3.3116 1.2895 0.56002zm0.21051-18.001c0.33992-0.55 0.14148-1-0.44098-1s-1.059 0.45-1.059 1 0.19844 1 0.44098 1 0.7191-0.45 1.059-1zm-169-3.4434c59.054-2.2025 87.04-3.5591 104-5.0412 2.2-0.19226 7.6-0.64046 12-0.996s13.175-1.273 19.5-2.0389c6.325-0.76584 16.225-1.8793 22-2.4744 5.775-0.59506 15.9-1.713 22.5-2.4844s14.7-1.6799 18-2.019c11.673-1.1994 30.145-3.5452 41.5-5.2702 11.061-1.6804 13.716-3.001 8.809-4.383-2.2947-0.64628-2.2935-0.65079 0.19098-0.72555 1.375-0.04138 4.525 0.39454 7 0.96871 3.434 0.79667 6.5135 0.68091 13-0.48866 14.629-2.6376 34.024-4.6009 46.5-4.707 11.904-0.10122 16.763 0.81307 18.918 3.5595 1.3953 1.7779 30.898 4.0799 40.66 3.1726 11.853-1.1016 22.867-6.9058 24.923-13.134 0.6274-1.9012 0.8806-3.8777 0.5625-4.3923-0.318-0.5146-0.1083-2.1717 0.4661-3.6824 0.7212-1.8968 0.7234-3.0677 0.0072-3.7839-0.7163-0.71621-1.0372-0.22376-1.0372 1.5914 0 1.4457-0.675 3.3036-1.5 4.1286s-1.5 2.0074-1.5 2.6277c0 1.5661-7.8036 4.8619-14.398 6.081-9.972 1.8434-20.892 1.7613-36.602-0.27518-20.371-2.6408-45.74-2.0297-70.5 1.6983-9.35 1.4078-21.58 3.1769-27.177 3.9314s-10.756 1.7296-11.464 2.167c-0.70778 0.43743-5.578 1.1355-10.823 1.5514-5.2447 0.41581-13.361 1.2317-18.036 1.8131-7.4603 0.9278-24.025 2.8243-39.5 4.5224-30.882 3.3887-107.85 7.654-181 10.03-9.9 0.32161-29.475 1.0047-43.5 1.5181-23.931 0.87588-143.97 0.47831-156-0.51668-3.025-0.25018-15.4-0.69921-27.5-0.99786-12.1-0.29864-27.175-0.97686-33.5-1.5071-11.615-0.97379-15.574-1.214-48.96-2.9701-10.153-0.53406-21.628-1.4255-25.5-1.981s-12.215-1.5184-18.54-2.1399c-21.12-2.0752-27.42-2.765-39.5-4.3253-6.6-0.85243-14.475-1.9812-17.5-2.5084s-9.55-1.4691-14.5-2.093c-4.95-0.62397-10.35-1.5012-12-1.9494s-9.525-1.5894-17.5-2.5361c-7.975-0.94666-16.975-2.5206-20-3.4976s-7.075-2.0727-9-2.4348c-3.8696-0.72798-12.068-2.6346-22-5.116-3.575-0.89324-8.3-2.0187-10.5-2.501-2.2-0.48233-8.05-2.0435-13-3.4693-8.4256-2.4269-10.666-2.9863-21.03-5.2498-14.36-3.1363-34.772-13.105-38.541-18.823-2.6832-4.0702-2.479-7.8152 0.5337-9.7892 2.323-1.5221 2.5779-1.4896 4.5 0.57356 1.1206 1.2029 2.0894 1.7647 2.1529 1.2485s0.2199-1.3886 0.34768-1.9386c0.12779-0.55 0.30088-1.5625 0.38466-2.25 0.08377-0.6875 1.2773-1.25 2.6523-1.25 2.6525 0 3.0225 1.1112 2.5705 7.7206-0.16352 2.3914 0.50705 3.9362 2.6046 6l2.8248 2.7794 0.5-9c0.49801-8.9642 0.51108-9.0013 3.2861-9.3199l2.7861-0.31991-0.66734 10.322-0.66734 10.322 3.602 1.7177 3.602 1.7177-0.09477-13.546c-0.09233-13.198 0.74589-17.247 3.0736-14.844 1.1385 1.1752 1.7594 9.1036 0.7889 10.074-0.3901 0.39009-0.70927 4.6082-0.70927 9.3736 0 8.1269 0.14916 8.7442 2.4046 9.9513 3.4735 1.859 4.7554 0.51392 4.5752-4.8005-0.08669-2.5567-0.11762-9.036-0.06875-14.398 0.07255-7.9605 0.36417-9.75 1.5889-9.75 1.2704 0 1.5 2.4326 1.5 15.893 0 13.57 0.23122 15.982 1.5818 16.5 2.5818 0.99074 5.1746 0.69452 5.6281-0.64301 0.2331-0.6875 0.32662-7.3484 0.20781-14.802-0.24409-15.314 0.18899-18.948 2.2579-18.948 0.79335 0 1.2368 0.3375 0.98545 0.75-0.49179 0.8071-1.0086 20.058-0.79274 29.531 0.09523 4.1804 0.54707 5.9112 1.6317 6.25 0.825 0.25774 2.2875 0.7615 3.25 1.1195 2.0731 0.77103 6.2339 1.3518 11.75 1.6401l4 0.20906-0.36854-22.25c-0.26432-15.958-0.05224-22.25 0.75-22.25 0.78307 0 1.1531 5.9234 1.2339 19.75 0.06344 10.862 0.2199 20.2 0.34769 20.75 0.12778 0.55 0.30087 1.9914 0.38465 3.203 0.11352 1.6419 1.1074 2.4682 3.9023 3.2444 2.0625 0.57278 4.0875 1.0439 4.5 1.047 0.4125 0.00307 0.75-6.546 0.75-14.553 0-8.7648 0.37169-14.329 0.93394-13.982 0.51367 0.31747 0.96464 6.735 1.0022 14.261 0.03752 7.5262 0.40475 13.986 0.81606 14.354 1.3717 1.2291 13.212 3.6898 38.312 7.9623 3.0603 0.52092 7.6728 1.5817 10.25 2.3574 2.5772 0.77562 4.6858 1.071 4.6858 0.65635 0-0.41462-2.0195-3.8286-4.4877-7.5865-2.4682-3.758-5.2064-8.8872-6.0849-11.398-0.87845-2.5111-2.87-7.2656-4.4256-10.566-3.9435-8.3655-6.4542-16.317-8.9014-28.192-2.8097-13.634-2.7248-16.39 0.62228-20.205 2.8298-3.2248 7.9968-4.3264 8.6908-1.8528 0.19289 0.6875 0.8342 3.05 1.4251 5.25s2.4451 8.5 4.1204 14 3.0448 11.281 3.0435 12.846 0.93956 4.1686 2.0909 5.7855c1.1514 1.6169 1.8405 3.5989 1.5314 4.4044-0.30909 0.80548-0.1261 1.4645 0.40663 1.4645 1.7528 0 1.0094 1.9977-0.78138 2.0997-1.1401 0.06494-0.90094 0.3368 0.68607 0.77999 1.4566 0.4068 2.711 1.7081 3.1198 3.2368 0.82543 3.0864 4.0197 8.1413 4.7091 7.452 0.2717-0.2717-0.71709-4.4482-2.1973-9.2812-5.9162-19.316-6.6931-21.92-6.9592-23.326-0.15213-0.80367-0.74158-2.5862-1.3099-3.9612-0.56831-1.375-2.3976-6.6748-4.0651-11.777-2.8387-8.6864-3.2133-13.223-1.092-13.223 1.2799 0 2.7163 4.0349 5.3401 15 2.8871 12.066 7.1349 26.142 9.4793 31.413 0.99995 2.248 2.5806 6.1123 3.5124 8.5873s3.2316 7.3539 5.1106 10.842 3.4162 6.7111 3.4162 7.1622c0 0.45109 1.8529 4.034 4.1176 7.9621 3.2586 5.652 4.549 7.0785 6.1854 6.8378 2.4919-0.36653 2.7095-1.3118 9.1618-39.804 1.6994-10.138 3.1139-26.31 2.6676-30.5-0.48696-4.5726-5.3649-12.728-9.1371-15.276-1.8533-1.2521-5.785-2.9786-8.7369-3.8368-5.4116-1.5732-6.5863-3.5945-2.4436-4.2045 1.187-0.17478 6.6426 1.0846 12.124 2.7985 12.656 3.9578 15.278 6.5272 14.642 14.347-0.23165 2.8449-1.3073 9.2225-2.3904 14.172-1.0831 4.95-2.2798 11.475-2.6593 14.5s-1.1381 7.2495-1.6859 9.3878c-0.54772 2.1383-1.3824 6.8633-1.8548 10.5-0.92624 7.13-1.5766 10.639-2.986 16.112-1.7318 6.7248-2.028 14-0.57007 14 0.73666 0 1.5914-1.2375 1.8995-2.75s1.7116-8.825 3.1189-16.25 2.9692-14.85 3.4708-16.5c1.2019-3.9533 3.6189-15.707 5.6551-27.5 1.6164-9.3618 1.8544-10.872 3.2429-20.579 0.51189-3.5786 1.1849-4.9907 2.4991-5.2438 1.6325-0.31439 1.7378 0.23839 1.1403 5.9884-0.36203 3.4841-1.3502 9.0347-2.196 12.335-2.0751 8.0965-3.0329 12.547-4.7345 22-1.4047 7.8038-3.1425 16.321-6.0188 29.5-0.78025 3.575-1.7131 9.5026-2.073 13.172l-0.65434 6.6725 4.8582 0.61144c5.1308 0.64574 16.208 2.0694 27.858 3.5804 18.322 2.3762 23.957 3.0101 36.5 4.1057 20.526 1.7928 18.528 2.1898 18.333-3.6426-0.79087-23.612 0.0844-92.954 1.2411-98.321 0.27509-1.2766 1.0461-2.1376 1.7133-1.9133 0.85696 0.28801 1.1504 3.1714 0.99956 9.821-0.30799 13.576-0.1581 84.533 0.19057 90.216 0.16207 2.6414 0.4631 4.9709 0.66896 5.1768 0.20585 0.20586 2.1697 0.51973 4.3642 0.69749l3.9899 0.32321-0.23531-9.5c-0.52418-21.162-0.26972-93.823 0.33408-95.397 0.3562-0.92826 1.036-1.5562 1.5108-1.3955 0.64258 0.21758 2.0144 74.075 1.921 103.42-0.00862 2.7032 0.41225 3.2115 3.1048 3.75 6.5373 1.3075 6.0548 5.0088 5.8174-44.627-0.27706-57.92-0.19085-62.996 1.0628-62.578 0.66619 0.22206 1.0962 18.464 1.25 53.034 0.16844 37.848 0.55591 53.017 1.3752 53.836 0.62736 0.62716 2.5988 1.212 4.3809 1.2996l3.2402 0.15934 0.21407-55.262c0.11773-30.394 0.47889-55.526 0.80257-55.85 2.2305-2.2305 2.5766 2.2692 1.9524 25.389-1.012 37.486-0.55268 79.916 0.90897 83.972 0.63216 1.7544 1.587 2.25 4.3355 2.25 3.1771 0 3.5253-0.27127 3.5307-2.75 0.0033-1.5125 0.19477-21.875 0.42548-45.25 0.23072-23.375 0.43386-46.923 0.45142-52.328 0.03427-10.546 0.65313-14.077 2.2903-13.065 0.68698 0.42457 0.77384 5.5005 0.26122 15.265-0.89482 17.044-0.974 96.922-0.09693 97.799 0.32728 0.32728 2.2977 0.64774 4.3788 0.71212l3.7837 0.11705 0.26861-23.969c0.14774-13.183 0.65724-24.357 1.1322-24.832 1.004-1.004 1.7198 28.92 1.0047 42.003-0.29512 5.3994 1.3221 7.2977 6.2169 7.2977h3.8776l-0.00381-8.25c-0.00741-16.059 0.77865-37.858 1.3871-38.467 0.75156-0.75155 0.84491 1.7967 0.99705 27.217l0.1197 20 5.5 0.11511c3.025 0.0633 12.025 0.39943 20 0.74695 54.846 2.39 160.27 2.4364 230 0.1014 8.525-0.28546 22.475-0.71681 31-0.95856 27.088-0.76818 60.827-2.4149 82.5-4.0267 25.834-1.9212 55.144-4.3828 58.5-4.913 1.375-0.21724 5.65-0.68277 9.5-1.0345s9.475-1.0368 12.5-1.5224 8.2-1.1496 11.5-1.4757 9.4729-1.0789 13.718-1.673c8.4053-1.1765 8.6874-1.4414 9.2991-8.7318 0.1674-1.9953 0.5752-5.8778 0.90624-8.6278 1.17-9.7195 4.5566-49.914 5.0553-60 0.39036-7.8944 0.53182-8.8232 1.2365-8.1186 0.84938 0.84938 0.53392 13.032-0.71516 27.619-0.49452 5.775-1.1751 15.225-1.5125 21s-1.0412 12.146-1.5641 14.158-0.89585 7.5601-0.8288 12.329l0.1219 8.6707 5.142-0.6933c2.8281-0.38132 5.4314-0.86374 5.7852-1.072 0.65026-0.38284 1.8033-12.597 2.3686-25.091 0.16927-3.741 0.80686-11.977 1.4169-18.302s1.3567-16.45 1.6592-22.5c0.60386-12.075 0.85517-13.5 2.3807-13.5 1.2684 0 1.2973 6.3496 0.0682 15-0.50797 3.575-1.0181 11.45-1.1336 17.5-0.11553 6.05-0.77533 14.6-1.4662 19-0.69088 4.4-1.2958 11.293-1.3443 15.317-0.04847 4.0242-0.37947 8.4776-0.73556 9.8964-0.64041 2.5516-0.59582 2.5738 4.1008 2.0444 8.1529-0.91894 7.3133 3.1624 11.038-53.656 0.8075-12.319 1.6819-22.612 1.9432-22.874s1.2205-0.18896 2.1316 0.16067c1.1691 0.44863 1.4651 1.2942 1.0059 2.8735-1.04 3.5767-2.427 19.092-3.0533 34.156-0.31829 7.6552-1.0072 16.88-1.531 20.5-1.4314 9.8931-1.2596 16.042 0.46688 16.704 0.80232 0.30788 2.9769 0.05873 4.8325-0.55366l3.3737-1.1134 2.1576-25.228c1.1867-13.875 2.1505-29.414 2.1418-34.532s0.24737-9.7296 0.56897-10.25c1.6193-2.62 2.2133-0.11226 1.8486 7.8039-0.22173 4.8125-0.60126 15.05-0.84341 22.75-0.24214 7.7-0.89847 17.375-1.4585 21.5s-1.0321 9.8678-1.0491 12.762l-0.03088 5.2618 4.25-0.63484c2.3375-0.34916 4.7933-1.142 5.4574-1.7618 0.66453-0.62026 1.4433-4.9488 1.732-9.627 0.28852-4.675 0.94369-14.8 1.456-22.5s0.94707-18.439 0.96626-23.865c0.03428-9.6955 0.40382-11.703 1.8822-10.225 0.95814 0.95814 0.47349 29.243-0.71261 41.59-0.50196 5.225-1.2027 12.988-1.5572 17.25l-0.64457 7.75h2.5202c1.3861 0 3.6084-0.41372 4.9383-0.91937 3.5982-1.368 4.2453-7.1138 5.2374-46.506 0.37222-14.78 1.2139-20.168 2.8889-18.493 0.75375 0.75375 0.91274 14.118 0.23103 19.419-0.35364 2.75-0.83271 9.95-1.0646 16s-0.7498 15.2-1.1509 20.334l-0.72927 9.3337 4.8998-0.70059c2.6949-0.38532 5.1912-0.9855 5.5475-1.3337s0.93925-7.5718 1.2956-16.052c0.35639-8.4806 0.88552-15.804 1.1758-16.273 0.29032-0.46974 0.50958-6.581 0.48724-13.581-0.03601-11.284 0.77418-16.679 2.2786-15.175 0.54193 0.54194 0.54989 4.1936 0.06414 29.448-0.17984 9.35-0.75209 19.456-1.2717 22.458-1.2578 7.2678-0.03576 10.042 4.424 10.042 1.8043 0 3.5565-0.44661 3.8938-0.99246 0.33736-0.54586 0.82031-5.3834 1.0732-10.75 0.25292-5.3666 0.67461-12.908 0.93709-16.758 0.26249-3.85 0.65834-12.315 0.87968-18.811 0.3809-11.179 0.84419-13.793 2.2032-12.434 0.62973 0.62973 0.62943 38.571-3.2e-4 39.62-0.20634 0.34368-0.66038 4.389-1.009 8.9895-0.70896 9.3565 0.00144 11.135 4.447 11.135h2.7813l0.60861-10.75c0.33473-5.9125 1.053-15.154 1.5962-20.536 0.54319-5.3822 0.98762-13.343 0.98762-17.691 0-7.257 1.2601-11.115 2.5406-7.778 1.0979 2.8611 0.59636 18.265-1.4409 44.255-0.91851 11.718-0.34526 13.5 4.3417 13.5 3.3069 0 3.3849-0.09977 4.1033-5.25 0.40277-2.8875 1.0075-15.375 1.3438-27.75 0.58787-21.629 0.68891-22.5 2.6115-22.5 1.9208 0 1.989 0.57429 1.7229 14.5-0.23003 12.036-0.92754 27.874-1.3562 30.795-0.05693 0.3879-0.05022 3.0153 0.01491 5.8386 0.10216 4.4287 0.42646 5.2139 2.3625 5.7202 4.5873 1.1996 4.9071-0.39808 5.6032-27.987 0.6304-24.983 0.7211-25.867 2.6527-25.867 1.8652 0 2.0356 0.84265 2.528 12.5 0.2903 6.875 0.1886 14.129-0.2261 16.121s-0.6523 8.5165-0.5279 14.5l0.226 10.879 2.6453 0.30632c2.529 0.29285 2.6744 0.05107 3.3072-5.5 0.364-3.1935 0.5516-12.331 0.4167-20.306-0.3165-18.723 0.6489-27 3.1494-27 1.5005 0 1.9424 1.1225 2.503 6.3575 0.3745 3.4966 0.3697 10.134-0.0107 14.75-0.733 8.896-0.7845 11.791-0.4296 24.142 0.21 7.3088 0.351 7.75 2.4768 7.75 1.9578 0 2.3525-0.6903 3.0014-5.25 0.4109-2.8875 0.7907-14.025 0.8438-24.75 0.0963-19.423 0.1055-19.501 2.3451-19.819 1.6022-0.22757 2.4966 0.34719 3.1121 2 1.5076 4.0482 2.2264 16.138 1.2629 21.241-1.0633 5.6318-0.5575 7.809 1.7127 7.3718 2.0138-0.38782 2.9643-4.9848 3.2654-15.793 0.1303-4.675 0.4339-9.0625 0.6747-9.75 0.7169-2.0468 3.918-1.4397 9.7435 1.848 7.5978 4.288 9.7986 7.2983 9.2072 12.594-0.2575 2.3056-1.0889 4.8102-1.8475 5.5657-1.7026 1.6955-10.527 7.6452-14.751 9.9458-2.4258 1.3211-3.128 2.3741-3.128 4.691 0 4.056 1.5847 4.7444 3.1937 1.3873 0.7268-1.5165 2.1734-2.9213 3.2146-3.1218 1.0412-0.20052 3.0212-1.7053 4.4-3.344 2.177-2.5872 2.9602-2.8944 5.9497-2.3335 3.8216 0.71693 7.242-1.421 7.242-4.5266 0-0.95383 0.8302-2.7595 1.845-4.0127 1.5914-1.9654 1.6891-2.8065 0.7104-6.121-1.23-4.1657-5.8139-9.6238-9.6518-11.492-7.2498-3.5298-14.148-6.1945-18.97-7.3277-2.9887-0.70242-6.997-1.959-8.9073-2.7924-6.1088-2.6651-40.581-11.186-57.567-14.23-6.5779-1.1787-15.335-2.7568-19.46-3.5069-4.125-0.75012-9.975-1.8137-13-2.3635-3.025-0.54982-11.575-2.1336-19-3.5194s-20.626-3.4611-29.335-4.6117-16.809-2.4574-18-2.904c-1.191-0.44662-5.7654-1.11-10.165-1.4741-4.4-0.36413-10.925-1.0994-14.5-1.6339-6.1183-0.91478-15.095-1.8857-36.725-3.9721-5.0736-0.48941-10.924-1.1125-13-1.3846-5.5483-0.72708-24.533-2.5151-26.275-2.4747-2.3384 0.05423-16.478-1.0505-27.5-2.1484-5.5-0.54792-20.8-1.4656-34-2.0394-32.365-1.4068-39.563-1.7858-56.5-2.975-17.719-1.2442-149.4-1.7534-175-0.67681-10.175 0.42789-23 0.92818-28.5 1.1117-23.365 0.77977-37.817 1.5204-50.5 2.588-15.699 1.3214-16.913 1.4774-19.252 2.4742-0.96373 0.41068-2.8517 0.47074-4.1956 0.13346-1.3438-0.33728-8.8803 0.04534-16.748 0.85027-20.847 2.1329-35.902 3.417-47.804 4.0775-5.775 0.32047-15.45 1.2126-21.5 1.9825-39.712 5.0537-51.885 5.4144-71.86 2.1292-14.008-2.3039-30.838-0.6911-41.291 3.9569-1.7331 0.77065-3.5331 1.4031-4 1.4055-0.46688 0.00236-2.8739 1.3805-5.3489 3.0625-7.6863 5.2237-14.086 7.543-28.543 10.344-23.389 4.5322-61.917 14.321-67.529 17.156-1.4143 0.71464-6.8143 2.7348-12 4.4892-11.352 3.8407-12.651 4.4626-16.166 7.7408-3.76 3.5065-4.4388 7.957-1.9557 12.822 2.6536 5.1993 4.2437 6.4536 14.193 11.196 9.5685 4.5606 17.917 7.4999 27.786 9.7835 3.6928 0.85442 11.664 2.9074 17.714 4.5622s11.675 3.1796 12.5 3.3885c3.861 0.97776 15.912 3.7322 19.5 4.4569 2.2 0.44439 7.825 1.7882 12.5 2.9862 12.828 3.2872 30.07 6.8227 43.845 8.9903 6.7898 1.0684 13.093 2.1801 14.008 2.4704 1.5371 0.48787 6.2638 1.2293 32.147 5.0429 8.4688 1.2478 20.384 2.5262 75.5 8.1006 15.268 1.5442 30.126 2.4831 68.5 4.3285 11.825 0.56868 24.875 1.2518 29 1.518 4.125 0.26622 25.725 0.96692 48 1.5571s44.325 1.2029 49 1.3615c19.755 0.67042 107.52-0.42613 144.5-1.8055zm147-30.546c-7.6394-1.1845-11.5-5.3021-11.5-12.266 0-4.8539 5.1955-10.264 10.759-11.204 6.4061-1.0823 12.809 1.6922 15.336 6.6454 1.8969 3.7183 1.9063 4.012 0.24312 7.5909-0.95159 2.0476-2.2947 4.0704-2.9847 4.495-0.69003 0.42464-1.8486 1.3661-2.5746 2.0921-2.4687 2.4687-5.271 3.268-9.2787 2.6465zm3.786-13.261c0.36164-0.99861 0.88119-0.9969 2.5833 0.00847 1.9074 1.1266 2.1306 1.0301 2.1306-0.92126 0-1.1988-0.74474-3.0027-1.655-4.0085-2.1214-2.3441-5.3406-2.3914-5.3587-0.07874-0.00751 0.9625-0.285 2.7625-0.61664 4-0.43339 1.6172-0.17175 2.25 0.93033 2.25 0.84331 0 1.737-0.5625 1.986-1.25zm-689.64-17.5c-0.80864-4.8922-0.8205-26.107-0.01685-30.125 1.3442-6.721 1.875-2.3678 1.875 15.377 0 17.928-0.57635 22.503-1.8582 14.748zm710.69 0.8191c-2.2899-0.37431-4.8544-1.254-5.6988-1.9548-2.1688-1.7999-3.913-7.6625-3.0789-10.349 3.317-10.682 17.298-15.063 24.64-7.7212 5.5499 5.5499 2.7256 15.391-5.543 19.315-3.6794 1.746-3.8908 1.7606-10.319 0.70983zm8.6635-6.0691c0-0.55-0.42344-1-0.94098-1s-1.2191 0.45-1.559 1 0.08352 1 0.94098 1 1.559-0.45 1.559-1zm-8.7071-1.9878c-0.35146-1.344 0.08373-2.2007 1.3436-2.645 1.8938-0.66784 5.3007-4.2507 5.3412-5.6172 0.01223-0.4125-0.60462-0.75-1.3708-0.75-0.76616 0-1.6854-0.76209-2.0429-1.6935-0.57186-1.4902-0.92821-1.3934-2.9685 0.80705-4.1999 4.5294-4.8531 6.5638-3.0103 9.3763 1.9696 3.006 3.4309 3.2879 2.7076 0.52234zm-38.299 3.0527c-8.6966-2.6427-13.122-8.1401-11.396-14.158 1.8064-6.2984 7.4024-6.6746 7.4024-0.49774 0 1.9098 0.49291 3.777 1.0954 4.1493 1.5225 0.94095 5.7493-1.4942 6.4555-3.719 0.32117-1.0119 1.2286-1.8399 2.0166-1.8399 2.3346 0 1.6324-1.9735-1.0674-3-3.5576-1.3526-3.2578-4 0.45295-4 7.4245 0 12.221 6.1392 10.163 13.008-1.4391 4.8033-4.4716 8.62-7.3431 9.2421-1.2499 0.27075-2.9475 0.73612-3.7725 1.0342s-2.6279 0.19912-4.0065-0.21979zm82.485-3.5649c0.60205-4.1487 1.2465-11.835 1.4212-16.95 0.05854-1.7144 0.4592-2.5521 0.95657-2 1.0761 1.1945-0.6864 20.593-1.9943 21.95-0.62139 0.64465-0.75766-0.42142-0.38347-3zm-475.25-0.5c0-1.925 0.2058-2.7125 0.45733-1.75 0.25152 0.9625 0.25152 2.5375 0 3.5-0.25153 0.9625-0.45733 0.175-0.45733-1.75zm-12.338-1.25c-0.54821-1.2932-0.29275-6.75 0.316-6.75 0.43449 0 0.78998 1.575 0.78998 3.5 0 2.8408-0.56972 4.515-1.106 3.25zm12.136-8.1667c-0.01673-2.7042 0.26887-4.6174 0.63466-4.2516 1.1 1.1 1.3002 5.9128 0.31599 7.5952-0.6508 1.1124-0.92915 0.13346-0.95065-3.3436zm-12.188-3.0683c-0.97849-0.98776 0.05979-26.529 1.1546-28.402 0.62895-1.0762 0.92792 2.0464 0.89875 9.3873-0.04631 11.652-0.9605 20.118-2.0533 19.015zm-243.73-5.515c-0.06985-1.375-0.41077-4.8625-0.7576-7.75-0.53508-4.4547-0.38228-5.25 1.0087-5.25 1.3056 0 1.6152 0.96695 1.521 4.75-0.06508 2.6125-0.46184 6.1-0.88169 7.75-0.70876 2.7854-0.77246 2.8212-0.89038 0.5zm255.96-3.75c0.03865-3.1625 0.4674-6.65 0.95276-7.75 0.59874-1.3569 0.85392 0.49187 0.79366 5.75-0.04886 4.2625-0.47761 7.75-0.95277 7.75-0.47517 0-0.83231-2.5875-0.79365-5.75zm478.44-10.75c0.25573-7.15 0.4705-13.814 0.47727-14.809 0.00698-1.0251 0.47463-1.5233 1.0792-1.1496 1.2121 0.74909 0.38232 19.65-1.1176 25.459-0.61348 2.3757-0.75447-0.67612-0.43888-9.5zm-12.938-0.75c0.63988-14.114 1.0438-16.75 2.5662-16.75 0.77676 0 0.88793 3.1172 0.378 10.599-0.39731 5.8292-0.86664 11.342-1.0429 12.25-0.17629 0.9083-0.35497 2.664-0.39705 3.9015s-0.52271 2.25-1.0681 2.25c-0.63167 0-0.78998-4.4461-0.43617-12.25zm-12.039-6.9749c0.43779-12.757 2.4671-13.052 2.4671-0.35842 0 7.5209-0.29954 9.5833-1.3918 9.5833-1.1114 0-1.3281-1.8586-1.0753-9.2249zm-452.57 7.8564c-0.25988-0.25989-0.38843-4.6708-0.28567-9.802 0.10277-5.1312 0.217-12.367 0.25385-16.079 0.03921-3.9508 0.49704-6.75 1.104-6.75 0.6768 0 0.97788 5.1232 0.86684 14.75-0.15702 13.613-0.74897 19.072-1.939 17.881zm-12.035-15.631c-0.80215-6.527 0.14234-19.143 1.4008-18.712 1.237 0.42389 1.0921 10.624-0.25867 18.212l-0.71202 4-0.43014-3.5zm-278.93 107c0-0.55-0.45-1-1-1s-1 0.45-1 1 0.45 1 1 1 1-0.45 1-1zm264.67-3.6627c-1.1191-1.1191-6.8461-1.4302-6.1693-0.33518 0.3392 0.54884 2.0152 0.9979 3.7244 0.9979s2.8094-0.29823 2.4449-0.66272zm612.58-12c-0.6875-0.27741-1.8125-0.27741-2.5 0s-0.125 0.50439 1.25 0.50439 1.9375-0.22698 1.25-0.50439zm-98.255-109.91c3.2004-6.5417 25.606-30.902 32.784-35.646 1.2534-0.82819 4.1784-3.2614 6.5-5.4071s6.2462-5.4549 8.7212-7.3538c4.9076-3.7652 12.464-10.08 30.664-25.627 6.5099-5.5609 17.236-14.529 23.836-19.928 11.977-9.799 16.712-13.883 34.345-29.62 5.1398-4.5874 11.665-9.9793 14.5-11.982s11.595-9.2941 19.466-16.203 19.796-16.717 26.5-21.796c6.7041-5.0791 15.167-11.738 18.806-14.797 10.002-8.408 10.518-8.8112 18.22-14.246 3.9398-2.78 8.5133-6.2961 10.163-7.8134 1.65-1.5173 5.25-4.4161 8-6.4418s10.872-9.3932 18.049-16.372c11.61-11.291 28.705-25.723 39.532-33.374 3.5244-2.4907 17.675-10.806 29.419-17.289 5.9649-3.2923 17.5-12.299 17.5-13.664 0-0.53126 1.35-1.4365 3-2.0117 4.4799-1.5617 3.658-2.5435-2.75-3.2854-3.1625-0.36612-9.125-1.7777-13.25-3.1369s-8.8819-2.9114-10.571-3.4496c-1.689-0.53811-6.5687-0.97837-10.844-0.97837-6.7458 0-7.8371 0.24653-8.2607 1.8662-0.2893 1.1064-2.0573 2.3364-4.3425 3.021-2.6271 0.7871-5.382 2.9058-8.6514 6.6535-4.6494 5.3294-10.33 14.748-10.331 17.128-4e-4 1.956-9.6059 11.044-23.215 21.964-4.557 3.6566-8.9604 7.2578-9.7854 8.0027-3.2221 2.9091-8.6965 7.0979-16.16 12.365-4.2865 3.025-12.417 9.2108-18.067 13.746-11.103 8.9126-44.15 33.703-52.273 39.214-5.093 3.455-16.071 11.496-34 24.905-5.5 4.1134-12.981 10.214-16.625 13.557-6.3027 5.7823-18.258 14.754-25.422 19.078-1.8226 1.1-5.0325 3.5966-7.1333 5.5481-2.1008 1.9514-7.4196 6.3511-11.82 9.7771s-10.7 8.4742-14 11.218-7.6802 6.2196-9.7338 7.7229-10.829 8.2592-19.5 15.013-18.241 14.06-21.266 16.237c-12.464 8.9683-33.21 26.015-37.222 30.584-2.3943 2.727-3.3138 3.1837-4.8038 2.3863-1.0135-0.54242-3.1407-0.98622-4.727-0.98622s-5.1909-0.68501-8.0102-1.5222c-2.8193-0.83723-7.9635-1.5322-11.432-1.5444-10.841-0.03801-14.806-0.87955-14.806-3.1427 0-2.9177 8.6745-12.935 15-17.322 7.9812-5.5352 18-13.686 18-14.644 0-0.45396-0.9-0.82539-2-0.82539-1.1111 0-2 0.66667-2 1.5 0 0.825-0.57471 1.5-1.2771 1.5s-2.7623 1.3565-4.5774 3.0144c-1.8152 1.6579-4.503 3.639-5.9729 4.4025-1.4699 0.76349-3.6985 2.782-4.9525 4.4856s-2.829 3.0996-3.5 3.1021c-1.8757 0.0071-13.403 12.07-17.271 18.074-4.225 6.5579-4.4524 10.575-0.84134 14.867 3.8442 4.5686 5.7013 5.2398 18.368 6.639 6.3384 0.70017 15.574 1.7997 20.524 2.4434 4.95 0.64371 10.519 1.3178 12.376 1.498 3.6447 0.35373 10.624 5.3269 10.624 7.5702 0 1.8741-3.0975 2.3256-7.416 1.0812-3.3729-0.97199-17.054-3.6135-32.379-6.2515-3.7372-0.64333-7.0336-0.93104-7.3253-0.63937-0.29167 0.29168-1.7862 0.17015-3.3211-0.27007-1.5365-0.44066-3.4128-0.39104-4.1747 0.1104-2.7323 1.7982 1.7648 3.4498 12.782 4.6941 5.9587 0.67302 13.534 1.6444 16.834 2.1586 3.3 0.51422 9.4845 1.2172 13.743 1.5622 4.2588 0.34497 8.9838 1.0097 10.5 1.4772s5.6792 0.76689 9.2513 0.6653c6.1851-0.1759 6.5663-0.33134 8-3.2618zm291.66-269.25c-0.9103-1.0058-1.655-2.3761-1.655-3.0452 0-1.9726 9.3629-15.259 14.114-20.029 8.093-8.1244 9.3581-8.491 22.507-6.5222 4.2593 0.63772 7.6166 3.7171 7.2067 6.61-0.4525 3.1926-15.854 14.59-27.449 20.313-10.076 4.9731-12.28 5.3733-14.724 2.673zm21.734-9.8948c3.9112-2.4298 8.346-5.1735 9.855-6.0971s2.7465-2.226 2.75-2.8941c0.0091-1.754-3.6958-3.4747-7.7277-3.589-2.8555-0.08094-4.1173 0.61249-7.0102 3.8526-1.9403 2.1732-4.5734 5.6009-5.8513 7.6172s-2.799 3.9599-3.3803 4.3191c-1.7377 1.074-0.1868 2.3702 2.1155 1.7682 1.1757-0.30747 5.3378-2.547 9.249-4.9768zm-300.63 276.64c0.95711-1.1462 2.7522-3.2837 3.989-4.75s2.2493-2.9987 2.25-3.4054c6.7e-4 -0.40668 2.1387-3.1972 4.7512-6.2013 2.6125-3.004 5.7955-6.8323 7.0734-8.5074 3.8115-4.9961-0.3277-2.6408-7.6939 4.378-7.7302 7.3656-14.129 15.757-14.129 18.527 0 2.6227 1.5494 2.6057 3.7598-0.04132zm-35.469-38.92c0.54101-2.0688-0.03217-2.3641-6.6905-3.4463l-2.8996-0.47132 2.8367 2.9609c3.2894 3.4334 6.0051 3.8181 6.7534 0.95675zm-15.791-4.9958c-0.33992-0.55-1.293-1-2.118-1s-1.2219 0.45-0.88197 1 1.293 1 2.118 1 1.2219-0.45 0.88197-1zm33.664-9.4149c5.1347-4.0782 10.236-8.2515 11.336-9.274s3.6844-2.9732 5.7432-4.3351 3.7462-3.0651 3.75-3.7851c0.00401-0.76886-0.50897-1.0091-1.2432-0.58219-1.7912 1.0415-8.8945 6.5455-11.25 8.7171-1.1 1.0141-3.2375 2.4922-4.75 3.2846s-2.75 1.8934-2.75 2.4465c0 0.55314-0.7875 1.2932-1.75 1.6445-3.7185 1.3574-11.74 9.2984-9.3925 9.2984 0.534 0 5.172-3.3367 10.307-7.4149zm-25.664-17.585c1.7526-1.9367 1.7466-2-0.19002-2-1.1 0-2.8145 0.9-3.81 2-1.7526 1.9367-1.7466 2 0.19002 2 1.1 0 2.8145-0.9 3.81-2zm8.9145-6.1512c2.6166-1.7331 5.277-3.9831 5.912-5 0.63504-1.0169 1.5495-1.8488 2.0321-1.8488s2.3771-1.2375 4.2099-2.75c3.7264-3.0751 7.0018-5.6082 9.8191-7.594 1.0382-0.73174 1.682-1.9473 1.4306-2.7013-0.32635-0.97906-1.4375-0.45164-3.8876 1.8452-4.0599 3.806-16.714 13.2-17.781 13.2-0.40925 0-2.5018 1.8-4.65 4-4.6944 4.8075-3.5605 5.1377 2.9145 0.84885zm45.557 1.1902c0.80907-0.51167 1.211-1.1904 0.89313-1.5082-0.78775-0.78775-3.8642 0.46709-3.8642 1.5762 0 1.1398 1.1012 1.1146 2.971-0.06793zm4.1956-2.7891c0.18333-0.4125 2.0504-2.0329 4.149-3.601 4.5561-3.4042 4.1788-4.7425-0.51308-1.8199-3.3489 2.0861-6.5887 6.1709-4.8944 6.1709 0.50883 0 1.0751-0.3375 1.2585-0.75zm16.562-12.5c3.1036-2.3375 7.2468-5.673 9.2071-7.4123s4.6483-4.0289 5.9733-5.088c1.4024-1.121 2.1044-2.4188 1.6799-3.1057-0.76045-1.2304-3.4009 0.41553-9.7954 6.106-1.6996 1.5125-3.379 2.75-3.7319 2.75-0.77129 0-8.082 6.784-9.9681 9.25-2.4005 3.1386 0.69935 1.9706 6.6351-2.5zm-35.089-10.227c2.1232-1.9122 4.1979-3.4872 4.6104-3.5s0.75-0.71403 0.75-1.5584c0-2.0518-2.2367-0.82293-8.0259 4.4094-2.9365 2.654-3.9106 4.0578-2.8346 4.0848 0.90177 0.02255 3.3768-1.5236 5.5-3.4358zm66.36-15.176c8.2142-7.3394 12.332-10.466 19.735-14.986 1.9264-1.1761 4.5923-3.3136 5.9243-4.75 1.3319-1.4364 2.8888-2.6117 3.4596-2.6117 1.3364 0 9.1304-8.084 8.45-8.7644-0.28295-0.28296-2.21 0.78578-4.2822 2.375-2.0723 1.5892-4.6999 3.3814-5.8393 3.9826-2.6111 1.3779-7.0154 5.0908-10.269 8.6568-1.38 1.5125-2.9972 2.7625-3.5938 2.7778-0.59658 0.01528-2.3972 1.3653-4.0014 3s-3.4166 2.9722-4.0278 2.9722c-0.6111 0-1.8723 0.7875-2.8026 1.75-1.6855 1.7438-4.3325 3.976-10.503 8.857-1.7875 1.414-3.25 2.9808-3.25 3.4819 0 2.2209 3.0861 0.32955 11-6.7415zm-51.905 3.8617c11.671-8.7942 16.051-12.728 14.515-13.034-0.89743-0.17898-3.3143 0.97752-5.3708 2.57-2.0565 1.5925-5.4266 3.9131-7.4891 5.157s-3.75 2.914-3.75 3.7114c0 0.79741-0.675 1.7088-1.5 2.0254-1.5287 0.58661-2.1131 2.3951-0.75 2.3207 0.4125-0.02252 2.3678-1.26 4.3452-2.75zm23.674-18.209c1.1807-1.1 2.4436-2 2.8065-2s2.1445-1.2375 3.9591-2.75 4.4923-3.5817 5.9504-4.5983 2.4156-2.0837 2.1279-2.3715c-0.77944-0.77944-8.7546 4.1452-11.538 7.1246-1.3334 1.4273-2.9209 2.5952-3.5278 2.5952s-1.874 0.9-2.8159 2c-1.226 1.4319-1.3427 2-0.4108 2 0.7159 0 2.2677-0.9 3.4484-2zm20.016-14.737c1.4932-0.95537 3.2412-2.1929 3.8845-2.75 2.2272-1.9287 5.8683-4.6395 14.33-10.669 4.675-3.331 8.9515-6.6179 9.5034-7.3041 0.55186-0.68622 2.9144-2.2226 5.25-3.4141 2.3356-1.1916 4.2466-2.577 4.2466-3.0788 0-0.50175 1.0125-1.232 2.25-1.6227s2.925-1.4795 3.75-2.4194c0.825-0.93992 3.075-2.5176 5-3.5059s5.975-3.4578 9-5.4877 8.2-5.4468 11.5-7.5931 10.208-7.0559 15.351-10.91c5.143-3.8544 10.543-7.6275 12-8.3847 1.4571-0.7572 3.7742-2.3782 5.1492-3.6022s5.0875-3.9108 8.25-5.9705c3.1625-2.0598 5.75-4.0903 5.75-4.5124s3.6-3.167 8-6.0999 8-5.6938 8-6.1354c0-2.6655-5.7447 0.76497-15.14 9.041-3.3706 2.9691-23.863 17.171-44.86 31.091-17.713 11.742-20.044 13.41-25.359 18.141-2.8273 2.5167-7.1909 5.5155-9.6968 6.664-2.5059 1.1486-5.1776 2.8371-5.9372 3.7522s-3.4767 2.726-6.0381 4.0239-5.3674 3.4438-6.2354 4.7686c-0.86801 1.3248-3.0756 3.0175-4.9057 3.7617-1.8301 0.74421-3.9155 2.1632-4.6342 3.1534-0.71869 0.99017-1.8437 1.8182-2.5 1.84-1.5479 0.0515-11.247 8.9603-9.7549 8.9603 0.62256 0 2.3536-0.78167 3.8467-1.737zm57.215-8.7058c2.475-1.8663 9.225-7.0562 15-11.533 14.441-11.195 28.972-21.822 45.837-33.524 3.1708-2.2 9.1956-6.7637 13.388-10.141 4.1928-3.3778 8.2197-6.3537 8.9488-6.6131s0.9863-0.835 0.5717-1.2791c-0.4147-0.44414-1.7647 0.10435-3 1.2188-1.2354 1.1145-3.8211 2.8763-5.7461 3.9151s-5.75 3.7264-8.5 5.9723-9.275 6.9962-14.5 10.556c-14.072 9.5873-20.044 13.829-24.5 17.402-2.2 1.7639-6.025 4.4559-8.5 5.9822s-6.1186 4.1728-8.0968 5.8812c-1.9783 1.7084-6.5908 5.271-10.25 7.917-3.6593 2.646-6.6532 5.4585-6.6532 6.25 0 2.1042 0.99126 1.7731 6-2.0037zm0-6.0572c0-0.825-0.45-1.5-1-1.5s-1 0.675-1 1.5 0.45 1.5 1 1.5 1-0.675 1-1.5zm149.96-65.063c0.0198-0.5846 1.4262-2.3846 3.1253-4 3.0568-2.9062 6.5507-8.4371 5.3298-8.4371-1.15 0-15.419 14.315-15.419 15.469 0 0.62205 0.5431 1.6741 1.2069 2.3379 0.9426 0.94256 1.7013 0.60305 3.4641-1.55 1.2414-1.5163 2.2733-3.2352 2.293-3.8198zm-57.945 2.04c1.0568-1.2734 0.9949-1.4197-0.3776-0.89301-0.9028 0.34643-1.6414 1.0317-1.6414 1.5229 0 1.286 0.5789 1.1054 2.019-0.62988zm11.981-9.4771c1.925-1.6204 3.05-2.94 2.5-2.9325s-2.558 1.3454-4.4622 2.9731-3.0292 2.9472-2.5 2.9325c0.5292-0.0148 2.5372-1.3527 4.4622-2.9731zm15.5-12c0.3399-0.55 0.168-1-0.382-1s-1.2781 0.45-1.618 1-0.168 1 0.382 1 1.2781-0.45 1.618-1zm87.118-27.114c1.715-1.0373 4.0524-1.886 5.1943-1.886s3.3388-1.158 4.8819-2.5734l2.8058-2.5734-2.9211 0.63539c-1.6066 0.34947-4.0298 1.5075-5.3848 2.5734-1.3551 1.0659-2.8072 1.938-3.2269 1.938s-2.7215 1.1553-5.1151 2.5674c-2.6618 1.5703-3.3812 2.3027-1.8521 1.886 1.375-0.37477 3.9031-1.5301 5.618-2.5674zm25.101-12.636c2.2668-2.0625 6.0061-5.2125 8.3096-7 2.3034-1.7875 3.8019-3.2483 3.3299-3.2463-1.2568 0.00547-7.1671 3.7361-9.6831 6.112-1.1962 1.1297-3.4125 2.7023-4.925 3.4948s-2.75 2.1043-2.75 2.9151c0 2.2856 1.2538 1.7866 5.7186-2.2757zm-57.219-17.25c0.3399-0.55 0.168-1-0.382-1s-1.2781 0.45-1.618 1-0.168 1 0.382 1 1.2781-0.45 1.618-1z"/>
 </g>
</svg>
