<?xml version="1.0" encoding="UTF-8"?>
<svg viewBox="0 0 490.14044 365.77292" xmlns="http://www.w3.org/2000/svg">
 <defs>
  <filter id="a" x="-.01351" y="-.1071" width="1.027" height="1.2142">
   <feGaussianBlur stdDeviation="4.10266"/>
  </filter>
 </defs>
 <g transform="matrix(-.60416 .47566 .47566 .60416 -74.717 374.81)">
  <g transform="translate(-1.349 2.6891)">
   <path d="m-677.14 46.477h580.99c-90.074 77.6-457.83 60.776-580.99 66.551z"/>
   <path d="m-694.29 33.791h14.286v91.924h-14.286z"/>
   <path d="m-808.08 52.275h111.43v54.955h-111.43z"/>
   <path d="m-824.74 39.843h14.286v79.82h-14.286z"/>
  </g>
  <path d="m-695.62 36.473v91.938h14.281v-91.938h-14.281zm-130.47 6.0625v79.812h14.281v-79.812h-14.281zm147.59 6.625v66.562c123.17-5.7752 490.93 11.037 581-66.562h-581zm-130.94 5.8125v54.938h111.44v-54.938h-111.44z" filter="url(#a)"/>
 </g>
</svg>
