<?xml version="1.0" encoding="iso-8859-1"?>
<!-- Generator: Adobe Illustrator 19.0.0, SVG Export Plug-In . SVG Version: 6.00 Build 0)  -->
<svg version="1.1" id="Capa_1" xmlns="http://www.w3.org/2000/svg" xmlns:xlink="http://www.w3.org/1999/xlink" x="0px" y="0px"
	 viewBox="0 0 512 512" style="enable-background:new 0 0 512 512;" xml:space="preserve">
<rect x="213.333" y="102.4" style="fill:#AD6327;" width="290.133" height="170.667"/>
<rect x="247.467" y="136.533" style="fill:#FFD782;" width="221.867" height="102.4"/>
<circle style="fill:#AD6327;" cx="358.4" cy="187.733" r="17.067"/>
<g>
	<rect x="452.267" y="273.067" style="fill:#D3843D;" width="51.2" height="221.867"/>
	<rect x="8.533" y="102.4" style="fill:#D3843D;" width="204.8" height="392.533"/>
</g>
<rect x="8.533" y="196.267" style="fill:#FFD782;" width="204.8" height="17.067"/>
<g>
	<rect x="85.333" y="145.067" style="fill:#FDBD40;" width="51.2" height="17.067"/>
	<circle style="fill:#FDBD40;" cx="162.133" cy="256" r="17.067"/>
	<rect x="25.6" y="51.2" style="fill:#FDBD40;" width="153.6" height="51.2"/>
</g>
<rect x="42.667" y="17.067" style="fill:#FFD782;" width="119.467" height="34.133"/>
<path d="M238.933,247.467h238.933V128H238.933V247.467z M256,145.067h204.8V230.4H256V145.067z"/>
<path d="M358.4,162.133c-14.14,0-25.6,11.46-25.6,25.6c0,14.14,11.46,25.6,25.6,25.6s25.6-11.46,25.6-25.6
	C384,173.594,372.54,162.133,358.4,162.133z M358.4,196.267c-4.71,0-8.533-3.823-8.533-8.533c0-4.71,3.823-8.533,8.533-8.533
	s8.533,3.823,8.533,8.533C366.933,192.444,363.11,196.267,358.4,196.267z"/>
<path d="M187.733,51.2c0-4.71-3.823-8.533-8.533-8.533h-8.533v-25.6c0-4.71-3.823-8.533-8.533-8.533H42.667
	c-4.71,0-8.533,3.823-8.533,8.533v25.6H25.6c-4.71,0-8.533,3.823-8.533,8.533v42.667H0v409.6h221.867V281.6h221.867v221.867H512
	v-409.6H187.733V51.2z M494.933,486.4H460.8V281.6h34.133V486.4z M221.867,110.933h273.067v153.6H221.867V110.933z M51.2,25.6h102.4
	v17.067H51.2V25.6z M34.133,59.733h136.533v34.133H34.133V59.733z M204.8,486.4H17.067V213.333H204.8V486.4z M204.8,110.933v85.333
	H17.067v-85.333H204.8z"/>
<rect x="85.333" y="145.067" width="51.2" height="17.067"/>
<path d="M162.133,281.6c14.14,0,25.6-11.46,25.6-25.6c0-14.14-11.46-25.6-25.6-25.6c-14.14,0-25.6,11.46-25.6,25.6
	C136.533,270.14,147.994,281.6,162.133,281.6z M162.133,247.467c4.71,0,8.533,3.823,8.533,8.533c0,4.71-3.823,8.533-8.533,8.533
	S153.6,260.71,153.6,256C153.6,251.29,157.423,247.467,162.133,247.467z"/>
<g>
</g>
<g>
</g>
<g>
</g>
<g>
</g>
<g>
</g>
<g>
</g>
<g>
</g>
<g>
</g>
<g>
</g>
<g>
</g>
<g>
</g>
<g>
</g>
<g>
</g>
<g>
</g>
<g>
</g>
</svg>
