<?xml version="1.0" encoding="UTF-8"?>
<svg viewBox="0 0 416.78171 188.92458" xmlns="http://www.w3.org/2000/svg">
 <g transform="translate(13.391 13.886)">
  <path d="m209.96 148.75c-4.2749-1.5919-12.86-6.2666-19.078-10.388l-11.306-7.4938-16.946-1.6433c-9.3203-0.90381-17.537-2.0083-18.258-2.4544-0.77785-0.48074-0.84537 0.29063-0.16578 1.8938 2.1125 4.9834 2.5514 10.478 0.83711 10.478-3.2081 0-10.52-4.6291-17.239-10.914-3.849-3.6003-7.6663-6.0438-8.7762-5.6179-1.7443 0.66936-10.897-0.7761-39.789-6.2835-9.416-1.7949-19.178-5.535-38.156-14.619-6.9953-3.3482-15.782-7.4367-19.526-9.0856-5.4268-2.39-6.7165-3.6044-6.3594-5.9881 0.24638-1.6446 1.8189-3.8957 3.4944-5.0025 2.7506-1.8169 3.3417-1.6954 6.0861 1.2512 2.4954 2.6793 4.9861 3.4068 13.912 4.0632 5.9798 0.43981 11.07 0.66556 11.313 0.50172s-1.5428-2.5566-3.9667-5.3173c-2.6349-3.001-5.2272-4.7047-6.4465-4.2368-1.1217 0.43043-2.0394 0.04109-2.0394-0.8652s-0.63594-1.2548-1.4132-0.7744-1.4132 0.35893-1.4131-0.26989c1.1e-4 -1.2608-7.2218-1.3624-9.2942-0.13086-1.995 1.1856-7.6643-1.3877-7.6643-3.4789 0-3.0214 4.1206-7.9984 8.4948-10.26 2.7995-1.4477 8.394-2.1117 17.792-2.1117 14.158 0 29.328-2.3175 46.493-7.1024 23.077-6.4328 50.009-10.504 76.529-11.57 5.5596-0.22333 9.8722-0.79001 9.5834-1.2593s1.0749-1.5822 3.0302-2.4731c4.5298-2.0639 5.2426-2.0377 3.9856 0.14665-0.55912 0.97157-0.64963 1.4485-0.20117 1.0599s0.96429-1.3425 1.1462-2.1198c0.38103-1.6276 4.3034-4.8348 5.9942-4.9013 0.62881-0.02471 0.68584 0.74999 0.12672 1.7216-0.59062 1.0263-0.47754 1.273 0.26989 0.58884 0.70756-0.64773 1.2865-1.8379 1.2865-2.6449 0-2.045 22.196-13.974 24.451-13.141 1.0119 0.37373 1.5097 0.14525 1.1062-0.5077-0.7339-1.1875 8.2175-4.4332 12.226-4.4332 1.3843 0 2.1151 1.3556 2.0953 3.8863-0.07299 9.304 0.67179 11.802 5.3434 17.922 2.7204 3.5639 4.9462 6.7301 4.9462 7.036 0 1.0325-8.8727 3.6585-12.576 3.7222-2.295 0.03949 0.03992 1.2991 6.217 3.3537 13.768 4.5796 14.946 5.159 13.906 6.8419-0.54081 0.87505-0.2364 1.0629 0.74226 0.4581 1.7694-1.0935 17.981 4 21.18 6.6544 1.1086 0.91999 6.4476 1.485 12.719 1.346 12.915-0.2863 16.231 0.50531 15.401 3.6768-0.53243 2.0349 0.78549 2.3123 10.199 2.147 11.428-0.20071 19.369-2.5619 41.851-12.444 11.31-4.9712 24.632-7.9916 24.598-5.5766-0.0247 1.7277-7.135 15.529-11.734 22.775-2.0866 3.2879-3.7937 6.907-3.7937 8.0425s-0.64631 2.4639-1.4362 2.9521-1.0704 1.4796-0.62319 2.2032 0.06881 1.3156-0.84083 1.3156c-1.6132 0-0.9997 6.8636 1.1035 12.344 0.63989 1.6675 0.34357 1.9376-1.1428 1.0416-1.6713-1.0075-1.7031-0.83493-0.19057 1.0326 0.99883 1.2333 1.6744 2.7862 1.5012 3.451-0.66985 2.5709 2.0797 14.189 4.6085 19.472 1.4596 3.0496 2.3606 5.838 2.0022 6.1963-1.1805 1.1805-8.3146-2.5379-22.647-11.804-7.7726-5.0252-17.421-10.831-21.44-12.903l-7.3081-3.7659-9.297 2.5166c-8.9344 2.4184-10.917 3.861-7.8838 5.7357 4.3901 2.7133-2.7832 12.886-7.9062 11.212-1.8496-0.60436-2.1292-0.47366-0.8929 0.41739 1.4024 1.0107 1.1956 1.8441-0.93595 3.7732-1.5047 1.3618-3.9045 2.6972-5.3329 2.9675s-2.756 0.61977-2.9504 0.77639c-0.48345 0.38969-2.8147 0.95041-4.9462 1.1897-1.2405 0.13925-1.1449 0.59138 0.32103 1.5184 1.4282 0.90315 2.8788 0.60396 4.5929-0.94727 2.2272-2.0156 2.5054-2.0244 2.5054-0.0797 0 1.2032-0.98263 2.5647-2.1836 3.0256s-3.0992 3.0292-4.2182 5.7074-2.6918 5.2756-3.495 5.772c-2.1051 1.301-10.573-4.3153-15.478-10.265-3.4034-4.1289-3.8927-5.5284-2.5573-7.314 1.3483-1.8028 1.3048-1.9008-0.23737-0.53375-1.461 1.2951-2.5658 1.2487-4.878-0.20486-2.4795-1.5587-4.7922-1.5632-13.561-0.02617-5.8147 1.0192-11.077 1.5411-11.694 1.1599s0.16602 1.5992 1.7397 4.4009c7.1106 12.66-0.21779 18.898-15.51 13.203zm62.806-3.8238c0.43557-0.70477-0.4808-0.94858-2.0364-0.54177-3.2998 0.86291-3.7169 1.8232-0.79196 1.8232 1.12 0 2.3928-0.57663 2.8284-1.2814zm-2.5094-6.429c0-1.1317-0.54033-1.7237-1.2007-1.3156s-0.83485 1.3341-0.38765 2.0576c1.1427 1.849 1.5884 1.6408 1.5884-0.74209zm-74.428 0.11087c0-0.29345-1.1129-1.4064-2.4731-2.4731-2.2414-1.7578-2.2914-1.7078-0.53357 0.53357 1.8462 2.354 3.0067 3.1026 3.0067 1.9395zm28.264 0c0-0.29345-1.1129-1.4064-2.4731-2.4731-2.2414-1.7578-2.2914-1.7078-0.53357 0.53357 1.8462 2.354 3.0067 3.1026 3.0067 1.9395zm41.376-2.465c-0.87197-0.87198-1.2678-2.413-0.87963-3.4246s-0.61542-2.5463-2.2302-3.4105-2.936-1.1531-2.936-0.64194-1.1129 0.06752-2.4731-0.98582c-2.3502-1.82-2.35-1.7702 0.00308 1.0016 1.3619 1.6042 1.9978 3.444 1.4132 4.0885s-0.3815 0.78444 0.45143 0.311 2.5755 0.37853 3.8725 1.8932 2.8094 2.754 3.3611 2.754 0.28965-0.71342-0.58233-1.5854zm-4.8129-5.1273c-1.7578-2.2414-1.7079-2.2914 0.53356-0.53357 2.354 1.8462 3.1026 3.0067 1.9395 3.0067-0.29345 0-1.4063-1.1129-2.4731-2.4731zm-116.57 3.6277c-0.40815-0.66039-1.3341-0.83485-2.0576-0.38767-1.849 1.1428-1.6408 1.5884 0.74208 1.5884 1.1317 0 1.7237-0.54032 1.3156-1.2007zm49.696-2.4471c-1.205-1.9496 2.3917-2.7509 5.3954-1.2019 1.9585 1.0099 2.3705 0.92122 1.5895-0.34238-0.7729-1.2506-0.15863-1.4121 2.3026-0.60557 1.8462 0.60501 5.1256 0.97948 7.2876 0.83215s5.1684 0.39443 6.6809 1.2039c2.1561 1.1539 2.5889 1.0521 2.0043-0.47141-0.73048-1.9036 4.7306-2.8126 27.66-4.6039 10.068-0.78659 14.373-1.6736 15.996-3.2959 1.0688-1.0688 2.558-0.5848 5.1117 1.6616 3.1275 2.7512 3.2781 2.7818 1.1404 0.23214-2.6394-3.148-3.2958-5.5164-1.1637-4.1987 0.71459 0.44165 2.2314-0.1291 3.3706-1.2683 1.6844-1.6844 2.8836-1.7647 6.4202-0.42979 4.3452 1.6401 4.9878 3.8378 2.3764 8.1279-1.0724 1.7618-0.92413 1.8235 0.87751 0.36557 1.1923-0.96484 2.4378-1.6008 2.7679-1.4132s0.16227-0.21341-0.3729-0.89107-0.64009-2.0997-0.23319-3.1601c0.44903-1.1701-0.70534-2.4774-2.9368-3.3258-2.0222-0.76883-3.6767-1.7996-3.6767-2.2906s0.91283-0.54249 2.0285-0.11437 2.259 0.08701 2.5406-0.75804c0.36536-1.0961 1.3203-1.104 3.3316-0.02753 2.397 1.2828 2.854 1.0511 3.0496-1.546 0.16231-2.1548-0.11581-2.4952-0.94388-1.1554-0.78503 1.2702-1.4827 1.4-2.1059 0.39174-1.1511-1.8625 24.206-9.9667 32.731-10.461 3.4292-0.19878 6.2712-1.157 6.6986-2.2584 0.40834-1.0522 1.724-1.5365 2.9237-1.0761 1.2482 0.47901 1.812 0.23947 1.3179-0.55996-0.47486-0.76836-0.22643-1.397 0.55207-1.397s1.1731-1.2585 0.87686-2.7967-0.03912-3.1054 0.57134-3.4827c1.6128-0.99673-0.63223-13.995-2.5262-14.626-0.88083-0.29361-1.2323-1.1312-0.78106-1.8614s0.29622-1.2364-0.3445-1.1251c-2.8861 0.50136-4.7883-0.25602-3.9697-1.5806 0.49227-0.79651 0.05285-1.2735-0.97649-1.0599s-2.6439 1.6602-3.588 3.2147c-1.7164 2.8264-1.7164 2.8264-1.9074 0-0.16034-2.3734-0.3723-2.2601-1.3224 0.70659-1.0337 3.2277-1.1436 3.2696-1.2723 0.48561-0.11184-2.4196-0.78033-2.8802-3.2449-2.2357-2.8618 0.74837-2.8974 0.88421-0.45662 1.7404 2.4723 0.86724 2.4832 0.99164 0.16532 1.8811-3.2178 1.2348-9.5549-0.35367-8.4625-2.1212 0.4628-0.74881 2.2072-1.9126 3.8765-2.5861 2.2948-0.9259 2.4522-1.2464 0.64539-1.3142-1.3143-0.04928-2.7892 0.55673-3.2774 1.3467s-1.4118 1.1123-2.0524 0.71636c-1.1026-0.68147-3.6062 5.8306-3.1113 8.0931 0.1275 0.58295-0.33518 1.0599-1.0282 1.0599-1.1187 0-3.657-6.5561-3.3078-8.5435 0.07452-0.424-1.57-0.72939-3.6545-0.67866s-4.5864-0.87423-5.5599-2.0555c-1.5458-1.8757-1.6609-1.8345-0.90871 0.32536 0.60386 1.734 0.13085 2.4731-1.5828 2.4731-1.8844 0-2.0836 0.43429-0.87005 1.8965 0.86568 1.0431 1.1555 2.315 0.64411 2.8264s-0.20791 0.92987 0.67451 0.92987 1.2312 0.97261 0.77499 2.1613c-0.71731 1.8693-1.0763 1.8236-2.6567-0.33771-1.005-1.3745-1.5282-2.983-1.1627-3.5745s-0.04631-1.0755-0.91532-1.0755-1.2141-0.592-0.76696-1.3155 0.13632-1.7338-0.69081-2.245-1.3145-2.304-1.083-3.984c0.32819-2.3816-0.59094-3.3524-4.172-4.4066-2.5261-0.74367-4.5929-1.8366-4.5929-2.4287s-0.88958-0.73523-1.9768-0.31801-2.3923 0.08636-2.9001-0.73524c-0.61334-0.99244-2.0844-0.73304-4.3825 0.77279-2.131 1.3963-3.4593 1.6616-3.4593 0.69089 0-2.1544-3.8331-1.9994-4.7169 0.19076-0.42582 1.0553-0.75771 0.77082-0.82436-0.7066-0.06136-1.3602-1.0655-2.4731-2.2314-2.4731s-2.1198-0.67347-2.1198-1.4966 0.52995-1.1691 1.1777-0.76877 1.1777-0.17012 1.1777-1.2676-0.47564-1.7015-1.057-1.3422-1.379-0.14565-1.7727-1.1221c-0.43179-1.071-0.75999-0.79419-0.8273 0.6978-0.06225 1.3797-1.205 2.4635-2.5847 2.4515-2.1135-0.0185-2.1649-0.22083-0.3533-1.3916 1.5403-0.99545 1.6141-1.3758 0.26989-1.3916-1.0174-0.01189-1.4569-0.65757-0.97649-1.4348s0.19994-1.4132-0.6232-1.4132-1.4966 0.51439-1.4966 1.1431-0.95547 2.3775-2.1233 3.8863c-2.0739 2.6794-2.1011 2.68-1.1679 0.02476 0.75272-2.1417 0.45363-2.5259-1.4097-1.8108-2.3005 0.88278-3.4251-1.0018-1.3052-2.1873 0.58295-0.32602 0.23984-0.38933-0.76246-0.14069s-3.0885-0.33254-4.636-1.2915c-2.2749-1.4097-3.0457-1.3707-4.0257 0.20396-1.3382 2.1502-4.367 0.97741-4.3328-1.6777 0.0159-1.2362 0.29731-1.2556 1.0599-0.07297 0.75658 1.1733 1.5137 1.0977 2.7907-0.2786 1.103-1.1887 1.2339-2.2092 0.3533-2.7534-0.76951-0.4756-1.3991-0.15371-1.3991 0.71529s-0.56388 1.2315-1.2531 0.80557c-1.5561-0.96175-4.7233 2.6394-3.4453 3.9174 0.51144 0.51142 0.26581 0.92987-0.54582 0.92987-1.933 0-4.8601-3.5566-3.7998-4.6169 0.4531-0.45311-0.34733-0.63526-1.7788-0.40477s-3.5565-0.29418-4.7224-1.1659c-1.8843-1.4089-1.8843-1.2845 0 1.1194 2.0074 2.561 1.9463 2.612-1.1512 0.96134-2.5592-1.3638-2.9211-2.1646-1.6634-3.68 1.3462-1.6221 1.0183-1.6635-2.0175-0.25474-1.9938 0.92519-3.7166 2.954-3.8285 4.5086-0.16628 2.3096-0.31937 2.2151-0.83735-0.5169-0.34864-1.8388-1.8447-3.66-3.3247-4.047s-2.2817-1.3656-1.7817-2.1745c0.57223-0.9259 0.20856-1.038-0.98155-0.30243-1.4724 0.90999-1.2176 1.6153 1.1519 3.1886 2.606 1.7303 2.759 2.3036 1.0666 3.9961-2.6476 2.6476-4.3985 2.5319-2.1778-0.14387 1.4818-1.7854 1.2173-2.1198-1.6767-2.1198-1.8898 0-4.6704-0.93368-6.1791-2.0749-3.7218-2.815-11.929-2.8459-11.929-0.04494 0 1.1659 0.67348 2.1198 1.4966 2.1198s1.1851-0.50401 0.80436-1.12 1.1298-1.2589 3.3567-1.4286 4.4462 0.33434 4.9318 1.1201 0.1719 1.4286-0.6971 1.4286-1.1176 0.79073-0.54708 1.7665c0.5681 0.97158-0.34827 0.55505-2.0364-0.92563s-3.0693-2.0318-3.0693-1.2247-1.2728 1.8002-2.8284 2.207-2.472 0.16299-2.0364-0.54178-0.67644-1.2717-2.4712-1.2598c-2.4519 0.01627-2.7701 0.33378-1.28 1.2772 1.4246 0.90193 0.94739 1.1944-1.6944 1.0383-2.3215-0.13718-3.183-0.71233-2.3364-1.5598 0.7376-0.73839 1.3218-2.3282 1.2981-3.533-0.03537-1.8031-0.29766-1.7532-1.4834 0.28264-1.6741 2.8742-4.9853 3.2631-6.0169 0.7066-0.39204-0.97157-0.8077 0.14132-0.9237 2.4731-0.17991 3.6167-0.37794 3.8244-1.3479 1.4132-0.62537-1.5545-0.93972-3.1762-0.69856-3.6037s-1.0692-0.77726-2.912-0.77726-3.036 0.50876-2.6517 1.1306-0.29271 1.1306-1.5045 1.1306-2.2032-0.63594-2.2032-1.4132-1.4309-1.3394-3.1797-1.2493c-2.4197 0.12475-2.5845 0.3192-0.6893 0.81355 1.3697 0.3573 2.1207 1.2478 1.6688 1.9789s-1.4063 0.96793-2.1209 0.52625c-0.71507-0.44192-0.8867 0.27235-0.38168 1.5884 0.79738 2.0779 1.1195 2.1176 2.4569 0.30267 0.84656-1.1488 2.3555-1.8139 3.3532-1.4779s2.7465-0.16298 3.8863-1.1089c1.502-1.2465 2.0723-1.2736 2.0723-0.09827 0 0.89186-1.883 1.9982-4.1844 2.4584-5.3647 1.0729-4.5759 5.6005 1.3832 7.9396 1.7021 0.66809 1.6515 0.84306-0.26984 0.93371-1.3004 0.06136-4.322-1.846-6.7146-4.2386-3.7808-3.7808-4.4722-4.0323-5.2822-1.9215-0.86369 2.2508-1.0845 2.233-3.0146-0.24269-1.8014-2.3107-1.9675-2.3374-1.2303-0.19827 0.99607 2.89-0.51798 3.2235-3.2081 0.7066-1.5489-1.4491-1.7466-1.1807-1.1004 1.4939 0.51591 2.1355 0.21655 3.0674-0.86764 2.701-0.91041-0.30767-1.5761-1.9713-1.4792-3.6969 0.12679-2.259-0.42377-2.9073-1.9664-2.3154-1.8518 0.71059-1.8756 0.49871-0.17609-1.5614 1.7807-2.1584 1.6836-2.2329-1.0275-0.78866-1.6466 0.87716-3.3955 1.1933-3.8863 0.70243s-0.8924-0.20347-0.8924 0.63855 1.7488 2.1697 3.8863 2.9504 3.0538 1.4696 2.0364 1.531-1.4472 0.90649-0.9551 1.8781-0.0174 0.6536-1.1323-0.7066c-2.6786-3.2679-3.799-3.1275-3.1214 0.39104 0.30719 1.5951-0.05205 2.4911-0.81079 2.0222-0.74931-0.46309-0.99651-1.434-0.54931-2.1575s0.13958-1.3156-0.68355-1.3156-1.4968 0.47695-1.4971 1.0599-2.226 1.1818-4.9462 1.3308-4.9457-0.39596-4.9457-1.2111 0.85259-1.1549 1.8946-0.755 2.7856 0.17642 3.8745-0.49655c1.6339-1.0098 1.6556-1.5425 0.1242-3.049-1.518-1.4932-1.773-1.4656-1.4014 0.15148 0.33258 1.4474-1.1543 1.9946-5.5518 2.0433-3.3034 0.03657-6.0061 0.61539-6.0061 1.2863s-0.7342 0.76604-1.6316 0.21144c-1.0856-0.67091-1.2444-0.38201-0.47477 0.86335 0.8332 1.3482 0.5175 1.6264-1.1286 0.99474-1.9204-0.73693-2.1925 0.01454-1.704 4.706 0.33603 3.2273-0.02588 5.583-0.85773 5.583-0.79148 0-1.1518-1.8228-0.80066-4.0506 0.74064-4.6995-0.85807-8.0546-3.1601-6.6318-0.87683 0.54192-1.1253 1.7363-0.55218 2.6542s1.1792 2.9407 1.3468 4.4952-0.02429 2.0366-0.42642 1.0712c-0.56427-1.3546-1.4277-1.3824-3.7834-0.12164-3.7315 1.997-9.7295 2.7845-8.7158 1.1442 0.40515-0.65553 0.11808-1.5742-0.63791-2.0414s-1.0244-1.942-0.59634-3.2773c0.59986-1.8715 0.46301-1.9864-0.59726-0.50144-1.1612 1.6264-1.4947 1.6264-2.1415 0-0.54835-1.3788-0.79782-1.2472-0.87767 0.46329-0.06136 1.3143 0.52437 2.7827 1.3016 3.2631 2.2226 1.3736 1.6494 3.5349-0.69849 2.634-1.1614-0.44569-1.7598-1.3796-1.3298-2.0754s0.07088-1.2651-0.79812-1.2651-1.1312-0.79492-0.58268-1.7665c0.76803-1.3604 0.58518-1.3858-0.7954-0.11042-0.98601 0.91083-2.6692 1.3197-3.7403 0.9087s-1.9476 0.03448-1.9476 0.99007c0 1.2935-0.6008 1.2418-2.3512-0.20211-2.132-1.7587-2.1932-1.6431-0.65689 1.2402 2.0118 3.7756 0.63395 4.2081-2.251 0.7066-1.776-2.1555-1.9447-2.1734-1.3135-0.13941 0.75521 2.4339-2.273 2.8126-4.3388 0.54258-0.60557-0.66543-0.20784-0.69156 0.88405-0.05809 1.328 0.77043 1.6544 0.61676 0.9862-0.46432-0.72006-1.1651-1.9559-0.98861-4.4304 0.6327-2.6641 1.7456-3.1329 2.8069-2.0958 4.7447 0.73474 1.3729 0.97706 2.855 0.53849 3.2935s2.5088 2.4728 6.5496 4.5204 7.6928 3.3773 8.1154 2.9547-0.27293-1.1679-1.5456-1.6563-2.0065-1.3854-1.6307-1.9935-0.42277-1.0184-1.7746-0.91181c-4.3352 0.34171-2.6804-3.7785 1.7562-4.3726 6.1556-0.82433 6.2113-1.7536 0.0914-1.5235-2.9404 0.11054-5.601 1.0342-6.004 2.0843-1.1087 2.8892-3.0758 2.2403-2.2922-0.7561 0.57016-2.1803 1.9668-2.6124 7.9936-2.4731 6.6883 0.15458 7.2744 0.43633 6.9661 3.3485-0.18515 1.7488 0.32934 3.1797 1.1433 3.1797s1.0869 0.63594 0.60653 1.4132-1.5093 1.4132-2.2866 1.4132-1.0202-0.63594-0.5398-1.4132 0.23746-1.4132-0.5398-1.4132c-2.5743 0-3.2135 2.8306-0.84448 3.7396 1.6786 0.64415 1.8544 1.1859 0.63017 1.9425-1.2379 0.76506-0.85011 2.1956 1.4318 5.2821 1.7212 2.3281 2.8236 5.4241 2.4497 6.88-0.61395 2.3907-0.69568 2.3659-0.84374-0.25538-0.22-3.8952-7.6243-10.85-17.122-16.082-4.2749-2.355-6.6222-4.2934-5.2161-4.3075s2.157-0.67192 1.6688-1.4618-1.5877-1.0036-2.4434-0.47478c-0.95648 0.59114-1.2516 0.16896-0.76615-1.096 0.43425-1.1316-0.09362-3.2653-1.173-4.7415s-1.9626-1.8904-1.9626-0.9173c0 1.0031-0.76348 1.3357-1.7665 0.76938-1.4132-0.79785-1.4132-0.61669 0 0.90584 2.057 2.2161 2.3764 4.708 0.45095 3.518-0.72356-0.4472-1.6978-0.19453-2.1651 0.56146s-1.7444 1.0311-2.8382 0.61139-3.1402-0.09331-4.5476 0.72536c-2.1004 1.2218-1.5348 1.4962 3.1564 1.5314 8.4972 0.06389 19.966 7.4343 25.919 16.657 5.1243 7.9388 9.8316 9.738 12.918 4.9374 1.4314-2.2262 1.5006-2.1909 0.69309 0.3533-0.68861 2.1697-0.50885 2.4413 0.77365 1.1688s0.48043-2.8832-3.4585-6.939c-6.0524-6.232-5.5832-8.5773 0.54208-2.709 2.3156 2.2184 4.6407 3.603 5.167 3.0767s0.23491-0.95687-0.64751-0.95687c-0.88892 0-1.2496-1.1029-0.80882-2.4731 0.59506-1.8498 0.45537-1.998-0.55428-0.5881-1.099 1.5346-1.508 1.4727-2.201-0.33317-0.63885-1.6648-0.02213-2.1495 2.4721-1.9431 2.3486 0.19438 3.0847 0.91377 2.5097 2.453-0.72594 1.9433-0.52754 1.9496 1.8421 0.05811 1.545-1.2332 2.2118-1.381 1.5944-0.3533-0.66785 1.1116-0.24451 1.7665 1.1419 1.7665 2.8188 0 2.7724-0.63703-0.2699-3.7063-2.357-2.3779-2.3404-2.4428 0.3533-1.3847 4.2712 1.6779 9.1858 2.0294 9.1858 0.65702 0-0.67038-1.5523-1.2189-3.4496-1.2189s-3.9046-0.73612-4.4606-1.6358c-0.68758-1.1125-0.06994-1.3897 1.9306-0.86655 2.2697 0.59352 2.761 0.24083 2.1507-1.5439-0.55266-1.6162-0.12984-1.4622 1.4034 0.51102 1.2069 1.5533 2.6664 2.3521 3.2434 1.7752s-0.10351-2.3226-1.5122-3.8791c-2.0702-2.2876-2.9941-2.5072-4.8198-1.146-1.6464 1.2276-1.5867 0.9511 0.22012-1.02 2.4385-2.6603 2.5261-2.6568 5.4022 0.2194 3.3434 3.3434 6.0674 13.604 4.7301 17.818-0.6252 1.9698-0.3931 2.5265 0.75698 1.8157 0.92919-0.57427 2.5186 0.12479 3.6141 1.5895 1.8135 2.4248 1.8965 2.3581 1.1426-0.91838-0.77287-3.3589-0.70982-3.3998 1.2791-0.83028 1.3798 1.7826 2.9554 2.3714 4.6279 1.7296 2.3558-0.904 2.3087-1.2149-0.66403-4.3792l-3.1999-3.4061 3.3415 0.71384c2.886 0.61655 3.0068 0.49972 0.88572-0.85711-3.1604-2.0217-5.9885-7.1027-3.9533-7.1027 0.80461 0 1.4629 0.89437 1.4629 1.9875 0 1.2977 1.1035 1.7781 3.1797 1.3842 2.9631-0.56222 2.9872-0.51184 0.3533 0.73957-2.1224 1.0084-2.2691 1.3676-0.58883 1.4422 2.9332 0.1302 4.1001-1.1394 3.2009-3.4826-0.3994-1.0408-1.7865-1.5546-3.0823-1.1417-1.873 0.59676-1.9536 0.46398-0.39283-0.64757s1.1315-1.8488-2.1198-3.6097c-2.5647-1.3891-3.2178-2.2325-1.7564-2.2681 1.2797-0.03112 4.3306 2.2257 6.7797 5.0151 2.8917 3.2935 5.2285 4.7741 6.665 4.2229 1.8044-0.69241 1.8851-1.2426 0.4382-2.986-0.97556-1.1755-1.3805-2.5304-0.89991-3.0111 1.6918-1.6918 5.0233 2.6173 5.4534 7.0535 0.23924 2.4682 1.0709 4.3894 1.8482 4.2693s1.862 0.50784 2.4105 1.3954 0.89335 0.23324 0.7646-1.4761c-0.17734-2.3542-0.66713-2.7293-2.0572-1.5756-1.3957 1.1583-1.8245 0.78965-1.8245-1.5686 0-1.7451 0.62844-2.6944 1.4482-2.1878 0.79651 0.49227 1.3254 0.37082 1.1753-0.2699s0.23999-3.6408 0.86684-6.6668c1.1128-5.3722 1.1814-5.4241 2.9063-2.201 0.97163 1.8155 1.67 5.3541 1.552 7.8636-0.19048 4.05 0.26405 4.6361 4.0443 5.2152 2.3424 0.35886 4.9972 0.06013 5.8995-0.66385 1.0146-0.81401 1.9537-0.80984 2.461 0.01091 0.45115 0.72997-0.77556 2.3729-2.726 3.6509-3.2605 2.1364-3.617 2.1393-4.4241 0.03609-0.70391-1.8343-1.1145-1.9141-2.0727-0.40256-0.89468 1.4114-1.2003 1.4412-1.2165 0.1185-0.01189-0.97158-0.55158-1.7665-1.1993-1.7665s-1.1777 0.91858-1.1777 2.0413 0.63265 1.9176 1.4059 1.7665 1.8757 1.3151 2.45 3.2582c1.0257 3.4705 1.0466 3.4753 1.185 0.26989 0.0788-1.8254 0.77365-2.872 1.5771-2.3754 0.78993 0.48822 1.0096 1.5779 0.48824 2.4216-0.57052 0.92313-0.28917 1.1267 0.7066 0.51129 0.91003-0.56242 1.3084-1.5827 0.88537-2.2672s0.47865-1.9125 2.0038-2.7288c4.3209-2.3125 5.0549-1.7631 2.118 1.5852-1.4807 1.6881-1.9565 2.6412-1.0574 2.1178 1.0809-0.62912 1.3928-0.02636 0.92065 1.7791-0.45856 1.7536-1.5491 2.4714-3.0479 2.0064-1.8045-0.55994-1.7117-0.21724 0.40936 1.511 2.3182 1.8888 2.3858 2.2352 0.43671 2.2352-1.2686 0-2.7186-0.66682-3.2223-1.4818-0.63343-1.0249-1.4919-1.0037-2.784 0.06863-2.1193 1.7588-4.3077-0.42959-2.8264-2.8264 0.48037-0.77726 0.44304-2.1096-0.08297-2.9606-0.54001-0.87375-2.0844 0.97199-3.5473 4.2396-2.7084 6.0493-4.6923 7.2486-6.0666 3.6672-0.44739-1.1659-0.03847-2.1295 0.9087-2.1414 1.2724-0.016 1.2961-0.29277 0.0906-1.0599-1.4944-0.95101-1.9014-1.7937-1.9014-3.9366 0-0.42818-2.2258 0.91918-4.9462 2.9941-5.2279 3.9875-6.3605 3.2589-2.8112-1.8084 1.3514-1.9294 1.6107-3.3721 0.7066-3.9308-0.78558-0.48553-1.4284 0.07114-1.4284 1.237s-0.70407 2.5549-1.5646 3.0868c-1.0548 0.65192-1.2826-0.12665-0.69916-2.3897l0.86545-3.3567-1.6799 3.2767c-1.0872 2.1207-2.5686 3.0443-4.1987 2.618-1.3854-0.36229-2.3816-0.01347-2.2138 0.77514 0.45473 2.1378-7.5813 3.4638-13.234 2.1836-0.90916-0.20589-1.9666 0.48701-2.35 1.5398-1.1471 3.1506 15.719 1.0388 19.986-2.5024 3.6177-3.0024 2.6095 0.47607-1.166 4.023-1.8856 1.7714-4.1114 2.7987-4.9462 2.2827s-1.5178 0.05338-1.5178 1.2651 0.68136 2.2032 1.5141 2.2032 0.50897 1.0052-0.71958 2.2337-1.906 2.7641-1.5053 3.4123-0.07049 1.486-1.0469 1.8618-0.38851 0.61607 1.3065 0.53394c1.7321-0.08392 2.6964-0.7945 2.2018-1.6225-0.48397-0.81021 0.16816-0.62346 1.4492 0.41503s2.993 1.4779 3.8043 0.97649 1.4751-0.24531 1.4751 0.56911 1.4309 1.4163 3.1797 1.3375 5.4055 0.35354 8.1259 0.96078c4.4146 0.98541 4.7479 0.86282 3.1008-1.1406-1.5184-1.8469-1.5184-2.1951 0-1.9651 1.015 0.15377 2.7993 0.86073 3.9652 1.571 1.8011 1.0973 1.8405 0.9468 0.26216-1.0009-1.0217-1.2608-2.932-2.0855-4.2451-1.8326-2.6723 0.51465-14.143-8.4398-12.682-9.9004 0.51335-0.51336 2.2488 0.29211 3.8564 1.7899 2.0257 1.8872 4.2676 2.5259 7.3026 2.0805 3.1068-0.45599 3.8246-0.99444 2.4698-1.8529-1.5489-0.98155-1.5093-1.2048 0.21012-1.1817 2.2776 0.03056 10.01 4.0342 7.9529 4.1178-0.67813 0.02753-0.52465 0.9035 0.34103 1.9466s1.1219 2.3486 0.56941 2.9011 0.19328 0.54492 1.6573-0.01688c1.7751-0.68118 2.3416-0.5032 1.7004 0.53426-0.52881 0.85565-0.37099 1.9206 0.35071 2.3667 2.5321 1.5649 0.6583-3.464-2.0555-5.5167-3.6972-2.7964-0.67411-2.7496 3.325 0.05148 1.7405 1.2191 2.7376 2.9072 2.2159 3.7514-0.55342 0.89546-0.29398 1.1303 0.62277 0.5637 0.90764-0.56094 2.4683 0.76325 3.6948 3.135 2.6689 5.1611 4.8846 5.7757 24.714 6.8557 12.025 0.65493 15.862 0.4629 15.108-0.75621-1.468-2.3753 1.3289-2.0055 3.3623 0.44451 0.94878 1.1432 3.0764 1.9381 4.7281 1.7665s3.0996 0.48287 3.2175 1.4544c0.3357 2.7652 0.5127 3.1797 1.3578 3.1797 0.43451 0 0.43053-0.58162-0.0088-1.2925zm32.351-10.414c-0.38294-0.99792-2.4298-1.9573-4.5486-2.132s-4.0643-0.94806-4.3234-1.7186c-0.63205-1.8798-4.4751-1.7977-4.4751 0.09558 0 0.82314 0.56931 1.1448 1.2651 0.71472s1.6192 0.14082 2.052 1.2686c0.65083 1.6961 0.18791 1.7776-2.6783 0.47164-1.9058-0.86835-3.4652-2.0252-3.4652-2.5708s-1.5898-0.8175-3.533-0.6042c-3.4747 0.38143-4.7745-1.2556-2.2405-2.8217 0.71087-0.43935 1.5741 7e-5 1.9183 0.97649s0.55751-1.1502 0.474-4.7258c-0.12827-5.4936-0.58979-6.5074-2.9782-6.5419-5.2818-0.07637-6.3594-0.38064-6.3594-1.7956 0-0.77726 0.79493-1.2542 1.7665-1.0599 0.98873 0.19775 1.9611-1.3344 2.2086-3.4799 0.39375-3.4144 0.89019-3.7436 4.5439-3.0129 3.6037 0.72075 4.0318 0.45689 3.5254-2.1729-0.31705-1.6463-0.24957-2.9932 0.14996-2.9932 1.0252 0 5.2117 4.3033 4.579 4.7068-0.28686 0.18293-1.5938 1.1507-2.9043 2.1506-1.8203 1.3888-3.1547 1.4428-5.6528 0.22875-3.1228-1.5177-3.1465-1.4903-0.52683 0.60852 1.5088 1.2088 3.1896 2.1978 3.7351 2.1978s1.3706 0.98694 1.8335 2.1932c0.54986 1.4329 0.27407 1.8424-0.79556 1.1814-1.1238-0.69454-1.3253-0.19909-0.64256 1.5801 0.54705 1.4256 0.39096 2.965-0.34685 3.421-0.79005 0.48827-0.47915 2.2775 0.75634 4.3526 1.1538 1.9379 1.7432 2.3776 1.3098 0.977s-0.23141-2.2025 0.44887-1.7821c1.6739 1.0346 3.9456-1.9136 5.1392-6.6696 0.72433-2.8859 1.4391-3.5378 2.7167-2.4774 0.95358 0.7914 2.1024 1.0703 2.5529 0.61978s0.62607 0.93949 0.39013 3.0889-1.458 4.6605-2.7156 5.5801c-2.7211 1.9897-2.9925 3.6214-0.52017 3.127 0.97157-0.19432 1.6075 0.44162 1.4132 1.4132s0.35158 1.7665 1.2131 1.7665c0.94512 0 1.2308-1.3372 0.72025-3.3713-0.53544-2.1334-0.07277-4.0131 1.26-5.1192 1.7189-1.4265 2.1061-1.3263 2.1061 0.5449 0 1.261-0.57641 2.2928-1.2809 2.2928s-0.9483 1.2719-0.54178 2.8264 1.2414 2.8264 1.8552 2.8264 0.78348-1.2719 0.37696-2.8264c-0.5672-2.169-0.04336-2.8264 2.2521-2.8264 1.9149 0 2.9834 0.88989 2.9696 2.4731-0.01871 2.1378-0.22839 2.1857-1.5465 0.3533-1.2949-1.8002-1.4075-1.7537-0.74668 0.30805 0.42801 1.3353 0.12668 2.8305-0.66963 3.3226s-1.1064 1.7844-0.68923 2.8716 0.44062 1.9768 0.05199 1.9768-1.0199-0.81647-1.4028-1.8144zm-17.587-19.925c0-0.29797-1.2728-0.8746-2.8284-1.2814s-2.472-0.163-2.0364 0.54177c0.76065 1.2308 4.8647 1.8548 4.8647 0.73963zm21.198 18.999c0-1.411 0.94692-3.3514 2.1042-4.3119s1.7893-2.2559 1.4044-2.8787 0.09903-1.4862 1.0755-1.9185c1.2024-0.53247 1.0912-0.74542-0.3445-0.65987-1.1659 0.06947-3.3542 0.05098-4.863-0.04112-2.662-0.16248-2.6653-0.22442-0.11156-2.0918 3.0146-2.2043 4.1165-6.5443 1.6698-6.5765-0.92833-0.01224-0.72052-0.6168 0.47834-1.3916 1.1659-0.75346 1.4839-1.3894 0.7066-1.4132s-0.45929-0.66949 0.7066-1.4348c1.5267-1.0022 1.6633-1.6881 0.48825-2.4515-2.6078-1.6941-2.7651-3.1835-0.48825-4.6228 1.8419-1.1644 1.8183-1.3428-0.18027-1.3617-1.265-0.0119-3.0917-0.97554-4.0593-2.1414s-2.9533-2.1198-4.4126-2.1198-2.6534-0.5764-2.6534-1.2809 1.3723-0.92202 3.0496-0.48341c2.5725 0.67271 2.9248 0.32036 2.2521-2.2521-0.43862-1.6773-0.22108-3.0496 0.48341-3.0496 1.6061 0 1.0408-3.1988-0.79798-4.5161-0.75867-0.54349-0.83014-1.4913-0.15982-2.1198s1.5493-0.18282 1.9611 0.98307 0.48368 2.302 0.15983 2.5246 0.32418 0.96911 1.4401 1.6588c1.6746 1.035 1.7085 1.64 0.19414 3.4647-1.8841 2.2702-1.7175 2.4141 5.1188 4.4256 1.172 0.34482 1.327 1.7596 0.50624 4.6214-0.65058 2.2684-0.66218 4.9669-0.02579 5.9966 0.67674 1.095 0.26062 3.6058-1.0023 6.0481-2.034 3.9334-2.0076 4.1227 0.45649 3.2598 2.4881-0.87131 2.493-0.82051 0.10129 1.04-2.1618 1.6816-2.2137 2.0716-0.37026 2.779 1.2554 0.48175 2.005 0.11165 1.808-0.89276-0.18499-0.94359 0.81732-1.6205 2.2273-1.5043 2.4294 0.2003 2.4364 0.07076 0.13427-2.4731-1.4205-1.5697-1.7516-2.6845-0.79718-2.6845 0.89773 0 1.6322-1.3399 1.6322-2.9776 0-2.1802 0.62121-2.7392 2.3197-2.0874 1.8599 0.71371 1.9939 0.49762 0.67623-1.0901-1.1742-1.4148-1.2312-3.0645-0.1999-5.7771 0.79398-2.0883 1.4436-5.3453 1.4436-7.2379s0.57373-3.441 1.275-3.441c1.4655 0 3.9245 6.742 3.6081 9.8924-0.1171 1.1659-0.30978 3.5882-0.42817 5.3829-0.14542 2.2046-0.78826 2.9188-1.9818 2.2018-1.2879-0.77375-1.2614-0.43796 0.09806 1.2395 1.2708 1.568 1.4441 3.1171 0.54427 4.8642-0.72617 1.4099-1.0353 3.3584-0.6869 4.3299s0.05047 1.7665-0.66203 1.7665-1.2954 0.92595-1.2954 2.0576 0.52995 1.7301 1.1777 1.3298 1.1777 0.2636 1.1777 1.4754c0 3.0224-0.75675 2.7878-4.6901-1.4541-2.77-2.9873-3.544-3.2594-4.2248-1.4852-0.57298 1.4932-0.1934 1.9265 1.2143 1.3863 1.1263-0.4322 2.0478-0.37932 2.0478 0.11752s-1.4309 1.4785-3.1797 2.1814c-2.0392 0.81966-2.3771 1.3102-0.94214 1.3677 1.2307 0.04927 2.2376 1.0435 2.2376 2.2094 0 2.5687-1.8653 2.8062-2.7747 0.3533-0.46497-1.2541-1.4214-0.96916-3.2975 0.9825-1.8908 1.967-1.9617 2.2381-0.24921 0.95307 2.0429-1.533 2.364-1.4074 2.1934 0.85763-0.26257 3.4856-5.2934 3.934-5.2934 0.47171zm13.621-17.75c-0.4955-1.2913-0.00223-2.1198 1.262-2.1198 3.155 0 2.479-2.1945-0.75095-2.4378-1.5545-0.1171-2.8264 0.33151-2.8264 0.99688 0 1.8593 1.6294 5.6806 2.4222 5.6806 0.38863 0 0.34055-0.95391-0.10685-2.1198zm-9.1164-17.217c-1.0202-0.40823-2.239-0.35804-2.7086 0.11155s0.36508 0.80361 1.8548 0.74225c1.6463-0.06781 1.9812-0.40268 0.85382-0.8538zm3.268 36.295c-0.48038-0.77725-0.19994-1.4132 0.62319-1.4132s1.4966 0.63594 1.4966 1.4132-0.28044 1.4132-0.6232 1.4132-1.0162-0.63594-1.4966-1.4132zm6.6834-2.8327c-0.92363-1.479-1.123-3.0328-0.44315-3.453s1.6662 0.34524 2.1918 1.701c0.89568 2.3104 1.0775 2.2994 2.8992-0.17534 1.8703-2.5407 1.9353-2.5297 1.7227 0.29268-0.12151 1.6131-0.5061 2.6478-0.85464 2.2993s-1.3544-0.03561-2.2352 0.69539c-1.0644 0.88335-2.1647 0.42729-3.2808-1.3599zm-3.2585 0.35963c-0.05947-0.58295-0.32116-2.1728-0.58156-3.533s0.17428-2.4731 0.96592-2.4731 1.103 0.87642 0.69199 1.9476-0.03393 2.661 0.83804 3.533c1.1718 1.1717 1.1429 1.5854-0.11043 1.5854-0.93271 0-1.7445-0.47696-1.804-1.0599zm12.665-1.507c1.591-1.1126 1.4067-1.6636-0.98445-2.9433-2.3796-1.2735-3.1991-1.1147-4.2879 0.83084-1.0402 1.8588-1.2648 1.3727-0.98854-2.1395 0.19663-2.4996 0.72459-4.9118 1.1732-5.3605s0.50503-1.6254 0.12528-2.615 0.38996-2.2139 1.7105-2.7206c1.9567-0.75086 2.0898-0.54642 0.7192 1.105-0.92495 1.1145-1.1435 2.359-0.48571 2.7655 1.6449 1.0166 5.1294-1.2993 4.2168-2.8026-0.90441-1.4898 2.5611-4.9223 3.7596-3.7238 0.47146 0.47145 0.85719 0.07773 0.85719-0.87495s0.66682-1.32 1.4818-0.81632c1.01 0.62422 0.94588 1.5616-0.20138 2.944-0.92576 1.1155-1.2746 2.4367-0.77523 2.9361s0.91772 0.00706 0.92962-1.094c0.01829-1.6918 0.22286-1.684 1.32 0.05029 1.8544 2.9314 0.35324 4.5572-2.6993 2.9236-1.9014-1.0176-2.8009-0.86601-3.3499 0.56462-1.7521 4.5658 4.5662 5.0288 7.5753 0.55514 1.1432-1.6996 3.4126-4.4023 5.0432-6.0061s3.7016-4.3129 4.6022-6.0202c1.3571-2.5727 1.2124-3.3518-0.84493-4.5499-2.3584-1.3734-2.3589-1.4478-0.00934-1.4886 1.3602-0.02364 2.4731-0.75678 2.4731-1.6292 0-1.0717 0.573-1.1332 1.7665-0.18965 3.1584 2.4971 9.5391 3.0137 9.5391 0.77237 0-1.7153 0.32396-1.7008 2.1198 0.09503 1.1659 1.1659 2.1295 3.9141 2.1414 6.107 0.01532 2.8212 0.38238 3.4177 1.2552 2.0397 0.67847-1.0712 1.9074-1.5311 2.7309-1.0222 0.91068 0.56282 1.2897-0.15262 0.96745-1.8261-0.71701-3.7231 0.7107-8.776 2.2167-7.8452 0.66976 0.41394 0.99732 2.6456 0.72792 4.9594s0.11911 4.5831 0.86336 5.0431 1.2279-0.66601 1.0748-2.5022c-0.48107-5.7693-0.0162-8.2847 1.5311-8.2847 0.82314 0 1.1036 0.63594 0.6232 1.4132s-0.18751 1.4132 0.65083 1.4132c0.85785 0 1.2419 1.5572 0.87836 3.5618-0.3642 2.0084-0.06809 3.2047 0.67897 2.743 0.72866-0.45035 1.3248-2.414 1.3248-4.3636 0-2.8182 0.54113-3.3731 2.6398-2.707 1.4518 0.4608 4.3682 0.18063 6.4809-0.62259 2.9601-1.1254 3.6974-1.0527 3.2142 0.31731-0.34479 0.97775-1.6645 1.6905-2.9327 1.584s-2.0063 0.29089-1.6402 0.88325 2.3394 1.077 4.3851 1.077 4.2734 0.87442 4.9503 1.9432 1.2878 1.3072 1.3575 0.52995c0.30387-3.3906 1.4488-8.3626 2.0684-8.9822 2.243-2.243 0.14539 8.5673-2.2543 11.618-2.8974 3.6834-11.12 5.6058-8.9483 2.092 0.5546-0.89736 0.40145-1.2565-0.34034-0.79801s-2.1173-0.39721-3.0567-1.9014c-1.3492-2.1603-1.3343-2.7396 0.07045-2.7566 1.2016-0.01463 1.0908-0.46602-0.34133-1.3916-3.0438-1.967-3.6339-1.7539-3.6339 1.3123 0 1.499 0.57915 2.6119 1.287 2.4731s1.6106 0.639 2.0062 1.7284c0.52729 1.4524-0.11515 1.7626-2.4081 1.163-2.3776-0.62175-2.9332-0.3122-2.3179 1.2913 0.61941 1.6142 0.10665 1.8861-2.1852 1.1587-2.0138-0.63915-2.6778-0.43799-2.0275 0.61419 0.83558 1.352-3.9303 2.3796-8.0323 1.732-0.58294-0.09204-1.0599 0.54645-1.0599 1.4189 0 1.096-0.65521 1.0425-2.1198-0.17303-1.1659-0.96761-2.1198-2.6353-2.1198-3.706s-0.79492-1.9565-1.7665-1.9684c-1.1777-0.01442-1.0599-0.47828 0.3533-1.3916 1.1659-0.75346 1.398-1.3796 0.51583-1.3916-2.4413-0.03293-6.4456 6.7064-4.6457 7.8188 0.82034 0.50698 1.8732 0.54015 2.3396 0.07369s0.06865-0.84811-0.88403-0.84811-1.3391-0.63594-0.85873-1.4132c1.32-2.1358 3.533-1.6932 3.533 0.7066 0 1.1659 0.67347 2.1198 1.4966 2.1198s1.0972 0.64631 0.60895 1.4362-1.4796 1.0704-2.2032 0.62321-1.3155-0.07155-1.3155 0.83474-0.98384 1.2703-2.1932 0.80618c-1.2576-0.48259-1.8249-0.24568-1.3298 0.5554 0.47487 0.76836-0.39301 1.397-1.9286 1.397s-3.0344 0.72714-3.3307 1.6158c-0.39532 1.186-1.4235 1.1422-3.865-0.16441-2.8416-1.5208-3.2076-1.4706-2.5113 0.344 0.57637 1.502 0.09414 1.9357-1.6463 1.4806-1.5703-0.41066-3.0533 0.54253-4.0963 2.633-1.5446 3.0958-1.5939 3.0426-0.89249-0.96287l0.7424-4.2396-2.2383 3.8863c-2.4382 4.2334-4.9744 5.1341-4.9744 1.7665 0-1.1659-0.56527-2.1198-1.2562-2.1198s-1.1679 1.0444-1.0599 2.321-0.75763 2.5968-1.9235 2.934c-1.7488 0.50571-1.7772 0.37342-0.16238-0.75589zm7.7394-3.7925c0.44739-1.1659 0.19745-2.1198-0.5554-2.1198s-1.3689 0.95391-1.3689 2.1198 0.24994 2.1198 0.55541 2.1198 0.92144-0.95391 1.3688-2.1198zm-9.8424-3.2975c0.40031-0.64773-0.17013-1.1777-1.2676-1.1777s-1.6679 0.52995-1.2676 1.1777 0.97075 1.1777 1.2676 1.1777 0.86732-0.52995 1.2676-1.1777zm28.795-9.507c-1.0396-1.0396 5.6056-7.6608 7.8047-7.7765 0.93624-0.04926 0.21267-0.68643-1.6079-1.4159-3.5687-1.4299-6.4286-0.53248-5.1086 1.6032 0.44718 0.72355-0.17839 1.3156-1.3902 1.3156-1.408 0-2.2032 1.2752-2.2032 3.533 0 1.9432 0.74193 3.533 1.6487 3.533s1.2922-0.35651 0.85648-0.79226zm40.156-5.8259c-1.0202-0.40823-2.239-0.35803-2.7086 0.11156s0.36509 0.8036 1.8548 0.74224c1.6463-0.06781 1.9812-0.40268 0.85381-0.8538zm-41.248-3.1908c0-1.9181-2.4936-3.1783-3.3969-1.7168-0.8446 1.3666 0.37917 3.0466 2.2193 3.0466 0.64771 0 1.1777-0.5984 1.1777-1.3298zm-80.929 23.766c0.95863-0.9658 2.0989-1.4 2.534-0.9649s-0.34922 1.2253-1.743 1.756c-2.0141 0.76692-2.1764 0.6046-0.7911-0.79111zm-3.6819-3.8287c0.88991-1.425 2.4878-2.5909 3.5508-2.5909 1.4852 0 1.3898 0.60003-0.41188 2.5909-1.2896 1.425-2.8875 2.5909-3.5508 2.5909s-0.47804-1.1659 0.41188-2.5909zm-25.235-3.134c-0.11412-1.5149 0.25023-2.7544 0.80966-2.7544s1.1576-1.6976 1.3294-3.7725c0.39959-4.8283 0.81425-5.1777 6.144-5.1777 4.0351 0 4.1987-0.16663 1.8497-1.8843-1.4173-1.0363-1.8194-1.8843-0.89358-1.8843s1.6833-1.5898 1.6833-3.533 0.67347-3.533 1.4966-3.533 1.1036-0.63594 0.62319-1.4132-0.04095-1.4634 0.9765-1.5248c1.4227-0.0858 1.442-0.27617 0.0834-0.82436-2.0975-0.84635-2.3874-4.7169-0.3533-4.7169 0.77726 0 1.4229 0.79493 1.4348 1.7665 0.01583 1.2916 0.30077 1.3279 1.0599 0.13495 1.7826-2.8012 3.5364-2.7194 4.6828 0.21835 1.0439 2.675 1.1083 2.656 1.2023-0.3533 0.11685-3.7402 2.3145-4.3021 2.7636-0.7066 1.4081 11.273-1.0672 22.182-3.968 17.489-0.93907-1.5195-1.7361-1.5684-3.8274-0.23479-2.5672 1.637-2.5663 1.6605 0.03159 0.83865 2.3692-0.74955 2.4495-0.57023 0.7066 1.5778-1.3029 1.6058-1.3704 2.0654-0.19988 1.3621 0.97158-0.58369 1.7665-0.38781 1.7665 0.43532s-1.1129 1.5413-2.4731 1.5959c-2.1148 0.08493-2.0636 0.27529 0.3533 1.3139 2.4836 1.0672 2.3434 1.2266-1.1551 1.3139-3.3561 0.08371-3.8406-0.34468-3.0845-2.7271 0.62642-1.9737 0.25396-2.8264-1.2346-2.8264-1.1724 0-2.5075 0.60817-2.9669 1.3515s-1.6098 1.1655-2.5565 0.93821-1.2443-0.14652-0.66133 0.17949c1.9105 1.0685 1.1086 3.5047-0.89995 2.734-1.3269-0.50918-1.7516 0.0444-1.3149 1.714 0.35468 1.3564-0.22035 3.1842-1.2778 4.0618-1.5049 1.249-1.9678 0.99716-2.1302-1.1586zm23.53-20.066c-0.06137-3.3034-0.48154-5.0636-0.93372-3.9115-1.3695 3.4891-4.4799 5.912-6.3632 4.9567-0.97754-0.49582-0.57076 0.07919 0.90395 1.2778s3.2236 1.8442 3.8863 1.4346 1.205-0.07127 1.205 0.75187 0.31797 1.4966 0.7066 1.4966 0.65639-2.7027 0.59503-6.0061zm-10.231 22.044c-1.739-1.739-1.0075-4.7319 1.1564-4.7319 2.3548 0 2.6485 1.2188 0.94173 3.9075-0.62412 0.98325-1.5683 1.3542-2.0982 0.82436zm-50.425-2.6121c0-1.9496-0.3703-2.8896-1.3918-3.533-0.61702-0.38863-0.35397-1.4186 0.58457-2.2888 1.265-1.1729 2.391-1.0816 4.3533 0.3533 2.3005 1.6821 2.3399 1.9354 0.30134 1.9354-1.5043 0-2.0538 0.76025-1.5321 2.1198 0.4474 1.1659 0.10947 2.1198-0.75095 2.1198s-1.5644-0.31797-1.5644-0.7066zm12.355-2.7315c0.36147-1.8909 1.6362-3.8137 2.8327-4.2729 3.2165-1.2343 3.8429 0.18803 1.2326 2.7984-1.2584 1.2584-2.288 2.8786-2.288 3.6003s-0.54776 1.3122-1.2172 1.3122-0.92148-1.5471-0.56-3.4381zm9.2562 1.6716c-0.03197-0.97157-0.54868-3.6102-1.1482-5.8636-0.62513-2.3495-0.55009-3.7812 0.1759-3.3566 0.6963 0.40732 2.5379 0.19464 4.0924-0.4726 2.5061-1.0757 2.426-1.1757-0.7066-0.88305-2.305 0.21536-3.398-0.32041-3.1447-1.5415 0.21356-1.0294-0.26339-1.4688-1.0599-0.97649s-1.4482 1.7434-1.4482 2.7802-1.1129 2.3089-2.4731 2.8267c-1.9829 0.75491-2.123 0.58881-0.7066-0.83804 0.97157-0.97877 1.7665-2.9243 1.7665-4.3233s0.74193-2.5438 1.6487-2.5438 1.2401-0.40858 0.74075-0.90798-1.7444-0.21384-2.7666 0.63456c-1.4241 1.1819-1.9077 0.89136-2.0684-1.2424-0.11538-1.5317 0.32103-2.4568 0.96982-2.0559 1.3219 0.81697 3.2433-3.1908 2.2783-4.7522-1.0054-1.6267 4.2382-4.2333 6.1452-3.0548 0.96178 0.59441 4.4827 0.56997 7.8244-0.05431s7.9033-0.5877 10.137 0.08129l4.0614 1.2163-4.2396 0.3269c-2.3318 0.17979-6.2408 0.19221-8.6866 0.02759-3.1654-0.21304-5.0574 0.5722-6.5651 2.7248-1.3188 1.8828-2.472 2.4516-3.0557 1.5071-0.51565-0.83434-1.695-1.5072-2.6206-1.4954-1.0582 0.01361-1.1584 0.40713-0.2699 1.0599 0.77726 0.57105 1.4132 1.9922 1.4132 3.1581s0.95391 2.2054 2.1198 2.3101l3.9815 0.3533c1.1999 0.10507 1.5428 1.1677 0.96467 2.9894-0.5146 1.6214-0.25395 2.8264 0.61136 2.8264 0.82965 0 1.4331-0.47695 1.3411-1.0599-0.59722-3.7824 0.22092-4.8945 2.3195-3.1528 1.7995 1.4934 2.0063 1.406 1.262-0.53356-0.86329-2.2497-2.338-2.8746-5.7807-2.4496-0.91297 0.1127-2.1302-0.55597-2.7049-1.4859-0.70918-1.1475-0.30385-1.4064 1.2614-0.80579 1.2685 0.48676 2.7013 0.24598 3.184-0.53506 0.56049-0.90688 1.6819-0.7569 3.103 0.41501 1.9497 1.6078 2.0394 1.485 0.72383-0.99127-1.3326-2.5085-1.0456-2.8431 2.5517-2.9747 2.2293-0.08155 3.7172 0.3954 3.3065 1.0599s0.24474 1.2082 1.4565 1.2082 2.2032 0.70398 2.2032 1.5644-0.91033 1.2151-2.023 0.78812c-1.4138-0.54254-1.8638 0.05021-1.4944 1.9686 0.5976 3.1031-0.76174 3.5534-3.2414 1.0737-1.2861-1.2861-1.3928-0.70046-0.46296 2.5416 0.93778 3.2699 0.61767 4.9421-1.4303 7.4712-1.4512 1.7921-2.3276 3.7614-1.9476 4.3763s-0.15336 1.4419-1.1852 1.8378-1.8762-0.17333-1.8762-1.2651 0.46192-1.9851 1.0265-1.9851 1.3518-0.84792 1.7495-1.8843-0.17022-1.8843-1.262-1.8843-1.9851 0.6515-1.9851 1.4478-0.85684 0.27597-1.9041-1.1562c-1.3391-1.8313-2.2067-2.1143-2.924-0.95366-0.56097 0.90769-1.7709 1.2127-2.6888 0.67777s-0.49366 0.36855 0.94269 2.0077 2.1937 3.6563 1.6831 4.4825c-1.2656 2.0478-3.104 1.8948-3.1751-0.26426zm45.869 0.79234c-3.6445-0.95241-3.0068-2.9121 0.94776-2.9121 2.322 0 3.1813 0.62421 2.6752 1.9431-0.41011 1.0687-0.83659 1.8694-0.94776 1.7792s-1.315-0.45477-2.6752-0.81023zm-83.54-2.567c-0.44568-1.1614-0.23188-2.1117 0.47512-2.1117 1.9157 0 3.1052 2.5114 1.6234 3.4272-0.70849 0.43787-1.6528-0.15412-2.0985-1.3156zm74.022-2.3816c-0.0119-1.3143 0.6143-2.7827 1.3916-3.2631 1.7885-1.1054 1.7885 0.76543 0 3.533-1.1806 1.8268-1.3729 1.7895-1.3916-0.2699zm-33.938-0.3533c0-0.34275 0.63594-1.0162 1.4132-1.4966s1.4132-0.19994 1.4132 0.62319-0.63594 1.4966-1.4132 1.4966-1.4132-0.28044-1.4132-0.6232zm106.81-0.59908c-0.54528-0.88226-0.31794-1.6041 0.50519-1.6041s1.4966-0.67348 1.4966-1.4966-0.56931-1.1448-1.2651-0.71471-1.6424-0.20139-2.1036-1.4032c-0.54716-1.4259-0.26965-1.8335 0.79867-1.1732 1.0934 0.67573 1.3374 0.2307 0.73477-1.3398-0.49632-1.2934-0.28642-2.3516 0.46644-2.3516s1.3688-0.55251 1.3688-1.2278-1.9758-0.99777-4.3907-0.71659c-6.1894 0.72065-7.4591-0.54753-4.7253-4.7198 1.3493-2.0593 1.589-3.11 0.56504-2.4772-1.1136 0.68823-1.4238 0.52568-0.83014-0.43495 0.5214-0.84366 0.30169-1.9334-0.48824-2.4216s-1.3932-1.963-1.3406-3.2774c0.0726-1.8139 0.46514-1.6236 1.6292 0.79 0.84344 1.7488 2.5492 3.17 3.7907 3.1581 1.8245-0.0175 1.8855-0.25707 0.3184-1.2498-1.0663-0.67546-1.6498-2.0949-1.2967-3.1543 0.43935-1.318 1.2091-0.86673 2.438 1.4295 1.4723 2.751 1.4513 3.574-0.1165 4.5675-1.2027 0.76212-1.306 1.2199-0.27822 1.2335 0.97832 0.01295 1.3125 1.2517 0.83274 3.0864-0.64813 2.4785-0.33038 2.884 1.6611 2.1198 1.3544-0.51973 2.7085-0.94496 3.0092-0.94496s0.18062-0.95391-0.26677-2.1198-0.04072-2.1198 0.91576-2.1198c1.0335 0 1.4318 1.1372 0.9901 2.8264-0.42312 1.618-0.04044 2.8356 0.89508 2.848 1.0745 0.01423 1.1361 0.37723 0.17976 1.0599-0.79994 0.57105-1.3678 2.3838-1.2619 4.0282 0.2594 4.0296-2.9293 9.9072-4.2316 7.7999zm-52.363-2.9464c-0.45628-0.73826 0.41829-2.0101 1.9435-2.8264 4.0086-2.1454 4.6658-1.8472 2.9589 1.3423-1.63 3.0457-3.5736 3.6341-4.9024 1.4841zm9.5247 0.48849c0.4696-0.4696 1.6885-0.51979 2.7086-0.11156 1.1274 0.45112 0.7925 0.78599-0.85381 0.8538-1.4897 0.06136-2.3244-0.27265-1.8548-0.74224zm-119.8-7.6254c-0.48038-0.77726-0.23746-1.4132 0.5398-1.4132s1.8062 0.63594 2.2866 1.4132 0.23746 1.4132-0.5398 1.4132-1.8062-0.63594-2.2866-1.4132zm54.408-2.8264c0-0.77726 0.28044-1.4132 0.62319-1.4132s1.0162 0.63594 1.4966 1.4132 0.19994 1.4132-0.62319 1.4132-1.4966-0.63593-1.4966-1.4132zm46.636-0.79001c0-1.2118-0.63594-1.8102-1.4132-1.3298s-1.4132 0.1533-1.4132-0.72683c0-2.5758 4.6436-0.92994 5.0409 1.7867 0.19898 1.3602-0.2179 2.4731-0.92638 2.4731s-1.2882-0.99144-1.2882-2.2032zm12.365 1.2673c0.97158-0.39203 2.5614-0.39203 3.533 0s0.17665 0.7128-1.7665 0.7128-2.7381-0.32076-1.7665-0.7128zm11.659-1.1839c0-1.1659 0.24993-2.1198 0.5554-2.1198s0.92145 0.95391 1.3688 2.1198 0.19745 2.1198-0.5554 2.1198-1.3688-0.9539-1.3688-2.1198zm-9.5097-1.5604c0.46961-0.46959 1.6885-0.51978 2.7086-0.11155 1.1274 0.45112 0.79249 0.78599-0.85382 0.85379-1.4897 0.06137-2.3244-0.27264-1.8548-0.74224zm-84.32-1.809c-2.4154-0.94787-2.2074-1.4243 2.1198-4.8557 3.7298-2.9577 4.3643-4.0822 2.8504-5.0511-2.3713-1.5175-0.83284-4.5535 1.7962-3.5447 1.0329 0.39636 1.7946 2.1174 1.6928 3.8246-0.21419 3.5897 1.7456 6.0383 5.6245 7.0272 1.5232 0.38831 0.42443 0.76742-2.4896 0.85901-2.8688 0.09016-5.6091 0.79987-6.0895 1.5771-0.99584 1.6113-1.7577 1.6339-5.5045 0.16356zm70.865-0.71761c-3.6861-2.7981-3.0132-4.8484 2.1198-6.4596 3.9689-1.2458 4.0649-1.3739 0.7066-0.94297-3.3112 0.42486-3.8863-0.01006-3.8863-2.9393 0-3.1254 0.20189-3.2361 2.2208-1.2172 2.8655 2.8655 3.3184 2.7982 2.4899-0.37012-0.45058-1.7231 0.08745-2.5909 1.6063-2.5909 1.3216 0 1.9795 0.7932 1.5614 1.8827-0.39735 1.0355-0.14704 3.3143 0.55622 5.064 1.378 3.4284 1.9865 1.5365 1.4768-4.5913-0.16163-1.9432 0.21909-3.0289 0.84602-2.4128s1.1708 3.4778 1.2085 6.3594c0.05487 4.1888 0.60985 5.2404 2.7681 5.2452 1.4847 0.0033 2.9635 0.79822 3.2863 1.7665 0.81858 2.4558-3.2425 2.2044-5.8062-0.35929-1.1659-1.1659-2.5892-2.1198-3.1629-2.1198s-0.629 0.41408-0.1229 0.92016c0.83612 0.83612-3.0082 4.6427-4.6887 4.6427-0.38863 0-1.8195-0.84479-3.1797-1.8774zm110.58-2.2724c0-1.5545 0.2438-2.8264 0.54178-2.8264s0.87437 1.2719 1.2809 2.8264 0.16272 2.8264-0.54178 2.8264-1.2809-1.2719-1.2809-2.8264zm-158.28-4.2396c-1.5575-1.0065-1.6259-1.3757-0.25806-1.3916 1.785-0.02075 1.6023-1.7151-0.91669-8.5008-0.69946-1.8843-0.54929-1.8843 1.3516 0 2.6195 2.5966 4.308 8.4792 2.4338 8.4792-0.75037 0-0.97126 0.63594-0.49089 1.4132 1.0844 1.7545 0.59513 1.7545-2.1198 0zm10.725-2.8342c0.11738-3.9653 1.7894-7.6932 2.1621-4.8206 0.65478 5.0465 0.33513 8.1871-0.87469 8.5935-0.77726 0.26111-1.3566-1.4367-1.2874-3.7729zm17.922 0.56724c0.46961-0.46959 1.6885-0.51979 2.7086-0.11156 1.1274 0.45112 0.79249 0.786-0.85382 0.8538-1.4897 0.06136-2.3244-0.27265-1.8548-0.74224zm73.104-7.1148c0-1.0581 0.63594-1.9238 1.4132-1.9238s1.4132-0.99144 1.4132-2.2032 0.60817-1.8273 1.3515-1.3679 0.9532 1.8731 0.46644 3.1416c-0.59161 1.5417-0.33688 1.9676 0.76831 1.2845 0.90935-0.56202 1.6534-0.42251 1.6534 0.31003s-1.5898 1.6358-3.533 2.0072c-2.3691 0.45289-3.533 0.0416-3.533-1.2484zm-211.18-0.36254c-0.43003-0.69582 0.13599-1.6174 1.2578-2.0478 1.3606-0.52211 1.7781-0.10089 1.2539 1.2651-0.91095 2.3739-1.4286 2.5352-2.5117 0.78272zm163.13-0.77128c0-0.34276 0.63594-1.0162 1.4132-1.4966s1.4132-0.19994 1.4132 0.62319-0.63594 1.4966-1.4132 1.4966-1.4132-0.28044-1.4132-0.62319zm41.993-1.7785c0.58155-1.5155 1.1312-1.773 1.4895-0.69779 0.31237 0.93712 1.2478 1.2837 2.0788 0.77009 0.893-0.55189 1.0985-0.26654 0.50249 0.6978-1.6355 2.6463-5.1283 1.9856-4.0708-0.7701zm-187.98-0.90394c-0.39598-1.0319 0.17332-1.8762 1.2651-1.8762 2.2252 0 2.6552 1.7744 0.71994 2.9704-0.69581 0.43004-1.5891-0.06238-1.985-1.0943zm30.868 0.57684c-0.44719-0.72355-0.16674-1.715 0.62319-2.2032s1.4362 0.10378 1.4362 1.3155c0 2.4823-0.848 2.8478-2.0594 0.88766zm72.76-0.04245c-1.1434-0.72309-1.711-1.6826-1.2613-2.1323s1.622 0.15167 2.6052 1.3363c2.0387 2.4565 1.6478 2.688-1.3439 0.79596zm-71.054-2.9994c-3.1858-3.4892-3.1151-4.0251 0.40935-3.1034 1.5854 0.41457 2.5448 1.0914 2.1321 1.5042s-0.0421 1.6038 0.82359 2.6469c2.4424 2.9429-0.5809 2.0016-3.365-1.0476zm18.725 0.82436c-1.9432-1.1108-2.8596-2.0422-2.0366-2.0697s2.7308 0.8836 4.2396 2.0248c3.4892 2.6391 2.3747 2.6618-2.203 0.04494zm130.01 0.79001c0-0.73139 0.62867-1.7183 1.397-2.1932 0.80109-0.4951 1.038 0.07216 0.5554 1.3298-0.93948 2.4483-1.9524 2.8962-1.9524 0.86341zm-45.222-1.4966c-1.2737-0.82313-1.448-1.3786-0.4367-1.3916 0.9257-0.0119 2.0761 0.6143 2.5565 1.3916 1.0844 1.7545 0.59513 1.7545-2.1198 0zm-92.369-2.1198c-0.49052-1.2783-0.00717-2.1198 1.2176-2.1198s1.7082 0.84149 1.2177 2.1198c-0.44741 1.1659-0.99535 2.1198-1.2177 2.1198s-0.77025-0.95391-1.2176-2.1198zm43.556 0.61258c-1.45-2.3462-0.14854-2.6715 1.8803-0.47004 1.0022 1.0875 1.1987 1.9773 0.43669 1.9773s-1.8047-0.67825-2.317-1.5072zm-28.912-1.3192c-1.2737-0.82313-1.448-1.3786-0.4367-1.3916 0.9257-0.0119 2.0761 0.61431 2.5565 1.3916 1.0844 1.7545 0.59513 1.7545-2.1198 0zm11.306-0.0834c0-0.82313 0.58467-1.1352 1.2993-0.69361s2.3044-0.20219 3.533-1.4307 2.2337-1.6796 2.2337-1.0022c0 1.8464-3.1405 4.6232-5.2288 4.6232-1.0104 0-1.8372-0.67347-1.8372-1.4966zm81.966 0.0834c0-0.77725 0.28044-1.4132 0.6232-1.4132s1.0162 0.63594 1.4966 1.4132 0.19994 1.4132-0.62319 1.4132-1.4966-0.63594-1.4966-1.4132zm-114.47-3.2974c0-1.5545 0.17995-2.5614 0.39989-2.2376s1.1638 1.5957 2.0974 2.8264c1.3645 1.7987 1.2861 2.2376-0.3999 2.2376-1.1552 0-2.0974-1.2696-2.0974-2.8264zm55.165 2.8512c-0.02755-0.63404 0.64043-2.443 1.4844-4.02 1.3786-2.576 1.1992-2.775-1.7665-1.9594-2.9398 0.80846-3.0154 0.72975-0.69169-0.71931 3.6707-2.289 5.341 0.11847 2.9962 4.3186-1.0848 1.9432-1.9949 3.0142-2.0224 2.3802zm-59.404-1.5902c0-0.34275 0.63594-1.0162 1.4132-1.4966s1.4132-0.19994 1.4132 0.62319-0.63594 1.4966-1.4132 1.4966-1.4132-0.28044-1.4132-0.6232zm51.258-3.057c0.46961-0.4696 1.6885-0.51979 2.7086-0.11156 1.1274 0.45112 0.79249 0.78599-0.85381 0.8538-1.4897 0.06136-2.3244-0.27265-1.8548-0.74224zm14.492-1.9148c-0.30059-0.48637 0.68129-0.97681 2.182-1.0898s2.7285 0.2849 2.7285 0.88431c0 1.3001-4.1272 1.4728-4.9104 0.20554zm8.7732-1.6464c0.95863-0.96581 2.0989-1.4 2.534-0.96491s-0.34921 1.2253-1.7429 1.756c-2.0141 0.76691-2.1764 0.60459-0.79111-0.79111zm34.647 0.62065c1.3602-0.3589 2.4731-1.2794 2.4731-2.0455s0.63594-0.99995 1.4132-0.51958c2.5555 1.5794 1.4794 2.914-2.4731 3.0671-2.1375 0.0828-2.7734-0.1431-1.4132-0.50198zm-24.378-3.1394c0-0.7045 1.2719-0.94829 2.8264-0.54178s2.8264 0.98292 2.8264 1.2809-1.2719 0.54178-2.8264 0.54178-2.8264-0.5764-2.8264-1.2809zm17.665-0.13231c-0.48037-0.77726-0.19994-1.4132 0.6232-1.4132s1.4966 0.63594 1.4966 1.4132-0.28043 1.4132-0.62319 1.4132-1.0162-0.63594-1.4966-1.4132zm72.78 80.94c0-0.47231-0.39691-0.46182-0.88204 0.0233s-2.0538-0.52178-3.486-2.2376-2.6251-2.5337-2.651-1.8177c-0.07489 2.0735 4.4469 6.4803 5.7946 5.6473 0.67338-0.41617 1.2243-1.1431 1.2243-1.6154zm-86.205-0.47108c0-0.82313-0.63594-1.1036-1.4132-0.62319s-1.4132 1.1538-1.4132 1.4966 0.63594 0.62319 1.4132 0.62319 1.4132-0.67348 1.4132-1.4966zm171.7-2.743c-1.4068-1.5545-3.1657-2.8264-3.9086-2.8264s0.15057 1.2507 1.9855 2.7794c4.3185 3.5977 5.1549 3.6181 1.923 0.04702zm-217.78-0.24016c-0.68706-1.1117-0.2514-1.3577 1.3298-0.75094 3.2136 1.2332 2.9734 0.0101-0.347-1.7669-2.213-1.1844-2.6139-1.0026-2.2279 1.0102 0.62684 3.2687 0.57654 3.161 1.477 3.161 0.4345 0 0.33018-0.74401-0.23184-1.6534zm133.7-2.5862c0-0.77726-0.67348-1.4132-1.4966-1.4132s-1.1036 0.63594-0.62319 1.4132 1.1538 1.4132 1.4966 1.4132 0.6232-0.63594 0.6232-1.4132zm83.011-3.9599c-0.10704-1.421-1.3919-2.6371-2.9066-2.7512-2.6516-0.19974-2.6534-0.14244-0.07363 2.4627 3.3087 3.3413 3.2095 3.3317 2.9803 0.28849zm-67.466 0.57812c0-0.30547-0.98694-0.93412-2.1932-1.397-1.2576-0.4826-1.8249-0.24569-1.3298 0.5554 0.82992 1.3428 3.523 1.9862 3.523 0.84161zm4.7978-1.098c-0.68706-1.1117-0.2514-1.3577 1.3298-0.75095 3.3503 1.2856 2.9121-0.02271-0.64532-1.9266-2.1063-1.1273-2.7115-1.1421-2.0364-0.04973 0.52829 0.85481 0.12809 1.5639-0.88936 1.5758-1.3442 0.01573-1.2704 0.39612 0.26989 1.3916 2.7923 1.8045 3.2041 1.7544 1.9714-0.24016zm66.038-1.5499c-1.3957-1.3853-1.558-1.223-0.79111 0.79111 0.5307 1.3937 1.3209 2.178 1.756 1.7429s9e-4 -1.5754-0.96491-2.534zm-265.86-2.4495c1.1659-0.75346 1.4839-1.3699 0.7066-1.3699s-2.3671 0.61645-3.533 1.3699-1.4838 1.3699-0.7066 1.3699 2.3671-0.61645 3.533-1.3699zm201.19-2.1117c-0.44568-1.1614-1.4475-1.7179-2.2263-1.2366-0.87067 0.53812-0.67759 1.343 0.50139 2.09 2.5732 1.6304 2.6614 1.5868 1.7249-0.8535zm63.887-0.53756c0-2.1874-0.43897-2.3751-2.5183-1.0766-2.3849 1.4894-2.3876 1.6245-0.05048 2.5499 1.3573 0.53747 2.4906 1.0219 2.5183 1.0766s0.05048-1.0928 0.05048-2.5499zm-278.03-0.22012c2.1342-0.03891 2.124-0.17899-0.10731-1.4788-1.416-0.82488-4.7233-0.99821-7.7726-0.40738-4.9595 0.96094-5.076 1.0949-1.7748 2.0421 1.9432 0.55749 4.3799 0.76015 5.4151 0.45034s2.943-0.5826 4.2396-0.60624zm270.98-3.6846c-0.14881-1.0139-0.55393-2.0208-0.90029-2.2376s-0.47626-0.13473-0.2887 0.18238-0.27928 1.324-1.0375 2.2376c-0.94211 1.1352-0.76508 1.661 0.55925 1.661 1.0658 0 1.816-0.82952 1.6672-1.8434zm-285.52-1.8312c-0.51234-0.82896-1.555-1.5072-2.317-1.5072s-0.56552 0.88976 0.43669 1.9773c2.0289 2.2015 3.3304 1.8762 1.8803-0.47005zm4.1211 1.4168c0.44719-0.72356 0.27273-1.6495-0.38765-2.0576s-1.2007 0.18385-1.2007 1.3156c0 2.3829 0.44564 2.5911 1.5884 0.74209zm15.252 0.37961c-0.97158-0.39204-2.5614-0.39204-3.533 0s-0.17665 0.7128 1.7665 0.7128 2.7381-0.32077 1.7665-0.7128zm-7.6644-2.3018c1.1558-1.3926 0.77856-1.8603-1.5935-1.9758-1.7092-0.08319-2.3088 0.1562-1.3324 0.532s1.4158 1.2649 0.97649 1.9758c-1.1997 1.9412 0.21783 1.5543 1.9493-0.532zm-22.414-4.3053c-1.3636-1.2589-1.5464-1.23-0.7822 0.12366 0.63247 1.1202 0.06204 1.8028-1.5592 1.8658-2.2685 0.08813-2.2381 0.22597 0.26989 1.2236 3.3094 1.3164 4.6782-0.80659 2.0715-3.2131zm16.265 0.42032c-0.57964-0.93787 0.30524-1.1652 2.4448-0.62823 1.8443 0.46288 5.2363 0.049 7.5377-0.91975s5.4002-1.799 6.886-1.8449 3.0202-1.0374 3.4095-2.2033c0.58922-1.7643 0.33906-1.8154-1.4919-0.30456-1.9709 1.6263-2.0173 1.2843-0.4461-3.286 0.96455-2.8057 1.4543-6.6676 1.0884-8.5819l-0.66537-3.4806-1.9447 3.7485c-2.3009 4.4349-2.5315 6.4322-0.39558 3.4254 1.1457-1.6128 1.2951-1.1058 0.62469 2.1198-0.48465 2.3318-2.1964 5.3525-3.8039 6.7127-3.2519 2.7517-12.49 3.333-14.886 0.93677-1.1063-1.1063-1.8021-1.1063-2.4858 0-1.5105 2.444-7.1498 1.7863-11.061-1.2901-1.9762-1.5545-4.2167-2.8264-4.9787-2.8264-3.5714 0-26.492-7.4312-27.387-8.8793-0.55673-0.90081-1.4554-1.1947-1.9971-0.65302s-0.26377 1.8536 0.6175 2.9155 1.2038 2.3292 0.71678 2.8162 0.504 0.61795 2.2023 0.29087c1.878-0.36166 3.4087 0.24125 3.9066 1.5387 0.45027 1.1734 1.7236 1.7862 2.8295 1.3618 1.2409-0.47618 1.6369-0.16654 1.0341 0.80873-0.58846 0.95215-0.19633 1.3177 0.98649 0.91967 1.0798-0.36338 2.8101 0.34906 3.8451 1.5832 1.7132 2.0427 1.8182 2.0378 1.171-0.05538-0.59617-1.9282 0.01233-2.1295 3.7709-1.2472 2.465 0.5786 8.2975 2.6707 12.961 4.6492 8.7852 3.727 17.136 5.005 15.51 2.3736zm-22.429-3.8002c-0.4696-0.4696-0.8036 0.36508-0.74224 1.8548 0.06781 1.6463 0.40268 1.9812 0.8538 0.85381 0.40823-1.0201 0.35804-2.239-0.11156-2.7086zm-3.0796-0.34745c-0.83226-0.83226-2.1205-0.7735-3.4388 0.15686-1.7619 1.2434-1.702 1.3571 0.36512 0.69212 1.3702-0.44079 2.4731-0.0801 2.4731 0.80881 0 0.88242 0.43456 1.1698 0.96569 0.6387s0.36683-1.5645-0.36512-2.2965zm303.76 1.6807c0.37744-0.61071-0.49224-1.1104-1.9326-1.1104s-2.3101 0.49967-1.9326 1.1104 1.2471 1.1104 1.9326 1.1104 1.5552-0.49967 1.9326-1.1104zm4.2669-4.801c-0.40814-0.66038-1.3341-0.83484-2.0576-0.38765-1.849 1.1427-1.6408 1.5884 0.74209 1.5884 1.1317 0 1.7237-0.54032 1.3155-1.2007zm-274.71-0.29681c0-0.30548-0.98693-0.93412-2.1932-1.397-1.2576-0.48259-1.8249-0.24568-1.3298 0.5554 0.82991 1.3428 3.523 1.9862 3.523 0.84162zm5.6528-8.4294c0-1.7955-0.65276-0.9938-2.7129 3.332-1.5865 3.3313-1.5571 3.3764 0.51516 0.78979 1.2088-1.5088 2.1978-3.3636 2.1978-4.1218zm29.174 2.6244c0.11209-1.9426-0.36486-3.532-1.0599-3.532-1.4657 0-1.7142 4.7312-0.32156 6.1239 0.51816 0.51817 0.99512 0.94168 1.0599 0.94113s0.20948-1.5904 0.32156-3.533zm-3.7368-0.94113c0-1.684-0.44236-2.6196-0.98303-2.0789-1.5274 1.5274-1.7419 5.1408-0.30513 5.1408 0.7085 0 1.2882-1.3779 1.2882-3.0619zm241.66 0.85873c0-0.34276-0.63594-0.62319-1.4132-0.62319s-1.4132 0.67347-1.4132 1.4966 0.63594 1.1036 1.4132 0.6232 1.4132-1.1538 1.4132-1.4966zm-273.9-0.17536c-1.0202-0.40824-2.239-0.35804-2.7086 0.11155s0.36509 0.8036 1.8548 0.74224c1.6463-0.0678 1.9812-0.40267 0.85382-0.85379zm274.93-7.08c-1.375-0.35831-3.2828-0.33475-4.2396 0.05236s0.16822 0.68027 2.5 0.65147 3.1146-0.34553 1.7396-0.70383zm-226.66-2.6146c-0.46027-1.1994-1.1399-1.8777-1.5104-1.5072s-0.25435 1.3518 0.25798 2.1808c1.3935 2.2547 2.208 1.8167 1.2524-0.67353zm222.8-2.8649c0-0.38863-1.2719-0.02591-2.8264 0.80604s-2.8264 1.8306-2.8264 2.2192 1.2719 0.0259 2.8264-0.80605 2.8264-1.8306 2.8264-2.2192zm-8.4792-5.6368c0-0.34276-0.63594-0.62319-1.4132-0.62319s-1.4132 0.67347-1.4132 1.4966 0.63594 1.1036 1.4132 0.6232 1.4132-1.1538 1.4132-1.4966zm-59.089-3.0018c-1.0202-0.40823-2.239-0.35803-2.7086 0.11156s0.36508 0.8036 1.8548 0.74224c1.6463-0.06781 1.9812-0.40268 0.85382-0.8538zm68.194-0.31603c0.43558-0.70478-0.4808-0.94857-2.0364-0.54178-3.2998 0.86291-3.7169 1.8232-0.79196 1.8232 1.12 0 2.3928-0.57663 2.8284-1.2814zm5.7242-1.5288c0.4951-0.80108-0.07216-1.038-1.3298-0.5554-2.4482 0.93948-2.8962 1.9524-0.8634 1.9524 0.73138 0 1.7183-0.62866 2.1932-1.397zm-276.27-1.4294c0-0.77726-0.63594-1.4132-1.4132-1.4132s-1.4132-0.59641-1.4132-1.3254 1.2719-1.2296 2.8264-1.1125 2.8264 0.75105 2.8264 1.4088 0.73228 0.7433 1.6273 0.19015c2.4273-1.5001-2.5447-4.6789-5.9326-3.793-2.9409 0.76906-3.2677 1.6662-1.9029 5.2229 0.94615 2.4656 3.3818 3.0578 3.3818 0.82218zm281.49-0.96537c-1.0202-0.40823-2.239-0.35803-2.7086 0.11156s0.36508 0.8036 1.8548 0.74224c1.6463-0.06781 1.9812-0.40268 0.85381-0.8538zm-313.73-1.4132c-1.0202-0.40823-2.239-0.35803-2.7086 0.11156s0.36509 0.8036 1.8548 0.74224c1.6463-0.0678 1.9812-0.40268 0.85381-0.8538zm211.2-1.4309c-1.5052-1.5052-5.2617-1.7691-4.3576-0.3061 0.43821 0.70902 1.8191 1.2891 3.0687 1.2891s1.8296-0.44236 1.2889-0.98303zm-22.659-9.9398c-0.4696-0.46959-0.8036 0.36508-0.74224 1.8548 0.06781 1.6463 0.40268 1.9812 0.8538 0.85381 0.40823-1.0201 0.35804-2.239-0.11156-2.7086zm-121.54-1.4132c-0.4696-0.46959-0.8036 0.36508-0.74224 1.8548 0.06781 1.6463 0.40268 1.9812 0.8538 0.85382 0.40823-1.0202 0.35803-2.239-0.11156-2.7086zm19.106-2.1728c-1.3957-1.3853-1.558-1.223-0.79111 0.7911 0.5307 1.3937 1.3209 2.178 1.756 1.743s9.1e-4 -1.5754-0.9649-2.534zm34.448-2.4495c0.48038-0.77726-0.11803-1.4132-1.3298-1.4132s-2.2032 0.63594-2.2032 1.4132 0.5984 1.4132 1.3298 1.4132 1.7228-0.63594 2.2032-1.4132zm62.181-5.6528c1.8636-0.80083 2.1043-1.241 0.7066-1.2922-1.1659-0.04274-3.0737 0.53877-4.2396 1.2922-2.5833 1.6694-0.35202 1.6694 3.533 0zm-33.21-2.8264c2.5833-1.6694 0.35201-1.6694-3.533 0-1.8636 0.80083-2.1043 1.241-0.7066 1.2922 1.1659 0.04273 3.0737-0.53877 4.2396-1.2922zm37.622-3.4688c-1.5152-2.3125-3.4363-3.4404-5.4909-3.2238-1.8698 0.19714-3.0209-0.37356-2.8189-1.3976 0.26666-1.3519-0.50677-1.3659-3.533-0.06417-5.3606 2.3059-9.7877 5.3279-7.8052 5.3279 0.90433 0 1.9903-0.56001 2.4134-1.2445 1.1135-1.8016 7.8053-2.841 8.7238-1.3549 0.4287 0.69364 1.5264 1.1689 2.4394 1.0562 3.2327-0.39908 5.6515 0.14242 4.7341 1.0598-0.51142 0.51144-0.20883 1.7987 0.67246 2.8606 2.6473 3.1899 3.1721 0.80681 0.66497-3.0196zm-22.077 1.9722c0-0.82313-0.63594-1.1036-1.4132-0.62319s-1.4132 1.1538-1.4132 1.4966 0.63594 0.62319 1.4132 0.62319 1.4132-0.67347 1.4132-1.4966zm16.958 0.48869c-1.1659-0.43163-2.8581-1.3662-3.7605-2.0768-1.0323-0.81295-2.0303-0.66162-2.6914 0.4081-0.64228 1.0392-0.45447 1.3316 0.48313 0.75218 0.84365-0.5214 1.9334-0.30169 2.4216 0.48824s1.963 1.386 3.2774 1.3247c1.943-0.09071 1.9934-0.25828 0.26989-0.89635zm-18.345-3.9706c1.4934-1.7995 1.406-2.0063-0.53357-1.262-1.2758 0.48958-2.3197 1.458-2.3197 2.1522 0 1.8173 0.81806 1.5621 2.8532-0.89014zm-9.9192-2.8935c0-0.38863-1.2719-0.02591-2.8264 0.80605s-2.8264 1.8306-2.8264 2.2192 1.2719 0.0259 2.8264-0.80605 2.8264-1.8306 2.8264-2.2192zm30.535-2.8425c-0.4718-1.2294-0.8578-3.7732-0.8578-5.6528s-0.70397-3.4174-1.5644-3.4174-1.2372 0.8526-0.83735 1.8946 0.21305 2.7263-0.41516 3.7428c-0.64361 1.0414-0.43231 2.6584 0.48405 3.7044 2.265 2.5854 4.223 2.4187 3.1906-0.27162zm-17.072-1.7313c-0.43511-0.43511-1.5754-9e-4 -2.534 0.9649-1.3853 1.3957-1.223 1.558 0.79111 0.79111 1.3937-0.5307 2.178-1.3209 1.7429-1.756zm5.6054-1.67c0.4951-0.80109-0.07215-1.038-1.3298-0.5554-2.4482 0.93948-2.8962 1.9524-0.86341 1.9524 0.73139 0 1.7183-0.62866 2.1932-1.397zm5.6024-1.3317c0.44719-0.72356 0.27273-1.6495-0.38766-2.0576s-1.2007 0.18384-1.2007 1.3156c0 2.3829 0.44564 2.5911 1.5884 0.74208z"/>
 </g>
</svg>
