<?xml version="1.0" encoding="iso-8859-1"?>
<!-- Generator: Adobe Illustrator 19.0.0, SVG Export Plug-In . SVG Version: 6.00 Build 0)  -->
<svg version="1.1" id="Capa_1" xmlns="http://www.w3.org/2000/svg" xmlns:xlink="http://www.w3.org/1999/xlink" x="0px" y="0px"
	 viewBox="0 0 456.62 456.62" style="enable-background:new 0 0 456.62 456.62;" xml:space="preserve">
<path style="fill:#4DCFE0;" d="M281.339,239.804H270.89h-85.682h-10.449v-68.441l0,0v274.808c0,5.747,4.702,10.449,10.449,10.449
	h85.682c5.747,0,10.449-4.702,10.449-10.449V171.363l0,0C281.339,171.363,281.339,239.804,281.339,239.804z"/>
<g>
	<path style="fill:#00BBD3;" d="M281.339,50.678V10.449C281.339,4.702,276.637,0,270.89,0h-85.682
		c-5.747,0-10.449,4.702-10.449,10.449v40.229H281.339z"/>
	<polygon style="fill:#00BBD3;" points="185.208,245.029 270.89,245.029 281.339,245.029 281.339,176.588 174.759,176.588 
		174.759,245.029 	"/>
</g>
<path style="fill:#D4E1F4;" d="M382.694,45.453H281.339h-106.58H73.927c-5.747,0-10.449,4.702-10.449,10.449v115.461
	c0,5.747,4.702,10.449,10.449,10.449h100.833l0,0h106.58l0,0h101.355c5.747,0,10.449-4.702,10.449-10.449V55.902
	C393.143,50.155,388.441,45.453,382.694,45.453z"/>
<g>
</g>
<g>
</g>
<g>
</g>
<g>
</g>
<g>
</g>
<g>
</g>
<g>
</g>
<g>
</g>
<g>
</g>
<g>
</g>
<g>
</g>
<g>
</g>
<g>
</g>
<g>
</g>
<g>
</g>
</svg>
