<?xml version="1.0" encoding="UTF-8"?>
<svg viewBox="0 0 640 480" xmlns="http://www.w3.org/2000/svg">
 <path d="m321.63 409.78c-0.98218-0.79312-4.0895-7.9633-6.9053-15.934-5.1651-14.621-14.926-34.64-53.876-110.5-11.73-22.845-31.105-60.769-43.054-84.275-11.95-23.506-25.562-48.539-30.251-55.63-4.6886-7.0909-9.3074-15.878-10.264-19.526-0.95651-3.6485-2.5314-6.8762-3.4997-7.1728-0.96837-0.29656-10.386 3.9344-20.928 9.4021-20.848 10.813-21.038 10.818-29.967 0.8271-5.4808-6.1323-9.3902-15.585-10.433-25.226-0.95427-8.8196 0.9267-7.9744 0.75183-8.0379 21.31-8.7494 40.841-23.341 61.616-34.035 14.568-7.3498 37.9-20.554 42.764-20.502 6.7521 0.44176 24.805 33.874 23.873 36.967-0.48651 1.6148-6.5419 6.2724-18.645 12.853-10.355 5.6297-18.989 10.764-19.186 11.41-0.19782 0.64594 2.7529 6.997 6.5573 14.114 3.8044 7.1165 9.5337 19.447 12.732 27.401 7.7397 19.249 108.67 211.3 122.48 233.06 12.157 19.153 12.438 22.182 2.6437 28.517-6.7718 4.38-20.385 9.3634-22.911 8.3872-0.94168-0.36398-2.5157-1.3107-3.4978-2.1038z" stroke="#000" stroke-width="2.143"/>
 <path d="m321.63 409.78c-0.98218-0.79312-4.0895-7.9633-6.9053-15.934-5.1651-14.621-14.926-34.64-53.876-110.5-11.73-22.845-31.105-60.769-43.054-84.275-11.95-23.506-25.562-48.539-30.251-55.63-4.6886-7.0909-9.3074-15.878-10.264-19.526-0.95651-3.6485-2.5314-6.8762-3.4997-7.1728-0.14371-0.77712 28.775-16.023 29.844-16.341-0.19782 0.64594 2.7529 6.997 6.5573 14.114 3.8044 7.1165 9.5337 19.447 12.732 27.401 7.7397 19.249 108.67 211.3 122.48 233.06 12.157 19.153 12.438 22.182 2.6437 28.517-6.7718 4.38-20.385 9.3634-22.911 8.3872-0.94168-0.36398-2.5157-1.3107-3.4978-2.1038z"/>
 <path d="m321.63 409.78c-0.98218-0.79312-4.0895-7.9633-6.9053-15.934-5.1651-14.621-14.926-34.64-53.876-110.5-11.73-22.845-31.105-60.769-43.054-84.275-11.95-23.506-25.562-48.539-30.251-55.63-4.6886-7.0909-9.3074-15.878-10.264-19.526-0.95651-3.6485-2.5314-6.8762-3.4997-7.1728-0.14371-0.77712 16.727-9.6857 17.796-10.003-0.19783 0.64594 0.97853 6.2945 4.7828 13.411 3.8044 7.1165 10.352 16.582 13.551 24.536 7.7397 19.249 100.22 210.96 114.03 232.72 12.157 19.153 16.068 14.741 19.537 23.336 3.0182 7.4789-15.824 12.111-18.35 11.135-0.94168-0.36398-2.5157-1.3107-3.4978-2.1038z"/>
 <path d="m197.45 103.47c-2.9402 1.5175-3.741 1.9146-11.611 6.1707l150.88 299.11c3.204-1.378 14.109-5.6474 14.968-8.2729 3.1755-9.7122-3.4928-7.684-10.418-18.932-13.514-21.952-115.31-214.88-123.05-234.13-3.1982-7.954-12.478-26.484-16.282-33.601-3.8044-7.1165-4.6812-9.6987-4.4833-10.345z" stroke-width=".2"/>
 <path d="m248.04 242.42c-5.9828-5.9596-38.684-66.329-39.969-73.788-0.79736-4.6267-0.54392-5.43 1.9262-6.1054 4.2857-1.1716 7.6791 0.28113 16.512 7.0689 6.151 4.7267 10.25 10.297 17.453 23.72 10.183 18.976 18.407 37.522 19.796 44.643 0.47928 2.4571-0.11774 6.1062-1.3267 8.1091-2.7032 4.4783-7.4382 3.2779-14.391-3.6481z" opacity=".1"/>
 <path d="m246.63 236.43c-12.94-14.573-27.83-40.377-29.918-51.851-1.5621-8.5809-0.63238-9.8073 5.0937-6.7196 18.09 9.7545 26.477 20.256 33.7 42.195 4.6458 14.111 5.1378 17.889 2.7308 20.967-2.3372 2.9894-6.249 1.442-11.606-4.5915z" opacity=".1"/>
 <path d="m245.53 229.79c-5.9029-5.5591-20.161-27.334-21.967-33.548-1.8921-6.5099 1.2225-8.4487 6.716-4.1808 2.1728 1.6881 6.4075 3.8217 9.4105 4.7413 6.1163 1.8731 9.4719 7.8017 14.39 25.423 3.8081 13.646 0.76642 16.337-8.5492 7.5638z" opacity=".1"/>
 <path d="m217.59 39.172c-2.7159-0.83176-18.856 7.9192-32.731 15.265 1.6467 0.031708 5.7476 0.14613 9.4458 0.27937 3.076 0.11083 7.8749-0.97349 12.857-2.8268 0.051788-0.024498 0.10989-0.00256 0.16208-0.02726 0.12949-0.048584 2.7982-1.396 4.1796-2.1021 5.968-3.0508 8.2928-4.1928 9.9756-3.7092 0.02301-0.004166 0.047485 0.025505 0.070282 0.021523 1.0277-0.17863 2.8478-0.40879 3.6512-0.24206 0.81775 0.16965-4.9563-6.7947-7.6103-6.6585zm-70.064 36.269c-11.233 6.7803-22.521 13.384-34.332 18.234 0.17485 0.063568-1.7326-0.75638-0.77834 8.0632 0.023285 0.21522 0.082809 0.43335 0.10895 0.64828 4.2304-0.44551 9.725-3.7598 13.564-5.9968 9.001-5.2443 16.447-12.056 18.838-16.979 0.72112-1.4849 1.558-2.7417 2.5993-3.9696z" opacity=".838"/>
 <path d="m113.73 108.85l113.5-59.049c4.0983 4.9953 8.3247 10.927 10.675 17.486l-114.73 59.736c-5.1501-5.1922-7.7103-11.505-9.4481-18.173z" opacity=".345" stroke-linecap="round" stroke-width=".2"/>
 <path d="m240.8 73.245l-112.08 59.528c4.6691 3.3897 8.8519 1.3458 24.156-6.5918 7.8528-4.0728 15.037-7.4867 18.614-8.827l0.0918-0.0487 31.994-16.874c0.19782-0.64601 8.8941-5.7702 19.249-11.4 12.103-6.5804 18.144-11.281 18.631-12.896 0.12866-0.42712-0.13684-1.4729-0.65228-2.8901z"/>
</svg>
