<?xml version="1.0" encoding="UTF-8"?>
<svg enable-background="new 0 0 133.812 336.835" viewBox="0 0 133.812 336.835" xmlns="http://www.w3.org/2000/svg">
 <path d="m47.395,15.113c-.357,1.083-2.692.188-3.84.48 .678-1.433 2.637-.689 3.84-.48z" fill-rule="evenodd"/>
 <path d="m78.595,15.593c-.072,1.194-1.625.14-1.92,0 .433-1.606 1.073-.419 1.92,0z" fill-rule="evenodd"/>
 <path d="m90.595,14.633c.389.091.479.481.96.48-.091.389-.481.479-.479.96-.39-.091-.479-.481-.961-.48 .091-.388.482-.478.48-.96z" fill-rule="evenodd"/>
 <path d="m92.515,14.633c.591.209.986.614.96,1.44-1.665.419-1.647-.739-.96-1.44z" fill-rule="evenodd"/>
 <path d="m20.995,17.513c-1.113.153-1.843-.077-2.4-.48-.032-1.354 2.465-.887 2.4.48z" fill-rule="evenodd"/>
 <path d="m23.395,16.553c-.007.007 1.108-.553 1.44,0 .639,1.065-2.367.927-1.44,0z" fill-rule="evenodd"/>
 <path d="m25.315,16.073c.775-.135.826.454 1.44.48-.091.389-.481.479-.48.96h-.96v-1.44z" fill-rule="evenodd"/>
 <path d="m36.355,16.073c.861-.061 1.012.587 1.92.48 .153.847-2.689.857-1.92-.48z" fill-rule="evenodd"/>
 <path d="m39.235,16.073c.386.254.779.501 1.44.48-.269.998-.749,1.017-1.44.48v-.96z" fill-rule="evenodd"/>
 <path d="m44.035,16.073c.775-.135.827.454 1.44.48-.091.389-.481.479-.48.96h-.96v-1.44z" fill-rule="evenodd"/>
 <path d="m45.955,16.073c.386.254.779.501 1.44.48-.091.389-.482.479-.48.96h-.96v-1.44z" fill-rule="evenodd"/>
 <path d="m50.275,16.073c.59.209.986.614.96,1.44-1.666.419-1.647-.739-.96-1.44z" fill-rule="evenodd"/>
 <path d="m99.715,16.073c.386.254.779.501 1.439.48-.269.998-.748,1.017-1.439.48v-.96z" fill-rule="evenodd"/>
 <path d="m27.235 17.033c2.109-1.761 1.824 1.328 0 0z" fill-rule="evenodd"/>
 <path d="m66.595,16.553h.96v.96h-.96v-.96z" fill-rule="evenodd"/>
 <path d="m68.035,16.553c.963-.164 1.502.098 1.439.96h-1.439v-.96z" fill-rule="evenodd"/>
 <path d="m70.435,16.553h.96v.96h-.96v-.96z" fill-rule="evenodd"/>
 <path d="m72.354,16.553c.964-.164 1.502.098 1.44.96h-1.44v-.96z" fill-rule="evenodd"/>
 <path d="m77.155,16.553h.96v.96h-.96v-.96z" fill-rule="evenodd"/>
 <path d="m83.875,16.553h.96v.96h-.96v-.96z" fill-rule="evenodd"/>
 <path d="m88.194,16.553h.96v.96h-.96v-.96z" fill-rule="evenodd"/>
 <path d="m92.515,16.553h.96v.96h-.96v-.96z" fill-rule="evenodd"/>
 <path d="m95.875,16.553c.963-.164 1.502.098 1.439.96h-1.439v-.96z" fill-rule="evenodd"/>
 <path d="m31.555,17.993h2.88c.455,1.734-1.891.669-2.88.96v-.96z" fill-rule="evenodd"/>
 <path d="m45.955,17.993c.963-.163 1.501.098 1.44.96h-1.44v-.96z" fill-rule="evenodd"/>
 <path d="m5.635 32.873c-2.738 1.726-2.108-1.215 0 0z" fill-rule="evenodd"/>
 <path d="m6.115,32.393c1.094-.659 1.805,1.237 1.92,0 2.181.812-2.758,1.943-1.92,0z" fill-rule="evenodd"/>
 <path d="m9.955,32.393h.96v.96h-.96v-.96z" fill-rule="evenodd"/>
 <path d="m11.395,32.393c.963-.163 1.502.098 1.44.96h-1.44v-.96z" fill-rule="evenodd"/>
 <path d="m16.195,33.353c-1.405-.431-1.475-.431-2.88,0-.689-1.498 3.568-1.498 2.88,0z" fill-rule="evenodd"/>
 <path d="m17.155,32.393h.96v.96h-.96v-.96z" fill-rule="evenodd"/>
 <path d="m20.995,32.873c-.135-.763 2.592-.673 1.44.48 .184-.185-1.446-.513-1.44-.48z" fill-rule="evenodd"/>
 <path d="m38.275,32.393c.963-.163 1.502.098 1.44.96h-1.44v-.96z" fill-rule="evenodd"/>
 <path d="m47.875,32.393c.963-.163 1.501.098 1.44.96h-1.44v-.96z" fill-rule="evenodd"/>
 <path d="m49.795,32.393c.963-.163 1.502.098 1.44.96h-1.44v-.96z" fill-rule="evenodd"/>
 <path d="m51.715,32.873c-.153-.847 2.689-.856 1.92.48-1.004.204-1.271-.329-1.92-.48z" fill-rule="evenodd"/>
 <path d="m55.555,32.393c-.209.59-.614.986-1.44.96-.224-1.024.686-.914 1.44-.96z" fill-rule="evenodd"/>
 <path d="m57.955,32.393c-.21.59-.614.986-1.44.96-.224-1.024.686-.914 1.44-.96z" fill-rule="evenodd"/>
 <path d="m59.395,32.393h.96c.224,1.024-.686.915-1.44.96 .091-.389.481-.478.48-.96z" fill-rule="evenodd"/>
 <path d="m61.315,32.393h.96v.96h-.96v-.96z" fill-rule="evenodd"/>
 <path d="m85.795,32.873c.148-.651 1.201-.398 1.92-.48-.134,1.113-1.282,1.104-1.92.48z" fill-rule="evenodd"/>
 <path d="m88.194,32.393h.96v.96h-.96v-.96z" fill-rule="evenodd"/>
 <path d="m91.555,32.873c-.148.651-1.202.398-1.92.48 .134-1.113 1.282-1.103 1.92-.48z" fill-rule="evenodd"/>
 <path d="m92.515,32.393c.963-.163 1.502.098 1.44.96h-1.44v-.96z" fill-rule="evenodd"/>
 <path d="m94.915,32.393h.96v.96h-.96v-.96z" fill-rule="evenodd"/>
 <path d="m96.835,32.393h.96v.96h-.96v-.96z" fill-rule="evenodd"/>
 <path d="m19.075,33.833c.775-.135.827.454 1.44.48 .19.932-2.186.702-1.44-.48z" fill-rule="evenodd"/>
 <path d="m20.995,33.833c.775-.135.826.454 1.44.48 .19.932-2.186.702-1.44-.48z" fill-rule="evenodd"/>
 <path d="m24.835 34.313c-1.787 1.676-2.436-1.309 0 0z" fill-rule="evenodd"/>
 <path d="m65.155,33.833c2.073.255 2.691.139 3.84.48-.662,1.378-1.762.41-3.84.96v-1.44z" fill-rule="evenodd"/>
 <path d="m69.475,33.833c2.2.32-.386,2.906 0,0z" fill-rule="evenodd"/>
 <path d="m76.675,33.833h1.92c.483,1.444-1.069.851-1.92.96v-.96z" fill-rule="evenodd"/>
 <path d="m98.755,34.793c.06-1.06 2.036-.204 2.88-.48-.06,1.06-2.036.204-2.88.48z" fill-rule="evenodd"/>
 <path d="m59.875,68.393c2.2.32-.386,2.906 0,0z" fill-rule="evenodd"/>
 <path d="m55.555,68.873c1.041-.081.218,1.703.48,2.4-1.222-.048-1.134-1.789-.48-2.4z" fill-rule="evenodd"/>
 <path d="m60.355,72.233c.742-1.467.422,2.082.48,2.88-.742,1.468-.423-2.082-.48-2.88z" fill-rule="evenodd"/>
 <path d="m55.075,72.713c2.2.32-.386,2.906 0,0z" fill-rule="evenodd"/>
 <path d="m55.075,76.553c.932-.19.701,2.186-.48,1.44v-.96c.408.088.453-.187.48-.48z" fill-rule="evenodd"/>
 <path d="m60.355,76.553h.96v.96h-.96v-.96z" fill-rule="evenodd"/>
 <path d="m60.835 77.993c1.671 4.931-1.024 2.414 0 0z" fill-rule="evenodd"/>
 <path d="m54.595,78.473c2.224.037.105,2.175.48,3.36-1.074-.207-.195-2.366-.48-3.36z" fill-rule="evenodd"/>
 <path d="m60.835,82.313h.96v.96h-.96v-.96z" fill-rule="evenodd"/>
 <path d="m60.835,84.233c1.443-.483.851,1.069.96,1.92-.845-.115-1.094-.826-.96-1.92z" fill-rule="evenodd"/>
 <path d="m54.115,84.713c1.989.406.256,3.155.48,3.84-1.083-.357-.188-2.692-.48-3.84z" fill-rule="evenodd"/>
 <path d="m61.315,86.633c.838.442 1.059,1.501.96,2.88-1.735.455-.67-1.89-.96-2.88z" fill-rule="evenodd"/>
 <path d="m61.795 90.473c1.726 2.738-1.215 2.108 0 0z" fill-rule="evenodd"/>
 <path d="m53.635,90.953c1.4-.706 1.4,2.146 0,1.44v-1.44z" fill-rule="evenodd"/>
 <path d="m62.275,93.833c.783-.084.969,3.14-.48,2.4-.153-1.113.077-1.843.48-2.4z" fill-rule="evenodd"/>
 <path d="m53.635,95.273c.733.008 1.053,3.557-.48,2.88 .553-.567.543-1.696.48-2.88z" fill-rule="evenodd"/>
 <path d="m59.875,143.273c.816-.176.905.375.96.96-.408-.088-.453.187-.48.48-.563-.078-.405-.875-.48-1.44z" fill-rule="evenodd"/>
 <path d="m58.435,154.793c.742-1.467.423,2.082.48,2.88-.742,1.467-.423-2.082-.48-2.88z" fill-rule="evenodd"/>
 <path d="m60.355,155.753c.661-1.528.475,1.696.48,2.4-.662,1.528-.475-1.696-.48-2.4z" fill-rule="evenodd"/>
 <path d="m58.435,159.113c.183-.914.611.307.48.96-.183.913-.611-.306-.48-.96z" fill-rule="evenodd"/>
 <path d="m60.355,164.873c.553-1.553.543,1.289.48,1.92-.553,1.553-.543-1.289-.48-1.92z" fill-rule="evenodd"/>
 <path d="m60.355,168.233c.661-1.528.475,1.696.48,2.4-.662,1.528-.475-1.696-.48-2.4z" fill-rule="evenodd"/>
 <path d="m60.355,172.073c.312-1.354.557,1.105.48,1.439-.223.965-.902.388-.48-1.439z" fill-rule="evenodd"/>
 <path d="m58.915,174.473c1.073.207.194,2.366.48,3.36-1.426-.709-.504-1.856-.48-3.36z" fill-rule="evenodd"/>
 <path d="m56.995,180.232c.817-.176.906.375.96.96-.409-.088-.453.188-.48.48-.563-.076-.405-.874-.48-1.44z" fill-rule="evenodd"/>
 <path d="m60.355 182.63c1.515-0.617 1.515 3.978 0 3.36v-3.36z" fill-rule="evenodd"/>
 <path d="m58.915,186.953c.312-1.354.557,1.105.48,1.439-.223.964-.902.388-.48-1.439z" fill-rule="evenodd"/>
 <path d="m60.355 186.47c1.4-0.705 1.4 2.146 0 1.44v-1.44z" fill-rule="evenodd"/>
 <path d="m60.835,197.033c.847-.153.856,2.688-.48,1.92 .837-.979-.358-.941.48-1.92z" fill-rule="evenodd"/>
 <path d="m59.875,238.793c1.292.567-.002,2.503 0,3.359-1.025-.299-.45-2.954 0-3.359z" fill-rule="evenodd"/>
 <path d="m59.395,243.112c1.583.277.688,1.812.48,2.881-1.061-.06-.204-2.036-.48-2.881z" fill-rule="evenodd"/>
 <path d="m59.395,246.473c2.327-.467-.182,2.683.96,2.4-1.033,1.757-1.113-1.393-.96-2.4z" fill-rule="evenodd"/>
 <path d="m57.955,266.633c1.767-.442.872,2.531.479,2.88-.422-.437-.082-1.417-.479-2.88z" fill-rule="evenodd"/>
 <path d="m3.235,15.113c-.171-5.518 5.993-14.13 12-14.88 4.21-.525 10.023.001 14.88,0 4.615-.002 9.143,1.025 12.96.96 16.68-.288 29.771,0 53.28,0 8.925,0 22.922-1.516 26.88.48 3.993,2.013 6.639,9.357 8.16,15.36 3.965,15.644 3.509,37.089-4.8,48-4.02,1.851-9.738,1.682-14.4.96l.721-.56-.24-.88c.684-.269 2.562-.349.479-.96l.24-.72-.72-.24c.088-.409-.188-.453-.48-.48l.24-.72-.72-.24c-.003-1.429-2.92-.488-3.84,0l-.721.24-.239.72c-.844.276-2.82-.581-2.88.48l-.24-.24-.24-.24h-3.84c-1.114-.703.938-1.521-.96-1.44-.092.389-.481.479-.48.96l-.479-.24-.48.24c-1.478-.336-.922-.336-2.399,0l-.561-.72-.88.24c-.108-.612-1.433-.629-1.439,0 1.334-.593 1.334,1.553 0,.96l-.721-.48-.72.48c-1.303.297-3.81-.609-4.32.48l-.479-.24-.48-.24c-1.147.292-3.482-.603-3.84.48l-.24-.24-.239-.24c-1.303.297-3.81-.609-4.32.48l-.24.48 .24.48c-.408-.088-.453.187-.48.48l-.911.432-.049,1.008-.479-.24-.48.24c.06-2.85-1.555,1.834.48.96l.479.24 .48-.24c-.078.558.105.854.479.96l.24.72 .721-.24c.76,3.751 1.271,9.309 1.439,12.96l-.88-.24-.56.72c-.779-.343-.779,2.263 0,1.92l-.24.72 .24.72c.297,1.303-.609,3.81.479,4.32l.56.72 .881-.24c.579,3.336.2,8.976 1.439,13.92-2.339,2.223-4.875,6.159-5.76,11.52-1.297,7.852-.652,17.601-.48,26.88 .373,20.09 2.581,45.807 3.36,69.12 .058,1.731.801,4.551-.96,5.76 1.832,4.14 1.496,10.102 1.92,16.8 1.085,17.155 1.484,34.229.96,53.28l-.88-.24-.56.72c-1.124-.429-.277,3.27 0,1.44l.479.239 .48.24c.534,6.139.452,17.296 0,24.96-.166,2.808-.609,4.39-1.44,5.761 .329.365 2.022,1.522 0,1.439-1.766.766 1.941-.109.96,1.44-.873,2.327-1.475,4.925-1.439,8.159-1.87-.709-2.825,1.406-.48.96-2.596,5.404-10.938,5.062-19.2,4.801-6.467-5.072-6.43-13.997-7.2-21.601-2.575-25.449-1.329-53.662-.48-81.119 .226-7.316.264-16.096.48-24.48 .581-22.548 2.77-51.402 2.88-75.84 .034-7.639-.659-14.742-2.4-22.56-.491-2.203-1.631-4.439-1.92-6.72-.518-4.093.662-8.401.96-12.48 .273-3.744-.251-7.071.96-10.08l.56.72 .88-.24v6.24l-.24.48 .24.48c-1.099.821-.176,3.664-.48,5.28l-.72-.24 .24.72c.354,2.274-.54,3.3-.48,5.28 1.809.369 2.294-.586 3.84-.48l.24.72 .24.72c-1.077.843-3.45.39-3.36,2.4 .767.673 1.226,1.654 1.44,2.88l-.24.72 .72-.24c3.374,17.67 1.393,38.825 2.4,57.6l-.72-.24-.24.72c-.792.213-.792,3.626 0,3.839l.24.721 .72-.24v3.84l-.72-.24-.24.721c-.778-.344-.778,2.263 0,1.92v.96 .96c-1.077,4.4-.005,12.226-.48,17.76l-.72-.24-.24.721c-.788-.079-.788,2.958 0,2.88l.24.72 .72-.24c.852.908.35,3.171.48,4.8l-.48-.239-.48.239c-1.198,12.788-.161,28.665 0,38.88l-.72-.239-.24.72c-.796.828-.796,4.932 0,5.76l.24.72 .72-.239v9.6l-.72-.24-.24.721c-.651.148-.398,1.201-.48,1.92l.24.239 .24.24c-1.109,1.611-.168,5.272-.48,7.681l.24.479 .24.48c-.798,1.773-.798,6.865 0,8.64l.24.72 .72-.24c-.13,1.99.63,1.871 0,3.36l-.72-.24-.24.721c-.784-.217-.784,2.616 0,2.399l.24.72 .72-.239v2.399l-.72-.24-.24.721c-.784-.217-.784,2.616 0,2.399l.24.721 .72-.24c.531,9.729-.629,17.325.48,28.32l.48.239 .48-.239v5.76l.24.479 .24.48c-.79.064-.79,3.295 0,3.359l.56.721 .88-.24c.17.551.845,1.217.96.479h.48v-.479c.977,1.602 1.037.382.96-1.44h.48v-.479c1.484.115-.75,3.95 1.44,3.359h.48v-.479c1.752,2.404.04-2.681.96-3.36l.48.24 .48-.24c-.063.632-.073,3.474.48,1.92l.48.24 .48.24c.389.091.479.481.96.479 .061-.86-.588-1.012-.479-1.92l-.24-.239-.24-.24c1.69-1.143-.137-2.95.96-4.32l.48.24 .479-.24c.799-2.729.799-8.792 0-11.52v-.96-.96c1.113-2.407.165-6.875.48-10.08l-.24-.48-.24-.479c1.104-1.136.172-4.309.48-6.24l-.24-.24-.24-.24c.799-2.25.799-7.829 0-10.079l-.24-.721-.72.24c.427-1.752-.848-2.557 0-3.36l.72.24 .24-.72c.788.079.788-2.959 0-2.88l-.24-.72 .24-.721c.576-.921 1.3-6.081-.479-6.24l-.24-.72-.72.24c-.172-4.094.34-6.957 0-10.08l.72.24 .24-.72c1.303.343-.344-2.264.96-1.921l.239.721 .721-.24c1.105-1.294.17-4.63.479-6.72l-.24-.48-.239-.479c1.334-.233-.067-5.665 0-1.92l-.88-.24-.561.72h-.479l-.24-.72-.72.24v-7.681l.72.24 .24-.72h.479l.48.24 .479-.24v.479h.96v-.96h-.96l-.24-.72-.72.24v-5.28l.72.24 .24-.72h.48l.56.72 .88-.24c.376,1.813 1.068-2.289 0-1.92l-.56-.72-.88.239v-4.319l-.24-.48-.24-.479c.799-2.092.799-7.509 0-9.601l-.72-.239-.24.72c-1.317-1.036.478-2.204-.479-3.36l-.24-.24-.24-.239c.953-.908.818-1.683.48-2.88l.72.239 .72-.239c1.025.284.45-4.16 0-2.4l-.72-.24-.72.24h-.48v-.96-.96c1.061-.06.204-2.036.48-2.88l.88.24 .56-.721c.784.217.784-2.616 0-2.399l-.56-.721-.88.24v-6.72l.72.24 .24-.721c.787.079.787-2.958 0-2.88l-.24-.72-.72.24v-.48l-.24-.24-.24-.239c.602-1.434-.157-3.809.48-5.761l.479.721 .48-.721c.796-.827.796-4.932 0-5.76l-.561-.72-.88.24v-6.72l.88.24 .561-.72c1.06-.06.203-2.036.479-2.88l.72.24 .24-.72c.729-.618 1.666-3.117 0-3.36l-.72-.24-.72.24c-.136-.775.453-.826.479-1.44l.24-.72-.72.24c-.263-.697.561-2.481-.48-2.4l-.24-.72-.72.24v-4.8l.72.24 .24-.72c1.061-.06.204-2.036.48-2.88l-.24-.48-.24-.48c.871-.905.696-7.382 0-6.72l-.72-.24-.24.72c-1.104-1.136-.172-4.308-.479-6.24l.88.24 .56-.72c.778.344.778-2.263 0-1.92l-.56-.72-.88.24v-2.4l-.24-.24-.24-.24c1.099-.822.176-3.664.48-5.28l-.24-.24-.24-.24c1.095-.666.179-3.341.48-4.8l.72.24 .24-.72c.996-.123.131-2.109.96-2.4l-.24-.24-.24-.24h.48c-.501-3.232 2.145-5.841.96-8.16l.239-.72-.72-.24c.883-2.374 4.222-5.155-.96-4.8l-.24-.72 .24-.72h.96c-.326-1.754-.67-3.49-.479-5.76l-.24-.24-.24-.24h.48c-.532-2.028-.554-4.567-.48-7.2l.24-.72-.72.24v-5.76l.72.24 .24-.72c1.123.429.276-3.269 0-1.44l-.721-.24-.72.24v-4.8l.72.24 .24-.72c.79-.065.79-3.295 0-3.36l-.56-.72-.88.24c.137-3.111-1.41-6.179 1.439-5.76l.24.72 .72.24c-.036,2.844 1.78-3.304 0-.96l-.24-.72-.72.24c-1.324.166-3.371-1.378-4.32,0l-.24-.24-.24-.24c-2.664.376-4.991,1.088-7.68,1.44l.24-.88-.72-.56v-.48c-.785-.35-2.088.954-.96.96l-.24.88 .72.56c-.091.389-.481.479-.48.96l-1.08-.24-.84.72-.24-.72-.24-.72c1.582-.551-3.427-.964-3.36,0l-.72-.24-.72-.24c-2.741-.336-2.741.816 0,.48l-.24.88 .72.56c-5.458.814-14.218.78-19.68,0l.24-.72-.24-.72v-.96l.88.24 .56-.72h1.44l-.24.72 .72.24c-.343.778 2.264.778 1.92,0-.389-.091-.478-.482-.96-.48l.24-.72-.72-.24c.042-1.344-2.922-1.344-2.88,0l-.72-.24-.72-.24h-2.4l.24-.72-.72-.24c.088-.408-.188-.453-.48-.48l.24-.72-.72-.24c.343-.778-2.264-.778-1.92,0l-.72.24 .24.72c-.408-.088-.453.188-.479.48l-1.44.48 1.44.479v.48l-.652.583-.789.377h-2.88l.24-1.2-1.2.24v-.48l.72-.24-.24-.72h-.96-.96c.285-1.025-4.16-.45-2.4,0l-.24.48 .24.479c.148.652 1.202.398 1.92.48l-.24.72 .72.24c.065,1.375 3.295-.415 3.36.96l.24.72 .24.72c-7.527,2.113-9.852-1.687-12.48-7.68-2.151-4.914-3.772-10.696-4.317-17.281l.88.24 .56-.72c2.408-.312 6.069.629 7.68-.48l.72-.24-.24-.72c1.147-.292 3.482.603 3.84-.48l.24.24 .24.24h.96l-.24.72 .72.24c.357,1.083 2.692.188 3.84.48l-.24.72 .72.24c-.217.784 2.616.784 2.4,0l.72-.24-.24-.72c3.684-.316 8.635.635 11.52-.48l.24.24 .24.24c.76-.04 1.831.23 1.92-.48h.96 .96c3.524,1.116 9.117.163 13.44.48l-.24.72 .72.24v.48l-.72.24 .24.72c-3.873.02 2.183,1.291 2.4,0l.72-.24-.24-.72c.558.078.854-.106.96-.48l1.2.24-.24-1.2h.96l-.24,1.2 1.2-.24v.48l-.24.48 .24.48c-1.813.376 2.289,1.068 1.92,0l-.24-.48-.24-.48c.408.088.453-.187.48-.48l.72-.24-.24-.72c7.364-.225 14.032.836 20.64-.48l.479.24 .48.24h4.319l.24.72 .24-.72c.611.654 2.352.741 2.399-.48l.48.24 .48.24c2.215-.492 6.512,1.427 8.159-.48l.721-.24-.24-.72c.86-.061 1.013.587 1.92.48l-.24.72 .72-.24c-.404,2.13 5.19-.15 2.881,2.4l-.24.72 .72-.24c.519,1.757 1.074,3.443.96,0l.24-.72-.72.24c-1.095-8.42-.264-19.903.479-26.4h-.96l.24-.72-.72-.24v-.48l.72-.24-.24-.72h2.4c-.206-1.857-.526-1.708.479-2.88l.721-.24-.24-.72c.604-.119.484-.954 0-.96-.511,1.089-3.018.183-4.32.48l.24-.72-.72-.24c-.065-.79-3.295-.79-3.36,0l-.72.24 .239.72h-1.439l.24-.72-.721-.24c.344-.778-2.263-.778-1.92,0l-.72.24 .24.72h-15.84l.239-.72-.72-.24c.344-.778-2.264-.778-1.92,0l-.72.24 .24.72h-8.16l.239-.72-.72-.24c-.064-.79-3.295-.79-3.36,0l-.72.24 .24.72c-18.08.32-37.439-.64-54.72.48l-.72.24 .24.72c-.76.04-1.831-.231-1.92.479l-.48.48 .48.479c-.434,1.316-1.767-.937-1.92.96h5.28l-.24,1.2 1.2.24v.48l-.72.24 .24.72c-3.08-.223-3.64-.223-6.72,0l-.56-.72-.874.242zm119.999-6.72c2.863,2.41-1.072-.903 0,0zm3.84,9.6c2.583,5.545 1.526,8.924 2.4,15.84l-.24.48 .24.48h-.479c.068,3.271-.194,8.637-.48,12.96l-.72-.24 .239.72c.089.408-.187.453-.479.479l-.24-.72-.72-.24c.088-.408-.188-.453-.48-.48l-.72-.24-.24.72c-.466-.013-.372-.587-.479-.96l.72.24-.24-.72c.153-1.127.759-1.802.48-3.36 1.354,1.285.768-3.651.479-4.32-.332,2.708-1.388,4.692-1.439,7.68l-.72-.24 .239.72c-.811,3.03-1.055,6.625-4.8,6.72-2.644-1.837-3.444-5.516-5.28-8.16 1.203,4.078 2.198,8.362 7.2,8.64 2.055-1.145 1.878-4.522 3.84-5.76l.24.72 .72.24c-.078.558.106.854.48.96l-.24.72 .24.72c-.79.065-.79,3.295 0,3.36 1.677-1.204 1.549-4.211 1.92-6.72l.72.24-.239-.72c.374-2.919.622-7.81.96-12.96l.239-.48-.239-.48c.608-7.81-1.647-16.911-4.32-23.04-.594.834.366,3.188 0,5.28l-.72-.24-.24.72c-1.274.534-1.62-2.99-1.92-.48 1.411.877 2.19,3.126 1.439,4.8 2.146.033.612,1.097 1.44,1.92 .219,5.621-.352,10.227.96,13.92-.123-6.117.411-12.891-1.44-17.28l.721-.24-.24-.72h.479l.721.24 .238-.719zm-12.479-3.84c.826.025 1.23-.37 1.44-.96-.826-.026-1.23.369-1.44.96zm6.719,4.32c-5.12-5.913-7.525,4.055-8.16,8.64 1.658.337.806-1.738.96-2.4 1.001-4.279 2.4-10.589 6.721-6.24l-.24.72 .72-.24c.415,1.899.812,5.942 1.44,8.16 .4,1.414.219,3.146.479.96 .12-1.006-.084-2.02 0-3.84-.922-1.318-1.128-3.352-1.439-5.28l.24-.72-.721.24zm-8.639.48c.431-.076.246-2.654-.48-.96-.123.286.196,1.01.48.96zm8.639,13.44c-1.039-1.667-.485-4.738-.96-5.76-1.156.196-1.043-.877-2.399-.48-1.143,5.031-.27,9.127-.48,14.88 1.784-3.496-1.337-11.896 1.92-13.92 1.671,1.369.245,5.835 1.44,7.68 .04-.76-.231-1.831.479-1.92l.561.72 .88-.24c.45,4.291-.773,6.907-.96,10.56l-.72-.24 .239.72c.021,1.461-1.014,1.867-1.439,2.88 1.582-.017 1.835-1.365 1.92-2.88l.72.24-.24-.72c.874-2.286 1.312-10.726.48-12.48 .062.131-.05.344 0,.48l-.88-.24-.561.72zm-7.679-2.88c.838-.979-.357-.941.479-1.92-1.336-.769-1.327,2.073-.479,1.92zm.479,12c.253-1.955-.075-9.765-.96-10.56-.034,4.179.315,6.015.48,10.56l-.24.72 .72-.24c-.336,2.741.816,2.741.48,0v-.48h-.48zm-3.359-6.24c.063-.631.072-3.473-.48-1.92-.064.631-.073,3.473.48,1.92zm.479,9.12c.334-3.743-.812-3.743-.479,0l-.24.72 .72-.24c.389,5.506 1.243,4.676.48,0l.24-.72-.721.24zm7.201.96c-.082-1.358.413-3.293-.96-3.36 .582,1.497-.257,2.066.96,3.36zm-2.88,11.04c-.635-.005-.438-.841-.96-.96-.55.985.754,2.288.96.96zm8.16,2.88c.081-.559.759-.521 1.439-.48-.984-1.99 2.617-1.802.96-2.88-.128,1.495-3.406,2.321-2.399,3.36zm-3.84.48c-1.94-1.688-1.133,1.544 0,0zm-48.96,108c.481-.001.571.389.96.48-.046-.754.064-1.665-.96-1.44v.96zm2.88,42.72c.06-1.201.916-1.503-.48-1.92 .081.718-.171,1.771.48,1.92zm.479,10.08c.077-.334-.167-2.793-.479-1.44-.422,1.827.258,2.404.479,1.44zm0,12.48c.063-.632.073-3.474-.479-1.921-.064.632-.073,3.474.479,1.921zm-4.799,31.199c-.13-1.027.372-5.12-.479-3.84 .129,1.028-.373,5.122.479,3.84z" fill-rule="evenodd"/>
 <path d="m68.274,10.073-.239-.72c5.958-.101 10.271.221 15.359,0l-.239.72 .72.24v.479l-.72.56 .239.88c-4.161.442-8.681.17-15.359,0l.239-.88-.72-.56v-.479l.72-.24z" fill-rule="evenodd"/>
 <path d="m16.915,11.513-.72-.24c.984-.797 5.256-.797 6.24,0l-.72.56 .24.88c-.682-.042-1.359-.08-1.44.48l-.72.24 .24.72c-1.275-.005-2.742.181-3.36-.48l.24-.88-.72-.56v-.48l.72-.24z" fill-rule="evenodd"/>
 <path d="m94.675,12.153-.24-.88c4.177.019 4.829.759 8.641,0l-.24.72 .72-.24v.96l-1.2-.24 .24,1.2c-2.695.184-5.021.739-8.16.48l.24-.72-.72-.24v-.48l.719-.56z" fill-rule="evenodd"/>
 <path d="m66.354,228.473-.72.24c.346-2.42.459-2.391 0-4.32l.72.24 .24-.72h.96l.24.72 .72-.24v.48l-1.152.479 1.152.48v1.92l-.72-.24-.24.72c-.521.119-.325.955-.96.96l-.24-.719z" fill-rule="evenodd"/>
 <path d="m18.835 15.113h2.88" fill="none" stroke="#000" stroke-linecap="round" stroke-width="1.0182"/>
 <path d="m21.715,15.113c5.071.208 10.112.157 15.12,0" fill="none" stroke="#000" stroke-linecap="round" stroke-width=".8358"/>
 <path d="m21.715 15.113v1.2" fill="none" stroke="#000" stroke-linecap="round" stroke-width=".5543"/>
 <path d="m41.395,15.353c-.494.014-.851-.109-1.2-.24" fill="none" stroke="#000" stroke-linecap="round" stroke-width=".5879"/>
 <path d="m73.555 15.353h1.44" fill="none" stroke="#000" stroke-linecap="round" stroke-width=".5679"/>
 <path d="m80.755,15.593h.482c.365.265.332.747.317,1.049-.239.077-.519.115-.8.151" fill="none" stroke="#000" stroke-linecap="round" stroke-width=".774"/>
 <path d="m87.955,15.353c-1.145.31-2.188.012-3.36,0" fill="none" stroke="#000" stroke-linecap="round" stroke-width=".7044"/>
 <path d="m95.635 15.353h3.84" fill="none" stroke="#000" stroke-linecap="round" stroke-width=".5936"/>
 <path d="m30.835,16.793c1.21.141 2.438.259 3.6-.24" fill="none" stroke="#000" stroke-linecap="round" stroke-width=".7143"/>
 <path d="m42.835,33.113c.819.043 1.565-.379 2.4-.24" fill="none" stroke="#000" stroke-linecap="round" stroke-width=".872"/>
 <path d="m4.435 34.553h2.88" fill="none" stroke="#000" stroke-linecap="round" stroke-width=".5954"/>
 <path d="m11.155,34.553c1.314.163 2.545-.245 3.84-.24" fill="none" stroke="#000" stroke-linecap="round" stroke-width=".7722"/>
 <path d="m72.115 34.553h2.399" fill="none" stroke="#000" stroke-linecap="round" stroke-width=".5967"/>
 <path d="m80.515,34.313c5.325.294 10.834.589 16.08.24" fill="none" stroke="#000" stroke-linecap="round" stroke-width=".7371"/>
 <path d="m63.955,96.473c-.901-9.786-1.477-19.674-2.16-29.52" fill="none" stroke="#000" stroke-linecap="round" stroke-width=".7814"/>
 <path d="m65.155,103.193c-.467,1.775.009,3.664-.72,5.28" fill="none" stroke="#000" stroke-linecap="round" stroke-width=".8783"/>
 <path d="m57.235 104.15c0.859 1.652 1.128 3.598 1.92 5.28" fill="none" stroke="#000" stroke-linecap="round" stroke-width=".625"/>
 <path d="m60.115,123.353c-.141-3.244.134-6.468-.48-9.6" fill="none" stroke="#000" stroke-linecap="round" stroke-width=".6746"/>
 <path d="m60.115 140.63v-13.44" fill="none" stroke="#000" stroke-linecap="round" stroke-width=".5896"/>
 <path d="m60.115,148.313c-.014-.494.11-.851.24-1.2" fill="none" stroke="#000" stroke-linecap="round" stroke-width=".6072"/>
 <path d="m60.595 162.23v-1.44" fill="none" stroke="#000" stroke-linecap="round" stroke-width=".6017"/>
 <path d="m58.915,165.353c-.487-.983.316-2.092-.24-3.12" fill="none" stroke="#000" stroke-linecap="round" stroke-width=".7876"/>
 <path d="m57.235 178.07v-13.92" fill="none" stroke="#000" stroke-linecap="round" stroke-width=".5895"/>
 <path d="m58.915 170.39v-1.439" fill="none" stroke="#000" stroke-linecap="round" stroke-width="1.0263"/>
 <path d="m60.595,179.993c.31-1.145.012-2.188 0-3.36" fill="none" stroke="#000" stroke-linecap="round" stroke-width=".7011"/>
 <path d="m59.155 184.31v-4.319" fill="none" stroke="#000" stroke-linecap="round" stroke-width=".593"/>
 <path d="m57.715,198.713c.084-5.062-.107-10.176-.24-15.12" fill="none" stroke="#000" stroke-linecap="round" stroke-width=".72"/>
 <path d="m60.835,193.192c.457-.952.142-2.092.24-3.119" fill="none" stroke="#000" stroke-linecap="round" stroke-width=".5954"/>
 <path d="m59.155 192.47v-1.439" fill="none" stroke="#000" stroke-linecap="round" stroke-width=".6017"/>
 <path d="m59.395,203.993c-.193-2.5-.199-5.076-.24-7.681" fill="none" stroke="#000" stroke-linecap="round" stroke-width=".7099"/>
 <path d="m61.075 210.23v-8.64" fill="none" stroke="#000" stroke-linecap="round" stroke-width=".5905"/>
 <path d="m57.715 214.07v-11.521" fill="none" stroke="#000" stroke-linecap="round" stroke-width=".5899"/>
 <path d="m59.635,222.713c-.24-4.827.228-9.583-.24-14.4" fill="none" stroke="#000" stroke-linecap="round" stroke-width=".7034"/>
 <path d="m58.195,264.953c-.19-15.359.453-30.986-.48-46.08" fill="none" stroke="#000" stroke-linecap="round" stroke-width=".6364"/>
 <path d="m61.555,223.192c.014-.493-.109-.85-.24-1.199" fill="none" stroke="#000" stroke-linecap="round" stroke-width=".6072"/>
 <path d="m59.635 236.63v-10.08" fill="none" stroke="#000" stroke-linecap="round" stroke-width=".5902"/>
 <path d="m61.555,228.953c-.134-.499-.029-.889 0-1.44" fill="none" stroke="#000" stroke-linecap="round" stroke-width=".6197"/>
 <path d="m61.555 253.43v-20.64" fill="none" stroke="#000" stroke-linecap="round" stroke-width=".589"/>
 <path d="m60.115,253.913c-.207-.995-.163-1.877 0-2.881" fill="none" stroke="#000" stroke-linecap="round" stroke-width=".72"/>
 <path d="m61.555,260.633c.37-1.141-.234-2.568 0-3.84" fill="none" stroke="#000" stroke-linecap="round" stroke-width=".6893"/>
 <path d="m62.035,271.192c-.098-2.104-.546-4.517-.24-6.72" fill="none" stroke="#000" stroke-linecap="round" stroke-width=".8824"/>
 <path d="m62.035 283.19v-7.68" fill="none" stroke="#000" stroke-linecap="round" stroke-width=".5908"/>
 <path d="m48.115,15.833 .072-.409c1.169-.559 2.917.387 4.248-.311" fill="none" stroke="#000" stroke-linecap="round" stroke-width=".6956"/>
 <path d="m52.435,15.113c.675.483 1.576-.179 2.16.48" fill="none" stroke="#000" stroke-linecap="round" stroke-width=".7673"/>
 <path d="m54.595,15.593c5.15-.788 10.29-.225 15.6-.24" fill="none" stroke="#000" stroke-linecap="round" stroke-width=".7624"/>
 <path d="m52.435,15.113c-.041.916.034,1.476.262,1.745 .421-.042 1.083-.025 1.51-.214 .086-.393.225-.734.387-1.051" fill="none" stroke="#000" stroke-linecap="round" stroke-width=".616"/>
 <path d="m54.835,103.673 .336.144c5.612,14.356 2.122,31.01 3.504,46.416" fill="none" stroke="#000" stroke-linecap="round" stroke-width=".6851"/>
 <path d="m61.315,218.152c-.007-1.427-.245-2.913-.24-4.56" fill="none" stroke="#000" stroke-linecap="round" stroke-width=".58"/>
 <path d="m76.675,65.093c-.065,1.018.188,2.094-.24,3.06" fill="none" stroke="#000" stroke-linecap="round" stroke-width="1.0182"/>
 <path d="m77.755,83.873c.504,1.833.707,3.952.439,5.88" fill="none" stroke="#000" stroke-linecap="round" stroke-width="1.2569"/>
 <path d="m51.315,82.553c.781-5.838 1.104-11.859 1.24-17.76" fill="none" stroke="#000" stroke-linecap="round" stroke-width="1.7028"/>
 <path d="m1.155,39.113c-.845-4.86.008-11.188.708-15.999 .346-2.376.669-4.798 1.853-6.921" fill="none" stroke="#000" stroke-linecap="round" stroke-width="1.6057"/>
 <path d="m3.715,16.193c.056-.315.256-.867.4-1.32" fill="none" stroke="#000" stroke-linecap="round" stroke-width="1.7307"/>
 <path d="m64.435,8.153c1.535.353 3.27.4 4.8,0" fill="none" stroke="#000" stroke-linecap="round" stroke-width="1.0216"/>
 <path d="m95.635,8.153c1.062.331 2.302.38 3.36,0" fill="none" stroke="#000" stroke-linecap="round" stroke-width="1.0234"/>
 <path d="m99.955,8.153c1.534.353 3.27.4 4.8,0" fill="none" stroke="#000" stroke-linecap="round" stroke-width="1.0216"/>
 <path d="m80.274,8.153c-1.062.331-2.302.38-3.359,0" fill="none" stroke="#000" stroke-linecap="round" stroke-width="1.0234"/>
 <path d="m9.235,9.593c10.253.626 20.607-.188 30.72.24" fill="none" stroke="#000" stroke-linecap="round" stroke-width=".9369"/>
 <path d="m39.955,9.833c1.412-.636 2.862.189 4.32,0" fill="none" stroke="#000" stroke-linecap="round" stroke-width=".8314"/>
 <path d="m44.275,9.833c1.292.12 2.856-.414 3.84.72" fill="none" stroke="#000" stroke-linecap="round" stroke-width="1.1085"/>
 <path d="m48.115,10.553c1.049-1.135 2.724-.584 4.08-.72" fill="none" stroke="#000" stroke-linecap="round" stroke-width="1.1758"/>
 <path d="m52.195,9.833c2.743-.721 5.588.271 8.4,0" fill="none" stroke="#000" stroke-linecap="round" stroke-width=".8066"/>
 <path d="m60.595,9.833c1.196.067 2.425-.143 3.6.12" fill="none" stroke="#000" stroke-linecap="round" stroke-width="1.022"/>
 <path d="m64.195,9.953c1.331-.148 2.784-.298 4.08.12" fill="none" stroke="#000" stroke-linecap="round" stroke-width="1.022"/>
 <path d="m83.155,10.073c8.571-.483 17.449-.272 25.92,0" fill="none" stroke="#000" stroke-linecap="round" stroke-width=".9895"/>
 <path d="m7.075,11.273c3.294-.013 6.586-.063 9.84.24" fill="none" stroke="#000" stroke-linecap="round" stroke-width=".96"/>
 <path d="m39.955 9.833v1.68" fill="none" stroke="#000" stroke-linecap="round" stroke-width=".5543"/>
 <path d="m39.955 11.513h4.32" fill="none" stroke="#000" stroke-linecap="round" stroke-width="1.4795"/>
 <path d="m52.675,11.433c2.661.286 5.289.183 7.92.24" fill="none" stroke="#000" stroke-linecap="round" stroke-width="1.6278"/>
 <path d="m52.195,9.833c.22.395.388.919.48,1.6" fill="none" stroke="#000" stroke-linecap="round" stroke-width=".72"/>
 <path d="m44.275,11.513c1.28-.103 2.707.315 3.84-.48" fill="none" stroke="#000" stroke-linecap="round" stroke-width="1.5448"/>
 <path d="m44.275 9.833v1.68" fill="none" stroke="#000" stroke-linecap="round" stroke-width=".5543"/>
 <path d="m48.115,10.553v.48" fill="none" stroke="#000" stroke-linecap="round" stroke-width="2.4"/>
 <path d="m48.115,11.033c1.358.788 3.062.446 4.56.4" fill="none" stroke="#000" stroke-linecap="round" stroke-width="1.4988"/>
 <path d="m60.595,11.673c1.173-.331 2.414-.014 3.6-.24" fill="none" stroke="#000" stroke-linecap="round" stroke-width="1.4824"/>
 <path d="m60.595 9.833v1.84" fill="none" stroke="#000" stroke-linecap="round" stroke-width=".5543"/>
 <path d="m64.195 9.953v1.48" fill="none" stroke="#000" stroke-linecap="round" stroke-width=".9992"/>
 <path d="m64.195,11.433c1.347.098 2.749.201 4.08-.08" fill="none" stroke="#000" stroke-linecap="round" stroke-width="1.482"/>
 <path d="m83.155,11.353c3.816.522 7.682.491 11.52.8" fill="none" stroke="#000" stroke-linecap="round" stroke-width="1.6482"/>
 <path d="m105.475,11.753c-.902.126-1.9-.675-2.64.24" fill="none" stroke="#000" stroke-linecap="round" stroke-width=".8314"/>
 <path d="m102.354,12.473c.833,1.073 2.278.805 3.36,1.44" fill="none" stroke="#000" stroke-linecap="round" stroke-width="1.4221"/>
 <path d="m129.23 34.313h0.96" fill="none" stroke="#000" stroke-linecap="round" stroke-width=".9992"/>
 <path d="m126.835,18.713c-.397-.987-.18-2.083-.24-3.12" fill="none" stroke="#000" stroke-linecap="round" stroke-width="1.0182"/>
 <path d="m10.675,13.913c1.958-.866 4.12-.9 6.24-1.12" fill="none" stroke="#000" stroke-linecap="round" stroke-width="1.49"/>
 <path d="m39.955,11.513c-6.108-.128-12.262.081-18.24.32" fill="none" stroke="#000" stroke-linecap="round" stroke-width="1.4789"/>
 <path d="m11.155,14.873c1.224.437 2.566.158 3.84.24" fill="none" stroke="#000" stroke-linecap="round" stroke-width="1.022"/>
 <path d="m3.715,16.193c3.247,1.606 7.153.116 10.56.84" fill="none" stroke="#000" stroke-linecap="round" stroke-width=".9345"/>
 <path d="m1.155,39.113c3.003.147 6.093-.302 9.04.24" fill="none" stroke="#000" stroke-linecap="round" stroke-width="1.0182"/>
 <path d="m3.475,37.433c.91-.223 1.9.604 2.64-.24" fill="none" stroke="#000" stroke-linecap="round" stroke-width=".8032"/>
 <path d="m6.115,37.193v-.48" fill="none" stroke="#000" stroke-linecap="round" stroke-width="1.9399"/>
 <path d="m6.115,36.713c-.539-.442-1.385-.446-2.16-.479" fill="none" stroke="#000" stroke-linecap="round" stroke-width="1.0733"/>
 <path d="m6.115,36.713c9.602-1.156 19.349-.533 29.04-.479" fill="none" stroke="#000" stroke-linecap="round" stroke-width=".934"/>
 <path d="m35.155,36.233c.434-.126 1.035-.383 1.44-.48" fill="none" stroke="#000" stroke-linecap="round" stroke-width=".8314"/>
 <path d="m36.595 35.753v-1.44" fill="none" stroke="#000" stroke-linecap="round" stroke-width=".5543"/>
 <path d="m36.595,34.313c-3.295.319-6.778-.225-10.08.24" fill="none" stroke="#000" stroke-linecap="round" stroke-width=".8606"/>
 <path d="m36.595,34.313c8.664.367 17.764.321 26.4.24" fill="none" stroke="#000" stroke-linecap="round" stroke-width=".6757"/>
 <path d="m36.595,35.753c22.142,1.218 44.934-.117 67.2.72" fill="none" stroke="#000" stroke-linecap="round" stroke-width=".9916"/>
 <path d="m35.155,37.673c22.369-.099 45.435.063 68.16,0" fill="none" stroke="#000" stroke-linecap="round" stroke-width=".994"/>
 <path d="m14.035,37.673v.72" fill="none" stroke="#000" stroke-linecap="round" stroke-width=".5879"/>
 <path d="m34.675,39.113c1.04.087 2.255-.291 3.12.48" fill="none" stroke="#000" stroke-linecap="round" stroke-width="1.0553"/>
 <path d="m37.795,39.593c14.644-1.037 29.824-.323 44.64-.36" fill="none" stroke="#000" stroke-linecap="round" stroke-width="1.0207"/>
 <path d="m82.435,39.233c1.656-.258 3.364-.055 5.04-.12" fill="none" stroke="#000" stroke-linecap="round" stroke-width="1.0182"/>
 <path d="m87.475,39.113c1.036.062 2.104-.136 3.12.12" fill="none" stroke="#000" stroke-linecap="round" stroke-width="1.0226"/>
 <path d="m90.595,39.233c3.111-.296 6.267-.093 9.36.12" fill="none" stroke="#000" stroke-linecap="round" stroke-width=".9632"/>
 <path d="m101.395,39.833c.72-1.036 1.967.336 2.641-.72" fill="none" stroke="#000" stroke-linecap="round" stroke-width=".7673"/>
 <path d="m103.314,15.353c.688-.502 1.67.006 2.4-.48" fill="none" stroke="#000" stroke-linecap="round" stroke-width=".9863"/>
 <path d="m94.675,13.433c-24.652.506-49.977.331-74.88,0" fill="none" stroke="#000" stroke-linecap="round" stroke-width="1.0018"/>
 <path d="m125.875,19.193c-1.13-.804-.413-2.29-.96-3.36" fill="none" stroke="#000" stroke-linecap="round" stroke-width=".9992"/>
 <path d="m122.035,18.233c-.48.308-.96.585-1.44.96" fill="none" stroke="#000" stroke-linecap="round" stroke-width=".6197"/>
 <path d="m121.875,33.593c.169-.64.11-1.28 0-1.92" fill="none" stroke="#000" stroke-linecap="round" stroke-width="1.4872"/>
 <path d="m113.395,42.233c.494-.323.851-.476 1.2-.72" fill="none" stroke="#000" stroke-linecap="round" stroke-width=".6197"/>
 <path d="m127.795,47.513c.479.308.96.585 1.439.96" fill="none" stroke="#000" stroke-linecap="round" stroke-width=".6197"/>
 <path d="m6.115,37.193c2.389.704 5.288.384 7.92.48" fill="none" stroke="#000" stroke-linecap="round" stroke-width=".9522"/>
 <path d="m14.035,37.673c7.067-.161 14.088-.099 21.12,0" fill="none" stroke="#000" stroke-linecap="round" stroke-width=".9144"/>
 <path d="m35.155 37.673v-1.44" fill="none" stroke="#000" stroke-linecap="round" stroke-width=".5543"/>
 <path d="m123.955,46.073c.479.308.96.585 1.439.96" fill="none" stroke="#000" stroke-linecap="round" stroke-width=".6197"/>
 <path d="m1.155,39.113c-.097.424-.042,1.073.08,1.68" fill="none" stroke="#000" stroke-linecap="round" stroke-width="1.4872"/>
 <path d="m19.315,40.793c1.219-.339 2.625-.39 3.84,0" fill="none" stroke="#000" stroke-linecap="round" stroke-width="1.0226"/>
 <path d="m34.675,39.113c-6.549.157-13.188-.316-19.68.24" fill="none" stroke="#000" stroke-linecap="round" stroke-width="1.0182"/>
 <path d="m34.675,39.113v.72" fill="none" stroke="#000" stroke-linecap="round" stroke-width=".5879"/>
 <path d="m57.715,41.273c.968-.997 2.623-.838 3.84-.48" fill="none" stroke="#000" stroke-linecap="round" stroke-width="1.0553"/>
 <path d="m82.435,39.233v.6" fill="none" stroke="#000" stroke-linecap="round" stroke-width="1.0182"/>
 <path d="m87.475 39.113v1.68" fill="none" stroke="#000" stroke-linecap="round" stroke-width=".5543"/>
 <path d="m90.595,39.233v.6" fill="none" stroke="#000" stroke-linecap="round" stroke-width="1.0182"/>
 <path d="m57.235,41.273c-1.411-1.167-3.608-.769-5.28-.48" fill="none" stroke="#000" stroke-linecap="round" stroke-width="1.0431"/>
 <path d="m58.675 41.993h1.92" fill="none" stroke="#000" stroke-linecap="round" stroke-width="1.0182"/>
 <path d="m110.515,45.113c.48-.309.96-.585 1.44-.96" fill="none" stroke="#000" stroke-linecap="round" stroke-width=".6197"/>
 <path d="m55.315,42.233c-1.062-.5-2.303.043-3.36-.48" fill="none" stroke="#000" stroke-linecap="round" stroke-width="1.0234"/>
 <path d="m106.675,41.753c-.64.357-1.28.496-1.92.96" fill="none" stroke="#000" stroke-linecap="round" stroke-width=".6072"/>
 <path d="m122.515,44.633c-.48-.309-.96-.585-1.439-.96" fill="none" stroke="#000" stroke-linecap="round" stroke-width=".6197"/>
 <path d="m125.395,48.953c.255-.64.166-1.28 0-1.92" fill="none" stroke="#000" stroke-linecap="round" stroke-width="1.0911"/>
 <path d="m126.35 50.873h0.48" fill="none" stroke="#000" stroke-linecap="round" stroke-width="1.44"/>
 <path d="m126.835,50.873c.451-.905-.001-1.979.479-2.88" fill="none" stroke="#000" stroke-linecap="round" stroke-width="1.0927"/>
 <path d="m126.835,50.873c.254.674.166,1.058 0,1.44" fill="none" stroke="#000" stroke-linecap="round" stroke-width=".96"/>
 <path d="m20.275,59.513c1.062.331 2.302.38 3.36,0" fill="none" stroke="#000" stroke-linecap="round" stroke-width="1.0234"/>
 <path d="m10.675,61.193c1.192-.129 2.587.358 3.6-.48" fill="none" stroke="#000" stroke-linecap="round" stroke-width="1.0482"/>
 <path d="m14.275,60.713c.449.308.809.492 1.2.72" fill="none" stroke="#000" stroke-linecap="round" stroke-width="1.2238"/>
 <path d="m23.155,61.193c.48.014.96-.11 1.44-.24" fill="none" stroke="#000" stroke-linecap="round" stroke-width="1.0295"/>
 <path d="m107.154,61.433c1.694.358 3.591.402 5.28,0" fill="none" stroke="#000" stroke-linecap="round" stroke-width="1.0212"/>
 <path d="m92.274,63.353c.659-.201 1.26-.409 1.801-.6" fill="none" stroke="#000" stroke-linecap="round" stroke-width="1.2547"/>
 <path d="m94.075,62.753c.082-.532.13-1.176.279-1.8" fill="none" stroke="#000" stroke-linecap="round" stroke-width="1.4872"/>
 <path d="m92.057,64.968c4.756,1.116 9.768.02 14.618.065" fill="none" stroke="#000" stroke-linecap="round" stroke-width="1.6797"/>
 <path d="m106.68 65.033v-1.92" fill="none" stroke="#000" stroke-linecap="round" stroke-width=".5543"/>
 <path d="m106.68 63.113h-2.88" fill="none" stroke="#000" stroke-linecap="round" stroke-width="1.0131"/>
 <path d="m103.8 63.113h-3.36" fill="none" stroke="#000" stroke-linecap="round" stroke-width="1.022"/>
 <path d="m103.8 63.113v-0.72" fill="none" stroke="#000" stroke-linecap="round" stroke-width=".5879"/>
 <path d="m27.475,62.393c.282.32.463.64.64.96" fill="none" stroke="#000" stroke-linecap="round" stroke-width="1.44"/>
 <path d="m29.875,63.353 1.92-.96" fill="none" stroke="#000" stroke-linecap="round" stroke-width="1.3233"/>
 <path d="m94.075,62.753c.995.617 2.275.284 3.389.338 .405-.355.316-1.056.331-1.658" fill="none" stroke="#000" stroke-linecap="round" stroke-width="1.0673"/>
 <path d="m19.383,62.736c1.236.259 2.517.085 3.771.137" fill="none" stroke="#000" stroke-linecap="round" stroke-width="1.482"/>
 <path d="m23.155 62.873v-1.68" fill="none" stroke="#000" stroke-linecap="round" stroke-width=".5543"/>
 <path d="m23.155 61.193h-4.56" fill="none" stroke="#000" stroke-linecap="round" stroke-width="1.0139"/>
 <path d="m25.435,62.993c.592-.032 1.391-.185 2.04-.6" fill="none" stroke="#000" stroke-linecap="round" stroke-width=".8888"/>
 <path d="m27.475,62.393v-.48" fill="none" stroke="#000" stroke-linecap="round" stroke-width="1.4795"/>
 <path d="m52.595 89.113c1.229-7.572 1.175-15.478 2-23.12" fill="none" stroke="#000" stroke-linecap="round" stroke-width=".8032"/>
 <path d="m52.195,95.273c-.133,1.023.29,2.193-.24,3.12" fill="none" stroke="#000" stroke-linecap="round" stroke-width=".9937"/>
 <path d="m52.195,95.273c-.312-.14-.777-.402-1.2-.72" fill="none" stroke="#000" stroke-linecap="round" stroke-width=".6197"/>
 <path d="m54.835,100.793c1.313.064 2.508-.69 3.84-.48" fill="none" stroke="#000" stroke-linecap="round" stroke-width="1.5554"/>
 <path d="m58.675,100.313c2.814-.284 5.587-.053 8.4-.08" fill="none" stroke="#000" stroke-linecap="round" stroke-width="1.3501"/>
 <path d="m67.075,100.233c-.138-2.204.287-4.491-.24-6.64" fill="none" stroke="#000" stroke-linecap="round" stroke-width="1.0339"/>
 <path d="m66.835,93.593c.063-2.393-.468-4.941-.24-7.44" fill="none" stroke="#000" stroke-linecap="round" stroke-width=".9357"/>
 <path d="m66.595,86.153c-1.175-6.99-.919-14.263-1.92-21.36" fill="none" stroke="#000" stroke-linecap="round" stroke-width=".9721"/>
 <path d="m66.595,86.153c.312-.14.777-.402 1.2-.72" fill="none" stroke="#000" stroke-linecap="round" stroke-width=".6197"/>
 <path d="m67.795,80.153c-.204-.8-.365-1.6-.48-2.4" fill="none" stroke="#000" stroke-linecap="round" stroke-width="1.1474"/>
 <path d="m67.314,73.433c-.293-1.555-.71-3.212-.319-4.8" fill="none" stroke="#000" stroke-linecap="round" stroke-width="1.3035"/>
 <path d="m67.795,63.833c.154-.48.293-.96.479-1.44" fill="none" stroke="#000" stroke-linecap="round" stroke-width="1.1257"/>
 <path d="m65.635 97.673c-1.019-11.734-1.729-23.522-2.64-35.28" fill="none" stroke="#000" stroke-linecap="round" stroke-width=".859"/>
 <path d="m55.315,62.713c-.64.396-1.28.587-1.92.8" fill="none" stroke="#000" stroke-linecap="round" stroke-width="1.4716"/>
 <path d="m79.314 63.113h1.92" fill="none" stroke="#000" stroke-linecap="round" stroke-width="1.0245"/>
 <path d="m81.234,63.113v-.72" fill="none" stroke="#000" stroke-linecap="round" stroke-width=".5879"/>
 <path d="m81.234,63.113c1.517-.073 3.065.151 4.561-.12" fill="none" stroke="#000" stroke-linecap="round" stroke-width="1.0182"/>
 <path d="m85.795,62.993v-.6" fill="none" stroke="#000" stroke-linecap="round" stroke-width="1.0182"/>
 <path d="m91.314 62.873v-1.2" fill="none" stroke="#000" stroke-linecap="round" stroke-width="1.4664"/>
 <path d="m106.68 63.113h0.479" fill="none" stroke="#000" stroke-linecap="round" stroke-width="1.0369"/>
 <path d="m107.15 63.113v-1.68" fill="none" stroke="#000" stroke-linecap="round" stroke-width=".5543"/>
 <path d="m111.955,63.113c.479.014.96-.11 1.439-.24" fill="none" stroke="#000" stroke-linecap="round" stroke-width="1.0295"/>
 <path d="m16.915,64.793c.48.009.96-.073 1.44-.16" fill="none" stroke="#000" stroke-linecap="round" stroke-width="1.5305"/>
 <path d="m18.355,64.633c.246-.655.756-1.502 1.028-1.897" fill="none" stroke="#000" stroke-linecap="round" stroke-width=".9357"/>
 <path d="m15.955,61.913c-.827,1.106-2.292.415-3.36.96" fill="none" stroke="#000" stroke-linecap="round" stroke-width="1.0625"/>
 <path d="m25.555,64.913c.659.157 1.132-.071 1.92-.12" fill="none" stroke="#000" stroke-linecap="round" stroke-width="1.8067"/>
 <path d="m18.355,64.633c2.348.49 4.796.173 7.2.28" fill="none" stroke="#000" stroke-linecap="round" stroke-width="1.6718"/>
 <path d="m25.555,64.913c.018-.568-.02-1.304-.12-1.92" fill="none" stroke="#000" stroke-linecap="round" stroke-width="1.4795"/>
 <path d="m25.435,62.993c-.67-.13-1.493-.107-2.28-.12" fill="none" stroke="#000" stroke-linecap="round" stroke-width="1.4795"/>
 <path d="m46.195,64.953 .96-.32" fill="none" stroke="#000" stroke-linecap="round" stroke-width="1.6278"/>
 <path d="m47.155,64.633v-.8" fill="none" stroke="#000" stroke-linecap="round" stroke-width="1.4795"/>
 <path d="m47.155,64.633c1.409.342 2.882.079 4.32.16" fill="none" stroke="#000" stroke-linecap="round" stroke-width="1.5026"/>
 <path d="m76.675,65.093c.874-.112 1.761-.036 2.64-.06" fill="none" stroke="#000" stroke-linecap="round" stroke-width="1.9524"/>
 <path d="m79.314 65.033v-1.92" fill="none" stroke="#000" stroke-linecap="round" stroke-width=".5543"/>
 <path d="m79.314 63.113h-2.88" fill="none" stroke="#000" stroke-linecap="round" stroke-width="1.0131"/>
 <path d="m79.314,65.033c4.247-.05 8.502.101 12.742-.065" fill="none" stroke="#000" stroke-linecap="round" stroke-width="1.9503"/>
 <path d="m92.057,64.968c.153-.603.166-1.093.218-1.615" fill="none" stroke="#000" stroke-linecap="round" stroke-width="1.4795"/>
 <path d="m92.274,63.353-.96-.48" fill="none" stroke="#000" stroke-linecap="round" stroke-width="1.0733"/>
 <path d="m91.314,62.873c-1.776.409-3.713.286-5.52.12" fill="none" stroke="#000" stroke-linecap="round" stroke-width="1.0386"/>
 <path d="m106.675,65.033c1.711.333 3.427.124 5.16,0" fill="none" stroke="#000" stroke-linecap="round" stroke-width="1.7732"/>
 <path d="m111.835,65.033c.1-.566.092-1.008.12-1.92" fill="none" stroke="#000" stroke-linecap="round" stroke-width=".72"/>
 <path d="m111.96 63.113h-4.801" fill="none" stroke="#000" stroke-linecap="round" stroke-width="1.0153"/>
 <path d="m111.835,65.033c.366.149.721.27 1.08.4" fill="none" stroke="#000" stroke-linecap="round" stroke-width="1.6278"/>
 <path d="m75.234,66.713c-.125-.434-.382-1.035-.479-1.44" fill="none" stroke="#000" stroke-linecap="round" stroke-width=".774"/>
 <path d="m76.675,65.093c-.138-.069-.968-.386-1.392-.588" fill="none" stroke="#000" stroke-linecap="round" stroke-width="1.7472"/>
 <path d="m76.915,83.993c.306-.015.573-.066.84-.12" fill="none" stroke="#000" stroke-linecap="round" stroke-width="1.4795"/>
 <path d="m77.755,83.873c.168-1.061.214-2.188-.04-3.24" fill="none" stroke="#000" stroke-linecap="round" stroke-width="1.483"/>
 <path d="m66.835,93.593h.96" fill="none" stroke="#000" stroke-linecap="round" stroke-width=".5879"/>
 <path d="m52.195,95.273c.304-1.993.592-4.104.4-6.16" fill="none" stroke="#000" stroke-linecap="round" stroke-width=".8258"/>
 <path d="m52.595,89.113c-.145-.044-.39-.062-.64-.08" fill="none" stroke="#000" stroke-linecap="round" stroke-width="1.0182"/>
 <path d="m67.075,100.233 .239.08" fill="none" stroke="#000" stroke-linecap="round" stroke-width="1.5179"/>
 <path d="m66.835,115.193c-.167-3.097.929-6.367 2.399-9.12" fill="none" stroke="#000" stroke-linecap="round" stroke-width=".9863"/>
 <path d="m67.314,100.313c.359,1.922-.948,3.479-.96,5.28" fill="none" stroke="#000" stroke-linecap="round" stroke-width=".6632"/>
 <path d="m58.675,100.313c-.052,1.822.456,3.584.96,5.28" fill="none" stroke="#000" stroke-linecap="round" stroke-width=".6956"/>
 <path d="m54.115,106.793c.02-.964-.905-1.641-.72-2.64" fill="none" stroke="#000" stroke-linecap="round" stroke-width=".7658"/>
 <path d="m54.115 106.79c5.001 16.778 1.594 34.877 2.88 52.32" fill="none" stroke="#000" stroke-linecap="round" stroke-width=".7793"/>
 <path d="m54.115,106.793c-.312.14-.777.402-1.2.72" fill="none" stroke="#000" stroke-linecap="round" stroke-width=".6197"/>
 <path d="m56.515,327.112c.427,1.428.289,3.083.08,4.561" fill="none" stroke="#000" stroke-linecap="round" stroke-width="1.4726"/>
 <path d="m58.915,331.912c-.599-19.996-.058-40.729-.24-60.72" fill="none" stroke="#000" stroke-linecap="round" stroke-width=".6115"/>
 <path d="m60.355,329.992c-.556-23.876-.083-48.193-.24-72.239" fill="none" stroke="#000" stroke-linecap="round" stroke-width=".594"/>
 <path d="m62.275,332.872c-.786-14.935.006-30.441-.24-45.359" fill="none" stroke="#000" stroke-linecap="round" stroke-width=".6734"/>
 <path d="m63.715,329.272c-.371-75.525-.917-150.67-2.64-226.08" fill="none" stroke="#000" stroke-linecap="round" stroke-width=".7364"/>
 <path d="m64.435 203.51c-0.534-33.734-1.16-67.036-1.2-100.8" fill="none" stroke="#000" stroke-linecap="round" stroke-width=".8812"/>
 <path d="m64.435,203.513c.48.028.96-.219 1.44-.479" fill="none" stroke="#000" stroke-linecap="round" stroke-width=".8764"/>
 <path d="m65.875,203.033c.528-5.189-.071-10.435.24-15.601" fill="none" stroke="#000" stroke-linecap="round" stroke-width=".9833"/>
 <path d="m66.115,187.433c-.826-19.486-.613-38.794-.96-58.32" fill="none" stroke="#000" stroke-linecap="round" stroke-width=".9565"/>
 <path d="m65.155,129.113c-.206-1.925-.002-3.817 0-5.76" fill="none" stroke="#000" stroke-linecap="round" stroke-width="1.1069"/>
 <path d="m65.155,123.353c-.599-6.807-.333-13.976 3.36-19.92" fill="none" stroke="#000" stroke-linecap="round" stroke-width=".9659"/>
 <path d="m65.155 123.35h0.72" fill="none" stroke="#000" stroke-linecap="round" stroke-width=".5879"/>
 <path d="m66.835 115.19h0.96" fill="none" stroke="#000" stroke-linecap="round" stroke-width=".9895"/>
 <path d="m66.835,115.193c-.331,1.062-.381,2.302 0,3.36" fill="none" stroke="#000" stroke-linecap="round" stroke-width="1.0553"/>
 <path d="m65.155 129.11h0.72" fill="none" stroke="#000" stroke-linecap="round" stroke-width=".5879"/>
 <path d="m67.555,181.913c.047-2.42-.382-4.792-.08-7.2" fill="none" stroke="#000" stroke-linecap="round" stroke-width="1.2778"/>
 <path d="m67.075,159.353c.082-1.117-.21-2.297.239-3.36" fill="none" stroke="#000" stroke-linecap="round" stroke-width="1.0182"/>
 <path d="m67.194,147.593c-.407-2.447.245-5.029-.359-7.44" fill="none" stroke="#000" stroke-linecap="round" stroke-width="1.0202"/>
 <path d="m66.995,134.873c-.222-1.093-.255-2.269 0-3.36" fill="none" stroke="#000" stroke-linecap="round" stroke-width="1.483"/>
 <path d="m66.115,187.433c.188-.131.452-.188.72-.24" fill="none" stroke="#000" stroke-linecap="round" stroke-width=".6197"/>
 <path d="m67.194 147.59h0.601" fill="none" stroke="#000" stroke-linecap="round" stroke-width="1.0182"/>
 <path d="m67.194,147.593c-.148,1.332-.298,2.784.12,4.08" fill="none" stroke="#000" stroke-linecap="round" stroke-width="1.022"/>
 <path d="m67.075,159.353c.647.028 1.143-.219 1.68-.48" fill="none" stroke="#000" stroke-linecap="round" stroke-width=".5879"/>
 <path d="m67.075,159.353c-.093,1.135-.052,2.374.96,3.12" fill="none" stroke="#000" stroke-linecap="round" stroke-width="1.2394"/>
 <path d="m68.035,162.473c.402-.423.608-1.073.72-1.68" fill="none" stroke="#000" stroke-linecap="round" stroke-width="1.6971"/>
 <path d="m68.035 162.47v0.48" fill="none" stroke="#000" stroke-linecap="round" stroke-width="2.8933"/>
 <path d="m68.035,162.953c.638.539.882,1.385 1.199,2.16" fill="none" stroke="#000" stroke-linecap="round" stroke-width="1.4266"/>
 <path d="m68.035,162.953c-1.206,1.514-.683,3.732-.561,5.52" fill="none" stroke="#000" stroke-linecap="round" stroke-width="1.5298"/>
 <path d="m55.315,169.913c.358-1.694.402-3.591 0-5.28" fill="none" stroke="#000" stroke-linecap="round" stroke-width="1.0212"/>
 <path d="m55.075,176.873c.729-.996.572-2.476.24-3.601" fill="none" stroke="#000" stroke-linecap="round" stroke-width="1.0553"/>
 <path d="m56.515 327.11c0.814-49.964 0.525-100.53-1.44-150.24" fill="none" stroke="#000" stroke-linecap="round" stroke-width=".888"/>
 <path d="m67.955,202.073c-.227-1.253-.262-2.59 0-3.841" fill="none" stroke="#000" stroke-linecap="round" stroke-width="1.4824"/>
 <path d="m67.795,191.993c-.347-1.377-.396-2.948 0-4.32" fill="none" stroke="#000" stroke-linecap="round" stroke-width="1.022"/>
 <path d="m65.875,203.033c.221.743.151,1.75.72,2.64" fill="none" stroke="#000" stroke-linecap="round" stroke-width="1.0733"/>
 <path d="m53.875,199.673c.347-1.377.396-2.948 0-4.32" fill="none" stroke="#000" stroke-linecap="round" stroke-width="1.022"/>
 <path d="m67.194,301.192c-.405-2.341-.116-4.584-.119-6.96" fill="none" stroke="#000" stroke-linecap="round" stroke-width=".96"/>
 <path d="m67.075,294.232c.184-3.709-.489-7.404.239-11.04" fill="none" stroke="#000" stroke-linecap="round" stroke-width="1.0809"/>
 <path d="m67.314,280.312c-.606-1.403-.421-2.896 0-4.319" fill="none" stroke="#000" stroke-linecap="round" stroke-width=".9372"/>
 <path d="m67.314,275.993c-.34-2.591-.592-5.191-.479-7.681" fill="none" stroke="#000" stroke-linecap="round" stroke-width="1.1047"/>
 <path d="m66.595,251.993c.123-1.753-.27-3.583.24-5.28" fill="none" stroke="#000" stroke-linecap="round" stroke-width="1.0182"/>
 <path d="m66.835,239.513c-.519-3.611-.038-7.542-.48-11.04" fill="none" stroke="#000" stroke-linecap="round" stroke-width=".9964"/>
 <path d="m64.435,203.513c.487,42.143.977,84.256.72,126.24" fill="none" stroke="#000" stroke-linecap="round" stroke-width=".8889"/>
 <path d="m65.155 329.75h0.72" fill="none" stroke="#000" stroke-linecap="round" stroke-width=".5879"/>
 <path d="m53.515,270.473c.127,3.246.348,6.631-.12,9.84" fill="none" stroke="#000" stroke-linecap="round" stroke-width="1.0197"/>
 <path d="m55.075,321.112c.86-38.782-.362-77.859-.48-117.119" fill="none" stroke="#000" stroke-linecap="round" stroke-width=".8813"/>
 <path d="m67.795 209.27v-2.88" fill="none" stroke="#000" stroke-linecap="round" stroke-width="1.4759"/>
 <path d="m66.595,205.673c-.994,1.939-.246,4.351-.479,6.479" fill="none" stroke="#000" stroke-linecap="round" stroke-width="1.0339"/>
 <path d="m66.115 212.15h0.72" fill="none" stroke="#000" stroke-linecap="round" stroke-width=".5879"/>
 <path d="m66.115,212.152c.077,2.316-.158,4.666.119,6.96" fill="none" stroke="#000" stroke-linecap="round" stroke-width="1.0202"/>
 <path d="m66.234,219.112c.356.139 1.007.211 1.801.24" fill="none" stroke="#000" stroke-linecap="round" stroke-width=".6788"/>
 <path d="m68.035,219.353c-.108-1.434.248-2.94-.24-4.319" fill="none" stroke="#000" stroke-linecap="round" stroke-width="1.0216"/>
 <path d="m67.362 225.35h1.393" fill="none" stroke="#000" stroke-linecap="round" stroke-width="1.0182"/>
 <path d="m68.035,219.353c.019.678-.021,1.239-.12,1.681" fill="none" stroke="#000" stroke-linecap="round" stroke-width="1.0182"/>
 <path d="m67.915,221.033c.154,1.172.283,2.461-.12,3.6" fill="none" stroke="#000" stroke-linecap="round" stroke-width="1.0226"/>
 <path d="m66.115,220.793c.871.003 1.285.181 1.8.24" fill="none" stroke="#000" stroke-linecap="round" stroke-width=".6788"/>
 <path d="m66.234,219.112c-.107.424-.104,1.073-.119,1.681" fill="none" stroke="#000" stroke-linecap="round" stroke-width="1.0182"/>
 <path d="m66.115,220.793c.097,1.274-.232,2.619.239,3.84" fill="none" stroke="#000" stroke-linecap="round" stroke-width="1.022"/>
 <path d="m69.555,232.793c.305-.936-.004-1.947.32-2.88" fill="none" stroke="#000" stroke-linecap="round" stroke-width="1.4838"/>
 <path d="m68.035,239.033c-.015-.48.109-.96.239-1.44" fill="none" stroke="#000" stroke-linecap="round" stroke-width="1.0182"/>
 <path d="m68.274,232.793c-.606-1.693.139-3.591-.479-5.28" fill="none" stroke="#000" stroke-linecap="round" stroke-width="1.0212"/>
 <path d="m53.395,250.072c.373-2.33.404-4.874 0-7.199" fill="none" stroke="#000" stroke-linecap="round" stroke-width="1.0203"/>
 <path d="m68.354 249.35h0.88" fill="none" stroke="#000" stroke-linecap="round" stroke-width="1.0182"/>
 <path d="m66.595 251.99h1.68" fill="none" stroke="#000" stroke-linecap="round" stroke-width=".72"/>
 <path d="m68.274,251.993c.28-.874.197-1.758.08-2.641" fill="none" stroke="#000" stroke-linecap="round" stroke-width="1.2394"/>
 <path d="m68.354,249.353c-.183-.869.061-1.785-.239-2.64" fill="none" stroke="#000" stroke-linecap="round" stroke-width="1.4838"/>
 <path d="m68.274,251.993c.223,1.54.421,3.257 0,4.8" fill="none" stroke="#000" stroke-linecap="round" stroke-width="1.0516"/>
 <path d="m66.595,251.993c.136,2.23-.287,4.544.24,6.72" fill="none" stroke="#000" stroke-linecap="round" stroke-width="1.0203"/>
 <path d="m53.635,262.072c-.062-.958.179-1.974-.24-2.88" fill="none" stroke="#000" stroke-linecap="round" stroke-width="1.0234"/>
 <path d="m53.515,270.473c.271-2.776.046-5.604.12-8.4" fill="none" stroke="#000" stroke-linecap="round" stroke-width="1.0182"/>
 <path d="m53.635 262.07h-0.72" fill="none" stroke="#000" stroke-linecap="round" stroke-width=".5879"/>
 <path d="m53.515 270.47h-0.6" fill="none" stroke="#000" stroke-linecap="round" stroke-width="1.0182"/>
 <path d="m53.395,287.032c.339-1.218.39-2.625 0-3.84" fill="none" stroke="#000" stroke-linecap="round" stroke-width="1.0226"/>
 <path d="m67.075 294.23h0.72" fill="none" stroke="#000" stroke-linecap="round" stroke-width=".5879"/>
 <path d="m78.595,288.952c.195-.8.253-1.6.08-2.399" fill="none" stroke="#000" stroke-linecap="round" stroke-width="1.3387"/>
 <path d="m53.395,292.793c.339-1.219.39-2.626 0-3.841" fill="none" stroke="#000" stroke-linecap="round" stroke-width="1.0226"/>
 <path d="m67.194 301.19h0.601" fill="none" stroke="#000" stroke-linecap="round" stroke-width="1.0182"/>
 <path d="m67.194,301.192c-.344,3.704-.453,7.906.36,11.521" fill="none" stroke="#000" stroke-linecap="round" stroke-width="1.164"/>
 <path d="m67.555,312.713c-1.141,3.996-.149,8.52-.479,12.72" fill="none" stroke="#000" stroke-linecap="round" stroke-width="1.0272"/>
 <path d="m56.515 327.11h-0.72" fill="none" stroke="#000" stroke-linecap="round" stroke-width="1.0182"/>
 <path d="m65.155 329.75v1.439" fill="none" stroke="#000" stroke-linecap="round" stroke-width="1.0263"/>
</svg>
