<?xml version="1.0" encoding="UTF-8"?>
<svg viewBox="0 0 1600 1200" xmlns="http://www.w3.org/2000/svg" xmlns:xlink="http://www.w3.org/1999/xlink">
 <defs>
  <linearGradient id="b" x1="673.85" x2="651.85" y1="450.55" y2="417.72" gradientUnits="userSpaceOnUse" xlink:href="#a"/>
  <linearGradient id="c" x1="606.39" x2="570.39" y1="385.81" y2="346.74" gradientUnits="userSpaceOnUse" xlink:href="#a"/>
  <linearGradient id="a">
   <stop offset="0"/>
   <stop offset=".4054"/>
   <stop stop-opacity="0" offset=".55242"/>
   <stop stop-opacity=".233" offset="1"/>
  </linearGradient>
  <linearGradient id="d" x1="543.97" x2="632.81" y1="-104.88" y2="-229.69" gradientUnits="userSpaceOnUse" xlink:href="#a"/>
 </defs>
 <g transform="rotate(28.428 790.02 543.2)" fill="#fff">
  <path d="m734.27 319.85c63.543-59.54 157.8-4.0443 157.8-4.0443l-65.044 57.038c-20.301-32.475-43.137-62.654-92.755-52.994z" fill-rule="evenodd" stroke="#000" stroke-width="3.7"/>
  <g fill-rule="evenodd">
   <g stroke="#000">
    <path d="m712.33 321.26c63.543-59.54 153.55 6.5694 153.55 6.5694l-57.968 46.425c-20.301-32.475-45.967-62.654-95.585-52.994z" stroke-width="3.7"/>
    <path d="m850.19 388.93c-114.86 148.18-269.19 307.31-291.99 345.64-31.962 53.707 45.802 91.537 80.882 45.69 71.522-93.473 253.17-359.81 253.17-359.81 3.8746-17.031 1.9659-33.04-42.059-31.51z" stroke-width="6.78"/>
   </g>
   <path d="m850.19 388.93c-32.614 38.016-60.346 71.205-85.383 99.015-13.083 14.532 38.464 60.106 47.184 49.212 43.86-54.796 80.258-116.72 80.258-116.72 3.8746-17.031 1.9659-33.04-42.059-31.51z" stroke-width="6.78"/>
  </g>
  <path d="m880.45 315.52c-4.1871 0.087585-35.336-9.8215-42.176 1.0079l-41.357 47.908c-6.0841 7.0496-5.6969 18.073 0.85046 24.694l77.17 78.052c9.5712 12.165 34.359 0.21457 68.666-6.8351l37.325-42.869c6.084-7.0496 5.6969-18.073-0.85046-24.694l-74.65-74.524c-3.2225-3.2591-20.92-2.8252-24.978-2.7403z" stroke="#000" stroke-width="5.651"/>
  <path d="m859.06 316.75l77.182 78.058c6.5473 6.6216 6.9203 17.628 0.83618 24.677l-41.36 47.923c-6.0841 7.0496-16.253 7.3942-22.8 0.77264l-77.182-78.058c-6.5474-6.6216-6.9203-17.628-0.83618-24.677l41.36-47.923c6.084-7.0496 16.253-7.3943 22.8-0.77264z" stroke="url(#d)" stroke-miterlimit="7.8" stroke-width="5.66"/>
  <path d="m959.97 421.17c-5.0183 0.14307-10.834 1.6346-17.229 4.5357-7.8488 3.5606-19.783 16.95-21.954 25.23-2.0751 7.9147 0.39447 14.204 4.3707 17.997 3.9398 3.7584 17.781 16.979 20.911 20.809 5.6386 6.8983 17.375 7.8296 31.982 1.1651 22.716-10.364 18.618-4.9491 21.923-25.198 1.1785-7.2211 2.4299-13.96-0.68805-17.796-3.8201-4.6998-21.357-16.713-24.188-20.531-3.1318-4.2226-8.391-6.4035-15.126-6.2114z" stroke="url(#c)" stroke-miterlimit="7.8" stroke-width="4.449"/>
  <g stroke-miterlimit="7.8" stroke-width="4.449">
   <path d="m1008.3 439.82c-5.0184 0.1431-10.841 1.6208-17.229 4.5357-22.716 10.364-43.848 35.219-47.152 55.468-1.318 8.0754 0.39435 14.204 4.3706 17.997 3.9398 3.7584 17.781 16.979 20.911 20.809 5.6386 6.8984 17.375 7.8296 31.982 1.1651 22.716-10.364 43.816-35.187 47.121-55.436 1.1785-7.2212 2.4298-13.96-0.68811-17.796-3.8201-4.6998-21.357-16.713-24.188-20.531-3.1318-4.2226-8.391-6.4035-15.126-6.2114z" stroke="#000"/>
   <path d="m1050.5 484.35c-3.3065 20.26-24.411 45.09-47.139 55.459-22.728 10.37-38.472 2.3519-35.165-17.908 3.3065-20.26 24.411-45.09 47.139-55.459 22.728-10.37 38.471-2.3518 35.165 17.908v3.1e-5z" stroke="url(#b)"/>
  </g>
 </g>
</svg>
