<?xml version="1.0" encoding="UTF-8"?>
<svg viewBox="0 0 1180.8362 460.34045" xmlns="http://www.w3.org/2000/svg">
 <g transform="translate(173.53 137.1)">
  <path d="m-110.61 323.12c-33.582 0.12476-73.211-14.678-61.845-55.986-1.6518-69.742-1.0319-139.58 2.595-209.25 24.027-18.001 51.334-30.906 48.737-66.676 16.724-35.14 5.2552-89.019 40.232-111.3 13.836-23.123 58.144-21.86 56.308 11.669 9.9099 40.921 25.438 80.72 33.734 121.73-4.6104 33.38-9.4065 81.644 38.489 62.4 46.613 2.9207 95.204 0.2181 140.5 0.2 26.049-2.3032 48.765 1.4904 72.777-0.16447 64.978-1.6792 131.42-1.7639 194.72-2.8355 27.47 0.42958 64.731-1.4972 96.959-1.0139 81.751-0.04031 162.03-2.2255 243.2-5.2162 32.068 1.7813 67.835-2.0616 102.63-1.5331 34.882 2.3716 87.946-15.912 102.28 28.593 12.739 31.71 6.0763 70.413-13.295 98.338-16.914 10.295-29.164 8.5558-23.776 0.88319-7.6753 8.3564-35.04 7.2191-59.402 7.2133-35.29-1.0726-73.242 2.2659-106.69-1.9433-29.032 4.5636-62.125-1.4389-93.048 1.6371-22.73 2.4514-30.984-6.4462-50.932-0.0412-30.931-0.15918-60.047-1.4215-89.771-1.6724-50.046-1.2832-103.76 1.1356-151.7-2.9944-33.051 4.0098-65.742-0.0262-98.178 0.0865-54.482-1.046-112.85-1.07-165.07-2.4799-43.015-0.16496-89.011-3.3963-132.14 0.26615-27.794 7.7943 10.49 74.466-30.576 86.877-24.326 27.772-59.479 43.972-96.75 43.216zm-20.388-10.716c-0.62807-5.5091-3.4844 5.4232 0 0zm29.979-2.75c22.809 0.97356 52.134-12.765 14.409-14.5-10.306 5.1862-95.645-6.2415-49.996 11.965 11.595 1.2453 24.059 5.8981 35.587 2.5347zm29.659-17.75c35.485 2.3195 31.732-87.184-12.195-67.02-22.064-4.4336-53.973 3.3314-71.622-3.7302 9.3548-6.5847 29.906-0.50977 43.406-2.4068 18.983 4.7148 88.045-1.6554 33.601-6.8278-24.092-2.8793-55.349 1.783-75.981-5.0335 15.161-8.2536 49.175-0.51515 69.29-1.9818 24.042 7.0909 48.631-8.4806 14.1-7.8437-25.66-5.4144-65.796 7.7598-82.352-7.2015 33.602-1.2594 67.687 1.7853 102.25 1.2969-20.602-19.209-67.219-4.6758-95.465-10.196-36.802-10.098 87.421-4.1496 55.896-4.7824 25.761 6.1063 57.748-7.1908 14.258-8.328-22.133-3.67-66.698 5.4041-76.744-6.1994 30.059-6.9127 81.142 7.4172 101.16-3.746-16.398-9.7082-37.494-0.81565-53.581-4.7762-18.948 3.7163-74.624-6.8861-24.429-6.3478 25.214-3.573 55.663 8.1883 75.403-2.769-30.446-8.0303-62.79-3.4044-95.112-6.8411 3.6279-9.0831 50.799-2.8579 69.404-3.277 27.742 6.2881 33.736-12.783 2.8952-8.5005-18.062-2.3152-75.478 4.2423-72.243-6.4754 30.004-7.0682 79.777 11.332 97.305-8.0282 15.408-18.514-42.138-15.58-55.092-15.198-22.766 2.0216-71.196-4.4636-27.003-5.724 22.814-3.0073 74.068 8.6632 80.714-5.547-15.94-6.9365-37.558 1.0415-58.32-3.3392-14.106 5.0773-48.739-10.25-51.097 6.9867 0.04 66.954-4.3136 134.51-0.0898 201.06 28.186 0.48506 69.183-0.59715 91.637 2.7776zm-21.137-10.47c-11.557-2.1919-70.687 3.2429-57.281-6.4362 26.154 2.7766 79.583-5.6618 89.669 6.1775-10.773 0.56747-21.61 0.85935-32.387 0.25874zm-28.863-13.53c-24.09 3.0225-49.882-10.489-14.223-7.3185 22.444 2.6474 76.587-4.5284 74.547 8.3185-18.919-2.3985-36.573-0.0388-56.824-1l-1.441 1-2.059-1v3e-5zm-24.921-14.695c-28.07-15.17 48.23-1.919 61.206-5.0474 8.2342-1.8834 42.828 1.4908 21.244 5.7426-27.931-0.96717-54.286-0.15164-81.866-0.75l-0.40764 0.69395-0.17569-0.63915v-1e-5zm22.449-14.106c-21.393 1.225-48.275-10.806-7.9096-6.1992 18.254 1.1697 75.053-6.06 72.347 6.5-21.479-0.0408-42.962 0.14311-64.438-0.30081zm-2.3174-128.98c-16.106 0.20766-45.15-5.6052-7.6774-6.2405 16.839-1.794 90.691 3.3773 42.276 6.105-11.53 0.29346-23.067 0.40556-34.599 0.13548zm57.569-0.9689c15.413-18.947 26.825 5.744 0 0zm28.221 164.19c-5.8709-18.003-4.8613 6.5662 0 0zm20.382-2.9929c-0.9913-3.6779-2.0581 5.0909 0 0zm-25.382-5.4481c-2.5549-3.5874-2.5549 3.5874 0 0zm7-6c-2.5549-3.5874-2.5549 3.5874 0 0zm6.8096-8.75c-3.2787-6.1824-3.2787 6.1824 0 0zm11.19-12.25c-3.9032-3.6531-3.9032 3.6531 0 0zm-2.3958-16.729c-2.2533 0.93468 2.1015 3.9596 0 0zm-14.604-1.3298c-4.3859-3.7867-2.1703 5.0757 0 0zm841-23.358c3.7266-8.326-6.2716 4.8737 0 0zm83.725-0.58333c-2.8792-6.9538-1.9792 6.9916 0 0zm55.08-1.0246c-6.4842-29.061-14.126 10.142 0 0zm-386.8 1.0836c-1.8976-5.0354-3.1061 3.6266 0 0zm419.87-4.1628c-7.3384-3.2901 2.4743 8.8827 0 0zm-30.262 0.3746c-2.2536 0.93472 2.1016 3.9596 0 0zm-490.6 0.72917c-2.5549-3.5874-2.5549 3.5874 0 0zm342.48-2.6622c-7.6417-6.7408 2.6184 10.497 0 0zm10.881 2.1622c-0.86537-5.2821-2.3735 5.247 0 0zm44.638 0.5c-2.5549-3.5874-2.5549 3.5874 0 0zm100.52-3.8161c-6.649-0.0407-3.2442 10.418 0 0zm-183.42 1.0661c17.188 1.5212-2.276-15.482-2.0981 2.6301l2.0981-2.6301zm-322.1-0.75c-2.4793-5.269-2.4793 5.269 0 0zm22 0c15.182-18.119-13.808 7.2583 0 0zm321 0.51905c-7.4266-10.2-10.621 3.8844 0 0zm174.01-1.5393c2.2271-12.371-10.576 10.192 0 0zm-506.15-2.3602c-5.4094-1.4931-0.73747 6.1939 0 0zm299.15-0.92857c10.18-5.4463 39.082-6.6186 4.3372-6.217-26.074-2.3111-55.586-1.5784-82.731-1.6809-40.457 0.63481 18.379 8.5158 24.313 2.7047 13.271 7.2787 48.131-4.5917 54.081 5.1932zm109.51 2.0022c-4.3498 1.1878-1.9332 2.8301 0 0zm-347.03-3.1931c14.352-5.1971 67.901-8.3929 26.886-7.5502-29.241-2.9086-53.693-0.69224-78.386-0.44978-18.094-2.2518-37.033-0.0246-55-1-20.971 0.0436-41.352 0.64742-63.877-1.1371-30.418 3.0928-62.027-2.3745-94.977 1.1984-55.227-1.7462-113.9-3.124-169.96-0.41136 35.132 2.3338 72.152 3.6462 106.63 2.1704 24.504 2.1816 43.579 0.92433 70.467 2.185 40.651 0.64031 77.851-2.6733 118.06 2.2384 15.804-8.0937 52.001 6.6672 51.126-1.2438 18.119-4.3438 52.839 6.3569 57.535-0.073 9.0571 2.9261 23.353 1.1831 31.5 4.073zm278.5 3.0818c-2.7273-10.84-9.5354 2.9188 0 0zm28.5-0.0818c11.816-9.2715-14.366-23.871 16.874-18.842 8.1623 5.9712 83.55-4.3224 28.582-3.2233-26.224-0.27706-52.45-0.27787-78.675-0.40349-0.99743-5.5453-46.092-1.2826-15.077-4.9045 10.992-5.439 24.785-0.54352 39.222-3.5652 28.442 2.2873 31.136 1.7477 56.27 1.665 12.036-1.1338 33.193 17.29 40.033 12.462 20.713-1.8858 37.759-1.1182 14.879-6.8494-2.4612-2.6218-37.125 1.3125-51.609-13.839 3.1334-8.6949 40.603-2.1508 52-4.5 40.489-7.8656-37.22-8.1041-51.834-7.1439-43.084-7.9595 29.899-3.7641 41.834-4.8561 30.254 9.7122 20.424-13.234 33.202-31 10.339 11.267-1.3662 15.993 11.162 23.527 3.9508-15.55-2.4798-42.093 7.958-8.9015 5.0378 33.375 2.7751-19.034 15.519-22.752-4.7814-29.846-27.98-13.644-34.755 7.1273-31.999-12.58-74.319-0.61596-109.03-4.9723-29.983 3.9545-67.647 0.87089-100.21 2.1568-31.694-3.2337-13.343 8.4376 5.1332 11.071-21.729 3.1649-82.275 0.10847-26.322-1.9695-14.428-17.492-78.602-4.9449-110.38-7.9434-28.275 8.2627 40.912 10.172 54.479 9.9078-23.602-0.75355-41.805 6.3754-7.605 11.987 26.589 5.9297 50.678 0.91297 77.266 3.0133 16.57 0.0572 39.623-11.137 41.115-6.8753 37.704 11.543 79.061 2.9068 118.07 3.5448 23.817 0.50057 41.52 4.9307 7.5716 4.1651-26.385 3.0211-73.73-5.0286-88.538 4.7046 15.667-3.6908 69.306 17.832 47.99 22.629-21.378-0.43768-22.762-3.2255-32.849-2.1402-20.497 3.4066-37.577-0.94838-61.039 1.805-32.102 3.0397-13.985 3.4494-2.5364 6.7951-27.223 12.426 13.185 9.4367 28.304 11.122 35.164-9.4394 21.718 17.452 0.75121 6.0173-19.004 8.1638 8.5308 4.2377 17.705 4.7327 11.195-3.9364 7.7638 9.3812 14.544 6.25zm-7.4211-12.417c0.44609-4.3114 1.4435 2.6633 0 0zm-44.079-17.583c2.5549-3.5874 2.5549 3.5874 0 0zm157-34.729c-43.827-8.5194 8.4347-9.0028 0 0zm-168.56-7.1771c-38.059-13.625 24.067-5.7095 0 0zm136.03-0.0413c-45.039-2.6409-12.793-19.149 0 0zm-227.24-4.7775c-10.636-5.2994 29.398 1.0966 0 0zm101.34-1.1602c21.675-6.183 25.561 5.1647 0 0zm28.678-0.36504c16.435 0.0738 82.788-7.1591 63.908-0.70987-21.322-0.77908-42.667 4.7317-63.908 0.70987zm102.49-1.4417c9.4414-7.6071 40.155 3.5806 4.54 0.35872l-4.54-0.35872zm-18.738 79.692c-2.4662-3.5623-1.2094 3.6561 0 0zm32.254-0.25c-0.58898-16.396-6.4489 7.4276 0 0zm-470.9-2.282c-4.5214-5.6052 0.36204 6.4884 0 0zm281.18 0.5757c-5.5398-1.7333-3.5417 3.261 0 0zm-118.47-2.151c2.5041-12.148-7.5747 8.0593 0 0zm-454.45-2.6218c-2.2533 0.93468 2.1015 3.9596 0 0zm711.06 1.2958c1.3029-11.664-13.779 2.2642 0 0zm111.33-0.14991c-3.3759-4.458-3.5473 5.3259 0 0zm-121.7-0.0482c3.1808-19.839-19.133 3.2681 0 0zm96.702-0.92749c-4.0484-1.9154-2.393 3.4144 0 0zm-366.42-1.441c10.791-5.5536-37.891 0.84759 0 0zm398.4-1.75c-0.90137-7.1096-3.1153 9.074 0 0zm-986.98 0.75c-5.4656-3.6609-3.7205 3.7552 0 0zm618 0c-3.9032-3.6531-3.9032 3.6531 0 0zm295-0.55902c-2.8802-1.9056-2.3337 3.4348 0 0zm-940.56-3.1561c-4.4539-5.5336-7.2677 7.4351 0 0zm635.16 1.1333c-2.1508-7.601-3.8418 5.4243 0 0zm322.2-0.94467c-2.8301 1.9331-1.1878 4.3497 0 0zm29.709-3.9219c-4.9788-22.989-4.3296 21.268 0 0zm10.484 4.8894c-2.8802-1.9056-2.3337 3.4348 0 0zm-1010-0.38196c-1.8976-5.0354-3.1061 3.6266 0 0zm106.54 0.0125c-1.163-6.5824-17.72 2.9215 0 0zm608.46-0.0715c-2.5549-3.5874-2.5549 3.5874 0 0zm89-0.059c-2.8802-1.9056-2.3337 3.4348 0 0zm71-0.441c-2.3735-5.247-0.86537 5.2821 0 0zm7-0.059c-2.8802-1.9056-2.3337 3.4348 0 0zm3.5 0.559c-2.4662-3.5623-1.2094 3.6561 0 0zm-848.79-2.6208c-8.2632-8.5797-16.702 7.6836 0 0zm394.48 1.9377c-4.3834-1.4324-0.43359 1.9249 0 0zm-357.6-1.1828c-8.2689-1.6849-6.5338 3.0067 0 0zm18.605 0.18278c-4.3834-1.4324-0.43359 1.9249 0 0zm31 0c-4.3834-1.4324-0.43359 1.9249 0 0zm459.81-0.37591c-2.8802-1.9056-2.3337 3.4348 0 0zm323.35-0.48411c-3.2041-3.938 1.094 4.9581 0 0zm5.6549 0.0431c-2.3777-5.3997-3.5052 5.2925 0 0zm-907-0.5c-6.5773-3.7014-6.5773 3.7014 0 0zm459.5 0c-2.5632-3.7039-3.8443 3.5852 0 0zm169.5 0c-2.4663-3.5623-1.2094 3.6562 0 0zm151.5 0c-2.5632-3.7039-3.8443 3.5852 0 0zm83.5-0.059c-2.8802-1.9056-2.3337 3.4348 0 0zm-409-2.941c-2.5549-3.5874-2.5549 3.5874 0 0zm32.373-0.52892c15.324-0.93651 69.091-3.2609 24.933-6.6577-19.919 3.3148-48.962-5.8694-11.627-5.7801 32.974-2.2493 67.956 2.8809 97.459 0.18457 22.981 2.3574 89.902-5.0257 82.362 6.7822-14.646-2.016-71.321 0.78891-27.255 4.448 19.476 3.3597 39.732-0.50318 41.771-8.9308 7.6255 22.679 44.738 1.664 62.925 11.483 21.552 1.5191 42.504-9.7362 7.2856-5.7603-17.493-2.6526-69.045 2.4719-62.902-6.5418 14.24-1.5878 26.742-0.6181 42.735 0.30208 7.9242-2.4102 22.894-0.0865 33.941-1-1.3561-13.702-30.796-12.139-43.97-19.13-23.485-5.1577-15.004-0.29798-29.055-11.888-15.72-4.6769-41.411 4.0792-28.1-6.657-31.736-6.2886-53.682-25.151-87.583-20.062-11.821 3.0367-31.606-1.653-37.541 1.7223 1.6435 10.85 31.778 7.684 42.25 8.0153 4.4455 8.6521 41.384 19.945 59.172 14.021 42.3-1.1808-52.688 8.3882-3.9276 11.168 15.384 7.8956 36.495 23.322 0.56728 16.295-28.526 0.44717-59.644 1.4876-89.542-1.1847-58.629-25.513 23.69-15.869 47.342-17.373 48.027 2.0474-29.9-23.567-45.311-20.644-25.052-8.0654-55.211-15.103-90.178-10.16-53.905 5.8657 29.861 12.339 42.127 6.8941 21.391 1.0932 34.936 2.1561-1.1745 3.0607-16.668-0.16592-62.07 1.4161-19.464 8.7188 16.836-2.1212 57.303 22.09 16.951 17.15-14.336 4.449-81.27-7.7314-70.624 6.1376 22.633-0.52564 48.366 1.0856 18.482 11.662 21.75-2.4547 3.5174 19.386 27.952 13.727zm195.63-17.404c-14.154-12.652 17.057-3.2792 27.341-5.8174 18.354-2.1438 63.378 7.7077 17.941 6.75-18.019 3.6465-28.436-7.7482-43.315-0.0249l-1.967-0.90771zm-204.53-1.9294c14.588-13.784 47.413 0.31907 66.447-3.138 8.3508 7.1292-54.423 2.3305-66.447 3.138zm190.27-11.961c-18.23-11.268 76.824-1.1853 21.035 0.56049-7.0135-0.0527-14.037 0.018-21.035-0.56049zm-139.75-12.677c11.749-4.5276 16.228 4.8936 0 0zm13 0c21.479-0.50127 44.024-1.596 65.25 0.79427-21.664 0.0836-43.808 2.3113-65.25-0.79427zm56-14.579c19.558-5.0104 56.705 1.0512 15.919 1.1514-5.3061-0.17979-10.735 0.35142-15.919-1.1514zm-36.75 58.829c14.891-4.73 73.101 3.3165 62.75-5.75-31.027 2.4761-49.792-4.8184-78.325-0.95383-26.501 4.8786 15.595 6.313 15.575 6.7038zm-484.25-1.1361c-10.192-20.656-49.087-5.3824-8.6714-2.3749 3.0529 0.12693 5.4621 3.9483 8.6714 2.3749zm243-1.6139c26.811 0.67158 47.879-1.3644 73.5 1 20.001 2.6787 99.627-3.9219 46.192-5.3975-36.561 1.3146-71.105-2.3827-105.01-0.30089-10.311-3.6585-40.047 4.9761-14.686 4.6984zm-197.91-3.6107c-9.7468-11.292-44.117 4.474-6.4573 1.912l3.101-0.14175 3.3563-1.7703zm174.09 2.0538c-19.379-6.3075-52.435-4.4784-75.66-3.7507-28.124 1.0008-71.33 0.62913-74.598-12.847-21.814-9.9644-43.273 3.7484-73.421-3.8451-14.033 0.53619-53.506 4.5559-20.658 8.3337 28.17 2.844 58.045-0.92008 86.668 3.2043 22.23 4.4667-23.671 8.5883 9.1089 8.8667 49.517 0.35736 99.046 0.7015 148.56 0.0383zm-154.18-10.443c3.7205-3.7552 5.4656 3.6609 0 0zm876.36 8.5c-2.3735-5.247-0.86537 5.2821 0 0zm-24.362-3.051c-4.3733 0.98449-2.2481 5.2018 0 0zm-949 0.98448c-20.568-5.4461-40.802 3.2713-7.1792 1.3126l4.4227-0.176 2.7565-1.1366zm664-0.18346c-3.4341-4.8852-8.0792 6.1487 0 0zm-92.999-0.25c-2.5549-3.5874-2.5549 3.5874 0 0zm144.5 0c-2.4663-3.5623-1.2094 3.6562 0 0zm220.5 0c-2.5549-3.5874-2.5549 3.5874 0 0zm8.75-3.7703c4.5747-16.155-21.255 0.77525-2.9785 0.24149l2.9785-0.24149zm-2.1138-2.7239c3.9955-3.6346 0.4395 5.0577 0 0zm22.364 5.9943c-7.0851-9.1877-6.3978 4.11 0 0zm4 0c-2.4793-5.269-2.4793 5.269 0 0zm-923-2.607c-4.183-3.5398-3.5881 4.9472 0 0zm236 0.10699c-9.659-7.0258 49.615-4.5315 4.0586-8.4176-7.7137 6.8752-48.14-6.5303-12.836 7.4176 0.92985 0.51973 12.621 6.0631 8.7775 1zm621.79-0.73379c5.6176-11.553-26.478 5.0393 0 0zm-716.79 0.73379c-2.5549-3.5874-2.5549 3.5874 0 0zm58.589-1.5c-6.1926-14.451-47.518-6.3906-68.058-9.0529-9.2247-8.7044 34.482-3.8127 45.465-3.4338 27.195 3.6758 44.305-1.2578 70.925-1.2634 17.747-1.6069 90.011 7.4416 29.872 7.28-39.242 7.9532 34.247 3.3812 46.483 6.865 19.685 7.659 55.806-9.2566 14.009-6.8494-22.847 2.249-45.615-9.2796-7.6688-6.3369-3.3159-12.299-62.342-3.3012-85.617-6.7087-17.089-3.5334-42.464 6.8864-54.893-4-30.697 1.7406 53.235-2.7184 71.95-0.95189 15.472 1.6943 87.726-1.1845 35.8-5.0465-28.484-1.48-100.78 3.0102-104.92-2.9442 34.306 8.0491 25.263-12.216 1.8779-10.304-17.065 0.72665-83.64-0.39623-30.641-2.26 22.046 7.0416 40.677-10.75 7.4921-7.2437-21.827 0.69611-59.219-5.2642-26.183 18.686 13.862 2.6186 14.618 8.959 27.271 13.422-27.154 4.1538-61.774-2.4378-87.281-0.35755-13.895-0.19562-83.553 0.51382-34.077 5.7984 20.282 2.4008 67.994-2.0346 65.831 6.2016-17.418-0.0457-56.88 2.8305-15.223 8 27.284-4.1596 56.512 2.421 84.945-1.9744 5.2856-0.61227 9.4543 6.2488 12.644 2.4744zm-27.951-31c11.697-6.41 14.874 6.1903 0 0zm708.36 32.5c14.635-4.9214-7.7377-3.9743 0 0zm46 0c-2.5549-3.5874-2.5549 3.5874 0 0zm-791.75-1.6623c-5.5068-1.6231-0.99942 1.7502 0 0zm736.25-0.85142c-7.7441-5.8756-3.9432 5.4448 0 0zm41.5 0.5137c6.5426-11.953-8.3889 1.0137 0 0zm-4-3.5314c-6.0428-10.355-4.2991 7.5371 0 0zm-969.62-0.95238c2.2868-15.376-38.139 6.4224 0 0zm786.32-2.5828c17.032-8.3692 62.965 8.11 68.979-9.098-40.18-2.0767-80.512-0.5953-120.76-0.97602-17.798-0.34045 35.088 10.724 46.256 11.377 0.42933-0.13809 7.1096 2.3558 5.527-1.3032zm207.31-0.43341c-2.4793-5.269-2.4793 5.269 0 0zm-368.25-5.25c-28.574-5.5367-90.468-10.5-104.45 1.0326 34.77 0.0611 69.816 1.4405 104.45-1.0326zm370.96 0.12732c-6.1033-7.6955-5.6516 6.4505 0 0zm-265.21-0.37732c-2.4663-3.5623-1.2094 3.6562 0 0zm239.5-1.5c-0.88931-18.999-7.5664 4.1359 0 0zm-883.26-1.2131c-29.576-14.238-67.106 1.0088-100.09-6.5788-6.5935 16.699 56.232 3.871 74.49 7.7329 8.4573-0.55069 17.272 0.68254 25.602-1.1542zm897.62-0.78688c-5.233-7.0058-5.0123 2.7183 0 0zm-280.07-4.501c16.9-2.9084 37.884 1.0503 57.781-2.0533 16.249 4.7523 65.42-1.6105 23.484-5.8886-25.283 2.9652-74.178-6.8609-86.991 4.4061 2.8067-0.85129 5.122 11.038 5.726 3.5359zm33.711 2.001c-2.5549-3.5874-2.5549 3.5874 0 0zm219.71-1c11.706-15.27-10.598 8.2712 0 0zm19.315-2.0557c-1.6453-9.7043-8.0694 10.398 0 0zm-277.03 0.55569c-3.8324-5.3812-3.8324 5.3812 0 0zm117 0.46482c-4.0087-15.168-10.925 6.3924 0 0zm-735.5-0.96482c13.972-3.2139 53.467 2.5962 21.408-16.2-17.971-6.9993-90.425-2.5027-33.296-5.8894 32.554-7.3157 35.967 9.1553 61.661 16.089 31.692 17.702-6.0983-10.353 24.786-2 15.628 1.8276 65.195-4.7469 24.12-11.904-17.727 1.0145-84.173-1.0518-34.36-2.3762 21.765 4.8762 56.951-6.8563 13.642-6.4112-48.269-2.0358-96.311 0.32656-145.72 0.14587-2.7232 7.5926 26.275 10.857 37.436 21.808 7.2377 9.5594 24.347 1.2891 30.321 6.737zm202.5-0.60699c-5.513-1.7371-3.7666 3.2354 0 0zm203.5 0.60699c-2.4663-3.5623-1.2094 3.6562 0 0zm505.15-2.5499c-5.7539-1.7619 3.3116 8.1188 0 0zm-507.92 0.60546c-1.7494-10.292-104.76-3.8591-44.5-8.1252 35.569-11.717-87.526-13.845-27.763-13.102 9.9862-12.418-46.497-6.071-62.45-6.9302 10.396 14.72 57.003 3.6552 15.141 10.941 13.493 15.846 76.632 6.872 22.838 13.232 28.304 9.53 65.846 2.7065 96.734 3.9841zm-484.41-1.4507c18.596 4.5041 74.531 1.7258 27.221-11.528-17.104-13.402-59.216-23.571-44.236 11.614l9.1565 1.038 7.8581-1.1244v4e-5zm156.67 0.39514c12.355 0.39283 79.37 1.1291 31.673-3.9027-3.3931 0.54923-52.791-2.6977-31.673 3.9027zm848 0c-2.5549-3.5874-2.5549 3.5874 0 0zm-1038.5-7.0754c0.28232-10.396-6.5013 9.369 0 0zm366.48 1.1458c34.247 5.8117 32.83-15.686 6.7368-11.075-19.345-1.4861-24.299-2.3338 3.2632-3.8067-23.195-11.596-54.313-6.6541-84.294-5.1886-2.4053 10.289 95.814 5.4154 34.579 8.5621-30.853 3.0453 11.514 16.595 26.655 10.709 4.4849-1.0431 8.7556 3.617 13.06 0.79886zm661-1.5704c-2.3793-9.2971-4.7885 9.6555 0 0zm-1.2292-14.312c-3.3621-4.4497-3.6337 5.246 0 0zm-381.77-0.24652c-2.8802-1.9056-2.3337 3.4348 0 0zm-505.17-7.9562c17.584-0.8402 74.182 2.478 43.787-10.426 3.4316-13.857-49.47 5.0782-60.482-9.447-17.017 11.342-51.269 3.0853-74.639 3.8879-20.757-6.0277-44.285 25.635-7.7906 17.362 33.02-0.39957 66.16 0.58204 99.124-1.3772zm-106.08-6.2258c15.515-9.7443 106.2-1.452 46.367-0.86154-15.81 0.80239-31.131 1.8721-46.367 0.86154zm94.247 0.24107c-64.758-6.8069 92.851-4.3851 27.949-1.2582-9.0178-0.72427-20.097 1.6161-27.949 1.2582zm98.85 5.75c46.202-3.4575 96.217-0.41562 140.32-2.7665 33.671 1.6148 68.066-1.2106 102.26 1.026 14.752-0.50846 77.826-2.2204 29.744-7.9498-22.01 3.1075-17.276-8.3737 7.6597-5.1147-22.351-11.24-60.093 1.3354-86.644-3.9296-18.868 1.8965-42.596 1.48-65.658 1.3038-7.1167-3.4975-29.933 3.993-45.903 0.77201-37.969 1.0052-76.337-1.1442-114.02 3.1589 29.269 6.4905 61.06-0.67361 89.395 1.75 15.681-1.7596 89.138 0.5251 41.5 2-36.249 7.1552-89.851-4.2991-116.09 6.979 5.6762-0.04189 12.115 5.7655 17.437 2.7709zm128.15-8.75c-14.513-8.2539 46.051-2.5855 58.882-4.4074 16.949-1.2548 96.541 0.54055 42.116 3.0999-32.65 0.51324-61.65 2.2513-92.415 1.0578-1.3223-1.7597-6.0647 3.7682-8.5833 0.24969zm202.42 5.75c30.56-0.05308 63.837 0.06418 96.111-0.85502 71.45 0.14651 144.1-2.1382 213.97-1.895 27.1-0.3713 61.913-1.8137 92.312-1.7218 22.852 5.2949 47.02-10.195 7.688-8.4929-21.659-0.74616-52.378 1.6827-67.5 1.1089-31.716 1.1777-66.08-0.35786-99.184 1.4945-16.901 1.5517-102.7-0.12086-43.342-2.9431 35.036-0.20633 69.601-1.2055 102.7-1.8658 43.276-3.4447 94.267 3.6581 132.89-5.3883-21.852-7.3626-59.141 0.75922-87.138 0.78508-30.398-2.5244-65.437 1.8601-98.201 0.54424-39.561 0.48959-84.09-0.33652-120.73 1.4792-23.128-0.42594-46.495 0.35411-71.966 1.1927-35.098-0.66-68.313-2.1895-103.37 1.977 31.971 9.9498 72.48-1.4642 108.94 1.863 19.591 0.84377 80.664-2.249 73.11 2.6752-36.242-1.0797-74.755 3.8134-109.21 1.2921-12.21 1.887-69.464-4.9497-52.43 7.7361 7.8078 3.4774 17.227 2.8056 25.346 1.0139zm143.26-11.149c13.723-4.453 49.32 2.2735 10.328 0.39609l-5.9878 0.98723-4.34-1.3833zm-162.93-1.2635c5.5068-1.6231 0.99942 1.7502 0 0zm-520.53-2.7225c-1.7364-5.5059-9.0356 8.2266 0 0zm419.78-2.6152c-2.4663-3.5623-1.2094 3.6562 0 0zm226.77-2.8125c-5.9057-5.4737-2.5209 5.4744 0 0zm-766.77-0.1875c28.377-1.2474 53.644-0.1186 79.989 1 26.818-11.073-27.386-11.94-36.489-9-17.559-4.6771-93.688-1.8953-43.5 8zm111.36-3.5c-0.86541-5.2821-2.3736 5.247 0 0zm726.64 0.5c-2.5549-3.5874-2.5549 3.5874 0 0zm-810-9c-3.9032-3.6531-3.9032 3.6531 0 0zm72.29-3c-7.8597-10.526-0.81978 10.195 0 0zm-80.29 0c22.325 0.77337 45.906 1.1707 68.794 1.0307-6.3744-18.297-57.512-5.5312-79.794-10.1-19.174 10.34 2.5662 9.9557 11 9.0696zm101-3.118c-3.4706-1.7239-1.6501 4.6687 0 0zm28-4c-3.4706-1.7239-1.6501 4.6687 0 0zm-53.608-8.132c13.487-4.5072 63.795-52.273 32.247-30.75-25.36 25.011-58.609 27.263-93.036 23.66-53.966 9.274 43.008 11.955 60.789 7.0904zm22.008 0.41667c-0.05412-14.205-8.9029 6.0342 0 0zm7.6-0.22569c-3.1061-3.6266-1.8976 5.0354 0 0zm-41.75-12.673c15.004-17.176-44.655-7.4324-59.034-8.4216 3.9324 14.914 44.863 6.5784 59.034 8.4216zm-23.25-14.268c23.321 8.3827 42.086-11.005 5.7176-10.032-23.601-6.938-61.579 11.313-15.159 9.2976 3.2939-0.4108 6.2994 3.5835 9.4413 0.73442zm52.643-0.5c2.6379-12.685-14.574 3.4908 0 0zm19.149-12.137c-10.259-3.6182 1.6695 5.6385 0 0zm-85.792-2.3633c22.602 5.0081 56.704 2.7136 30-24-18.503-6.6913-68.799 7.6488-21.693 10.049 39.312-0.22782-1.2342 9.466-19.388 4.1911-16.443 4.0285 5.982 12.311 11.081 9.7599zm29-11.5c2.3777-5.3997 3.5053 5.2925 0 0zm-35.729-4.1042c3.9597-2.1014 0.93456 2.2534 0 0zm64.702 3.5025c-6.0697-17.918-14.701-75.987-21.87-67.017 13.307 21.207 7.3082 35.829 13.727 54.371-1.6823 3.0425 9.1565 31.733 8.1438 12.646zm12.027 6.1017c-2.5549-3.5874-2.5549 3.5874 0 0zm2.4739-9.4728c-9.0851-29.152-11.043-25.399-2.9294 1.2546 1.1262 11.302 8.0329 9.1706 2.9294-1.2546zm-41.109-15.036c4.4393-21.399-18.077-74.762-30.404-43.946 43.878 0.84972-35.712 14.476 11.842 15.881 26.354 5.4026-50.334 10.608-3.8746 14.702 47.905 7.3552-40.101-1.1011-10.18 14.617 10.76-0.30262 22.21 1.8979 32.617-1.2535zm54.62-14.741c-5.7672-12.748-9.0859 4.8833 0 0zm-23.985-4.1334c-0.99542-2.4885-7.9905 0.99156 0 0zm9.7619-1.6166c-8.1028-6.8721-9.2049 6.5907 0 0zm-7.5168-2.829c-3.5919-15.462-7.6314 6.0887 0 0zm-27.245-3.171c-3.8443-3.5852-2.5632 3.7039 0 0zm41.5-6c-2.4663-3.5623-1.2094 3.6562 0 0zm-18.5-6c-2.4663-3.5623-1.2094 3.6562 0 0zm1.3616-3.5c-2.3777-5.3997-3.5053 5.2925 0 0zm-3.0458-2.25c2.196-9.2385-10.646 3.5185 0 0zm-41.488-17.442c-5.5987-30.068-21.943 19.918 0 0zm13.309-5.961c10.741-19.561-18.283 8.7256 0 0zm21.281 0.54636c4.6301-10.126-12.826-0.34874 0 0zm-24.461-15.143c34.368-19.648-4.4479-24.108-10.406-0.16608 3.9036 1.7138 6.04 5.7128 10.406 0.16608z"/>
 </g>
</svg>
