<?xml version="1.0" encoding="UTF-8"?>
<svg enable-background="new 0 0 292.871 158.938" viewBox="0 0 292.871 158.938" xmlns="http://www.w3.org/2000/svg">
 <path d="m207.211,41.575c.723.394 1.306,2.909 2.393.479 1.403.033 1.049,1.823 2.872,1.436-1.68.714-3.104,1.683-5.265,1.914 1.031-2.163-1.291-1.927 0-3.829z" fill-rule="evenodd"/>
 <path d="m217.739,49.232c-2.312-.579-2.571-1.666-5.264-.958v-1.914c2.384-.689 4.568.561 5.264,2.872z" fill-rule="evenodd"/>
 <path d="m25.363,47.317c1.961.468-.303,5.448-2.393,3.35 1.108-.807 2.344-1.484 2.393-3.35z" fill-rule="evenodd"/>
 <path d="m118.68,143.984c.84-.756.993-2.197 2.393-2.393-.174,2.494 2.768.053 2.393,1.914-1.13.961-3.204,1.262-4.786.479z" fill-rule="evenodd"/>
 <path d="m36.848,27.697c-.407-.088-.451.187-.479.479-2.729-1.162-3.871-1.438-7.657-.957 .222,1.714-2.22,1.782-4.785,1.914 1.304,3.303 5.84.186 8.135,0-.013-.465-.586-.372-.958-.479 .934-1.657 1.912.586 2.872.479-.201,1.075-2.539.013-2.872.957 1.001,1.073 1.573,2.575 3.829,2.393-3.258,1.893-3.804-3.103-7.178-1.436v1.436c1.287.628 2.675,1.154 3.829,1.915-.356,1.079-2.685.187-3.829.479-.069,1.345 1.172,1.38 2.393,1.436-1.423,1.7-2.662-.815-4.307-.479 .435-1.001 1.412-1.459 2.871-1.436-1.008-3.096-5.073-.607-5.743.957 1.798,1.552 4.012,2.688 7.178,2.871 .582.769-4.159.287-4.785,1.436-1.536.42-.992-1.241-1.915-1.436-1.07,2.018-.61,4.986 1.915,6.7 1.81-1.687-1.12-2.682-1.436-3.828 2.129.104 2.136,2.33 3.35,3.35-.07-1.498.795-2.421 3.35-2.393 .061-.858-.585-1.01-.479-1.915h2.393c-.969.983.195.955.957,1.436-2.611.367-3.311,1.392-3.829,2.871-.475,1.796 2.351,1.043.957,2.393-1.388-1.886-3.892.317-5.742-.957-1.678.13.864,2.119-.479,1.914-1.982-.526-1.014-1.841-.479-2.871-1.876.305-1.812,3.078-3.829,1.914 .273,2.307.762,2.927-1.436,3.35 .041,1.235 2.049.503 1.436,2.393 1.153.196 1.04-.874 2.393-.479 .814,2.433-3.279,2.432-1.914,3.829-1.162,1.55-4.851.572-4.786,3.35-1.387-1.449-1.051-2.568-.957-5.264-3.292,1.436-6.452,1.091-9.089,2.391-.168.748 1.192.16 1.436.479 .56.733-.733,1.569-.479,1.914 .909,1.229 3.04,1.532 5.264.479-.198-1.875-3.893-.255-3.35-2.871 1.17,1.221 3.655,2.042 5.743.957-.899,1.65-.899,1.221 0,2.871-2.075-.5-2.753,1.257-4.307.479-.723,1.35.063,1.867-1.436,2.872 .072.885 1.621.293 1.915.957 1.974-1.018-.589-1.782.479-2.872 1.153-.196 1.04.874 2.393.479-.24,1.995 1.398,2.111.957,4.307 1.753.158 2.659-.531 3.829-.957-.429-2.343 1.58-2.248.957-4.786 .786,1.533 2.447.747 1.436-.957 1.894.585 2.306,1.226 3.829,0v1.914c1.254-.5 1.991-1.518 2.871-2.393-2.219-.522-.983-1.54-3.35-1.914 .788-1.966-.832-2.036 0-4.307 2.108-.354 1.96,1.549 3.35,1.915 .858.061 1.009-.586 1.914-.479-.006-.951-1.306-.608-.957-1.914-.465.013-.371.586-.479.957-.753-2.517-.285-5.099.957-6.221 .088.407-.187.452-.479.479 .108.689 1.428.167 1.436.958 4.668-.26 4.656.711-.479.479 1.129.828 1.935,1.402 0,1.914 .726,2.028 1.743,2.438.479,4.307-.121,2.375 1.437.836 1.436,2.393-2.748-.761-3.814-3.204-6.699-3.829 1.577,1.932 2.23,4.789 5.264,5.264v1.914c1.346-.489 2.039-.543 1.915,1.436 1.111-.165 2.242-.31 1.914-1.914-.072-.885-1.621-.293-1.914-.957 1.053-1.021 1.123-3.024 1.436-4.785 1.127.01 1.409-.825 2.871-.479 .102-1.537-1.707-1.165-2.393-1.914 2.642.427 5.469-1.204 8.614-2.393-.941-1.292-1.744-2.723-3.35-3.35-1.2.396-1.514,1.677-2.393,2.393-1.43-.165-1.905-1.285-2.393-2.393 .846-.889 1.397.208 2.393.479 .735-1.147-2.794-3.331-4.785-1.914-1.003-2.005 3.357-1.048 1.914-1.914 2.165-1.35 2.22,3.51 5.264,2.871 .414-.607-1.072-1.92-.958-2.871 .773-1.19 3.196,2.893 1.915,2.871 .63,1.716 1.571.15 2.871.957-.721-1.831-1.981-3.123-3.35-4.307 .077-.561.872-.404 1.436-.479-.38-4.438-8.197-.118-9.092-4.786 6.842-1.348 8.924,1.101 10.528,4.786 1.459-.484 2.757-.787 1.914-2.393 1.581.48 1.63,1.932.479,2.872 .971.784 1.373,2.137 3.35,1.914v2.393c-.426.372-1.081.515-1.915.479 .664.772.405,2.467 1.436,2.872-.092,1.663-1.693,1.817-1.915,3.35-4.106.041-4.538,3.757-5.742,6.7h-3.35c-.534.438-.15.89-.479,2.393-1.306.348-.963-.951-1.914-.958-1.609,2.061-4.691,2.647-5.264,5.743-3.026-.703-5.452,4.907-6.7,1.436-1.551,1.039-.261,1.065 0,2.393h-1.914c.421,1.983 1.509,2.247-.479,3.35 .958,1.655 1.773.143 3.35,0-.503,1.411-2.165,1.664-3.35,2.393-.236,1.512 2.375.177 1.914,1.914-1-.203-1.267.328-1.914.479v2.392c1.742.466.221-2.331 2.393-1.435-.133,1.941-2.076,2.072-2.871,3.349 .253.386.499.777.479,1.437 1.554-.2 1.378-2.131 3.35-1.915-1.03.885-2.429,1.4-1.914,3.829 1.091.134 1.799-.115 1.914-.957-.022,1.25-1.425,1.929-1.436,3.828-.007,1.298 2.132,1.99.957,3.351 .819.021 1.24-.356 1.436-.957 1.218.768-2.24,3.769 1.436,3.35-.349,1.725-1.828,2.319-1.436,4.785 2.352.461.687-2.352 1.436-2.393 1.269-.043 1.036,2.37 0,2.871 .145,1.769 2.034,1.795 2.871,2.871 .287-1.243-.192-1.722-1.436-1.436-.278-1.873.412-2.778.957-3.828-.163,1.478-.642,3.491 1.914,4.307 .633,1.199-2.228,1.162-.479,1.914-.893,1.47-1.27-1.556-2.871-.957-.262,1.857 2.066,1.124 2.393,2.393-.718,1.582-1.17-.994-2.393-.479-.081,1.676 1.684,1.507 2.393,2.393 .176.814-.373.903-.957.957 .5,1.415 2.423,1.406 1.914,3.829 .875-.721 1.126-2.064 1.915-2.871 .628.169.752.842 1.436.957 1.433-.315-.458-1.023 0-1.915 .842.688 1.091.439.957-.957 1.864.482.074,1.647.479,3.351 1.952.356.091-3.1 2.393-2.394-1.52,1.494 1.919,3.92 2.393,3.351 1.219,2.957 3.872,3.32 6.221,3.35-.203,1 .328,1.268.479,1.914 .589-.209.983-.612.958-1.436 3.985,6.145 12.756-.612 15.792-4.785 1.393-1.915 2.607-5.312 3.828-7.657 1.896-3.641 5.739-7.029 10.05-8.613 1.11-.153 1.837.076 2.393.479 4.705-12.23 24.037-4.317 30.148,1.436 .196,1.152-.874,1.04-.479,2.393-1.254-.341-.458-2.732-1.914-2.871-1.234.115.657.823 0,1.914-2.004-.787.54-3.32-1.914-3.828-1.896.146.535,1.662-1.436,1.436 .153-1.11-.077-1.838-.479-2.393-.649.147-.397,1.197-.479,1.914-.7.008-1.517-2.019-1.436,0-.583-1.014-1.801-1.391-1.914-2.871 .951.006.608,1.305 1.914.957-.667-2.391-3.121-.043-3.828-2.394-.389,1.817 2.986,3.603 3.35,6.222-2.015-1.336-2.444-4.256-4.786-5.264 1.368,1.32 2.467,4.601 2.393,4.307 .634,2.508-.583-.581-.479-.479-1.196-1.175-3.134-4.962-6.221-5.743-.411,1.226 2.834,2.896 3.35,4.786 .67.574.042.186-.479,0-.88-2.47-3.583-3.117-5.264-4.786 1.308,2.521 3.631,4.026 5.264,6.222-1.577-.824-4.841-4.086-6.7-6.222-.983,1.606-.989.337-2.393,0 1.507,2.58 1.887,3.346 2.871,6.222-1.68.084-1.574-1.617-2.871-1.914-1.397,1.445 3.616,2.256.957,3.828 .773-.135.824.452 1.436.479 1.433-.314-.458-1.023 0-1.914 .974-1.783 1.231,2.371 1.914,2.393 1.721.055-.313-2.72.958.479 .82,2.064 3.44,2.771 4.307,5.742 1.866-.825 3.158.985 2.872,1.914 1.527.284 1.48-.897 2.393,0-.351.447-.87.726-1.436.957-.343.776 2.256.776 1.914,0-.651,4.016 6.089,1.033 6.221,4.786 1.522-.732 2.105-.168 3.828,0-.305-1.206-2.188-2.685.479-2.871-1.004-2.187-1.491-4.89-2.393-7.179 1.638.202 1.438-1.434 2.393-1.914-1.352-.243-.476-2.715-1.914-2.871 .716-1.293 1.997.828 2.393,1.436 1.046-.07 1.027-1.206.957-2.393 8.857-11.068 12.301-18.771 26.798-20.099 7.526-.689 18.024-.673 23.927.957 5.938,1.64 12.249,2.734 17.706,4.306 1.51.436 3.038,2.279 5.265,1.437 5.82,2.376 15.496,4.899 24.406,6.221 4.337.644 7.815-.599 12.92,0 3.791.444 8.428,3.28 9.571,0 .649.148.397,1.198.479,1.915 3.323-1.205 3.353-.014 7.179-.479-1.746-.426.336-2.041-1.437-1.915 1.992-1.093 1.437-3.718 0-5.264 2.59.789 2.968-3.792 4.308-5.743 2.298-.095 2.866-1.919 5.742-1.436 .873.372-.286.514-.957.479-2.422.609-2.362,3.699-5.264,3.828-.81,3.082-.564,4.746-1.914,6.7 2.378.654 2.077-5.166 3.828-6.7 1.323,3.359 2.749-1.643 5.264-1.435-.284,1.629-1.835,1.993-3.35,2.392-.871,3.153-1.628,6.048-1.436,9.094 2.769-1.699.068-8.865 4.785-8.615-2.631,1.517-3.048,5.247-2.871,9.572-1.81-.693-.918,1.314-2.393.957 .048-1.484-.217-2.655-.957-3.351-1.434.315.457,1.022 0,1.915-2.826.205.037-2.789-1.914-2.872-1.462.885.552,2.274 0,3.829 .858.061 1.009-.586 1.914-.479-1.184,1.922 1.451,3.238 3.35,2.393 .061-.859-.586-1.01-.479-1.914 2.019-.744-.104,2.656 1.914,1.914 .718-2.234-1.577-9.693 2.871-9.571-3.304,2.347-1.718,9.569-.479,12.921-.565-.551-1.691-.542-2.871-.479 .297,2.228 3.539,1.105 4.307.957 1.961,1.097-1.526.638-1.436,1.436 .51,1.086 3.009.182 4.308.479-.315.643-1.023.892-1.914.957 .206,1.07 2.357.193 3.35.479-.923.601-2.702,1.803 2.393,1.436 1.808.944-2.282-.118-1.914.957 .818,1.096 3.652.176 5.264.479 2.622.573-2.305.526-3.35.479 .798,1.914 4.88.543 7.178.957 3.695.53-2.903.552-4.307.479-.025,2.066 11.665.361 5.264,1.436-1.4.431-1.47.431-2.871,0 1.205,3.062 10.984-1.511 8.614.957-2.425-.031-3.963.823-6.7.479 .159,1.773 5.304,1.053 6.222.479 .812.311.299,1.1-.479.957 1.236,1.512 2.998-.479 4.307-.479 .744,1.701-1.625.288-1.436,1.436 1.553.737 4.164-1.566 4.307-3.829-.886-1.463-.717,2.109-2.393,1.437 .431-.847 1.155-1.397 1.436-2.394-.799-.498-2.393-1.86-.479-2.393 .016-.867-2.407-1.665-2.393-.957-.865-1.368-.83-3.637-3.35-3.35-1.463-3.805-6.198-6.878-8.136-8.613 .781-1.81-3.891-3.297-2.871-5.265-1.502-.236-1.265,1.649-2.393.479 .268-.688.746-1.168 1.436-1.436-.713-1.178-1.967-1.071-.957-2.872-2-1.748-1.98-3.709-4.785-5.263-.402-3.611-2.436-7.52-5.743-6.7 .162-3.033-2.299-3.443-2.871-5.743-.679-.041-1.355-.079-1.436.479-1.356-1.356-1.972-3.452-2.871-5.264-1.403.406.286,1.541 0,2.393-1.195-1.199-3.368-3.43-2.394-5.264-1.407-.394-1.627-.877-3.828-.479 1.619-2.577-3.82-4.654-6.221-6.221 .351-.852.87-.069 1.436,0-1.294-1.246-3.921-.726-5.742-2.393-1.324-1.214 2.58,1.134 2.393-.958-1.181-1-2.281-2.609-4.308-1.436 .119-.52.952-.324.957-.957-.406.088-.451-.187-.479-.479-.989,1.925-1.507-.159-2.871-.479-.373,2.447 2.617,1.531 3.35,2.871-2.242,1.112-3.378-2.991-6.699-2.393-.961-2.565-2.223-3.296-2.871-5.264-1.183,1.079.951,3.03.957,4.307-.854.977-1.355-2.445-2.393-2.871-2.183.627-1.513-.062-2.872-.957 .331-1.195 1.277.888 2.394.479 .061-.858-.586-1.01-.479-1.915-1.463-.346-1.744.489-2.872.479-1.73-2.417-4.415-3.879-7.178-5.264-.686.562 1.318,2.482 1.914,3.35-2.155-.086-4.151-4.457-6.221-6.221 3.443,2.618 9.111,3.011 11.963,6.221 5.93.678 10.48,6.266 16.75,8.135 .006.951 1.306.608.957,1.914 4.848-.493 5.684-6.152 7.656-9.571 2.976-1.331 2.265-6.35 5.743-7.178-2.536,6.876-6.783,12.04-9.571,18.664 5.622,2.194 7.73,7.902 12.921,10.528 2.859,5.595 8.446,8.463 10.528,14.835 4.656,3.479 11.483,4.787 15.792,8.613h2.393c4.39,4.064 11.242,5.668 16.271,9.094-.196,1.152.874,1.039.479,2.393-2.032-.438-2.409.781-2.871,1.914-.716-1.039-2.745-.765-2.871-2.393-5.205.418-6.189-3.383-10.05-4.308-1.616.194 1.273,1.855-.957,1.436 1.016,1.218 3.314,1.151 5.264,1.437 .087,1.043-.392,1.521-1.436,1.436-.031,1.626 2.458.732 2.393,2.393 .638-.479 1.444-.789 1.914-1.436 2.006.378 1.479,1.863 3.829.957 .135.772-.453.823-.479,1.436 2.553.639 2.231-1.597 4.785-.957 .827,1.42-.694,3.893-1.914,4.785-8.535-1.355-13.447-6.333-20.578-9.092 2.912,2.152 5.477,6.644 8.614,9.092 2.578,2.011 6.472,2.805 5.742,8.614-2.163,1.983-4.045,4.249-8.135,4.307 6.735,3.632 12.688,8.048 19.62,11.485-.674.71-1.527,1.028.479.957-2.212,3.052-5.318,5.21-8.613,7.178-9.472-6.321-19.419-12.165-29.67-17.706-6.376,4.049-11.958,8.991-19.621,12.442-8.555,3.852-16.479,7.644-26.32,9.092-9.549,1.406-18.846,4.601-28.234,7.179-1.645-.21-2.682.189-3.828.479-1.099.656-1.538,1.971-2.393,2.871 .326,1.748 1.813,2.334 2.393,3.828 .6,6.94-8.042,8.131-11.007,3.829-1.132-6.048 3.863-8.082 7.657-7.657 .589-.209.982-.612.957-1.436-1.347.391-3.571-.725-6.699-.479-2.797.22-7.254,1.68-12.442.957-1.872-.261-4.249-.577-7.657-.957-3.317-.369-6.874-1.665-12.442-1.436-4.048.167-8.655-.297-11.964,0-2.195.197-6.409,2.035-11.485,1.436-4.473-.528-7.87-2.569-12.442-3.35-1.432-.245-2.872-1.585-5.743-.957-2.699,1.767-3.403,5.529-6.7,6.699-.416,1.852 1.169,1.702 1.436,2.871-.532,7.904-12.103,7.158-11.963.479 .135-6.512 8.806-2.918 11.485-7.656 .2,1.015-2.008,3.722-3.828,4.307 2.577,1.116 3.932-2.991 5.742-4.785 .831-.823 2.814-1.655 3.35-3.35 3.288.416 3.435-2.309 5.743-2.872-1.214,2.453 1.321.97 2.871.957-.416.701-.716,1.518-1.914,1.437 .829,1.327 2.143-1.785 2.871.479-.144-1.688 2.802-3.275 5.264-3.829-.73,1.344-2.401,1.747-3.829,2.394 .94,2.179-.149,2.141-1.436,2.393 2.513,1.697 2.597-3.134 4.786-3.351 1.6,1.023-1.892.935-1.436,2.394 .566,1.288 2.495-.002 3.35,0-.535.688-.516,1.167.479,1.436-.436,1.159-1.923,1.267-3.35,1.436 2.5,1.098 5.405-2.128 6.7-1.436 2.073.378-1.644,1.863 1.914.957-.169.628-.842.753-.957,1.436h1.914c.561-.077.404-.873.479-1.436 1.174.421 2.76.431 2.872,1.914 4.919-1.061 8.346-2.842 8.614-7.179 .132-2.147-2.794-4.356-.479-7.178 .449-.548 2.141-.461 2.871-1.436-.611,1.463-1.756,2.391-1.914,4.307 .351.447.87.726 1.436.957 11.773-3.16-1.618-15.635-9.092-16.271-.582-3.11-2.628.858-2.872-1.914-1.974.1-2.194,1.953-3.828,2.393 .064-1.85 1.941-1.888 2.393-3.35-15.453-3.17-29.895,2.465-43.548,5.742-3.679.884-11.252,1.507-16.749.957-.552-.055-1.169-.879-1.914-.957-1.636-.171-1.22.129-2.872-.479-2.196-.808-3.76.155-6.7,0-2.696-.142-5.098-1.544-8.135-.479-2.393,1.009-.942,4.164 0,5.743 4.138-1.188 6.744,3.111 9.092,4.785 1.352-.48-1.519-.452 0-1.436 1.071,1.092 4.384,1.617 4.786-.479 1.087.471 1.186,2.396-.479,2.393 1.269-1.716-1.417-.605-1.436.479 3.714,2.172 4.918-1.097 7.657-.957 .131,1.727-1.893,1.298-1.914,2.871 2.466-1.799 1.79.73 2.871-.957 .68.783 2.843,2.543 3.829,1.436 1.809,1.087-1.649.849-1.915,1.436 .119.52.952.325.957.957 1.678-1.213 2.796-1.441 4.786-1.436v1.914c-.094-2.025 3.876-2.479 2.872-3.828 .807-1.27 2.231,1.458.479,1.914 .436,2.027 2.292.315 3.35.479 .035.006-.627.895-.479.957 .562.238 3.921.074 4.307-1.436 .561.077.404.873.479,1.436 1.089-1.301 1.854-.564 2.871.479 1.244-.191 1.443-1.428 2.871-1.436 .792,1.031-.598,2.945-.957,4.308-17.176-.15-32.379-6.152-45.94-11.485-.176-.814.373-.903.957-.957-.436-1.31-1.677.849-2.393-.479v-2.393c-.72-.01-2.109.535-2.393-1.915 1-.202 1.268.328 1.915.479-.694-1.699-1.842-2.943-3.829-3.35-1.629-3.635-5.272-5.256-6.221-9.57-5.586-5.082-11.814-13.14-12.442-22.014 .158,2.235 2.883-1.946-.479-.957-.556-4.911.63-6.028-.479-9.092 1,.203 1.268-.328 1.915-.479-1.166-2.246-.241-3.791-.479-6.7-.148-.649-1.198-.397-1.915-.479-.163-.96.098-1.498.958-1.436 .081-1.038-1.698-.217-2.393-.479-.057-2.131 2.327-1.82 3.35-2.871-.112-1.483-1.697-1.493-2.872-1.914 .412-.386.285-1.311.957-1.436-.919-1.154-2.247-1.9-3.35-2.871-1.34-.042-1.34,2.913 0,2.871 .589-.534.983-.417.957.479-1.655-.379-2.02.532-2.871.957 .677.783 2.602,2.185 0,2.393 3.344,2.011.746-3.68 3.828-2.871-.291,1.783-1.013,3.134-1.914,4.307-2.929.519-2.947-1.856-5.269-1.926 .594-1.297 1.847-1.191.957-2.871 2.429.514 1.988-1.84 2.872-2.872-.134-.983-1.278-.955-1.915-1.436 .625-1.449.202-3.946 1.436-4.786-.072-.885-1.621-.293-1.915-.957 .141-2.571 3.697-1.727 5.743-2.393 .107-.656.394-1.971 1.436-2.872 1.557.518 4.405-.258 4.786,1.436-1.484.162-2.286-1.108-3.35,0 1.183,1.754 4.649,1.856 5.742,0-.941-1.883-.166-2.913-2.871-3.35 .937-.894.147-1.752 0-2.871 .894-.382 1.753-.8 2.871-.957-2.554-.588-1.33-2.067-2.393-3.829 1.401.43 1.47.43 2.871,0 .045-1.48-1.445-1.426-2.871-1.436 .354-1.561 2.389-1.439 3.829-1.914-.163-.96.098-1.498.957-1.436-.006-.951-1.306-.608-.957-1.914 2.148.404 3.784,1.321 5.264,2.393 1.676.081 1.507-1.684 2.393-2.393 .27-2.069-4.732-.257-1.915,0-2.637,1.514-.442-2.328 0-3.35h2.872c2.91-4.497 9.578-2.16 12.921.479 5.592-3.021 11.967-5.261 15.792-10.05 1.788.512 1.364-1.188 2.871-.957 6.667-8.74 16.108-14.645 27.756-16.749 1.249-.226 3.155.328 4.307,0 7.231-2.055 18.867-.158 29.67,1.436 2.653.392 6.114,1.039 10.528,1.436 2.662.24 4.242,1.869 8.135,1.915 6.024,3.228 13.503,5 18.185,9.571 4.688.098 5.899,3.672 11.007,3.35 .169.629.842.753.957,1.436 8.207,1.204 13.063,5.759 21.056,7.178 1.676,2.471 5.656,2.638 8.136,4.307-.077.561-.873.404-1.436.479 .818,2.851 4.058,3.279 5.264,5.743-1.188.523-2.718-4.143-5.264-2.393 1.205-1.198-.55-1.879-.479-3.35-.872.02-3.14-.422-3.351-2.393-1.688,2.082-1.227-1.298-3.35,0-3.44-4.216-11.139-4.175-15.792-7.178-.167.54-2.36,1.375-.957,1.914-1.034,1.157-2.794-1.007-4.307-.957 .693-1.86.948-3.857-2.394-3.35 1.974.373-.657,2.379 1.437,2.393-.14.115-2.748.428-3.829,1.914 .284-1.527-.897-1.48 0-2.393-.406-.71-1.204-1.029-2.393-.957 .194.922 1.855.378 1.436,1.914-1.573-.349-.732.951 0,.957-.47,1.467-1.276-.55-1.914-.479-1.172.053-.102,1.582.479,1.436-.674.797-2.495-1.306-1.914-3.35-.118-.52-.951-.325-.957-.957-1.261-.145-1.57.663-1.436,1.914-.155-1.093-2-5.517-2.393-1.914-.809-.787-.595-2.597-1.437-3.35-.818-.021-1.238.356-1.436.957-1.037.081-.217-1.697-.479-2.393 .951.006.609,1.306 1.914.957 .246-1.4-2.195-2.538-2.871-1.436-1.343.205 1.199-1.784-.479-1.914 1.805-.356 4.063,2.947 5.265,4.785 .889-.413-1.546-1.774.479-2.393-2.489-1.499-4.231-3.744-8.136-3.828v-1.436c-2.916.356-6.365-3.708-9.571-2.871-1.667-1.502-2.631-1.831-4.786-1.436-.955-1.443-8.823-2.329-12.442-2.872-2.83-.424-5.724-.03-8.135-1.436-1.044-.087-1.522.392-1.436,1.436-.602-.118-.482-.951 0-.957-4.629-.971-11.947-2.623-15.313,0 .482-1.355-2.904-1.162-2.871.957-2.235-.032.56-1.094.479-1.914-1.403.032-1.777,1.094-2.393,1.914-1.131-.133.548-1.278.479-1.914-2.562.377-6.293.575-7.657,3.35-1.19-.326.707-1.458.957-1.915-1.159-1.019-2.117,1.066-2.872,1.915-.71-.209.189-.613 0-1.436-3.001,1.754-5.398,1.24-8.135,3.35 1.361.068 3.616-1.181 5.264-1.436 1.208.932-1.221,2.257-1.436,3.35-1.234-.115.657-.823 0-1.914-1.373.717-1.01,3.454-3.35,1.914 1.704.972.441,2.946-1.436,3.829 .205-.912 1.031-1.203.957-2.393-1.396.614-1.565,2.451-1.914,2.872-1.592.33-.771-.989-.479-1.436-1.775.405-2.728,2.163-1.914,3.828-1.541.105-2.025-.847-3.829-.479 1.555,1.352-.037,2.68-1.436,1.914-.109,2.096-3.011,3.9-3.829,6.7-2.222-.84.581-.993.479-2.393-2.863.173-5.021,5.184-8.614,6.221-.146.972 1.383-.098 1.436-.479 .853.351.069.87 0,1.436 .331,1.195 1.277-.888 2.393-.479-3.322,2.951-5.998,3.8-10.528,5.742 .871.994 3.898.097 4.307-.957 1.407,1.439-2.419,1.705-2.872,2.872 .163.96-.098,1.497-.957,1.436 .276,1 1.187,1.366.957,2.871-4.884,1.215-4.349-2.988-8.135-2.871 3.276-1.829 4.283,2.727 7.657,2.393-.44-1.473-1.915-1.913-2.871-2.871 2.144-2.354-2.168-4.682-6.221-3.829-.721-.715-.143-2.728-1.914-2.393 .299-1.136 2.945.074 3.35-.957-.166-.625-.839-.749-.954-1.432zm-27.277,24.885c-.775.82-3.005.185-2.872,1.914 3.345.57 5.585-.553 8.614-1.436-2.053.437-3.377-1.381-5.264-2.393-.603.64-1.438.94-.478,1.915zm263.201,33.02c-.107.371-.014.944-.479.957 .236,2.315 3.151,1.953 4.785,2.871 .492-3.202-2.147-3.275-4.306-3.828zm-.957.478c-.497-2.056-2.899-2.206-4.308-3.351-1.619-.184-.753,2.119-2.871,1.436 .431-1.4.431-1.47 0-2.871-2.955-.72-6.083-3.798-8.613-3.349 1.34,1.629 3.372,3.287 4.785,5.742 1.177,2.045 1.286,6.767 4.785,5.265-.371-.106-.943-.013-.957-.479 2.237-1.403 3.855,1.007 5.265,0-2.383-1.604-5.366-2.61-7.657-4.308 3.343.039 6.395,4.828 9.571,1.915zm-125.858-4.786c-1.846-.067-2.211-1.616-4.307-1.435-3.861,2.228-15.294.836-18.185,6.7 .716.081 1.766-.171 1.914.479-1.086.828-1.717,2.11-3.828,1.914-.143.94.646.949.957,1.436-.833-.036-1.488.106-1.914.479-.036.834.107,1.488.479,1.915-4.338.994-1.106,7.267-1.436,9.092-1.637.042-.277-2.913-1.915-2.871-.113,1.322-2.7.171-2.393,1.914 .716.839 1.997-.423 2.393,1.436-2.02,1.89 1.708,4.414-.479,5.264-1.244-.191-1.443-1.428-2.871-1.436 .851,2.335 1.484,2.817 2.871,4.308 .552.592.94,1.503 1.436,1.914 2.097,1.735 5.574,2.377 8.136,4.307 .14.105-.148.87 0,.957 3.488,2.055 8.155,4.015 11.963,4.785 .019-1.772-.735-2.774-1.436-3.828 .951-.006.608-1.306 1.914-.957-.709,1.889.656,2.402.957,3.35-.139-.438-1.776,2.305 1.436,1.436-.489-1.804-1.62-4.469.479-5.742-.112,2.664.391,4.713 2.871,4.785 .286-.852-1.402-1.987 0-2.393 .478,1.437 1.435,2.394 2.871,2.871 .166-1.32-1.374-3.36 0-4.307 .051,2.342 1.034,3.752 2.871,4.307 .721-2.028-1.271-3.79-.479-4.307 1.734.904.561,5.075 3.829,3.35-1.077.225-1.476-2.597-.479-2.871 .186,1.238.307,2.505 2.393,2.871-.919-2.044-.603-2.349-1.436-4.307 1.851,1.34 3.892,2.488 6.221,3.35-1.001-1.79-.265-2.515-1.436-4.307 .913.204.866,1.367 2.393.957 .632-1.198-1.892-1.498-.479-1.914 .481.954 2.116.755 1.914,2.393-.556.401-1.282.631-2.393.479 .059,1.218.696,1.855 1.914,1.914 2.252-1.534 4.436-1.532 8.614-2.393 .021.659-.226,1.051-.479,1.436 1.638.202 1.438-1.434 2.393-1.914 2.026.979.299.505.957,1.914 2.014.738.076-2.477 1.436-2.393 2.059,2.202 2.307-1.334 3.35-1.436 .389-.038.291,1.593 0,1.436 1.314.712 4.051-.261 3.829-.957 .994.268 1.014.746.479,1.436 1.541.105 2.024-.847 3.828-.479-.021-1.457 1.011-1.861 1.436-2.871-.609-.667-2.344-.208-2.393-1.436 1.51-.234 1.689.862 3.35.479-.07-1.638 2.437-3.699 2.871-1.914-1.618.614-1.382,3.084-2.871,3.828 2.552-.465 4.331-3.218 3.35-5.743 2.11-.123 2.418-2.048 2.872-3.828-3.292-.564-9.397.694-10.05-1.436 3.264.353 5.321-.886 7.178.479 .276-1.159 1.808-1.064 2.872-1.436 2.285,1.543 6.294,1.362 8.613,2.871h-5.264c-1.418,1.294-1.947,3.477-3.35,4.785-.107-.371-.014-.943-.479-.957-3.329,4.169-4.368,10.628-8.614,13.878 .673-.921 1.265-1.925 1.436-3.35-14.805,4.373-37.484,5.102-51.205,3.828 .694.614 2.61,2.451 1.914,2.872-2.465.287-4.103.078-4.785,0 .601.195.978.617.957,1.436 1.463.347 1.408-.826 2.871-.479 .026.611.613.662.479,1.436-1.463.347-1.408-.826-2.871-.479-.349,1.306.951.963.957,1.914 1.783-.45 4.229-.237 5.264-1.436 .486,1.269 2.213,1.296 2.871,2.393-1.739-1.33-4.256-.897-6.7-.479-.091,3.365 4.283-.709 4.786,1.914-.291.826-2.27-.037-2.393.957 2.109,1.372 4.184-1.746 5.743.957-2.082.422-2.648-.414-3.35.957 .873,1.474 2.683-.961 3.35.479-1.483,1.309-3.137-.356-3.828,1.914 .007.791 1.327.269 1.436.957-.896.94-2.306.277-1.914-1.436-1.459-.187-2.437,1.259-2.872-.479 .373-.105.557-.4.479-.957 .404.449 3.051,1.022 3.35,0-.556-.401-1.283-.631-2.393-.479-.263-3.365-6.297-2.822-7.178-.957 .426.28 2.73,1.006 1.436,1.436-.855.002-2.784-1.288-3.35,0 1.843-.067 2.816,3.219 4.307,1.914-.823.026-1.227-.368-1.436-.957 1.308-.539 3.07-.295 4.307.479 .19,1.147-2.18-.265-1.436,1.436 1.966-.164 3.134-.628 4.307,0v.958c-1.124-.153-1.796-.757-3.35-.479 .337,3.279 4.744-.308 5.743,1.915-.848.108-2.396-.482-1.914.957 3.594,1.571 6.025-1.948 8.613.479-1.122-2.029 5.034-4.267 5.743-2.871-1.896.338-3.729.737-4.308,2.393 .215,1.088 2.06-1.83 2.394.479-.799.797-3.495-.304-3.351,1.436 4.109-.715 6.434,1.599 8.136,0-.427-.28-2.729-1.006-1.436-1.436 4.144,1.11 10.784-.64 14.356.479 .858-.896 2.938-.572 3.35-1.914-1.525-.409-1.816.416-2.393.957-.294-.664-1.842-.072-1.914-.957 2.09-.463 4-1.104 6.221-1.436 1.125-4.14 3.933-6.597 5.743-10.05-1.182,2.487-.87,6.468-2.872,8.135-.521-1.217 2.241-1.855 0-1.914 .234,1.389-1.981,2.753-.957,3.35 .268-1.568 1.852-.73 1.436.958 4.487-1.178 7.714-.655 10.528-3.351 .055.584.144,1.134.957.957 1.39-.931 1.241-1.579 3.351-.957 1.083-.83 1.399-2.428 2.871-2.871-.026.612-.613.663-.479,1.436 2.615-1.156 3.576-1.038 5.742-2.393 .249.708.708,1.206.957,1.914 2.637-.075 3.072-2.352 5.264-2.871 7.378.889 15.601-3.664 22.492-6.221 .232.565.511,1.084.957,1.436-.137-.844 2.254-1.482.957-1.914-.006.482-.839.602-.957,0 1.237-1.635 2.592-3.151 3.828-4.786-.637-1.173-1.444.862-1.914-.479 1.69-.813.767-1.468 1.436-2.871-1.913.001-2.872.956-4.785.957 .046-1.229 1.868-.685 1.914-1.914-1.512-.659-2.888,1.185-3.35,0 1.607-.626 3.901-.565 4.307-2.393-1.672.104-4.125,1.908-5.264.957 .736-.859 2.805-.386 2.871-1.914-1.655-.501-2.547,2.188-3.828.479 1.774-.459 3.65-.816 4.307-2.393-1.3.342.343-2.257-.957-1.915-.403,2.149-4.177.929-4.785,2.872 .509-.021 1.215.225.479.479-1.416-2.098-4.597.707-6.222-.479 1.044-.552 3.096-.096 3.351-1.436-.839-.133-2.389,1.347-2.872,0 1.415-.341 3.378-.132 3.829-1.437-12.8,1.078-20.589,7.168-33.021,8.614-.674.634-1.619,3.442-2.393,2.393 1.312-2.357 2.113-5.225 4.307-6.699 .913.204.866,1.367 2.394.957-.788-2.237.107-.912 1.914-.957 .632-1.198-1.893-1.498-.479-1.914 .628.487 1.764.469 2.393.957-.365-2.825 2.774.336 2.871-2.394 .861,1.599 2.349.091 3.828,1.437 .42-1.536-1.241-.992-1.436-1.915 1.517.652 3.656.692 3.35-.479 .647.151.914.682 1.915.479-1.167.555.533,2.255.957.958-.286-.717-2.408-1.998-1.436-2.394 3.191.155 9.109-1.094 10.527-4.307-1.073-.366-1.525,2.21-2.393.479-.095-1.092 2.899-2.979 2.871-.957 2.62-2.377 3.775,2.144 5.743,0 .074.563-.082,1.358.479,1.436 .401-.556.631-1.283.479-2.393-.371-.107-.944-.014-.957-.479-1.073-.366-1.525,2.21-2.393.479 .444-2.268 3.199-2.225 4.307-3.828-1.1-1.287.943-3.502 1.914-4.307-4.616,1.862-9.927-2.918-11.964.479v-1.436c-6.601-.729-12.771-1.084-20.099-.479 1.199.082 1.161-1.072 1.914-1.437-2.569.565-2.54-.007-4.307-.957-1.508,1.058-5.593,2.049-7.179,1.436-.056-1.831 5.071-.962 4.307-1.914-3.165-.759-5.858,1.462-7.656.479 1.053-.702 3.566.058 3.828-1.436-2.708-.776-4.447,1.909-6.221.479 .433-1.003 2.701-.17 2.871-1.436-3.92.067-6.475,1.501-9.571,2.393 .24-2.483 6.18-1.782 5.265-3.828-1.295.638-4.157,2.2-5.265,1.436 .812-.942 2.226-1.284 3.828-1.436 1.523-.659-1.69-.474-2.393-.479-.846-.431-1.396-1.155-2.393-1.436-1.004,1.085-4.665,2.013-5.264,1.914 .375-1.699 3.453-.694 3.828-2.394-4.081-.092-6.163,1.813-9.093,2.872 .552-2.798 5.192-1.507 6.222-3.829-2.802-.078-5.614,2.348-7.657,1.437 1.136-1.417 4.654-.45 5.265-2.394-1.841-.992-2.454,2.306-4.786.479 1.427-.009 2.916.045 2.872-1.436-2.129.534-1.925-1.266-3.351-1.435-1.173.637.862,1.445-.479,1.914-.07-2.162-2.247-2.219-3.828-2.871-.756,2.997-4.924-.235-6.221.479 .777-.143 1.29.646.479.957-1.048-.107-2.576-2.159-3.351-.957 1.172.053.102,1.582-.479,1.436-1.809-.635-6.657-1.719-4.301.475zm-127.293,12.922c.833-.037 1.488.106 1.914.479-.492-1.906-.393-3.154.957-1.436 .072-1.189-.247-1.986-.957-2.394-.141,1.688-1.295-1.688-1.436,0 1.564.987-.352,2.474-.478,3.351zm224.439,4.306c-.417-2.062-.214-3.676-3.35-3.828-1.092,1.141-.838,3.629-1.437,5.264 2.293,1.773 3.893-1.694 4.787-1.436zm-5.265,2.393c-.157-.249.598-.868.479-.957-.73-.547-2.204.473-2.393-.957 .74-.695.422-2.45.479-3.828-1.324.306-3.496-1.86-4.785,0 .294.663 1.842.071 1.914.957-2.175,6.278 3.95,9.065 8.136,6.699-.579-.102-.295-.531 0-.957-1.721-.105-2.923.472-3.83-.957zm-153.135,3.35c.852.286 1.987-1.402 2.393,0-.848.429-.61,1.942-2.393,1.436-.379,1.865-.495,2.481.479,3.828 1.984.13 1.865-.628 3.35,0 1.063-1.615-1.434-1.152-1.436-1.914-.001-.523 1.06-.579.957-.957-.091-.334-2.72-.892-.479-2.393 .404.448 3.051,1.022 3.35,0-2.317-.336-5.353-.697-4.307-2.871-2.239.144-1.309,2.033-1.914,2.871zm2.871-2.871v-1.436c-1.703.107-2.868-.322-3.35-1.436 .043-.754 1.22-.375.957-1.436-1.273-.163-1.677-1.195-2.871-1.436-1.389,1.381 1.297,1.131 1.436,2.393-.48-.002-.57.387-.957.479-.754-.043-.375-1.221-1.436-.957-.387,1.822 1.403,1.469 1.436,2.871 1.198-.06 1.498-.914 1.914.479-.892.066-1.6.314-1.914.957 .905-.107 1.056.539 1.914.479 .157-2.559 1.34-1.6 2.871-.957zm-8.135,7.656c-1.889-.587-.364-1.484.479-1.914-.637-.479-1.444-.789-1.914-1.436 1.19-.052 1.481-.896 2.393,0 .349-1.306-.951-.963-.957-1.914 3.109-.66-.014-3.972 0-6.699-2.681-.289-4.533.252-6.221.957 .118,2.191-.646,3.5-1.914,4.307 .563.075 1.358-.082 1.436.479-.459.544-2.805,1.601-1.914,1.914 .294-.14 1.842-1.19 1.914,0-.152,1.124-1.481,1.071-1.914,1.914 .695.262 2.473-.559 2.393.479-.637.479-1.444.789-1.914,1.436 .695.262 2.474-.559 2.393.479-.823-.025-1.227.369-1.436.957 .637,1.174 1.444-.862 1.914.479-.897,1.259 1.253,1.611-.479,2.871 1.804-.368 2.288.584 3.829.479 1.427-.687-1.258-2.495.957-2.393-.625-2.86.024-.688.955-2.395zm193.812,12.921c2.622-1.167-2.069,1.242-.957-1.436 2.491.212 5.851-.08 6.699,2.871 1.474-.335.92-.335 2.393,0-.867-4.875-6.259-5.226-9.57-7.656-.452,1.462-2.329,1.5-2.393,3.35 .539.737 1.374,1.178 1.914,1.914-7.914-3.411-13.397-9.254-21.057-12.921 .852-.425 1.217-1.336 2.871-.957 .655,2.833 4.66,3.299 6.222,3.829-.114.683-.788.807-.957,1.436 2.591,1.509 3.794,2.152 6.699.479-.753-3.577-5.629-4.785-8.135-6.222-3.214-1.842-5.889-4.992-9.093-6.699 .281,1.362 1.771,2.43-.479,2.871-.164-2.707-1.276-4.467-3.828-4.785 .653,2.089-1.854,1.018-1.436,2.871 .205.911 1.03,1.202.957,2.393 1.483-.048 2.654.217 3.35.957-2.024-.696-4.976,1.559-8.136,2.393 2.408.633 4.549-1.485 5.743-.479-1.262,1.132-3.9.885-5.265,1.914 2.062.691 4.182,0 4.786,0 .961.977-.212.938-.479,1.914 1.716-.12 1.753,1.438 3.35,1.437 .107-.372.013-.944.479-.957 2.305,1.523 4.706,2.95 8.136,3.35 1.174,3.99 5.972,1.891 8.135,4.307-.187.683-.574.807 0,1.436 2.129.479 2.722,2.049 5.264.957-.199,2.372.145,1.56 1.915,1.436 .218,1.206.527,2.285 2.871,2.394 .897-.916.053-1.207.001-2.397zm-178.977-13.878c-2.253.268-3.186.249-4.307-1.436 1.456.032 4.384,1.572 4.307-.957-1.903.417-2.404.417-4.307,0-2.026,3.176 2.807,4.372 4.307,2.393zm141.171,4.307c1.19.073 1.481-.752 2.393-.957-.393-1.203-.626-2.564-2.393-2.394 .658,1.515.105,1.6 0,3.351zm27.278,2.871c1.666.727 2.969,1.817 5.264,1.914 6.122-3.381-2.808-5.648-5.264-1.914zm19.141,10.05c1.804.367 2.288-.584 3.829-.479-.149-1.606-1.601-1.909-2.871-2.394 .273,1.55-.145,2.408-.958,2.873zm-7.177.479c1.266-1.542.722,2.756 3.35,1.436 .032-2.585-2.103-3.002-3.828-3.829 .82,1.222-.549,1.675.478,2.393zm4.306,2.392c-.026-.504-.613-.377-.479.479 1.761-.038 3.985-1.005 2.871.957 1.198.081 1.498-.735 1.915-1.436-1.78.504-.938-1.614-1.915-1.914-.305,1.738-2.236-1.11-2.393.479 .628.007.612,1.327.001,1.435zm-197.161,28.235c4.89.139 3.861-6.111 0-6.222-1.249-.035-.75,1.215-2.393.479-.236-1.512 2.375-.178 1.914-1.914-2.087.306-3.641,1.145-3.828,3.35 1.548.592.366-1.548 1.914-.957-.578,2.185-.442,5.183 2.393,5.264zm85.66-1.914c.186,3.78 5.515,4.237 7.178.957 .113-7.167-7.402-5.52-7.178-.957zm-124.901-102.41c4.244-.013 3.282-9.658-.479-8.135 1.188,3.404.298,5.285.479,8.135zm-4.786-13.399c-.724-.583-4.122-.939-4.785,0 1.321.245 4.005,2.129 4.785,0zm.479,13.399c-.059,1.654.935,2.255 1.436,3.35-.481-1.598.664-1.569 1.914-1.436 .07-1.187.089-2.322-.957-2.393 .08,1.038-1.698.217-2.393.479z" fill-rule="evenodd"/>
 <path d="m88.531,143.984c.479-.638.789-1.444 1.436-1.914-2.389-1.28-6.405-.934-9.093-1.914 .883-1.829 2.719-2.705 4.307-3.829 .914.486-.94,2.213-1.436,2.871 1.133.947 1.9-2.545 3.828-2.393-.324,1.111-1.222,1.649-1.914,2.393 .615,1.339.989-1.507 2.393-.957-1.401,1.046 1.877,2.195 1.915.479 1.433.315-.458,1.023 0,1.915 .604-.249 2.906-1.167 1.436-1.915 2.76-.589 4.328-2.371 5.743-4.307-3.125-1.979-7.298-2.911-12.442-2.871-.192,1.875-.746,1.18-1.914,2.393-1.202-.773.85-2.303.957-3.35 1.833,1.109 4.892-.035 4.785-2.393 1.038-.081.217,1.697.479,2.393 2.376-1.931 6.191,1.163 7.657-2.393 1.233.115-.657.823 0,1.914 1.243.286 1.722-.192 1.436-1.436 .561.077.403.872.479,1.436 1.503.241 1.955-1.128 2.393.479 1.426-.01.614-2.258 1.436-2.871-.595,4.102 4.628,3.004 7.178,4.785-.362,1.744-1.527-.046-3.35.479-.946,1.606-3.6,1.505-6.221,1.436-.061-.858.586-1.009.479-1.914-4.848,2.971-7.338,8.297-11.967,11.484z" fill-rule="evenodd"/>
 <path d="m55.99,24.826c1.188.072 1.986-.247 2.393-.957 1.146,1.334-1.941,2.504-1.436,4.786-.52-.118-.325-.952-.957-.957 1.681-.869.473-1.649 0-2.872z" fill-rule="evenodd"/>
 <path d="m217.739,46.839c1.537-.752 4.243,1.479 6.7,2.872 2.623,1.486 5.597,2.608 6.699,3.35 1.813,1.219.812,2.47 0,.479-5.017-1.684-8.911-4.488-13.399-6.701z" fill-rule="evenodd"/>
 <path d="m132.079,91.822c1.257-.479-2.58,1.325-2.871,2.394 .491,1.066 3.204.377 2.871-.957 1.194.24 1.599,1.272 2.872,1.436-2.096,1.16.043,1.623.479,2.871h-2.872c-1.156-1.112.748-1.281.957-2.393-3.228-1.082-3.055,3.633-7.178,2.393 .401-.556.631-1.283.479-2.393 .915-.202 2.06-.174 1.914-1.436-.913-1.49-2.078.748-3.35.479 1.632-2.38 4.509-.572 6.699-2.394z" fill-rule="evenodd"/>
 <path d="m208.168,94.694c-.525-2.013 2.852.863 2.872-1.436 .726,2.781 3.824.688 5.742.479-1.312,3.758-5.041.413-8.614.957z" fill-rule="evenodd"/>
 <path d="m246.931,105.7c.298-.875 1.999.827 1.914,1.914-1.355.365-3.612,1.412-4.785.479 .144-2.295 4.541.13 2.871-2.393z" fill-rule="evenodd"/>
 <path d="m161.749,114.314c1.228-.884 3.124,1.644 4.786,1.914 .67-.169.041-.843-.479-.957 .338-.915 2.245.58 2.871.957-.676,2.042-3.642-.381-3.829,1.436-.945-1.052-.8-2.92-3.349-3.35z" fill-rule="evenodd"/>
 <path d="m159.835,139.678c.543.091.266.479 0,.479 .725.711 2.101.771 3.35.957-1.938,2.06-3.152-1.306-5.742,0-.739-2.015 2.476-.077 2.392-1.436z" fill-rule="evenodd"/>
</svg>
