<?xml version="1.0" encoding="UTF-8"?>
<svg viewBox="0 0 538.34308 92.682648" xmlns="http://www.w3.org/2000/svg">
 <g transform="translate(-40.13 -521.2)" fill="none" stroke="#000" stroke-linejoin="round" stroke-width="3.7">
  <path d="m351.43 553.08 4.2818 40.373"/>
  <path d="m550.14 542.28c5.8891 16.724 4.5507 32.462 0 47.762"/>
  <path d="m557.08 542.49c6.6011 22.957 2.5162 34.16-4.5e-4 47.087"/>
  <path d="m41.98 569c18.012 8.7928 52.555 15.847 85.371 16.875 65.771 2.0609 147.18 2.2012 227.47 2.2012m-136.96-46.429c-1.3252 6.7987-7.0943 17.595-20.779 19.023-41.248 4.305-98.84 5.6905-155.06 8.6858m169.02-15.065 140.39-1.2157c-0.57845-4.2242-0.70597-8.5772-2.8557-12.352m35.688 52.352c-14.539 0.14361-32.556-4.2802-36.491 7.3521-31.656 0.00592-82.429 0.56877-219.69-2.1911-44.346-0.91196-72.426-13.986-86.06-28.88 57.337-11.659 117.43-19.985 175.84-27.709l39.196-0.32938c-1.676 6.9114-1.5278 13.183 7.5002-0.06302l8.0352-0.06753c-2.8146 13.621 2.9462 6.1707 8.2144-0.06903l7.5925-0.0638c-2.4614 11.74 2.2912 7.2483 8.3-0.06975l7.0553-0.05929c-0.60892 6.684-0.5684 12.172 9.1073-0.07653l7.9459-0.06677c-3.4839 14.034 3.9189 6.2755 7.3239-0.06154l7.4965-0.063c-2.7681 15.839 4.3335 5.6326 9.733-0.08179l38.929 1.7857-0.0246 50.714zm12.906-51.071c50.379-2.7185 101.11-2.5111 152.83 0.15698 2.3526 1.918 4.9564 3.2259 7.3218 0.0075l13.75 0.01409c7.0266 20.246 7.5138 29.528 0.71429 47.679l-14.108 0.11516c-1.9959-2.2498-6.0145-1.9473-7.5355 0.06151-50.554 3.8061-101.08 5.5293-152.98 1.2965v-49.33zm-12.906-16.096c5.4146-4.4498 9.384-3.119 12.906 0v83.978c-4.8583 3.3374-8.9941 2.3393-12.906 0v-83.978z"/>
 </g>
</svg>
