<?xml version="1.0" encoding="iso-8859-1"?>
<!-- Generator: Adobe Illustrator 19.0.0, SVG Export Plug-In . SVG Version: 6.00 Build 0)  -->
<svg version="1.1" id="Capa_1" xmlns="http://www.w3.org/2000/svg" xmlns:xlink="http://www.w3.org/1999/xlink" x="0px" y="0px"
	 viewBox="0 0 512 512" style="enable-background:new 0 0 512 512;" xml:space="preserve">
<path style="fill:#FFF2E9;" d="M454.967,504.396H152.978c-26.675,0-48.3-21.626-48.3-48.29V96.459l-34.563-63.6L56.388,7.604
	h301.989c18.331,0,34.279,10.21,42.461,25.255c3.721,6.854,5.84,14.701,5.84,23.045v351.901L454.967,504.396z"/>
<g>
	<path style="fill:#E2D0C5;" d="M400.837,32.859H70.115L56.388,7.604h301.989C376.707,7.604,392.655,17.814,400.837,32.859z"/>
	<circle style="fill:#E2D0C5;" cx="56.385" cy="55.894" r="48.294"/>
</g>
<path style="fill:#FFF2E9;" d="M503.257,456.106c0,3.163-0.304,6.256-0.892,9.257c-4.309,22.234-23.887,39.034-47.398,39.034
	H152.978v-96.591h301.989C481.642,407.804,503.257,429.431,503.257,456.106z"/>
<g>
	<path style="fill:#E2D0C5;" d="M502.365,465.362c-4.309,22.234-23.887,39.034-47.398,39.034H152.978v-39.034H502.365z"/>
	<circle style="fill:#E2D0C5;" cx="152.972" cy="456.106" r="48.294"/>
</g>
<path style="fill:#EFB078;" d="M238.014,305.151c35.564-35.564,17.351-137.063,138.804-234.223
	c34.528-27.623,63.908-34.674,88.276-30.614c19.376,3.228,34.53,18.382,37.758,37.758c4.059,24.367-2.992,53.748-30.614,88.276
	C375.077,287.8,273.578,269.587,238.014,305.151"/>
<path d="M97.077,55.899v186.179c0,4.199,3.405,7.604,7.604,7.604c4.199,0,7.604-3.405,7.604-7.604V55.899
	c0-16.027-6.79-30.489-17.631-40.691h263.726c12.202,0,23.655,5.408,31.424,14.838c1.504,1.825,3.68,2.769,5.873,2.769
	c1.702,0,3.415-0.569,4.831-1.735c3.241-2.669,3.705-7.462,1.035-10.703C390.874,7.428,375.143,0,358.379,0H56.387
	C25.564,0,0.487,25.076,0.487,55.899s25.076,55.898,55.899,55.898c8.015,0,15.755-1.663,23.008-4.942
	c3.826-1.731,5.527-6.234,3.796-10.062c-1.731-3.827-6.237-5.526-10.062-3.796c-5.27,2.383-10.903,3.591-16.742,3.591
	c-22.437,0-40.691-18.254-40.691-40.69c0-22.438,18.255-40.691,40.691-40.691S97.077,33.461,97.077,55.899z"/>
<path d="M175.501,479.144c0-4.199-3.405-7.604-7.604-7.604c-8.512,0-15.439-6.926-15.439-15.438c0-8.512,6.926-15.439,15.439-15.439
	c4.199,0,7.604-3.405,7.604-7.604c0-4.199-3.405-7.604-7.604-7.604c-16.898,0-30.647,13.748-30.647,30.647
	s13.748,30.646,30.647,30.646C172.097,486.748,175.501,483.343,175.501,479.144z"/>
<path d="M66.514,40.46c4.199,0,7.604-3.405,7.604-7.604s-3.405-7.604-7.604-7.604c-16.898,0-30.647,13.748-30.647,30.647
	s13.748,30.646,30.647,30.646c4.199,0,7.604-3.405,7.604-7.604s-3.405-7.604-7.604-7.604c-8.512,0-15.439-6.926-15.439-15.438
	C51.076,47.386,58.002,40.46,66.514,40.46z"/>
<path d="M399.071,260.836v120.376c0,4.199,3.404,7.604,7.604,7.604c4.2,0,7.604-3.405,7.604-7.604V260.836
	c0-4.199-3.404-7.604-7.604-7.604C402.474,253.232,399.071,256.636,399.071,260.836z"/>
<path d="M454.969,400.203H152.976c-16.027,0-30.489,6.79-40.691,17.632V272.497c0-4.199-3.405-7.604-7.604-7.604
	c-4.199,0-7.604,3.405-7.604,7.604v183.605c0,30.822,25.076,55.898,55.899,55.898h301.993c30.822,0,55.899-25.076,55.899-55.898
	S485.791,400.203,454.969,400.203z M148.822,496.581c-19.81-2.018-35.462-18.305-36.484-38.39c-0.035-0.692-0.053-1.39-0.053-2.091
	c0-22.437,18.254-40.691,40.691-40.691c22.437,0,40.69,18.254,40.69,40.691c0,22.437-18.254,40.69-40.69,40.69
	C151.574,496.792,150.188,496.721,148.822,496.581z M454.969,496.792H191.243c10.841-10.202,17.631-24.664,17.631-40.69
	c0-16.027-6.79-30.489-17.631-40.691h263.726c22.437,0,40.691,18.254,40.691,40.691C495.66,478.539,477.406,496.792,454.969,496.792
	z"/>
<path d="M256.081,246.181c-7.066,23.911-12.646,42.797-23.441,53.593l-37.386,37.386c-2.97,2.97-2.97,7.784,0,10.753
	c1.484,1.484,3.431,2.227,5.376,2.227s3.892-0.742,5.376-2.227l37.388-37.388c10.797-10.794,29.682-16.375,53.59-23.439
	c48.857-14.436,115.769-34.208,181.192-115.988c2.624-3.279,2.092-8.064-1.187-10.688c-3.279-2.624-8.064-2.092-10.688,1.187
	c-62.439,78.051-126.702,97.04-173.625,110.904c-5.643,1.668-11.013,3.261-16.125,4.869L455.931,97.99
	c2.97-2.97,2.97-7.784,0-10.753c-2.971-2.97-7.784-2.97-10.754,0l-179.38,179.379c1.608-5.113,3.201-10.481,4.869-16.125
	c13.866-46.923,32.854-111.186,110.905-173.626c29.351-23.482,57.034-33.259,82.275-29.051
	c16.154,2.692,28.816,15.353,31.507,31.507c2.915,17.498-0.907,36.29-11.36,55.857c-1.979,3.704-0.58,8.311,3.124,10.29
	c3.703,1.98,8.312,0.579,10.29-3.124c12.07-22.594,16.427-44.638,12.948-65.523c-3.76-22.563-21.446-40.249-44.01-44.009
	c-29.68-4.946-61.404,5.878-94.275,32.177C290.288,130.413,270.517,197.325,256.081,246.181z"/>
<path d="M165.361,95.824H317.94c4.2,0,7.604-3.405,7.604-7.604c0-4.199-3.404-7.604-7.604-7.604H165.361
	c-4.199,0-7.604,3.405-7.604,7.604C157.757,92.42,161.162,95.824,165.361,95.824z"/>
<path d="M165.361,144.487h115.574c4.2,0,7.604-3.405,7.604-7.604s-3.404-7.604-7.604-7.604H165.361
	c-4.199,0-7.604,3.405-7.604,7.604S161.162,144.487,165.361,144.487z"/>
<path d="M165.361,194.019h89.722c4.2,0,7.604-3.405,7.604-7.604s-3.404-7.604-7.604-7.604h-89.722c-4.199,0-7.604,3.405-7.604,7.604
	S161.162,194.019,165.361,194.019z"/>
<path d="M165.361,243.549h76.036c4.199,0,7.604-3.405,7.604-7.604s-3.405-7.604-7.604-7.604h-76.036
	c-4.199,0-7.604,3.405-7.604,7.604S161.162,243.549,165.361,243.549z"/>
<path d="M165.361,292.212h48.663c4.199,0,7.604-3.405,7.604-7.604c0-4.199-3.405-7.604-7.604-7.604h-48.663
	c-4.199,0-7.604,3.405-7.604,7.604C157.757,288.808,161.162,292.212,165.361,292.212z"/>
<g>
</g>
<g>
</g>
<g>
</g>
<g>
</g>
<g>
</g>
<g>
</g>
<g>
</g>
<g>
</g>
<g>
</g>
<g>
</g>
<g>
</g>
<g>
</g>
<g>
</g>
<g>
</g>
<g>
</g>
</svg>
