<?xml version="1.0" encoding="UTF-8"?>
<svg viewBox="0 0 900 231.12178" xmlns="http://www.w3.org/2000/svg">
 <defs>
  <linearGradient id="b" x1="556.88" x2="554.45" y1="524.36" y2="703.34" gradientUnits="userSpaceOnUse">
   <stop stop-color="#808080" offset="0"/>
   <stop stop-color="#b3b3b3" offset="1"/>
  </linearGradient>
  <radialGradient id="a" cx="634.49" cy="655.18" r="5.7857" gradientTransform="matrix(-.83268 .75169 -.7744 -.85783 1672.2 735.44)" gradientUnits="userSpaceOnUse">
   <stop stop-color="#f9f9f9" offset="0"/>
   <stop stop-color="#808080" offset="1"/>
  </radialGradient>
 </defs>
 <g transform="translate(-327.14 -499.97)">
  <path d="m327.14 713.27s7.4947-37.766 9.4812-56.887c4.199-40.417-0.67735-104.07 5.1053-121.8 9.8481-30.188 32.169-37.513 55.389-33.673 28.189 4.6615 97.834 15.896 137.15 19.816 90.603 9.0328 181.84 9.8152 272.77 14.586 33.061 1.7348 66.088 4.4742 99.188 5.1053 91.4 1.7427 213.74-4.1178 274.23-3.6466 22.176 0.17276 46.086 19.403 46.677 47.406 0.7765 36.771-36.466 54.699-36.466 54.699s-13.587-18.984-31.361-25.526c-20.258-7.4562-37.064 8.5315-110.13 8.0226-49.009-0.34136-105.6-30.468-145.87-16.045-42.867 15.353-68.557 118.15-68.557 118.15s-220.68 10.813-330.94 6.6704c-59.117-2.2211-176.67-16.881-176.67-16.881z" fill="url(#b)"/>
  <path d="m1168.4 536.78c-63.615 0.24926-176.47 5.2713-262.16 3.6375-0.61547-0.0123-1.2352-0.0507-1.8507-0.0637v64.646c40.198-13.525 96.22 16.062 144.8 16.401 73.065 0.5089 89.888-15.497 110.15-8.0408 17.774 6.542 31.334 25.526 31.334 25.526s37.216-17.919 36.439-54.69c-0.5913-28.003-24.474-47.243-46.65-47.415-3.7804-0.0294-7.8202-0.0163-12.061 0z"/>
  <path transform="matrix(2.0421 0 0 2.0421 -340.92 -761.88)" d="m641.96 653.26c0 3.0573-2.4784 5.5357-5.5357 5.5357s-5.5357-2.4784-5.5357-5.5357 2.4784-5.5357 5.5357-5.5357 5.5357 2.4784 5.5357 5.5357z" fill="url(#a)"/>
  <path transform="matrix(2.0421 0 0 2.0421 -231.52 -761.88)" d="m641.96 653.26c0 3.0573-2.4784 5.5357-5.5357 5.5357s-5.5357-2.4784-5.5357-5.5357 2.4784-5.5357 5.5357-5.5357 5.5357 2.4784 5.5357 5.5357z" fill="url(#a)"/>
  <path d="m332.34 685.15c-2.5593 14.796-5.1691 28.143-5.1691 28.143s117.53 14.626 176.64 16.847c110.26 4.1425 330.95-6.6369 330.95-6.6369s3.3286-13.12 9.4448-30.568c-24.236 1.0747-235.4 10.163-347.35 6.254-46.008-1.6062-124.36-9.6717-164.52-14.04z" fill="#f2f2f2" opacity=".5085"/>
 </g>
</svg>
