<?xml version="1.0" encoding="UTF-8"?>
<svg enable-background="new 0 0 286.559 283.246" viewBox="0 0 286.559 283.246" xmlns="http://www.w3.org/2000/svg">
 <path d="m286.56 252.3c0 3.11-2.545 5.657-5.656 5.657h-275.25c-3.112 0-5.657-2.547-5.657-5.657v-226.41c0-3.111 2.545-5.657 5.657-5.657h275.25c3.111 0 5.656 2.545 5.656 5.657v226.41z" fill="#231f20"/>
 <path d="m28.655,234.286c-1.241,0-2.453-.497-3.33-1.362s-1.378-2.069-1.378-3.294v-150.725c0-1.228.5-2.428 1.378-3.293s2.088-1.363 3.33-1.363h229.25c1.24,0 2.451.496 3.33,1.363s1.379,2.065 1.379,3.293v150.725c0,1.225-.502,2.425-1.379,3.294-.879.865-2.09,1.362-3.33,1.362h-229.25zm229.25-4.656v-4.654 4.654z" fill="#fff"/>
 <path d="m61.405 105.65c-2.514 0-4.548-2.01-4.548-4.496 0-2.481 2.034-4.496 4.548-4.496h163.75c2.51 0 4.549 2.014 4.549 4.496 0 2.486-2.039 4.496-4.549 4.496h-163.75z" fill="#231f20"/>
 <path d="m255.86 277.59c0 3.111-2.545 5.657-5.658 5.657h-19.385c-3.113 0-5.658-2.546-5.658-5.657v-8.917c0-3.112 2.545-5.657 5.658-5.657h19.385c3.113 0 5.658 2.545 5.658 5.657v8.917z" fill="#231f20"/>
 <path d="m61.405 277.59c0 3.111-2.546 5.657-5.657 5.657h-19.389c-3.111 0-5.657-2.546-5.657-5.657v-8.917c0-3.112 2.546-5.657 5.657-5.657h19.389c3.111 0 5.657 2.545 5.657 5.657v8.917z" fill="#231f20"/>
 <path d="m282.84 12.851c2.043 1.277 1.744 2.321-0.664 2.321h-277.8c-2.41 0-2.665-0.969-0.566-2.153l19.25-10.865c2.098-1.185 5.787-2.154 8.197-2.154h226.62c2.408 0 6.055 1.044 8.098 2.321l16.858 10.53z" fill="#231f20"/>
 <path d="m75.731 45.899c0 8.59-7.042 15.555-15.733 15.555s-15.735-6.965-15.735-15.555 7.043-15.556 15.735-15.556 15.733 6.97 15.733 15.556z" fill="#fff"/>
 <path d="m115.39 45.899c0 8.59-7.045 15.555-15.735 15.555s-15.733-6.965-15.733-15.555 7.042-15.556 15.733-15.556 15.735 6.97 15.735 15.556z" fill="#fff"/>
 <path d="m202.64 45.899c0 8.59-7.045 15.555-15.734 15.555s-15.738-6.965-15.738-15.555 7.045-15.556 15.738-15.556 15.734 6.97 15.734 15.556z" fill="#fff"/>
 <path d="m242.3 45.899c0 8.59-7.047 15.555-15.738 15.555s-15.732-6.965-15.732-15.555 7.043-15.556 15.732-15.556 15.738 6.97 15.738 15.556z" fill="#fff"/>
</svg>
